<?xml version="1.0" encoding="UTF-8" standalone="no"?>
<!-- Created with Inkscape (http://www.inkscape.org/) -->

<svg
   xmlns:dc="http://purl.org/dc/elements/1.1/"
   xmlns:cc="http://creativecommons.org/ns#"
   xmlns:rdf="http://www.w3.org/1999/02/22-rdf-syntax-ns#"
   xmlns:svg="http://www.w3.org/2000/svg"
   xmlns="http://www.w3.org/2000/svg"
   xmlns:sodipodi="http://sodipodi.sourceforge.net/DTD/sodipodi-0.dtd"
   xmlns:inkscape="http://www.inkscape.org/namespaces/inkscape"
   width="160.299"
   height="89.758003"
   viewBox="0 0 42.412442 23.748472"
   version="1.1"
   id="svg8"
   inkscape:version="0.92.2 (5c3e80d, 2017-08-06)"
   sodipodi:docname="map-xs.svg">
  <defs
     id="defs2" />
  <sodipodi:namedview
     id="base"
     pagecolor="#ffffff"
     bordercolor="#666666"
     borderopacity="1.0"
     inkscape:pageopacity="0.0"
     inkscape:pageshadow="2"
     inkscape:zoom="2.8"
     inkscape:cx="126.12817"
     inkscape:cy="58.165327"
     inkscape:document-units="px"
     inkscape:current-layer="layer1"
     showgrid="false"
     units="px"
     inkscape:window-width="1920"
     inkscape:window-height="1027"
     inkscape:window-x="-8"
     inkscape:window-y="-8"
     inkscape:window-maximized="1" />
  <metadata
     id="metadata5">
    <rdf:RDF>
      <cc:Work
         rdf:about="">
        <dc:format>image/svg+xml</dc:format>
        <dc:type
           rdf:resource="http://purl.org/dc/dcmitype/StillImage" />
        <dc:title></dc:title>
      </cc:Work>
    </rdf:RDF>
  </metadata>
  <g
     inkscape:label="Layer 1"
     inkscape:groupmode="layer"
     id="layer1"
     transform="translate(0,-273.25152)">
    <g
       transform="matrix(0.26458333,0,0,0.26458333,-43.980939,262.65021)"
       id="g10340">
      <g
         id="XMLID_601_"
         style="opacity:0.1">
        <g
           id="XMLID_604_">
          <polygon
             id="XMLID_1134_"
             points="300.7,62.4 300.9,62.4 "
             style="fill:#8cb5ba;stroke:#efeeee;stroke-width:0.25189999;stroke-linecap:round;stroke-linejoin:round" />
          <polygon
             id="XMLID_1112_"
             points="292.3,58.4 292.3,58.5 293.1,59.5 "
             style="fill:#8cb5ba;stroke:#efeeee;stroke-width:0.25189999;stroke-linecap:round;stroke-linejoin:round" />
          <polygon
             id="XMLID_826_"
             points="292.3,58.4 292.3,58.5 "
             style="fill:#8cb5ba;stroke:#efeeee;stroke-width:0.25189999;stroke-linecap:round;stroke-linejoin:round" />
          <polygon
             id="XMLID_825_"
             points="321.1,76.3 321.9,78.2 321.3,76.2 321.3,75.9 321.1,76 "
             style="fill:#8cb5ba;stroke:#efeeee;stroke-width:0.25189999;stroke-linecap:round;stroke-linejoin:round" />
          <path
             id="XMLID_824_"
             d="m 322.1,78.8 0.7,1.7 -0.3,0.7 -0.1,0.6 -1.4,0.3 -1,1.5 h -0.5 l -0.6,-0.9 -0.8,0.2 c 0,0 -1.8,0.7 -2,0.7 -0.2,0 -1.7,-0.3 -1.7,-0.3 l -1.5,-0.5 h -0.5 l -0.2,0.2 -0.8,9.8 h 0.2 l 0.8,-9.9 h 0.7 l 1.3,0.6 1.7,0.1 1.2,-0.4 1.5,-0.4 0.6,0.9 h 0.7 l 0.5,-0.7 0.5,-0.7 1.4,-0.3 v -0.7 l 0.4,-1.1 -1,-2 v 0 z"
             inkscape:connector-curvature="0"
             style="fill:#8cb5ba;stroke:#efeeee;stroke-width:0.25189999;stroke-linecap:round;stroke-linejoin:round" />
          <polygon
             id="XMLID_821_"
             points="311.3,92.8 311.4,92.8 "
             style="fill:#8cb5ba;stroke:#efeeee;stroke-width:0.25189999;stroke-linecap:round;stroke-linejoin:round" />
          <polygon
             id="XMLID_820_"
             points="307.9,89.5 308.2,90.1 310.2,91.6 310.6,92.8 311.3,92.8 310.6,92.7 310.3,91.7 308.2,90.1 307.1,87.3 306.8,87.2 307.1,87.3 "
             style="fill:#8cb5ba;stroke:#efeeee;stroke-width:0.25189999;stroke-linecap:round;stroke-linejoin:round" />
          <polygon
             id="XMLID_819_"
             points="306.4,87.2 306.8,87.2 "
             style="fill:#8cb5ba;stroke:#efeeee;stroke-width:0.25189999;stroke-linecap:round;stroke-linejoin:round" />
          <polygon
             id="XMLID_818_"
             points="306.4,87.2 306.3,87.2 306.1,87.4 "
             style="fill:#8cb5ba;stroke:#efeeee;stroke-width:0.25189999;stroke-linecap:round;stroke-linejoin:round" />
          <polygon
             id="XMLID_815_"
             points="302.2,87.7 305.7,87.7 306.1,87.4 305.7,87.6 "
             style="fill:#8cb5ba;stroke:#efeeee;stroke-width:0.25189999;stroke-linecap:round;stroke-linejoin:round" />
          <polygon
             id="XMLID_814_"
             points="302.2,87.7 301.1,86.5 "
             style="fill:#8cb5ba;stroke:#efeeee;stroke-width:0.25189999;stroke-linecap:round;stroke-linejoin:round" />
          <polygon
             id="XMLID_813_"
             points="307.7,61.6 306.7,61.6 305.6,62.8 304.2,62.7 303.4,63.5 302.1,63.5 301.7,62.6 300.9,62.4 301.6,62.6 302.1,63.6 303.4,63.6 304.3,62.8 305.7,62.9 306.7,61.7 307.8,61.7 308.5,60.8 309.9,60.9 311.4,61.5 312.5,62.9 313.4,64.4 315.8,64.7 316.9,66.4 317.7,67 321.6,67.2 323,65.4 323.4,65.4 323.5,66.2 324.6,66.8 325.1,67.4 326.3,67.6 326.3,68 325.2,68.1 324.1,68.9 324.1,69.4 324.7,70.3 324.9,71.6 323.7,72.3 321.3,73.7 321.1,76 321.3,75.9 321.5,73.8 322.2,73.4 323.3,72.8 324.1,72.2 325,71.6 324.9,70.3 324.2,69.2 324.6,68.7 325.3,68.2 326.3,68.1 326.4,67.4 325.1,67.4 324.8,66.7 323.6,66.1 323.5,65.2 323,65.3 322.3,65.9 321.5,67 319.1,67 317.8,66.9 316.7,66 315.9,64.6 313.4,64.3 311.7,61.6 311.1,61.2 309.6,60.6 308.4,60.6 "
             style="fill:#8cb5ba;stroke:#efeeee;stroke-width:0.25189999;stroke-linecap:round;stroke-linejoin:round" />
          <polygon
             id="XMLID_812_"
             points="301.1,86.5 301,86.5 300.7,86.5 "
             style="fill:#8cb5ba;stroke:#efeeee;stroke-width:0.25189999;stroke-linecap:round;stroke-linejoin:round" />
          <polygon
             id="XMLID_811_"
             points="300.1,86.7 300.3,86.5 300.7,86.5 300.3,86.4 "
             style="fill:#8cb5ba;stroke:#efeeee;stroke-width:0.25189999;stroke-linecap:round;stroke-linejoin:round" />
          <polygon
             id="XMLID_810_"
             points="300.1,86.7 299.6,87.1 299.1,87.3 298.8,87.6 299.1,87.3 299.7,87.1 "
             style="fill:#8cb5ba;stroke:#efeeee;stroke-width:0.25189999;stroke-linecap:round;stroke-linejoin:round" />
          <polygon
             id="XMLID_809_"
             points="297.9,87.6 298.6,87.7 298.8,87.6 298.7,87.6 "
             style="fill:#8cb5ba;stroke:#efeeee;stroke-width:0.25189999;stroke-linecap:round;stroke-linejoin:round" />
          <polygon
             id="XMLID_808_"
             points="297.9,87.6 297.6,87.6 296.4,86.4 296.1,86.8 296.5,86.5 297.6,87.6 "
             style="fill:#8cb5ba;stroke:#efeeee;stroke-width:0.25189999;stroke-linecap:round;stroke-linejoin:round" />
          <polygon
             id="XMLID_807_"
             points="293.1,59.5 296.7,64.4 297.7,63.5 298.3,62.8 298,61.9 298.1,61.5 298.8,61 299.9,61 300.6,62.3 300.7,62.4 300.5,61.6 300.2,61.1 298.8,60.8 298,61.4 297.9,61.9 298.2,62.8 297.5,63.5 296.7,64.3 "
             style="fill:#8cb5ba;stroke:#efeeee;stroke-width:0.25189999;stroke-linecap:round;stroke-linejoin:round" />
          <polygon
             id="XMLID_806_"
             points="296.1,86.8 295.9,86.9 296,86.9 "
             style="fill:#8cb5ba;stroke:#efeeee;stroke-width:0.25189999;stroke-linecap:round;stroke-linejoin:round" />
          <polygon
             id="XMLID_805_"
             points="295.9,86.9 295,86.9 295.1,87 "
             style="fill:#8cb5ba;stroke:#efeeee;stroke-width:0.25189999;stroke-linecap:round;stroke-linejoin:round" />
          <polygon
             id="XMLID_804_"
             points="293.4,86.1 294.9,86.9 295,86.9 294.3,86.5 293.5,86.1 "
             style="fill:#8cb5ba;stroke:#efeeee;stroke-width:0.25189999;stroke-linecap:round;stroke-linejoin:round" />
          <polygon
             id="XMLID_803_"
             points=""
             style="fill:#8cb5ba;stroke:#efeeee;stroke-width:0.25189999;stroke-linecap:round;stroke-linejoin:round" />
          <polygon
             id="XMLID_802_"
             points="293.4,86.1 292.9,86.1 292,86.5 "
             style="fill:#8cb5ba;stroke:#efeeee;stroke-width:0.25189999;stroke-linecap:round;stroke-linejoin:round" />
          <polygon
             id="XMLID_801_"
             points="292.3,58.4 291.9,60 290.4,61.8 290.9,61.3 292,60 292.3,58.5 "
             style="fill:#8cb5ba;stroke:#efeeee;stroke-width:0.25189999;stroke-linecap:round;stroke-linejoin:round" />
          <polygon
             id="XMLID_800_"
             points="291.9,67.6 291.9,67.1 "
             style="fill:#8cb5ba;stroke:#efeeee;stroke-width:0.25189999;stroke-linecap:round;stroke-linejoin:round" />
          <polygon
             id="XMLID_799_"
             points="291.8,67.8 291.9,67.7 291.9,67.6 "
             style="fill:#8cb5ba;stroke:#efeeee;stroke-width:0.25189999;stroke-linecap:round;stroke-linejoin:round" />
          <polygon
             id="XMLID_798_"
             points="291.6,68.1 291.8,67.8 291.7,67.9 "
             style="fill:#8cb5ba;stroke:#efeeee;stroke-width:0.25189999;stroke-linecap:round;stroke-linejoin:round" />
          <polygon
             id="XMLID_797_"
             points="291.1,69 291.6,68.1 291.5,68.3 "
             style="fill:#8cb5ba;stroke:#efeeee;stroke-width:0.25189999;stroke-linecap:round;stroke-linejoin:round" />
          <polygon
             id="XMLID_796_"
             points="291.8,66.8 291.9,67.1 291.8,66.8 291.6,66.5 291.6,65.8 291.6,66.5 "
             style="fill:#8cb5ba;stroke:#efeeee;stroke-width:0.25189999;stroke-linecap:round;stroke-linejoin:round" />
          <polygon
             id="XMLID_795_"
             points="291.6,65.8 290.7,64.9 290.6,64.8 "
             style="fill:#8cb5ba;stroke:#efeeee;stroke-width:0.25189999;stroke-linecap:round;stroke-linejoin:round" />
          <path
             id="XMLID_778_"
             d="m 291.3,110.8 v 0 c 0,-0.1 0,-0.2 -0.1,-0.2 0,0 0,0 0,0 -0.1,-0.1 -0.2,-0.1 -0.3,-0.1 -0.2,0 -0.4,0.2 -0.4,0.5 0,0.1 0,0.2 0.1,0.2 0.1,0.1 0.2,0.1 0.4,0.1 0.2,0 0.3,-0.3 0.3,-0.5 z"
             inkscape:connector-curvature="0"
             style="fill:#8cb5ba;stroke:#efeeee;stroke-width:0.25189999;stroke-linecap:round;stroke-linejoin:round" />
          <polygon
             id="XMLID_777_"
             points="291,69.3 291.1,69 "
             style="fill:#8cb5ba;stroke:#efeeee;stroke-width:0.25189999;stroke-linecap:round;stroke-linejoin:round" />
          <polygon
             id="XMLID_776_"
             points="289.5,69.5 291,69.4 291,69.3 "
             style="fill:#8cb5ba;stroke:#efeeee;stroke-width:0.25189999;stroke-linecap:round;stroke-linejoin:round" />
          <path
             id="XMLID_775_"
             d="m 291.2,110.6 c 0,0.1 0.1,0.1 0.1,0.2 v 0 c 0,0.2 -0.1,0.5 -0.4,0.5 -0.1,0 -0.3,0 -0.4,-0.1 0.1,0.1 0.2,0.2 0.4,0.2 0.2,0 0.4,-0.2 0.4,-0.5 0,-0.2 0,-0.3 -0.1,-0.3 z"
             inkscape:connector-curvature="0"
             style="fill:#8cb5ba;stroke:#efeeee;stroke-width:0.25189999;stroke-linecap:round;stroke-linejoin:round" />
          <polygon
             id="XMLID_774_"
             points="290.8,87.1 291.9,86.5 292,86.5 291.9,86.5 290.7,87.1 "
             style="fill:#8cb5ba;stroke:#efeeee;stroke-width:0.25189999;stroke-linecap:round;stroke-linejoin:round" />
          <polygon
             id="XMLID_773_"
             points="290.6,87.2 290.7,87.1 "
             style="fill:#8cb5ba;stroke:#efeeee;stroke-width:0.25189999;stroke-linecap:round;stroke-linejoin:round" />
          <polygon
             id="XMLID_772_"
             points="289.5,63.6 289.5,63.7 290.6,64.8 290.7,64.9 "
             style="fill:#8cb5ba;stroke:#efeeee;stroke-width:0.25189999;stroke-linecap:round;stroke-linejoin:round" />
          <path
             id="XMLID_769_"
             d="m 290.9,110.5 c 0.1,0 0.2,0 0.3,0.1 -0.1,-0.2 -0.2,-0.2 -0.3,-0.1 -0.3,0 -0.5,0.2 -0.5,0.4 0,0.1 0.1,0.2 0.1,0.3 0,-0.1 -0.1,-0.1 -0.1,-0.2 0,-0.3 0.2,-0.5 0.5,-0.5 z"
             inkscape:connector-curvature="0"
             style="fill:#8cb5ba;stroke:#efeeee;stroke-width:0.25189999;stroke-linecap:round;stroke-linejoin:round" />
          <polygon
             id="XMLID_768_"
             points="290.3,61.9 290.3,61.8 290.4,61.8 "
             style="fill:#8cb5ba;stroke:#efeeee;stroke-width:0.25189999;stroke-linecap:round;stroke-linejoin:round" />
          <polygon
             id="XMLID_767_"
             points="289.5,62.6 290.3,61.9 289.5,62.5 289.5,63.6 "
             style="fill:#8cb5ba;stroke:#efeeee;stroke-width:0.25189999;stroke-linecap:round;stroke-linejoin:round" />
          <polygon
             id="XMLID_766_"
             points="289.9,86.9 290.1,87 289.9,86.8 "
             style="fill:#8cb5ba;stroke:#efeeee;stroke-width:0.25189999;stroke-linecap:round;stroke-linejoin:round" />
          <path
             id="XMLID_761_"
             stroke-miterlimit="10"
             d="m 325.1,67.4 -0.5,-0.7 -1,-0.6 -0.1,-0.8 H 323 l -1.5,1.8 -3.9,-0.2 -0.8,-0.7 -1.1,-1.6 -2.4,-0.3 -1,-1.5 -1,-1.4 -1.5,-0.6 -1.4,-0.2 -0.7,0.9 h -1.1 l -1,1.2 -1.3,-0.1 -0.9,0.9 h -1.3 l -0.5,-1 -0.7,-0.2 h -0.2 v 0 h -0.1 L 299.9,61 h -1.1 l -0.6,0.4 -0.1,0.5 0.3,0.8 -0.6,0.7 -1.1,0.9 -3.5,-4.9 -0.8,-1.1 -0.4,1.7 -1.1,1.3 -0.5,0.5 v 0 0 l -0.8,0.8 v 1 l 1.2,1.2 v 0 l 0.9,1 v 0 0 0.7 l 0.3,0.3 v 0.3 l 0.1,0.4 v 0 0.1 l -0.1,0.1 -0.2,0.3 -0.5,0.9 -0.1,0.3 v 0 0 l -1.5,0.1 -0.6,0.1 v 0 l -0.5,-0.3 -0.1,0.1 -1.3,1.2 -0.5,0.5 v 1.2 0.1 l 0.1,0.6 0.2,0.5 0.5,0.6 0.4,0.4 -0.7,1 0.1,0.8 0.3,0.9 v 0.1 l 0.9,0.9 -0.4,0.9 -0.2,0.1 -0.2,0.2 -0.1,0.1 v 0 h -0.1 l -0.5,0.2 0.1,0.6 0.8,1 1.1,0.9 v 0 0 l -0.4,0.4 -0.5,0.5 V 86 H 288 v 0 l -0.6,0.3 v 0.9 l 0.5,0.5 0.1,0.3 h 0.1 l 0.6,-0.6 0.7,-0.1 0.4,-0.4 v -0.1 0 0 l 0.2,0.2 0.4,0.2 h 0.2 l 1.2,-0.7 h 0.1 l 0.9,-0.3 h 0.5 v 0 0 h 0.1 l 0.9,0.4 0.7,0.4 h 0.9 l 0.2,-0.1 0.3,-0.4 1.2,1.2 h 0.3 0.8 l 0.1,-0.1 0.3,-0.3 0.5,-0.1 0.4,-0.5 0.2,-0.3 0.4,0.1 h 0.3 l 0.1,0.1 h 0.1 l 1.1,1.1 3.5,-0.1 0.4,-0.2 0.2,-0.2 h 0.1 0.1 l 0.4,0.1 h 0.3 l 1.1,2.9 2.1,1.6 0.3,1 0.7,0.1 h 0.1 l 0.8,-9.8 0.2,-0.2 h 0.5 l 1.5,0.5 c 0,0 1.5,0.3 1.7,0.3 0.2,0 2,-0.7 2,-0.7 l 0.8,-0.2 0.6,0.9 h 0.5 l 1,-1.5 1.4,-0.3 0.1,-0.6 0.3,-0.7 -0.7,-1.7 -0.2,-0.6 -0.8,-1.9 v -0.3 l 0.1,-2.2 2.4,-1.4 1.2,-0.7 -0.2,-1.4 -0.6,-0.9 V 69 l 1.1,-0.8 1,-0.1 v -0.4 z m -9.5,10.9 -0.9,-0.1 -0.8,-0.7 -1.9,0.1 -0.7,-0.3 -0.3,-0.3 0.4,-0.2 0.3,-0.2 h 1.4 1.1 l 0.5,0.3 0.7,0.2 h 1.4 l 0.5,0.4 -0.6,1.2 -0.4,-0.1 z"
             inkscape:connector-curvature="0"
             style="fill:#7892b1;stroke:#efeeee;stroke-width:0.25189999;stroke-miterlimit:10" />
          <polygon
             id="XMLID_760_"
             points="289.9,86.9 289.8,86.9 "
             style="fill:#8cb5ba;stroke:#efeeee;stroke-width:0.25189999;stroke-linecap:round;stroke-linejoin:round" />
          <polygon
             id="XMLID_759_"
             points="289.4,87.3 289.5,87.3 289.8,86.9 "
             style="fill:#8cb5ba;stroke:#efeeee;stroke-width:0.25189999;stroke-linecap:round;stroke-linejoin:round" />
          <polygon
             id="XMLID_758_"
             points="289.5,69.5 288.9,69.6 288.9,69.5 288.9,69.6 "
             style="fill:#8cb5ba;stroke:#efeeee;stroke-width:0.25189999;stroke-linecap:round;stroke-linejoin:round" />
          <polygon
             id="XMLID_757_"
             points="288.8,87.5 289.4,87.3 288.7,87.4 288.1,88 288.2,88 "
             style="fill:#8cb5ba;stroke:#efeeee;stroke-width:0.25189999;stroke-linecap:round;stroke-linejoin:round" />
          <polygon
             id="XMLID_744_"
             points="288.9,69.5 288.4,69.1 288.4,69.2 "
             style="fill:#8cb5ba;stroke:#efeeee;stroke-width:0.25189999;stroke-linecap:round;stroke-linejoin:round" />
          <polygon
             id="XMLID_656_"
             points="287.8,83.2 288.3,82.7 288.7,82.2 288.6,82.2 "
             style="fill:#8cb5ba;stroke:#efeeee;stroke-width:0.25189999;stroke-linecap:round;stroke-linejoin:round" />
          <polygon
             id="XMLID_655_"
             points="288.4,69.2 288.2,69.3 "
             style="fill:#8cb5ba;stroke:#efeeee;stroke-width:0.25189999;stroke-linecap:round;stroke-linejoin:round" />
          <polygon
             id="XMLID_654_"
             points="288.2,69.3 287.2,70.2 287,70.5 "
             style="fill:#8cb5ba;stroke:#efeeee;stroke-width:0.25189999;stroke-linecap:round;stroke-linejoin:round" />
          <polygon
             id="XMLID_653_"
             points="288.1,78 287.8,78.8 287.6,79.1 287.8,78.9 288.2,78 287.3,77.1 287.3,77 287.3,77.1 "
             style="fill:#8cb5ba;stroke:#efeeee;stroke-width:0.25189999;stroke-linecap:round;stroke-linejoin:round" />
          <polygon
             id="XMLID_652_"
             points="288.1,88 288,88 287.6,87.7 288,88.1 "
             style="fill:#8cb5ba;stroke:#efeeee;stroke-width:0.25189999;stroke-linecap:round;stroke-linejoin:round" />
          <polygon
             id="XMLID_651_"
             points="287.8,86.1 287.8,86 287.8,83.2 "
             style="fill:#8cb5ba;stroke:#efeeee;stroke-width:0.25189999;stroke-linecap:round;stroke-linejoin:round" />
          <polygon
             id="XMLID_650_"
             points="287.7,81.4 288.6,82.2 288.7,82.2 287.6,81.2 286.8,80.2 "
             style="fill:#8cb5ba;stroke:#efeeee;stroke-width:0.25189999;stroke-linecap:round;stroke-linejoin:round" />
          <polygon
             id="XMLID_649_"
             points="287.6,79.1 287.3,79.3 287.5,79.3 "
             style="fill:#8cb5ba;stroke:#efeeee;stroke-width:0.25189999;stroke-linecap:round;stroke-linejoin:round" />
          <polygon
             id="XMLID_648_"
             points="287.1,87.2 287.1,87.3 287.6,87.7 "
             style="fill:#8cb5ba;stroke:#efeeee;stroke-width:0.25189999;stroke-linecap:round;stroke-linejoin:round" />
          <polygon
             id="XMLID_647_"
             points="287.2,79.3 287.3,79.3 "
             style="fill:#8cb5ba;stroke:#efeeee;stroke-width:0.25189999;stroke-linecap:round;stroke-linejoin:round" />
          <polygon
             id="XMLID_646_"
             points="287,76.2 287,76.4 287.3,77 "
             style="fill:#8cb5ba;stroke:#efeeee;stroke-width:0.25189999;stroke-linecap:round;stroke-linejoin:round" />
          <polygon
             id="XMLID_645_"
             points="287.2,74 286.8,73.4 286.6,72.9 286.7,73.4 "
             style="fill:#8cb5ba;stroke:#efeeee;stroke-width:0.25189999;stroke-linecap:round;stroke-linejoin:round" />
          <polygon
             id="XMLID_644_"
             points="287.2,79.3 286.7,79.5 286.7,79.6 "
             style="fill:#8cb5ba;stroke:#efeeee;stroke-width:0.25189999;stroke-linecap:round;stroke-linejoin:round" />
          <polygon
             id="XMLID_643_"
             points="287.8,86.1 287,86.4 287.1,87.2 287.1,86.3 "
             style="fill:#8cb5ba;stroke:#efeeee;stroke-width:0.25189999;stroke-linecap:round;stroke-linejoin:round" />
          <polygon
             id="XMLID_642_"
             points="287,76.2 286.9,75.4 287.6,74.4 287.2,74 287.6,74.4 286.9,75.4 286.9,75.9 "
             style="fill:#8cb5ba;stroke:#efeeee;stroke-width:0.25189999;stroke-linecap:round;stroke-linejoin:round" />
          <polygon
             id="XMLID_641_"
             points="286.5,71 287,70.5 "
             style="fill:#8cb5ba;stroke:#efeeee;stroke-width:0.25189999;stroke-linecap:round;stroke-linejoin:round" />
          <polygon
             id="XMLID_640_"
             points="286.7,80.1 286.8,80.2 286.7,79.6 "
             style="fill:#8cb5ba;stroke:#efeeee;stroke-width:0.25189999;stroke-linecap:round;stroke-linejoin:round" />
          <polygon
             id="XMLID_639_"
             points="286.4,72.3 286.4,72.5 286.6,72.9 "
             style="fill:#8cb5ba;stroke:#efeeee;stroke-width:0.25189999;stroke-linecap:round;stroke-linejoin:round" />
          <polygon
             id="XMLID_637_"
             points="286.5,71 286.4,71.1 286.4,72.2 "
             style="fill:#8cb5ba;stroke:#efeeee;stroke-width:0.25189999;stroke-linecap:round;stroke-linejoin:round" />
          <polygon
             id="XMLID_635_"
             points="286.4,72.3 286.4,72.2 "
             style="fill:#8cb5ba;stroke:#efeeee;stroke-width:0.25189999;stroke-linecap:round;stroke-linejoin:round" />
          <path
             id="XMLID_632_"
             stroke-miterlimit="10"
             d="m 311.4,92.8 v 0 l -0.8,-0.1 -0.4,-1.1 -2,-1.5 -0.2,-0.6 -0.8,-2.2 h -0.2 -0.5 l -0.3,0.2 -0.4,0.3 h -3.5 v 0 l -1.1,-1.1 -0.4,-0.1 h -0.5 l -0.2,0.2 -0.4,0.5 -0.6,0.1 -0.3,0.3 -0.1,0.1 -0.7,-0.1 h -0.3 l -1.2,-1.1 -0.4,0.3 -0.1,0.1 h -0.1 L 295.1,87.1 295,87 h -0.1 l -1.5,-0.8 v 0 l -1.4,0.3 h -0.1 l -1.1,0.6 v 0 l -0.1,0.1 h -0.1 l -0.4,0.1 -0.3,0.8 0.2,0.2 v 1.5 l 0.1,0.6 1.1,-0.4 h 1.4 l 0.6,0.3 0.7,0.2 0.3,-1.1 1,-0.4 0.7,0.2 -0.3,-0.6 0.9,-0.1 h 0.7 l 0.4,0.8 -0.7,0.2 -0.2,1.1 -0.5,0.5 -1.3,0.1 -0.6,-0.1 -1.1,0.6 h -0.8 l -0.3,-0.3 h -1.6 l -0.5,-0.2 -0.9,0.2 -0.8,0.3 -0.7,-0.2 -2.5,0.1 -0.8,0.3 h -0.9 l -0.8,0.1 c -0.2,-0.1 -0.4,-0.3 -0.5,-0.3 0,0 0,0.1 0.1,0.2 l -0.7,0.2 -0.4,0.4 -0.9,0.5 -0.7,0.1 -0.3,1.7 -0.6,0.8 -0.8,-0.1 -0.6,0.3 v 0.5 l 0.4,1 -0.2,0.8 -0.5,0.8 0.1,1.1 0.2,1.8 -0.5,-1 0.2,0.6 0.6,0.9 1.5,1.3 0.2,1.2 3.2,1.6 0.6,2.9 1.3,2.5 0.4,0.8 v 1.7 h 0.6 l 0.4,-0.8 h 3.3 l 1,-0.7 1.2,-0.2 1.1,0.4 0.8,-0.2 3.4,-0.1 1.2,-0.4 0.7,0.4 2.3,-0.1 0.5,0.7 0.6,0.6 2,-0.1 0.7,0.4 0.4,0.1 0.2,0.2 0.4,0.1 0.6,-0.2 -0.1,-0.9 -0.7,-0.6 c 0,0 0,-0.7 0,-1.1 0,-0.4 0.7,-0.4 0.7,-0.4 l 0.7,-0.5 -0.4,-0.3 -0.3,-0.4 0.5,-0.7 h 1.1 v -0.8 l -0.7,-0.3 0.3,-0.9 -2.5,-3.7 -0.6,-2.1 0.6,-1.9 -2.4,0.2 -0.1,-0.1 -0.1,-0.5 0.5,-1 4.9,-2.6 1.5,-0.5 0.7,0.8 h 0.8 l 0.9,-0.7 1.5,0.6 0.1,-2 h -1.7 l 0.1,-0.7 V 92.9 Z M 291,111.3 c -0.2,0 -0.3,-0.1 -0.4,-0.2 -0.1,-0.1 -0.1,-0.2 -0.1,-0.3 0,-0.2 0.2,-0.5 0.4,-0.5 0.2,0 0.3,0.1 0.4,0.2 0,0 0,0 0,0 0.1,0.1 0.1,0.2 0.1,0.3 0,0.3 -0.2,0.5 -0.4,0.5 z"
             inkscape:connector-curvature="0"
             style="fill:#3c608e;stroke:#efeeee;stroke-width:0.25189999;stroke-miterlimit:10" />
          <polygon
             id="XMLID_631_"
             stroke-miterlimit="10"
             points="275.1,96.3 262,97.2 257.7,97.3 256.6,97.7 256.5,97.7 256.7,98.7 258.7,103.3 259.4,105.2 259.4,108.9 259,109.4 258.3,111.9 258.3,112.5 259.3,113.7 260.2,113.6 261.4,115.5 261.4,116.6 263,118.4 264.9,119.5 264.9,119.5 265,119.2 265,118 265.8,117.2 265.8,116.1 267.4,115.9 268.5,115.7 270,115.7 271.5,116.2 272.6,116.2 273.6,116.9 274.8,117 275.6,117.6 276.3,117.4 275.9,116.3 276.1,114.9 276.5,113.5 277.5,113 278.6,112.3 279.4,112.3 280.4,112.8 281.6,113.5 282.9,114.1 285,114.1 285,112.4 284.6,111.7 283.3,109.2 282.7,106.3 279.4,104.7 279.2,103.5 277.7,102.2 277.1,101.2 276.9,100.6 276.7,100.3 276.2,100.2 275.7,99.3 275,98.6 274.3,98.3 274.6,97.5 274.5,97 275,96.3 "
             style="fill:#c1cddb;stroke:#efeeee;stroke-width:0.25189999;stroke-miterlimit:10" />
          <path
             id="XMLID_630_"
             stroke-miterlimit="10"
             d="m 245.2,47 -0.6,0.5 v 0.4 l 0.9,0.3 v 0.4 l -1.2,0.9 0.2,0.3 0.6,0.5 0.4,0.4 -0.3,0.4 -0.4,0.3 v 0.5 l 0.6,0.4 -0.5,0.4 -0.2,0.4 0.5,0.5 -0.2,0.2 -0.6,0.2 -0.3,0.6 -0.1,3.8 v -0.1 0.1 0 l 2.2,0.1 1.4,0.2 0.6,-0.2 0.6,-1 1.3,0.8 3.6,-2.9 v -1.1 l -1,-2.1 1,-1.1 1.2,-0.3 0.9,0.3 0.8,-0.7 1.1,0.2 0.1,0.9 0.8,0.3 0.9,1.1 0.7,-0.8 c 0,0 1.7,-0.1 1.8,0.4 0.1,0.2 1.4,-0.1 1.4,-0.1 l 0.9,0.9 0.8,1.2 1.6,-0.4 1.3,-0.1 0.6,1.2 h 0.6 l 1.1,0.3 c 0,0 0.1,0 1.7,0.2 l -0.2,-0.5 -0.4,-0.6 0.6,-0.1 v -0.6 l -0.4,-0.2 H 271 l -0.5,-0.4 -0.1,-0.2 0.3,-0.4 0.5,-0.4 -0.3,-0.4 -0.7,0.1 -0.2,0.2 -0.2,-1.2 v 0 l -0.2,-0.1 0.4,-1 0.7,-0.9 h 0.8 l 0.2,-0.7 -0.8,-0.7 -0.7,0.7 -1.1,-0.1 -0.7,-0.9 h -0.9 l -0.1,0.7 -0.2,0.6 -0.7,0.1 v -1.3 l -1,-1.1 -1.2,0.7 -0.9,0.9 -0.4,-0.7 -0.8,0.8 -0.9,-1.2 0.7,-0.5 v -0.7 l 0.2,-1.1 -0.9,-0.9 -0.1,-1.6 -0.7,-1.4 -1.2,0.2 -0.8,0.9 -2.4,-1.1 -1.6,-0.4 -0.7,0.3 -1.2,0.7 -1,0.9 -0.1,0.8 h -1.2 l -3,1.2 -2.7,0.8 v 0 l 0.3,1.4 z"
             inkscape:connector-curvature="0"
             style="fill:#3c608e;stroke:#efeeee;stroke-width:0.25189999;stroke-miterlimit:10" />
          <polygon
             id="XMLID_629_"
             stroke-miterlimit="10"
             points="279.6,45.8 278.3,46.8 277.3,47 276.5,48.4 275.9,48.7 275.4,48.9 274.1,49.7 273.8,50.9 273.2,50.8 272.2,50.2 271.3,50.8 270.5,51.3 269.9,51.1 269.9,51.1 270.1,52.3 270.2,52.1 270.9,52 271.2,52.4 270.8,52.8 270.4,53.2 270.6,53.4 271.1,53.8 271.6,53.8 272.1,54 272.1,54.6 271.4,54.7 271.8,55.3 272,55.7 272.1,56.1 272.8,57.6 272.7,59.7 272.3,60.6 272.3,61.2 273.1,62.1 272.6,62.3 271.6,63.9 272.3,64 272.5,64.5 272.6,64.7 273.1,65.3 273.7,65.9 273.1,66.4 273.1,66.9 273.5,67.8 275.7,67.9 276.3,68.5 276.9,68.5 277.9,69.1 278.1,70.2 277.6,71 278.4,71.2 279.3,70 280.2,69.8 281.1,69.4 282.1,69.5 283.8,68.6 284.7,66.4 285.7,66.4 286.1,66.7 287.3,66.8 287.9,67.2 287.8,68.2 288.4,69.2 288.4,69.2 288.4,69.1 288.9,69.5 288.9,69.6 289.5,69.5 291,69.3 291.1,69 291.5,68.3 291.6,68.1 291.7,67.9 291.8,67.8 291.9,67.6 291.9,67.1 291.8,66.8 291.6,66.5 291.6,65.8 290.6,64.8 289.5,63.7 289.5,63.6 289.5,63.6 289.5,62.5 290.3,61.9 290.4,61.8 291.9,60 292.3,58.4 287.7,52.3 286,50.3 284.5,49.2 281.2,47.4 280.4,46.2 280.9,46.2 281.7,46.2 282.1,45.2 282,44.3 281.5,44.6 280.5,45.2 279.6,45.2 "
             style="fill:#3c608e;stroke:#efeeee;stroke-width:0.25189999;stroke-miterlimit:10" />
          <path
             id="XMLID_628_"
             d="m 264,66.1 c 0.2,0 0.4,-0.2 0.4,-0.5 v 0 c 0,-0.2 -0.2,-0.4 -0.5,-0.4 -0.2,0 -0.4,0.2 -0.4,0.5 0.1,0.3 0.3,0.5 0.5,0.4 z"
             inkscape:connector-curvature="0"
             style="fill:#8cb5ba;stroke:#efeeee;stroke-width:0.25189999;stroke-linecap:round;stroke-linejoin:round" />
          <polygon
             id="XMLID_626_"
             stroke-miterlimit="10"
             points="248.6,100.6 248.2,101.2 249.6,103 249.7,107.3 251.7,109 251.4,110.1 251.4,111.4 250.1,112.8 250.9,114.2 250.9,114.2 249.6,115.1 248.6,115.9 247.3,116.3 246.1,117.1 244.7,118.3 244.1,118.8 243.1,119.4 243.1,119.4 243,121.2 245.1,121.4 246.1,126.5 249.9,126.3 251.2,126.1 251.9,126.7 252.6,127.3 252.1,128.4 253.5,129.7 254.7,129.7 254.7,127.8 255,127.6 255.8,126.7 256.5,125.8 257.2,124.9 258,124.4 258.9,123.4 260.8,122.9 261.9,121.5 262.6,120.7 263.6,121.2 264,120.2 264.9,119.9 264.9,119.5 263,118.4 261.4,116.6 261.4,115.5 260.2,113.6 259.3,113.7 258.3,112.5 258.3,111.9 259,109.4 259.4,108.9 259.4,105.2 258.7,103.3 256.7,98.7 256.5,97.7 256.5,97.6 248.9,97.7 "
             style="fill:#1f497d;stroke:#efeeee;stroke-width:0.25189999;stroke-miterlimit:10" />
          <polygon
             id="XMLID_624_"
             stroke-miterlimit="10"
             points="229.6,75.3 229,75.7 229.5,76.3 229.5,77 229.1,78 230.4,79.5 230.9,79.7 231.2,79.2 231.5,79.2 231.9,79.5 231.6,80.3 232.5,81 233.4,81.6 234.7,82 235.7,83.7 235.7,83.8 236.4,83.7 236.6,83.2 236.7,82.5 237.4,82.1 237.7,81.4 238.2,81 238.3,80.2 238.6,79.6 239.3,79.6 239.6,80.1 242,80.4 242.9,79.6 243.7,79.7 244.3,78.6 245.3,77.8 245.4,76.5 246.8,75.3 248.2,74.1 249.3,71.9 250.7,70.9 251.4,70.5 251.4,69.4 251.2,69.4 248.7,69.6 247.1,68.6 246.8,67.8 244.9,67.8 243.9,66.3 242,66.3 242,63.4 241.2,62.5 243,60.4 244,58.4 244.1,54.7 244.4,54 245,53.9 245.2,53.7 244.7,53.2 244.9,52.7 245.3,52.4 244.7,51.9 244.7,51.4 245.2,51.1 245.5,50.7 245.1,50.3 244.5,49.8 244.2,49.5 245.5,48.6 245.5,48.1 244.5,47.8 244.5,47.5 245.2,47 244.9,46.6 244.6,45.2 243.6,45 242.3,45.5 241.1,46 241.1,47 240.7,47.3 237.4,47 236.4,47.6 234.4,47.8 233.5,48.3 231.1,48.5 230.7,48.5 229.2,48.5 228.1,48.4 227.5,48 226.6,48.1 226,48.8 226.6,49.2 226.4,49.8 225.7,50.5 226.6,50.8 227.7,50.8 228.1,51.2 226.9,51.8 226.1,51.9 226.1,52.6 227.5,52.8 228.8,53.3 229.7,53.7 229.6,54.3 229,54.7 227.8,54.7 226.7,54.4 226,54.4 225.2,55.2 224.3,56.1 225.2,57.1 225.4,58.3 224.5,59.2 222.9,59.6 221.9,60.3 221.9,60.8 223,61.6 222.7,62.1 222.9,62.7 224.6,62.7 224.8,63.5 226,63.5 226.9,64.3 226.9,64.7 228.5,64.7 228.3,65.7 228.6,66.3 229.2,65.6 229.6,66 229.8,66.6 230.3,67.2 229.8,67.6 229.8,68.5 230.4,69.1 230.9,69.8 231.2,70.8 231.2,71.4 231.6,71.7 231.7,73.2 231.4,73.5 230.4,74.1 "
             style="fill:#3c608e;stroke:#efeeee;stroke-width:0.25189999;stroke-miterlimit:10" />
          <polygon
             id="XMLID_623_"
             stroke-miterlimit="10"
             points="229.6,75.3 229,75.7 229.5,76.3 229.5,77 229.1,78 230.4,79.5 230.9,79.7 231.2,79.2 231.5,79.2 231.9,79.5 231.6,80.3 232.5,81 233.4,81.6 234.7,82 235.7,83.7 235.7,83.8 236.4,83.7 236.6,83.2 236.7,82.5 237.4,82.1 237.7,81.4 238.2,81 238.3,80.2 238.6,79.6 239.3,79.6 239.6,80.1 242,80.4 242.9,79.6 243.7,79.7 244.3,78.6 245.3,77.8 245.4,76.5 246.8,75.3 248.2,74.1 249.3,71.9 250.7,70.9 251.4,70.5 251.4,69.4 251.2,69.4 248.7,69.6 247.1,68.6 246.8,67.8 244.9,67.8 243.9,66.3 242,66.3 242,63.4 241.2,62.5 243,60.4 244,58.4 244.1,54.7 244.4,54 245,53.9 245.2,53.7 244.7,53.2 244.9,52.7 245.3,52.4 244.7,51.9 244.7,51.4 245.2,51.1 245.5,50.7 245.1,50.3 244.5,49.8 244.2,49.5 245.5,48.6 245.5,48.1 244.5,47.8 244.5,47.5 245.2,47 244.9,46.6 244.6,45.2 243.6,45 242.3,45.5 241.1,46 241.1,47 240.7,47.3 237.4,47 236.4,47.6 234.4,47.8 233.5,48.3 231.1,48.5 230.7,48.5 229.2,48.5 228.1,48.4 227.5,48 226.6,48.1 226,48.8 226.6,49.2 226.4,49.8 225.7,50.5 226.6,50.8 227.7,50.8 228.1,51.2 226.9,51.8 226.1,51.9 226.1,52.6 227.5,52.8 228.8,53.3 229.7,53.7 229.6,54.3 229,54.7 227.8,54.7 226.7,54.4 226,54.4 225.2,55.2 224.3,56.1 225.2,57.1 225.4,58.3 224.5,59.2 222.9,59.6 221.9,60.3 221.9,60.8 223,61.6 222.7,62.1 222.9,62.7 224.6,62.7 224.8,63.5 226,63.5 226.9,64.3 226.9,64.7 228.5,64.7 228.3,65.7 228.6,66.3 229.2,65.6 229.6,66 229.8,66.6 230.3,67.2 229.8,67.6 229.8,68.5 230.4,69.1 230.9,69.8 231.2,70.8 231.2,71.4 231.6,71.7 231.7,73.2 231.4,73.5 230.4,74.1 "
             style="opacity:0.03999999;fill:#ffffff;stroke:#efeeee;stroke-width:0.25189999;stroke-miterlimit:10" />
          <path
             id="XMLID_620_"
             stroke-miterlimit="10"
             d="m 252,69.2 0.6,-0.7 0.2,-0.4 h 1.1 l 1.2,1.7 1.8,0.2 0.3,1.3 h 0.7 V 71 l 0.8,0.2 0.6,0.5 h 1.2 l 0.8,-0.6 V 70 l 1.3,-1.1 1.7,-1.2 0.8,0.2 0.2,1.6 1.1,0.1 0.8,-1.1 1.1,-0.7 0.4,-1.1 1.2,-0.1 0.4,-0.8 0.9,-0.5 0.8,-0.1 0.6,-0.5 -0.2,-0.2 -0.2,-0.6 -0.6,-0.1 0.9,-1.6 0.5,-0.3 -0.7,-0.9 -0.1,-0.6 0.5,-0.8 v -2.1 l -0.6,-1.5 -0.2,-0.4 c -1.7,-0.1 -1.7,-0.2 -1.7,-0.2 l -1.1,-0.3 h -0.6 L 268,54 l -1.4,0.3 -1.6,0.4 -0.8,-1.2 -0.9,-0.9 c 0,0 -1.4,0.2 -1.4,0.1 -0.2,-0.5 -1.8,-0.4 -1.8,-0.4 l -0.7,0.8 -0.9,-1.1 -0.8,-0.3 -0.1,-0.9 -1.1,-0.2 -0.8,0.7 -0.9,-0.3 -1.2,0.3 -1,1.1 1,2.1 v 1.1 l -3.6,2.9 -1.3,-0.8 -0.6,1 -0.6,0.2 -1.4,-0.2 -2.2,-0.1 v 0 l -1,2 -1.8,2.1 0.8,0.8 v 3 h 2 l 1,1.4 h 1.8 l 0.4,0.8 1.6,1 2.6,-0.2 v 0 z m 11.9,-4 c 0.2,0 0.5,0.1 0.5,0.4 v 0 c 0,0.2 -0.1,0.5 -0.4,0.5 -0.2,0 -0.5,-0.2 -0.5,-0.4 0,-0.2 0.2,-0.4 0.4,-0.5 z"
             inkscape:connector-curvature="0"
             style="fill:#7892b1;stroke:#efeeee;stroke-width:0.25189999;stroke-miterlimit:10" />
          <path
             id="XMLID_615_"
             stroke-miterlimit="10"
             d="m 251.4,110.1 0.3,-1.1 -2,-1.7 -0.1,-4.2 -1.3,-1.8 0.3,-0.7 0.3,-2.9 v 0 l -1.2,-1.1 H 246 l -0.4,0.3 -4.1,-0.1 -2.2,-1.8 -6.6,-3.1 -1.2,-1.2 -0.9,-0.1 -0.2,-0.3 -0.4,-0.5 -0.8,-0.6 -0.1,-0.7 -2.7,-2.9 -2.2,-0.1 -2,3.7 h -2.4 l -0.3,1.5 -0.6,-0.2 -3,2.8 0.4,0.4 1.1,0.1 v 1 0.6 h 0.9 l 0.6,0.3 0.9,-0.2 0.4,0.2 0.6,0.2 -0.6,0.4 -0.4,0.4 -0.8,-0.3 -0.3,-0.1 -0.5,-0.2 h -0.7 l -0.3,0.6 v 0.5 l -0.4,0.2 0.1,0.9 0.5,0.1 0.2,-0.2 0.6,0.4 v 2 l -0.2,0.2 -0.1,2 3.9,3.1 0.1,1.2 3.4,4.6 5.3,-0.8 1.2,0.6 h 1.5 l 2.8,0.4 1.9,-1.2 1.5,2 1.2,0.6 0.4,0.8 0.7,2.1 0.7,-0.4 0.8,-0.5 -0.3,4.3 v 0 l 1,-0.6 0.6,-0.5 1.4,-1.2 1.2,-0.8 1.2,-0.4 1,-0.8 1.3,-0.9 v 0 l -0.8,-1.3 1.3,-1.4 z m -29.6,-15 -0.3,-0.6 -0.3,-0.7 -0.2,0.3 -0.5,0.3 -0.6,-0.5 -0.1,-0.5 -0.4,0.3 -1,-0.2 -0.3,-0.5 0.1,-0.3 0.5,-0.3 0.6,-0.4 0.7,0.4 0.3,0.5 h 0.8 l 0.2,-0.7 -0.5,-0.3 v -0.3 h 0.4 l 0.2,0.5 0.1,0.3 v 0.5 l 0.5,0.5 0.5,0.1 0.4,0.2 0.4,-0.1 0.5,-0.6 -0.3,1 -0.1,0.4 -0.2,0.2 -0.4,0.2 -0.4,0.6 h -0.1 z"
             inkscape:connector-curvature="0"
             style="fill:#1f497d;stroke:#efeeee;stroke-width:0.25189999;stroke-miterlimit:10" />
          <polygon
             id="XMLID_614_"
             stroke-miterlimit="10"
             points="189.4,85.8 190.2,86 191,86.7 190.9,88.4 191.2,88.5 191.3,90.7 191.1,90.9 190.8,91.6 192,91.5 192.7,91 193.5,91.4 194.5,91.4 194.7,91 196.3,90.9 196.7,91.4 197.2,91.8 197.6,91.9 198.2,91.3 198.6,90.7 199,91.1 199.6,91.7 200.9,92.9 201.7,93.4 202.7,94.1 203.3,93.9 202.9,90.8 201.8,90.3 200.1,89.5 199,88.4 199,86.9 198.5,86 198.7,84.9 199.2,83.8 199.6,83 200,82.2 199.4,81.4 199.4,78.3 199.9,77.2 198.6,76.5 198,76.9 196.5,76.3 196.5,74.8 197,74.4 197,74.1 195.6,73.1 195.5,73.1 194.5,73.7 193.1,73.7 192.7,73.4 191.7,74.5 191.5,75.2 189.9,76.6 188.9,75.8 187.4,74.1 185.5,73.9 184,75.2 181.5,75 179.2,76.5 178.2,76.2 177.4,76.7 173.9,74.5 168.4,74.3 168.4,74.5 167.9,74.9 167.9,75.4 167.9,76.4 168.6,76.9 168.9,76.5 169.3,76 170.1,77 171.1,77 171.6,77.3 172.2,78 172.2,79.1 172.9,79.8 173.1,81.8 173.4,82.8 173.7,83.4 174,84 173.4,84.3 172.9,84.2 172.3,83.6 171.7,83.5 171.4,84 171.7,84.6 173.4,86 174.3,86.8 175.1,85.9 176.1,85.8 177.6,86 178.1,85.6 180.7,84.7 181.4,84.4 182.1,84.2 183.6,83.8 184.1,84 184.6,84.2 185.3,84.8 186,85.5 187,86.1 187.4,86.4 187.8,86.2 188.4,85.8 188.9,85.5 "
             style="fill:#1f497d;stroke:#efeeee;stroke-width:0.25189999;stroke-miterlimit:10" />
          <polygon
             id="XMLID_613_"
             stroke-miterlimit="10"
             points="229,75.7 229.6,75.3 230.4,74.1 231.4,73.5 231.7,73.2 231.6,71.7 231.2,71.4 231.2,70.8 230.9,69.8 230.4,69.1 229.8,68.5 229.8,67.6 230.3,67.2 229.8,66.6 229.6,66 229.2,65.6 228.6,66.3 228.3,65.7 228.5,64.7 226.9,64.7 226.9,65.1 226.3,67.2 225.2,67.8 223.2,68 221.7,67.9 221.4,67 220.6,67.2 220.4,68.1 219.7,68.9 219,68.5 218.2,67.8 216.8,67.9 215.5,66.5 215.4,65.1 214.2,64.7 212.6,64.5 211.9,65.6 210.8,65.6 210.2,64.4 207.8,64.2 207.3,64.9 206.2,65.1 205.9,65.9 204,66.7 202.2,64.5 201.2,63.6 200.6,63.1 199.9,64 200,64 200.5,64.6 200.5,65.5 200.3,66.1 200.3,66.1 199.7,67 200,67.9 200.2,69.3 198.7,71.2 196.2,71.3 195.6,73.1 195.6,73.1 197,74.1 197,74.4 196.5,74.8 196.5,76.3 198,76.9 198.6,76.5 199.9,77.2 199.4,78.3 199.4,81.4 200,82.2 199.6,83 199.2,83.8 198.7,84.9 198.5,86 199,86.9 199,88.4 200.1,89.5 201.8,90.3 202.9,90.8 203.3,93.9 203.5,96.4 203.8,99.3 211.7,97.7 211.9,97.9 212.2,97.4 212.3,97.4 212.3,96.6 212.8,96.1 212.9,95.9 214.8,95.8 215.1,95.7 215.2,95.9 215,96.2 214.8,96.5 214.1,96.5 214.3,96.6 214.7,96.8 214.7,97.4 215.4,97.4 216.4,97 216.6,96.1 217.1,95.6 217.1,95.3 216.7,94.7 216.3,93.9 215.9,93.4 218.9,90.6 219.5,90.8 219.8,89.3 222.2,89.4 224.3,85.6 226.5,85.7 229.2,88.6 229.3,89.3 230.1,89.9 230.5,90.4 231.7,89.4 232.7,89 233.8,88.2 234.4,87.8 236.5,86.2 236.4,85.6 235.7,84.7 235.7,83.8 235.7,83.7 234.7,82 233.4,81.6 232.5,81 231.6,80.3 231.9,79.5 231.5,79.2 231.2,79.2 230.9,79.7 230.4,79.5 229.1,78 229.5,77 229.5,76.3 "
             style="fill:#3c608e;stroke:#efeeee;stroke-width:0.25189999;stroke-miterlimit:10" />
          <polygon
             id="XMLID_612_"
             stroke-miterlimit="10"
             points="195.6,73.1 196.2,71.3 198.7,71.2 200.2,69.3 200,67.9 199.7,67 200.3,66.1 200.3,66.1 199.5,66.1 199.3,65.4 199.8,64.2 198.9,63.7 198.8,62.8 198.1,62 197.2,61.5 197.1,60.3 196.7,59.8 195.9,59.6 193.4,59.2 192.8,57.5 191.4,57.6 190.6,58.4 189.3,58.4 188.6,56.9 187.3,56.9 187.1,56.3 186.7,57.1 186.3,57.4 185.4,58 184.8,58.8 183.7,58.8 182.9,59.4 181.9,59 181.1,59 181.1,60.6 179.7,60.8 178.7,61.4 177.7,61.1 177.6,63.5 178.2,64.3 178.1,65.3 177.3,65.3 175.9,65.6 175.2,64.8 175,63.5 174.2,61.6 173.6,61.1 172.7,61.5 172.2,62.1 172.1,63.3 171.5,63.8 170.2,63.8 169.1,66.9 169.8,67.4 169.9,68 169.4,68.8 168.3,69.1 166.4,71.7 168.4,73.3 168.4,74.3 173.9,74.5 177.4,76.7 178.2,76.2 179.2,76.5 181.5,75 184,75.2 185.5,73.9 187.4,74.1 188.9,75.8 189.9,76.6 191.5,75.2 191.7,74.5 192.7,73.4 193.1,73.7 194.5,73.7 195.5,73.1 195.6,73.1 "
             style="fill:#1f497d;stroke:#efeeee;stroke-width:0.25189999;stroke-miterlimit:10" />
          <polygon
             id="XMLID_611_"
             stroke-miterlimit="10"
             points="192,91.5 190.8,91.6 190.7,91.9 189.7,93.2 189.8,93.5 189.4,94 189.6,94.6 189.9,95.6 190.5,95.6 191,96.3 191.7,96.3 192.8,96.1 193.5,95.3 194.1,95.7 194.2,96.1 193.9,96.3 193.9,97.2 194.1,97.7 194.5,98.5 194.1,98.8 193.7,98.6 192.8,98.8 192.4,98.7 192.1,98.4 192.1,98.1 192.9,97.9 193.4,97.6 193.4,97.3 193.3,96.9 191.9,96.8 191.2,97 190.9,96.5 189.9,96.6 184.4,94.4 183.9,94.1 183.3,94.5 182.6,94.5 182.3,94.3 181.9,94.7 181.4,95.9 180.6,96 180.1,96.2 180,96.8 181.3,98.5 182.2,99.3 181.6,99.4 180.9,98.9 180.7,99.1 180.2,99.1 179.4,98.1 178.6,98 177.9,97.7 177,97.5 176.5,98 176.4,99.3 177.4,99.8 178.5,100.3 178.5,101.4 178.7,102.1 179,102.8 179,103.9 179.5,104.8 179.6,106.2 179.4,106.7 179,107.3 180.9,107.4 181.2,108.3 181.5,109.4 182.7,109.5 183.1,109.9 183.9,109.9 184,110.2 184.5,110.6 184.8,111.2 184.7,112 184.1,112.7 183.6,113.5 182.8,114.3 183.1,115.5 183,115.9 182.7,116.2 182.9,116.1 183.7,115.4 185.3,114.6 186.5,114.4 188.2,114.5 190.2,114.5 193.2,117.2 193.1,118.3 194.1,120.2 194.9,121.8 197.3,121.8 200.3,100 203.8,99.3 203.5,96.4 203.3,93.9 202.7,94.1 201.7,93.4 200.9,92.9 199.6,91.7 199,91.1 198.6,90.7 198.2,91.3 197.6,91.9 197.2,91.8 196.7,91.4 196.3,90.9 194.7,91 194.5,91.4 193.5,91.4 192.7,91 "
             style="fill:#a5b6cb;stroke:#efeeee;stroke-width:0.25189999;stroke-miterlimit:10" />
          <polygon
             id="XMLID_610_"
             points="192.1,98.1 192.1,98.4 192.4,98.7 192.8,98.8 193.7,98.6 194.1,98.8 194.5,98.5 194.1,97.7 193.9,97.2 193.9,96.3 194.2,96.1 194.1,95.7 193.5,95.3 192.8,96.1 191.7,96.3 191,96.3 190.9,96.5 191.2,97 191.9,96.8 193.3,96.9 193.4,97.3 193.4,97.6 192.9,97.9 "
             style="fill:#efeeee;stroke:#efeeee;stroke-width:0.25189999;stroke-linecap:round;stroke-linejoin:round" />
          <polygon
             id="XMLID_609_"
             points="214.3,96.6 214.1,96.5 214.8,96.5 215,96.2 215.2,95.9 215.1,95.7 214.8,95.8 212.9,95.9 212.8,96.1 212.3,96.7 212.4,97.3 212.2,97.4 211.9,97.9 212.6,98.4 212.7,98.3 213.4,97.5 213.8,97 214.2,96.8 214.5,97.4 214.6,97.5 214.9,97.7 215.1,98.9 215.3,99.9 215.2,100.6 217.9,102.8 218,100.8 218.2,100.6 218.2,98.6 217.6,98.2 217.3,98.5 216.8,98.4 216.7,97.5 217.1,97.3 217.1,96.9 217.4,96.3 218.1,96.3 218.6,96.5 219,96.6 219.8,96.8 220.1,96.4 220.7,96 220.1,95.8 219.8,95.7 218.8,95.8 218.3,95.5 217.4,95.5 217.4,94.9 217.4,94 216.3,93.9 216.7,94.7 217.1,95.3 217.1,95.6 216.6,96.1 216.4,97 215.4,97.4 214.7,97.4 214.7,96.8 "
             style="fill:#efeeee;stroke:#efeeee;stroke-width:0.25189999;stroke-linecap:round;stroke-linejoin:round" />
          <polygon
             id="XMLID_608_"
             points="212.8,96.1 212.3,96.6 212.3,97.4 212.2,97.4 212.4,97.3 212.3,96.7 "
             style="fill:#8cb5ba;stroke:#efeeee;stroke-width:0.25189999;stroke-linecap:round;stroke-linejoin:round" />
          <polygon
             id="XMLID_607_"
             points="218.2,92.7 218.1,93.1 218.4,93.6 219.5,93.8 219.9,93.4 220,93.9 220.6,94.4 221.1,94.1 221.2,93.8 221.5,94.6 221.8,95.1 222.3,95.5 222.4,95.5 222.8,94.9 223.2,94.7 223.4,94.5 223.5,94.1 223.8,93.1 223.3,93.7 223,93.8 222.5,93.5 222,93.4 221.5,93 221.5,92.4 221.4,92.2 221.2,91.7 220.8,91.7 220.8,91.9 221.3,92.2 221.1,92.9 220.3,92.9 220,92.4 219.3,92 218.7,92.4 "
             style="fill:#efeeee;stroke:#efeeee;stroke-width:0.25189999;stroke-linecap:round;stroke-linejoin:round" />
          <path
             id="XMLID_606_"
             d="m 297.4,88.4 h -0.7 l -0.9,0.1 0.3,0.6 -0.7,-0.2 -1,0.4 -0.3,1.1 -0.7,-0.2 -0.6,-0.3 h -1.4 l -1.1,0.4 -0.2,0.1 -0.9,0.2 -0.6,-0.3 -0.7,0.1 -0.7,-0.3 -0.7,0.5 -0.6,-0.4 -0.8,-0.5 -0.7,0.2 -0.9,0.1 -0.8,0.3 -0.2,0.6 -0.5,-0.3 -1.3,-0.3 -0.9,0.3 h -0.6 l -0.5,0.4 -0.4,1.1 -1,1 -0.6,0.4 v 0.7 l -1.3,0.4 -0.2,0.6 0.5,0.7 -0.4,0.3 v 0 l -0.6,0.7 0.2,0.5 -0.3,0.8 0.7,0.3 0.7,0.7 0.6,0.9 0.5,0.1 0.2,0.3 0.5,1 -0.2,-1.8 -0.1,-1.1 0.5,-0.8 0.2,-0.8 -0.4,-1 v -0.5 l 0.6,-0.3 0.8,0.1 0.6,-0.8 0.3,-1.7 0.7,-0.1 0.9,-0.5 0.4,-0.4 0.7,-0.2 c -0.1,-0.2 -0.1,-0.2 -0.1,-0.2 0.1,0 0.3,0.2 0.5,0.3 l 0.8,-0.1 h 0.9 l 0.8,-0.3 2.5,-0.1 0.7,0.2 0.8,-0.3 0.9,-0.2 0.5,0.2 h 1.6 l 0.3,0.3 h 0.8 l 1.1,-0.6 0.6,0.1 1.3,-0.1 0.5,-0.5 0.2,-1.1 0.7,-0.2 z"
             inkscape:connector-curvature="0"
             style="fill:#efeeee;stroke:#efeeee;stroke-width:0.25189999;stroke-linecap:round;stroke-linejoin:round" />
          <polygon
             id="XMLID_605_"
             points="316.8,77 315.4,77 314.7,76.8 314.2,76.5 313.1,76.5 311.7,76.6 311.4,76.8 311,77 311.4,77.4 312,77.7 313.9,77.6 314.7,78.3 315.6,78.3 316.3,78.5 316.7,78.6 317.2,77.4 "
             style="fill:#efeeee;stroke:#efeeee;stroke-width:0.25189999;stroke-linecap:round;stroke-linejoin:round" />
        </g>
        <circle
           id="XMLID_603_"
           stroke-miterlimit="10"
           cx="250.8"
           cy="53.599998"
           r="1.1"
           style="fill:#18375e;stroke:#ffffff;stroke-width:0.229;stroke-miterlimit:10" />
        <circle
           id="XMLID_602_"
           stroke-miterlimit="10"
           cx="277.70001"
           cy="98.800003"
           r="1.1"
           style="fill:#1f497d;stroke:#ffffff;stroke-width:0.229;stroke-miterlimit:10" />
      </g>
      <polygon
         id="XMLID_600_"
         stroke-miterlimit="10"
         points="287.8,86.1 287.8,83.2 287.8,83.2 287.8,83.2 288.6,82.2 287.7,81.4 286.8,80.2 286.8,80.2 286.7,80.1 286.7,79.6 286.7,79.6 286.7,79.5 287.2,79.3 287.3,79.3 287.6,79.1 287.8,78.8 288.1,78 287.3,77.1 287.3,77 287,76.4 287,76.2 286.9,75.9 286.9,75.4 287.6,74.4 287.2,74 286.7,73.4 286.6,72.9 286.4,72.5 286.4,72.3 286.4,72.3 286.4,72.2 286.4,71.1 286.5,71 286.5,71 287,70.5 287.2,70.2 288.2,69.3 288.4,69.2 288.4,69.2 288.4,69.2 288.4,69.2 287.8,68.2 287.9,67.2 287.3,66.8 286.1,66.7 285.7,66.4 284.7,66.4 283.8,68.6 282.1,69.5 281.1,69.4 280.2,69.8 279.3,70 278.4,71.2 277.6,71 278.1,70.2 277.9,69.1 276.9,68.5 276.3,68.5 275.7,67.9 273.5,67.8 273.1,66.9 273.1,66.4 273.7,65.9 273.1,65.3 272.6,64.7 272,65.2 271.2,65.3 270.3,65.8 269.9,66.6 268.7,66.7 268.3,67.8 267.2,68.5 266.4,69.6 265.3,69.5 265.1,67.9 264.3,67.7 262.7,68.9 261.4,70 261.4,71.1 260.6,71.7 259.4,71.7 258.8,71.2 257.9,71 257.9,71.3 257.2,71.3 256.9,70 255.1,69.8 253.9,68.1 252.8,68.1 252.6,68.5 252,69.2 251.2,69.4 251.2,69.4 251.4,69.4 251.4,70.5 250.7,70.9 249.3,71.9 248.2,74.1 246.8,75.3 245.4,76.5 245.3,77.8 244.3,78.6 243.7,79.7 242.9,79.6 242,80.4 239.6,80.1 239.3,79.6 238.6,79.6 238.3,80.2 238.2,81 237.7,81.4 237.4,82.1 236.7,82.5 236.6,83.2 236.4,83.7 235.7,83.8 235.7,84.7 236.4,85.6 236.5,86.2 234.4,87.8 233.8,88.2 232.7,89 231.7,89.4 230.5,90.4 230.7,90.6 231.6,90.8 232.8,92 239.4,95.1 241.6,96.9 245.7,96.9 246,96.6 247.7,96.6 248.9,97.7 248.9,97.7 256.5,97.6 256.5,97.7 256.6,97.7 257.7,97.3 262,97.2 275.1,96.3 275.5,96 274.9,95.3 275.1,94.7 276.4,94.3 276.4,93.7 277.1,93.3 278,92.3 278.4,91.2 278.9,90.8 279.5,90.8 280.5,90.6 281.8,90.8 282.3,91.1 282.5,90.5 283.3,90.3 284.2,90.1 284.9,89.9 285.7,90.4 286.4,90.8 287,90.3 287.8,90.6 288.5,90.5 289.1,90.8 290,90.6 290.3,90.5 290.2,89.9 290.2,88.4 289.9,88.1 290.2,87.3 290.6,87.2 290.1,87 290.4,87.1 290.1,87 289.9,86.9 289.8,86.9 289.5,87.3 289.4,87.3 288.8,87.5 288.2,88 288.1,88 288,88.1 287.6,87.7 287.1,87.3 287.1,87.2 287,86.4 "
         style="opacity:0.67000002;fill:#7892b1;stroke:#efeeee;stroke-width:0.25189999;stroke-miterlimit:10" />
      <polygon
         id="XMLID_599_"
         stroke-miterlimit="10"
         points="287.8,83.1 287.8,80.3 287.8,80.3 287.8,80.2 288.6,79.2 287.7,78.4 286.8,77.3 286.8,77.3 286.7,77.2 286.7,76.6 286.7,76.6 286.7,76.6 287.2,76.4 287.3,76.4 287.6,76.1 287.8,75.9 288.1,75.1 287.3,74.2 287.3,74.1 287,73.5 287,73.2 286.9,73 286.9,72.5 287.6,71.5 287.2,71.1 286.7,70.5 286.6,70 286.4,69.6 286.4,69.4 286.4,69.4 286.4,69.3 286.4,68.1 286.5,68.1 286.5,68 287,67.6 287.2,67.3 288.2,66.4 288.4,66.3 288.4,66.3 288.4,66.2 288.4,66.2 287.8,65.3 287.9,64.3 287.3,63.9 286.1,63.8 285.7,63.5 284.7,63.5 283.8,65.6 282.1,66.6 281.1,66.4 280.2,66.9 279.3,67.1 278.4,68.3 277.6,68.1 278.1,67.3 277.9,66.1 276.9,65.5 276.3,65.5 275.7,64.9 273.5,64.8 273.1,64 273.1,63.5 273.7,63 273.1,62.3 272.6,61.8 272,62.3 271.2,62.4 270.3,62.9 269.9,63.7 268.7,63.8 268.3,64.9 267.2,65.6 266.4,66.7 265.3,66.6 265.1,64.9 264.3,64.7 262.7,66 261.4,67.1 261.4,68.2 260.6,68.8 259.4,68.8 258.8,68.3 257.9,68.1 257.9,68.4 257.2,68.4 256.9,67.1 255.1,66.8 253.9,65.1 252.8,65.1 252.6,65.5 252,66.2 251.2,66.5 251.2,66.5 251.4,66.5 251.4,67.6 250.7,68 249.3,69 248.2,71.2 246.8,72.4 245.4,73.6 245.3,74.8 244.3,75.7 243.7,76.8 242.9,76.7 242,77.5 239.6,77.2 239.3,76.7 238.6,76.7 238.3,77.3 238.2,78.1 237.7,78.4 237.4,79.2 236.7,79.6 236.6,80.2 236.4,80.8 235.7,80.9 235.7,81.8 236.4,82.7 236.5,83.3 234.4,84.8 233.8,85.2 232.7,86 231.7,86.4 230.5,87.5 230.7,87.7 231.6,87.8 232.8,89.1 239.4,92.2 241.6,93.9 245.7,94 246,93.7 247.7,93.7 248.9,94.7 248.9,94.8 256.5,94.7 256.5,94.8 256.6,94.8 257.7,94.3 262,94.3 275.1,93.3 275.5,93.1 274.9,92.3 275.1,91.8 276.4,91.4 276.4,90.7 277.1,90.4 278,89.4 278.4,88.3 278.9,87.9 279.5,87.9 280.5,87.6 281.8,87.9 282.3,88.2 282.5,87.6 283.3,87.3 284.2,87.2 284.9,87 285.7,87.5 286.4,87.8 287,87.3 287.8,87.6 288.5,87.6 289.1,87.8 290,87.6 290.3,87.6 290.2,87 290.2,85.4 289.9,85.2 290.2,84.3 290.6,84.3 290.1,84.1 290.4,84.2 290.1,84.1 289.9,83.9 289.8,84 289.5,84.4 289.4,84.4 288.8,84.5 288.2,85.1 288.1,85.1 288,85.2 287.6,84.7 287.1,84.3 287.1,84.2 287,83.4 "
         style="fill:#7892b1;stroke:#efeeee;stroke-width:0.25189999;stroke-miterlimit:10" />
    </g>
  </g>
</svg>
