<svg xmlns="http://www.w3.org/2000/svg" viewBox="0 0 56.4 75.2"><defs><style>.cls-1{fill:#126075;}</style></defs><title>Asset 9</title><g id="Layer_2" data-name="Layer 2"><g id="Слой_1" data-name="Слой 1"><path class="cls-1" d="M24.19,28.89l-7.74,7.74-3-3a2.35,2.35,0,0,0-3.32,3.32l4.7,4.7a2.34,2.34,0,0,0,3.32,0l9.4-9.4a2.35,2.35,0,0,0-3.32-3.32Z"/><path class="cls-1" d="M24.19,47.69l-7.74,7.74-3-3a2.35,2.35,0,1,0-3.32,3.32l4.7,4.7a2.34,2.34,0,0,0,3.32,0l9.4-9.4a2.35,2.35,0,1,0-3.32-3.32Z"/><path class="cls-1" d="M32.9,35.25a2.35,2.35,0,0,0,2.35,2.35h9.4a2.35,2.35,0,1,0,0-4.7h-9.4a2.35,2.35,0,0,0-2.35,2.35Z"/><path class="cls-1" d="M44.65,51.7h-9.4a2.35,2.35,0,1,0,0,4.7h9.4a2.35,2.35,0,1,0,0-4.7Z"/><path class="cls-1" d="M51.7,14.1V70.5H4.7V14.1h9.4v2.35a2.35,2.35,0,0,0,2.35,2.35H40a2.35,2.35,0,0,0,2.35-2.35V14.1ZM18.8,9.4h4.7a2.35,2.35,0,0,0,2.35-2.35,2.35,2.35,0,0,1,4.7,0A2.35,2.35,0,0,0,32.9,9.4h4.7v4.7H18.8V9.4ZM40,4.7h-5.1a7.05,7.05,0,0,0-13.3,0h-5.1A2.35,2.35,0,0,0,14.1,7.05V9.4H4.7A4.71,4.71,0,0,0,0,14.1V70.5a4.71,4.71,0,0,0,4.7,4.7h47a4.71,4.71,0,0,0,4.7-4.7V14.1a4.71,4.71,0,0,0-4.7-4.7H42.3V7.05A2.35,2.35,0,0,0,40,4.7Z"/></g></g></svg>