<svg xmlns="http://www.w3.org/2000/svg" viewBox="0 0 86.14 89.32"><defs><style>.cls-1{fill:#126075;}</style></defs><title>Asset 4</title><g id="Layer_2" data-name="Layer 2"><g id="Слой_1" data-name="Слой 1"><path class="cls-1" d="M84.4,63.56a1.87,1.87,0,0,1-.34,0,1.59,1.59,0,0,1-.33-.1,1.78,1.78,0,0,1-.57-.38,1.76,1.76,0,0,1-.51-1.23,1.32,1.32,0,0,1,0-.34,1.39,1.39,0,0,1,.1-.33,1.46,1.46,0,0,1,.16-.3,1.33,1.33,0,0,1,.21-.26,1.78,1.78,0,0,1,.57-.38,1.59,1.59,0,0,1,.33-.1,1.56,1.56,0,0,1,.68,0,1.7,1.7,0,0,1,.32.1,1.78,1.78,0,0,1,.57.38,1.88,1.88,0,0,1,.22.26c.06.1.11.2.16.3s.07.22.1.33a2,2,0,0,1,0,.34,1.76,1.76,0,0,1-.51,1.23,1.78,1.78,0,0,1-.57.38,1.7,1.7,0,0,1-.32.1l-.34,0Z"/><path class="cls-1" d="M1.74,63.56a1.75,1.75,0,0,1-1.23-.51,2.75,2.75,0,0,1-.22-.26c-.06-.1-.11-.2-.16-.3s-.07-.22-.1-.33a1.94,1.94,0,0,1,0-.68c0-.11.06-.22.1-.33s.1-.2.16-.3a1.88,1.88,0,0,1,.22-.26,1.44,1.44,0,0,1,.27-.22,1.43,1.43,0,0,1,.3-.16,1.19,1.19,0,0,1,.32-.1,1.56,1.56,0,0,1,.68,0,1.15,1.15,0,0,1,.33.1,1.43,1.43,0,0,1,.3.16,1.44,1.44,0,0,1,.27.22,1.33,1.33,0,0,1,.21.26,1.46,1.46,0,0,1,.16.3,1.39,1.39,0,0,1,.1.33,1.46,1.46,0,0,1,0,.68,1.39,1.39,0,0,1-.1.33,1.46,1.46,0,0,1-.16.3,1.71,1.71,0,0,1-.21.26,1.44,1.44,0,0,1-.27.22,1.43,1.43,0,0,1-.3.16,1.59,1.59,0,0,1-.33.1,1.87,1.87,0,0,1-.34,0Z"/><path class="cls-1" d="M76.84,60.07H66.44L54.65,36.13a12.83,12.83,0,0,0-7-17.51V14.91h.22a1.74,1.74,0,0,0,1.75-1.74V1.74A1.74,1.74,0,0,0,47.86,0H38.28a1.74,1.74,0,0,0-1.75,1.74V13.17a1.74,1.74,0,0,0,1.75,1.74h.22v3.71a12.83,12.83,0,0,0-7,17.51L19.7,60.07H9.3a1.75,1.75,0,1,0,0,3.49H18l-3.26,6.62A9.49,9.49,0,0,0,17.58,82L15.21,86.8a1.75,1.75,0,1,0,3.14,1.54L30.51,63.56h7.12v.59a5.44,5.44,0,0,0,10.88,0v-.59h7.12L67.79,88.34a1.75,1.75,0,0,0,3.14-1.54L68.56,82a9.49,9.49,0,0,0,2.86-11.78l-3.26-6.62h8.68a1.75,1.75,0,1,0,0-3.49ZM40,3.49h6.1v7.93H40Zm4.13,11.42v2.91c-.36,0-.72,0-1.08,0s-.72,0-1.08,0V14.91Zm-1.08,6.36a9.34,9.34,0,1,1-9.34,9.33,9.35,9.35,0,0,1,9.34-9.33ZM19.15,78.74a6.07,6.07,0,0,1-1.58-2.44,6,6,0,0,1,.28-4.58l15.91-32.3A13.15,13.15,0,0,0,37.22,42ZM45,64.15a2,2,0,0,1-3.9,0V59.49a2,2,0,0,1,3.9,0Zm3.49-4.08v-.58a5.44,5.44,0,1,0-10.88,0v.58h-5.4l8.31-16.89a12.93,12.93,0,0,0,5.06,0l8.31,16.89ZM68.29,71.72a6,6,0,0,1,.28,4.58A6.07,6.07,0,0,1,67,78.74L48.92,42a13.15,13.15,0,0,0,3.46-2.6Z"/><path class="cls-1" d="M40.48,32.35h.85v.85a1.74,1.74,0,1,0,3.48,0v-.85h.85a1.75,1.75,0,1,0,0-3.49h-.85V28a1.74,1.74,0,1,0-3.48,0v.85h-.85a1.75,1.75,0,1,0,0,3.49Z"/></g></g></svg>