<svg xmlns="http://www.w3.org/2000/svg" viewBox="0 0 83.79 47.28"><defs><style>.cls-1{fill:#126075;}</style></defs><title>Asset 7</title><g id="Layer_2" data-name="Layer 2"><g id="Слой_1" data-name="Слой 1"><path class="cls-1" d="M79.19,12.67H78V7.05A7.05,7.05,0,0,0,71,0H47.24a7.11,7.11,0,0,0-5.35,2.45A7.07,7.07,0,0,0,36.55,0H21.63a1.72,1.72,0,0,0,0,3.43H36.55a3.63,3.63,0,0,1,3.63,3.62V18.12a8.41,8.41,0,0,0-4.93-1.62H15.49a4.69,4.69,0,0,0-3-3.58A4.51,4.51,0,0,0,11,12.67H9.17V7.05A3.63,3.63,0,0,1,12.8,3.43h4a1.72,1.72,0,0,0,0-3.43h-4a7.05,7.05,0,0,0-7,7.05v5.62H4.6A4.6,4.6,0,0,0,0,17.27V29.93a9.06,9.06,0,0,0,8.93,9l-1.07,2.9a4,4,0,0,0,3.75,5.4h2a4,4,0,0,0,3.2-1.59L21.84,39H62L67,45.69a4,4,0,0,0,3.2,1.59h2a4,4,0,0,0,3.75-5.4L74.85,39a9.06,9.06,0,0,0,8.94-9V17.27A4.61,4.61,0,0,0,79.19,12.67ZM15.56,26.08V19.92H35.25a4.94,4.94,0,0,1,4.93,4.93v1.23ZM13.85,29.5H58.39a1.71,1.71,0,1,0,0-3.42H43.61V24.85a4.94,4.94,0,0,1,4.93-4.93H68.23v6.16h-5a1.71,1.71,0,0,0,0,3.42h6.7a1.7,1.7,0,0,0,1.71-1.71V17.27a1.18,1.18,0,0,1,1.18-1.18h6.36a1.17,1.17,0,0,1,1.17,1.18V29.93a5.62,5.62,0,0,1-5.62,5.62H9a5.62,5.62,0,0,1-5.61-5.62V17.27A1.17,1.17,0,0,1,4.6,16.09H11a1.17,1.17,0,0,1,1.17,1.18V27.79A1.71,1.71,0,0,0,13.85,29.5ZM74.62,12.67H72.83a4.71,4.71,0,0,0-4.24,2.82,4.51,4.51,0,0,0-.3,1H48.54a8.41,8.41,0,0,0-4.93,1.62V7.05a3.62,3.62,0,0,1,3.63-3.62H71a3.63,3.63,0,0,1,3.63,3.62ZM17.54,39,14,43.62a.58.58,0,0,1-.47.23h-2a.58.58,0,0,1-.54-.78L12.59,39ZM71.2,39c.38,1,1.5,4,1.52,4.09h0a.56.56,0,0,1-.07.53.57.57,0,0,1-.47.25h-2a.58.58,0,0,1-.47-.23L66.25,39Z"/></g></g></svg>