<?xml version="1.0" encoding="UTF-8"?>
<svg width="62px" height="656px" viewBox="0 0 62 656" version="1.1" xmlns="http://www.w3.org/2000/svg" xmlns:xlink="http://www.w3.org/1999/xlink">
    <!-- Generator: Sketch 41.2 (35397) - http://www.bohemiancoding.com/sketch -->
    <title>Combined Shape</title>
    <desc>Created with Sketch.</desc>
    <defs></defs>
    <g id="Page-1" stroke="none" stroke-width="1" fill="none" fill-rule="evenodd">
        <g id="Artboard" transform="translate(-391.000000, -236.000000)" fill="#FFFFFF">
            <path d="M426.779999,701.750235 C426.359656,701.880092 425.913,701.950012 425.450012,701.950012 C422.964731,701.950012 420.950012,699.935294 420.950012,697.450012 C420.950012,694.964731 422.964731,692.950012 425.450012,692.950012 C427.935294,692.950012 429.950012,694.964731 429.950012,697.450012 C429.950012,699.139282 429.019201,700.61115 427.64249,701.380704 L427.64249,697.47 C427.65749,696.859997 427.437493,696.330002 426.98249,695.88 C426.527488,695.429998 425.989993,695.215 425.36999,695.235 C424.774987,695.25 424.271242,695.474998 423.85874,695.91 C423.446238,696.345002 423.23999,696.862497 423.23999,697.4625 C423.23999,698.087503 423.462488,698.623748 423.90749,699.07125 C424.352492,699.518752 424.884987,699.7325 425.50499,699.7125 C426.129993,699.6875 426.779999,699.731262 426.779999,700.883728 L426.779999,701.750235 Z M424,830.06348 L424,811.93652 C440.188775,810.905686 453,797.448954 453,781 C453,764.551046 440.188775,751.094314 424,750.06348 L424,731.93652 C440.188775,730.905686 453,717.448954 453,701 C453,684.551046 440.188775,671.094314 424,670.06348 L424,651.93652 C440.188775,650.905686 453,637.448954 453,621 C453,604.551046 440.188775,591.094314 424,590.06348 L424,571.93652 C440.188775,570.905686 453,557.448954 453,541 C453,524.551046 440.188775,511.094314 424,510.06348 L424,491.93652 C440.188775,490.905686 453,477.448954 453,461 C453,444.551046 440.188775,431.094314 424,430.06348 L424,411.93652 C440.188775,410.905686 453,397.448954 453,381 C453,364.551046 440.188775,351.094314 424,350.06348 L424,331.93652 C440.188775,330.905686 453,317.448954 453,301 C453,284.551046 440.188775,271.094314 424,270.06348 L424,236 L420,236 L420,270.06348 C403.811225,271.094314 391,284.551046 391,301 C391,317.448954 403.811225,330.905686 420,331.93652 L420,350.06348 C403.811225,351.094314 391,364.551046 391,381 C391,397.448954 403.811225,410.905686 420,411.93652 L420,430.06348 C403.811225,431.094314 391,444.551046 391,461 C391,477.448954 403.811225,490.905686 420,491.93652 L420,510.06348 C403.811225,511.094314 391,524.551046 391,541 C391,557.448954 403.811225,570.905686 420,571.93652 L420,590.06348 C403.811225,591.094314 391,604.551046 391,621 C391,637.448954 403.811225,650.905686 420,651.93652 L420,670.06348 C403.811225,671.094314 391,684.551046 391,701 C391,717.448954 403.811225,730.905686 420,731.93652 L420,750.06348 C403.811225,751.094314 391,764.551046 391,781 C391,797.448954 403.811225,810.905686 420,811.93652 L420,830.06348 C403.811225,831.094314 391,844.551046 391,861 C391,878.120827 404.879173,892 422,892 C439.120827,892 453,878.120827 453,861 C453,844.551046 440.188775,831.094314 424,830.06348 Z M422,330 C405.983742,330 393,317.016258 393,301 C393,284.983742 405.983742,272 422,272 C438.016258,272 451,284.983742 451,301 C451,317.016258 438.016258,330 422,330 Z M422,410 C405.983742,410 393,397.016258 393,381 C393,364.983742 405.983742,352 422,352 C438.016258,352 451,364.983742 451,381 C451,397.016258 438.016258,410 422,410 Z M422,490 C405.983742,490 393,477.016258 393,461 C393,444.983742 405.983742,432 422,432 C438.016258,432 451,444.983742 451,461 C451,477.016258 438.016258,490 422,490 Z M422,570 C405.983742,570 393,557.016258 393,541 C393,524.983742 405.983742,512 422,512 C438.016258,512 451,524.983742 451,541 C451,557.016258 438.016258,570 422,570 Z M422,650 C405.983742,650 393,637.016258 393,621 C393,604.983742 405.983742,592 422,592 C438.016258,592 451,604.983742 451,621 C451,637.016258 438.016258,650 422,650 Z M422,730 C405.983742,730 393,717.016258 393,701 C393,684.983742 405.983742,672 422,672 C438.016258,672 451,684.983742 451,701 C451,717.016258 438.016258,730 422,730 Z M422,810 C405.983742,810 393,797.016258 393,781 C393,764.983742 405.983742,752 422,752 C438.016258,752 451,764.983742 451,781 C451,797.016258 438.016258,810 422,810 Z M422,890 C405.983742,890 393,877.016258 393,861 C393,844.983742 405.983742,832 422,832 C438.016258,832 451,844.983742 451,861 C451,877.016258 438.016258,890 422,890 Z M426.429362,301.571277 L416.59383,301.571277 C415.688723,301.571277 414.955319,302.305319 414.955319,303.210425 C414.955319,304.115532 415.688723,304.849574 416.59383,304.849574 L426.428723,304.849574 C427.33383,304.849574 428.066596,304.115532 428.066596,303.210425 C428.068511,302.305319 427.334468,301.571277 426.429362,301.571277 Z M426.429362,296.65383 L416.59383,296.65383 C415.688723,296.65383 414.955319,297.387872 414.955319,298.292979 C414.955319,299.198085 415.688723,299.932128 416.59383,299.932128 L426.428723,299.932128 C427.33383,299.932128 428.066596,299.198723 428.066596,298.292979 C428.068511,297.387872 427.334468,296.65383 426.429362,296.65383 Z M426.429362,291.737021 L416.59383,291.737021 C415.688723,291.737021 414.955319,292.471064 414.955319,293.37617 C414.955319,294.281277 415.688723,295.015319 416.59383,295.015319 L426.428723,295.015319 C427.33383,295.015319 428.066596,294.281277 428.066596,293.37617 C428.066596,292.471064 427.334468,291.737021 426.429362,291.737021 Z M438.114681,303.622766 C437.812766,303.338085 437.348723,303.324681 437.030851,303.586383 L429.512979,309.799575 L424.502979,306.79383 C424.170426,306.594681 423.744681,306.654043 423.479787,306.94 C423.216809,307.223404 423.188085,307.652979 423.412128,307.969575 L428.841489,315.652766 C428.993404,315.867872 429.240426,315.996809 429.503404,315.999362 L429.511064,315.999362 C429.771489,315.999362 430.017234,315.87617 430.171702,315.664255 L438.214255,304.702766 C438.456809,304.370213 438.415319,303.907447 438.114681,303.622766 Z M412.906383,310.587234 L412.906383,289.278298 L430.11617,289.278298 L430.11617,307.174255 L433.395106,304.465957 L433.395106,287.639149 C433.395106,286.734043 432.661702,286 431.756596,286 L411.267234,286 C410.362128,286 409.628723,286.734043 409.628723,287.639149 L409.628723,312.225745 C409.628723,313.130851 410.362128,313.864894 411.267234,313.864894 L425.570213,313.864894 L423.253191,310.587234 L412.906383,310.587234 Z M436.596596,393.672766 L432.015532,389.091064 C431.711702,388.787872 431.302553,388.663404 430.906809,388.705532 L430.265319,388.063404 C432.405532,385.635957 433.587021,382.559362 433.587021,379.295745 C433.587021,375.744894 432.204468,372.406596 429.693404,369.895532 C427.181702,367.383191 423.843404,366 420.292553,366 C416.741702,366 413.402128,367.383191 410.891702,369.894894 C405.707447,375.077872 405.707447,383.512979 410.891702,388.697234 C413.402766,391.208936 416.741064,392.591489 420.291915,392.591489 C423.556809,392.591489 426.632766,391.41 429.060851,389.269787 L429.70234,389.911277 C429.660213,390.307021 429.784681,390.717447 430.087872,391.02 L434.669574,395.601064 C434.935106,395.866596 435.284255,396 435.632128,396 C435.98,396 436.330425,395.867234 436.595957,395.600426 C437.129574,395.068085 437.129574,394.205106 436.596596,393.672766 Z M420.291915,389.863404 C417.47,389.863404 414.816596,388.764255 412.82,386.768298 C408.699149,382.647447 408.699149,375.942766 412.82,371.822553 C414.816596,369.826596 417.47,368.726809 420.292553,368.726809 C423.114468,368.726809 425.769149,369.826596 427.765745,371.823191 C429.761702,373.819149 430.860851,376.473191 430.860851,379.295106 C430.860851,382.11766 429.761064,384.771064 427.76383,386.767021 C425.767872,388.764255 423.11383,389.863404 420.291915,389.863404 Z M421.655319,377.170213 L421.655319,374.60234 C421.655319,374.225745 421.350213,373.920638 420.973617,373.920638 L417.565745,373.920638 L417.565745,372.478723 C417.565745,372.21383 417.412553,371.973191 417.173191,371.860851 C416.933191,371.749149 416.650426,371.785532 416.447447,371.954043 L412.355319,375.363191 C412.199574,375.492766 412.110213,375.684255 412.110213,375.887234 C412.110213,376.089574 412.200213,376.281702 412.355319,376.411277 L416.447447,379.820425 C416.571915,379.924468 416.727021,379.978723 416.884043,379.978723 C416.98234,379.978723 417.081277,379.957021 417.17383,379.914255 C417.413191,379.801277 417.566383,379.561277 417.566383,379.296383 L417.566383,377.851915 L420.974255,377.851915 C421.350213,377.851277 421.655319,377.54617 421.655319,377.170213 Z M428.228511,382.182128 L424.138298,378.77234 C423.934681,378.602553 423.650638,378.566809 423.411915,378.678511 C423.172553,378.790851 423.02,379.031489 423.02,379.295745 L423.02,380.737021 L419.610851,380.737021 C419.234255,380.737021 418.929149,381.042766 418.929149,381.418723 L418.929149,383.986596 C418.929149,384.363191 419.234255,384.668298 419.610851,384.668298 L423.02,384.668298 L423.02,386.111489 C423.02,386.376383 423.172553,386.617021 423.411915,386.729362 C423.505106,386.772128 423.603404,386.794468 423.701064,386.794468 C423.857447,386.794468 424.012553,386.740851 424.138298,386.63617 L428.228511,383.22766 C428.383617,383.098085 428.474255,382.905957 428.474255,382.704255 C428.474255,382.502553 428.383617,382.311702 428.228511,382.182128 Z M434.635957,449.5115 L407.364043,449.5115 C406.610851,449.5115 406,450.118827 406,450.867673 L406,467.815077 C406,468.563923 406.610851,469.17125 407.364043,469.17125 L433.389362,469.17125 C433.349787,469.136346 433.304468,469.107788 433.267447,469.071615 L431.38,467.193788 C430.291702,467.804923 429.059149,468.13175 427.795957,468.13175 C426.07383,468.13175 424.443617,467.541558 423.132553,466.460808 L408.726809,466.460808 L408.726809,452.222577 L433.272553,452.222577 L433.272553,456.044231 C434.457234,457.37375 435.112766,459.061827 435.112766,460.85525 C435.112766,462.111154 434.784681,463.335962 434.170638,464.416712 L435.999362,466.236154 L435.999362,450.867038 C436,450.118827 435.389149,449.5115 434.635957,449.5115 Z M433.045319,465.216962 C432.909362,465.081154 432.726809,465.025942 432.549362,465.044981 L432.262766,464.760038 C433.220213,463.678654 433.748723,462.309788 433.748723,460.856519 C433.748723,459.276327 433.130213,457.790058 432.006809,456.6725 C430.881489,455.552404 429.387234,454.938096 427.795957,454.938096 C426.207234,454.938096 424.712979,455.553038 423.588298,456.6725 C422.46234,457.790058 421.843191,459.276327 421.843191,460.856519 C421.843191,462.436712 422.463617,463.923615 423.588298,465.041173 C424.712979,466.16 426.207234,466.774308 427.795957,466.774308 C429.259574,466.774308 430.635745,466.249481 431.722128,465.296288 L432.01,465.580596 C431.990851,465.758288 432.045745,465.937885 432.182979,466.074962 L434.23383,468.113981 C434.353191,468.232654 434.508936,468.290404 434.665957,468.290404 C434.821064,468.290404 434.978085,468.232019 435.098085,468.113981 C435.335532,467.876635 435.335532,467.492692 435.098085,467.256615 L433.045319,465.216962 Z M431.143191,464.181269 C430.249574,465.070365 429.060425,465.561558 427.795957,465.561558 C426.533404,465.561558 425.344894,465.071635 424.451277,464.182538 C423.558298,463.294712 423.064894,462.112423 423.064894,460.855885 C423.064894,459.599981 423.557021,458.418327 424.451277,457.529865 C425.344894,456.640769 426.534681,456.150846 427.795957,456.150846 C429.060425,456.150846 430.249574,456.640135 431.143191,457.529865 C432.035532,458.418327 432.528298,459.599981 432.528298,460.855885 C432.528298,462.112423 432.035532,463.292808 431.143191,464.181269 Z M417.590851,457.646 L417.590851,463.746558 C417.590851,464.308192 418.049149,464.763846 418.614043,464.763846 C419.178298,464.763846 419.636596,464.308192 419.636596,463.746558 L419.636596,457.646 C419.636596,457.084365 419.178298,456.628712 418.614043,456.628712 C418.049149,456.628712 417.590851,457.084365 417.590851,457.646 Z M414.181702,459.002173 L414.181702,463.747192 C414.181702,464.308827 414.64,464.764481 415.204894,464.764481 C415.769149,464.764481 416.227447,464.308827 416.227447,463.747192 L416.227447,459.002173 C416.227447,458.440538 415.769149,457.984885 415.204894,457.984885 C414.64,457.984885 414.181702,458.440538 414.181702,459.002173 Z M410.773191,460.357077 L410.773191,463.746558 C410.773191,464.308192 411.231489,464.763846 411.795745,464.763846 C412.360638,464.763846 412.818936,464.308192 412.818936,463.746558 L412.818936,460.357077 C412.818936,459.795442 412.360638,459.340423 411.795745,459.340423 C411.230851,459.341058 410.773191,459.796077 410.773191,460.357077 Z M429.52383,470.526154 L412.476809,470.526154 C411.723617,470.526154 411.113404,471.132846 411.113404,471.881692 C411.113404,472.630538 411.723617,473.237865 412.476809,473.237865 L429.522553,473.237865 C430.276383,473.237865 430.886596,472.630538 430.886596,471.881692 C430.886596,471.132846 430.275745,470.526154 429.52383,470.526154 Z M426.838837,529.694444 C426.937907,529.752083 427.046046,529.779167 427.153488,529.779167 C427.371163,529.779167 427.582558,529.666667 427.699767,529.465278 L428.644419,527.835417 C428.818837,527.535417 428.716279,527.151389 428.414186,526.978472 C428.112093,526.804167 427.726977,526.906944 427.552558,527.208333 L426.607907,528.838194 C426.434186,529.1375 426.538139,529.521528 426.838837,529.694444 Z M431.658372,534.2625 C431.765814,534.2625 431.874651,534.235417 431.973023,534.178472 L433.611861,533.238194 C433.913954,533.065278 434.017209,532.68125 433.843488,532.38125 C433.66907,532.080556 433.282558,531.977778 432.981861,532.151389 L431.343721,533.091667 C431.04093,533.265278 430.938372,533.649306 431.112093,533.948611 C431.229302,534.15 431.441395,534.2625 431.658372,534.2625 Z M435.19907,539.133333 L433.30907,539.132639 C432.960233,539.132639 432.678372,539.413889 432.678372,539.759722 C432.678372,540.106944 432.960233,540.3875 433.307674,540.3875 L435.19907,540.388194 C435.546512,540.388194 435.82907,540.106944 435.82907,539.761111 C435.82907,539.414583 435.547907,539.133333 435.19907,539.133333 Z M433.612558,546.283333 L431.974419,545.341667 C431.671628,545.168056 431.287209,545.270139 431.112791,545.570833 C430.938372,545.871528 431.04093,546.254861 431.343023,546.428472 L432.981163,547.369444 C433.081628,547.427083 433.18907,547.453472 433.295814,547.453472 C433.514186,547.453472 433.725581,547.340972 433.842791,547.140278 C434.015814,546.840972 433.913954,546.455556 433.612558,546.283333 Z M410.027674,545.341667 L408.388837,546.281944 C408.087442,546.455556 407.983488,546.839583 408.157209,547.138889 C408.273721,547.340972 408.486512,547.452778 408.704186,547.452778 C408.81093,547.452778 408.919767,547.425694 409.018837,547.36875 L410.656977,546.428472 C410.95907,546.254861 411.062326,545.870833 410.888605,545.571528 C410.714884,545.270139 410.329767,545.168056 410.027674,545.341667 Z M409.324419,539.760417 C409.324419,539.413889 409.04186,539.132639 408.693721,539.132639 L406.802326,539.132639 C406.454186,539.132639 406.171628,539.413889 406.171628,539.760417 C406.171628,540.106944 406.454186,540.388194 406.802326,540.388194 L408.693721,540.388194 C409.04186,540.388194 409.324419,540.106944 409.324419,539.760417 Z M410.658372,533.091667 L409.020233,532.150694 C408.71814,531.977083 408.333023,532.080556 408.158605,532.380556 C407.984884,532.680556 408.08814,533.064583 408.389535,533.238194 L410.027674,534.179167 C410.126744,534.236111 410.235581,534.263194 410.342326,534.263194 C410.560698,534.263194 410.772093,534.150694 410.889302,533.949306 C411.063023,533.649306 410.959767,533.265278 410.658372,533.091667 Z M414.30093,529.465972 C414.41814,529.667361 414.629535,529.779861 414.847907,529.779861 C414.954651,529.779861 415.063488,529.752778 415.162558,529.695833 C415.464651,529.522222 415.567907,529.138889 415.393488,528.838194 L414.447442,527.207639 C414.273023,526.906944 413.887907,526.804167 413.585814,526.977778 C413.284419,527.151389 413.181163,527.534722 413.354884,527.835417 L414.30093,529.465972 Z M421.000698,530.021528 C415.50093,530.022917 411.026744,534.329861 411.026744,539.621528 C411.026744,543.05625 412.426977,545.099306 413.45814,546.604861 C414.092326,547.53125 414.451628,548.082639 414.451628,548.6375 C414.451628,549.882639 415.122093,551.05625 416.313721,551.936111 C416.343721,552.674306 416.453256,554.477083 416.453256,554.477083 L416.453256,554.479167 C416.472791,554.990972 416.743488,556.040278 418.515581,556.626389 C418.724186,556.931944 418.998372,557.203472 419.330465,557.424306 C419.538372,557.563889 419.783954,557.639583 420.035116,557.639583 L421.966279,557.639583 C422.217442,557.639583 422.462326,557.565972 422.67093,557.424306 C423.003721,557.202778 423.278605,556.931944 423.485814,556.626389 C425.273954,556.034028 425.534186,554.972917 425.548837,554.475694 C425.548837,554.475694 425.657674,552.675694 425.687674,551.936806 C426.879302,551.05625 427.550465,549.883333 427.550465,548.638194 C427.550465,548.083333 427.90907,547.53125 428.549535,546.597917 C429.573023,545.104861 430.976047,543.059722 430.976047,539.620833 C430.975349,534.327778 426.500465,530.021528 421.000698,530.021528 Z M426.459302,545.190972 C425.722558,546.265972 425.027674,547.28125 425.027674,548.6375 C425.027674,549.233333 424.486279,549.713194 424.083023,549.990278 L417.91907,549.990278 C417.515814,549.713889 416.974419,549.233333 416.974419,548.6375 C416.974419,547.28125 416.278837,546.265972 415.533721,545.178472 C414.603721,543.820833 413.548837,542.28125 413.548837,539.622222 C413.548837,535.714583 416.892093,532.534028 421.001395,532.532639 C425.111395,532.532639 428.453954,535.7125 428.453954,539.620833 C428.453954,542.285417 427.396977,543.822917 426.459302,545.190972 Z M421.000698,528.138194 C421.348837,528.138194 421.630698,527.857639 421.630698,527.510417 L421.630698,525.627778 C421.630698,525.28125 421.348837,525 421.000698,525 C420.652558,525 420.37,525.28125 420.37,525.627778 L420.37,527.510417 C420.37,527.857639 420.652558,528.138194 421.000698,528.138194 Z M421.280851,627.037447 C424.698436,627.037447 427.468936,624.266947 427.468936,620.849362 C427.468936,617.431777 424.698436,614.661277 421.280851,614.661277 C417.863266,614.661277 415.092766,617.431777 415.092766,620.849362 C415.092766,624.266947 417.863266,627.037447 421.280851,627.037447 Z M413.218723,622.591489 L407.627234,624.464681 C406.982128,623.479149 405.871489,622.825532 404.60766,622.825532 C402.613617,622.825532 401,624.44 401,626.433191 C401,628.428936 402.613617,630.043404 404.60766,630.043404 C406.6,630.043404 408.217872,628.428936 408.217872,626.433191 C408.217872,626.349787 408.2,626.273191 408.193191,626.191489 L413.802553,624.313191 C413.549787,623.76766 413.348936,623.193191 413.218723,622.591489 Z M424.997447,633.020425 L423.993191,628.63234 C423.426383,628.829787 422.836596,628.971064 422.221277,629.041702 L423.227234,633.430638 C422.074043,634.034043 421.278298,635.226383 421.278298,636.618723 C421.278298,638.611915 422.891915,640.224681 424.889362,640.224681 C426.882553,640.224681 428.49617,638.611064 428.49617,636.618723 C428.498723,634.662128 426.939574,633.078298 424.997447,633.020425 Z M437.393191,618.831489 C435.840851,618.831489 434.525957,619.817872 434.01617,621.193192 L429.524255,620.749787 C429.524255,620.78383 429.529362,620.81617 429.529362,620.849362 C429.529362,621.434894 429.464681,622.006809 429.348085,622.559149 L433.838298,623.002553 C434.109787,624.725106 435.593191,626.045957 437.393191,626.045957 C439.386383,626.045957 441,624.43234 441,622.439149 C441,620.446809 439.386383,618.831489 437.393191,618.831489 Z M426.242553,614.276596 L429.475745,608.835745 C429.794043,608.926809 430.124255,608.99234 430.470638,608.99234 C432.468085,608.99234 434.082553,607.377021 434.082553,605.382979 C434.082553,603.389787 432.468085,601.775319 430.470638,601.775319 C428.476596,601.775319 426.862979,603.388936 426.862979,605.382979 C426.862979,606.372766 427.262128,607.267234 427.907234,607.92 L424.684255,613.345532 C425.238298,613.596596 425.760851,613.909787 426.242553,614.276596 Z M415.950638,614.564255 L413.517447,612.264681 C413.800851,611.749787 413.97617,611.166809 413.97617,610.537872 C413.97617,608.544681 412.361702,606.930213 410.36766,606.930213 C408.373617,606.930213 406.756596,608.54383 406.756596,610.537872 C406.756596,612.531915 408.373617,614.147234 410.36766,614.147234 C411.070638,614.147234 411.720851,613.937872 412.275745,613.590638 L414.705532,615.88766 C415.073191,615.401702 415.48766,614.956596 415.950638,614.564255 Z M425.5,702.75 C428.399495,702.75 430.75,700.399495 430.75,697.5 C430.75,694.600505 428.399495,692.25 425.5,692.25 C422.600505,692.25 420.25,694.600505 420.25,697.5 C420.25,700.399495 422.600505,702.75 425.5,702.75 Z M426.899589,697.538003 C426.908825,697.117733 426.759907,696.751119 426.452832,696.438152 C426.145758,696.125185 425.775195,695.979881 425.341135,696.002236 C424.939398,696.015648 424.596541,696.173247 424.312555,696.475037 C424.028568,696.776827 423.891195,697.12891 423.90043,697.531297 C423.905048,697.938154 424.05512,698.284648 424.35065,698.57079 C424.646181,698.856931 425.004045,699 425.424252,699 C425.825989,699 426.17,698.856931 426.456296,698.57079 C426.742591,698.284648 426.890354,697.94039 426.899589,697.538003 Z M417.104884,699.405319 C416.963256,699.276383 416.732326,699.275745 416.590698,699.405319 C416.590698,699.405319 406.613953,707.749787 406.565814,707.79383 C406.187674,708.139787 406.187674,708.701489 406.565814,709.048085 C406.944651,709.394681 407.558605,709.394681 407.936744,709.048085 C407.984884,709.005319 417.104884,699.877021 417.104884,699.877021 C417.247209,699.74617 417.246512,699.535532 417.104884,699.405319 Z M435.717442,688.364043 C435.717442,687.610851 435.049767,687 434.227209,687 L408.144651,687 C407.321395,687 406.654419,687.610851 406.654419,688.364043 C406.654419,688.86766 406.955814,689.30234 407.399535,689.538511 L407.399535,705.245745 C407.802791,704.908723 408.293256,704.498298 408.889767,703.999149 L408.889767,689.727447 L433.481395,689.727447 L433.481395,704.726809 L414.275116,704.726809 C413.776279,705.225319 413.320698,705.681702 412.91186,706.091489 L414.226977,706.091489 L411.547907,715.284255 C411.335814,716.011915 411.808837,716.759362 412.604186,716.952766 C413.395349,717.145532 414.215814,716.714043 414.427907,715.986383 L417.113954,706.771277 L425.256512,706.771277 L427.943256,715.986383 C428.121163,716.595957 428.723256,716.998723 429.381861,716.998723 C429.510233,716.998723 429.638605,716.984681 429.766977,716.952766 C430.563023,716.758085 431.035349,716.010638 430.823954,715.284255 L428.144186,706.090851 L434.227907,706.090851 C434.639535,706.090851 434.972326,705.785745 434.972326,705.409149 L434.972326,689.538511 C435.416744,689.301702 435.717442,688.86766 435.717442,688.364043 Z M434.392541,768.655769 C433.359441,767.5875 431.981352,767 430.518415,767 C429.055478,767 427.679254,767.586538 426.645221,768.653846 L410.1669,785.549038 C410.068998,785.649038 409.994406,785.769231 409.947786,785.901923 L406.218182,796.478846 C406.097902,796.820192 406.175291,797.205769 406.418648,797.470192 C406.597669,797.664423 406.84289,797.769231 407.095571,797.769231 C407.186946,797.769231 407.278322,797.755769 407.368765,797.726923 L416.645221,794.792308 C416.790676,794.747115 416.923077,794.664423 417.031235,794.553846 L434.393473,776.649038 C435.430303,775.582692 436,774.161538 436,772.651923 C435.999068,771.143269 435.430303,769.723077 434.392541,768.655769 Z M415.57296,793.120192 L412.100699,794.220192 C411.898368,793.607692 411.583217,793.065385 411.15338,792.622115 C410.779487,792.238462 410.345921,791.940385 409.889044,791.698077 L411.477855,787.192308 L413.622378,787.192308 L413.622378,789.115385 C413.622378,789.647115 414.039161,790.076923 414.554779,790.076923 L416.200466,790.076923 L415.57296,793.120192 Z M429.297902,779.183654 L417.937529,790.899038 L418.263869,789.315385 C418.321678,789.030769 418.252681,788.735577 418.075524,788.510577 C417.898368,788.284615 417.632634,788.153846 417.351981,788.153846 L415.487179,788.153846 L415.487179,786.230769 C415.487179,785.7 415.069464,785.269231 414.554779,785.269231 L413.08345,785.269231 L424.172494,773.899038 L424.183683,773.909615 C424.8662,773.204808 425.775291,772.817308 426.740326,772.817308 C427.705361,772.817308 428.615385,773.204808 429.29697,773.909615 C429.978555,774.614423 430.358042,775.550962 430.358042,776.547115 C430.358042,777.543269 429.982284,778.478846 429.297902,779.183654 Z M433.074126,775.289423 L432.205128,776.186538 C432.121212,774.8125 431.568298,773.531731 430.617249,772.55 C429.665268,771.567308 428.422378,770.998077 427.086247,770.9125 L427.960839,770.017308 L427.962704,770.015385 C428.643357,769.310577 429.552448,768.923077 430.518415,768.923077 C431.484382,768.923077 432.392541,769.310577 433.074126,770.015385 C433.758508,770.720192 434.135198,771.656731 434.135198,772.651923 C434.135198,773.649038 433.760373,774.585577 433.074126,775.289423 Z M426.042449,853.881231 C425.97449,853.812308 425.89,853.762462 425.798775,853.733538 L420.303878,851.999385 C418.106531,851.305846 416.676939,852.515692 416.291837,852.904 C416.067143,853.129846 415.895102,853.368 415.806939,853.575385 L413.359184,859.362462 C413.21898,859.693538 413.266735,860.134769 413.486531,860.574769 C413.801225,861.203077 414.368163,861.656 415.045918,861.819077 C415.80449,862.001846 416.591225,861.753846 417.207143,861.135385 C417.368163,860.973538 417.505306,860.795077 417.586122,860.643692 L418.40898,859.109538 C418.544286,858.855385 418.740816,858.592 418.947755,858.384 C419.653673,857.673846 419.989184,857.998769 420.131837,858.136615 C421.363061,859.331077 427.817959,865.846769 427.817959,865.846769 C428.047551,866.077538 427.999796,866.515077 427.712653,866.803077 C427.426122,867.090462 426.990204,867.139692 426.761225,866.910154 L424.947755,865.088 C424.713878,864.852308 424.336735,864.852308 424.102857,865.088 C423.86898,865.321231 423.86898,865.702154 424.102857,865.936615 L425.916326,867.76 C426.145306,867.989538 426.097551,868.427077 425.81102,868.714462 C425.52449,869.003077 425.087959,869.051077 424.860204,868.821538 L423.046122,866.999385 C422.812245,866.764308 422.433878,866.764308 422.201225,866.999385 C421.967347,867.232615 421.967347,867.613538 422.201225,867.848615 L424.014694,869.671385 C424.243673,869.901538 424.194082,870.339077 423.908163,870.627077 C423.622245,870.914462 423.186939,870.963692 422.957347,870.732923 L421.143878,868.910769 C420.911225,868.676308 420.532245,868.676308 420.29898,868.910769 C420.066326,869.145231 420.066326,869.526154 420.29898,869.759385 L422.112449,871.582769 C422.342041,871.813538 422.293061,872.251077 422.007143,872.539077 C421.719388,872.827077 421.284082,872.875692 421.055714,872.645538 L418.847959,870.424615 C419.163265,869.948308 419.077551,869.257231 418.609796,868.785231 C418.085714,868.259077 417.279388,868.210462 416.812857,868.680615 C417.279388,868.211077 417.233469,867.401846 416.708163,866.874462 C416.182857,866.347692 415.378367,866.299077 414.911837,866.768 C415.378367,866.299077 415.331225,865.490462 414.805306,864.963692 C414.281225,864.435692 413.476735,864.387692 413.00898,864.856615 C413.476735,864.387692 413.428367,863.579077 412.903673,863.050462 C412.412653,862.556923 411.68102,862.489846 411.205306,862.865846 L407.630408,859.272615 C407.397143,859.037538 407.018163,859.037538 406.784898,859.272615 C406.552245,859.506462 406.552245,859.887385 406.784898,860.122462 L410.350612,863.705846 L409.293265,864.768615 C408.826735,865.236923 408.873878,866.045538 409.399796,866.574154 C409.923878,867.100923 410.728367,867.149538 411.19551,866.68 C410.728367,867.149538 410.776122,867.957538 411.301429,868.485538 C411.82551,869.011692 412.630612,869.061538 413.097755,868.592 C412.630612,869.061538 412.677755,869.869538 413.203061,870.396923 C413.728367,870.924923 414.532857,870.972923 414.999388,870.504 C414.532857,870.972308 414.58,871.780308 415.105306,872.308923 C415.63,872.835692 416.433878,872.884308 416.901633,872.414769 L418.018367,871.292923 L420.210816,873.496 C420.910612,874.199385 422.094082,874.150154 422.852041,873.389538 C423.221225,873.018462 423.418367,872.544615 423.445918,872.075692 C423.912449,872.048 424.38449,871.849231 424.753061,871.477538 C425.122857,871.106462 425.321225,870.632615 425.349388,870.163692 C425.815306,870.136 426.28551,869.937846 426.656531,869.566154 C427.025714,869.194462 427.223469,868.721231 427.250408,868.251692 C427.717551,868.224615 428.18898,868.026462 428.558775,867.653538 C429.31551,866.892923 429.362041,865.701538 428.664082,864.999385 L427.739592,864.069538 L431.53551,860.254769 C431.768775,860.020923 431.768775,859.64 431.53551,859.405538 L426.042449,853.881231 Z M435.038775,855.224 L430.201429,850.361846 C429.734898,849.892308 428.977551,849.892308 428.510408,850.361846 L426.819388,852.060308 C426.352857,852.529231 426.352857,853.290462 426.819388,853.759385 L431.657347,858.622769 C432.12449,859.091692 432.881837,859.091692 433.348367,858.622769 L435.038775,856.923692 C435.504694,856.454154 435.504694,855.692923 435.038775,855.224 Z M432.499796,857.700308 C431.958571,857.700308 431.51898,857.259077 431.51898,856.714462 C431.51898,856.169846 431.958571,855.728 432.499796,855.728 C433.041633,855.728 433.481225,856.169231 433.481225,856.714462 C433.480612,857.258462 433.041633,857.700308 432.499796,857.700308 Z" id="Combined-Shape"></path>
        </g>
    </g>
</svg>