<?xml version="1.0" encoding="UTF-8"?>
<svg width="35px" height="60px" viewBox="0 0 35 60" version="1.1" xmlns="http://www.w3.org/2000/svg" xmlns:xlink="http://www.w3.org/1999/xlink">
    <!-- Generator: Sketch 41.2 (35397) - http://www.bohemiancoding.com/sketch -->
    <title>logo gravity</title>
    <desc>Created with Sketch.</desc>
    <defs>
        <linearGradient x1="50%" y1="0%" x2="50%" y2="97.9611767%" id="linearGradient-1">
            <stop stop-color="#DB177C" offset="0%"></stop>
            <stop stop-color="#6B4590" offset="100%"></stop>
        </linearGradient>
    </defs>
    <g id="Page-1" stroke="none" stroke-width="1" fill="none" fill-rule="evenodd">
        <g id="logo-gravity">
            <g id="Page-1">
                <g id="logo-gravity">
                    <g id="Page-1">
                        <g id="logo-gravity">
                            <g id="_2743615437776" fill="url(#linearGradient-1)">
                                <path d="M0.0680934,7.13804715 L0,7.13804715 L0,7.54208755 L0,14.2087542 L7.0136187,7.8114478 L7.0136187,7.54208755 L3.60323065,7.34173155 L7.0136187,7.54208755 L7.0136187,6.93602695 L7.08171205,6.93602695 L5.1070039,0 L3.06420235,0 L0.13618675,7.13804715 L0.0680934,7.13804715 L0.13618675,7.13804715 L3.06420235,0 L0,0 L0,7.13804715 L0.0680934,7.13804715 Z M6.8093385,28.0808081 L6.26459145,33.131313 L2.58754865,29.5622896 L2.17898835,29.0909091 L6.8093385,28.0808081 Z M6.8093385,28.0808081 L5.9922179,20.8754209 L0,23.8383839 L0,26.5319866 L6.8093385,28.0808081 Z M21.92607,30.1010101 L26.7607004,31.6498317 L32.6167315,28.0808081 L27.3054475,24.7811448 L21.92607,30.1010101 Z M2.17898835,29.0909091 L6.8093385,28.0808081 L0,26.5319866 L0,26.936027 L2.17898835,29.0909091 Z M11.0311284,28.0808081 L6.8093385,28.0808081 L5.9922179,20.8754209 L7.0136187,21.6161616 L7.0136187,24.0404041 L11.0311284,28.0808081 Z M6.8093385,28.0808081 L6.26459145,33.131313 L7.3540856,34.208754 L13.0058366,30.0336701 L11.0311284,28.0808081 L6.8093385,28.0808081 Z M33.9105058,28.0808081 L32.6167315,28.0808081 L26.7607004,31.6498317 L29.2801556,32.5925925 L33.9105058,28.0808081 Z M15.5252918,40.20202 L10.963035,37.845118 L9.53307395,36.4309765 L7.3540856,34.208754 L13.0058366,30.0336701 L15.5933852,32.5925925 L15.5252918,40.20202 Z M25.4669261,36.3636365 L26.7607004,31.6498317 L21.9260701,30.1010101 L18.725681,33.2659935 L22.3346304,39.4612795 L25.4669261,36.3636365 Z M15.5252919,40.20202 L20.496109,41.2794615 L22.3346304,39.4612795 L18.725681,33.2659935 L17.5,34.4781145 L15.5933852,32.5925925 L15.5252919,40.20202 Z M29.2801556,32.5925925 L26.7607004,31.6498317 L25.466926,36.3636365 L29.2801556,32.5925925 Z M20.4961089,41.2794615 L15.5252919,40.20202 L14.4357977,41.2794615 L17.5,44.242424 L20.4961089,41.2794615 Z M10.963035,37.845118 L15.5252919,40.20202 L14.4357977,41.2794615 L10.963035,37.845118 Z M23.9007782,14.006734 L25.3988327,19.4612795 L17.5680934,27.2053872 L17.5680934,24.8484849 L23.9007782,14.006734 Z M35,21.2794613 L27.9863813,23.973064 C27.9863813,15.8922559 27.9863813,25.1178451 27.9863813,16.9023569 L25.3988327,19.4612795 L23.9007782,14.006734 L35,19.4612795 L35,21.2794613 Z M20.0875486,14.8821549 L23.9007782,14.006734 L17.5680934,24.8484849 L17.5680934,17.4410775 C18.385214,16.5656566 19.270428,15.6902357 20.0875486,14.8821549 Z M35,10.1683502 L29.348249,5.65656565 C29.9610895,5.05050505 30.5058366,4.5117845 31.118677,3.9057239 L35,4.3771044 L35,10.1683502 Z M31.1186771,3.9057239 L35,4.3771044 L35,1.0774411 L33.5700389,1.4141414 C32.7529183,2.2895623 31.9357976,3.0976431 31.1186771,3.9057239 Z M33.5700389,1.4141414 L35,1.0774411 L35,0.06734005 C34.5233463,0.53872055 34.0466926,1.010101 33.5700389,1.4141414 Z M23.9007782,14.006734 L35,11.5151515 L35,10.1683502 L29.3482491,5.65656565 L24.8540856,10.1010101 L23.9007782,14.006734 Z M35,11.5151515 L23.9007782,14.006734 L35,19.4612794 L35,11.5151515 Z M21.8579767,3.36700335 L16.5466926,3.43434345 L18.725681,6.46464645 L21.8579767,3.36700335 Z M22.7431906,12.2558923 L23.9007782,14.006734 L24.8540856,10.1010101 C24.1731517,10.8417509 23.4241245,11.5824916 22.7431906,12.2558923 Z M19.7470817,0 L16.5466926,3.43434345 L21.8579767,3.36700335 L25.1945525,0 L19.7470817,0 Z M0,23.8383838 L5.9922179,20.8754209 L0,18.5185185 L0,23.8383838 Z M9.6692607,0 L16.5466926,3.43434345 L19.7470817,0 L9.6692607,0 Z M33.9105058,28.0808081 L32.6167315,28.0808081 L27.3054475,24.7811448 L27.9863813,24.1077441 L27.9863813,23.9730639 L35,21.2794613 L35,26.9360269 L33.9105058,28.0808081 Z M7.0136187,20.3367004 L5.9922179,20.8754209 L7.0136187,21.6161616 L7.0136187,20.3367004 Z M21.7898833,13.1986532 L23.9007782,14.006734 L20.0875487,14.8821549 C20.7003891,14.2760943 21.2451362,13.7373738 21.7898833,13.1986532 Z M16.5466926,3.43434345 L8.57976655,6.93602695 L18.2490272,6.93602695 L18.7256809,6.46464645 L16.5466926,3.43434345 Z M21.7898832,13.1986532 L23.9007782,14.006734 L22.7431906,12.2558923 L21.7898832,13.1986532 Z M5.9922179,20.8754209 L7.0136187,10.4377105 L7.0136187,7.8114478 L0,14.2087542 L0,18.5185185 L5.9922179,20.8754209 Z M5.1070039,0 L7.08171205,6.93602695 L8.57976655,6.93602695 L16.5466926,3.43434345 L9.6692607,0 L5.1070039,0 Z M7.0136187,10.4377105 L5.9922179,20.8754209 L7.0136187,20.3367004 L7.0136187,10.4377105 Z M0,41.885522 L7.2859922,48.5521885 L6.12840465,48.6195285 C4.01750975,46.5993265 1.97470815,44.6464645 0,42.6936025 L0,41.885522 Z M33.5700389,34.2760945 L35,34.814815 L35,32.861953 L33.5700389,34.2760945 Z M35,34.814815 L33.5700389,34.2760945 L27.4416342,40.3367005 L35,36.6329965 L35,34.814815 Z M25.3307393,42.4242425 L33.4338522,44.242424 L26.2159533,51.3804715 L24.2412452,43.5016835 L25.3307393,42.4242425 Z M24.8540856,52.7272725 L16.5466926,52.6599325 L20.0194553,47.6767675 L24.2412452,43.5016835 L26.2159533,51.3804715 L25.466926,52.121212 L24.8540856,52.7272725 Z M33.4338521,44.242424 L25.3307393,42.4242425 L27.4416342,40.3367005 L35,36.6329965 L35,42.6936025 L33.4338521,44.242424 Z M3.40466925,36.228956 L0,37.5757575 L0,32.861953 L3.40466925,36.228956 Z M12.3929961,54.7474745 L16.5466926,52.6599325 L20.5642023,56.902357 L17.5,60 C15.8657588,58.249158 14.1634241,56.4983165 12.3929961,54.7474745 Z M7.2859922,48.5521885 L13.4143969,46.127946 L11.5077821,44.242424 L7.2859922,48.5521885 Z M20.5642023,56.902357 L16.5466926,52.6599325 L24.8540856,52.7272725 L20.5642023,56.902357 Z M16.5466926,52.6599325 L7.2859922,48.5521885 L13.4143969,46.127946 L17.5,50.16835 L20.0194553,47.6767675 L16.5466926,52.6599325 Z M6.12840465,48.6195285 L7.2859922,48.5521885 L7.0136187,49.4949495 L6.12840465,48.6195285 Z M6.4007782,39.191919 L7.2859922,48.5521885 L0,41.885522 L0,37.5757575 L3.40466925,36.228956 L6.4007782,39.191919 Z M7.0136187,49.4949495 L7.2859922,48.5521885 L16.5466926,52.6599325 L12.3929961,54.7474745 C10.6225681,52.996633 8.7840467,51.245791 7.0136187,49.4949495 Z M7.2859922,48.5521885 L6.4007782,39.191919 L11.5077821,44.242424 L7.2859922,48.5521885 Z" id="Combined-Shape"></path>
                            </g>
                            <g id="_2743615437776-copy">
                                <polygon id="Shape" fill="#6B4590" points="7.2859922 48.5521885 6.4007782 39.1919192 11.5077821 44.2424242"></polygon>
                                <path d="M7.0136187,49.4949495 L7.2859922,48.5521885 L16.5466926,52.6599325 L12.3929961,54.7474745 C10.6225681,52.996633 8.7840467,51.245791 7.0136187,49.4949495 Z" id="Shape" fill="#5959A1"></path>
                                <polygon id="Shape" fill="#713C8B" points="6.4007782 39.1919192 7.2859922 48.5521885 0 41.8855219 0 37.5757576 3.40466926 36.2289563"></polygon>
                                <polygon id="Shape" fill="#444498" points="6.12840465 48.6195286 7.2859922 48.5521885 7.0136187 49.4949495"></polygon>
                                <polygon id="Shape" fill="#6E58A0" points="16.5466926 52.6599325 7.2859922 48.5521885 13.4143969 46.1279461 17.5 50.16835 20.0194553 47.6767677"></polygon>
                                <polygon id="Shape" fill="#634E97" points="7.2859922 48.5521885 13.4143969 46.1279461 11.5077821 44.2424242"></polygon>
                                <path d="M12.3929961,54.7474745 L16.5466926,52.6599325 L20.5642023,56.902357 L17.5,60 C15.8657587,58.249158 14.1634241,56.4983165 12.3929961,54.7474745 Z" id="Shape" fill="#2E6FB4"></path>
                                <polygon id="Shape" fill="#763285" points="3.40466926 36.2289563 0 37.5757576 0 32.8619529"></polygon>
                                <polygon id="Shape" fill="#4D61A7" points="20.5642023 56.902357 16.5466926 52.6599325 24.8540856 52.7272725"></polygon>
                                <polygon id="Shape" fill="#5959A1" points="24.8540856 52.7272725 16.5466926 52.6599325 20.0194553 47.6767677 24.2412452 43.5016835 26.2159533 51.3804715 25.4669261 52.121212"></polygon>
                                <polygon id="Shape" fill="#6B4590" points="33.4338521 44.2424242 25.3307393 42.4242424 27.4416342 40.3367004 35 36.6329967 35 42.6936027"></polygon>
                                <polygon id="Shape" fill="#634E97" points="25.3307393 42.4242424 33.4338521 44.2424242 26.2159533 51.3804715 24.2412452 43.5016835"></polygon>
                                <polygon id="Shape" fill="#713C8B" points="35 34.8148148 33.5700389 34.2760943 27.4416342 40.3367004 35 36.6329967"></polygon>
                                <polygon id="Shape" fill="#763285" points="33.5700389 34.2760943 35 34.8148148 35 32.8619529"></polygon>
                                <path d="M0,41.8855219 L7.2859922,48.5521885 L6.12840465,48.6195286 C4.01750973,46.5993266 1.97470817,44.6464646 0,42.6936027 L0,41.8855219 Z" id="Shape" fill="#763285"></path>
                                <polygon id="Shape" fill="#702152" points="7.0136187 10.4377105 5.9922179 20.8754209 7.0136187 20.3367004"></polygon>
                                <polygon id="Shape" fill="#DB177C" points="5.1070039 0 7.08171205 6.93602695 8.57976655 6.93602695 16.5466926 3.43434344 9.6692607 0"></polygon>
                                <polygon id="Shape" fill="#DB177C" points="5.9922179 20.8754209 7.0136187 10.4377105 7.0136187 7.8114478 0 14.2087542 0 18.5185185"></polygon>
                                <polygon id="Shape" fill="#E41475" points="3.06420234 0 0.13618677 7.13804715 0 7.13804715 0 0"></polygon>
                                <polygon id="Shape" fill="#E41475" points="3.06420234 0 0.13618677 7.13804715 7.0136187 7.54208755 7.0136187 6.93602695 7.08171205 6.93602695 5.1070039 0"></polygon>
                                <polygon id="Shape" fill="#8A3B1D" points="0 7.54208755 0.194444445 7.13804715 0 7.13804715"></polygon>
                                <path d="M16.5466926,3.43434344 L8.57976655,6.93602695 L18.2490273,6.93602695 L18.725681,6.46464645 L16.5466926,3.43434344 Z M21.7898832,13.1986532 L23.9007782,14.006734 L22.7431906,12.2558923 L21.7898832,13.1986532 Z" id="Shape" fill="#C21D7A"></path>
                                <path d="M21.7898833,13.1986532 L23.9007782,14.006734 L20.0875487,14.8821549 C20.7003891,14.2760943 21.2451362,13.7373737 21.7898833,13.1986532 Z" id="Shape" fill="#982066"></path>
                                <polygon id="Shape" fill="#E01679" points="9.6692607 0 16.5466926 3.43434344 19.7470817 0"></polygon>
                                <polygon id="Shape" fill="#D6187F" points="0 23.8383838 5.9922179 20.8754209 0 18.5185185"></polygon>
                                <polygon id="Shape" fill="#D6187F" points="19.7470817 0 16.5466926 3.43434344 21.8579767 3.36700336 25.1945526 0"></polygon>
                                <path d="M21.8579767,3.36700336 L16.5466926,3.43434344 L18.725681,6.46464645 L21.8579767,3.36700336 Z M22.7431906,12.2558922 L23.9007782,14.006734 L24.8540856,10.1010101 C24.1731517,10.8417508 23.4241245,11.5824916 22.7431906,12.2558922 Z" id="Shape" fill="#D01A80"></path>
                                <polygon id="Shape" fill="#D6187F" points="35 11.5151515 23.9007782 14.006734 35 19.4612794"></polygon>
                                <polygon id="Shape" fill="#DB177C" points="23.9007782 14.006734 35 11.5151515 35 10.1683502 29.348249 5.65656565 24.8540856 10.1010101"></polygon>
                                <path d="M33.5700389,1.41414142 L35,1.07744108 L35,0.0673400675 L35,0.0673400675 C34.5233463,0.53872054 34.0466926,1.01010101 33.5700389,1.41414142 Z" id="Shape" fill="#69214F"></path>
                                <path d="M31.118677,3.90572391 L35,4.37710438 L35,1.07744108 L33.5700389,1.41414142 C32.7529183,2.28956229 31.9357977,3.0976431 31.118677,3.90572391 Z" id="Shape" fill="#E41475"></path>
                                <path d="M35,10.1683501 L29.348249,5.65656565 C29.9610895,5.05050505 30.5058366,4.51178451 31.118677,3.9057239 L35,4.37710437 L35,10.1683501 Z" id="Shape" fill="#E01679"></path>
                                <path d="M35,21.2794613 L27.9863813,23.973064 C27.9863813,15.8922559 27.9863813,25.1178451 27.9863813,16.9023569 L25.3988327,19.4612794 L23.9007782,14.006734 L35,19.4612794 L35,21.2794613 Z" id="Shape" fill="#D01A80"></path>
                                <path d="M20.0875486,14.8821549 L23.9007782,14.006734 L17.5680934,24.8484848 L17.5680934,17.4410775 C18.385214,16.5656565 19.270428,15.6902357 20.0875486,14.8821549 Z" id="Shape" fill="#982066"></path>
                                <polygon id="Shape" fill="#C21D7A" points="23.9007782 14.006734 25.3988327 19.4612794 17.5680934 27.2053872 17.5680934 24.8484848"></polygon>
                                <polygon id="Shape" fill="#81205A" points="7.0136187 20.3367004 5.9922179 20.8754209 7.0136187 21.6161616"></polygon>
                                <polygon id="Shape" fill="#C21D7A" points="33.9105058 28.0808081 32.6167315 28.0808081 27.3054474 24.7811448 27.9863813 24.1077441 27.9863813 23.973064 35 21.2794613 35 26.9360269"></polygon>
                                <polygon id="Shape" fill="#5F204A" points="10.963035 37.8451179 15.5252919 40.2020202 14.4357976 41.2794613"></polygon>
                                <polygon id="Shape" fill="#582047" points="20.4961089 41.2794613 15.5252919 40.2020202 14.4357976 41.2794613 17.5 44.2424242"></polygon>
                                <polygon id="Shape" fill="#702152" points="29.2801557 32.5925926 26.7607004 31.6498316 25.4669261 36.3636363"></polygon>
                                <polygon id="Shape" fill="#5F204A" points="15.5252919 40.2020202 20.4961089 41.2794613 22.3346304 39.4612794 18.725681 33.2659933 17.5 34.4781145 15.5933852 32.5925926"></polygon>
                                <polygon id="Shape" fill="#69214F" points="25.4669261 36.3636364 26.7607004 31.6498316 21.92607 30.1010101 18.725681 33.2659933 22.3346304 39.4612794"></polygon>
                                <polygon id="Shape" fill="#69214F" points="15.5252919 40.2020202 10.963035 37.8451179 9.53307395 36.4309765 7.3540856 34.2087542 13.0058366 30.0336701 15.5933852 32.5925926"></polygon>
                                <polygon id="Shape" fill="#81205A" points="33.9105058 28.0808081 32.6167315 28.0808081 26.7607004 31.6498316 29.2801557 32.5925926"></polygon>
                                <polygon id="Shape" fill="#702152" points="6.8093385 28.0808081 6.26459145 33.1313131 7.3540856 34.2087542 13.0058366 30.0336701 11.0311284 28.0808081"></polygon>
                                <polygon id="Shape" fill="#982066" points="11.0311284 28.0808081 6.8093385 28.0808081 5.9922179 20.8754209 7.0136187 21.6161616 7.0136187 24.040404"></polygon>
                                <polygon id="Shape" fill="#C21D7A" points="2.17898833 29.0909091 6.8093385 28.0808081 0 26.5319865 0 26.9360269"></polygon>
                                <polygon id="Shape" fill="#E01679" points="0 14.2087542 7.0136187 7.8114478 7.0136187 7.54208755 0.13618677 7.13804715 0 7.54208755"></polygon>
                                <polygon id="Shape" fill="#982066" points="21.92607 30.1010101 26.7607004 31.6498316 32.6167315 28.0808081 27.3054474 24.7811448"></polygon>
                                <polygon id="Shape" fill="#D01A80" points="6.8093385 28.0808081 5.9922179 20.8754209 0 23.8383838 0 26.5319865"></polygon>
                                <polygon id="Shape" fill="#81205A" points="6.8093385 28.0808081 6.26459145 33.1313131 2.58754864 29.5622895 2.17898833 29.0909091"></polygon>
                            </g>
                        </g>
                    </g>
                </g>
            </g>
        </g>
    </g>
</svg>