<svg xmlns="http://www.w3.org/2000/svg" viewBox="0 0 113.39 113.39"><defs><style>.cls-1{fill:#126075;}</style></defs><title>Asset 50</title><g id="Layer_2" data-name="Layer 2"><g id="Слой_1" data-name="Слой 1"><path class="cls-1" d="M59.72,50.63,54.2,53.39A2,2,0,0,1,51.85,53L45.79,47a2,2,0,0,0-1.43-.6H32.15a6.11,6.11,0,0,0-6.1,6.1v12.2a2,2,0,1,0,4.07,0V52.45a2,2,0,0,1,4.07,0V89.19a2,2,0,1,0,4.06,0V68.72a2,2,0,0,1,4.07,0V89.19a2,2,0,1,0,4.07,0v-31h0a2,2,0,0,1,3.47-1.43L51.05,58a2,2,0,0,0,2.35.38l8.13-4.07a2,2,0,0,0-1.81-3.64Z"/><path class="cls-1" d="M85.3,30H56.56a2,2,0,0,0-2,2v16.7L57.9,47a6.08,6.08,0,0,1,7,1.06L76,42.5a2,2,0,0,1,1.82,3.64L66.68,51.7a6,6,0,0,1-.27,2.68l0,.11H85.3a2,2,0,0,0,2-2V32A2,2,0,0,0,85.3,30Z"/><path class="cls-1" d="M40.29,30a4.19,4.19,0,0,0-4.07,4.2,4.07,4.07,0,0,0,8.14,0A4.19,4.19,0,0,0,40.29,30Z"/><path class="cls-1" d="M56.69,0a56.7,56.7,0,1,0,56.7,56.69A56.69,56.69,0,0,0,56.69,0ZM91.4,52.45a6.11,6.11,0,0,1-6.1,6.1H62.07L55.22,62a6.11,6.11,0,0,1-4.76.29V89.19a6.11,6.11,0,0,1-10.17,4.55,6.11,6.11,0,0,1-10.17-4.55V70.41a6.23,6.23,0,0,1-2,.35A6.11,6.11,0,0,1,22,64.65V52.45A10.17,10.17,0,0,1,32.15,42.29h8.14a8.15,8.15,0,0,1-8.14-8.14,8.14,8.14,0,1,1,16.27,0,8.15,8.15,0,0,1-8.13,8.14h4.07a6.07,6.07,0,0,1,4.31,1.78l1.79,1.79V32a6.11,6.11,0,0,1,6.1-6.1H85.3A6.11,6.11,0,0,1,91.4,32Z"/></g></g></svg>