<svg xmlns="http://www.w3.org/2000/svg" viewBox="0 0 113.39 113.39"><defs><style>.cls-1{fill:#126075;}</style></defs><title>Asset 51</title><g id="Layer_2" data-name="Layer 2"><g id="Слой_1" data-name="Слой 1"><path class="cls-1" d="M51.16,33.54a16,16,0,1,0,16,16A16,16,0,0,0,51.16,33.54Zm0,7.12a8.9,8.9,0,0,0-8.9,8.89H38.7A12.47,12.47,0,0,1,51.16,37.1Z"/><path class="cls-1" d="M56.69,0a56.7,56.7,0,1,0,56.7,56.69A56.69,56.69,0,0,0,56.69,0ZM51.16,70.9A21.35,21.35,0,1,1,72.5,49.55,21.35,21.35,0,0,1,51.16,70.9Zm34,12.67a5.32,5.32,0,0,1-7.54,0L64.56,70.51A25.05,25.05,0,0,0,72.11,63L85.17,76A5.33,5.33,0,0,1,85.17,83.57Z"/></g></g></svg>