<svg xmlns="http://www.w3.org/2000/svg" viewBox="0 0 113.39 113.39"><defs><style>.cls-1{fill:#126075;}</style></defs><title>Asset 54</title><g id="Layer_2" data-name="Layer 2"><g id="Слой_1" data-name="Слой 1"><polygon class="cls-1" points="46.36 52.88 39.52 46.04 35.7 49.85 35.7 54.78 44.45 54.78 46.36 52.88"/><path class="cls-1" d="M28,85.44H58.6V75.77a1.91,1.91,0,0,1,1.91-1.9h9.67V28H28ZM52.88,81.5H41.43a1.91,1.91,0,0,1,0-3.82H52.88a1.91,1.91,0,0,1,0,3.82Zm0-7.63H41.43a1.91,1.91,0,0,1,0-3.82H52.88a1.91,1.91,0,0,1,0,3.82Zm11.44-7.64H41.43a1.91,1.91,0,1,1,0-3.81H64.32a1.91,1.91,0,1,1,0,3.81ZM31.89,33.8a1.9,1.9,0,0,1,1.91-1.91H64.32a1.9,1.9,0,0,1,1.91,1.91V56.69a1.9,1.9,0,0,1-1.91,1.91H33.8a1.9,1.9,0,0,1-1.91-1.91ZM33.8,62.42a1.91,1.91,0,1,1-1.91,1.91A1.9,1.9,0,0,1,33.8,62.42Zm0,7.63A1.91,1.91,0,1,1,31.89,72,1.9,1.9,0,0,1,33.8,70.05Zm0,7.63a1.91,1.91,0,1,1-1.91,1.91A1.91,1.91,0,0,1,33.8,77.68Z"/><polygon class="cls-1" points="49.85 54.78 62.42 54.78 62.42 49.85 58.6 46.04 49.85 54.78"/><polygon class="cls-1" points="62.42 82.74 67.48 77.68 62.42 77.68 62.42 82.74"/><path class="cls-1" d="M40.87,42l8.19,8.19L57.25,42A1.9,1.9,0,0,1,60,42l2.47,2.46V35.71H35.7v8.74L38.17,42A1.9,1.9,0,0,1,40.87,42Zm8.19-4.38a3.82,3.82,0,1,1-3.82,3.82A3.82,3.82,0,0,1,49.06,37.61Z"/><rect class="cls-1" x="81.62" y="35.71" width="3.82" height="34.34"/><path class="cls-1" d="M56.69,0a56.7,56.7,0,1,0,56.7,56.69A56.69,56.69,0,0,0,56.69,0ZM74,75.77a1.89,1.89,0,0,1-.56,1.35L61.86,88.7h0a2,2,0,0,1-1.35.56H26a1.91,1.91,0,0,1-1.91-1.91V26A1.9,1.9,0,0,1,26,24.13h46A1.9,1.9,0,0,1,74,26Zm15.27,0a1.89,1.89,0,0,1-.2.84L85.44,84v3.37a1.91,1.91,0,0,1-3.82,0V84L78,76.62a2.1,2.1,0,0,1-.19-.85V26a1.9,1.9,0,0,1,1.91-1.91h7.63A1.91,1.91,0,0,1,89.26,26Z"/><polygon class="cls-1" points="81.62 75.33 83.53 79.21 85.44 75.33 85.44 73.86 81.62 73.86 81.62 75.33"/><rect class="cls-1" x="81.62" y="27.95" width="3.82" height="3.94"/></g></g></svg>