<svg xmlns="http://www.w3.org/2000/svg" viewBox="0 0 113.39 113.39"><defs><style>.cls-1{fill:#126075;}</style></defs><title>Asset 41</title><g id="Layer_2" data-name="Layer 2"><g id="Слой_1" data-name="Слой 1"><polygon class="cls-1" points="56.69 52.88 58.46 48.16 54.92 48.16 56.69 52.88"/><path class="cls-1" d="M52.14,60.68v4.55h9.1V60.68a1.14,1.14,0,0,1,1.14-1.14h4.55V53.85a5.69,5.69,0,0,0-5.69-5.69H60.9l-3.14,8.36a1.13,1.13,0,0,1-1.07.74,1.12,1.12,0,0,1-1.06-.74l-3.14-8.36h-.35a5.7,5.7,0,0,0-5.69,5.69v5.69H51A1.14,1.14,0,0,1,52.14,60.68Zm3.42-1.14h2.27v2.27H55.56Z"/><path class="cls-1" d="M41.9,28.82V30l2.73-2.05a1.14,1.14,0,0,1,.69-.23h4.55V24.27H36.21v3.41h4.55A1.14,1.14,0,0,1,41.9,28.82Z"/><path class="cls-1" d="M56.69,45.88A5.69,5.69,0,1,0,51,40.2,5.69,5.69,0,0,0,56.69,45.88Z"/><path class="cls-1" d="M32.8,45.88a5.69,5.69,0,1,0-5.69-5.68A5.69,5.69,0,0,0,32.8,45.88Z"/><path class="cls-1" d="M43,67.5H32.8a1.14,1.14,0,0,1-1.14-1.14V55h2.28V65.23H49.87V61.81H38.49a1.14,1.14,0,0,1-1.14-1.13V51.57a3.41,3.41,0,0,0-3.41-3.41H28.25a3.41,3.41,0,0,0-3.41,3.41V68.64a3.41,3.41,0,0,0,3.41,3.41H40.76a1.14,1.14,0,0,1,1.14,1.14V89.12h4.55V70.92A3.42,3.42,0,0,0,43,67.5Z"/><path class="cls-1" d="M56.69,0a56.7,56.7,0,1,0,56.7,56.69A56.69,56.69,0,0,0,56.69,0ZM71.48,25.4h2.28v2.28H71.48Zm-4.55,0h2.28v2.28H66.93Zm-4.55,0h2.28v2.28H62.38ZM33.94,23.13A1.14,1.14,0,0,1,35.08,22H51a1.14,1.14,0,0,1,1.14,1.14v5.69A1.14,1.14,0,0,1,51,30H45.69l-4.24,3.18a1.14,1.14,0,0,1-.69.23,1.11,1.11,0,0,1-.5-.12,1.13,1.13,0,0,1-.63-1V30H35.08a1.14,1.14,0,0,1-1.14-1.14ZM90.83,68.64a5.69,5.69,0,0,1-4.55,5.57V91.4H84V74.33H73.76V90.26a1.14,1.14,0,0,1-1.14,1.14H65.79a1.14,1.14,0,0,1-1.13-1.14V72.05H57.83V89.12h4.55V91.4H51V89.12h4.56V72.05H48.73V90.26a1.14,1.14,0,0,1-1.14,1.14H40.76a1.14,1.14,0,0,1-1.13-1.14V74.33H29.39V91.4H27.11V74.21a5.69,5.69,0,0,1-4.55-5.57V51.57A5.69,5.69,0,0,1,27.34,46a8,8,0,1,1,9.79.89,5.67,5.67,0,0,1,2.5,4.7v8h4.55V53.85a8,8,0,0,1,7-7.9,8,8,0,1,1,11,0,8,8,0,0,1,7,7.9v5.69h4.55v-8a5.68,5.68,0,0,1,2.49-4.7,8,8,0,1,1,9.8-.89,5.69,5.69,0,0,1,4.78,5.59Z"/><path class="cls-1" d="M85.14,48.16H79.45A3.41,3.41,0,0,0,76,51.57v9.11a1.14,1.14,0,0,1-1.14,1.13H63.52v3.42H79.45V55h2.27V66.36a1.14,1.14,0,0,1-1.13,1.14H70.35a3.42,3.42,0,0,0-3.42,3.42v18.2h4.55V73.19a1.14,1.14,0,0,1,1.14-1.14H85.14a3.41,3.41,0,0,0,3.41-3.41V51.57A3.41,3.41,0,0,0,85.14,48.16Z"/><path class="cls-1" d="M48.6,69.78H64.79a5.6,5.6,0,0,1,1-2.28H47.59A5.74,5.74,0,0,1,48.6,69.78Z"/><path class="cls-1" d="M80.59,45.88A5.69,5.69,0,1,0,74.9,40.2,5.7,5.7,0,0,0,80.59,45.88Z"/></g></g></svg>