<svg xmlns="http://www.w3.org/2000/svg" viewBox="0 0 113.39 113.39"><defs><style>.cls-1{fill:#126075;}</style></defs><title>Asset 42</title><g id="Layer_2" data-name="Layer 2"><g id="Слой_1" data-name="Слой 1"><path class="cls-1" d="M86.77,35.54a2.46,2.46,0,0,0,0-3.48l-5.54-5.53a2.46,2.46,0,0,0-3.48,0L73.5,30.78l9,9Z"/><polygon class="cls-1" points="27.34 85.95 31.69 83.96 29.34 81.6 27.34 85.95"/><path class="cls-1" d="M57.72,42.44,54,38.68l-1.39,1.39a1.46,1.46,0,0,1-2.07,0,1.47,1.47,0,0,1,0-2.06l1.4-1.39L48.28,33l-4.16,4.17a1.48,1.48,0,0,1-1,.42,1.45,1.45,0,0,1-1-2.48l4.16-4.17L42.6,27.33l-1.39,1.39a1.48,1.48,0,0,1-1,.42,1.45,1.45,0,0,1-1-2.48l1.39-1.4L38,22.67a1.45,1.45,0,0,0-2,0L22.7,35.88a1.43,1.43,0,0,0-.42,1,1.46,1.46,0,0,0,.42,1L42.47,57.69Z"/><polygon class="cls-1" points="30.63 78.78 34.52 82.66 42.33 79.08 34.22 70.96 30.63 78.78"/><path class="cls-1" d="M78.34,39.74l-12,12a1.43,1.43,0,0,1-1,.43,1.46,1.46,0,0,1-1-2.49l12-12-4.84-4.84L35.83,68.45l9,9L80.45,41.86ZM62.44,55.65a1.48,1.48,0,0,1-1,.43,1.46,1.46,0,0,1-1-.43,1.44,1.44,0,0,1-.43-1,1.42,1.42,0,0,1,.43-1,1.46,1.46,0,0,1,1-.43,1.48,1.48,0,0,1,1,.43,1.45,1.45,0,0,1,.42,1A1.47,1.47,0,0,1,62.44,55.65Z"/><path class="cls-1" d="M56.69,0a56.7,56.7,0,1,0,56.7,56.69A56.69,56.69,0,0,0,56.69,0Zm9.64,83.61a1.46,1.46,0,0,1-1,.43,1.46,1.46,0,0,1,0-2.92,1.46,1.46,0,0,1,1,.43,1.45,1.45,0,0,1,0,2.06Zm26.36-4.16L79.48,92.66a4.37,4.37,0,0,1-6.16,0L68.07,87.4a1.46,1.46,0,0,1,2.06-2.06l5.25,5.26a1.45,1.45,0,0,0,2,0l13.2-13.21a1.41,1.41,0,0,0,.43-1,1.4,1.4,0,0,0-.43-1L88,72.74l-1.39,1.4a1.48,1.48,0,0,1-1,.42,1.45,1.45,0,0,1-1-2.48L86,70.68l-3.62-3.61-4.16,4.16a1.47,1.47,0,0,1-1,.43,1.49,1.49,0,0,1-1-.43,1.45,1.45,0,0,1,0-2.06L80.28,65l-3.61-3.62-1.4,1.39a1.41,1.41,0,0,1-1,.43,1.46,1.46,0,0,1-1-2.49l1.4-1.39-3.76-3.75L55.61,70.82l6.26,6.27a1.45,1.45,0,0,1,0,2.06,1.47,1.47,0,0,1-1,.43,1.49,1.49,0,0,1-1-.43l-6.26-6.26-7.67,7.67a1.55,1.55,0,0,1-.43.29L25,90.24a1.46,1.46,0,0,1-1.94-1.93l9.39-20.47a1.6,1.6,0,0,1,.3-.42l7.67-7.67L20.64,40a4.35,4.35,0,0,1,0-6.16L33.85,20.61a4.36,4.36,0,0,1,6.16,0l3.62,3.62h0L59.78,40.38,75.69,24.47a5.36,5.36,0,0,1,7.6,0L88.83,30a5.38,5.38,0,0,1,0,7.6L72.92,53.52,92.69,73.29a4.37,4.37,0,0,1,0,6.16Z"/></g></g></svg>