<?xml version="1.0" encoding="utf-8"?>
<!-- Generator: Adobe Illustrator 22.0.1, SVG Export Plug-In . SVG Version: 6.00 Build 0)  -->
<svg version="1.1" id="Layer_1" xmlns="http://www.w3.org/2000/svg" xmlns:xlink="http://www.w3.org/1999/xlink" x="0px" y="0px"
	 viewBox="0 0 53.8 77.5" style="enable-background:new 0 0 53.8 77.5;" xml:space="preserve">
<style type="text/css">
	.st0{fill:url(#SVGID_1_);}
	.st1{fill:url(#SVGID_2_);}
	.st2{fill:url(#SVGID_3_);}
	.st3{fill:url(#SVGID_4_);}
	.st4{fill:url(#SVGID_5_);}
	.st5{fill:url(#SVGID_6_);}
	.st6{fill:url(#SVGID_7_);}
	.st7{fill:url(#SVGID_8_);}
	.st8{fill:url(#SVGID_9_);}
	.st9{fill:url(#SVGID_10_);}
</style>
<g>
	<g>
		<linearGradient id="SVGID_1_" gradientUnits="userSpaceOnUse" x1="-3.4332" y1="52.233" x2="19.0586" y2="65.2187">
			<stop  offset="0" style="stop-color:#80E4A3"/>
			<stop  offset="0.4872" style="stop-color:#7DD1E9"/>
			<stop  offset="1" style="stop-color:#4275B4"/>
		</linearGradient>
		<path class="st0" d="M5.5,60c-0.7-0.4-1.2-1.2-1.2-2c0-1.3,1-2.3,2.3-2.3C8,55.6,9,56.7,9,58c0,0.9-0.5,1.6-1.2,2v6.6l7.8,4.5v-5
			c-0.7-0.4-1.2-1.2-1.2-2c0-0.9,0.5-1.6,1.2-2v-6.7L0,46.3v15.9l5.5,3.1V60z"/>
		<linearGradient id="SVGID_2_" gradientUnits="userSpaceOnUse" x1="26.6925" y1="65.1473" x2="39.0491" y2="72.2814">
			<stop  offset="0" style="stop-color:#7DD1E9"/>
			<stop  offset="1" style="stop-color:#0102A0"/>
		</linearGradient>
		<path class="st1" d="M28.2,67.6c0.7,0.4,1.2,1.2,1.2,2c0,0.1,0,0.3,0,0.4l5.2,3.1l6-3.5l-12.4-7.1V67.6z"/>
		<linearGradient id="SVGID_3_" gradientUnits="userSpaceOnUse" x1="14.6135" y1="62.573" x2="32.9887" y2="73.1819">
			<stop  offset="0" style="stop-color:#7DD1E9"/>
			<stop  offset="1" style="stop-color:#0102A0"/>
		</linearGradient>
		<path class="st2" d="M27.8,71.9C27.6,72,27.3,72,27,72c-1.3,0-2.3-1-2.3-2.3c0-0.9,0.5-1.6,1.2-2v-6.4L18,56.7V62
			c0.7,0.4,1.2,1.2,1.2,2c0,0.9-0.5,1.6-1.2,2v6.4l9,5.1l5.2-3L27.8,71.9z"/>
	</g>
	<g>
		<linearGradient id="SVGID_4_" gradientUnits="userSpaceOnUse" x1="24.8463" y1="37.6538" x2="49.5566" y2="51.9203">
			<stop  offset="0" style="stop-color:#63A0E8"/>
			<stop  offset="0.2319" style="stop-color:#4875D4"/>
			<stop  offset="0.5946" style="stop-color:#2237B8"/>
			<stop  offset="0.8609" style="stop-color:#0A11A7"/>
			<stop  offset="1" style="stop-color:#0102A0"/>
		</linearGradient>
		<path class="st3" d="M36,43v-6.6l-7.8-4.5v5.3c0.7,0.4,1.2,1.2,1.2,2c0,0.9-0.5,1.6-1.2,2v6.1l18,10.4v-6l-7.9-4.7
			c-0.3,0.2-0.7,0.3-1.1,0.3c-1.3,0-2.3-1-2.3-2.3C34.9,44.2,35.3,43.4,36,43z"/>
		<linearGradient id="SVGID_5_" gradientUnits="userSpaceOnUse" x1="4.494" y1="25.9078" x2="29.2017" y2="40.1728">
			<stop  offset="0" style="stop-color:#80E4A3"/>
			<stop  offset="0.383" style="stop-color:#7DD1E9"/>
			<stop  offset="0.5347" style="stop-color:#6DB7E3"/>
			<stop  offset="0.8579" style="stop-color:#4373D4"/>
			<stop  offset="1" style="stop-color:#2F54CD"/>
		</linearGradient>
		<path class="st4" d="M24.7,39.1c0-0.9,0.5-1.6,1.2-2v-6.6l-18-10.4v5.3c0.7,0.4,1.2,1.2,1.2,2c0,0,0,0.1,0,0.1
			c0.1,0,0.1,0,0.1,0.1l8.2,4.8c0.1,0,0.1,0.1,0.2,0.1c0.3,0.2,0.5,0.6,0.5,1v7.9l7.8,4.5v-4.8C25.2,40.8,24.7,40,24.7,39.1z"/>
		<linearGradient id="SVGID_6_" gradientUnits="userSpaceOnUse" x1="35.0264" y1="43.523" x2="57.0989" y2="56.2665">
			<stop  offset="0" style="stop-color:#63A0E8"/>
			<stop  offset="0.2319" style="stop-color:#4875D4"/>
			<stop  offset="0.5946" style="stop-color:#2237B8"/>
			<stop  offset="0.8609" style="stop-color:#0A11A7"/>
			<stop  offset="1" style="stop-color:#0102A0"/>
		</linearGradient>
		<path class="st5" d="M38.4,43c0.7,0.4,1.2,1.2,1.2,2c0,0,0,0,0,0.1l8.4,5c0.4,0.2,0.6,0.7,0.6,1.1v7.9l5.2,3V46.6l-15.4-8.9V43z"
			/>
		<linearGradient id="SVGID_7_" gradientUnits="userSpaceOnUse" x1="-3.3455" y1="21.39" x2="19.0242" y2="34.3051">
			<stop  offset="0" style="stop-color:#80E4A3"/>
			<stop  offset="0.4872" style="stop-color:#7DD1E9"/>
			<stop  offset="1" style="stop-color:#4275B4"/>
		</linearGradient>
		<path class="st6" d="M15.7,34.2L8,29.6c-0.1,0-0.1-0.1-0.2-0.1c-0.3,0.2-0.7,0.3-1.1,0.3c-1.3,0-2.3-1-2.3-2.3
			c0-0.9,0.5-1.6,1.2-2v-6.7L0,15.6v15.5l15.7,9V34.2z"/>
	</g>
	<g>
		<linearGradient id="SVGID_8_" gradientUnits="userSpaceOnUse" x1="20.4482" y1="4.099" x2="39.4502" y2="15.0699">
			<stop  offset="0" style="stop-color:#80E4A3"/>
			<stop  offset="0.4633" style="stop-color:#7DD1E9"/>
			<stop  offset="0.5589" style="stop-color:#7ACDE8"/>
			<stop  offset="0.6551" style="stop-color:#73C1E5"/>
			<stop  offset="0.7517" style="stop-color:#66ADE1"/>
			<stop  offset="0.8485" style="stop-color:#5590DB"/>
			<stop  offset="0.9446" style="stop-color:#3E6CD2"/>
			<stop  offset="1" style="stop-color:#2F54CD"/>
		</linearGradient>
		<path class="st7" d="M25.8,6.6c0.4-0.2,0.8-0.3,1.2-0.3c1.3,0,2.3,1,2.3,2.3c0,0.9-0.5,1.6-1.2,2v5.8L36,21v-4.4
			c-0.7-0.4-1.2-1.2-1.2-2c0-0.9,0.5-1.6,1.2-2V5.2L27,0l-6.3,3.6L25.8,6.6z"/>
		<linearGradient id="SVGID_9_" gradientUnits="userSpaceOnUse" x1="34.9574" y1="12.4754" x2="57.153" y2="25.2901">
			<stop  offset="0" style="stop-color:#63A0E8"/>
			<stop  offset="0.2319" style="stop-color:#4875D4"/>
			<stop  offset="0.5946" style="stop-color:#2237B8"/>
			<stop  offset="0.8609" style="stop-color:#0A11A7"/>
			<stop  offset="1" style="stop-color:#0102A0"/>
		</linearGradient>
		<path class="st8" d="M48.6,22.6c-0.3,0.2-0.8,0.3-1.2,0.3c-1.3,0-2.3-1-2.3-2.3c0-1.3,1-2.3,2.3-2.3c1.3,0,2.3,1,2.3,2.3l4,2.3
			v-7.4L38.4,6.6v5.9c0.7,0.4,1.2,1.2,1.2,2c0,0.9-0.5,1.6-1.2,2v5.8l15.4,8.9v-5.7L48.6,22.6z"/>
		<linearGradient id="SVGID_10_" gradientUnits="userSpaceOnUse" x1="14.6103" y1="5.701" x2="27.1187" y2="12.9227">
			<stop  offset="0" style="stop-color:#80E4A3"/>
			<stop  offset="0.4872" style="stop-color:#7DD1E9"/>
			<stop  offset="1" style="stop-color:#4275B4"/>
		</linearGradient>
		<path class="st9" d="M25.9,10.7c-0.7-0.4-1.1-1.1-1.2-2L18.4,5l-5,2.9l12.5,7.2V10.7z"/>
	</g>
</g>
</svg>
