<svg width="20" height="25" viewBox="0 0 20 25" fill="none" xmlns="http://www.w3.org/2000/svg">
<path fill-rule="evenodd" clip-rule="evenodd" d="M3.92354 0H13.7902L20 6.29741V22.3392C20 23.8068 18.8267 25 17.3862 25H3.92354C2.48212 25 1.30895 23.8069 1.30895 22.3392V21.1469H1.05358C0.471763 21.1469 0 20.6672 0 20.0747V13.5722C0 12.9797 0.471813 12.5 1.05358 12.5H1.30895V2.6608C1.30895 1.19473 2.48212 0 3.92354 0ZM4.11823 14.6526C3.50676 14.6526 3.07275 14.6926 2.76398 14.7457V19.1954H3.75652V17.5831C3.84885 17.5961 3.9669 17.6027 4.09861 17.6027C4.69042 17.6027 5.19632 17.4556 5.53841 17.1279C5.80142 16.8738 5.94597 16.4986 5.94597 16.0574C5.94597 15.616 5.75521 15.2409 5.47253 15.0137C5.1766 14.7726 4.73617 14.6526 4.11823 14.6526ZM17.3862 23.3705H3.92354C3.36542 23.3705 2.91093 22.908 2.91093 22.3392V21.1469H15.4609C16.0427 21.1469 16.5145 20.6672 16.5145 20.0747V13.5722C16.5145 12.9797 16.0427 12.5 15.4609 12.5H2.91093V2.6608C2.91093 2.09364 3.36547 1.63112 3.92354 1.63112L13.1912 1.62126V5.10745C13.1912 6.12572 14.003 6.95271 15.0044 6.95271L18.3602 6.94291L18.3979 22.3391C18.3979 22.908 17.9442 23.3705 17.3862 23.3705ZM6.58598 14.7457V19.175C6.83569 19.2085 7.20382 19.242 7.72342 19.242C8.59108 19.242 9.3013 19.0548 9.76786 18.6601C10.1955 18.2924 10.5043 17.6966 10.5043 16.8336C10.5043 16.0369 10.2152 15.482 9.75508 15.1339C9.32749 14.8062 8.78179 14.6526 7.94027 14.6526C7.43392 14.6526 6.9541 14.6861 6.58598 14.7457ZM13.7614 16.5526V17.382H12.1701V19.1954H11.1644V14.6861H13.8729V15.522H12.1701V16.5526H13.7614ZM4.95343 16.0843C4.95343 15.6691 4.67034 15.4215 4.17086 15.4215C3.9669 15.4215 3.82877 15.442 3.75652 15.4616V16.7937C3.84207 16.8133 3.94723 16.8198 4.09219 16.8198C4.62459 16.8198 4.95343 16.5461 4.95343 16.0843ZM8.04544 15.4354C7.82176 15.4354 7.67721 15.4551 7.59171 15.4755V18.4257C7.67726 18.4461 7.81539 18.4461 7.94027 18.4461C8.84768 18.4526 9.43948 17.9443 9.43948 16.8672C9.4459 15.9306 8.90663 15.4354 8.04544 15.4354Z" fill="white"/>
</svg>
