<svg width="38" height="38" viewBox="0 0 38 38" fill="none" xmlns="http://www.w3.org/2000/svg">
<path fill-rule="evenodd" clip-rule="evenodd" d="M35.1181 0H14.911C13.2444 0.0850549 11.9588 1.49937 12.0325 3.1667V29.1334L12.0327 29.1364L12.0331 29.139L12.0336 29.1418L12.0353 29.1475C12.0362 29.1505 12.0371 29.1536 12.0376 29.1568L12.0379 29.1602C12.04 29.2317 12.0543 29.3024 12.0802 29.3692L12.0841 29.3825L12.0851 29.3861L13.5839 32.8304C13.7672 33.2704 14.194 33.5596 14.6706 33.5668H15.199V36.1001C15.2012 36.3163 15.2407 36.5306 15.3158 36.7334H7.59951V25.3334C7.5984 24.2845 6.74844 23.4345 5.69967 23.4334V12.6227C8.35351 12.2883 10.2902 9.9483 10.1227 7.2785C9.95517 4.6087 7.74119 2.52908 5.06634 2.52908C2.3915 2.52908 0.177587 4.6087 0.0100893 7.2785C-0.157409 9.9483 1.77924 12.2883 4.43309 12.6227V23.4334C3.38431 23.4345 2.53436 24.2845 2.53324 25.3334V36.7334H0.633401C0.283637 36.7334 0.0001448 37.0169 0.0001448 37.3667C0.0001448 37.7165 0.283637 38 0.633401 38H37.3637C37.7134 38 37.9969 37.7164 37.9969 37.3667C37.9969 37.017 37.7134 36.7334 37.3637 36.7334H34.7138C34.7889 36.5305 34.8284 36.3163 34.8305 36.1001V33.5668H35.3587C35.835 33.5595 36.2616 33.2706 36.4453 32.8311L37.9444 29.3861L37.9454 29.3827C37.9464 29.3804 37.947 29.378 37.9476 29.3756L37.9476 29.3755C37.9481 29.3732 37.9487 29.3709 37.9496 29.3686C37.9755 29.3017 37.9899 29.2308 37.9918 29.159C37.992 29.1547 37.9932 29.1508 37.9944 29.1468L37.9944 29.1468C37.9957 29.1424 37.997 29.1381 37.997 29.1334V3.1667C38.0706 1.4993 36.7849 0.0849806 35.1181 0ZM1.26673 7.60001C1.26673 5.50133 2.96791 3.80001 5.06642 3.80001C7.16492 3.80001 8.8661 5.50133 8.8661 7.60001C8.8661 9.6987 7.16492 11.4 5.06642 11.4C2.9688 11.3977 1.26903 9.69774 1.26673 7.60001ZM3.79983 36.7335H6.33293V25.3334C6.33248 24.9839 6.04921 24.7006 5.69967 24.7001H4.43309C4.08354 24.7006 3.80027 24.9839 3.79983 25.3334V36.7335ZM18.9986 36.1001C18.9981 36.4496 18.7149 36.7329 18.3653 36.7334H17.0987C16.7492 36.7329 16.4659 36.4496 16.4655 36.1001V33.5668H18.9986V36.1001ZM20.2651 36.1001C20.263 36.3163 20.2235 36.5306 20.1484 36.7335H29.881C29.8059 36.5307 29.7664 36.3164 29.7643 36.1001V33.5668H20.2651V36.1001ZM33.564 36.1001C33.5637 36.4497 33.2804 36.7331 32.9308 36.7334H31.6642C31.3146 36.733 31.0312 36.4497 31.031 36.1001V33.5668H33.564V36.1001ZM14.7345 32.3001H35.2951L36.3978 29.7668H13.6321L14.7345 32.3001ZM22.165 28.5001V27.2334C22.1654 26.8838 22.4487 26.6005 22.7983 26.6001H27.2312C27.5807 26.6005 27.864 26.8838 27.8644 27.2334V28.5001H22.165ZM36.7304 28.5001V3.1667C36.8019 2.19933 36.0842 1.35353 35.1181 1.26669H14.911C13.9451 1.35353 13.2274 2.1994 13.299 3.1667V28.5001H20.8984V27.2334C20.8995 26.1845 21.7495 25.3345 22.7983 25.3334H27.2312C28.28 25.3345 29.1299 26.1845 29.131 27.2334V28.5001H36.7304ZM16.4655 2.53339H33.564C34.6128 2.5345 35.4627 3.38453 35.4639 4.43339V5.0667C35.4628 6.11556 34.6128 6.96559 33.564 6.9667H16.4655C15.4167 6.96559 14.5667 6.11556 14.5656 5.0667V4.43339C14.5667 3.38453 15.4167 2.5345 16.4655 2.53339ZM33.564 5.70001C33.9136 5.69971 34.1969 5.41635 34.1973 5.0667V4.43339C34.197 4.08375 33.9137 3.80045 33.564 3.80008H16.4655C16.1159 3.80053 15.8327 4.08382 15.8322 4.43339V5.0667C15.8327 5.41627 16.1159 5.69957 16.4655 5.70001H33.564ZM17.0987 22.1667C15.6997 22.1667 14.5656 23.3009 14.5656 24.7C14.5673 26.0985 15.7004 27.2318 17.0987 27.2334C18.4977 27.2334 19.6318 26.0991 19.6318 24.7C19.6318 23.3009 18.4977 22.1667 17.0987 22.1667ZM17.0987 25.9667C16.3992 25.9667 15.8321 25.3996 15.8321 24.7C15.8328 24.0008 16.3995 23.4341 17.0987 23.4334C17.7983 23.4334 18.3653 24.0005 18.3653 24.7C18.3653 25.3996 17.7983 25.9667 17.0987 25.9667ZM30.3976 24.7C30.3976 23.3009 31.5317 22.1667 32.9307 22.1667C34.3291 22.1682 35.4624 23.3015 35.4638 24.7C35.4638 26.0991 34.3297 27.2334 32.9307 27.2334C31.5317 27.2334 30.3976 26.0991 30.3976 24.7ZM31.6641 24.7C31.6641 25.3996 32.2312 25.9667 32.9307 25.9667C33.63 25.9659 34.1965 25.3993 34.1973 24.7C34.1973 24.0005 33.6302 23.4334 32.9307 23.4334C32.2312 23.4334 31.6641 24.0005 31.6641 24.7ZM33.564 8.2334H16.4655C15.4167 8.23451 14.5667 9.08454 14.5656 10.1334V19.0001C14.5667 20.049 15.4167 20.899 16.4655 20.9001H33.564C34.6128 20.899 35.4628 20.049 35.4639 19.0001V10.1334C35.4627 9.08454 34.6128 8.23451 33.564 8.2334ZM34.1973 19C34.1969 19.3497 33.9136 19.633 33.564 19.6333H16.4655C16.1159 19.6329 15.8327 19.3496 15.8322 19V10.1334C15.8327 9.78383 16.1159 9.50054 16.4655 9.50009H33.564C33.9137 9.50046 34.197 9.78376 34.1973 10.1334V19Z" fill="white"/>
</svg>
