<svg width="120" height="72" viewBox="0 0 120 72" fill="none" xmlns="http://www.w3.org/2000/svg">
<path fill-rule="evenodd" clip-rule="evenodd" d="M7.73572 47.1744C9.71856 47.1744 11.2369 47.6342 12.2907 48.5538C13.3445 49.4734 13.8714 50.8739 13.8714 52.7553C13.8714 54.6367 13.3445 56.0406 12.2907 56.9673C11.2369 57.8939 9.71856 58.3572 7.73572 58.3572H5.34385V61.9164H1.55844V47.1744H7.73572ZM7.42374 55.114C9.19859 55.114 10.086 54.3278 10.086 52.7553C10.086 51.1968 9.19859 50.4176 7.42374 50.4176H5.34385V55.114H7.42374ZM26.9664 59.4102H22.0371L21.2259 61.9164H17.2325L22.8274 47.1744H26.28L31.875 61.9164H27.7984L26.9664 59.4102ZM26.0721 56.6303L24.4913 51.8708L22.9522 56.6303H26.0721ZM49.5873 61.9164H45.3651L43.618 58.3362C43.4655 58.0133 43.261 57.7465 43.0045 57.5359C42.7479 57.3253 42.384 57.22 41.9125 57.22H40.8518V61.9164H37.0664V47.1744H42.9317C44.8036 47.1744 46.2664 47.5921 47.3202 48.4274C48.3741 49.2628 48.901 50.5159 48.901 52.1867C48.901 53.2116 48.6722 54.0715 48.2146 54.7665C47.757 55.4615 47.1538 56.0126 46.4051 56.4197C46.6408 56.5601 46.8384 56.7426 46.9979 56.9673C47.1573 57.1919 47.3064 57.4236 47.445 57.6623L49.5873 61.9164ZM42.7861 54.1452C43.5071 54.1452 44.0756 53.9873 44.4916 53.6714C44.9076 53.3555 45.1155 52.8676 45.1155 52.2077C45.1155 50.9862 44.3391 50.3755 42.7861 50.3755H40.8518V54.1452H42.7861ZM63.4519 59.4102H58.5225L57.7114 61.9164H53.718L59.3129 47.1744H62.7655L68.3604 61.9164H64.2838L63.4519 59.4102ZM62.5575 56.6303L60.9768 51.8708L59.4377 56.6303H62.5575ZM78.0028 62.3376C76.949 62.3376 75.9992 62.2639 75.1534 62.1165C74.3075 61.969 73.5865 61.7479 72.9903 61.4531V57.9571C73.6974 58.3643 74.4601 58.6661 75.2781 58.8627C76.0962 59.0592 77.0045 59.1575 78.0028 59.1575C78.9734 59.1575 79.6737 59.0452 80.1035 58.8206C80.5333 58.5959 80.7483 58.2519 80.7483 57.7886C80.7483 57.578 80.6997 57.392 80.6027 57.2305C80.5056 57.0691 80.3323 56.9181 80.0827 56.7777C79.8331 56.6373 79.4865 56.504 79.0428 56.3776C78.599 56.2512 78.0305 56.1108 77.3372 55.9564C76.5746 55.7739 75.916 55.5528 75.3613 55.293C74.8067 55.0333 74.3526 54.7209 73.999 54.3558C73.6454 53.9908 73.3854 53.5661 73.2191 53.0817C73.0527 52.5973 72.9695 52.0463 72.9695 51.4285C72.9695 50.6703 73.1081 50.0034 73.3854 49.4278C73.6628 48.8522 74.0545 48.3643 74.5606 47.9641C75.0667 47.564 75.6872 47.2621 76.4221 47.0585C77.157 46.855 77.982 46.7532 78.8972 46.7532C79.8816 46.7532 80.7483 46.8128 81.497 46.9322C82.2458 47.0515 82.9391 47.2446 83.5769 47.5113V50.7125C82.8282 50.4597 82.0863 50.2667 81.3514 50.1333C80.6165 49.9999 79.8886 49.9332 79.1675 49.9332C78.2524 49.9332 77.573 50.0175 77.1292 50.186C76.6855 50.3544 76.4637 50.6633 76.4637 51.1126C76.4637 51.2951 76.5018 51.4531 76.5781 51.5864C76.6543 51.7198 76.793 51.8462 76.9941 51.9655C77.1951 52.0849 77.4794 52.2007 77.8468 52.313C78.2143 52.4253 78.6892 52.5447 79.2715 52.671C80.1867 52.8816 80.9701 53.1238 81.6218 53.3976C82.2735 53.6714 82.8074 53.9943 83.2233 54.3664C83.6393 54.7384 83.9444 55.1772 84.1385 55.6826C84.3326 56.1881 84.4297 56.7777 84.4297 57.4517C84.4297 59.0522 83.8854 60.2667 82.797 61.095C81.7085 61.9234 80.1104 62.3376 78.0028 62.3376ZM98.2526 59.4102H93.3233L92.5121 61.9164H88.5187L94.1137 47.1744H97.5663L103.161 61.9164H99.0846L98.2526 59.4102ZM97.3583 56.6303L95.7776 51.8708L94.2384 56.6303H97.3583ZM120 50.4808H115.424V61.9164H111.639V50.4808H107.084V47.1744H120V50.4808Z" fill="white"/>
<path fill-rule="evenodd" clip-rule="evenodd" d="M57.6623 10.1299C57.6623 4.28571 60.7792 0 60.7792 0C60.7792 0 63.8961 4.28571 63.8961 10.1299C63.8961 15.974 60.7792 20.2597 60.7792 20.2597C60.7792 20.2597 57.6623 15.974 57.6623 10.1299ZM29.6104 28.6398L36.2594 35.2889C41.1556 40.1851 49.094 40.1851 53.9902 35.2889C58.8864 30.3927 58.8864 22.4543 53.9902 17.5581L47.3411 10.9091C43.669 14.5813 43.669 20.535 47.3411 24.2072L52.882 29.748C54.1061 30.9721 54.1061 32.9567 52.882 34.1807C51.658 35.4048 49.6734 35.4048 48.4493 34.1807L42.9085 28.6398C39.2363 24.9677 33.2825 24.9677 29.6104 28.6398ZM91.9481 28.6398L85.299 35.2889C80.4028 40.1851 72.4645 40.1851 67.5683 35.2889C62.6721 30.3927 62.6721 22.4543 67.5683 17.5581L74.2173 10.9091C77.8895 14.5813 77.8895 20.535 74.2173 24.2072L68.6764 29.748C67.4524 30.9721 67.4524 32.9567 68.6764 34.1807C69.9005 35.4048 71.8851 35.4048 73.1091 34.1807L78.65 28.6398C82.3221 24.9677 88.2759 24.9677 91.9481 28.6398ZM63.1169 36.6234C63.1169 37.9144 62.0703 38.961 60.7792 38.961C59.4882 38.961 58.4416 37.9144 58.4416 36.6234C58.4416 34.5531 60.7792 31.1688 60.7792 31.1688C60.7792 31.1688 63.1169 34.5531 63.1169 36.6234Z" fill="url(#paint0_linear)"/>
<path fill-rule="evenodd" clip-rule="evenodd" d="M3.12584 69.0509C2.46777 69.0357 1.94811 69.2373 1.56684 69.6554C1.18557 70.0736 0.942715 70.7059 0.838259 71.5523H0C0.172353 70.061 0.749466 69.1038 1.73136 68.6806L0.0078342 66.2018H0.846093L2.43643 68.4614C2.66102 68.4211 2.89082 68.4009 3.12584 68.4009V66.2018H3.88576V68.4009C4.01111 68.4009 4.13123 68.406 4.24613 68.4161C4.36104 68.4261 4.47332 68.4412 4.583 68.4614L6.17335 66.2018H7.00377L5.27241 68.6806C6.25953 69.1088 6.83925 70.066 7.0116 71.5523H6.18118C5.96704 69.8544 5.20191 69.0206 3.88576 69.0509V71.5523H3.12584V69.0509ZM11.9315 70.5018L14.9241 66.2018H15.8329V71.5523H15.073V67.2296H15.0573L12.0647 71.5523H11.1559V66.2018H11.9158V70.5018H11.9315ZM20.4629 71.5523H19.6403L21.9749 66.2018H22.7348L25.0694 71.5523H24.2312L22.3431 67.1616L20.4629 71.5523ZM34.3138 68.8695C34.3138 69.2826 34.2407 69.6617 34.0944 70.0068C33.9482 70.3519 33.7445 70.6492 33.4833 70.8986C33.2222 71.1479 32.9128 71.3419 32.555 71.4805C32.1972 71.619 31.8094 71.6883 31.3916 71.6883C30.9738 71.6883 30.586 71.619 30.2282 71.4805C29.8705 71.3419 29.561 71.1479 29.2999 70.8986C29.0387 70.6492 28.8351 70.3519 28.6888 70.0068C28.5426 69.6617 28.4695 69.2826 28.4695 68.8695C28.4695 68.4564 28.5426 68.0785 28.6888 67.7359C28.8351 67.3933 29.0387 67.0986 29.2999 66.8517C29.561 66.6049 29.8705 66.4122 30.2282 66.2736C30.586 66.1351 30.9738 66.0658 31.3916 66.0658C31.8094 66.0658 32.1972 66.1351 32.555 66.2736C32.9128 66.4122 33.2222 66.6049 33.4833 66.8517C33.7445 67.0986 33.9482 67.3933 34.0944 67.7359C34.2407 68.0785 34.3138 68.4564 34.3138 68.8695ZM33.5069 68.8695C33.5069 68.5773 33.4572 68.3014 33.358 68.042C33.2588 67.7825 33.1178 67.5545 32.935 67.3581C32.7522 67.1616 32.5302 67.0054 32.2691 66.8895C32.0079 66.7736 31.7154 66.7157 31.3916 66.7157C31.0678 66.7157 30.7753 66.7736 30.5142 66.8895C30.253 67.0054 30.0311 67.1616 29.8483 67.3581C29.6655 67.5545 29.5245 67.7825 29.4252 68.042C29.326 68.3014 29.2764 68.5773 29.2764 68.8695C29.2764 69.1667 29.326 69.4463 29.4252 69.7083C29.5245 69.9703 29.6655 70.1995 29.8483 70.396C30.0311 70.5925 30.253 70.7474 30.5142 70.8608C30.7753 70.9741 31.0678 71.0308 31.3916 71.0308C31.7154 71.0308 32.0079 70.9741 32.2691 70.8608C32.5302 70.7474 32.7522 70.5925 32.935 70.396C33.1178 70.1995 33.2588 69.9703 33.358 69.7083C33.4572 69.4463 33.5069 69.1667 33.5069 68.8695ZM39.8761 64.6753C39.9492 64.8516 40.0706 64.9977 40.2403 65.1136C40.4101 65.2295 40.6072 65.2874 40.8318 65.2874C41.0669 65.2874 41.2666 65.2295 41.4311 65.1136C41.5957 64.9977 41.7145 64.8516 41.7876 64.6753L42.2576 64.902C42.2159 65.0179 42.1519 65.1287 42.0657 65.2345C41.9795 65.3403 41.8764 65.4323 41.7563 65.5104C41.6361 65.5884 41.4977 65.6502 41.341 65.6955C41.1844 65.7408 41.0146 65.7635 40.8318 65.7635C40.649 65.7635 40.4806 65.7408 40.3265 65.6955C40.1724 65.6502 40.034 65.5884 39.9113 65.5104C39.7886 65.4323 39.6854 65.3403 39.6019 65.2345C39.5183 65.1287 39.453 65.0179 39.406 64.902L39.8761 64.6753ZM42.242 66.2018H43.1742V71.5523H42.4143V67.2296H42.3987L39.4217 71.5523H38.4972V66.2018H39.2572C39.2572 66.9223 39.2558 67.6364 39.2532 68.3443C39.2506 69.0521 39.2493 69.7663 39.2493 70.4867H39.2728L42.242 66.2018ZM52.6771 71.5523V66.2018H53.437V68.3934C53.5624 68.3934 53.6838 68.3972 53.8013 68.4047C53.9188 68.4123 54.0351 68.4211 54.15 68.4312L56.1555 66.2018H56.9859L54.9255 68.605C55.5366 68.8065 56.0145 69.1491 56.3592 69.6327C56.7039 70.1164 56.9442 70.7562 57.0799 71.5523H56.2417C56.1633 71.1089 56.0524 70.726 55.9087 70.4036C55.7651 70.0811 55.581 69.8179 55.3564 69.6139C55.1318 69.4098 54.8616 69.2612 54.5456 69.168C54.2296 69.0748 53.8601 69.0332 53.437 69.0433V71.5523H52.6771ZM66.7708 68.8695C66.7708 69.2826 66.6977 69.6617 66.5515 70.0068C66.4052 70.3519 66.2016 70.6492 65.9404 70.8986C65.6793 71.1479 65.3698 71.3419 65.0121 71.4805C64.6543 71.619 64.2665 71.6883 63.8487 71.6883C63.4309 71.6883 63.0431 71.619 62.6853 71.4805C62.3275 71.3419 62.0181 71.1479 61.757 70.8986C61.4958 70.6492 61.2921 70.3519 61.1459 70.0068C60.9997 69.6617 60.9265 69.2826 60.9265 68.8695C60.9265 68.4564 60.9997 68.0785 61.1459 67.7359C61.2921 67.3933 61.4958 67.0986 61.757 66.8517C62.0181 66.6049 62.3275 66.4122 62.6853 66.2736C63.0431 66.1351 63.4309 66.0658 63.8487 66.0658C64.2665 66.0658 64.6543 66.1351 65.0121 66.2736C65.3698 66.4122 65.6793 66.6049 65.9404 66.8517C66.2016 67.0986 66.4052 67.3933 66.5515 67.7359C66.6977 68.0785 66.7708 68.4564 66.7708 68.8695ZM65.9639 68.8695C65.9639 68.5773 65.9143 68.3014 65.8151 68.042C65.7158 67.7825 65.5748 67.5545 65.392 67.3581C65.2092 67.1616 64.9873 67.0054 64.7261 66.8895C64.465 66.7736 64.1725 66.7157 63.8487 66.7157C63.5249 66.7157 63.2324 66.7736 62.9713 66.8895C62.7101 67.0054 62.4882 67.1616 62.3054 67.3581C62.1226 67.5545 61.9815 67.7825 61.8823 68.042C61.7831 68.3014 61.7335 68.5773 61.7335 68.8695C61.7335 69.1667 61.7831 69.4463 61.8823 69.7083C61.9815 69.9703 62.1226 70.1995 62.3054 70.396C62.4882 70.5925 62.7101 70.7474 62.9713 70.8608C63.2324 70.9741 63.5249 71.0308 63.8487 71.0308C64.1725 71.0308 64.465 70.9741 64.7261 70.8608C64.9873 70.7474 65.2092 70.5925 65.392 70.396C65.5748 70.1995 65.7158 69.9703 65.8151 69.7083C65.9143 69.4463 65.9639 69.1667 65.9639 68.8695ZM73.7981 70.3733H73.8138L75.506 66.2018H76.6419V71.5523H75.8898L75.8977 67.1238H75.8742L74.0175 71.5523H73.5553L71.7064 67.1238H71.6829L71.6907 71.5523H70.9543V66.2018H72.0824L73.7981 70.3733ZM85.2909 66.2018V71.5523H84.531V66.8517H81.8752V71.5523H81.1153V66.2018H85.2909ZM89.9131 71.5523H89.0905L91.425 66.2018H92.185L94.5196 71.5523H93.6813L91.7933 67.1616L89.9131 71.5523ZM98.9537 70.9099H101.829V71.5523H98.2095V66.2018H101.719V66.8442H98.9537V68.469H101.547V69.0886H98.9537V70.9099ZM105.957 71.5523V66.2018H106.717V68.3934C106.843 68.3934 106.964 68.3972 107.082 68.4047C107.199 68.4123 107.315 68.4211 107.43 68.4312L109.436 66.2018H110.266L108.206 68.605C108.817 68.8065 109.295 69.1491 109.64 69.6327C109.984 70.1164 110.225 70.7562 110.36 71.5523H109.522C109.444 71.1089 109.333 70.726 109.189 70.4036C109.045 70.0811 108.861 69.8179 108.637 69.6139C108.412 69.4098 108.142 69.2612 107.826 69.168C107.51 69.0748 107.14 69.0332 106.717 69.0433V71.5523H105.957ZM119.221 70.721C119.122 70.857 119.001 70.983 118.86 71.0988C118.719 71.2147 118.561 71.3167 118.386 71.4049C118.211 71.4931 118.018 71.5623 117.807 71.6127C117.595 71.6631 117.367 71.6883 117.121 71.6883C116.698 71.6883 116.309 71.619 115.954 71.4805C115.599 71.3419 115.292 71.1479 115.033 70.8986C114.775 70.6492 114.572 70.3519 114.426 70.0068C114.28 69.6617 114.207 69.2851 114.207 68.877C114.207 68.4639 114.281 68.0861 114.43 67.7435C114.579 67.4009 114.784 67.1049 115.045 66.8555C115.306 66.6061 115.614 66.4122 115.97 66.2736C116.325 66.1351 116.711 66.0658 117.129 66.0658C117.328 66.0658 117.525 66.0847 117.721 66.1225C117.916 66.1603 118.102 66.2144 118.277 66.285C118.452 66.3555 118.612 66.4424 118.759 66.5457C118.905 66.649 119.028 66.7661 119.127 66.8971L118.547 67.3656C118.427 67.1943 118.243 67.0432 117.995 66.9122C117.747 66.7812 117.463 66.7157 117.145 66.7157C116.816 66.7157 116.521 66.7736 116.259 66.8895C115.998 67.0054 115.776 67.1616 115.594 67.3581C115.411 67.5545 115.27 67.7838 115.171 68.0458C115.071 68.3077 115.022 68.5848 115.022 68.877C115.022 69.1743 115.071 69.4526 115.171 69.7121C115.27 69.9716 115.411 70.1995 115.594 70.396C115.776 70.5925 115.998 70.7474 116.259 70.8608C116.521 70.9741 116.813 71.0308 117.137 71.0308C117.445 71.0308 117.731 70.9716 117.995 70.8532C118.258 70.7348 118.477 70.5522 118.649 70.3053L119.221 70.721Z" fill="#7B779F"/>
<defs>
<linearGradient id="paint0_linear" x1="29.7711" y1="39.0584" x2="92.7321" y2="39.0584" gradientUnits="userSpaceOnUse">
<stop stop-color="#3023AE"/>
<stop offset="0.475248" stop-color="#53A0FD"/>
<stop offset="1" stop-color="#B4EC51"/>
</linearGradient>
</defs>
</svg>
