<?xml version="1.0" encoding="UTF-8" standalone="no"?>
<svg
   xmlns:dc="http://purl.org/dc/elements/1.1/"
   xmlns:cc="http://creativecommons.org/ns#"
   xmlns:rdf="http://www.w3.org/1999/02/22-rdf-syntax-ns#"
   xmlns:svg="http://www.w3.org/2000/svg"
   xmlns="http://www.w3.org/2000/svg"
   xmlns:sodipodi="http://sodipodi.sourceforge.net/DTD/sodipodi-0.dtd"
   xmlns:inkscape="http://www.inkscape.org/namespaces/inkscape"
   width="62.338001"
   height="38.960999"
   viewBox="0 0 62.338001 38.960999"
   version="1.1"
   id="svg830"
   sodipodi:docname="logo-icon.svg"
   style="fill:none"
   inkscape:version="0.92.3 (2405546, 2018-03-11)">
  <metadata
     id="metadata834">
    <rdf:RDF>
      <cc:Work
         rdf:about="">
        <dc:format>image/svg+xml</dc:format>
        <dc:type
           rdf:resource="http://purl.org/dc/dcmitype/StillImage" />
        <dc:title></dc:title>
      </cc:Work>
    </rdf:RDF>
  </metadata>
  <sodipodi:namedview
     pagecolor="#ffffff"
     bordercolor="#666666"
     borderopacity="1"
     objecttolerance="10"
     gridtolerance="10"
     guidetolerance="10"
     inkscape:pageopacity="0"
     inkscape:pageshadow="2"
     inkscape:window-width="3840"
     inkscape:window-height="2093"
     id="namedview832"
     showgrid="false"
     inkscape:zoom="13.194444"
     inkscape:cx="73.761102"
     inkscape:cy="17.725345"
     inkscape:window-x="-9"
     inkscape:window-y="-9"
     inkscape:window-maximized="1"
     inkscape:current-layer="svg830" />
  <path
     d="m 28.052051,10.129874 c 0,-5.8441897 3.1169,-10.129899732422 3.1169,-10.129899732422 0,0 3.1169,4.285710032422 3.1169,10.129899732422 0,5.8441 -3.1169,10.1298 -3.1169,10.1298 0,0 -3.1169,-4.2857 -3.1169,-10.1298 z M 1.5062561e-4,28.639774 6.6491506,35.288874 c 4.8962004,4.8962 12.8346004,4.8962 17.7308004,0 4.8962,-4.8962 4.8962,-12.8346 0,-17.7308 l -6.6491,-6.649 c -3.6721,3.6722 -3.6721,9.6259 0,13.2981 l 5.5409,5.5408 c 1.2241,1.2241 1.2241,3.2087 0,4.4327 -1.224,1.2241 -3.2086,1.2241 -4.4327,0 l -5.5408,-5.5409 c -3.6722004,-3.6721 -9.6260004,-3.6721 -13.29810037439,0 z m 62.33770037439,0 -6.6491,6.6491 c -4.8962,4.8962 -12.8345,4.8962 -17.7307,0 -4.8962,-4.8962 -4.8962,-12.8346 0,-17.7308 l 6.649,-6.649 c 3.6722,3.6722 3.6722,9.6259 0,13.2981 l -5.5409,5.5408 c -1.224,1.2241 -1.224,3.2087 0,4.4327 1.2241,1.2241 3.2087,1.2241 4.4327,0 l 5.5409,-5.5409 c 3.6721,-3.6721 9.6259,-3.6721 13.2981,0 z m -28.8312,7.9836 c 0,1.291 -1.0466,2.3376 -2.3377,2.3376 -1.291,0 -2.3376,-1.0466 -2.3376,-2.3376 0,-2.0703 2.3376,-5.4546 2.3376,-5.4546 0,0 2.3377,3.3843 2.3377,5.4546 z"
     id="path817"
     inkscape:connector-curvature="0"
     style="clip-rule:evenodd;fill:url(#paint0_linear);fill-rule:evenodd" />
  <defs
     id="defs828">
    <linearGradient
       id="paint0_linear"
       x1="29.771099"
       y1="39.058399"
       x2="92.732101"
       y2="39.058399"
       gradientUnits="userSpaceOnUse"
       gradientTransform="translate(-29.610249,-2.5732422e-5)">
      <stop
         stop-color="#3023AE"
         id="stop821" />
      <stop
         offset="0.475248"
         stop-color="#53A0FD"
         id="stop823" />
      <stop
         offset="1"
         stop-color="#B4EC51"
         id="stop825" />
    </linearGradient>
  </defs>
</svg>
