<svg width="23" height="23" viewBox="0 0 23 23" fill="none" xmlns="http://www.w3.org/2000/svg">
<path fill-rule="evenodd" clip-rule="evenodd" d="M10 20C4.47715 20 0 15.5228 0 10C0 4.47715 4.47715 0 10 0C15.5228 0 20 4.47715 20 10C20 12.3794 19.169 14.5646 17.7814 16.2814L22.25 20.75C22.6642 21.1642 22.6642 21.8358 22.25 22.25C21.8358 22.6642 21.1642 22.6642 20.75 22.25L16.2814 17.7814C14.5646 19.169 12.3794 20 10 20ZM14.8572 16.3572C13.5105 17.3877 11.8267 18 10 18C5.58172 18 2 14.4183 2 10C2 5.58172 5.58172 2 10 2C14.4183 2 18 5.58172 18 10C18 11.8267 17.3877 13.5105 16.3572 14.8572C15.9468 15.3936 15.47 15.8765 14.9391 16.2937C14.9119 16.3151 14.8846 16.3362 14.8572 16.3572Z" fill="white"/>
</svg>
