<?xml version="1.0" encoding="UTF-8"?>
<svg width="30px" height="30px" viewBox="0 0 30 30" version="1.1" xmlns="http://www.w3.org/2000/svg" xmlns:xlink="http://www.w3.org/1999/xlink">
    <!-- Generator: Sketch 41.2 (35397) - http://www.bohemiancoding.com/sketch -->
    <title>zoom</title>
    <desc>Created with Sketch.</desc>
    <defs></defs>
    <g id="Page-1" stroke="none" stroke-width="1" fill="none" fill-rule="evenodd">
        <g id="gravity" transform="translate(-899.000000, -750.000000)" fill="#FFFFFF">
            <g id="2" transform="translate(0.000000, 600.000000)">
                <g id="analisis" transform="translate(615.000000, 134.000000)">
                    <path d="M313.733925,44.4700665 L306.443459,37.1796009 C308.399113,34.9312639 309.583149,31.9977827 309.583149,28.7915743 C309.583149,21.7339246 303.842572,16 296.791574,16 C289.733925,16 284,21.7405765 284,28.7915743 C284,35.8425721 289.740576,41.5831486 296.791574,41.5831486 C299.997783,41.5831486 302.931264,40.3991131 305.179601,38.443459 L312.470067,45.7339246 C312.643016,45.9068736 312.875831,46 313.101996,46 C313.32816,46 313.560976,45.9135255 313.733925,45.7339246 C314.079823,45.3880266 314.079823,44.8159645 313.733925,44.4700665 Z M285.789357,28.7915743 C285.789357,22.7250554 290.725055,17.7960089 296.784922,17.7960089 C302.851441,17.7960089 307.780488,22.7317073 307.780488,28.7915743 C307.780488,34.8514412 302.851441,39.7937916 296.784922,39.7937916 C290.725055,39.7937916 285.789357,34.8580931 285.789357,28.7915743 Z" id="zoom"></path>
                </g>
            </g>
        </g>
    </g>
</svg>