<?xml version="1.0" encoding="utf-8"?>
<!-- Generator: Adobe Illustrator 19.2.1, SVG Export Plug-In . SVG Version: 6.00 Build 0)  -->
<svg version="1.1" id="Layer_1" xmlns="http://www.w3.org/2000/svg" xmlns:xlink="http://www.w3.org/1999/xlink" x="0px" y="0px"
	 viewBox="0 0 300 300" style="enable-background:new 0 0 300 300;" xml:space="preserve">
<style type="text/css">
	.st0{fill:#4B00C1;}
</style>
<g>
	<g>
		<g>
			<path class="st0" d="M232,62.5H118c-20.3,0-36.8,16.5-36.8,36.8v113.9c0,20.3,16.5,36.8,36.8,36.8H232
				c20.3,0,36.8-16.5,36.8-36.8V99.3C268.8,79,252.2,62.5,232,62.5z M256.3,213.2c0,13.4-10.9,24.3-24.3,24.3H118
				c-13.4,0-24.3-10.9-24.3-24.3V99.3C93.8,85.9,104.6,75,118,75H232c13.4,0,24.3,10.9,24.3,24.3L256.3,213.2L256.3,213.2z"/>
			<path class="st0" d="M207,87.5H143c-20.3,0-36.8,16.5-36.8,36.8v51.4c0,20.3,16.5,36.8,36.8,36.8H207c20.3,0,36.8-16.5,36.8-36.8
				v-51.4C243.8,104,227.2,87.5,207,87.5z M231.3,175.7c0,13.4-10.9,24.3-24.3,24.3H143c-13.4,0-24.3-10.9-24.3-24.3v-51.4
				c0-13.4,10.9-24.3,24.3-24.3H207c13.4,0,24.3,10.9,24.3,24.3V175.7z"/>
			<path class="st0" d="M199.9,123.6c-0.5-2.5-2.6-4.4-5.1-4.8c-2.6-0.4-5,0.8-6.4,3L173,147.4l-13.3-8.9c-1.5-1-3.4-1.3-5.1-0.8
				c-1.8,0.5-3.2,1.7-4,3.3l-18.3,37.5c-0.9,1.9-0.8,4.2,0.3,6.1c1.1,1.8,3.1,2.9,5.3,2.9h68.3c1.9,0,3.7-0.9,4.9-2.3
				c1.2-1.5,1.6-3.4,1.2-5.3L199.9,123.6z M148,175l10.7-22.1l12.8,8.5c1.4,1,3.1,1.3,4.8,0.9c1.7-0.4,3.1-1.4,4-2.9l10.7-17.8
				l7.4,33.4L148,175L148,175z"/>
			<path class="st0" d="M253.3,0H60C46,0,31.2,7.9,31.2,22.5V75H12.5c-3.5,0-6.2,2.8-6.2,6.2s2.8,6.2,6.2,6.2h18.8v25H12.5
				c-3.5,0-6.2,2.8-6.2,6.2S9,125,12.5,125h18.8v25H12.5c-3.5,0-6.2,2.8-6.2,6.2s2.8,6.2,6.2,6.2h18.8v25H12.5
				c-3.5,0-6.2,2.8-6.2,6.2S9,200,12.5,200h18.8v25H12.5c-3.5,0-6.2,2.8-6.2,6.2s2.8,6.2,6.2,6.2h18.8v34.2
				c0,14,14.5,28.3,28.7,28.3h193.4c25.3,0,40.4-23.7,40.4-46.6V40.9C293.8,16.8,277.1,0,253.3,0z M281.2,253.4
				c0,16.8-10.4,34.1-27.9,34.1H60c-7.3,0-16.2-8.7-16.2-15.8v-34.2h18.8c3.5,0,6.2-2.8,6.2-6.2S66,225,62.5,225H43.8v-25h18.8
				c3.5,0,6.2-2.8,6.2-6.2s-2.8-6.2-6.2-6.2H43.8v-25h18.8c3.5,0,6.2-2.8,6.2-6.2S66,150,62.5,150H43.8v-25h18.8
				c3.5,0,6.2-2.8,6.2-6.2s-2.8-6.2-6.2-6.2H43.8v-25h18.8c3.5,0,6.2-2.8,6.2-6.2S66,75,62.5,75H43.8V22.5c0-6.8,9.7-10,16.2-10
				h193.4c17,0,27.9,11.1,27.9,28.4V253.4z"/>
		</g>
	</g>
</g>
</svg>
