<?xml version="1.0" encoding="utf-8"?>
<!-- Generator: Adobe Illustrator 19.2.1, SVG Export Plug-In . SVG Version: 6.00 Build 0)  -->
<svg version="1.1" id="Capa_1" xmlns="http://www.w3.org/2000/svg" xmlns:xlink="http://www.w3.org/1999/xlink" x="0px" y="0px"
	 viewBox="0 0 512 512" style="enable-background:new 0 0 512 512;" xml:space="preserve">
<style type="text/css">
	.st0{fill:#4B00C1;}
</style>
<g>
	<g>
		<path class="st0" d="M345.4,107.2l-48.8-67.7c-1.9-2.6-4.9-4.2-8.1-4.2s-6.2,1.5-8.1,4.2l-48.8,67.7c-1.2,1.7-1.9,3.7-1.9,5.8v1.6
			v324.5c0,20.6,16.8,37.4,37.4,37.4h42.7c20.6,0,37.4-16.8,37.4-37.4V114.6V113C347.3,110.9,346.6,108.9,345.4,107.2z M288.5,62.4
			l30.4,42.2h-60.8L288.5,62.4z M249.8,124.6h47.5v259h-17.4v-191c0-5.5-4.5-10-10-10c-5.5,0-10,4.5-10,10v191h-10L249.8,124.6
			L249.8,124.6z M327.3,439.1c0,9.6-7.8,17.4-17.4,17.4h-42.7c-9.6,0-17.4-7.8-17.4-17.4v-35.5h77.5V439.1z M327.3,383.6h-10v-259
			h10V383.6z"/>
	</g>
</g>
<g>
	<g>
		<path class="st0" d="M279.6,150.5c-0.1-0.6-0.3-1.3-0.6-1.9c-0.2-0.6-0.6-1.2-0.9-1.7c-0.4-0.6-0.8-1.1-1.2-1.5s-1-0.9-1.5-1.2
			c-0.5-0.4-1.1-0.7-1.7-0.9c-0.6-0.2-1.2-0.4-1.9-0.6c-1.3-0.2-2.6-0.2-3.9,0c-0.6,0.1-1.3,0.3-1.9,0.6c-0.6,0.2-1.2,0.6-1.7,0.9
			c-0.5,0.4-1.1,0.8-1.5,1.2s-0.9,1-1.2,1.5c-0.4,0.5-0.7,1.1-0.9,1.7c-0.2,0.6-0.4,1.2-0.6,1.9c-0.1,0.6-0.2,1.3-0.2,2
			c0,2.6,1.1,5.2,2.9,7.1c1.9,1.9,4.4,2.9,7.1,2.9c0.6,0,1.3-0.1,2-0.2c0.6-0.1,1.3-0.3,1.9-0.6c0.6-0.2,1.2-0.6,1.7-0.9
			c0.5-0.4,1.1-0.8,1.5-1.2s0.9-1,1.2-1.5c0.4-0.5,0.7-1.1,0.9-1.7c0.2-0.6,0.4-1.2,0.6-1.9s0.2-1.3,0.2-1.9
			C279.8,151.8,279.8,151.2,279.6,150.5z"/>
	</g>
</g>
<g>
	<g>
		<path class="st0" d="M97.3,222.6l0-1.5c0-7.9,6.4-14.3,14.3-14.3c0.1,0,0.3,0,0.4,0l30.5-1.3c17.8-0.1,32.2-14.6,32.2-32.5
			c0-17.9-14.6-32.5-32.5-32.5H74.2c-6.9,0-12.5-5.6-12.5-12.5c0-3.3,1.3-6.4,3.7-8.8c2.3-2.2,5.3-3.5,8.4-3.5c0.1,0,0.2,0,0.3,0
			l59.5,0c22.2,0,40.3-18.1,40.3-40.3s-18.1-40.3-40.3-40.3H66c-5.5,0-10,4.5-10,10s4.5,10,10,10h67.7c11.2,0,20.3,9.1,20.3,20.3
			s-9.1,20.3-20.3,20.3l-59.5,0c-8.6-0.1-16.7,3.2-22.9,9.2c-6.2,6.1-9.7,14.3-9.7,23c0,17.9,14.6,32.5,32.5,32.5h68.1
			c6.9,0,12.5,5.6,12.5,12.5s-5.6,12.5-12.5,12.5c-0.1,0-0.3,0-0.4,0l-30.5,1.3c-18.8,0.1-34.1,15.5-34.1,34.3l0,1.5
			c-43.4,5-77.3,42-77.3,86.7v80.1c0,48.1,39.2,87.3,87.3,87.3s87.3-39.2,87.3-87.3v-80.1C174.6,264.5,140.7,227.5,97.3,222.6z
			 M20,309.3c0-33.7,24.9-61.7,57.3-66.5v81.6H20V309.3z M154.6,389.4c0,37.1-30.2,67.3-67.3,67.3S20,426.5,20,389.4v-45.1h134.6
			V389.4z M154.6,324.3H97.3v-81.6c32.4,4.8,57.3,32.8,57.3,66.5V324.3z"/>
	</g>
</g>
<g>
	<g>
		<path class="st0" d="M37.3,43.3c-0.1-0.6-0.3-1.3-0.6-1.9c-0.2-0.6-0.6-1.2-0.9-1.7c-0.4-0.5-0.8-1.1-1.2-1.5
			c-1.9-1.9-4.4-2.9-7.1-2.9s-5.2,1.1-7.1,2.9c-0.5,0.5-0.9,1-1.2,1.5c-0.4,0.5-0.7,1.1-0.9,1.7c-0.3,0.6-0.4,1.2-0.6,1.9
			c-0.1,0.7-0.2,1.3-0.2,2c0,0.7,0.1,1.3,0.2,2c0.1,0.6,0.3,1.3,0.6,1.9c0.2,0.6,0.6,1.2,0.9,1.7c0.4,0.5,0.8,1.1,1.2,1.5
			s1,0.9,1.5,1.2c0.5,0.4,1.1,0.7,1.7,0.9c0.6,0.2,1.2,0.4,1.9,0.6s1.3,0.2,2,0.2c2.6,0,5.2-1.1,7.1-2.9c0.5-0.5,0.9-1,1.2-1.5
			c0.4-0.5,0.7-1.1,0.9-1.7c0.2-0.6,0.4-1.2,0.6-1.9s0.2-1.3,0.2-2S37.4,44,37.3,43.3z"/>
	</g>
</g>
<g>
	<g>
		<path class="st0" d="M511.9,135.1c-1.1-23.6-13-35.3-22.5-44.7C479,80.3,472.8,74.1,478.7,54c2.7-9.1-1-13.9-3.4-15.9
			c-3-2.5-8.4-4.7-17-0.4c-11.1,5.5-27.9,21.6-40.8,39.2c-11.9,16.1-25.9,40.3-24.8,63.8c0.8,17.6,8.3,33.7,20.4,45
			c-6,8.1-9.6,18.1-9.6,29c0,6.9,1.4,13.4,4,19.4v195.4c0,23.8,19.4,43.1,43.1,43.1s43.1-19.4,43.1-43.1v-189
			c4.7-7.5,7.3-16.4,7.3-25.8c0-10.7-3.5-20.6-9.4-28.7C505.3,173.4,512.8,154.8,511.9,135.1z M473.8,429.4
			c0,12.8-10.4,23.1-23.1,23.1s-23.1-10.4-23.1-23.1V256.7c5.2,3,11,5.2,17.3,6.1c0.5,0.1,1,0.1,1.5,0.1h11.9c0.5,0,1,0,1.5-0.1
			c0.7-0.1,1.3-0.2,2-0.3c0.4-0.1,0.8-0.2,1.2-0.3c0.2,0,0.4-0.1,0.5-0.1c3.6-0.8,7-2.1,10.2-3.6L473.8,429.4L473.8,429.4z
			 M465.8,240c0,0-0.1,0-0.1,0.1c-0.3,0.2-0.6,0.3-0.9,0.4c-0.1,0.1-0.3,0.1-0.4,0.2c-0.2,0.1-0.4,0.2-0.7,0.3
			c-0.2,0.1-0.4,0.2-0.6,0.3c-0.2,0.1-0.3,0.1-0.5,0.2c-0.3,0.1-0.5,0.2-0.8,0.3c-0.1,0-0.3,0.1-0.4,0.1c-0.3,0.1-0.6,0.2-0.9,0.3
			c-0.1,0-0.2,0.1-0.4,0.1c-0.3,0.1-0.7,0.2-1,0.3c-0.1,0-0.2,0.1-0.3,0.1c-0.4,0.1-0.9,0.2-1.3,0.3h-10.3c0,0,0,0,0,0
			c-0.5-0.1-1-0.2-1.4-0.3c-0.2,0-0.4-0.1-0.6-0.1c-0.3-0.1-0.6-0.1-0.8-0.2c-0.2-0.1-0.5-0.1-0.7-0.2c-0.2-0.1-0.4-0.1-0.5-0.2
			c-11.4-3.9-19.5-14.9-19.5-27.2c0-9.3,4.4-17.5,11.2-22.8c0.3-0.2,0.5-0.4,0.8-0.6c0.5-0.3,0.9-0.6,1.4-0.9
			c0.2-0.1,0.4-0.3,0.6-0.4c0.7-0.4,1.3-0.8,2-1.1c0.1,0,0.1-0.1,0.2-0.1c0.4-0.2,0.8-0.4,1.2-0.6c0.1,0,0.1-0.1,0.2-0.1
			c0.7-0.3,1.5-0.6,2.2-0.8c0.2-0.1,0.5-0.1,0.7-0.2c0.5-0.1,1-0.3,1.5-0.4c0.4-0.1,0.8-0.2,1.2-0.3c0.3-0.1,0.5-0.1,0.8-0.1
			c0.6-0.1,1.3-0.2,1.9-0.2c0.2,0,0.3,0,0.5,0c0.7-0.1,1.4-0.1,2.2-0.1c0.7,0,1.5,0,2.2,0.1c0.2,0,0.3,0,0.5,0
			c0.6,0.1,1.3,0.1,1.9,0.2c0.3,0,0.6,0.1,0.8,0.2c0.4,0.1,0.8,0.2,1.2,0.3c0.5,0.1,1,0.3,1.5,0.4c0.2,0.1,0.4,0.1,0.6,0.2
			c0.7,0.2,1.4,0.5,2.1,0.8c0.1,0,0.2,0.1,0.3,0.1c1.2,0.5,2.4,1.1,3.5,1.8c0.2,0.1,0.5,0.3,0.7,0.5c0.5,0.3,0.9,0.6,1.3,0.9
			c0.3,0.2,0.6,0.4,0.9,0.7c6.7,5.3,11,13.5,11,22.6C481.1,225.4,474.9,235.1,465.8,240z M476.8,172.5c-0.2-0.1-0.4-0.2-0.7-0.4
			c-0.5-0.3-1.1-0.6-1.6-0.9c-0.3-0.1-0.5-0.3-0.8-0.4c-1.8-0.9-3.6-1.6-5.5-2.3c-0.1,0-0.2-0.1-0.3-0.1c-0.9-0.3-1.9-0.6-2.9-0.9
			c0,0,0,0,0,0c-2-0.5-4-0.9-6.1-1.2c-0.2,0-0.4,0-0.6-0.1c-0.8-0.1-1.6-0.2-2.4-0.2c-0.2,0-0.5,0-0.7-0.1c-1-0.1-2-0.1-3-0.1
			c-1,0-2,0-2.9,0.1c-0.2,0-0.5,0-0.7,0.1c-0.8,0.1-1.6,0.1-2.4,0.2c-0.2,0-0.4,0-0.6,0.1c-3.1,0.4-6,1.1-8.9,2.1
			c-0.1,0-0.2,0.1-0.2,0.1c-0.9,0.3-1.8,0.6-2.7,1c-0.1,0-0.1,0.1-0.2,0.1c-0.9,0.4-1.8,0.8-2.7,1.2c-0.2,0.1-0.4,0.2-0.6,0.3
			c-0.6,0.3-1.2,0.6-1.8,0.9c-0.2,0.1-0.4,0.2-0.5,0.3c-9.2-7.8-14.9-19.6-15.5-32.6c-0.7-14.3,7.7-34,23.1-53.8
			c7.7-10,15.1-17.5,20.9-22.6c-1.7,21.4,9.5,32.3,18.7,41.4c8.5,8.4,15.8,15.6,16.6,31.3C492.6,150.4,486.9,163.9,476.8,172.5z"/>
	</g>
</g>
</svg>
