<?xml version="1.0" encoding="utf-8"?>
<!-- Generator: Adobe Illustrator 19.2.1, SVG Export Plug-In . SVG Version: 6.00 Build 0)  -->
<svg version="1.1" id="Слой_1" xmlns="http://www.w3.org/2000/svg" xmlns:xlink="http://www.w3.org/1999/xlink" x="0px" y="0px"
	 viewBox="0 0 511 512" style="enable-background:new 0 0 511 512;" xml:space="preserve">
<style type="text/css">
	.st0{fill:#4B00C1;}
</style>
<path class="st0" d="M302.5,412c5.5,0,10-4.5,10-10s-4.5-10-10-10s-10,4.5-10,10S297,412,302.5,412z"/>
<path class="st0" d="M60.5,292c-11.1,0-20,8.9-20,20s8.9,20,20,20c11,0,20-8.9,20-20S71.5,292,60.5,292z"/>
<path class="st0" d="M462.5,112h-27.4c15.3-15.3-26.3,26.3,43.7-43.7c15.6-15.6,15.6-40.9,0-56.6c-15.6-15.6-40.9-15.6-56.6,0
	c-11.9,11.9-89,88.9-100.3,100.3H50.5c-27.6,0-50,22.4-50,50v300c0,27.6,22.4,50,50,50h412c27.6,0,50-22.4,50-50V162
	C512.5,134.4,490.1,112,462.5,112z M234,232.7c1.5-4.4,4-8.5,7.2-11.7l0.4-0.4l28.3,28.3l-0.4,0.4c-3.3,3.3-7.3,5.8-11.7,7.2
	l-35.7,11.9L234,232.7z M227.1,206.8c-5.5,5.5-9.6,12.2-12.1,19.5l-17.4,52.3l-12.9,12.1c-4,3.8-4.3,10.1-0.5,14.1
	c3.8,4,10.1,4.3,14.1,0.5l13.2-12.3l52.6-17.5c7.3-2.4,14.1-6.6,19.6-12.1l71.4-71.4h77.4v240h-312V192h121.4L227.1,206.8z
	 M284.1,234.7l-28.3-28.3L408.1,54.2l28.3,28.3L284.1,234.7z M436.4,25.9c7.7-7.7,20.4-7.9,28.3,0c7.8,7.8,7.8,20.5,0,28.3
	l-14.1,14.1L422.2,40L436.4,25.9z M492.5,462c0,16.5-13.5,30-30,30h-412c-16.5,0-30-13.5-30-30V162c0-16.5,13.5-30,30-30h251.4
	l-40,40H110.5c-5.5,0-10,4.5-10,10v260c0,5.5,4.5,10,10,10h332c5.5,0,10-4.5,10-10V182c0-5.5-4.5-10-10-10h-67.4l40-40h47.4
	c16.5,0,30,13.5,30,30V462z"/>
<path class="st0" d="M342.5,412h60c5.5,0,10-4.5,10-10v-80c0-5.5-4.5-10-10-10c-5.5,0-10,4.5-10,10v70h-50c-5.5,0-10,4.5-10,10
	C332.5,407.5,337,412,342.5,412z"/>
<path class="st0" d="M60.5,272c5.5,0,10-4.5,10-10v-40c0-5.5-4.5-10-10-10c-5.5,0-10,4.5-10,10v40C50.5,267.5,55,272,60.5,272z"/>
<path class="st0" d="M60.5,352c-5.5,0-10,4.5-10,10v40c0,5.5,4.5,10,10,10c5.5,0,10-4.5,10-10v-40C70.5,356.5,66,352,60.5,352z"/>
</svg>
