<?xml version="1.0" encoding="utf-8"?>
<!-- Generator: Adobe Illustrator 19.2.1, SVG Export Plug-In . SVG Version: 6.00 Build 0)  -->
<svg version="1.1" id="Слой_1" xmlns="http://www.w3.org/2000/svg" xmlns:xlink="http://www.w3.org/1999/xlink" x="0px" y="0px"
	 viewBox="0 0 512 512" style="enable-background:new 0 0 512 512;" xml:space="preserve">
<style type="text/css">
	.st0{fill:#4B00C1;}
</style>
<path class="st0" d="M383.5,432c5.5,0,10-4.5,10-10s-4.5-10-10-10s-10,4.5-10,10S378,432,383.5,432z"/>
<path class="st0" d="M139.7,511.2c3.7,1.6,8,0.7,10.9-2.2l32.9-32.9l32.9,32.9c2.9,2.9,7.2,3.7,10.9,2.2c3.7-1.5,6.2-5.2,6.2-9.2
	v-30h170c16.5,0,30-13.5,30-30c0-21.6,0-398.1,0-412c0-16.5-13.5-30-30-30h-300c-16.5,0-30,13.5-30,30v392c0,27.6,22.4,50,50,50h10
	v30C133.5,506,135.9,509.7,139.7,511.2z M213.5,477.9l-22.9-22.9c-2-2-4.5-2.9-7.1-2.9c-2.6,0-5.1,1-7.1,2.9l-22.9,22.9V432h60
	V477.9z M413.5,30v342h-260V20h250C409,20,413.5,24.5,413.5,30z M103.5,20h30v352h-10c-11.2,0-21.6,3.7-30,10V30
	C93.5,24.5,98,20,103.5,20z M123.5,452c-16.5,0-30-13.5-30-30c0-16.5,13.5-30,30-30h290v50c0,5.5-4.5,10-10,10h-170v-20h110
	c5.5,0,10-4.5,10-10s-4.5-10-10-10c-18.1,0-209,0-220,0c-5.5,0-10,4.5-10,10s4.5,10,10,10h10v20H123.5z"/>
<path class="st0" d="M203.5,312h160c5.5,0,10-4.5,10-10s-4.5-10-10-10h-30V176c0-1.6-0.4-3.1-1.1-4.5l-40-80
	c-1.7-3.4-5.2-5.5-8.9-5.5s-7.2,2.1-8.9,5.5l-40,80c-0.7,1.3-1.1,2.9-1.1,4.5v116h-30c-5.5,0-10,4.5-10,10S198,312,203.5,312z
	 M253.5,186h20v106h-20V186z M313.5,186v106h-20V186H313.5z M283.5,118.4l23.8,47.6h-47.6L283.5,118.4z"/>
</svg>
