<?xml version="1.0" encoding="utf-8"?>
<!-- Generator: Adobe Illustrator 19.2.1, SVG Export Plug-In . SVG Version: 6.00 Build 0)  -->
<svg version="1.1" id="Слой_1" xmlns="http://www.w3.org/2000/svg" xmlns:xlink="http://www.w3.org/1999/xlink" x="0px" y="0px"
	 viewBox="0 0 511 512" style="enable-background:new 0 0 511 512;" xml:space="preserve">
<style type="text/css">
	.st0{fill:#4B00C1;}
</style>
<path class="st0" d="M255.7,266c-5.5,0-10,4.5-10,10s4.5,10,10,10s10-4.5,10-10S261.2,266,255.7,266z"/>
<path class="st0" d="M459.2,145.6l5.4-89.7c0.2-3.8-1.7-7.4-5-9.3c-3.3-1.9-7.4-1.8-10.5,0.3l-75,49.5c-1.3,0.9-2.4,2-3.2,3.4
	c-8.5,14.7-54.9,95.3-61.2,106.2h-8.3c-3.3-31.4-8.2-58.4-13.7-76.4c20-15.4,25.1-43.1,12.8-64.6L266,5c-1.8-3.1-5.1-5-8.7-5
	c-3.6,0-6.9,1.9-8.7,5L214,65c-11.5,19.9-8.1,46.2,10.2,62.4c-5.9,18.2-11,46-14.4,78.6h-8.3L140,99.8c-1.7-3-4.1-3.8-6.5-5.6
	c-0.1,0-0.1-0.1-0.2-0.1L61.9,47c-3.2-2.1-7.2-2.2-10.5-0.3c-3.3,1.9-5.2,5.5-5,9.3l5.1,85.4c0.3,3-0.2,5.6,1.6,8.7l34.7,59.9
	c-1.8,2.3-2.5,5.3-1.9,8.1c3.1,14.7,53.5,255.5,56.6,270.2c2.9,13.7,15.3,23.7,29.3,23.7h167.7c14.1,0,26.4-10,29.3-23.8
	c3.1-14.6,53.4-255.1,56.6-270.2c0.6-2.9-0.1-6-2-8.3l34.4-59.8C458.7,148.6,459.1,147.1,459.2,145.6z M440.5,123.9l-38.3-22.1
	l41.2-27.2L440.5,123.9z M427.5,162.6l-52.3-30.2l10-17.3l52.3,30.2L427.5,162.6z M365.3,149.8l52.3,30.2l-15,26h-69.6L365.3,149.8z
	 M295.7,286h95.1l-30.6,146H151.1l-30.6-146h95.1c5.5,0,10-4.5,10-10s-4.5-10-10-10h-99.3l-8.4-40h295.4l-8.4,40h-99.3
	c-5.5,0-10,4.5-10,10S290.1,286,295.7,286z M231.3,75l26-45l26,45c11.5,20-3,45-26,45C234.4,120,219.7,95.1,231.3,75z M242,137.6
	c4.9,1.6,10.1,2.4,15.4,2.4c4.2,0,8.3-0.5,12.3-1.6c4.6,16.3,8.8,40.2,11.8,67.6h-51.6C232.9,178.2,237.2,154,242,137.6z M178.4,206
	h-69.8l-30.7-53.1c10.4-0.2,20.6-3.1,29.9-8.4c9.3-5.4,16.9-12.8,22.3-21.7L178.4,206z M115.9,106.7c-3.6,8.6-9.9,15.7-18.1,20.5
	c-8.2,4.8-17.5,6.6-26.8,5.4l-3.5-57.9L115.9,106.7z M339.5,492H171.8c-4.7,0-8.8-3.3-9.8-7.9l-6.7-32.1H356l-6.7,32.1
	C348.3,488.7,344.2,492,339.5,492z"/>
</svg>
