<?xml version="1.0" encoding="utf-8"?>
<!-- Generator: Adobe Illustrator 19.2.1, SVG Export Plug-In . SVG Version: 6.00 Build 0)  -->
<svg version="1.1" id="Capa_1" xmlns="http://www.w3.org/2000/svg" xmlns:xlink="http://www.w3.org/1999/xlink" x="0px" y="0px"
	 viewBox="0 0 512 512" style="enable-background:new 0 0 512 512;" xml:space="preserve">
<style type="text/css">
	.st0{fill:#4B00C1;}
</style>
<g>
	<g>
		<path class="st0" d="M105.1,360.9c-1.9-1.9-4.4-2.9-7.1-2.9s-5.2,1.1-7.1,2.9c-1.9,1.9-2.9,4.4-2.9,7.1s1.1,5.2,2.9,7.1
			c1.9,1.9,4.4,2.9,7.1,2.9s5.2-1.1,7.1-2.9c1.9-1.9,2.9-4.4,2.9-7.1S106.9,362.8,105.1,360.9z"/>
	</g>
</g>
<g>
	<g>
		<path class="st0" d="M401.1,274.9c-1.9-1.9-4.4-2.9-7.1-2.9s-5.2,1.1-7.1,2.9c-1.9,1.9-2.9,4.4-2.9,7.1s1.1,5.2,2.9,7.1
			c1.9,1.9,4.4,2.9,7.1,2.9s5.2-1.1,7.1-2.9c1.9-1.9,2.9-4.4,2.9-7.1S402.9,276.8,401.1,274.9z"/>
	</g>
</g>
<g>
	<g>
		<path class="st0" d="M354,84H138c-5.5,0-10,4.5-10,10v64c0,5.5,4.5,10,10,10h216c5.5,0,10-4.5,10-10V94C364,88.5,359.5,84,354,84z
			 M344,148H148v-44h196V148z"/>
	</g>
</g>
<g>
	<g>
		<path class="st0" d="M354,196h-49c-5.5,0-10,4.5-10,10s4.5,10,10,10h49c5.5,0,10-4.5,10-10C364,200.5,359.5,196,354,196z"/>
	</g>
</g>
<g>
	<g>
		<path class="st0" d="M503.8,431.1L325.4,252.7c-1-1-2.2-1.8-3.5-2.3l-94.7-36.1c-3.7-1.4-7.8-0.5-10.6,2.3
			c-2.8,2.8-3.7,7-2.3,10.6L239,292h-91v-76h49c5.5,0,10-4.5,10-10s-4.5-10-10-10h-59c-5.5,0-10,4.5-10,10v96c0,5.5,4.5,10,10,10
			h108.7l3.8,9.9c0.5,1.3,1.3,2.5,2.3,3.5l14.6,14.6H138c-5.5,0-10,4.5-10,10s4.5,10,10,10h149.3l28,28H138c-5.5,0-10,4.5-10,10
			s4.5,10,10,10h197.3l40,40H107.1c-4.7-25-26.7-44-53.1-44c-12.9,0-24.7,4.5-34,12.1V54c0-18.7,15.3-34,34-34s34,15.3,34,34v270.6
			c0,5.5,4.5,10,10,10s10-4.5,10-10V64h266c5.5,0,10,4.5,10,10v172.3c0,5.5,4.5,10,10,10s10-4.5,10-10V74c0-16.5-13.5-30-30-30
			H107.1C102.4,19,80.4,0,54,0C24.2,0,0,24.2,0,54v404c0,29.8,24.2,54,54,54h265.5c16.5,0,30-13.5,30-30v-14H394
			c0.4,0,0.8,0,1.2-0.1l35.9,35.9c5.5,5.4,12.6,8.2,19.8,8.2s14.3-2.7,19.8-8.2l33.2-33.2c5.3-5.3,8.2-12.3,8.2-19.8
			S509.1,436.4,503.8,431.1z M329.5,482c0,5.5-4.5,10-10,10H54c-18.7,0-34-15.3-34-34s15.3-34,34-34s34,15.3,34,34
			c0,5.5,4.5,10,10,10h231.5V482z M263.6,300.4L241,241l59.4,22.7L263.6,300.4z M274,318.4l44.4-44.4l134.5,134.5l-44.4,44.4
			L274,318.4z M489.7,456.5l-33.2,33.2c-3.1,3.1-8.1,3.1-11.2,0L422.6,467l44.4-44.4l22.7,22.7c1.5,1.5,2.3,3.5,2.3,5.6
			C492,453,491.2,455,489.7,456.5z"/>
	</g>
</g>
</svg>
