<?xml version="1.0" encoding="utf-8"?>
<!-- Generator: Adobe Illustrator 19.2.1, SVG Export Plug-In . SVG Version: 6.00 Build 0)  -->
<svg version="1.1" id="Слой_1" xmlns="http://www.w3.org/2000/svg" xmlns:xlink="http://www.w3.org/1999/xlink" x="0px" y="0px"
	 viewBox="0 0 512 512" style="enable-background:new 0 0 512 512;" xml:space="preserve">
<style type="text/css">
	.st0{fill:#4B00C1;}
</style>
<g>
	<path class="st0" d="M356.5,39h-201C91.3,39,39,91.3,39,155.5v201C39,420.7,91.3,473,155.5,473h201c64.2,0,116.5-52.3,116.5-116.5
		v-201C473,91.3,420.7,39,356.5,39z M451.6,356.5c0,52.4-42.7,95.1-95.1,95.1h-201c-52.4,0-95.1-42.7-95.1-95.1v-201
		c0-52.4,42.7-95.1,95.1-95.1h201c52.4,0,95.1,42.7,95.1,95.1V356.5z"/>
	<path class="st0" d="M256,138.3c-64.9,0-117.7,52.8-117.7,117.7c0,64.9,52.8,117.7,117.7,117.7S373.7,320.9,373.7,256
		C373.7,191.1,320.9,138.3,256,138.3z M256,352.3c-53.1,0-96.3-43.2-96.3-96.3s43.2-96.3,96.3-96.3c53.1,0,96.3,43.2,96.3,96.3
		S309.1,352.3,256,352.3z"/>
	<path class="st0" d="M256,182.5c-40.5,0-73.5,33-73.5,73.5c0,40.5,33,73.5,73.5,73.5s73.5-33,73.5-73.5
		C329.5,215.5,296.5,182.5,256,182.5z M256,316.1c-33.1,0-60.1-27-60.1-60.1s27-60.1,60.1-60.1c33.1,0,60.1,27,60.1,60.1
		S289.1,316.1,256,316.1z"/>
	<path class="st0" d="M256,189.7c-36.6,0-66.3,29.8-66.3,66.3c0,36.6,29.8,66.3,66.3,66.3s66.3-29.8,66.3-66.3
		C322.3,219.4,292.6,189.7,256,189.7z M256,310.3c-29.9,0-54.3-24.3-54.3-54.3s24.3-54.3,54.3-54.3c29.9,0,54.3,24.3,54.3,54.3
		S285.9,310.3,256,310.3z"/>
	<path class="st0" d="M378.7,95.7c-18.3,0-33.3,14.9-33.3,33.3c0,18.3,14.9,33.3,33.3,33.3c18.3,0,33.3-14.9,33.3-33.3
		C412,110.7,397.1,95.7,378.7,95.7z M378.7,140.9c-6.5,0-11.9-5.3-11.9-11.9c0-6.5,5.3-11.9,11.9-11.9c6.5,0,11.9,5.3,11.9,11.9
		C390.6,135.6,385.2,140.9,378.7,140.9z"/>
</g>
</svg>
