<svg xmlns="http://www.w3.org/2000/svg" viewBox="0 0 89.69 85.13"><defs><style>.cls-1{fill:#126075;}</style></defs><title>Asset 6</title><g id="Layer_2" data-name="Layer 2"><g id="Слой_1" data-name="Слой 1"><path class="cls-1" d="M61.66,60.61a1.75,1.75,0,1,0,1.75,1.75,1.75,1.75,0,0,0-1.75-1.75Z"/><path class="cls-1" d="M46.59,29.78a1.75,1.75,0,1,0-1.75,1.75,1.75,1.75,0,0,0,1.75-1.75Z"/><path class="cls-1" d="M28,64.11a1.75,1.75,0,1,0-1.75-1.75A1.75,1.75,0,0,0,28,64.11Z"/><path class="cls-1" d="M88.65,72.43l-9.47-4.2V29.78a1.76,1.76,0,0,0-1.08-1.62L46.59,14.61V1.75a1.75,1.75,0,0,0-3.5,0V14.61L11.59,28.16a1.77,1.77,0,0,0-1.08,1.62V68.23L1,72.43a1.76,1.76,0,0,0,1.42,3.21l9.81-4.36L44.15,85a1.78,1.78,0,0,0,1.38,0L77.41,71.28l9.81,4.36a1.76,1.76,0,0,0,1.43-3.21Zm-45.56-54v4.35a1.75,1.75,0,0,0,3.5,0V18.42L73,29.78,44.84,41.88,16.7,29.78ZM23.22,64.49a1.75,1.75,0,0,0-2.31-.89L14,66.67V32.44l29.08,12.5V80.72L16.63,69.34l5.71-2.53a1.75,1.75,0,0,0,.88-2.32ZM46.59,80.72V44.94l29.08-12.5V66.67l-6.9-3.07a1.76,1.76,0,0,0-1.42,3.21l5.7,2.53Z"/></g></g></svg>