<svg xmlns="http://www.w3.org/2000/svg" viewBox="0 0 72.88 72.55"><defs><style>.cls-1{fill:#126075;}</style></defs><title>Asset 8</title><g id="Layer_2" data-name="Layer 2"><g id="Слой_1" data-name="Слой 1"><path class="cls-1" d="M68.6,60.75V44.46h2.33a2,2,0,0,0,1.52-3.18l-5.75-8.2a1.94,1.94,0,0,0-1.6-.83H63.71L38,.88A2,2,0,0,0,36.52.16,2,2,0,0,0,35,.88L28.3,9V2A1.89,1.89,0,0,0,26.42,0H18.36a2,2,0,0,0-2,2V12.21H14.21a2,2,0,0,0-2,2V28.68L9.33,32.25H7.78a1.94,1.94,0,0,0-1.6.83L.35,41.38A2,2,0,0,0,2,44.46H3.87V60.75a6.11,6.11,0,0,0,2.28,11.8H66.49a6.08,6.08,0,0,0,6.06-6.1,5.92,5.92,0,0,0-4-5.7Zm-2.11,7.89H6.15a2.2,2.2,0,1,1,0-4.39H66.49a2.2,2.2,0,1,1,0,4.39ZM8.79,36.15h5.58v4.4H5.71ZM24.39,3.91v8.3H20.23V3.91ZM67.17,40.55H58.34v-4.4h5.75ZM33.7,44.22h5.65l2.44,3.91H31.25ZM34.4,52h3.91v8.31H34.4Zm7.82,0h3.1a2,2,0,0,0,2-2,1.87,1.87,0,0,0-.37-1.14l-4.81-7.71a2,2,0,0,0-1.66-.92H32.61a2,2,0,0,0-1.66.92L26.07,49a2,2,0,0,0,1.66,3H30.5v8.31H18.28V36.15H54.44V60.34H42.22ZM27.78,15.88,31.92,20H24.38Zm-4.12,8.06H34.4v8.31H23.66Zm21,8.31H38.31V23.94H48.82v8.31ZM40.87,20l4.28-4.28L48.66,20ZM38.31,17V7.49l4.27,5.22Zm-3.91.08-4.22-4.21L34.4,7.69ZM19.75,25.6v6.65H14.39Zm45,34.74H58.34V44.46H64.7Zm-12-28.09V25.1l5.93,7.15ZM22.53,16.12,16.08,23.9V16.12ZM14.37,44.46V60.34H7.78V44.46Z"/></g></g></svg>