<svg xmlns="http://www.w3.org/2000/svg" viewBox="0 0 72.68 72.68"><defs><style>.cls-1{fill:#126075;}</style></defs><title>Asset 5</title><g id="Layer_2" data-name="Layer 2"><g id="Слой_1" data-name="Слой 1"><path class="cls-1" d="M4.74,9.48h63.2V47.4H4.74V9.48Zm34,47.4V52.14H44.4L47,56.88Zm-4.74,0H25.72l2.56-4.74H34v4.74ZM4.74,52.14H22.89l-9.18,17a2.37,2.37,0,1,0,4.18,2.24l5.28-9.81H34v8.69a2.37,2.37,0,1,0,4.74,0V61.62h10.8l5.28,9.81A2.37,2.37,0,1,0,59,69.19c-.31-.56-8.36-15.52-9.18-17H67.94a4.75,4.75,0,0,0,4.74-4.74V9.48a4.75,4.75,0,0,0-4.74-4.74H38.71V2.37a2.37,2.37,0,1,0-4.74,0V4.74H4.74A4.75,4.75,0,0,0,0,9.48V47.4a4.75,4.75,0,0,0,4.74,4.74Z"/><path class="cls-1" d="M63.2,40.29V35.55a2.37,2.37,0,0,0-4.74,0v2.37H48.19V35.55a2.37,2.37,0,1,0-4.74,0v2.37H14.22V33.18h3.16a2.37,2.37,0,1,0,0-4.74H14.22V19h15v9.48H26.86a2.37,2.37,0,1,0,0,4.74H31.6A2.37,2.37,0,0,0,34,30.81V19h9.48V23.7H41.08a2.37,2.37,0,1,0,0,4.74h9.48a2.37,2.37,0,0,0,0-4.74H48.19V19H58.46v7.11a2.37,2.37,0,0,0,4.74,0V16.59a2.37,2.37,0,0,0-2.37-2.37h-49a2.37,2.37,0,0,0-2.37,2.37v23.7a2.37,2.37,0,0,0,2.37,2.37h49a2.37,2.37,0,0,0,2.37-2.37Z"/></g></g></svg>