<svg xmlns="http://www.w3.org/2000/svg" viewBox="0 0 64.11 64.11"><defs><style>.cls-1{fill:#126075;}</style></defs><title>Asset 11</title><g id="Layer_2" data-name="Layer 2"><g id="Слой_1" data-name="Слой 1"><path class="cls-1" d="M62.35,53.85,47.64,39.14a28.24,28.24,0,0,1-8.5,8.5L53.85,62.35a6,6,0,0,0,8.5-8.5Z"/><path class="cls-1" d="M48.08,24a24,24,0,1,0-24,24,24,24,0,0,0,24-24Zm-24,18a18,18,0,1,1,18-18,18,18,0,0,1-18,18Z"/><path class="cls-1" d="M10,24h4A10,10,0,0,1,24,14V10A14,14,0,0,0,10,24Z"/></g></g></svg>