<svg xmlns="http://www.w3.org/2000/svg" viewBox="0 0 73.44 64.34"><defs><style>.cls-1{fill:#126075;}</style></defs><title>Asset 10</title><g id="Layer_2" data-name="Layer 2"><g id="Слой_1" data-name="Слой 1"><path class="cls-1" d="M63.74,19.09a9.28,9.28,0,0,0-1.14.07V13.53A13.54,13.54,0,0,0,49.08,0H24.61A13.55,13.55,0,0,0,11.07,13.53v5.65a11,11,0,0,0-1.36-.09A9.71,9.71,0,0,0,0,28.79a8.12,8.12,0,0,0,6.48,7.92v19a5,5,0,0,0,5,5h6.72v2a1.6,1.6,0,0,0,3.19,0v-2H52v2a1.6,1.6,0,0,0,3.2,0v-2h7a5,5,0,0,0,5-5V36.66a8.08,8.08,0,0,0,6.24-7.87A9.71,9.71,0,0,0,63.74,19.09Zm.58,8.44a1.6,1.6,0,1,0,0-3.19,5.75,5.75,0,0,0-5.74,5.74A6.81,6.81,0,0,0,64,36.73v19a1.83,1.83,0,0,1-1.83,1.83H11.52a1.84,1.84,0,0,1-1.84-1.83V36.68a6.78,6.78,0,0,0,5.19-6.6,5.76,5.76,0,0,0-5.75-5.74,1.6,1.6,0,1,0,0,3.19,2.55,2.55,0,0,1,2.55,2.55,3.6,3.6,0,0,1-3.59,3.6A4.9,4.9,0,0,1,3.2,28.79a6.51,6.51,0,0,1,6.51-6.5,8.54,8.54,0,0,1,8.53,8.52V48.65a1.6,1.6,0,0,0,1.6,1.59H53.61a1.6,1.6,0,0,0,1.6-1.59V30.81a8.54,8.54,0,0,1,8.53-8.52,6.5,6.5,0,0,1,6.5,6.5,4.9,4.9,0,0,1-4.88,4.89,3.6,3.6,0,0,1-3.59-3.6A2.55,2.55,0,0,1,64.32,27.53ZM21.43,47V41H52V47Zm38-27.11A11.76,11.76,0,0,0,52,30.81v6.94H21.43V30.81A11.81,11.81,0,0,0,14.27,20v-6.5A10.35,10.35,0,0,1,24.61,3.2H49.08A10.35,10.35,0,0,1,59.42,13.53Z"/></g></g></svg>