<svg width="920" height="656" viewBox="0 0 920 656" fill="none"
  xmlns="http://www.w3.org/2000/svg">
  <path fill-rule="evenodd" clip-rule="evenodd" d="M413.594 44.4838C413.594 52.1828 421.93 56.9939 428.596 53.1429L458.168 36.0606C464.833 32.2109 464.832 22.5909 458.168 18.7418L428.595 1.66338C421.929 -2.18673 413.594 2.62444 413.594 10.323V44.4838ZM647.854 63.7528C647.854 71.4519 639.519 76.263 632.852 72.4118L587.234 46.0597C580.571 42.2103 580.57 32.5918 587.233 28.742L632.851 2.38509C639.518 -1.46674 647.854 3.34432 647.854 11.0437V63.7528ZM692.719 62.6065C692.719 70.3055 701.055 75.1167 707.721 71.2656L751.354 46.0609C758.018 42.2114 758.018 32.5922 751.354 28.7426L707.721 3.53788C701.055 -0.313142 692.719 4.498 692.719 12.197V62.6065ZM904.998 48.4248C911.665 52.2753 920 47.4642 920 39.7654V15.0413C920 7.34301 911.666 2.5318 904.999 6.38132L883.593 18.7418C876.928 22.5906 876.927 32.2115 883.592 36.0611L904.998 48.4248ZM905 165.727C911.667 161.878 920 166.689 920 174.387V208.302C920 216.001 911.664 220.812 904.998 216.96L875.636 199.998C868.971 196.147 868.973 186.527 875.638 182.678L905 165.727ZM895.256 264.652C901.92 268.502 901.92 278.121 895.256 281.971L848.627 308.904C841.96 312.755 833.625 307.944 833.625 300.245V246.378C833.625 238.679 841.96 233.868 848.627 237.719L895.256 264.652ZM920 372.239C920 379.938 911.665 384.749 904.998 380.899L875.635 363.939C868.971 360.089 868.971 350.469 875.635 346.62L904.998 329.66C911.665 325.809 920 330.62 920 338.319V372.239ZM890.019 100.709C896.684 104.559 896.684 114.179 890.019 118.028L851.261 140.413C844.594 144.264 836.259 139.453 836.259 131.754V86.9834C836.259 79.2847 844.594 74.4735 851.261 78.3239L890.019 100.709ZM795.391 309.412C795.391 317.111 787.056 321.922 780.39 318.071L717.889 281.97C711.224 278.121 711.224 268.501 717.889 264.651L780.39 228.55C787.056 224.699 795.391 229.511 795.391 237.209V309.412ZM889.448 428.586C896.112 432.436 896.112 442.056 889.447 445.905L851.547 467.795C844.88 471.645 836.546 466.834 836.546 459.136V415.351C836.546 407.652 844.881 402.841 851.548 406.692L889.448 428.586ZM904.997 497.821C911.664 493.969 920 498.781 920 506.48V531.959C920 539.657 911.665 544.469 904.998 540.618L882.945 527.88C876.281 524.031 876.28 514.412 882.944 510.562L904.997 497.821ZM725.05 100.709C718.387 104.559 718.387 114.177 725.05 118.027L776.803 147.927C783.469 151.778 791.805 146.967 791.805 139.268V79.4683C791.805 71.769 783.469 66.9579 776.803 70.8095L725.05 100.709ZM684.95 230.03C684.95 237.73 693.286 242.541 699.953 238.688L766.911 199.996C773.574 196.146 773.573 186.528 766.909 182.679L699.951 144.003C693.285 140.152 684.95 144.963 684.95 152.662V230.03ZM684.307 395.075C684.307 402.775 692.642 407.586 699.309 403.734L768.195 363.938C774.859 360.088 774.859 350.47 768.195 346.62L699.309 306.824C692.642 302.972 684.307 307.783 684.307 315.483V395.075ZM725.181 428.588C718.516 432.437 718.515 442.057 725.18 445.907L776.757 475.699C783.424 479.55 791.759 474.739 791.759 467.04V407.466C791.759 399.768 783.425 394.957 776.758 398.806L725.181 428.588ZM841.456 614.56C841.456 622.259 849.791 627.07 856.458 623.219L879.602 609.849C886.266 605.999 886.266 596.38 879.601 592.531L856.457 579.164C849.79 575.314 841.456 580.125 841.456 587.824V614.56ZM658.056 235.364C658.056 243.063 649.72 247.874 643.053 244.023L566.848 199.996C560.185 196.146 560.185 186.527 566.849 182.678L643.054 138.663C649.721 134.812 658.056 139.624 658.056 147.322V235.364ZM639.253 264.653C645.918 268.502 645.918 278.121 639.254 281.971L550.928 332.996C544.261 336.847 535.926 332.036 535.926 324.337V222.299C535.926 214.6 544.26 209.789 550.927 213.639L639.253 264.653ZM660.914 404.244C660.914 411.943 652.579 416.754 645.912 412.903L561.148 363.938C554.484 360.089 554.484 350.47 561.148 346.62L645.912 297.655C652.579 293.804 660.914 298.615 660.914 306.314V404.244ZM755.104 510.562C761.767 514.412 761.768 524.031 755.104 527.88L705.854 556.331C699.187 560.183 690.852 555.372 690.852 547.672V490.77C690.852 483.071 699.187 478.26 705.854 482.111L755.104 510.562ZM784.501 618.404C784.501 626.103 776.165 630.914 769.499 627.063L739.701 609.849C733.037 606 733.037 596.38 739.702 592.531L769.5 575.321C776.166 571.471 784.501 576.282 784.501 583.981V618.404ZM544.523 145.47C544.523 153.169 552.858 157.98 559.525 154.129L622.025 118.028C628.69 114.179 628.689 104.559 622.024 100.709L559.525 64.614C552.858 60.7638 544.523 65.575 544.523 73.2736V145.47ZM417.595 264.652C410.93 268.502 410.93 278.122 417.594 281.971L504.82 332.354C511.486 336.205 519.821 331.394 519.821 323.695V222.934C519.821 215.236 511.487 210.425 504.82 214.275L417.595 264.652ZM537.258 485.955C537.258 493.654 545.593 498.465 552.26 494.614L636.573 445.907C643.237 442.057 643.237 432.437 636.572 428.588L552.259 379.898C545.592 376.048 537.258 380.859 537.258 388.558V485.955ZM573.48 510.562C566.815 514.412 566.815 524.031 573.48 527.881L639.746 566.159C646.413 570.01 654.748 565.199 654.748 557.5V480.943C654.748 473.244 646.413 468.433 639.746 472.284L573.48 510.562ZM437.712 100.709C431.047 104.558 431.047 114.179 437.712 118.028L494.774 150.984C501.441 154.834 509.775 150.023 509.775 142.325V76.4127C509.775 68.714 501.441 63.9029 494.774 67.7532L437.712 100.709ZM400.364 231.342C400.364 239.041 408.699 243.852 415.366 240.001L484.621 199.996C491.285 196.146 491.285 186.526 484.62 182.677L415.365 142.683C408.698 138.833 400.364 143.644 400.364 151.342V231.342ZM392.842 408.329C392.842 416.028 401.177 420.839 407.844 416.988L499.686 363.939C506.35 360.089 506.35 350.469 499.686 346.62L407.844 293.577C401.177 289.726 392.842 294.538 392.842 302.236V408.329ZM414.831 428.587C408.166 432.436 408.166 442.057 414.83 445.906L506.207 498.684C512.874 502.535 521.208 497.724 521.208 490.025V384.474C521.208 376.776 512.874 371.964 506.207 375.815L414.831 428.587ZM545.67 635.307C545.67 643.006 554.005 647.817 560.672 643.966L619.741 609.849C626.406 605.999 626.406 596.379 619.741 592.53L560.672 558.412C554.005 554.561 545.67 559.373 545.67 567.071V635.307ZM299.322 182.677C292.657 186.526 292.657 196.146 299.321 199.996L351.086 229.902C357.753 233.754 366.089 228.943 366.089 221.243V161.441C366.089 153.742 357.754 148.931 351.087 152.781L299.322 182.677ZM262.277 306.701C262.277 314.4 270.612 319.211 277.279 315.36L335.087 281.97C341.751 278.121 341.751 268.502 335.087 264.652L277.279 231.257C270.613 227.406 262.277 232.217 262.277 239.916V306.701ZM279.197 346.62C272.533 350.469 272.533 360.089 279.197 363.938L361.164 411.284C367.831 415.135 376.166 410.324 376.166 402.625V307.933C376.166 300.234 367.831 295.423 361.164 299.274L279.197 346.62ZM394.663 569.102C394.663 576.8 402.998 581.612 409.665 577.761L496.024 527.88C502.688 524.031 502.689 514.411 496.024 510.562L409.665 460.675C402.999 456.824 394.663 461.635 394.663 469.334V569.102ZM429.654 592.53C422.989 596.38 422.989 605.999 429.654 609.849L498.793 649.786C505.46 653.637 513.795 648.826 513.795 641.127V561.252C513.795 553.553 505.46 548.742 498.793 552.593L429.654 592.53ZM324.766 18.7429C318.101 22.5919 318.101 32.2111 324.764 36.0611L338.366 43.9196C345.033 47.7712 353.369 42.9601 353.369 35.2608V19.5463C353.369 11.8475 345.034 7.03636 338.368 10.8868L324.766 18.7429ZM274.323 121.886C274.323 129.585 282.658 134.396 289.325 130.545L310.988 118.029C317.653 114.179 317.652 104.559 310.986 100.71L289.323 88.2014C282.656 84.3519 274.323 89.1631 274.323 96.8614V121.886ZM167.371 264.653C160.706 268.502 160.706 278.122 167.37 281.971L204.216 303.254C210.882 307.105 219.218 302.294 219.218 294.595V252.034C219.218 244.335 210.883 239.524 204.217 243.374L167.371 264.653ZM254.198 484.623C254.198 492.322 262.533 497.133 269.2 493.282L351.219 445.907C357.884 442.057 357.883 432.437 351.218 428.588L269.199 381.223C262.533 377.373 254.198 382.184 254.198 389.883V484.623ZM275.446 510.563C268.783 514.412 268.783 524.031 275.446 527.881L363.038 578.481C369.705 582.332 378.04 577.521 378.04 569.822V468.622C378.04 460.923 369.705 456.112 363.038 459.963L275.446 510.563ZM189.34 100.714C182.679 104.563 182.677 114.178 189.337 118.029L193.22 120.274C199.887 124.13 208.226 119.319 208.226 111.618V107.128C208.226 99.4289 199.89 94.6178 193.223 98.4699L189.34 100.714ZM136.119 197.437C136.119 205.136 144.455 209.947 151.122 206.095L161.677 199.997C168.341 196.147 168.34 186.527 161.674 182.678L151.119 176.585C144.453 172.736 136.119 177.547 136.119 185.245V197.437ZM124.733 381.125C124.733 388.824 133.069 393.635 139.736 389.784L184.471 363.937C191.134 360.088 191.134 350.469 184.471 346.62L139.736 320.773C133.069 316.922 124.733 321.733 124.733 329.432V381.125ZM147.48 428.587C140.815 432.436 140.815 442.056 147.48 445.906L214.17 484.425C220.836 488.276 229.171 483.464 229.171 475.766V398.733C229.171 391.034 220.837 386.223 214.17 390.073L147.48 428.587ZM255.88 645.675C255.88 653.374 264.215 658.185 270.882 654.334L347.892 609.848C354.556 605.999 354.556 596.38 347.892 592.53L270.882 548.044C264.215 544.193 255.88 549.004 255.88 556.703V645.675ZM50.5333 183.566C44.5522 187.02 44.5513 195.653 50.5316 199.109C56.5149 202.566 63.9968 198.248 63.9968 191.338C63.9968 184.428 56.5166 180.11 50.5333 183.566ZM16.8517 281.969C23.5164 278.12 23.5172 268.5 16.8533 264.65L15.0026 263.581C8.33592 259.729 0 264.54 0 272.24V274.378C0 282.076 8.33435 286.888 15.001 283.038L16.8517 281.969ZM75.1897 372.887C75.1897 380.587 66.8536 385.398 60.1869 381.546L29.7128 363.939C23.0494 360.089 23.0499 350.47 29.7136 346.621L60.1878 329.018C66.8544 325.167 75.1897 329.978 75.1897 337.677V372.887ZM198.076 510.562C204.74 514.412 204.74 524.031 198.076 527.881L132.918 565.517C126.252 569.367 117.917 564.556 117.917 556.857V481.586C117.917 473.887 126.252 469.076 132.918 472.927L198.076 510.562ZM229.272 639.902C229.272 647.601 220.937 652.412 214.27 648.562L147.245 609.848C140.58 605.999 140.58 596.379 147.244 592.53L214.269 553.811C220.936 549.959 229.272 554.77 229.272 562.47V639.902ZM0 423.594C0 415.896 8.33455 411.084 15.0012 414.935L38.6409 428.588C45.3055 432.437 45.3061 442.056 38.6419 445.906L15.0022 459.562C8.33551 463.414 0 458.603 0 450.903V423.594ZM15.8918 510.562C9.22688 514.412 9.22689 524.032 15.8918 527.881L67.0898 557.451C73.7565 561.301 82.0911 556.49 82.0911 548.791V489.652C82.0911 481.954 73.7565 477.143 67.0898 480.993L15.8918 510.562ZM37.7156 609.848C44.379 605.998 44.379 596.38 37.7156 592.53L15.0024 579.408C8.33578 575.557 0 580.368 0 588.067V614.311C0 622.01 8.33578 626.821 15.0024 622.97L37.7156 609.848Z" fill="#F8FAFF"/>
</svg>
