<svg width="40" height="50" viewBox="0 0 40 50" fill="none"
  xmlns="http://www.w3.org/2000/svg">
  <path fill-rule="evenodd" clip-rule="evenodd" d="M20.6242 12.0602L28.1256 16.4952C28.3155 16.6075 28.5308 16.6666 28.7499 16.6666C29.4403 16.6666 29.9999 16.0926 29.9999 15.3845V6.45522C29.9999 5.99688 29.7613 5.5734 29.3742 5.3445L20.6242 0.171327C20.2379 -0.0571089 19.7621 -0.0571091 19.3757 0.171326L10.6256 5.34457C10.2385 5.57347 9.9999 5.99694 9.9999 6.45528V15.3845C9.9999 15.6093 10.0575 15.8301 10.1669 16.0248C10.5117 16.6382 11.2761 16.8488 11.8742 16.4952L19.3756 12.0602C19.762 11.8317 20.2378 11.8317 20.6242 12.0602ZM18.7514 25.8797L3.74854 17.0095C3.36884 16.7851 2.93827 16.6669 2.5 16.6669C1.11929 16.6669 0 17.8149 0 19.231V37.0896C0 38.0062 0.477136 38.8532 1.25146 39.311L18.7513 49.6573C19.5241 50.1142 20.4756 50.1142 21.2484 49.6573L38.7485 39.3109C39.5229 38.8531 40 38.0061 40 37.0894V19.231C40 18.7815 39.8848 18.3399 39.6659 17.9504C38.9764 16.7236 37.4477 16.3023 36.2515 17.0095L21.2485 25.8797C20.4757 26.3365 19.5242 26.3365 18.7514 25.8797Z" fill="white"/>
</svg>
