<svg width="265" height="50" viewBox="0 0 265 50" fill="none"
  xmlns="http://www.w3.org/2000/svg">
  <path d="M3.84463 17.0095L19.2321 25.8797C20.0247 26.3365 21.0006 26.3365 21.7932 25.8797L37.1807 17.0095C38.4076 16.3023 39.9755 16.7236 40.6827 17.9504C40.9072 18.3399 41.0254 18.7815 41.0254 19.231V37.0894C41.0254 38.0061 40.536 38.8531 39.7418 39.3109L21.7931 49.6573C21.0005 50.1142 20.0246 50.1142 19.232 49.6573L1.28355 39.311C0.489367 38.8532 0 38.0062 0 37.0896L0 19.231C0 17.8149 1.14798 16.6669 2.56409 16.6669C3.01359 16.6669 3.4552 16.7851 3.84463 17.0095Z" fill="#3AC2ED"/>
  <path d="M28.8466 16.4952L21.1529 12.0602C20.7566 11.8317 20.2686 11.8317 19.8723 12.0602L12.1785 16.4952C11.5651 16.8488 10.7812 16.6382 10.4276 16.0248C10.3153 15.8301 10.2562 15.6093 10.2562 15.3845V6.45528C10.2562 5.99694 10.5009 5.57347 10.898 5.34457L19.8724 0.171326C20.2687 -0.0571091 20.7566 -0.0571089 21.1529 0.171327L30.1271 5.3445C30.5242 5.5734 30.7689 5.99688 30.7689 6.45522V15.3845C30.7689 16.0926 30.1949 16.6666 29.4869 16.6666C29.2621 16.6666 29.0413 16.6075 28.8466 16.4952Z" fill="#FF5E78"/>
  <path d="M55.8703 36.7922C57.2471 36.7922 58.5035 36.5728 59.6394 36.1339C60.7753 35.6951 61.7434 35.0842 62.5436 34.3012C63.3439 33.5182 63.9635 32.5761 64.4024 31.4747C64.8412 30.3734 65.0607 29.1602 65.0607 27.8351C65.0607 26.5444 64.8412 25.357 64.4024 24.2729C63.9635 23.1888 63.3439 22.2552 62.5436 21.4722C61.7434 20.6892 60.7753 20.0783 59.6394 19.6395C58.5035 19.2007 57.2471 18.9812 55.8703 18.9812H48.8743C48.5989 18.9812 48.4612 19.1189 48.4612 19.3943V36.3792C48.4612 36.6545 48.5989 36.7922 48.8743 36.7922H55.8703ZM55.638 33.5139H51.9463V22.2595H55.638C56.5157 22.2595 57.3117 22.3929 58.0259 22.6596C58.7401 22.9263 59.3468 23.3006 59.8459 23.7825C60.345 24.2643 60.7279 24.8494 60.9947 25.5377C61.2615 26.2261 61.3948 26.9919 61.3948 27.8351C61.3948 28.7127 61.2615 29.5 60.9947 30.197C60.7279 30.8939 60.345 31.4876 59.8459 31.9781C59.3468 32.4685 58.7401 32.8471 58.0259 33.1138C57.3117 33.3806 56.5157 33.5139 55.638 33.5139ZM73.1668 37.1794C74.0273 37.1794 74.7888 37.0116 75.4514 36.676C76.114 36.3405 76.6691 35.8715 77.1166 35.2692V36.3792C77.1166 36.6545 77.2542 36.7922 77.5296 36.7922H80.0595C80.3349 36.7922 80.4726 36.6545 80.4726 36.3792V24.6859C80.4726 24.4106 80.3349 24.2729 80.0595 24.2729H77.5296C77.2542 24.2729 77.1166 24.4106 77.1166 24.6859V25.8217C76.6691 25.2194 76.114 24.7461 75.4514 24.402C74.7888 24.0578 74.0273 23.8857 73.1668 23.8857C72.3751 23.8857 71.6135 24.0535 70.8821 24.3891C70.1506 24.7246 69.5096 25.1893 68.9588 25.783C68.4081 26.3767 67.9692 27.0779 67.6422 27.8867C67.3152 28.6955 67.1517 29.5818 67.1517 30.5454C67.1517 31.4919 67.3152 32.3739 67.6422 33.1913C67.9692 34.0087 68.4081 34.7099 68.9588 35.295C69.5096 35.8801 70.1506 36.3405 70.8821 36.676C71.6135 37.0116 72.3751 37.1794 73.1668 37.1794ZM73.8122 34.1334C73.3303 34.1334 72.8914 34.0431 72.4956 33.8624C72.0997 33.6817 71.7555 33.4322 71.4629 33.1138C71.1704 32.7955 70.9423 32.4169 70.7788 31.9781C70.6153 31.5392 70.5336 31.0617 70.5336 30.5454C70.5336 30.0292 70.6153 29.5516 70.7788 29.1128C70.9423 28.674 71.1704 28.2911 71.4629 27.9642C71.7555 27.6372 72.0997 27.3834 72.4956 27.2027C72.8914 27.022 73.3303 26.9316 73.8122 26.9316C74.294 26.9316 74.7372 27.022 75.1417 27.2027C75.5461 27.3834 75.8946 27.6372 76.1872 27.9642C76.4798 28.2911 76.7078 28.674 76.8713 29.1128C77.0348 29.5516 77.1166 30.0292 77.1166 30.5454C77.1166 31.0617 77.0348 31.5392 76.8713 31.9781C76.7078 32.4169 76.4798 32.7955 76.1872 33.1138C75.8946 33.4322 75.5461 33.6817 75.1417 33.8624C74.7372 34.0431 74.294 34.1334 73.8122 34.1334ZM88.2689 37.1794C88.9745 37.1794 89.6457 37.0976 90.2825 36.9342C90.9193 36.7707 91.4786 36.5211 91.9605 36.1856C92.4424 35.85 92.8297 35.4198 93.1222 34.8949C93.4148 34.3701 93.5611 33.7549 93.5611 33.0493C93.5611 32.2577 93.4105 31.6167 93.1093 31.1262C92.8082 30.6358 92.4209 30.2486 91.9476 29.9647C91.4743 29.6807 90.9451 29.4699 90.36 29.3322C89.7748 29.1946 89.1983 29.0827 88.6303 28.9967C87.701 28.859 87.0599 28.6869 86.7071 28.4804C86.3542 28.2739 86.1778 27.9814 86.1778 27.6028C86.1778 27.1726 86.3629 26.8757 86.7329 26.7122C87.1029 26.5487 87.5547 26.467 88.0882 26.467C88.7594 26.467 89.3575 26.5832 89.8824 26.8155C90.4073 27.0478 90.8677 27.3619 91.2635 27.7576C91.3668 27.8609 91.4614 27.9125 91.5475 27.9125C91.6335 27.9125 91.7368 27.8523 91.8573 27.7318L93.0964 26.1831C93.2513 25.9766 93.2341 25.7787 93.0448 25.5894C92.3908 25.0215 91.6335 24.5956 90.773 24.3116C89.9125 24.0277 88.9917 23.8857 88.0107 23.8857C87.2191 23.8857 86.5264 23.9933 85.9326 24.2084C85.3388 24.4235 84.8397 24.7074 84.4353 25.0602C84.0308 25.413 83.7297 25.8217 83.5317 26.2863C83.3338 26.7509 83.2349 27.2414 83.2349 27.7576C83.2349 28.446 83.3682 29.0268 83.635 29.5C83.9018 29.9733 84.2546 30.3648 84.6934 30.6745C85.1323 30.9843 85.6357 31.2295 86.2037 31.4102C86.7716 31.5909 87.3654 31.7242 87.9849 31.8103C88.7938 31.9307 89.4349 32.0684 89.9082 32.2233C90.3815 32.3782 90.6181 32.7051 90.6181 33.2042C90.6181 33.686 90.403 34.0345 89.9727 34.2496C89.5425 34.4647 89.0003 34.5723 88.3464 34.5723C87.5719 34.5723 86.8835 34.4432 86.2811 34.1851C85.6787 33.9269 85.171 33.557 84.758 33.0751C84.6891 32.9547 84.5945 32.8944 84.474 32.8944C84.3535 32.8944 84.2589 32.9547 84.19 33.0751L82.9767 34.7788C82.8046 35.0025 82.8218 35.1918 83.0283 35.3467C83.6995 35.9662 84.4611 36.4265 85.313 36.7276C86.1649 37.0288 87.1502 37.1794 88.2689 37.1794ZM101.461 37.1794C102.338 37.1794 103.117 37.0675 103.797 36.8438C104.477 36.6201 105.049 36.3448 105.514 36.0178C105.72 35.8801 105.772 35.6994 105.669 35.4757L104.868 33.5139C104.817 33.3418 104.722 33.2558 104.584 33.2558C104.533 33.2558 104.438 33.2902 104.3 33.3591C104.008 33.5828 103.677 33.7721 103.307 33.9269C102.936 34.0818 102.528 34.1593 102.08 34.1593C101.719 34.1593 101.418 34.099 101.177 33.9786C100.936 33.8581 100.751 33.6946 100.622 33.4881C100.493 33.2816 100.402 33.0321 100.351 32.7395C100.299 32.447 100.273 32.1286 100.273 31.7845V27.2156H103.939C104.214 27.2156 104.352 27.0779 104.352 26.8026V24.6859C104.352 24.4106 104.214 24.2729 103.939 24.2729H100.273V20.7882C100.273 20.5128 100.135 20.3751 99.8601 20.3751H97.3302C97.0548 20.3751 96.9171 20.5128 96.9171 20.7882V24.2729H95.2908C95.0154 24.2729 94.8777 24.4106 94.8777 24.6859V26.8026C94.8777 27.0779 95.0154 27.2156 95.2908 27.2156H96.9171V32.3007C96.9171 33.9183 97.3001 35.1358 98.0659 35.9533C98.8318 36.7707 99.9634 37.1794 101.461 37.1794ZM112.355 37.1794C113.215 37.1794 113.977 37.0116 114.64 36.676C115.302 36.3405 115.857 35.8715 116.305 35.2692V36.3792C116.305 36.6545 116.442 36.7922 116.718 36.7922H119.248C119.523 36.7922 119.661 36.6545 119.661 36.3792V24.6859C119.661 24.4106 119.523 24.2729 119.248 24.2729H116.718C116.442 24.2729 116.305 24.4106 116.305 24.6859V25.8217C115.857 25.2194 115.302 24.7461 114.64 24.402C113.977 24.0578 113.215 23.8857 112.355 23.8857C111.563 23.8857 110.802 24.0535 110.07 24.3891C109.339 24.7246 108.698 25.1893 108.147 25.783C107.596 26.3767 107.157 27.0779 106.83 27.8867C106.503 28.6955 106.34 29.5818 106.34 30.5454C106.34 31.4919 106.503 32.3739 106.83 33.1913C107.157 34.0087 107.596 34.7099 108.147 35.295C108.698 35.8801 109.339 36.3405 110.07 36.676C110.802 37.0116 111.563 37.1794 112.355 37.1794ZM113 34.1334C112.518 34.1334 112.08 34.0431 111.684 33.8624C111.288 33.6817 110.944 33.4322 110.651 33.1138C110.358 32.7955 110.13 32.4169 109.967 31.9781C109.803 31.5392 109.722 31.0617 109.722 30.5454C109.722 30.0292 109.803 29.5516 109.967 29.1128C110.13 28.674 110.358 28.2911 110.651 27.9642C110.944 27.6372 111.288 27.3834 111.684 27.2027C112.08 27.022 112.518 26.9316 113 26.9316C113.482 26.9316 113.925 27.022 114.33 27.2027C114.734 27.3834 115.083 27.6372 115.375 27.9642C115.668 28.2911 115.896 28.674 116.059 29.1128C116.223 29.5516 116.305 30.0292 116.305 30.5454C116.305 31.0617 116.223 31.5392 116.059 31.9781C115.896 32.4169 115.668 32.7955 115.375 33.1138C115.083 33.4322 114.734 33.6817 114.33 33.8624C113.925 34.0431 113.482 34.1334 113 34.1334ZM126.373 36.7922C126.648 36.7922 126.786 36.6545 126.786 36.3792V29.4355C126.837 28.9536 126.945 28.5406 127.108 28.1965C127.272 27.8523 127.479 27.5684 127.728 27.3446C127.978 27.1209 128.262 26.9574 128.58 26.8542C128.898 26.7509 129.23 26.6993 129.574 26.6993C130.28 26.6993 130.817 26.8972 131.187 27.293C131.557 27.6888 131.742 28.3772 131.742 29.3581V36.3792C131.742 36.6545 131.88 36.7922 132.155 36.7922H134.685C134.961 36.7922 135.098 36.6545 135.098 36.3792V28.7127C135.098 27.8007 134.978 27.0349 134.737 26.4154C134.496 25.7959 134.169 25.3011 133.756 24.9311C133.343 24.5611 132.874 24.2944 132.349 24.1309C131.824 23.9674 131.278 23.8857 130.71 23.8857C129.832 23.8857 129.058 24.075 128.386 24.4536C127.715 24.8322 127.182 25.3829 126.786 26.1056V24.6859C126.786 24.4106 126.648 24.2729 126.373 24.2729H123.843C123.567 24.2729 123.43 24.4106 123.43 24.6859V36.3792C123.43 36.6545 123.567 36.7922 123.843 36.7922H126.373ZM156.112 36.7922C156.388 36.7922 156.525 36.6545 156.525 36.3792V33.9269C156.525 33.6516 156.388 33.5139 156.112 33.5139H147.051V29.3839H155.002C155.278 29.3839 155.415 29.2462 155.415 28.9709V26.8542C155.415 26.5789 155.278 26.4412 155.002 26.4412H147.051V22.2595H156.112C156.388 22.2595 156.525 22.1218 156.525 21.8465V19.3943C156.525 19.1189 156.388 18.9812 156.112 18.9812H143.979C143.704 18.9812 143.566 19.1189 143.566 19.3943V36.3792C143.566 36.6545 143.704 36.7922 143.979 36.7922H156.112ZM164.786 37.1794C165.647 37.1794 166.408 37.0116 167.071 36.676C167.734 36.3405 168.289 35.8715 168.736 35.2692V36.3792C168.736 36.6545 168.874 36.7922 169.149 36.7922H171.679C171.955 36.7922 172.092 36.6545 172.092 36.3792V18.3617C172.092 18.0864 171.955 17.9487 171.679 17.9487H169.149C168.874 17.9487 168.736 18.0864 168.736 18.3617V25.8217C168.289 25.2194 167.734 24.7461 167.071 24.402C166.408 24.0578 165.647 23.8857 164.786 23.8857C163.995 23.8857 163.233 24.0535 162.502 24.3891C161.77 24.7246 161.129 25.1893 160.578 25.783C160.028 26.3767 159.589 27.0779 159.262 27.8867C158.935 28.6955 158.771 29.5818 158.771 30.5454C158.771 31.4919 158.935 32.3739 159.262 33.1913C159.589 34.0087 160.028 34.7099 160.578 35.295C161.129 35.8801 161.77 36.3405 162.502 36.676C163.233 37.0116 163.995 37.1794 164.786 37.1794ZM165.432 34.1334C164.95 34.1334 164.511 34.0431 164.115 33.8624C163.719 33.6817 163.375 33.4322 163.083 33.1138C162.79 32.7955 162.562 32.4169 162.398 31.9781C162.235 31.5392 162.153 31.0617 162.153 30.5454C162.153 30.0292 162.235 29.5516 162.398 29.1128C162.562 28.674 162.79 28.2911 163.083 27.9642C163.375 27.6372 163.719 27.3834 164.115 27.2027C164.511 27.022 164.95 26.9316 165.432 26.9316C165.914 26.9316 166.357 27.022 166.761 27.2027C167.166 27.3834 167.514 27.6372 167.807 27.9642C168.099 28.2911 168.327 28.674 168.491 29.1128C168.654 29.5516 168.736 30.0292 168.736 30.5454C168.736 31.0617 168.654 31.5392 168.491 31.9781C168.327 32.4169 168.099 32.7955 167.807 33.1138C167.514 33.4322 167.166 33.6817 166.761 33.8624C166.357 34.0431 165.914 34.1334 165.432 34.1334ZM179.708 37.1794C180.551 37.1794 181.304 36.9944 181.967 36.6244C182.629 36.2544 183.159 35.708 183.554 34.9853V36.3792C183.554 36.6545 183.692 36.7922 183.967 36.7922H186.497C186.773 36.7922 186.91 36.6545 186.91 36.3792V24.6859C186.91 24.4106 186.773 24.2729 186.497 24.2729H183.967C183.692 24.2729 183.554 24.4106 183.554 24.6859V31.6296C183.503 32.1114 183.395 32.5244 183.232 32.8686C183.068 33.2128 182.866 33.4967 182.625 33.7204C182.384 33.9442 182.113 34.1076 181.812 34.2109C181.511 34.3141 181.205 34.3658 180.895 34.3658C180.224 34.3658 179.708 34.1679 179.346 33.7721C178.985 33.3763 178.804 32.6879 178.804 31.707V24.6859C178.804 24.4106 178.667 24.2729 178.391 24.2729H175.861C175.586 24.2729 175.448 24.4106 175.448 24.6859V32.3782C175.448 33.273 175.569 34.0302 175.81 34.6497C176.051 35.2692 176.369 35.764 176.765 36.1339C177.161 36.5039 177.612 36.7707 178.12 36.9342C178.628 37.0976 179.157 37.1794 179.708 37.1794ZM196.127 37.1794C197.159 37.1794 198.084 36.9944 198.902 36.6244C199.719 36.2544 200.455 35.7166 201.109 35.0111C201.281 34.839 201.272 34.6497 201.083 34.4432L199.483 32.7654C199.414 32.6793 199.328 32.6363 199.224 32.6363C199.104 32.6363 198.992 32.6965 198.889 32.817C198.545 33.23 198.153 33.5527 197.714 33.785C197.275 34.0173 196.763 34.1334 196.178 34.1334C195.714 34.1334 195.283 34.0431 194.887 33.8624C194.492 33.6817 194.152 33.4279 193.868 33.1009C193.584 32.774 193.36 32.3911 193.196 31.9523C193.033 31.5134 192.951 31.0359 192.951 30.5196C192.951 30.0206 193.033 29.5516 193.196 29.1128C193.36 28.674 193.584 28.2911 193.868 27.9642C194.152 27.6372 194.492 27.3834 194.887 27.2027C195.283 27.022 195.714 26.9316 196.178 26.9316C196.763 26.9316 197.28 27.0478 197.727 27.2801C198.175 27.5124 198.57 27.8351 198.915 28.2481C199.018 28.3686 199.113 28.4288 199.199 28.4288C199.319 28.4288 199.414 28.3772 199.483 28.2739L201.083 26.5961C201.272 26.3896 201.272 26.2003 201.083 26.0282C200.429 25.3398 199.698 24.8107 198.889 24.4407C198.08 24.0707 197.159 23.8857 196.127 23.8857C195.18 23.8857 194.302 24.0578 193.493 24.402C192.684 24.7461 191.992 25.2194 191.415 25.8217C190.839 26.424 190.387 27.1295 190.06 27.9383C189.733 28.7471 189.569 29.6076 189.569 30.5196C189.569 31.4489 189.733 32.3222 190.06 33.1396C190.387 33.9571 190.839 34.6626 191.415 35.2563C191.992 35.85 192.684 36.3189 193.493 36.6631C194.302 37.0073 195.18 37.1794 196.127 37.1794ZM208.389 37.1794C209.25 37.1794 210.011 37.0116 210.674 36.676C211.336 36.3405 211.891 35.8715 212.339 35.2692V36.3792C212.339 36.6545 212.476 36.7922 212.752 36.7922H215.282C215.557 36.7922 215.695 36.6545 215.695 36.3792V24.6859C215.695 24.4106 215.557 24.2729 215.282 24.2729H212.752C212.476 24.2729 212.339 24.4106 212.339 24.6859V25.8217C211.891 25.2194 211.336 24.7461 210.674 24.402C210.011 24.0578 209.25 23.8857 208.389 23.8857C207.597 23.8857 206.836 24.0535 206.104 24.3891C205.373 24.7246 204.732 25.1893 204.181 25.783C203.63 26.3767 203.191 27.0779 202.864 27.8867C202.537 28.6955 202.374 29.5818 202.374 30.5454C202.374 31.4919 202.537 32.3739 202.864 33.1913C203.191 34.0087 203.63 34.7099 204.181 35.295C204.732 35.8801 205.373 36.3405 206.104 36.676C206.836 37.0116 207.597 37.1794 208.389 37.1794ZM209.034 34.1334C208.552 34.1334 208.114 34.0431 207.718 33.8624C207.322 33.6817 206.978 33.4322 206.685 33.1138C206.393 32.7955 206.165 32.4169 206.001 31.9781C205.838 31.5392 205.756 31.0617 205.756 30.5454C205.756 30.0292 205.838 29.5516 206.001 29.1128C206.165 28.674 206.393 28.2911 206.685 27.9642C206.978 27.6372 207.322 27.3834 207.718 27.2027C208.114 27.022 208.552 26.9316 209.034 26.9316C209.516 26.9316 209.959 27.022 210.364 27.2027C210.768 27.3834 211.117 27.6372 211.409 27.9642C211.702 28.2911 211.93 28.674 212.094 29.1128C212.257 29.5516 212.339 30.0292 212.339 30.5454C212.339 31.0617 212.257 31.5392 212.094 31.9781C211.93 32.4169 211.702 32.7955 211.409 33.1138C211.117 33.4322 210.768 33.6817 210.364 33.8624C209.959 34.0431 209.516 34.1334 209.034 34.1334ZM224.55 37.1794C225.427 37.1794 226.206 37.0675 226.886 36.8438C227.566 36.6201 228.138 36.3448 228.603 36.0178C228.809 35.8801 228.861 35.6994 228.757 35.4757L227.957 33.5139C227.906 33.3418 227.811 33.2558 227.673 33.2558C227.622 33.2558 227.527 33.2902 227.389 33.3591C227.097 33.5828 226.765 33.7721 226.395 33.9269C226.025 34.0818 225.617 34.1593 225.169 34.1593C224.808 34.1593 224.507 34.099 224.266 33.9786C224.025 33.8581 223.84 33.6946 223.711 33.4881C223.581 33.2816 223.491 33.0321 223.439 32.7395C223.388 32.447 223.362 32.1286 223.362 31.7845V27.2156H227.028C227.303 27.2156 227.441 27.0779 227.441 26.8026V24.6859C227.441 24.4106 227.303 24.2729 227.028 24.2729H223.362V20.7882C223.362 20.5128 223.224 20.3751 222.949 20.3751H220.419C220.144 20.3751 220.006 20.5128 220.006 20.7882V24.2729H218.38C218.104 24.2729 217.967 24.4106 217.967 24.6859V26.8026C217.967 27.0779 218.104 27.2156 218.38 27.2156H220.006V32.3007C220.006 33.9183 220.389 35.1358 221.155 35.9533C221.921 36.7707 223.052 37.1794 224.55 37.1794ZM232.243 22.1821C232.811 22.1821 233.288 21.9885 233.675 21.6013C234.063 21.2141 234.256 20.7365 234.256 20.1686C234.256 19.6352 234.063 19.1791 233.675 18.8006C233.288 18.422 232.811 18.2327 232.243 18.2327C231.692 18.2327 231.223 18.422 230.836 18.8006C230.448 19.1791 230.255 19.6352 230.255 20.1686C230.255 20.7365 230.448 21.2141 230.836 21.6013C231.223 21.9885 231.692 22.1821 232.243 22.1821ZM233.508 36.7922C233.783 36.7922 233.921 36.6545 233.921 36.3792V24.6859C233.921 24.4106 233.783 24.2729 233.508 24.2729H230.978C230.702 24.2729 230.565 24.4106 230.565 24.6859V36.3792C230.565 36.6545 230.702 36.7922 230.978 36.7922H233.508ZM243.318 37.1794C244.281 37.1794 245.172 37.0073 245.989 36.6631C246.807 36.3189 247.517 35.8457 248.119 35.2434C248.722 34.6411 249.191 33.9398 249.526 33.1396C249.862 32.3394 250.03 31.4747 250.03 30.5454C250.03 29.6162 249.862 28.7471 249.526 27.9383C249.191 27.1295 248.722 26.424 248.119 25.8217C247.517 25.2194 246.807 24.7461 245.989 24.402C245.172 24.0578 244.281 23.8857 243.318 23.8857C242.354 23.8857 241.463 24.0578 240.646 24.402C239.828 24.7461 239.118 25.2194 238.516 25.8217C237.913 26.424 237.444 27.1295 237.109 27.9383C236.773 28.7471 236.605 29.6162 236.605 30.5454C236.605 31.4747 236.773 32.3394 237.109 33.1396C237.444 33.9398 237.913 34.6411 238.516 35.2434C239.118 35.8457 239.828 36.3189 240.646 36.6631C241.463 37.0073 242.354 37.1794 243.318 37.1794ZM243.318 34.1076C242.836 34.1076 242.397 34.0173 242.001 33.8366C241.605 33.6559 241.261 33.4107 240.968 33.1009C240.676 32.7912 240.448 32.4169 240.284 31.9781C240.121 31.5392 240.039 31.0617 240.039 30.5454C240.039 30.0292 240.121 29.5516 240.284 29.1128C240.448 28.674 240.676 28.2954 240.968 27.9771C241.261 27.6587 241.605 27.4092 242.001 27.2285C242.397 27.0478 242.836 26.9574 243.318 26.9574C243.799 26.9574 244.238 27.0478 244.634 27.2285C245.03 27.4092 245.374 27.6587 245.667 27.9771C245.959 28.2954 246.187 28.674 246.351 29.1128C246.514 29.5516 246.596 30.0292 246.596 30.5454C246.596 31.0617 246.514 31.5392 246.351 31.9781C246.187 32.4169 245.959 32.7912 245.667 33.1009C245.374 33.4107 245.03 33.6559 244.634 33.8366C244.238 34.0173 243.799 34.1076 243.318 34.1076ZM255.632 36.7922C255.907 36.7922 256.045 36.6545 256.045 36.3792V29.4355C256.096 28.9536 256.204 28.5406 256.367 28.1965C256.531 27.8523 256.737 27.5684 256.987 27.3446C257.236 27.1209 257.52 26.9574 257.839 26.8542C258.157 26.7509 258.488 26.6993 258.833 26.6993C259.538 26.6993 260.076 26.8972 260.446 27.293C260.816 27.6888 261.001 28.3772 261.001 29.3581V36.3792C261.001 36.6545 261.139 36.7922 261.414 36.7922H263.944C264.22 36.7922 264.357 36.6545 264.357 36.3792V28.7127C264.357 27.8007 264.237 27.0349 263.996 26.4154C263.755 25.7959 263.428 25.3011 263.015 24.9311C262.602 24.5611 262.133 24.2944 261.608 24.1309C261.083 23.9674 260.537 23.8857 259.969 23.8857C259.091 23.8857 258.316 24.075 257.645 24.4536C256.974 24.8322 256.44 25.3829 256.045 26.1056V24.6859C256.045 24.4106 255.907 24.2729 255.632 24.2729H253.102C252.826 24.2729 252.689 24.4106 252.689 24.6859V36.3792C252.689 36.6545 252.826 36.7922 253.102 36.7922H255.632Z" fill="white"/>
</svg>
