<svg width="265" height="50" viewBox="0 0 265 50" fill="none"
  xmlns="http://www.w3.org/2000/svg">
  <path d="M3.84463 17.0095L19.2321 25.8797C20.0247 26.3365 21.0006 26.3365 21.7932 25.8797L37.1807 17.0095C38.4076 16.3023 39.9755 16.7236 40.6827 17.9504C40.9072 18.3399 41.0254 18.7815 41.0254 19.231V37.0894C41.0254 38.0061 40.536 38.8531 39.7418 39.3109L21.7931 49.6573C21.0005 50.1142 20.0246 50.1142 19.232 49.6573L1.28355 39.311C0.489367 38.8532 0 38.0062 0 37.0896L0 19.231C0 17.8149 1.14798 16.6669 2.56409 16.6669C3.01359 16.6669 3.4552 16.7851 3.84463 17.0095Z" fill="#3AC2ED"/>
  <path d="M28.8466 16.4952L21.1529 12.0602C20.7566 11.8317 20.2686 11.8317 19.8723 12.0602L12.1785 16.4952C11.5651 16.8488 10.7812 16.6382 10.4276 16.0248C10.3153 15.8301 10.2562 15.6093 10.2562 15.3845V6.45528C10.2562 5.99694 10.5009 5.57347 10.898 5.34457L19.8724 0.171326C20.2687 -0.0571091 20.7566 -0.0571089 21.1529 0.171327L30.1271 5.3445C30.5242 5.5734 30.7689 5.99688 30.7689 6.45522V15.3845C30.7689 16.0926 30.1949 16.6666 29.4869 16.6666C29.2621 16.6666 29.0413 16.6075 28.8466 16.4952Z" fill="#FF5E78"/>
  <path d="M55.8703 36.792C57.2471 36.792 58.5035 36.5726 59.6394 36.1338C60.7753 35.695 61.7434 35.0841 62.5436 34.3011C63.3439 33.5181 63.9635 32.5759 64.4024 31.4746C64.8412 30.3732 65.0607 29.16 65.0607 27.835C65.0607 26.5443 64.8412 25.3569 64.4024 24.2728C63.9635 23.1886 63.3439 22.2551 62.5436 21.4721C61.7434 20.6891 60.7753 20.0782 59.6394 19.6393C58.5035 19.2005 57.2471 18.9811 55.8703 18.9811H48.8743C48.5989 18.9811 48.4612 19.1188 48.4612 19.3941V36.379C48.4612 36.6544 48.5989 36.792 48.8743 36.792H55.8703ZM55.638 33.5138H51.9463V22.2594H55.638C56.5157 22.2594 57.3117 22.3927 58.0259 22.6595C58.7401 22.9262 59.3468 23.3005 59.8459 23.7823C60.345 24.2642 60.7279 24.8493 60.9947 25.5376C61.2615 26.226 61.3948 26.9917 61.3948 27.835C61.3948 28.7126 61.2615 29.4999 60.9947 30.1968C60.7279 30.8938 60.345 31.4875 59.8459 31.9779C59.3468 32.4684 58.7401 32.847 58.0259 33.1137C57.3117 33.3804 56.5157 33.5138 55.638 33.5138ZM73.1668 37.1792C74.0273 37.1792 74.7888 37.0115 75.4514 36.6759C76.114 36.3403 76.6691 35.8714 77.1166 35.2691V36.379C77.1166 36.6544 77.2542 36.792 77.5296 36.792H80.0595C80.3349 36.792 80.4726 36.6544 80.4726 36.379V24.6858C80.4726 24.4104 80.3349 24.2728 80.0595 24.2728H77.5296C77.2542 24.2728 77.1166 24.4104 77.1166 24.6858V25.8215C76.6691 25.2192 76.114 24.746 75.4514 24.4018C74.7888 24.0577 74.0273 23.8856 73.1668 23.8856C72.3751 23.8856 71.6135 24.0534 70.8821 24.3889C70.1506 24.7245 69.5096 25.1891 68.9588 25.7828C68.4081 26.3765 67.9692 27.0778 67.6422 27.8866C67.3152 28.6954 67.1517 29.5816 67.1517 30.5453C67.1517 31.4918 67.3152 32.3737 67.6422 33.1911C67.9692 34.0086 68.4081 34.7098 68.9588 35.2949C69.5096 35.88 70.1506 36.3403 70.8821 36.6759C71.6135 37.0115 72.3751 37.1792 73.1668 37.1792ZM73.8122 34.1333C73.3303 34.1333 72.8914 34.043 72.4956 33.8623C72.0997 33.6816 71.7555 33.4321 71.4629 33.1137C71.1704 32.7953 70.9423 32.4168 70.7788 31.9779C70.6153 31.5391 70.5336 31.0616 70.5336 30.5453C70.5336 30.0291 70.6153 29.5515 70.7788 29.1127C70.9423 28.6739 71.1704 28.291 71.4629 27.964C71.7555 27.6371 72.0997 27.3832 72.4956 27.2025C72.8914 27.0219 73.3303 26.9315 73.8122 26.9315C74.294 26.9315 74.7372 27.0219 75.1417 27.2025C75.5461 27.3832 75.8946 27.6371 76.1872 27.964C76.4798 28.291 76.7078 28.6739 76.8713 29.1127C77.0348 29.5515 77.1166 30.0291 77.1166 30.5453C77.1166 31.0616 77.0348 31.5391 76.8713 31.9779C76.7078 32.4168 76.4798 32.7953 76.1872 33.1137C75.8946 33.4321 75.5461 33.6816 75.1417 33.8623C74.7372 34.043 74.294 34.1333 73.8122 34.1333ZM88.2689 37.1792C88.9745 37.1792 89.6457 37.0975 90.2825 36.934C90.9193 36.7705 91.4786 36.521 91.9605 36.1854C92.4424 35.8499 92.8297 35.4197 93.1222 34.8948C93.4148 34.3699 93.5611 33.7547 93.5611 33.0492C93.5611 32.2576 93.4105 31.6166 93.1093 31.1261C92.8082 30.6357 92.4209 30.2485 91.9476 29.9645C91.4743 29.6806 90.9451 29.4698 90.36 29.3321C89.7748 29.1944 89.1983 29.0826 88.6303 28.9965C87.701 28.8589 87.0599 28.6868 86.7071 28.4803C86.3542 28.2738 86.1778 27.9812 86.1778 27.6026C86.1778 27.1724 86.3629 26.8756 86.7329 26.7121C87.1029 26.5486 87.5547 26.4669 88.0882 26.4669C88.7594 26.4669 89.3575 26.583 89.8824 26.8153C90.4073 27.0477 90.8677 27.3617 91.2635 27.7575C91.3668 27.8608 91.4614 27.9124 91.5475 27.9124C91.6335 27.9124 91.7368 27.8522 91.8573 27.7317L93.0964 26.1829C93.2513 25.9764 93.2341 25.7785 93.0448 25.5892C92.3908 25.0213 91.6335 24.5954 90.773 24.3115C89.9125 24.0275 88.9917 23.8856 88.0107 23.8856C87.2191 23.8856 86.5264 23.9931 85.9326 24.2082C85.3388 24.4233 84.8397 24.7073 84.4353 25.0601C84.0308 25.4128 83.7297 25.8215 83.5317 26.2862C83.3338 26.7508 83.2349 27.2413 83.2349 27.7575C83.2349 28.4459 83.3682 29.0267 83.635 29.4999C83.9018 29.9731 84.2546 30.3646 84.6934 30.6744C85.1323 30.9841 85.6357 31.2294 86.2037 31.4101C86.7716 31.5907 87.3654 31.7241 87.9849 31.8102C88.7938 31.9306 89.4349 32.0683 89.9082 32.2232C90.3815 32.378 90.6181 32.705 90.6181 33.2041C90.6181 33.6859 90.403 34.0344 89.9727 34.2495C89.5425 34.4646 89.0003 34.5721 88.3464 34.5721C87.5719 34.5721 86.8835 34.4431 86.2811 34.1849C85.6787 33.9268 85.171 33.5568 84.758 33.075C84.6891 32.9545 84.5945 32.8943 84.474 32.8943C84.3535 32.8943 84.2589 32.9545 84.19 33.075L82.9767 34.7786C82.8046 35.0024 82.8218 35.1916 83.0283 35.3465C83.6995 35.966 84.4611 36.4264 85.313 36.7275C86.1649 37.0287 87.1502 37.1792 88.2689 37.1792ZM101.461 37.1792C102.338 37.1792 103.117 37.0674 103.797 36.8437C104.477 36.62 105.049 36.3446 105.514 36.0177C105.72 35.88 105.772 35.6993 105.669 35.4756L104.868 33.5138C104.817 33.3417 104.722 33.2557 104.584 33.2557C104.533 33.2557 104.438 33.2901 104.3 33.3589C104.008 33.5826 103.677 33.7719 103.307 33.9268C102.936 34.0817 102.528 34.1591 102.08 34.1591C101.719 34.1591 101.418 34.0989 101.177 33.9784C100.936 33.858 100.751 33.6945 100.622 33.488C100.493 33.2815 100.402 33.032 100.351 32.7394C100.299 32.4469 100.273 32.1285 100.273 31.7843V27.2154H103.939C104.214 27.2154 104.352 27.0778 104.352 26.8024V24.6858C104.352 24.4104 104.214 24.2728 103.939 24.2728H100.273V20.788C100.273 20.5127 100.135 20.375 99.8601 20.375H97.3302C97.0548 20.375 96.9171 20.5127 96.9171 20.788V24.2728H95.2908C95.0154 24.2728 94.8777 24.4104 94.8777 24.6858V26.8024C94.8777 27.0778 95.0154 27.2154 95.2908 27.2154H96.9171V32.3006C96.9171 33.9182 97.3001 35.1357 98.0659 35.9531C98.8318 36.7705 99.9634 37.1792 101.461 37.1792ZM112.355 37.1792C113.215 37.1792 113.977 37.0115 114.64 36.6759C115.302 36.3403 115.857 35.8714 116.305 35.2691V36.379C116.305 36.6544 116.442 36.792 116.718 36.792H119.248C119.523 36.792 119.661 36.6544 119.661 36.379V24.6858C119.661 24.4104 119.523 24.2728 119.248 24.2728H116.718C116.442 24.2728 116.305 24.4104 116.305 24.6858V25.8215C115.857 25.2192 115.302 24.746 114.64 24.4018C113.977 24.0577 113.215 23.8856 112.355 23.8856C111.563 23.8856 110.802 24.0534 110.07 24.3889C109.339 24.7245 108.698 25.1891 108.147 25.7828C107.596 26.3765 107.157 27.0778 106.83 27.8866C106.503 28.6954 106.34 29.5816 106.34 30.5453C106.34 31.4918 106.503 32.3737 106.83 33.1911C107.157 34.0086 107.596 34.7098 108.147 35.2949C108.698 35.88 109.339 36.3403 110.07 36.6759C110.802 37.0115 111.563 37.1792 112.355 37.1792ZM113 34.1333C112.518 34.1333 112.08 34.043 111.684 33.8623C111.288 33.6816 110.944 33.4321 110.651 33.1137C110.358 32.7953 110.13 32.4168 109.967 31.9779C109.803 31.5391 109.722 31.0616 109.722 30.5453C109.722 30.0291 109.803 29.5515 109.967 29.1127C110.13 28.6739 110.358 28.291 110.651 27.964C110.944 27.6371 111.288 27.3832 111.684 27.2025C112.08 27.0219 112.518 26.9315 113 26.9315C113.482 26.9315 113.925 27.0219 114.33 27.2025C114.734 27.3832 115.083 27.6371 115.375 27.964C115.668 28.291 115.896 28.6739 116.059 29.1127C116.223 29.5515 116.305 30.0291 116.305 30.5453C116.305 31.0616 116.223 31.5391 116.059 31.9779C115.896 32.4168 115.668 32.7953 115.375 33.1137C115.083 33.4321 114.734 33.6816 114.33 33.8623C113.925 34.043 113.482 34.1333 113 34.1333ZM126.373 36.792C126.648 36.792 126.786 36.6544 126.786 36.379V29.4354C126.837 28.9535 126.945 28.5405 127.108 28.1963C127.272 27.8522 127.479 27.5682 127.728 27.3445C127.978 27.1208 128.262 26.9573 128.58 26.8541C128.898 26.7508 129.23 26.6992 129.574 26.6992C130.28 26.6992 130.817 26.8971 131.187 27.2929C131.557 27.6887 131.742 28.377 131.742 29.3579V36.379C131.742 36.6544 131.88 36.792 132.155 36.792H134.685C134.961 36.792 135.098 36.6544 135.098 36.379V28.7126C135.098 27.8005 134.978 27.0348 134.737 26.4152C134.496 25.7957 134.169 25.301 133.756 24.931C133.343 24.561 132.874 24.2943 132.349 24.1308C131.824 23.9673 131.278 23.8856 130.71 23.8856C129.832 23.8856 129.058 24.0749 128.386 24.4535C127.715 24.8321 127.182 25.3827 126.786 26.1055V24.6858C126.786 24.4104 126.648 24.2728 126.373 24.2728H123.843C123.567 24.2728 123.43 24.4104 123.43 24.6858V36.379C123.43 36.6544 123.567 36.792 123.843 36.792H126.373ZM156.112 36.792C156.388 36.792 156.525 36.6544 156.525 36.379V33.9268C156.525 33.6515 156.388 33.5138 156.112 33.5138H147.051V29.3837H155.002C155.278 29.3837 155.415 29.2461 155.415 28.9707V26.8541C155.415 26.5787 155.278 26.4411 155.002 26.4411H147.051V22.2594H156.112C156.388 22.2594 156.525 22.1217 156.525 21.8464V19.3941C156.525 19.1188 156.388 18.9811 156.112 18.9811H143.979C143.704 18.9811 143.566 19.1188 143.566 19.3941V36.379C143.566 36.6544 143.704 36.792 143.979 36.792H156.112ZM164.786 37.1792C165.647 37.1792 166.408 37.0115 167.071 36.6759C167.734 36.3403 168.289 35.8714 168.736 35.2691V36.379C168.736 36.6544 168.874 36.792 169.149 36.792H171.679C171.955 36.792 172.092 36.6544 172.092 36.379V18.3616C172.092 18.0863 171.955 17.9486 171.679 17.9486H169.149C168.874 17.9486 168.736 18.0863 168.736 18.3616V25.8215C168.289 25.2192 167.734 24.746 167.071 24.4018C166.408 24.0577 165.647 23.8856 164.786 23.8856C163.995 23.8856 163.233 24.0534 162.502 24.3889C161.77 24.7245 161.129 25.1891 160.578 25.7828C160.028 26.3765 159.589 27.0778 159.262 27.8866C158.935 28.6954 158.771 29.5816 158.771 30.5453C158.771 31.4918 158.935 32.3737 159.262 33.1911C159.589 34.0086 160.028 34.7098 160.578 35.2949C161.129 35.88 161.77 36.3403 162.502 36.6759C163.233 37.0115 163.995 37.1792 164.786 37.1792ZM165.432 34.1333C164.95 34.1333 164.511 34.043 164.115 33.8623C163.719 33.6816 163.375 33.4321 163.083 33.1137C162.79 32.7953 162.562 32.4168 162.398 31.9779C162.235 31.5391 162.153 31.0616 162.153 30.5453C162.153 30.0291 162.235 29.5515 162.398 29.1127C162.562 28.6739 162.79 28.291 163.083 27.964C163.375 27.6371 163.719 27.3832 164.115 27.2025C164.511 27.0219 164.95 26.9315 165.432 26.9315C165.914 26.9315 166.357 27.0219 166.761 27.2025C167.166 27.3832 167.514 27.6371 167.807 27.964C168.099 28.291 168.327 28.6739 168.491 29.1127C168.654 29.5515 168.736 30.0291 168.736 30.5453C168.736 31.0616 168.654 31.5391 168.491 31.9779C168.327 32.4168 168.099 32.7953 167.807 33.1137C167.514 33.4321 167.166 33.6816 166.761 33.8623C166.357 34.043 165.914 34.1333 165.432 34.1333ZM179.708 37.1792C180.551 37.1792 181.304 36.9943 181.967 36.6243C182.629 36.2543 183.159 35.7079 183.554 34.9851V36.379C183.554 36.6544 183.692 36.792 183.967 36.792H186.497C186.773 36.792 186.91 36.6544 186.91 36.379V24.6858C186.91 24.4104 186.773 24.2728 186.497 24.2728H183.967C183.692 24.2728 183.554 24.4104 183.554 24.6858V31.6295C183.503 32.1113 183.395 32.5243 183.232 32.8685C183.068 33.2127 182.866 33.4966 182.625 33.7203C182.384 33.944 182.113 34.1075 181.812 34.2108C181.511 34.314 181.205 34.3656 180.895 34.3656C180.224 34.3656 179.708 34.1677 179.346 33.7719C178.985 33.3761 178.804 32.6878 178.804 31.7069V24.6858C178.804 24.4104 178.667 24.2728 178.391 24.2728H175.861C175.586 24.2728 175.448 24.4104 175.448 24.6858V32.378C175.448 33.2729 175.569 34.0301 175.81 34.6496C176.051 35.2691 176.369 35.7638 176.765 36.1338C177.161 36.5038 177.612 36.7705 178.12 36.934C178.628 37.0975 179.157 37.1792 179.708 37.1792ZM196.127 37.1792C197.159 37.1792 198.084 36.9943 198.902 36.6243C199.719 36.2543 200.455 35.7165 201.109 35.011C201.281 34.8389 201.272 34.6496 201.083 34.4431L199.483 32.7652C199.414 32.6792 199.328 32.6362 199.224 32.6362C199.104 32.6362 198.992 32.6964 198.889 32.8169C198.545 33.2299 198.153 33.5525 197.714 33.7848C197.275 34.0172 196.763 34.1333 196.178 34.1333C195.714 34.1333 195.283 34.043 194.887 33.8623C194.492 33.6816 194.152 33.4278 193.868 33.1008C193.584 32.7738 193.36 32.3909 193.196 31.9521C193.033 31.5133 192.951 31.0358 192.951 30.5195C192.951 30.0205 193.033 29.5515 193.196 29.1127C193.36 28.6739 193.584 28.291 193.868 27.964C194.152 27.6371 194.492 27.3832 194.887 27.2025C195.283 27.0219 195.714 26.9315 196.178 26.9315C196.763 26.9315 197.28 27.0477 197.727 27.28C198.175 27.5123 198.57 27.835 198.915 28.248C199.018 28.3684 199.113 28.4287 199.199 28.4287C199.319 28.4287 199.414 28.377 199.483 28.2738L201.083 26.5959C201.272 26.3894 201.272 26.2001 201.083 26.0281C200.429 25.3397 199.698 24.8105 198.889 24.4406C198.08 24.0706 197.159 23.8856 196.127 23.8856C195.18 23.8856 194.302 24.0577 193.493 24.4018C192.684 24.746 191.992 25.2192 191.415 25.8215C190.839 26.4239 190.387 27.1294 190.06 27.9382C189.733 28.747 189.569 29.6074 189.569 30.5195C189.569 31.4488 189.733 32.3221 190.06 33.1395C190.387 33.9569 190.839 34.6625 191.415 35.2562C191.992 35.8499 192.684 36.3188 193.493 36.663C194.302 37.0072 195.18 37.1792 196.127 37.1792ZM208.389 37.1792C209.25 37.1792 210.011 37.0115 210.674 36.6759C211.336 36.3403 211.891 35.8714 212.339 35.2691V36.379C212.339 36.6544 212.476 36.792 212.752 36.792H215.282C215.557 36.792 215.695 36.6544 215.695 36.379V24.6858C215.695 24.4104 215.557 24.2728 215.282 24.2728H212.752C212.476 24.2728 212.339 24.4104 212.339 24.6858V25.8215C211.891 25.2192 211.336 24.746 210.674 24.4018C210.011 24.0577 209.25 23.8856 208.389 23.8856C207.597 23.8856 206.836 24.0534 206.104 24.3889C205.373 24.7245 204.732 25.1891 204.181 25.7828C203.63 26.3765 203.191 27.0778 202.864 27.8866C202.537 28.6954 202.374 29.5816 202.374 30.5453C202.374 31.4918 202.537 32.3737 202.864 33.1911C203.191 34.0086 203.63 34.7098 204.181 35.2949C204.732 35.88 205.373 36.3403 206.104 36.6759C206.836 37.0115 207.597 37.1792 208.389 37.1792ZM209.034 34.1333C208.552 34.1333 208.114 34.043 207.718 33.8623C207.322 33.6816 206.978 33.4321 206.685 33.1137C206.393 32.7953 206.165 32.4168 206.001 31.9779C205.838 31.5391 205.756 31.0616 205.756 30.5453C205.756 30.0291 205.838 29.5515 206.001 29.1127C206.165 28.6739 206.393 28.291 206.685 27.964C206.978 27.6371 207.322 27.3832 207.718 27.2025C208.114 27.0219 208.552 26.9315 209.034 26.9315C209.516 26.9315 209.959 27.0219 210.364 27.2025C210.768 27.3832 211.117 27.6371 211.409 27.964C211.702 28.291 211.93 28.6739 212.094 29.1127C212.257 29.5515 212.339 30.0291 212.339 30.5453C212.339 31.0616 212.257 31.5391 212.094 31.9779C211.93 32.4168 211.702 32.7953 211.409 33.1137C211.117 33.4321 210.768 33.6816 210.364 33.8623C209.959 34.043 209.516 34.1333 209.034 34.1333ZM224.55 37.1792C225.427 37.1792 226.206 37.0674 226.886 36.8437C227.566 36.62 228.138 36.3446 228.603 36.0177C228.809 35.88 228.861 35.6993 228.757 35.4756L227.957 33.5138C227.906 33.3417 227.811 33.2557 227.673 33.2557C227.622 33.2557 227.527 33.2901 227.389 33.3589C227.097 33.5826 226.765 33.7719 226.395 33.9268C226.025 34.0817 225.617 34.1591 225.169 34.1591C224.808 34.1591 224.507 34.0989 224.266 33.9784C224.025 33.858 223.84 33.6945 223.711 33.488C223.581 33.2815 223.491 33.032 223.439 32.7394C223.388 32.4469 223.362 32.1285 223.362 31.7843V27.2154H227.028C227.303 27.2154 227.441 27.0778 227.441 26.8024V24.6858C227.441 24.4104 227.303 24.2728 227.028 24.2728H223.362V20.788C223.362 20.5127 223.224 20.375 222.949 20.375H220.419C220.144 20.375 220.006 20.5127 220.006 20.788V24.2728H218.38C218.104 24.2728 217.967 24.4104 217.967 24.6858V26.8024C217.967 27.0778 218.104 27.2154 218.38 27.2154H220.006V32.3006C220.006 33.9182 220.389 35.1357 221.155 35.9531C221.921 36.7705 223.052 37.1792 224.55 37.1792ZM232.243 22.1819C232.811 22.1819 233.288 21.9883 233.675 21.6011C234.063 21.2139 234.256 20.7364 234.256 20.1685C234.256 19.635 234.063 19.179 233.675 18.8004C233.288 18.4218 232.811 18.2325 232.243 18.2325C231.692 18.2325 231.223 18.4218 230.836 18.8004C230.448 19.179 230.255 19.635 230.255 20.1685C230.255 20.7364 230.448 21.2139 230.836 21.6011C231.223 21.9883 231.692 22.1819 232.243 22.1819ZM233.508 36.792C233.783 36.792 233.921 36.6544 233.921 36.379V24.6858C233.921 24.4104 233.783 24.2728 233.508 24.2728H230.978C230.702 24.2728 230.565 24.4104 230.565 24.6858V36.379C230.565 36.6544 230.702 36.792 230.978 36.792H233.508ZM243.318 37.1792C244.281 37.1792 245.172 37.0072 245.989 36.663C246.807 36.3188 247.517 35.8456 248.119 35.2433C248.722 34.641 249.191 33.9397 249.526 33.1395C249.862 32.3393 250.03 31.4746 250.03 30.5453C250.03 29.6161 249.862 28.747 249.526 27.9382C249.191 27.1294 248.722 26.4239 248.119 25.8215C247.517 25.2192 246.807 24.746 245.989 24.4018C245.172 24.0577 244.281 23.8856 243.318 23.8856C242.354 23.8856 241.463 24.0577 240.646 24.4018C239.828 24.746 239.118 25.2192 238.516 25.8215C237.913 26.4239 237.444 27.1294 237.109 27.9382C236.773 28.747 236.605 29.6161 236.605 30.5453C236.605 31.4746 236.773 32.3393 237.109 33.1395C237.444 33.9397 237.913 34.641 238.516 35.2433C239.118 35.8456 239.828 36.3188 240.646 36.663C241.463 37.0072 242.354 37.1792 243.318 37.1792ZM243.318 34.1075C242.836 34.1075 242.397 34.0172 242.001 33.8365C241.605 33.6558 241.261 33.4106 240.968 33.1008C240.676 32.791 240.448 32.4168 240.284 31.9779C240.121 31.5391 240.039 31.0616 240.039 30.5453C240.039 30.0291 240.121 29.5515 240.284 29.1127C240.448 28.6739 240.676 28.2953 240.968 27.9769C241.261 27.6586 241.605 27.409 242.001 27.2284C242.397 27.0477 242.836 26.9573 243.318 26.9573C243.799 26.9573 244.238 27.0477 244.634 27.2284C245.03 27.409 245.374 27.6586 245.667 27.9769C245.959 28.2953 246.187 28.6739 246.351 29.1127C246.514 29.5515 246.596 30.0291 246.596 30.5453C246.596 31.0616 246.514 31.5391 246.351 31.9779C246.187 32.4168 245.959 32.791 245.667 33.1008C245.374 33.4106 245.03 33.6558 244.634 33.8365C244.238 34.0172 243.799 34.1075 243.318 34.1075ZM255.632 36.792C255.907 36.792 256.045 36.6544 256.045 36.379V29.4354C256.096 28.9535 256.204 28.5405 256.367 28.1963C256.531 27.8522 256.737 27.5682 256.987 27.3445C257.236 27.1208 257.52 26.9573 257.839 26.8541C258.157 26.7508 258.488 26.6992 258.833 26.6992C259.538 26.6992 260.076 26.8971 260.446 27.2929C260.816 27.6887 261.001 28.377 261.001 29.3579V36.379C261.001 36.6544 261.139 36.792 261.414 36.792H263.944C264.22 36.792 264.357 36.6544 264.357 36.379V28.7126C264.357 27.8005 264.237 27.0348 263.996 26.4152C263.755 25.7957 263.428 25.301 263.015 24.931C262.602 24.561 262.133 24.2943 261.608 24.1308C261.083 23.9673 260.537 23.8856 259.969 23.8856C259.091 23.8856 258.316 24.0749 257.645 24.4535C256.974 24.8321 256.44 25.3827 256.045 26.1055V24.6858C256.045 24.4104 255.907 24.2728 255.632 24.2728H253.102C252.826 24.2728 252.689 24.4104 252.689 24.6858V36.379C252.689 36.6544 252.826 36.792 253.102 36.792H255.632Z" fill="#27313A"/>
</svg>
