<svg width="26" height="32" viewBox="0 0 26 32" fill="none"
  xmlns="http://www.w3.org/2000/svg">
  <path d="M2.43655 10.7799L12.1884 16.4013C12.6907 16.6909 13.3092 16.6909 13.8115 16.4013L23.5635 10.7799C24.341 10.3317 25.3346 10.5986 25.7828 11.3762C25.9251 11.623 26 11.9028 26 12.1877V23.5056C26 24.0865 25.6899 24.6233 25.1865 24.9134L13.8114 31.4705C13.3092 31.7601 12.6906 31.7601 12.1884 31.4705L0.813453 24.9135C0.310139 24.6234 0 24.0866 0 23.5057L0 12.1877C0 11.2902 0.727537 10.5627 1.625 10.5627C1.90988 10.5627 2.18974 10.6376 2.43655 10.7799Z" fill="#FF5E78"/>
  <path d="M18.2817 10.4539L13.4058 7.64318C13.1546 7.49841 12.8454 7.4984 12.5942 7.64318L7.71827 10.4539C7.32951 10.678 6.83268 10.5445 6.60858 10.1558C6.53745 10.0324 6.5 9.89244 6.5 9.75V4.09106C6.5 3.80059 6.65507 3.53221 6.90673 3.38714L12.5943 0.108579C12.8454 -0.0361931 13.1547 -0.036193 13.4058 0.108579L19.0933 3.3871C19.3449 3.53217 19.5 3.80055 19.5 4.09102V9.75C19.5 10.1987 19.1362 10.5625 18.6875 10.5625C18.5451 10.5625 18.4051 10.5251 18.2817 10.4539Z" fill="#3AC2ED"/>
</svg>
