<svg width="359" height="380" viewBox="0 0 359 380" fill="none"
  xmlns="http://www.w3.org/2000/svg">
  <path opacity="0.1" fill-rule="evenodd" clip-rule="evenodd" d="M79.5184 150.403C84.6331 147.436 84.6329 140.021 79.5181 137.054L12.5772 98.2227C7.46089 95.2548 1.06448 98.9633 1.06448 104.897V182.564C1.06448 188.499 7.46122 192.207 12.5775 189.239L79.5184 150.403ZM81.2285 118.053C86.3448 121.021 92.7417 117.313 92.7417 111.378V49.7139C92.7417 43.7799 86.3456 40.0714 81.2292 43.039L28.08 73.867C22.965 76.8338 22.9646 84.249 28.0792 87.2165L81.2285 118.053ZM87.0012 254.475C92.1175 257.444 98.5143 253.735 98.5143 247.801V166.024C98.5143 160.09 92.1179 156.381 87.0015 159.349L16.5178 200.235C11.4029 203.202 11.4027 210.617 16.5174 213.585L87.0012 254.475ZM81.6395 276.766C86.7544 273.798 86.7542 266.383 81.6392 263.416L11.5126 222.739C6.39627 219.771 0 223.479 0 229.413V310.773C0 316.707 6.3966 320.415 11.5129 317.447L81.6395 276.766ZM170.287 87.2163C175.402 84.2488 175.401 76.834 170.286 73.8672L130.559 50.8228C125.443 47.855 119.046 51.5635 119.046 57.4976V103.594C119.046 109.529 125.444 113.237 130.56 110.268L170.287 87.2163ZM187.203 176.14C192.319 179.108 198.716 175.4 198.716 169.465V117.987C198.716 112.053 192.319 108.344 187.203 111.313L142.838 137.054C137.724 140.021 137.724 147.436 142.839 150.403L187.203 176.14ZM185.731 213.584C190.845 210.617 190.845 203.202 185.731 200.235L122.826 163.741C117.709 160.772 111.313 164.481 111.313 170.415V243.404C111.313 249.338 117.709 253.047 122.826 250.079L185.731 213.584ZM85.6037 378.4C90.72 381.368 97.1167 377.66 97.1167 371.725V294.824C97.1167 288.89 90.7197 285.181 85.6034 288.15L19.3274 326.602C14.2131 329.57 14.2133 336.984 19.3278 339.952L85.6037 378.4ZM177.958 33.6828C183.075 36.6515 189.472 32.9431 189.472 27.0085V7.71956C189.472 1.7857 183.076 -1.92281 177.96 1.04439L161.334 10.6863C156.219 13.6529 156.218 21.0681 161.333 24.0358L177.958 33.6828ZM271.552 150.404C276.667 147.436 276.666 140.021 271.551 137.054L243.275 120.652C238.158 117.685 231.762 121.393 231.762 127.327V160.134C231.762 166.069 238.159 169.777 243.275 166.809L271.552 150.404ZM193.403 313.283C198.519 316.252 204.916 312.543 204.916 306.609V233.582C204.916 227.648 198.52 223.94 193.404 226.907L130.458 263.416C125.343 266.383 125.343 273.798 130.458 276.766L193.403 313.283ZM188.61 339.952C193.724 336.985 193.724 329.571 188.609 326.603L121.387 287.601C116.271 284.632 109.874 288.341 109.874 294.275V372.28C109.874 378.215 116.271 381.923 121.387 378.955L188.61 339.952ZM254.694 24.0357C259.805 21.0671 259.804 13.6557 254.691 10.6889L251.711 8.95942C246.595 5.99021 240.197 9.69861 240.197 15.6335V19.0938C240.197 25.0298 246.597 28.7381 251.714 25.7665L254.694 24.0357ZM284.022 91.9179C289.138 94.8867 295.536 91.1783 295.536 85.2436V75.8461C295.536 69.9124 289.14 66.2038 284.024 69.1707L275.924 73.8679C270.808 76.8342 270.807 84.2497 275.922 87.2176L284.022 91.9179ZM292.76 233.506C297.877 236.475 304.274 232.766 304.274 226.832V186.987C304.274 181.052 297.877 177.343 292.76 180.312L258.428 200.235C253.314 203.202 253.314 210.616 258.428 213.583L292.76 233.506ZM286.817 276.765C291.932 273.798 291.932 266.383 286.817 263.416L235.636 233.729C230.519 230.762 224.123 234.47 224.123 240.404V299.781C224.123 305.716 230.52 309.424 235.636 306.456L286.817 276.765ZM361.22 86.5325C365.809 83.8689 365.809 77.2146 361.218 74.552C356.627 71.8884 350.886 75.2168 350.886 80.5426C350.886 85.8692 356.628 89.1974 361.22 86.5325ZM387.066 137.052C381.952 140.02 381.952 147.435 387.067 150.402L388.488 151.225C393.604 154.193 400 150.485 400 144.55V142.902C400 136.968 393.603 133.259 388.486 136.228L387.066 137.052ZM353.81 227.156C348.693 230.125 342.296 226.417 342.296 220.482V193.342C342.296 187.407 348.693 183.699 353.809 186.667L377.196 200.236C382.31 203.203 382.311 210.617 377.197 213.585L353.81 227.156ZM247.987 339.952C242.873 336.985 242.873 329.57 247.987 326.603L297.992 297.593C303.109 294.625 309.505 298.333 309.505 304.268V362.288C309.505 368.222 303.109 371.93 297.992 368.962L247.987 339.952ZM388.487 252.893C393.604 249.925 400 253.633 400 259.567V280.617C400 286.552 393.603 290.26 388.487 287.292L370.344 276.766C365.23 273.798 365.23 266.383 370.345 263.416L388.487 252.893ZM387.804 339.952C392.919 336.985 392.919 329.57 387.804 326.603L348.512 303.811C343.396 300.843 336.999 304.551 336.999 310.485V356.07C336.999 362.004 343.396 365.713 348.512 362.745L387.804 339.952Z" fill="#3AC2ED"/>
</svg>
