<?xml version="1.0" encoding="UTF-8"?>
<!DOCTYPE svg PUBLIC "-//W3C//DTD SVG 1.1//EN" "http://www.w3.org/Graphics/SVG/1.1/DTD/svg11.dtd">
<!-- Creator: CorelDRAW X7 -->
<svg xmlns="http://www.w3.org/2000/svg" xml:space="preserve" width="3508px" height="2480px" version="1.1" style="shape-rendering:geometricPrecision; text-rendering:geometricPrecision; image-rendering:optimizeQuality; fill-rule:evenodd; clip-rule:evenodd"
viewBox="0 0 3508 2480"
 xmlns:xlink="http://www.w3.org/1999/xlink">
 <defs>
  <style type="text/css">
   <![CDATA[
    .str0 {stroke:black;stroke-width:2.36229}
    .str1 {stroke:black;stroke-width:2.36229}
    .fil4 {fill:#020205}
    .fil0 {fill:#1A1A1A}
    .fil5 {fill:#333333}
    .fil3 {fill:#666666}
    .fil2 {fill:gray}
    .fil1 {fill:#E6E6E6}
   ]]>
  </style>
 </defs>
 <g id="Слой_x0020_1">
  <metadata id="CorelCorpID_0Corel-Layer"/>
  <g id="_2133316047504">
   <g>
    <path class="fil0 str0" d="M-1925 1639c16,-27 61,-90 92,-103 68,-28 -117,314 -140,291 -45,-85 -146,-205 -152,-213 -33,-43 -89,-89 -33,-120 56,-30 69,-55 114,14 21,32 60,167 79,247 14,-17 25,-89 40,-116z"/>
    <g>
     <path class="fil1 str0" d="M-2467 1394c36,-1 40,25 39,28 -1,6 -11,12 -13,12 -2,-1 12,30 5,34 -5,3 -17,1 -21,-4 -6,9 -6,10 -12,10 -15,1 -16,-10 -17,-9 -1,1 0,7 -14,5 -11,-1 -15,-10 -16,-13 -18,15 -27,-27 -11,-22 -4,-7 -6,-3 -3,-20 5,-25 26,-29 26,-29 -5,-18 -12,-88 8,-150 10,-6 160,-36 182,-29 34,10 63,84 -15,117 -20,8 -111,-28 -111,-28 -18,51 -37,81 -27,98z"/>
     <path class="fil2 str0" d="M-2428 1215c-2,14 11,67 21,93 -8,3 -17,3 -25,5 -7,6 -8,11 -17,10 -4,-25 -24,-68 -38,-90 1,-3 17,-6 23,-11 6,-4 29,-4 36,-7z"/>
     <path class="fil3" d="M-2428 1220c0,18 12,64 21,88 28,10 66,21 78,16 78,-33 49,-107 15,-117 -13,-4 -68,4 -114,13z"/>
     <path class="fil1 str0" d="M-2529 1457c-6,-7 -9,-15 -5,-20 4,-5 11,-12 17,-6 6,6 6,18 2,23 -4,5 -8,9 -14,3z"/>
     <path class="fil1 str0" d="M-2498 1470c-10,-1 -19,-8 -18,-17 2,-9 4,-23 14,-22 11,2 18,15 17,24 -1,8 -2,17 -13,15z"/>
     <path class="fil1 str0" d="M-2469 1475c-11,-1 -20,-8 -19,-18 1,-9 4,-24 15,-22 10,1 18,15 17,24 -1,9 -3,18 -13,16z"/>
     <path class="fil1 str0" d="M-2445 1469c-10,-1 -19,-8 -17,-17 1,-9 3,-23 14,-22 10,2 18,15 16,24 -1,8 -2,17 -13,15z"/>
     <path class="fil1 str0" d="M-2470 1409c6,-8 25,-10 34,-4 9,5 12,15 6,23 -5,8 -22,8 -31,2 -9,-5 -14,-13 -9,-21z"/>
    </g>
    <path class="fil1" d="M-2609 818c20,-2 12,-4 27,-13l32 40c8,10 29,27 26,40 -9,1 -5,-5 -21,-11 -23,-7 -53,-39 -70,-1 -12,29 -3,57 12,84 6,11 6,20 13,31 11,19 22,38 33,57 20,34 57,145 72,187 19,-19 23,-26 53,-40 42,-19 128,-37 175,-40l6 0c3,-5 6,-2 -9,-3 -46,-5 -29,-6 -59,-18 -43,-16 -70,-43 -96,-90 -21,-38 -14,-76 -8,-105 5,-21 39,-63 57,-82 -9,-20 -23,-43 -24,-63 0,-10 20,-37 26,-47 26,-38 62,-99 80,-141 3,-9 4,-16 7,-25 11,-31 55,-121 -26,-95 -38,12 -88,43 -120,66 -51,37 -105,115 -159,170 -10,11 -32,32 -37,43 -9,23 -4,39 10,56z"/>
    <path class="fil1" d="M-2348 958l-7 -2c-5,10 -8,6 -15,11 -7,5 -5,7 -7,11 -8,22 -2,20 -3,26 -1,2 -3,2 -3,7l-1 10c-1,13 8,32 18,38 12,7 6,-3 17,13 12,2 4,-6 15,10 1,0 1,0 2,0 0,1 1,0 1,0 0,0 1,0 2,0 0,0 1,0 1,0 13,1 5,0 15,4 6,2 8,0 16,3 22,10 11,2 23,4 9,1 0,2 19,3l28 -6 -10 -18c-18,23 -90,-8 -109,-22 -12,-8 -45,-39 -22,-52 19,-10 49,-2 64,-18 0,-12 -13,-31 -18,-44 -10,5 -10,0 -21,15 -4,4 0,2 -5,7z"/>
    <path class="fil4" d="M-2518 925c-11,7 -5,6 -3,19 1,7 -1,13 -4,17 -11,0 -23,-6 -32,-15 -7,-7 -18,-27 -10,-40 12,0 18,9 25,2 -3,-34 -73,-18 -27,46 32,44 85,10 51,-29zm35 319c59,-89 282,-81 288,-81 49,11 221,183 174,266 -50,97 -270,178 -332,150 -66,-36 -126,-313 -130,-335zm-126 -426c-14,-17 -19,-33 -10,-56 5,-11 27,-32 37,-43 54,-55 108,-133 159,-170 32,-23 82,-54 120,-66 81,-26 37,64 26,95 -3,9 -4,16 -7,25 -18,42 -54,103 -80,141 -6,10 -26,37 -26,47 1,20 15,43 24,63 -18,19 -52,61 -57,82 -6,29 -13,67 8,105 26,47 53,74 96,90 30,12 13,13 59,18 15,1 12,-2 9,3l-6 0c-47,3 -133,21 -175,40 -30,14 -34,21 -53,40 -15,-42 -52,-153 -72,-187 -11,-19 -22,-38 -33,-57 -7,-11 -7,-20 -13,-31 -15,-27 -24,-55 -12,-84 17,-38 47,-6 70,1 16,6 12,12 21,11 3,-13 -18,-30 -26,-40l-32 -40c-15,9 -7,11 -27,13zm261 140c5,-5 1,-3 5,-7 11,-15 11,-10 21,-15 5,13 18,32 18,44 -15,16 -45,8 -64,18 -23,13 10,44 22,52 19,14 91,45 109,22l10 18 -28 6c-19,-1 -10,-2 -19,-3 -12,-2 -1,6 -23,-4 -8,-3 -10,-1 -16,-3 -10,-4 -2,-3 -15,-4 0,0 -1,0 -1,0 -1,0 -2,0 -2,0 0,0 -1,1 -1,0 -1,0 -1,0 -2,0 -11,-16 -3,-8 -15,-10 -11,-16 -5,-6 -17,-13 -10,-6 -19,-25 -18,-38l1 -10c0,-5 2,-5 3,-7 1,-6 -5,-4 3,-26 2,-4 0,-6 7,-11 7,-5 10,-1 15,-11l7 2zm-248 -317c-2,-13 0,-49 -15,-55 -6,8 2,14 -2,36 -7,32 -32,61 -53,88 -54,71 -89,103 -8,199 29,34 20,17 50,60 80,115 97,184 138,315 15,48 35,200 109,303 76,77 359,-89 378,-162 30,-138 -156,-246 -176,-279 16,-5 33,-18 28,-33 -5,-13 -28,-22 -36,-25 -67,-31 -43,-53 -74,-39 0,13 -6,21 -23,18 -7,-1 -21,-6 -28,-10 -10,-6 -47,-29 -46,-47 1,-23 50,-6 65,-26 2,-3 6,-14 7,-19 -19,-44 -48,-90 -69,-136 -21,-47 -16,-24 27,-106 11,-21 29,-45 42,-72 3,-5 4,-6 7,-12 2,-4 3,-8 5,-12l25 -78c2,-8 6,-17 8,-26 11,-52 -20,-74 -71,-58 -41,13 -90,43 -124,68 -66,49 -122,145 -163,173 4,-11 32,-107 11,-117 -8,10 5,37 -12,52z"/>
    <path class="fil4" d="M-2523 668c-12,15 11,33 23,19 11,-14 -7,-37 -23,-19z"/>
    <path class="fil4" d="M-2490 707l-3 0c-11,3 -14,13 -27,8 -10,-5 -12,-9 -15,-18 -1,-4 -1,-4 -5,-8 -1,2 -9,1 2,20 14,25 48,13 48,-2z"/>
    <path class="fil2" d="M-2402 1512l371 -181c-39,-78 -130,-161 -164,-168 -6,0 -229,-8 -288,81 3,16 37,173 81,268z"/>
    <path class="fil2" d="M-2195 1163c-6,0 -229,-8 -288,81 3,16 37,173 81,268l371 -181c-39,-78 -130,-161 -164,-168z"/>
    <g>
     <path class="fil1 str0" d="M-2497 1477c25,6 52,13 55,30 1,7 -8,12 -10,13 -2,0 11,20 5,27 -3,5 -17,7 -23,4 -3,11 -2,12 -9,15 -16,6 -20,-4 -21,-3 -1,1 2,7 -13,11 -13,3 -20,-6 -22,-9 -14,23 -39,-18 -20,-18 -7,-6 -7,-2 -11,-21 -4,-28 17,-40 17,-40 -12,-18 -47,-89 -49,-163 9,-10 156,-98 183,-99 40,-2 98,65 28,129 -19,18 -128,13 -128,13 0,61 0,97 18,111z"/>
     <path class="fil2 str0" d="M-2533 1276c3,16 37,66 57,91 -7,6 -17,9 -24,14 -6,9 -5,15 -15,18 -13,-25 -51,-64 -74,-82 0,-3 16,-12 20,-20 4,-7 30,-16 36,-21z"/>
     <path class="fil3" d="M-2531 1281c7,19 36,63 55,86 33,-1 78,-3 89,-14 70,-64 12,-131 -28,-129 -15,1 -71,30 -116,57z"/>
    </g>
    <path class="fil5 str0" d="M-2064 1703c21,-27 79,-87 114,-97 78,-21 -173,322 -195,294 -36,-99 -127,-244 -132,-253 -30,-51 -84,-110 -18,-134 65,-25 83,-50 122,31 18,38 39,190 48,279 18,-16 40,-93 61,-120z"/>
    <path class="fil5" d="M-2031 1331l-371 181c16,33 32,58 49,67 90,34 179,-32 202,-43 57,-28 109,-66 130,-107 15,-26 8,-61 -10,-98z"/>
   </g>
   <g>
    <g>
     <path class="fil1 str0" d="M-1121 1355c23,28 5,47 2,49 -6,3 -16,-2 -17,-4 -1,-1 -17,28 -24,25 -5,-1 -11,-12 -10,-18 -11,0 -11,2 -15,-3 -10,-12 -3,-18 -4,-19 -1,0 -5,4 -13,-7 -6,-10 -1,-19 1,-21 -23,-5 4,-39 9,-23 4,-8 0,-6 15,-15 22,-12 38,3 38,3 12,-16 61,-65 123,-88 11,4 128,102 136,124 13,33 -26,101 -100,61 -20,-10 -48,-103 -48,-103 -51,17 -87,21 -93,39z"/>
     <path class="fil2 str0" d="M-958 1274c-12,8 -44,50 -60,75 -7,-5 -11,-12 -18,-16 -9,-3 -14,-1 -19,-8 17,-18 38,-62 47,-86 2,-1 14,10 22,11 7,2 22,21 28,24z"/>
     <path class="fil3" d="M-961 1277c-14,12 -42,49 -56,71 10,28 25,65 37,71 74,40 113,-28 100,-61 -5,-12 -45,-50 -81,-81z"/>
     <path class="fil1 str0" d="M-1209 1346c1,-8 6,-16 12,-16 6,0 16,1 15,10 -1,8 -10,16 -16,16 -6,-1 -12,-1 -11,-10z"/>
     <path class="fil1 str0" d="M-1200 1379c-6,-9 -6,-20 2,-25 7,-4 20,-11 26,-2 5,9 -1,23 -8,27 -8,5 -15,9 -20,0z"/>
     <path class="fil1 str0" d="M-1187 1404c-5,-9 -5,-21 3,-25 8,-5 21,-12 27,-3 5,9 -1,24 -8,29 -8,4 -16,9 -22,-1z"/>
     <path class="fil1 str0" d="M-1166 1420c-6,-9 -6,-20 2,-25 7,-4 20,-11 26,-2 5,9 -1,23 -8,27 -8,5 -15,9 -20,0z"/>
     <path class="fil1 str0" d="M-1135 1362c10,0 23,14 24,24 2,11 -4,19 -13,20 -10,0 -21,-13 -22,-23 -1,-10 2,-20 11,-21z"/>
    </g>
    <path class="fil0 str1" d="M-869 2063c-93,1 -182,8 -181,-12 30,-53 97,-109 115,-169 -150,-68 -209,-141 -211,-176 -1,-14 38,-68 101,-8 157,153 209,109 232,171 12,31 -117,102 -131,131 148,-24 394,59 75,63z"/>
    <path class="fil1" d="M-581 1170c5,20 5,12 17,25l-35 38c-9,9 -23,33 -35,32 -3,-9 4,-6 7,-23 4,-24 31,-58 -10,-69 -30,-8 -56,6 -81,24 -10,8 -19,10 -28,18 -17,15 -34,28 -52,43 -30,24 -134,78 -173,100 22,15 29,18 48,46 25,38 56,120 66,166l1 6c5,2 3,5 2,-10 -2,-46 2,-29 8,-60 10,-45 32,-77 75,-110 34,-26 72,-25 102,-23 21,1 68,28 90,43 18,-12 38,-30 59,-34 9,-1 39,14 50,19 41,20 107,46 152,56 9,3 16,2 25,4 33,6 128,36 90,-40 -18,-36 -56,-81 -84,-109 -44,-44 -129,-86 -192,-130 -13,-9 -37,-27 -49,-30 -23,-6 -39,2 -53,18z"/>
    <path class="fil1" d="M-679 1450l1 -7c-11,-4 -7,-8 -13,-14 -6,-6 -8,-3 -12,-4 -23,-6 -21,0 -26,0 -2,0 -3,-2 -8,-2l-10 1c-13,1 -30,13 -35,24 -5,12 4,5 -10,19 0,12 7,3 -7,16 0,1 0,1 0,2 -1,0 0,1 0,1 0,1 0,1 0,2 0,0 0,1 0,1 2,13 1,5 -1,15 -1,7 1,9 -1,17 -6,23 0,11 0,23 1,9 -2,1 1,19l9 27 17 -12c-26,-15 -6,-91 4,-111 6,-13 32,-51 48,-31 13,17 10,48 28,61 12,-2 29,-17 41,-25 -6,-9 -2,-10 -18,-18 -5,-3 -2,0 -8,-4z"/>
    <path class="fil4" d="M-673 1277c-9,-10 -6,-4 -19,0 -7,2 -13,1 -17,-2 -2,-10 2,-23 9,-34 6,-8 24,-22 38,-16 2,13 -6,20 2,26 34,-9 7,-75 -50,-20 -38,38 4,85 37,46zm-309 84c97,45 123,266 125,272 -4,50 -147,247 -237,213 -103,-34 -217,-239 -200,-304 26,-71 290,-173 312,-181zm401 -191c14,-16 30,-24 53,-18 12,3 36,21 49,30 63,44 148,86 192,130 28,28 66,73 84,109 38,76 -57,46 -90,40 -9,-2 -16,-1 -25,-4 -45,-10 -111,-36 -152,-56 -11,-5 -41,-20 -50,-19 -21,4 -41,22 -59,34 -22,-15 -69,-42 -90,-43 -30,-2 -68,-3 -102,23 -43,33 -65,65 -75,110 -6,31 -10,14 -8,60 1,15 3,12 -2,10l-1 -6c-10,-46 -41,-128 -66,-166 -19,-28 -26,-31 -48,-46 39,-22 143,-76 173,-100 18,-15 35,-28 52,-43 9,-8 18,-10 28,-18 25,-18 51,-32 81,-24 41,11 14,45 10,69 -3,17 -10,14 -7,23 12,1 26,-23 35,-32l35 -38c-12,-13 -12,-5 -17,-25zm-98 280c6,4 3,1 8,4 16,8 12,9 18,18 -12,8 -29,23 -41,25 -18,-13 -15,-44 -28,-61 -16,-20 -42,18 -48,31 -10,20 -30,96 -4,111l-17 12 -9 -27c-3,-18 0,-10 -1,-19 0,-12 -6,0 0,-23 2,-8 0,-10 1,-17 2,-10 3,-2 1,-15 0,0 0,-1 0,-1 0,-1 0,-1 0,-2 0,0 -1,-1 0,-1 0,-1 0,-1 0,-2 14,-13 7,-4 7,-16 14,-14 5,-7 10,-19 5,-11 22,-23 35,-24l10 -1c5,0 6,2 8,2 5,0 3,-6 26,0 4,1 6,-2 12,4 6,6 2,10 13,14l-1 7zm274 -294c13,-4 49,-8 52,-24 -8,-5 -13,5 -35,4 -33,-2 -65,-22 -96,-38 -78,-43 -115,-73 -197,23 -29,34 -15,21 -52,58 -101,97 -166,125 -290,186 -45,22 -191,65 -282,154 -64,87 144,342 219,348 141,9 218,-192 249,-217 7,16 22,30 36,22 12,-6 17,-30 20,-39 19,-70 45,-51 26,-79 -13,2 -22,-2 -21,-20 0,-7 3,-21 6,-29 4,-11 21,-51 38,-53 23,-2 14,49 37,60 3,2 14,4 19,4 41,-25 82,-61 124,-89 43,-29 21,-20 109,10 23,8 49,22 77,31 5,1 8,3 13,4 5,1 9,2 14,3l80 13c8,1 18,3 27,3 53,3 69,-31 46,-78 -19,-39 -57,-83 -87,-112 -58,-58 -162,-98 -196,-135 12,3 111,16 118,-6 -11,-7 -36,10 -54,-4z"/>
    <path class="fil4" d="M-420 1232c-16,-10 -31,16 -15,25 16,9 36,-12 15,-25z"/>
    <path class="fil4" d="M-453 1271l-1 -4c-4,-9 -15,-12 -11,-25 2,-10 6,-13 14,-17 4,-2 5,-2 7,-6 -1,-2 -1,-9 -19,5 -22,18 -5,49 10,47z"/>
    <path class="fil2" d="M-1234 1483l236 338c71,-51 138,-154 141,-188 -2,-6 -28,-227 -125,-272 -16,6 -166,64 -252,122z"/>
    <path class="fil2" d="M-857 1633c-2,-6 -28,-227 -125,-272 -16,6 -166,64 -252,122l236 338c71,-51 138,-154 141,-188z"/>
    <path class="fil5 str1" d="M-997 2066c-92,1 -224,8 -223,-12 31,-53 105,-104 123,-164 -39,-49 -132,-200 -134,-235 -1,-14 38,-69 100,-8 158,153 197,173 220,236 11,30 -189,91 -203,120 148,-24 436,59 117,63z"/>
    <path class="fil5" d="M-998 1821l-236 -338c-30,20 -53,41 -60,59 -18,94 60,171 75,193 36,52 82,97 125,111 29,11 62,-1 96,-25z"/>
    <g>
     <path class="fil1 str0" d="M-1161 1442c3,27 6,54 -10,62 -7,3 -14,-3 -15,-5 -1,-2 -16,18 -24,15 -6,-2 -12,-14 -11,-21 -12,0 -13,2 -18,-3 -11,-13 -2,-21 -4,-21 -1,-1 -6,4 -14,-9 -7,-11 -2,-21 0,-24 -26,-5 4,-43 11,-25 3,-9 -1,-7 16,-17 25,-14 43,2 43,2 13,-17 68,-73 137,-100 13,5 145,114 155,139 15,37 -29,114 -112,70 -23,-12 -56,-117 -56,-117 -57,21 -91,33 -98,54z"/>
     <path class="fil2 str0" d="M-984 1341c-13,9 -50,57 -66,84 -8,-4 -14,-12 -22,-17 -10,-3 -15,-1 -21,-9 19,-21 43,-69 52,-97 3,-1 17,11 25,13 8,1 25,22 32,26z"/>
     <path class="fil3" d="M-988 1344c-15,14 -47,56 -62,81 11,32 29,73 43,80 83,44 127,-33 112,-70 -6,-14 -52,-57 -93,-91z"/>
    </g>
   </g>
   <g>
    <path class="fil0 str1" d="M673 2060c-44,0 -144,-74 -142,-90 27,-42 52,-24 70,-72 -29,-42 -68,-173 -68,-202 0,-11 35,-54 83,-2 122,134 122,153 138,206 7,25 -139,45 -151,68 33,39 63,32 101,43 88,25 133,49 -31,49z"/>
    <g>
     <path class="fil1 str0" d="M973 1490c-22,-29 -3,-47 0,-49 6,-2 17,3 17,5 1,2 19,-27 26,-23 5,2 10,13 8,19 11,0 12,-1 16,4 9,12 1,18 2,19 1,0 6,-3 12,8 6,11 0,19 -2,21 23,7 -6,38 -11,22 -4,7 0,6 -16,14 -23,10 -37,-5 -37,-5 -13,14 -66,60 -129,79 -11,-5 -120,-111 -127,-133 -11,-34 33,-100 104,-55 19,12 41,107 41,107 52,-14 88,-15 96,-33z"/>
     <path class="fil2 str0" d="M804 1559c12,-6 48,-46 64,-69 7,4 12,12 18,17 9,3 14,1 19,9 -19,17 -43,59 -53,83 -3,0 -14,-11 -22,-14 -7,-2 -20,-21 -26,-26z"/>
     <path class="fil3" d="M807 1557c15,-11 46,-46 61,-67 -8,-29 -20,-66 -32,-74 -71,-45 -115,21 -104,55 4,13 42,53 75,86z"/>
     <path class="fil1 str0" d="M1059 1505c-1,9 -7,16 -13,15 -6,0 -16,-2 -14,-10 1,-9 11,-16 17,-15 6,1 12,1 10,10z"/>
     <path class="fil1 str0" d="M1053 1472c4,9 4,20 -4,24 -8,4 -21,10 -26,1 -5,-9 2,-23 10,-27 8,-4 15,-8 20,2z"/>
     <path class="fil1 str0" d="M1041 1446c5,9 4,21 -4,25 -8,4 -22,11 -27,1 -5,-10 2,-24 10,-28 8,-4 16,-8 21,2z"/>
     <path class="fil1 str0" d="M1022 1429c4,9 4,20 -4,24 -8,4 -21,10 -26,1 -5,-9 2,-23 10,-27 7,-4 15,-8 20,2z"/>
     <path class="fil1 str0" d="M986 1484c-9,0 -21,-15 -22,-26 -1,-10 5,-18 15,-18 10,0 19,14 20,24 1,10 -3,20 -13,20z"/>
    </g>
    <path class="fil1" d="M963 1041c10,18 8,10 23,20l-24 46c-6,11 -14,37 -26,39 -5,-8 3,-6 1,-23 -2,-25 15,-64 -27,-64 -31,0 -53,19 -72,44 -8,10 -16,14 -23,24 -13,19 -25,36 -39,54 -23,32 -109,111 -141,142 25,9 33,10 57,32 34,30 86,102 107,143l3 7c5,0 4,3 -1,-11 -14,-44 -6,-29 -7,-61 -2,-45 11,-81 43,-124 26,-35 64,-44 93,-49 21,-4 73,9 98,19 15,-17 30,-39 48,-48 9,-5 42,3 54,5 45,8 115,16 161,15 10,0 16,-2 25,-3 33,-3 133,2 77,-62 -26,-30 -75,-63 -109,-83 -54,-32 -147,-50 -220,-76 -14,-6 -42,-18 -54,-17 -24,0 -38,12 -47,31z"/>
    <path class="fil1" d="M941 1337l-1 -8c-12,0 -9,-5 -17,-9 -7,-4 -8,-2 -13,-1 -23,1 -19,5 -25,7 -2,0 -3,-2 -7,0l-10 3c-12,5 -26,21 -28,32 -1,14 6,5 -4,22 3,11 7,0 -3,17 0,1 0,1 0,1 0,1 0,2 1,2 0,0 0,1 0,1 0,1 0,1 1,2 5,12 2,4 3,14 0,7 3,8 3,16 0,24 2,11 6,23 3,9 -2,1 5,19l16 23 14 -16c-29,-8 -30,-86 -25,-109 3,-14 17,-57 38,-41 17,13 23,44 43,51 11,-5 23,-24 33,-35 -8,-7 -4,-8 -22,-13 -6,-1 -2,1 -8,-1z"/>
    <path class="fil4" d="M901 1168c-10,-7 -7,-2 -18,5 -6,3 -12,4 -17,3 -4,-10 -4,-23 1,-35 3,-10 17,-28 32,-26 6,12 -1,21 9,25 30,-17 -13,-75 -53,-6 -28,46 25,81 46,34zm-277 161c106,18 188,225 191,231 10,49 -78,276 -173,267 -109,-7 -272,-176 -272,-243 7,-76 236,-242 254,-255zm339 -288c9,-19 23,-31 47,-31 12,-1 40,11 54,17 73,26 166,44 220,76 34,20 83,53 109,83 56,64 -44,59 -77,62 -9,1 -15,3 -25,3 -46,1 -116,-7 -161,-15 -12,-2 -45,-10 -54,-5 -18,9 -33,31 -48,48 -25,-10 -77,-23 -98,-19 -29,5 -67,14 -93,49 -32,43 -45,79 -43,124 1,32 -7,17 7,61 5,14 6,11 1,11l-3 -7c-21,-41 -73,-113 -107,-143 -24,-22 -32,-23 -57,-32 32,-31 118,-110 141,-142 14,-18 26,-35 39,-54 7,-10 15,-14 23,-24 19,-25 41,-44 72,-44 42,0 25,39 27,64 2,17 -6,15 -1,23 12,-2 20,-28 26,-39l24 -46c-15,-10 -13,-2 -23,-20zm-22 296c6,2 2,0 8,1 18,5 14,6 22,13 -10,11 -22,30 -33,35 -20,-7 -26,-38 -43,-51 -21,-16 -35,27 -38,41 -5,23 -4,101 25,109l-14 16 -16 -23c-7,-18 -2,-10 -5,-19 -4,-12 -6,1 -6,-23 0,-8 -3,-9 -3,-16 -1,-10 2,-2 -3,-14 -1,-1 -1,-1 -1,-2 0,0 0,-1 0,-1 -1,0 -1,-1 -1,-2 0,0 0,0 0,-1 10,-17 6,-6 3,-17 10,-17 3,-8 4,-22 2,-11 16,-27 28,-32l10 -3c4,-2 5,0 7,0 6,-2 2,-6 25,-7 5,-1 6,-3 13,1 8,4 5,9 17,9l1 8zm189 -355c11,-7 45,-20 43,-36 -9,-3 -11,8 -32,12 -33,8 -69,-4 -103,-12 -87,-21 -130,-40 -184,73 -20,40 -9,25 -36,70 -72,119 -128,163 -232,254 -37,33 -168,112 -233,222 -39,100 227,293 302,280 138,-28 161,-242 184,-274 10,13 29,23 41,12 10,-9 8,-34 9,-43 0,-73 30,-61 4,-83 -12,5 -21,3 -25,-13 -2,-8 -2,-23 -2,-30 1,-12 8,-55 24,-62 22,-8 26,44 51,49 3,1 15,0 20,-1 33,-35 63,-80 96,-118 35,-39 15,-25 108,-18 24,1 53,8 83,9 5,0 8,1 13,1 5,0 9,0 14,0l81 -9c8,-1 18,-1 27,-3 52,-11 59,-48 24,-88 -28,-32 -76,-65 -112,-86 -72,-41 -182,-53 -225,-79 12,-1 111,-14 112,-37 -12,-4 -32,19 -52,10z"/>
    <path class="fil4" d="M1134 1060c-18,-6 -25,23 -7,28 17,4 31,-21 7,-28z"/>
    <path class="fil4" d="M1112 1105l-1 -3c-7,-8 -18,-7 -18,-21 0,-11 4,-14 10,-21 3,-3 4,-2 5,-7 -2,-1 -4,-9 -17,9 -17,23 8,50 21,43z"/>
    <path class="fil2" d="M412 1512l315 266c56,-68 95,-185 88,-218 -3,-6 -85,-213 -191,-231 -13,10 -143,104 -212,183z"/>
    <path class="fil2" d="M815 1560c-3,-6 -85,-213 -191,-231 -13,10 -143,104 -212,183l315 266c56,-68 95,-185 88,-218z"/>
    <path class="fil5 str1" d="M568 2065c-54,0 -179,-54 -177,-74 34,-51 92,-73 113,-132 -35,-51 -119,-208 -119,-243 0,-14 43,-66 101,-2 148,163 185,186 204,250 10,31 -176,85 -191,113 33,37 61,11 106,24 107,31 163,64 -37,64z"/>
    <path class="fil5" d="M727 1778l-315 -266c-24,27 -40,53 -42,72 6,96 102,150 122,167 48,41 104,73 150,76 30,3 59,-18 85,-49z"/>
    <path class="fil1 str0" d="M1006 1530c1,-27 2,-54 19,-60 7,-2 13,5 14,8 1,2 18,-15 26,-11 5,3 10,16 8,22 12,2 13,0 16,6 10,15 0,21 1,22 1,0 7,-3 13,10 5,12 -1,21 -4,24 25,9 -10,42 -14,23 -5,8 -1,7 -19,14 -27,10 -42,-9 -42,-9 -15,15 -79,62 -151,78 -12,-7 -189,-70 -195,-95 -7,-30 23,-90 71,-87 15,1 32,21 51,35 20,15 100,58 100,58 59,-12 95,-19 106,-38z"/>
    <path class="fil2 str0" d="M798 1632c12,-10 43,-62 56,-91 9,4 15,11 24,15 10,2 15,-1 22,6 -17,23 -35,74 -41,103 -3,1 -17,-9 -27,-10 -8,-1 -27,-19 -34,-23z"/>
    <path class="fil3" d="M805 1624c9,-11 20,-28 30,-46 1,-2 3,-5 4,-7 5,-10 11,-20 15,-29 -22,-12 -44,-25 -54,-32 -5,-4 -9,-8 -14,-11 -13,-12 -25,-23 -37,-24 -48,-3 -78,57 -71,87 4,15 70,44 124,66 1,-1 2,-2 3,-4z"/>
   </g>
   <g>
    <g>
     <path class="fil1 str0" d="M3085 870c-45,-30 -66,-84 -63,-87 7,-7 62,15 64,17 2,2 61,-101 72,-100 8,1 -28,67 -27,76 15,-5 76,-55 84,-50 19,12 -50,73 -48,73 1,0 73,-40 88,-28 13,12 -57,59 -59,63 16,-1 75,-35 74,-24 -2,13 -69,71 -78,60 -1,12 4,9 -14,27 -26,27 -54,13 -54,13 -10,26 -72,87 -149,146 -44,24 -210,173 -291,156 -23,-5 -61,-48 -56,-86 5,-47 68,-99 135,-85 32,6 207,-75 207,-75 64,-47 113,-67 115,-96z"/>
     <path class="fil2 str0" d="M2891 1120c0,-17 -26,-76 -43,-106 9,-5 19,-6 28,-11 8,-7 8,-14 19,-15 9,29 42,76 63,99 -1,4 -19,10 -25,17 -6,7 -34,11 -42,16z"/>
     <path class="fil3" d="M2891 1116c-2,-15 -16,-47 -29,-74 -3,-7 -6,-14 -9,-20 -1,-2 -2,-4 -3,-5 -1,1 -3,1 -5,2 -6,2 -13,5 -19,7 -28,10 -53,17 -63,15 -67,-14 -130,38 -135,85 -5,38 33,81 56,86 52,11 139,-47 207,-96z"/>
    </g>
    <path class="fil0 str0" d="M2213 1610c-35,196 -196,346 -136,136 11,-42 52,-118 58,-145 16,-34 54,-30 70,-49 74,-87 157,-222 177,-272 39,-98 37,-37 101,-45 43,-5 60,-28 39,64 -8,36 -306,295 -309,311z"/>
    <path class="fil1" d="M2873 627c10,18 8,10 23,20l-24 45c-6,11 -13,38 -26,40 -5,-8 3,-6 1,-24 -2,-24 15,-63 -27,-63 -31,0 -53,19 -72,44 -8,10 -15,14 -23,24 -13,19 -25,36 -39,54 -23,32 -109,111 -141,141 25,10 33,10 58,33 33,30 86,102 107,143l2 6c6,0 4,4 0,-10 -15,-44 -6,-29 -8,-61 -2,-46 11,-82 44,-125 26,-34 63,-43 92,-49 21,-4 73,10 98,19 15,-16 30,-38 48,-47 9,-5 43,2 54,5 45,8 115,16 161,15 10,0 17,-3 26,-3 33,-3 133,1 76,-62 -26,-30 -75,-64 -109,-84 -54,-31 -147,-49 -219,-76 -15,-5 -43,-17 -55,-17 -24,1 -38,12 -47,32z"/>
    <path class="fil1" d="M2851 923l-1 -8c-12,0 -9,-5 -17,-9 -7,-4 -8,-2 -12,-2 -24,1 -20,6 -25,7 -2,1 -4,-1 -8,1l-10 3c-12,4 -26,20 -27,32 -2,14 5,4 -5,21 3,12 7,1 -3,18 0,0 1,1 0,1 0,1 1,1 1,2 0,0 0,1 0,1 0,0 1,1 1,1 5,13 2,5 3,15 1,7 3,8 3,16 0,24 3,11 6,23 3,9 -1,1 5,18l17 24 13 -17c-29,-7 -29,-85 -25,-108 3,-14 18,-57 39,-41 17,12 22,43 42,51 11,-5 24,-24 33,-35 -8,-7 -4,-9 -22,-13 -5,-1 -2,1 -8,-1z"/>
    <path class="fil4" d="M2812 754c-11,-7 -7,-2 -19,5 -6,3 -12,4 -17,3 -4,-10 -4,-23 1,-36 4,-9 17,-27 33,-25 5,12 -1,20 8,24 30,-17 -13,-74 -53,-6 -27,47 25,81 47,35zm-277 160c105,19 187,226 191,232 9,49 -79,276 -174,266 -108,-6 -272,-175 -271,-242 6,-76 235,-242 254,-256zm338 -287c9,-20 23,-31 47,-32 12,0 40,12 55,17 72,27 165,45 219,76 34,20 83,54 109,84 57,63 -43,59 -76,62 -9,0 -16,3 -26,3 -46,1 -116,-7 -161,-15 -11,-3 -45,-10 -54,-5 -18,9 -33,31 -48,47 -25,-9 -77,-23 -98,-19 -29,6 -66,15 -92,49 -33,43 -46,79 -44,125 2,32 -7,17 8,61 4,14 6,10 0,10l-2 -6c-21,-41 -74,-113 -107,-143 -25,-23 -33,-23 -58,-33 32,-30 118,-109 141,-141 14,-18 26,-35 39,-54 8,-10 15,-14 23,-24 19,-25 41,-44 72,-44 42,0 25,39 27,63 2,18 -6,16 -1,24 13,-2 20,-29 26,-40l24 -45c-15,-10 -13,-2 -23,-20zm-22 296c6,2 3,0 8,1 18,4 14,6 22,13 -9,11 -22,30 -33,35 -20,-8 -25,-39 -42,-51 -21,-16 -36,27 -39,41 -4,23 -4,101 25,108l-13 17 -17 -24c-6,-17 -2,-9 -5,-18 -3,-12 -6,1 -6,-23 0,-8 -2,-9 -3,-16 -1,-10 2,-2 -3,-15 0,0 -1,-1 -1,-1 0,0 0,-1 0,-1 0,-1 -1,-1 -1,-2 1,0 0,-1 0,-1 10,-17 6,-6 3,-18 10,-17 3,-7 5,-21 1,-12 15,-28 27,-32l10 -3c4,-2 6,0 8,-1 5,-1 1,-6 25,-7 4,0 5,-2 12,2 8,4 5,9 17,9l1 8zm189 -355c11,-7 45,-21 44,-37 -9,-2 -11,8 -33,13 -33,7 -69,-4 -102,-12 -87,-21 -131,-40 -185,73 -20,40 -8,25 -35,70 -73,119 -129,163 -232,254 -38,33 -169,112 -233,222 -40,100 226,293 301,280 138,-28 161,-242 184,-274 11,13 29,22 41,12 10,-9 9,-34 9,-43 1,-73 31,-61 5,-83 -12,5 -21,3 -26,-14 -2,-7 -2,-22 -2,-30 1,-11 8,-55 24,-61 22,-8 26,44 51,49 4,1 15,0 20,-1 33,-35 63,-80 96,-118 35,-39 15,-25 108,-19 24,2 53,9 83,10 5,0 8,1 14,1 5,0 8,0 13,0l81 -9c9,-1 19,-2 27,-3 52,-11 59,-48 24,-88 -28,-32 -75,-65 -112,-86 -72,-41 -182,-53 -224,-79 12,-1 111,-14 112,-37 -13,-4 -32,19 -53,10z"/>
    <path class="fil4" d="M3045 645c-19,-5 -26,24 -8,29 18,4 31,-21 8,-29z"/>
    <path class="fil4" d="M3023 691l-2 -3c-7,-8 -17,-8 -18,-22 0,-10 4,-14 10,-20 4,-3 4,-2 5,-7 -1,-1 -3,-9 -16,9 -17,23 7,50 21,43z"/>
    <path class="fil2" d="M2322 1098l315 265c56,-67 95,-184 89,-217 -4,-6 -86,-213 -191,-232 -14,10 -144,105 -213,184z"/>
    <path class="fil2" d="M2726 1146c-4,-6 -86,-213 -191,-232 -14,10 -144,105 -213,184l315 265c56,-67 95,-184 89,-217z"/>
    <g>
     <path class="fil1 str0" d="M3017 809c-42,-33 -58,-89 -55,-92 8,-6 60,21 63,23 1,2 68,-95 80,-93 8,1 -34,64 -34,73 15,-4 81,-49 88,-43 18,14 -56,69 -54,69 1,0 76,-34 90,-20 12,12 -62,53 -64,57 16,0 78,-28 75,-18 -3,14 -74,66 -82,54 -2,12 3,9 -16,25 -29,25 -56,9 -56,9 -12,25 -78,81 -160,132 -46,21 -224,155 -304,131 -22,-7 -56,-53 -48,-90 9,-46 76,-93 142,-74 32,10 213,-57 213,-57 67,-41 118,-57 122,-86z"/>
     <path class="fil2 str0" d="M2803 1042c1,-17 -20,-78 -34,-109 9,-4 20,-4 29,-8 8,-8 9,-14 20,-14 7,29 35,79 54,104 -1,3 -19,8 -26,15 -7,6 -35,8 -43,12z"/>
     <path class="fil3" d="M2803 1038c-1,-15 -11,-48 -22,-76 -3,-8 -6,-15 -8,-21 -1,-2 -2,-3 -2,-5 -2,0 -4,1 -5,1 -7,2 -13,4 -20,6 -29,7 -54,12 -64,9 -66,-19 -133,28 -142,74 -8,37 26,83 48,90 51,16 143,-35 215,-78z"/>
    </g>
    <path class="fil5 str0" d="M2101 1610c-38,208 -208,368 -145,145 12,-45 55,-126 62,-155 17,-35 57,-31 74,-52 78,-92 167,-236 188,-289 42,-104 39,-38 108,-47 45,-6 63,-30 41,67 -8,39 -325,314 -328,331z"/>
    <path class="fil5" d="M2637 1363l-315 -265c-23,27 -40,52 -41,72 6,96 101,150 121,167 49,41 104,73 150,75 30,3 60,-17 85,-49z"/>
   </g>
   <g>
    <g>
     <path class="fil1 str0" d="M4590 737c-48,-24 -76,-75 -73,-79 6,-7 63,7 66,9 2,2 47,-107 59,-108 8,0 -20,70 -18,79 14,-7 69,-65 77,-61 21,10 -40,79 -39,79 2,0 68,-49 84,-39 14,10 -49,66 -50,70 15,-3 70,-44 70,-33 -1,13 -60,79 -69,69 0,12 4,8 -11,29 -23,30 -52,20 -52,20 -7,27 -60,95 -129,163 -41,29 -187,199 -270,192 -23,-2 -66,-41 -66,-79 -1,-46 55,-107 123,-101 33,2 196,-101 196,-101 58,-54 104,-80 102,-109z"/>
     <path class="fil2 str0" d="M4429 1009c-2,-17 -35,-72 -55,-100 8,-6 18,-8 26,-14 6,-8 6,-15 17,-17 12,27 51,70 75,90 -1,4 -18,12 -23,20 -5,8 -33,16 -40,21z"/>
     <path class="fil3" d="M4429 1005c-5,-14 -22,-44 -38,-70 -4,-7 -8,-13 -12,-18 -1,-2 -2,-3 -3,-5 -2,1 -3,2 -5,2 -6,4 -12,7 -18,10 -27,14 -51,23 -61,23 -68,-6 -124,55 -123,101 0,38 43,77 66,79 53,4 133,-64 194,-122z"/>
    </g>
    <path class="fil0 str1" d="M4249 1594c-44,7 -154,-50 -155,-66 20,-46 48,-32 57,-82 -35,-37 -95,-160 -100,-188 -2,-11 26,-59 82,-15 142,112 145,130 169,180 12,23 -129,68 -137,92 39,33 67,21 106,26 91,10 140,26 -22,53z"/>
    <path class="fil1" d="M4367 542c13,16 10,8 26,15l-16 49c-4,12 -7,39 -19,44 -6,-8 2,-7 -3,-24 -6,-23 5,-65 -37,-59 -31,6 -49,28 -64,56 -6,11 -13,16 -18,27 -10,21 -20,40 -30,60 -17,35 -90,127 -116,163 26,6 34,4 62,22 39,25 102,87 129,124l4 6c5,-1 4,3 -2,-10 -22,-41 -11,-28 -18,-59 -10,-45 -3,-82 23,-130 20,-38 55,-53 83,-64 20,-7 73,-2 100,3 12,-19 23,-43 39,-55 8,-6 42,-4 54,-4 46,1 117,-3 161,-11 10,-2 16,-6 25,-8 32,-8 131,-20 66,-73 -31,-26 -85,-51 -122,-65 -58,-22 -153,-24 -229,-39 -15,-3 -44,-10 -57,-7 -23,4 -35,18 -41,39z"/>
    <path class="fil4" d="M4328 677c-12,-6 -8,-1 -18,7 -5,5 -11,7 -16,6 -6,-9 -8,-22 -5,-35 2,-10 12,-29 28,-30 7,10 2,20 12,23 27,-22 -25,-72 -53,2 -20,51 38,76 52,27zm-247 204c107,1 222,191 226,196 17,47 -32,286 -127,292 -108,11 -297,-129 -308,-195 -6,-75 193,-277 209,-293zm286 -339c6,-21 18,-35 41,-39 13,-3 42,4 57,7 76,15 171,17 229,39 37,14 91,39 122,65 65,53 -34,65 -66,73 -9,2 -15,6 -25,8 -44,8 -115,12 -161,11 -12,0 -46,-2 -54,4 -16,12 -27,36 -39,55 -27,-5 -80,-10 -100,-3 -28,11 -63,26 -83,64 -26,48 -33,85 -23,130 7,31 -4,18 18,59 6,13 7,9 2,10l-4 -6c-27,-37 -90,-99 -129,-124 -28,-18 -36,-16 -62,-22 26,-36 99,-128 116,-163 10,-20 20,-39 30,-60 5,-11 12,-16 18,-27 15,-28 33,-50 64,-56 42,-6 31,36 37,59 5,17 -3,16 3,24 12,-5 15,-32 19,-44l16 -49c-16,-7 -13,1 -26,-15zm27 295c7,1 3,-1 9,0 18,1 14,4 23,9 -7,12 -17,33 -27,40 -21,-4 -31,-34 -50,-44 -23,-12 -31,33 -31,47 -1,24 13,100 42,103l-10 19 -20 -21c-10,-16 -4,-9 -8,-17 -6,-11 -6,2 -10,-22 -1,-8 -4,-9 -6,-15 -2,-10 2,-3 -5,-14 0,0 -1,-1 -1,-1 0,-1 -1,-1 -1,-2 0,0 -1,0 0,-1 0,0 -1,-1 -1,-1 7,-18 5,-7 0,-18 7,-18 2,-8 1,-22 0,-12 11,-30 22,-36l9 -5c4,-2 6,0 8,-1 5,-2 0,-7 23,-11 5,-1 5,-4 13,-1 8,3 6,8 18,7l2 7zm128 -381c10,-9 41,-28 37,-44 -9,0 -9,10 -30,19 -31,12 -68,7 -103,4 -89,-6 -135,-18 -170,103 -13,43 -4,26 -23,74 -52,130 -100,182 -187,289 -32,39 -148,138 -194,257 -22,105 272,252 343,227 132,-51 120,-265 137,-301 13,12 33,18 43,6 8,-11 2,-36 1,-44 -11,-73 21,-65 -9,-83 -11,7 -20,7 -27,-9 -3,-7 -6,-21 -7,-29 -1,-12 -1,-56 14,-65 20,-11 32,39 58,40 3,1 15,-2 19,-4 27,-40 49,-90 76,-132 28,-44 11,-27 103,-36 24,-3 54,-1 83,-5 6,0 8,0 14,-1 5,0 9,-2 14,-2l78 -22c8,-3 18,-5 26,-8 50,-19 50,-57 9,-91 -33,-27 -85,-51 -125,-66 -77,-28 -188,-22 -234,-41 12,-3 107,-32 105,-55 -13,-2 -29,24 -51,19z"/>
    <path class="fil4" d="M4539 531c-18,-2 -20,28 -2,29 18,2 27,-25 2,-29z"/>
    <path class="fil4" d="M4526 580l-2 -3c-9,-7 -19,-4 -22,-18 -2,-10 1,-14 7,-22 3,-3 3,-3 4,-8 -2,-1 -5,-8 -15,12 -13,26 15,48 28,39z"/>
    <path class="fil2" d="M3902 1096l354 211c44,-76 63,-198 51,-230 -4,-5 -119,-195 -226,-196 -12,12 -125,126 -179,215z"/>
    <path class="fil2" d="M4307 1077c-4,-5 -119,-195 -226,-196 -12,12 -125,126 -179,215l354 211c44,-76 63,-198 51,-230z"/>
    <path class="fil5 str1" d="M4146 1616c-53,9 -185,-24 -186,-44 25,-55 78,-87 90,-148 -44,-45 -153,-186 -158,-220 -2,-14 31,-73 99,-19 173,136 213,153 243,213 14,29 -160,113 -170,143 39,31 62,1 109,6 110,13 170,37 -27,69z"/>
    <path class="fil5" d="M4256 1307l-354 -211c-19,31 -31,59 -30,78 22,94 125,132 147,145 55,33 115,55 161,50 30,-2 56,-27 76,-62z"/>
    <path class="fil1" d="M4399 886c10,-7 20,-28 27,-40 -9,-5 -5,-8 -23,-9 -6,-1 -2,1 -9,0l-2 -7c-12,1 -10,-4 -18,-7 -8,-3 -8,0 -13,1 -23,4 -18,9 -23,11 -2,1 -4,-1 -8,1l-9 5c-11,6 -22,24 -22,36 1,14 6,4 -1,22 5,11 7,0 0,18 0,0 1,1 1,1 -1,1 0,1 0,1l1 2 1 1c7,11 3,4 5,14 2,6 5,7 6,15 4,24 4,11 10,22 4,8 -2,1 8,17l20 21 10 -19c-29,-3 -43,-79 -42,-103 0,-14 8,-59 31,-47 19,10 29,40 50,44z"/>
    <g>
     <path class="fil1 str0" d="M4533 720c-46,-27 -70,-80 -67,-83 6,-7 62,11 65,13 2,2 54,-104 66,-104 8,0 -25,69 -23,78 14,-6 72,-60 81,-56 19,11 -46,76 -44,76 1,0 70,-45 86,-33 14,11 -53,62 -55,67 16,-2 73,-40 72,-29 -1,14 -64,75 -73,65 -1,12 4,8 -13,27 -25,29 -53,17 -53,17 -9,27 -66,91 -140,154 -43,27 -199,186 -281,174 -24,-4 -64,-45 -62,-83 3,-46 63,-103 130,-93 33,5 203,-88 203,-88 61,-50 108,-73 108,-102z"/>
     <path class="fil2 str0" d="M4355 981c-1,-17 -31,-74 -49,-103 8,-5 19,-7 27,-12 7,-8 8,-15 18,-17 11,29 47,74 69,96 -1,3 -18,11 -24,18 -6,7 -33,13 -41,18z"/>
     <path class="fil3" d="M4355 978c-4,-15 -19,-46 -33,-73 -4,-7 -8,-13 -11,-19 -1,-2 -2,-3 -3,-5 -2,1 -3,1 -5,2 -6,3 -12,6 -18,8 -28,12 -52,20 -63,19 -67,-10 -127,47 -130,93 -2,38 38,79 62,83 52,8 136,-55 201,-108z"/>
    </g>
   </g>
   <g>
    <path class="fil0 str1" d="M5870 1679c-44,3 -161,-10 -166,-25 8,-50 38,-43 35,-94 -43,-27 -131,-131 -143,-158 -4,-10 11,-64 76,-35 165,74 173,91 208,133 17,21 -108,98 -111,123 47,23 61,-6 100,-1 88,12 122,50 1,57z"/>
    <g>
     <path class="fil1 str0" d="M5930 1072c-26,-26 -10,-47 -8,-48 6,-4 17,-1 18,1 1,2 13,-30 21,-27 5,1 12,11 12,17 10,-2 11,-3 15,1 12,11 5,18 6,18 1,0 5,-4 13,7 8,9 4,18 2,20 24,3 1,39 -7,24 -2,8 2,6 -13,16 -21,15 -38,2 -38,2 -9,17 -53,71 -112,101 -12,-3 -138,-88 -149,-108 -17,-32 15,-104 93,-73 21,9 59,98 59,98 48,-23 84,-30 88,-49z"/>
     <path class="fil2 str0" d="M5776 1170c12,-8 39,-55 52,-80 7,3 13,10 20,14 9,1 14,-2 20,5 -15,20 -32,65 -37,91 -3,1 -16,-8 -24,-9 -7,-1 -24,-18 -31,-21z"/>
     <path class="fil3" d="M5780 1167c12,-13 36,-54 48,-77 -14,-27 -33,-61 -45,-67 -78,-31 -110,41 -93,73 6,12 51,45 90,71z"/>
     <path class="fil1 str0" d="M6018 1071c0,9 -4,17 -10,17 -6,1 -16,1 -16,-8 0,-8 8,-17 14,-17 7,-1 12,-1 12,8z"/>
     <path class="fil1 str0" d="M6006 1039c6,9 8,20 0,25 -7,5 -19,14 -25,5 -6,-8 -2,-23 5,-28 7,-5 14,-10 20,-2z"/>
     <path class="fil1 str0" d="M5989 1016c7,8 8,20 1,25 -7,6 -20,15 -26,6 -7,-9 -3,-24 4,-29 8,-6 15,-11 21,-2z"/>
     <path class="fil1 str0" d="M5968 1003c6,8 7,19 0,24 -7,5 -19,14 -25,6 -6,-9 -2,-23 5,-29 7,-5 13,-10 20,-1z"/>
     <path class="fil1 str0" d="M5943 1063c-10,2 -24,-11 -27,-21 -3,-10 2,-19 12,-21 9,-2 21,10 24,20 2,10 0,20 -9,22z"/>
    </g>
    <path class="fil1" d="M5728 630c17,13 12,6 29,9l-4 51c-1,13 3,40 -7,47 -8,-5 0,-7 -9,-22 -12,-21 -12,-65 -50,-48 -29,13 -41,39 -48,69 -4,13 -9,20 -12,32 -4,22 -9,43 -14,65 -8,38 -56,145 -73,186 27,-1 34,-4 66,7 43,14 120,59 156,88l4 5c5,-2 5,2 -4,-9 -31,-35 -18,-24 -32,-53 -20,-41 -23,-79 -10,-132 11,-41 41,-65 66,-82 17,-12 70,-20 97,-22 7,-21 12,-47 25,-63 6,-7 40,-14 51,-17 45,-10 112,-31 154,-50 9,-4 14,-9 22,-13 29,-16 122,-52 45,-87 -36,-17 -94,-29 -133,-33 -62,-7 -155,13 -232,18 -15,1 -45,1 -56,6 -22,11 -30,26 -31,48z"/>
    <path class="fil1" d="M5826 910l-4 -7c-11,5 -10,-1 -18,-2 -9,0 -9,2 -13,4 -21,10 -15,13 -20,17 -2,1 -4,0 -7,3l-7 7c-10,9 -16,29 -13,40 4,13 7,2 4,22 8,9 7,-2 4,17 1,0 1,0 1,1 1,1 1,1 1,1 1,0 1,1 1,1 1,0 1,1 2,1 9,10 3,3 8,13 4,5 6,6 10,13 9,22 6,9 14,18 6,7 -1,2 12,15l25 15 5 -20c-29,4 -61,-67 -66,-89 -3,-15 -7,-60 19,-54 21,5 38,31 59,30 8,-9 12,-31 17,-45 -10,-3 -7,-6 -26,-3 -5,1 -1,1 -8,2z"/>
    <path class="fil4" d="M5723 771c-13,-3 -7,1 -15,12 -4,5 -10,9 -15,9 -8,-7 -13,-19 -13,-32 0,-11 5,-32 20,-37 9,9 7,19 17,19 21,-27 -41,-63 -51,16 -6,53 56,64 57,13zm-190 258c104,-25 262,131 268,135 28,42 38,285 -53,314 -102,38 -319,-52 -346,-113 -24,-72 119,-316 131,-336zm195 -399c1,-22 9,-37 31,-48 11,-5 41,-5 56,-6 77,-5 170,-25 232,-18 39,4 97,16 133,33 77,35 -16,71 -45,87 -8,4 -13,9 -22,13 -42,19 -109,40 -154,50 -11,3 -45,10 -51,17 -13,16 -18,42 -25,63 -27,2 -80,10 -97,22 -25,17 -55,41 -66,82 -13,53 -10,91 10,132 14,29 1,18 32,53 9,11 9,7 4,9l-4 -5c-36,-29 -113,-74 -156,-88 -32,-11 -39,-8 -66,-7 17,-41 65,-148 73,-186 5,-22 10,-43 14,-65 3,-12 8,-19 12,-32 7,-30 19,-56 48,-69 38,-17 38,27 50,48 9,15 1,17 9,22 10,-7 6,-34 7,-47l4 -51c-17,-3 -12,4 -29,-9zm98 280c7,-1 3,-1 8,-2 19,-3 16,0 26,3 -5,14 -9,36 -17,45 -21,1 -38,-25 -59,-30 -26,-6 -22,39 -19,54 5,22 37,93 66,89l-5 20 -25 -15c-13,-13 -6,-8 -12,-15 -8,-9 -5,4 -14,-18 -4,-7 -6,-8 -10,-13 -5,-10 1,-3 -8,-13 -1,0 -1,-1 -2,-1 0,0 0,-1 -1,-1 0,0 0,0 -1,-1 0,-1 0,-1 -1,-1 3,-19 4,-8 -4,-17 3,-20 0,-9 -4,-22 -3,-11 3,-31 13,-40l7 -7c3,-3 5,-2 7,-3 5,-4 -1,-7 20,-17 4,-2 4,-4 13,-4 8,1 7,7 18,2l4 7zm31 -401c8,-11 34,-37 26,-51 -9,2 -7,12 -25,25 -27,20 -64,23 -98,30 -89,15 -136,15 -141,140 -1,45 3,27 -4,78 -19,139 -53,201 -111,326 -21,46 -110,170 -125,297 4,107 325,178 388,136 116,-81 52,-286 59,-325 16,8 36,9 43,-5 6,-13 -6,-35 -9,-43 -29,-67 4,-68 -29,-78 -9,9 -18,11 -29,-2 -4,-7 -11,-20 -13,-27 -4,-11 -15,-53 -3,-66 16,-16 41,30 66,25 4,-1 14,-6 18,-9 16,-46 26,-99 41,-147 16,-49 4,-29 91,-60 23,-8 52,-14 80,-24 5,-2 8,-2 13,-5 5,-2 8,-4 12,-6l71 -40c7,-4 16,-9 24,-14 43,-31 34,-68 -14,-90 -38,-18 -95,-29 -137,-34 -82,-8 -188,24 -237,17 11,-5 96,-56 88,-78 -13,1 -22,30 -45,30z"/>
    <path class="fil4" d="M5893 578c-19,2 -14,32 4,29 18,-3 20,-31 -4,-29z"/>
    <path class="fil4" d="M5891 629l-2 -2c-10,-5 -20,0 -26,-13 -4,-10 -2,-14 1,-22 2,-5 3,-4 2,-10 -2,0 -7,-6 -12,16 -6,28 27,42 37,31z"/>
    <path class="fil2" d="M5412 1282l395 117c24,-84 13,-206 -6,-235 -6,-4 -164,-160 -268,-135 -9,15 -90,153 -121,253z"/>
    <path class="fil2" d="M5801 1164c-6,-4 -164,-160 -268,-135 -9,15 -90,153 -121,253l395 117c24,-84 13,-206 -6,-235z"/>
    <path class="fil5 str1" d="M5776 1726c-54,6 -185,22 -192,3 11,-60 55,-103 51,-166 -52,-32 -192,-143 -206,-175 -6,-12 13,-77 92,-42 201,90 243,96 287,147 21,25 -127,149 -130,180 45,21 63,-20 110,-12 103,18 174,44 -12,65z"/>
    <path class="fil5" d="M5807 1399l-395 -117c-11,34 -16,64 -10,83 44,85 154,96 179,104 61,18 124,25 167,9 29,-9 48,-40 59,-79z"/>
    <path class="fil1 str0" d="M5970 1105c-4,-26 -7,-54 8,-62 7,-4 14,2 15,5 1,1 15,-18 24,-15 6,2 13,13 12,20 12,-1 12,-2 17,3 12,13 3,20 5,21 1,0 6,-4 14,8 8,11 3,21 1,24 26,4 -3,43 -10,25 -4,9 1,7 -16,17 -25,15 -43,-1 -43,-1 -13,18 -67,75 -135,103 -13,-4 -198,-34 -209,-58 -12,-28 7,-93 55,-98 15,-2 35,14 56,25 23,11 109,39 109,39 56,-22 90,-35 97,-56z"/>
    <path class="fil2 str0" d="M5784 1243c10,-12 31,-69 39,-100 9,2 17,8 26,10 10,0 14,-4 23,2 -13,26 -21,79 -22,109 -3,1 -19,-6 -28,-5 -8,1 -30,-14 -38,-16z"/>
    <path class="fil3" d="M5790 1233c6,-12 14,-31 21,-50 0,-3 1,-5 2,-8 4,-11 7,-22 10,-31 -24,-8 -48,-17 -59,-22 -5,-3 -10,-6 -16,-9 -15,-9 -29,-18 -40,-16 -48,5 -67,70 -55,98 7,14 77,31 134,43 1,-1 2,-3 3,-5z"/>
   </g>
  </g>
 </g>
</svg>
