<?xml version="1.0" encoding="UTF-8"?>
<!DOCTYPE svg PUBLIC "-//W3C//DTD SVG 1.1//EN" "http://www.w3.org/Graphics/SVG/1.1/DTD/svg11.dtd">
<!-- Creator: CorelDRAW X7 -->
<svg xmlns="http://www.w3.org/2000/svg" xml:space="preserve" width="3508px" height="2480px" version="1.1" style="shape-rendering:geometricPrecision; text-rendering:geometricPrecision; image-rendering:optimizeQuality; fill-rule:evenodd; clip-rule:evenodd"
viewBox="0 0 3508 2480"
 xmlns:xlink="http://www.w3.org/1999/xlink">
 <defs>
  <style type="text/css">
   <![CDATA[
    .str1 {stroke:black;stroke-width:2.36229}
    .str0 {stroke:black;stroke-width:2.36229}
    .fil1 {fill:#020205}
    .fil0 {fill:#1A1A1A}
    .fil3 {fill:#333333}
    .fil5 {fill:#666666}
    .fil2 {fill:gray}
    .fil4 {fill:#E6E6E6}
   ]]>
  </style>
 </defs>
 <g id="Слой_x0020_1">
  <metadata id="CorelCorpID_0Corel-Layer"/>
  <g id="_2446598383600">
   <g>
    <path class="fil0 str0" d="M-2566 1670c-25,114 -110,54 -53,-25 34,-48 -1,-89 36,-114 19,13 64,36 105,23 31,-11 -3,-164 22,-146 20,14 169,20 143,69 -29,55 -79,174 -151,174 -21,0 -68,-53 -86,-61 -2,19 -7,55 -16,80z"/>
    <path class="fil1" d="M-2230 978c-8,-7 -5,-3 -15,2 -6,3 -11,3 -15,1 -2,-8 -1,-19 4,-29 4,-7 16,-21 29,-18 3,10 -2,17 5,21 26,-12 -4,-62 -43,-10 -27,36 14,69 35,33zm-242 108c85,25 135,202 138,207 1,17 15,15 10,61 -1,11 42,35 32,82 -16,73 -97,106 -184,105 -271,3 -153,-358 4,-455zm304 -207c9,-16 21,-24 41,-22 10,0 32,13 44,18 57,28 132,51 174,82 26,19 63,51 82,78 41,57 -41,45 -68,44 -8,0 -13,1 -21,1 -38,-3 -95,-16 -132,-27 -9,-3 -36,-11 -43,-9 -16,6 -31,23 -44,36 -20,-10 -62,-26 -79,-24 -25,2 -56,6 -81,32 -30,33 -44,61 -46,99 -2,27 -7,13 1,51 2,12 4,9 -1,8l-1 -5c-14,-36 -51,-99 -76,-127 -19,-21 -25,-22 -45,-32 29,-23 107,-80 129,-104 12,-14 24,-27 37,-41 6,-8 13,-11 21,-18 17,-19 37,-33 63,-31 34,4 17,35 16,55 0,15 -6,13 -3,20 11,-1 19,-22 25,-31l24 -35c-12,-9 -11,-3 -17,-18zm-44 241c5,2 2,1 7,2 14,5 11,6 17,13 -9,8 -21,22 -31,25 -16,-7 -17,-33 -30,-45 -16,-15 -32,19 -36,30 -5,19 -11,83 12,92l-13 12 -11 -21c-4,-14 -1,-8 -3,-15 -2,-10 -5,0 -3,-20 1,-6 -1,-7 -1,-13 0,-9 2,-2 -1,-12 0,-1 -1,-1 -1,-2 0,0 0,0 0,-1 0,0 0,0 0,-1 0,0 0,-1 0,-1 9,-13 5,-4 4,-14 9,-13 3,-6 5,-17 3,-10 16,-22 26,-24l8 -2c4,-1 5,0 6,0 5,0 2,-5 22,-4 3,1 4,-1 10,3 6,4 3,7 13,9l0 6zm186 -276c10,-5 39,-13 39,-26 -7,-3 -9,6 -28,8 -27,3 -56,-10 -83,-19 -70,-25 -104,-44 -158,44 -20,32 -9,20 -36,54 -69,93 -119,124 -212,190 -120,85 -240,433 -30,460 141,18 245,-34 254,-130 -1,-52 -36,-61 -34,-73 6,-50 -4,-45 -2,-48 8,12 22,21 33,14 9,-7 10,-28 11,-35 7,-60 30,-47 11,-68 -11,3 -18,1 -20,-13 -1,-7 0,-19 1,-25 2,-10 11,-45 25,-49 18,-4 17,38 37,45 3,1 13,1 17,1 30,-26 59,-61 89,-89 32,-29 15,-19 91,-6 20,3 43,11 67,15 5,1 7,2 11,2 5,1 8,1 12,1l67 0c7,0 15,0 23,-1 43,-4 52,-34 27,-70 -21,-29 -57,-60 -85,-80 -56,-40 -145,-59 -178,-85 10,1 92,-1 95,-20 -10,-5 -28,12 -44,3z"/>
    <path class="fil2" d="M-2637 1403c101,9 187,21 327,-28 -7,-10 -15,-17 -14,-21 5,-46 -9,-44 -10,-61 -3,-5 -53,-182 -138,-207 -92,57 -171,205 -165,317z"/>
    <path class="fil3 str0" d="M-2477 1729c97,32 65,37 32,38 -32,0 -107,5 -111,-4 -5,-8 -28,-135 -13,-142 35,-4 73,-4 107,-14 11,-3 29,-16 8,-28 -33,-18 -114,-39 -110,-55 27,-113 143,-62 172,-33 28,30 69,77 33,128 -44,63 -76,31 -151,45 9,14 15,25 33,65z"/>
    <path class="fil3" d="M-2310 1375c-140,49 -226,37 -327,28 4,78 49,139 161,138 87,1 168,-32 184,-105 6,-28 -6,-47 -18,-61z"/>
    <path class="fil1" d="M-2044 910c-15,-6 -23,18 -9,23 14,5 27,-15 9,-23z"/>
    <path class="fil1" d="M-2066 946l-1 -2c-5,-8 -14,-8 -13,-20 1,-8 4,-11 10,-16 3,-2 3,-1 5,-6 -2,0 -3,-7 -15,7 -16,18 2,41 14,37z"/>
    <path class="fil4" d="M-2205 1122c-5,-1 -2,0 -7,-2l0 -6c-10,-2 -7,-5 -13,-9 -6,-4 -7,-2 -10,-3 -20,-1 -17,4 -22,4 -1,0 -2,-1 -6,0l-8 2c-10,2 -23,14 -26,24 -2,11 4,4 -5,17 1,10 5,1 -4,14 0,0 0,1 0,1 0,1 0,1 0,1l0 1 1 2c3,10 1,3 1,12 0,6 2,7 1,13 -2,20 1,10 3,20 2,7 -1,1 3,15l11 21 13 -12c-23,-9 -17,-73 -12,-92 4,-11 20,-45 36,-30 13,12 14,38 30,45 10,-3 22,-17 31,-25 -6,-7 -3,-8 -17,-13z"/>
    <path class="fil4" d="M-2295 1088c25,-26 56,-30 81,-32 17,-2 59,14 79,24 13,-13 28,-30 44,-36 7,-2 34,6 43,9 37,11 94,24 132,27 8,0 13,-1 21,-1 27,1 109,13 68,-44 -19,-27 -56,-59 -82,-78 -42,-31 -117,-54 -174,-82 -12,-5 -34,-18 -44,-18 -20,-2 -32,6 -41,22 6,15 5,9 17,18l-24 35c-6,9 -14,30 -25,31 -3,-7 3,-5 3,-20 1,-20 18,-51 -16,-55 -26,-2 -46,12 -63,31 -8,7 -15,10 -21,18 -13,14 -25,27 -37,41 -22,24 -100,81 -129,104 20,10 26,11 45,32 25,28 62,91 76,127l1 5c5,1 3,4 1,-8 -8,-38 -3,-24 -1,-51 2,-38 16,-66 46,-99zm65 -110c-21,36 -62,3 -35,-33 39,-52 69,-2 43,10 -7,-4 -2,-11 -5,-21 -13,-3 -25,11 -29,18 -5,10 -6,21 -4,29 4,2 9,2 15,-1 10,-5 7,-9 15,-2zm164 -32c-12,4 -30,-19 -14,-37 12,-14 13,-7 15,-7 -2,5 -2,4 -5,6 -6,5 -9,8 -10,16 -1,12 8,12 13,20l1 2zm13 -13c-14,-5 -6,-29 9,-23 18,8 5,28 -9,23z"/>
    <path class="fil4 str1" d="M-2277 1267c1,-14 9,-6 35,-27 1,-1 15,-13 22,-10 5,3 9,13 7,19 11,1 11,-1 15,5 8,12 0,17 1,18 1,0 6,-3 11,9 5,10 -1,18 -3,20 22,7 -8,36 -11,20 -4,7 -10,-8 -26,-2 -23,9 -33,-10 -33,-10 -13,13 -63,39 -133,39 -36,-43 -28,-107 -33,-129 -9,-33 53,-94 100,-21 13,21 2,60 -14,89 -5,8 -9,11 -9,11 51,-12 63,-14 71,-31z"/>
    <path class="fil5" d="M-2416 1288c10,-1 68,-6 85,-21 0,1 -1,4 -2,8 4,-8 7,-17 9,-25 6,-20 7,-39 -1,-52 -6,-9 -12,-16 -18,-21 -14,-13 -29,-15 -42,-13 -2,1 -5,2 -7,3 -23,9 -38,34 -33,52 3,13 1,43 8,74 0,-2 0,-3 1,-5z"/>
    <path class="fil2 str1" d="M-2416 1288c10,-1 71,-23 87,-22 0,1 -4,7 -6,14 0,1 2,3 2,4 -1,4 -1,7 -1,9 -18,9 -49,35 -62,52 -2,0 -6,-10 -11,-15 -4,-5 -12,-31 -9,-42z"/>
   </g>
   <g>
    <path class="fil0 str0" d="M-843 1413c53,-3 99,41 89,56 -9,12 -49,20 -98,2 -56,-20 -136,4 -144,-15 -3,-29 34,-44 10,-101 -2,22 -51,108 -212,116 -25,1 12,-171 67,-159 59,13 183,-62 202,7 6,20 -7,81 -10,101 19,-4 69,-9 96,-7z"/>
    <path class="fil1" d="M-981 904c-8,-7 -5,-2 -15,2 -6,3 -11,3 -15,1 -2,-8 -1,-19 4,-29 4,-7 16,-21 29,-18 3,10 -3,17 5,21 26,-11 -4,-62 -43,-10 -27,36 14,69 35,33zm-242 108c85,25 135,202 138,207 1,17 15,15 10,61 -1,11 42,35 32,82 -16,73 -97,106 -184,105 -271,3 -153,-358 4,-455zm304 -207c9,-16 21,-24 41,-22 10,1 32,13 44,18 57,28 132,51 174,82 26,19 63,51 82,78 41,57 -41,45 -68,44 -8,0 -13,2 -21,1 -38,-3 -95,-16 -132,-27 -9,-3 -36,-11 -43,-8 -16,5 -31,22 -44,35 -20,-10 -62,-26 -79,-24 -25,2 -56,6 -81,32 -30,33 -44,61 -46,99 -2,27 -7,13 1,51 2,12 4,9 -1,8l-1 -5c-14,-36 -51,-99 -76,-127 -19,-21 -25,-22 -45,-32 29,-22 107,-80 129,-104 12,-14 24,-27 37,-41 6,-8 13,-11 21,-18 17,-19 37,-33 63,-30 34,3 17,34 16,54 0,15 -6,13 -3,20 11,-1 19,-22 25,-31l24 -35c-12,-9 -11,-3 -17,-18zm-44 241c5,3 2,1 7,2 14,5 11,6 17,13 -9,8 -21,22 -31,26 -16,-8 -17,-34 -30,-46 -16,-15 -32,19 -36,31 -5,18 -11,82 12,91l-13 12 -11 -20c-4,-15 -1,-9 -3,-16 -2,-10 -5,0 -3,-19 1,-7 -1,-8 -1,-14 0,-8 2,-2 -1,-12 0,-1 -1,-1 -1,-1 0,-1 0,-1 0,-2 0,0 0,0 0,-1 0,0 0,-1 0,-1 9,-13 5,-4 4,-14 9,-13 3,-6 5,-17 3,-10 16,-22 26,-24l8 -2c4,-1 5,1 6,0 5,0 2,-5 22,-3 3,0 4,-2 10,2 6,4 3,8 13,9l0 6zm186 -276c10,-4 39,-13 39,-26 -7,-3 -9,6 -28,8 -27,3 -56,-10 -83,-19 -70,-25 -104,-44 -158,44 -20,32 -9,20 -36,54 -69,93 -119,124 -212,190 -120,85 -240,433 -30,460 141,18 244,-33 254,-130 -1,-52 -36,-61 -34,-72 6,-51 -4,-46 -2,-49 8,12 22,21 33,14 9,-7 10,-28 11,-35 7,-60 30,-47 11,-68 -11,3 -18,1 -20,-13 -1,-6 0,-19 1,-25 2,-10 11,-45 25,-48 18,-5 17,38 37,44 3,1 13,1 17,1 30,-26 59,-61 89,-89 32,-29 15,-19 91,-6 20,4 43,11 67,15 5,1 7,2 11,2 5,1 8,1 12,1l67 0c7,0 15,0 23,-1 43,-4 52,-34 27,-70 -21,-29 -57,-60 -85,-80 -56,-40 -145,-59 -178,-85 10,1 92,-1 95,-20 -10,-5 -28,12 -44,3z"/>
    <path class="fil2" d="M-1388 1329c101,9 187,21 327,-28 -7,-9 -15,-16 -14,-21 5,-46 -9,-44 -10,-61 -3,-5 -53,-182 -138,-207 -92,57 -171,205 -165,317z"/>
    <path class="fil3 str0" d="M-1228 1729c97,32 65,37 32,38 -32,0 -107,5 -111,-4 -5,-8 -28,-135 -13,-142 35,-4 48,-5 82,-15 60,-18 -71,-110 -54,-179 27,-114 143,-63 171,-33 28,29 22,138 -14,189 -44,63 -51,67 -126,81 9,14 15,25 33,65z"/>
    <path class="fil3" d="M-1061 1301c-140,49 -226,37 -327,28 4,79 49,139 161,138 87,1 168,-32 184,-105 6,-27 -6,-47 -18,-61z"/>
    <path class="fil1" d="M-796 836c-14,-6 -22,18 -8,23 14,5 27,-15 8,-23z"/>
    <path class="fil1" d="M-817 872l-1 -2c-5,-8 -14,-8 -13,-20 1,-8 4,-11 10,-15 3,-3 3,-2 5,-6 -2,-1 -3,-8 -15,6 -16,18 2,42 14,37z"/>
    <path class="fil4" d="M-956 1048c-5,-1 -2,1 -7,-2l0 -6c-10,-1 -7,-5 -13,-9 -6,-4 -7,-2 -10,-2 -20,-2 -17,3 -22,3 -1,1 -2,-1 -6,0l-8 2c-10,2 -23,14 -26,24 -2,11 4,4 -5,17 1,10 5,1 -4,14 0,0 0,1 0,1 0,1 0,1 0,1l0 2 1 1c3,10 1,4 1,12 0,6 2,7 1,14 -2,19 1,9 3,19 2,7 -1,1 3,16l11 20 13 -12c-23,-9 -17,-73 -12,-91 4,-12 20,-46 36,-31 13,12 14,38 30,46 10,-4 22,-18 31,-26 -6,-7 -3,-8 -17,-13z"/>
    <path class="fil4" d="M-1046 1014c25,-26 56,-30 81,-32 17,-2 59,14 79,24 13,-13 28,-30 44,-35 7,-3 34,5 43,8 37,11 94,24 132,27 8,1 13,-1 21,-1 27,1 109,13 68,-44 -19,-27 -56,-59 -82,-78 -42,-31 -117,-54 -174,-82 -12,-5 -34,-17 -44,-18 -20,-2 -32,6 -41,22 6,15 5,9 17,18l-24 35c-6,9 -14,30 -25,31 -3,-7 3,-5 3,-20 1,-20 18,-51 -16,-54 -26,-3 -46,11 -63,30 -8,7 -15,10 -21,18 -13,14 -25,27 -37,41 -22,24 -100,82 -129,104 20,10 26,11 45,32 25,28 62,91 76,127l1 5c5,1 3,4 1,-8 -8,-38 -3,-24 -1,-51 2,-38 16,-66 46,-99zm65 -110c-21,36 -62,3 -35,-33 39,-52 69,-1 43,10 -8,-4 -2,-11 -5,-21 -13,-3 -25,11 -29,18 -5,10 -6,21 -4,29 4,2 9,2 15,-1 10,-4 7,-9 15,-2zm164 -32c-12,5 -30,-19 -14,-37 12,-14 13,-7 15,-6 -2,4 -2,3 -5,6 -6,4 -9,7 -10,15 -1,12 8,12 13,20l1 2zm13 -13c-14,-5 -6,-29 8,-23 19,8 6,28 -8,23z"/>
    <path class="fil4 str1" d="M-1028 1193c1,-14 9,-6 35,-27 1,-1 15,-13 22,-10 5,3 9,13 7,19 11,1 11,0 15,5 8,12 0,18 1,18 1,0 6,-3 11,9 5,10 -1,18 -3,20 22,7 -8,36 -11,20 -4,7 -10,-8 -26,-2 -23,9 -33,-10 -33,-10 -13,13 -63,39 -133,39 -36,-43 -28,-107 -34,-129 -8,-33 54,-94 101,-21 13,21 2,60 -14,89 -5,9 -9,11 -9,11 51,-11 63,-14 71,-31z"/>
    <path class="fil5" d="M-1167 1215c10,-2 68,-7 85,-22 0,1 -1,4 -2,8 4,-8 7,-16 9,-25 6,-20 7,-39 -1,-52 -6,-9 -12,-16 -18,-21 -14,-12 -29,-15 -42,-12 -2,0 -5,1 -7,2 -23,9 -38,34 -34,52 4,13 2,43 9,74 0,-2 0,-3 1,-4z"/>
    <path class="fil2 str1" d="M-1167 1215c10,-2 71,-24 87,-23 0,1 -4,8 -6,14 0,1 2,3 2,4 -1,4 -1,7 -1,9 -18,9 -49,35 -62,52 -2,0 -6,-10 -11,-15 -4,-5 -12,-31 -9,-41z"/>
   </g>
   <g>
    <path class="fil0 str0" d="M397 1709c126,22 78,58 56,57 -18,-1 -46,2 -81,-3 -16,-8 -83,-103 -73,-134 25,-16 76,-60 69,-102 -21,-29 -89,-14 -168,-153 -13,-22 158,-66 172,-12 15,59 111,107 61,171 -12,17 -46,95 -61,116 11,15 15,35 25,60z"/>
    <path class="fil1" d="M476 950c-8,-8 -6,-3 -16,0 -5,2 -11,2 -14,0 -2,-9 0,-19 6,-28 5,-7 19,-20 31,-15 2,10 -4,16 3,21 27,-9 2,-63 -42,-14 -30,33 7,70 32,36zm-252 82c82,33 113,215 115,220 0,17 14,17 4,62 -3,11 38,39 23,85 -23,70 -108,95 -193,85 -270,-25 -116,-372 51,-452zm323 -174c11,-15 24,-22 44,-18 10,2 30,16 41,23 54,34 126,64 165,99 24,22 58,58 74,86 35,62 -46,41 -73,38 -7,-1 -13,-1 -21,-2 -37,-7 -93,-26 -128,-40 -9,-4 -35,-16 -42,-14 -17,5 -33,20 -48,31 -18,-12 -58,-32 -76,-32 -24,-1 -56,0 -83,24 -34,29 -51,56 -57,93 -4,26 -8,13 -4,51 1,12 3,9 -1,8l-1 -5c-10,-37 -40,-104 -63,-135 -16,-22 -22,-24 -41,-36 31,-19 115,-68 139,-90 14,-12 27,-24 41,-37 7,-7 14,-9 23,-16 19,-17 40,-29 66,-23 33,7 13,36 10,56 -1,15 -7,12 -5,19 11,0 21,-20 28,-28l27 -32c-10,-11 -10,-4 -15,-20zm-68 235c4,3 2,1 6,3 14,6 10,7 16,14 -10,7 -23,20 -33,23 -15,-10 -14,-36 -26,-49 -14,-17 -33,16 -38,27 -8,17 -20,81 1,92l-13 11 -9 -22c-3,-15 0,-8 -1,-16 -1,-10 -5,0 -1,-19 1,-7 -1,-8 0,-14 1,-8 2,-1 0,-12 0,-1 0,-1 0,-2 0,0 0,0 0,-1 0,0 -1,0 -1,-1 1,0 0,-1 0,-1 11,-12 6,-4 6,-14 11,-12 3,-6 7,-16 4,-9 18,-20 28,-21l8 -1c4,-1 5,1 7,1 4,0 2,-5 21,-2 4,1 5,-1 10,4 6,4 3,8 12,10l0 6zm213 -255c11,-3 41,-9 42,-22 -7,-3 -10,5 -29,5 -27,0 -54,-15 -80,-28 -67,-31 -99,-54 -163,28 -22,29 -10,19 -40,50 -79,85 -132,111 -231,166 -128,72 -284,406 -78,455 139,33 247,-8 266,-103 4,-52 -29,-64 -26,-75 11,-50 1,-47 3,-49 6,13 20,24 31,17 10,-5 13,-26 15,-33 13,-59 35,-44 18,-67 -11,2 -18,-1 -18,-15 -1,-6 1,-18 3,-24 3,-10 16,-44 30,-46 19,-3 13,40 33,48 2,2 12,3 16,3 33,-23 65,-54 98,-79 35,-26 17,-18 91,3 19,6 41,16 65,22 5,1 6,2 11,3 4,1 7,2 11,2l67 7c7,1 15,2 23,2 44,0 56,-29 34,-67 -17,-31 -50,-66 -76,-89 -51,-45 -138,-74 -168,-102 10,1 92,8 97,-11 -9,-5 -29,10 -45,-1z"/>
    <path class="fil2" d="M26 1330c100,19 185,41 329,7 -7,-11 -13,-19 -12,-23 10,-45 -4,-45 -4,-62 -2,-5 -33,-187 -115,-220 -98,47 -192,186 -198,298z"/>
    <path class="fil3 str0" d="M-141 1668c-7,-32 55,-118 64,-149 2,-5 4,-44 8,-58 6,-18 27,-23 39,-12 20,28 23,39 51,60 48,37 68,-119 136,-139 113,-32 147,42 135,81 -12,39 -127,132 -194,133 -77,1 -84,-12 -132,-71 8,111 -70,187 -107,155z"/>
    <path class="fil3" d="M355 1337c-144,34 -229,12 -329,-7 -4,79 35,144 147,154 85,10 170,-15 193,-85 9,-27 -1,-47 -11,-62z"/>
    <path class="fil1" d="M667 902c-14,-8 -24,15 -11,22 14,6 29,-12 11,-22z"/>
    <path class="fil1" d="M642 935l-1 -2c-4,-8 -13,-9 -11,-21 2,-8 5,-11 12,-15 3,-2 3,-1 5,-5 -1,-1 -2,-7 -15,5 -18,16 -2,41 10,38z"/>
    <path class="fil4" d="M485 1096c-4,-2 -2,0 -6,-3l0 -6c-9,-2 -6,-6 -12,-10 -5,-5 -6,-3 -10,-4 -19,-3 -17,2 -21,2 -2,0 -3,-2 -7,-1l-8 1c-10,1 -24,12 -28,21 -4,10 4,4 -7,16 0,10 5,2 -6,14 0,0 1,1 0,1 0,1 1,1 1,1l0 1 0 2c2,11 1,4 0,12 -1,6 1,7 0,14 -4,19 0,9 1,19 1,8 -2,1 1,16l9 22 13 -11c-21,-11 -9,-75 -1,-92 5,-11 24,-44 38,-27 12,13 11,39 26,49 10,-3 23,-16 33,-23 -6,-7 -2,-8 -16,-14z"/>
    <path class="fil4" d="M400 1053c27,-24 59,-25 83,-24 18,0 58,20 76,32 15,-11 31,-26 48,-31 7,-2 33,10 42,14 35,14 91,33 128,40 8,1 14,1 21,2 27,3 108,24 73,-38 -16,-28 -50,-64 -74,-86 -39,-35 -111,-65 -165,-99 -11,-7 -31,-21 -41,-23 -20,-4 -33,3 -44,18 5,16 5,9 15,20l-27 32c-7,8 -17,28 -28,28 -2,-7 4,-4 5,-19 3,-20 23,-49 -10,-56 -26,-6 -47,6 -66,23 -9,7 -16,9 -23,16 -14,13 -27,25 -41,37 -24,22 -108,71 -139,90 19,12 25,14 41,36 23,31 53,98 63,135l1 5c4,1 2,4 1,-8 -4,-38 0,-25 4,-51 6,-37 23,-64 57,-93zm76 -103c-25,34 -62,-3 -32,-36 44,-49 69,5 42,14 -7,-5 -1,-11 -3,-21 -12,-5 -26,8 -31,15 -6,9 -8,19 -6,28 3,2 9,2 14,0 10,-3 8,-8 16,0zm166 -15c-12,3 -28,-22 -10,-38 13,-12 14,-6 15,-5 -2,4 -2,3 -5,5 -7,4 -10,7 -12,15 -2,12 7,13 11,21l1 2zm14 -11c-13,-7 -3,-30 11,-22 18,10 3,28 -11,22z"/>
    <path class="fil4 str1" d="M382 1232c2,-14 9,-5 38,-23 1,-1 16,-12 23,-7 4,2 7,13 5,19 10,2 11,1 14,6 7,13 -2,18 -1,18 1,1 6,-2 10,11 4,10 -2,17 -5,19 21,10 -11,35 -13,19 -5,7 -10,-9 -26,-5 -23,7 -32,-13 -32,-13 -14,11 -67,32 -136,25 -31,-46 -16,-110 -20,-132 -5,-34 64,-88 102,-11 12,23 -4,60 -23,88 -6,8 -10,9 -10,9 52,-5 64,-7 74,-23z"/>
    <path class="fil5" d="M241 1239c11,0 68,0 87,-12 0,1 -1,3 -3,7 5,-8 9,-15 12,-23 8,-20 11,-39 4,-53 -4,-9 -9,-16 -15,-22 -13,-14 -27,-18 -40,-17 -3,0 -5,1 -8,2 -23,6 -42,30 -39,48 2,14 -2,43 1,74 0,-1 1,-3 1,-4z"/>
    <path class="fil2 str1" d="M241 1239c11,0 73,-16 89,-13 1,1 -4,7 -7,13 0,1 2,3 1,4 -1,4 -2,7 -2,9 -18,7 -52,30 -66,46 -2,-1 -6,-11 -10,-17 -3,-5 -9,-32 -5,-42z"/>
   </g>
   <g>
    <path class="fil0 str0" d="M2690 1703c111,53 79,62 36,62 -26,1 -51,3 -78,-6 -12,-14 -43,-132 -23,-158 28,-6 52,1 68,-6 11,-18 45,-41 17,-199 -4,-25 172,-9 166,46 -5,61 -84,153 -109,183 -14,16 -73,19 -95,34 2,16 -2,18 18,44z"/>
    <path class="fil1" d="M3024 976c-7,-8 -5,-3 -15,1 -6,2 -11,1 -15,-1 -2,-9 1,-19 7,-28 5,-7 18,-19 31,-15 2,10 -5,16 2,21 27,-9 3,-63 -42,-14 -30,33 7,70 32,36zm-252 83c83,33 114,214 115,219 0,17 14,17 4,62 -2,11 39,40 24,85 -23,71 -108,96 -194,85 -270,-25 -116,-372 51,-451zm324 -175c11,-15 23,-21 43,-18 10,2 31,17 42,23 53,34 126,65 164,99 25,22 58,58 74,87 35,61 -45,40 -72,37 -8,-1 -13,0 -22,-2 -37,-7 -92,-26 -127,-40 -9,-4 -35,-15 -43,-13 -16,4 -32,19 -47,30 -19,-12 -59,-32 -76,-32 -25,0 -57,1 -84,24 -34,29 -50,56 -56,93 -5,27 -9,13 -5,51 2,12 4,9 -1,8l-1 -5c-10,-37 -40,-104 -62,-135 -16,-22 -23,-23 -41,-36 31,-19 114,-68 139,-90 13,-12 27,-24 40,-37 8,-7 15,-9 23,-16 20,-16 40,-29 66,-23 34,7 13,36 11,56 -2,15 -8,12 -5,19 11,0 21,-20 28,-28l27 -32c-10,-11 -10,-4 -15,-20zm-69 236c5,2 2,0 7,2 14,7 10,7 15,14 -9,7 -23,20 -33,23 -15,-10 -14,-36 -25,-49 -15,-17 -34,16 -39,27 -7,18 -20,81 2,92l-14 11 -9 -22c-2,-15 0,-8 -1,-16 -1,-10 -5,0 -1,-19 2,-7 0,-8 0,-14 1,-8 2,-1 0,-12 0,-1 0,-1 0,-1 0,-1 0,-1 0,-2 0,0 0,0 0,-1 0,0 0,-1 0,-1 11,-12 6,-4 5,-14 11,-12 4,-5 8,-16 3,-9 17,-20 27,-21l9 -1c4,-1 5,1 6,1 5,0 3,-5 22,-2 3,1 5,-1 10,4 5,4 2,8 12,10l-1 7zm214 -256c10,-3 40,-8 42,-22 -7,-3 -11,5 -29,5 -28,0 -55,-15 -81,-27 -67,-32 -99,-55 -162,27 -23,29 -11,19 -41,50 -78,85 -131,111 -231,167 -128,71 -284,405 -78,454 139,33 247,-8 267,-103 4,-52 -29,-64 -27,-75 11,-50 1,-46 3,-48 7,12 20,23 32,16 10,-5 13,-26 14,-33 13,-59 36,-44 18,-66 -10,2 -17,-1 -18,-16 0,-6 2,-18 4,-24 2,-10 15,-43 29,-46 19,-3 14,40 33,49 3,1 12,2 17,2 32,-23 64,-54 98,-79 35,-26 16,-18 90,3 20,6 42,16 66,22 4,1 6,3 11,4 4,1 7,1 11,2l67 6c7,1 15,2 22,2 44,0 56,-28 35,-67 -18,-31 -50,-65 -76,-89 -52,-45 -139,-73 -169,-102 10,2 93,8 97,-11 -9,-5 -29,10 -44,-1z"/>
    <path class="fil2" d="M2575 1356c100,20 184,41 329,7 -7,-11 -14,-18 -13,-23 10,-45 -4,-45 -4,-62 -1,-5 -32,-186 -115,-219 -98,46 -191,185 -197,297z"/>
    <path class="fil3 str0" d="M3078 1621c-32,7 -60,-54 -139,-70 -5,-2 -43,-4 -58,-9 -18,-5 -23,-26 -12,-38 28,-20 21,-8 42,-36 36,-48 -144,94 -164,25 -32,-112 56,-118 110,-134 54,-15 131,-20 147,10 23,42 -12,90 -71,139 111,-9 176,75 145,113z"/>
    <path class="fil3" d="M2904 1363c-145,34 -229,13 -329,-7 -4,79 35,144 146,154 86,11 171,-14 194,-85 8,-27 -2,-47 -11,-62z"/>
    <path class="fil1" d="M3216 928c-14,-8 -25,15 -11,22 14,6 29,-12 11,-22z"/>
    <path class="fil1" d="M3191 962l-1 -3c-4,-8 -13,-9 -11,-21 1,-8 5,-10 11,-14 3,-2 4,-2 6,-6 -2,-1 -2,-7 -16,5 -17,16 -1,42 11,39z"/>
    <path class="fil4" d="M3034 1122c-5,-2 -2,0 -7,-2l1 -7c-10,-2 -7,-6 -12,-10 -5,-5 -7,-3 -10,-4 -19,-3 -17,2 -22,2 -1,0 -2,-2 -6,-1l-9 1c-10,1 -24,12 -27,21 -4,11 3,4 -8,16 1,10 6,2 -5,14 0,0 0,1 0,1 0,1 0,1 0,1l0 2 0 1c2,11 1,4 0,12 0,6 2,7 0,14 -4,19 0,9 1,19 1,8 -1,1 1,16l9 22 14 -11c-22,-11 -9,-74 -2,-92 5,-11 24,-44 39,-27 11,13 10,39 25,49 10,-3 24,-16 33,-23 -5,-7 -1,-7 -15,-14z"/>
    <path class="fil4" d="M2948 1079c27,-23 59,-24 84,-24 17,0 57,20 76,32 15,-11 31,-26 47,-30 8,-2 34,9 43,13 35,14 90,33 127,40 9,2 14,1 22,2 27,3 107,24 72,-37 -16,-29 -49,-65 -74,-87 -38,-34 -111,-65 -164,-99 -11,-6 -32,-21 -42,-23 -20,-3 -32,3 -43,18 5,16 5,9 15,20l-27 32c-7,8 -17,28 -28,28 -3,-7 3,-4 5,-19 2,-20 23,-49 -11,-56 -26,-6 -46,7 -66,23 -8,7 -15,9 -23,16 -13,13 -27,25 -40,37 -25,22 -108,71 -139,90 18,13 25,14 41,36 22,31 52,98 62,135l1 5c5,1 3,4 1,-8 -4,-38 0,-24 5,-51 6,-37 22,-64 56,-93zm76 -103c-25,34 -62,-3 -32,-36 45,-49 69,5 42,14 -7,-5 0,-11 -2,-21 -13,-4 -26,8 -31,15 -6,9 -9,19 -7,28 4,2 9,3 15,1 10,-4 8,-9 15,-1zm167 -14c-12,3 -28,-23 -11,-39 14,-12 14,-6 16,-5 -2,4 -3,4 -6,6 -6,4 -10,6 -11,14 -2,12 7,13 11,21l1 3zm14 -12c-14,-7 -3,-30 11,-22 18,10 3,28 -11,22z"/>
    <path class="fil4 str1" d="M2931 1258c2,-13 9,-5 37,-23 2,-1 17,-12 23,-7 4,3 8,14 5,19 10,2 11,1 14,6 7,13 -2,18 -1,19 1,0 7,-3 11,10 4,10 -3,17 -5,19 21,10 -12,36 -14,20 -5,6 -9,-10 -25,-6 -24,7 -32,-13 -32,-13 -14,12 -67,32 -136,25 -31,-46 -17,-110 -20,-132 -6,-34 63,-88 102,-10 11,22 -4,59 -24,87 -5,8 -9,10 -9,10 51,-6 64,-8 74,-24z"/>
    <path class="fil5" d="M2790 1265c10,0 68,1 87,-12 0,1 -1,3 -3,7 4,-7 9,-15 12,-23 8,-19 11,-39 4,-52 -5,-10 -10,-17 -15,-23 -13,-14 -28,-18 -41,-17 -2,1 -5,1 -7,2 -24,6 -42,30 -39,48 2,14 -3,43 1,75 0,-2 0,-4 1,-5z"/>
    <path class="fil2 str1" d="M2790 1265c10,0 73,-15 89,-13 0,1 -5,7 -7,13 0,1 1,3 1,4 -1,4 -2,8 -2,10 -19,6 -52,29 -67,45 -2,-1 -5,-11 -9,-17 -4,-5 -9,-32 -5,-42z"/>
   </g>
   <g>
    <path class="fil0 str0" d="M1558 1715c111,53 61,51 38,50 -25,0 -50,3 -77,-6 -13,-14 -51,-109 -30,-135 28,-6 71,-19 75,-29 -10,-36 -66,-41 -94,-199 -4,-25 172,-9 167,46 -6,61 26,153 0,183 -13,16 -75,29 -97,44 5,19 12,22 18,46z"/>
    <path class="fil1" d="M1749 992c-8,-8 -5,-3 -16,1 -5,2 -11,1 -14,-1 -2,-8 0,-19 6,-28 5,-7 19,-19 31,-15 2,10 -4,16 3,21 27,-8 2,-62 -42,-14 -30,33 7,70 32,36zm-252 83c82,33 113,215 115,220 0,16 14,16 4,61 -3,12 38,40 23,85 -23,71 -108,96 -193,86 -270,-26 -116,-372 51,-452zm323 -175c11,-14 24,-21 44,-17 10,1 30,16 41,23 54,33 126,64 165,99 24,22 58,57 74,86 35,61 -46,41 -73,37 -7,-1 -13,0 -21,-2 -37,-7 -93,-25 -128,-40 -9,-4 -35,-15 -42,-13 -17,4 -33,20 -47,30 -19,-11 -59,-31 -77,-32 -24,0 -56,1 -83,24 -34,29 -51,56 -57,94 -4,26 -8,12 -4,50 1,13 3,10 -1,9l-1 -6c-10,-37 -40,-104 -63,-134 -16,-22 -22,-24 -41,-36 31,-20 115,-69 139,-90 14,-13 27,-25 41,-38 7,-7 15,-9 23,-16 19,-16 40,-28 66,-23 34,7 13,37 10,56 -1,15 -7,12 -4,20 10,0 20,-20 27,-28l27 -33c-10,-10 -10,-4 -15,-20zm-68 236c5,2 2,0 6,2 14,7 10,8 16,15 -10,6 -23,20 -33,22 -15,-9 -14,-35 -26,-49 -14,-16 -33,16 -38,27 -8,18 -20,81 2,92l-14 11 -9 -21c-3,-16 0,-9 -1,-16 -1,-11 -5,0 -1,-20 1,-6 -1,-8 0,-13 1,-9 2,-2 0,-13 0,0 0,-1 0,-1 0,0 0,-1 0,-1 0,0 -1,-1 -1,-1 1,-1 0,-1 0,-2 12,-11 6,-3 6,-13 11,-12 3,-6 7,-17 4,-9 18,-19 28,-21l9 -1c3,0 4,1 6,1 4,0 2,-5 21,-1 4,0 5,-2 10,3 6,5 3,8 12,11l0 6zm213 -255c11,-4 41,-9 42,-22 -7,-4 -10,4 -29,4 -27,1 -54,-15 -80,-27 -67,-32 -99,-55 -162,27 -23,30 -11,19 -41,51 -79,84 -132,110 -231,166 -128,72 -284,405 -78,454 139,33 247,-7 266,-103 4,-51 -29,-63 -26,-75 11,-50 1,-46 3,-48 6,12 20,23 31,17 10,-6 13,-26 15,-34 13,-59 35,-44 18,-66 -11,2 -18,-1 -18,-15 -1,-7 1,-19 3,-25 3,-9 16,-43 30,-46 19,-2 13,40 33,49 2,1 12,2 16,2 33,-23 65,-54 98,-78 35,-26 17,-18 91,3 19,5 41,15 65,22 5,1 6,2 11,3 4,1 7,1 11,2l68 7c6,0 14,2 22,2 44,0 56,-29 34,-68 -17,-30 -50,-65 -76,-88 -51,-46 -138,-74 -168,-103 10,2 92,8 97,-10 -9,-6 -29,9 -45,-1z"/>
    <path class="fil2" d="M1299 1373c100,19 185,40 329,6 -7,-10 -13,-18 -12,-23 10,-45 -4,-45 -4,-61 -2,-5 -33,-187 -115,-220 -98,47 -192,186 -198,298z"/>
    <path class="fil1" d="M1940 944c-14,-7 -24,15 -10,22 13,7 28,-12 10,-22z"/>
    <path class="fil1" d="M1915 978l-1 -3c-4,-8 -13,-9 -11,-20 2,-9 5,-11 12,-15 3,-2 3,-1 5,-6 -1,0 -2,-7 -15,6 -18,16 -2,41 10,38z"/>
    <path class="fil4" d="M1758 1138c-4,-2 -1,0 -6,-2l0 -6c-9,-3 -6,-6 -12,-11 -5,-5 -6,-3 -10,-3 -19,-4 -17,1 -21,1 -2,0 -3,-1 -6,-1l-9 1c-10,2 -24,12 -28,21 -4,11 4,5 -7,17 0,10 6,2 -6,13 0,1 1,1 0,2 0,0 1,1 1,1l0 1 0 1c2,11 1,4 0,13 -1,5 1,7 0,13 -4,20 0,9 1,20 1,7 -2,0 1,16l9 21 14 -11c-22,-11 -10,-74 -2,-92 5,-11 24,-43 38,-27 12,14 11,40 26,49 10,-2 23,-16 33,-22 -6,-7 -2,-8 -16,-15z"/>
    <path class="fil4" d="M1673 1095c27,-23 59,-24 83,-24 18,1 58,21 77,32 14,-10 30,-26 47,-30 7,-2 33,9 42,13 35,15 91,33 128,40 8,2 14,1 21,2 27,4 108,24 73,-37 -16,-29 -50,-64 -74,-86 -39,-35 -111,-66 -165,-99 -11,-7 -31,-22 -41,-23 -20,-4 -33,3 -44,17 5,16 5,10 15,20l-27 33c-7,8 -17,28 -27,28 -3,-8 3,-5 4,-20 3,-19 24,-49 -10,-56 -26,-5 -47,7 -66,23 -8,7 -16,9 -23,16 -14,13 -27,25 -41,38 -24,21 -108,70 -139,90 19,12 25,14 41,36 23,30 53,97 63,134l1 6c4,1 2,4 1,-9 -4,-38 0,-24 4,-50 6,-38 23,-65 57,-94zm76 -103c-25,34 -62,-3 -32,-36 44,-48 69,6 42,14 -7,-5 -1,-11 -3,-21 -12,-4 -26,8 -31,15 -6,9 -8,20 -6,28 3,2 9,3 14,1 11,-4 8,-9 16,-1zm166 -14c-12,3 -28,-22 -10,-38 13,-13 14,-6 15,-6 -2,5 -2,4 -5,6 -7,4 -10,6 -12,15 -2,11 7,12 11,20l1 3zm15 -12c-14,-7 -4,-29 10,-22 18,10 3,29 -10,22z"/>
    <path class="fil4 str1" d="M1655 1275c2,-14 9,-5 38,-24 1,-1 16,-11 23,-7 4,3 7,14 5,19 10,3 11,1 14,7 7,13 -2,17 -1,18 1,0 6,-2 10,10 4,11 -2,18 -5,20 21,9 -11,35 -13,19 -5,6 -9,-10 -26,-5 -23,6 -32,-14 -32,-14 -14,12 -66,32 -136,26 -31,-47 -16,-110 -20,-133 -5,-33 64,-88 103,-10 11,22 -5,60 -24,88 -5,7 -10,9 -10,9 52,-6 64,-7 74,-23z"/>
    <path class="fil5" d="M1514 1282c11,-1 68,0 87,-12 1,0 -1,3 -2,6 4,-7 8,-15 11,-23 8,-19 11,-39 5,-52 -5,-9 -10,-17 -16,-23 -13,-14 -27,-18 -40,-16 -3,0 -5,0 -8,1 -23,7 -42,30 -39,48 3,14 -2,44 1,75 0,-2 1,-3 1,-4z"/>
    <path class="fil2 str1" d="M1514 1282c11,-1 74,-16 89,-14 1,1 -4,7 -7,14 0,1 2,3 1,4 -1,3 -1,7 -2,9 -18,6 -52,29 -66,45 -2,-1 -6,-11 -10,-16 -3,-5 -9,-32 -5,-42z"/>
    <path class="fil3 str0" d="M1682 1707c-35,3 -46,-80 -120,-102 -6,-2 -45,-1 -60,-8 -19,-8 -21,-31 -8,-43 32,-18 15,-5 58,-30 36,-21 -133,47 -146,-30 -21,-125 98,-102 184,-112 87,-10 113,20 115,36 9,82 -73,103 -142,148 120,4 158,104 119,141z"/>
    <path class="fil3" d="M1628 1379c-191,14 -230,7 -330,-14 -4,85 35,155 146,166 86,11 171,-16 194,-92 9,-28 0,-44 -10,-60z"/>
   </g>
   <g>
    <path class="fil0 str0" d="M3906 1703c111,53 79,62 36,62 -26,1 -51,3 -78,-6 -12,-14 -44,-132 -23,-158 28,-6 52,1 68,-6 11,-18 45,-41 17,-199 -4,-25 172,-9 166,46 -5,61 -84,153 -109,183 -14,16 -73,19 -95,34 1,16 -2,18 18,44z"/>
    <path class="fil1" d="M4321 944c-8,-8 -5,-3 -16,1 -5,2 -11,1 -14,-1 -2,-9 0,-19 6,-28 5,-7 19,-19 31,-15 2,10 -4,16 3,21 27,-9 2,-62 -42,-14 -30,33 7,70 32,36zm-252 83c82,33 113,214 115,220 0,16 14,16 4,61 -3,11 38,40 23,85 -23,71 -108,96 -193,85 -270,-25 -116,-372 51,-451zm323 -175c11,-15 24,-21 44,-18 10,2 30,17 41,23 54,34 126,65 165,100 24,22 58,57 74,86 35,61 -46,40 -73,37 -7,-1 -13,0 -21,-2 -37,-7 -93,-26 -128,-40 -9,-4 -35,-15 -42,-13 -17,4 -33,19 -47,30 -19,-12 -59,-32 -77,-32 -24,0 -56,1 -83,24 -34,29 -51,56 -57,93 -4,27 -8,13 -4,51 1,12 3,9 -1,9l-1 -6c-10,-37 -40,-104 -63,-135 -16,-22 -22,-23 -41,-35 31,-20 115,-69 139,-91 14,-12 27,-24 41,-37 7,-7 15,-9 23,-16 19,-16 40,-29 66,-23 33,7 13,36 10,56 -1,15 -7,12 -5,19 11,0 21,-20 28,-28l27 -32c-10,-11 -10,-4 -15,-20zm-68 236c4,2 2,0 6,2 14,7 10,7 16,14 -10,7 -23,20 -33,23 -15,-10 -14,-36 -26,-49 -14,-17 -33,16 -38,27 -8,18 -20,81 1,92l-13 11 -9 -22c-3,-15 0,-8 -1,-16 -1,-10 -5,0 -1,-19 1,-7 -1,-8 0,-14 1,-8 2,-1 0,-12 0,0 0,-1 0,-1 0,-1 0,-1 0,-1 0,-1 -1,-1 -1,-2 1,0 0,-1 0,-1 12,-12 6,-4 6,-14 11,-12 3,-5 7,-16 4,-9 18,-20 28,-21l8 -1c4,-1 5,1 7,1 4,0 2,-5 21,-2 4,1 5,-1 10,4 6,4 3,8 12,10l0 7zm213 -256c11,-3 41,-8 42,-22 -7,-3 -10,5 -29,5 -27,0 -54,-15 -80,-27 -67,-32 -99,-55 -162,27 -23,29 -11,19 -41,50 -79,85 -132,111 -231,167 -128,72 -284,405 -78,454 139,33 247,-8 266,-103 4,-52 -29,-64 -26,-75 11,-50 1,-46 3,-48 6,12 20,23 31,16 10,-5 13,-26 15,-33 13,-59 35,-44 18,-66 -11,2 -18,-1 -18,-16 -1,-6 1,-18 3,-24 3,-10 16,-43 30,-46 19,-3 13,40 33,49 2,1 12,2 16,2 33,-23 65,-54 98,-79 35,-26 17,-18 91,3 19,6 41,16 65,22 5,1 6,3 11,4 4,1 7,1 11,2l67 7c7,0 15,1 23,1 44,0 56,-28 34,-67 -17,-30 -50,-65 -76,-88 -51,-46 -138,-74 -168,-103 10,2 92,8 97,-11 -9,-5 -29,10 -45,-1z"/>
    <path class="fil2" d="M3871 1324c100,20 185,41 329,7 -7,-11 -13,-18 -12,-23 10,-45 -4,-45 -4,-61 -2,-6 -33,-187 -115,-220 -98,46 -192,185 -198,297z"/>
    <path class="fil3 str0" d="M4305 1668c-54,-27 -35,-123 -89,-165 -15,-12 -23,-30 -14,-44 10,-4 10,-9 32,-45 33,-50 -129,114 -158,48 -48,-106 38,-124 90,-147 51,-24 127,-39 147,-12 28,39 -46,120 -42,161 65,95 62,194 34,204z"/>
    <path class="fil3" d="M4200 1331c-144,34 -229,13 -329,-7 -4,79 35,144 147,154 85,11 170,-14 193,-85 9,-27 -1,-47 -11,-62z"/>
    <path class="fil1" d="M4512 896c-14,-7 -24,15 -10,22 13,6 28,-12 10,-22z"/>
    <path class="fil1" d="M4487 930l-1 -3c-4,-8 -13,-9 -11,-21 2,-8 5,-10 12,-14 3,-2 3,-2 5,-6 -1,-1 -2,-7 -15,5 -18,16 -2,42 10,39z"/>
    <path class="fil4" d="M4330 1090c-4,-2 -2,0 -6,-2l0 -7c-9,-2 -6,-6 -12,-10 -5,-5 -6,-3 -10,-4 -19,-3 -17,2 -21,2 -2,0 -3,-2 -7,-1l-8 1c-10,1 -24,12 -28,21 -4,11 4,4 -7,16 0,10 6,2 -6,14 0,0 1,1 0,1 0,1 1,1 1,2l0 1 0 1c2,11 1,4 0,12 -1,6 1,7 0,14 -4,19 0,9 1,19 1,8 -2,1 1,16l9 22 13 -11c-21,-11 -9,-74 -1,-92 5,-11 24,-44 38,-27 12,13 11,39 26,49 10,-3 23,-16 33,-23 -6,-7 -2,-7 -16,-14z"/>
    <path class="fil4" d="M4245 1047c27,-23 59,-24 83,-24 18,0 58,20 77,32 14,-11 30,-26 47,-30 7,-2 33,9 42,13 35,14 91,33 128,40 8,2 14,1 21,2 27,3 108,24 73,-37 -16,-29 -50,-64 -74,-86 -39,-35 -111,-66 -165,-100 -11,-6 -31,-21 -41,-23 -20,-3 -33,3 -44,18 5,16 5,9 15,20l-27 32c-7,8 -17,28 -28,28 -2,-7 4,-4 5,-19 3,-20 23,-49 -10,-56 -26,-6 -47,7 -66,23 -8,7 -16,9 -23,16 -14,13 -27,25 -41,37 -24,22 -108,71 -139,91 19,12 25,13 41,35 23,31 53,98 63,135l1 6c4,0 2,3 1,-9 -4,-38 0,-24 4,-51 6,-37 23,-64 57,-93zm76 -103c-25,34 -62,-3 -32,-36 44,-48 69,5 42,14 -7,-5 -1,-11 -3,-21 -12,-4 -26,8 -31,15 -6,9 -8,19 -6,28 3,2 9,3 14,1 11,-4 8,-9 16,-1zm166 -14c-12,3 -28,-23 -10,-39 13,-12 14,-6 15,-5 -2,4 -2,4 -5,6 -7,4 -10,6 -12,14 -2,12 7,13 11,21l1 3zm15 -12c-14,-7 -4,-29 10,-22 18,10 3,28 -10,22z"/>
    <path class="fil4 str1" d="M4233 1210c-1,-13 8,-6 32,-30 1,-1 13,-15 21,-12 5,2 10,12 9,18 10,0 11,-2 15,3 9,12 2,18 3,18 1,1 5,-3 12,8 6,10 1,18 -1,20 22,5 -4,37 -9,22 -4,7 -11,-8 -26,0 -22,11 -34,-7 -34,-7 -12,15 -59,46 -128,53 -40,-39 -39,-104 -47,-125 -12,-32 44,-99 98,-31 15,19 8,59 -5,90 -4,9 -7,11 -7,11 49,-16 60,-20 67,-38z"/>
    <path class="fil5" d="M4096 1246c11,-2 67,-13 83,-29 1,0 0,3 -1,7 3,-8 5,-17 7,-25 3,-21 2,-40 -7,-52 -7,-8 -13,-15 -20,-19 -15,-11 -30,-12 -43,-8 -2,1 -5,2 -7,3 -22,11 -34,38 -28,55 5,13 6,43 16,73 0,-2 0,-3 0,-5z"/>
    <path class="fil2 str1" d="M4096 1246c11,-2 69,-30 85,-31 0,1 -3,8 -4,15 0,0 2,2 2,3 -1,4 -1,8 -1,10 -16,10 -44,39 -55,58 -2,-1 -8,-10 -13,-14 -5,-5 -15,-30 -14,-41z"/>
   </g>
   <g>
    <path class="fil0 str0" d="M5129 1670c4,-28 36,-62 47,-89 19,-41 28,-114 53,-131 15,-10 40,48 69,73 41,36 56,-148 113,-106 95,68 30,127 -3,173 -33,45 -59,42 -90,29 -44,-20 -50,-59 -74,-93 16,113 -78,183 -115,144z"/>
    <path class="fil1" d="M5738 964c-7,-8 -5,-3 -16,1 -5,2 -10,1 -14,-1 -2,-9 1,-19 7,-28 4,-7 18,-19 30,-15 3,10 -4,16 3,21 27,-9 2,-62 -42,-14 -30,33 7,70 32,36zm-252 83c82,33 114,214 115,220 0,16 14,16 4,61 -2,11 38,40 24,85 -24,71 -108,96 -194,85 -270,-25 -116,-372 51,-451zm324 -175c10,-15 23,-21 43,-18 10,2 31,17 41,23 54,34 127,65 165,100 24,22 58,57 74,86 35,61 -45,40 -72,37 -8,-1 -14,0 -22,-2 -37,-7 -92,-26 -127,-40 -10,-4 -35,-15 -43,-13 -17,4 -33,19 -47,30 -19,-12 -59,-32 -77,-32 -24,0 -56,1 -83,24 -34,29 -50,56 -57,93 -4,27 -8,13 -4,51 1,12 3,9 -1,9l-1 -6c-10,-37 -40,-104 -62,-135 -17,-22 -23,-23 -41,-35 31,-20 114,-69 138,-91 14,-12 27,-24 41,-37 8,-7 15,-9 23,-16 19,-16 40,-29 66,-23 34,7 13,36 11,56 -2,15 -8,12 -5,19 10,0 21,-20 27,-28l28 -32c-11,-11 -10,-4 -15,-20zm-69 236c5,2 2,0 6,2 14,7 11,7 16,14 -10,7 -23,20 -33,23 -15,-10 -14,-36 -25,-49 -15,-17 -34,16 -39,27 -7,18 -20,81 2,92l-14 11 -9 -22c-2,-15 0,-8 -1,-16 -1,-10 -5,0 -1,-19 1,-7 0,-8 0,-14 1,-8 2,-1 0,-12 0,0 0,-1 0,-1 0,-1 0,-1 0,-1 0,-1 -1,-1 0,-2 0,0 0,-1 0,-1 11,-12 6,-4 5,-14 11,-12 4,-5 8,-16 3,-9 17,-20 27,-21l9 -1c3,-1 4,1 6,1 5,0 2,-5 22,-2 3,1 4,-1 10,4 5,4 2,8 11,10l0 7zm214 -256c10,-3 40,-8 42,-22 -7,-3 -11,5 -29,5 -28,0 -55,-15 -81,-27 -67,-32 -99,-55 -162,27 -23,29 -11,19 -41,50 -79,85 -132,111 -231,167 -128,72 -284,405 -78,454 139,33 247,-8 267,-103 4,-52 -29,-64 -27,-75 11,-50 1,-46 3,-48 7,12 20,23 32,16 9,-5 12,-26 14,-33 13,-59 35,-44 18,-66 -10,2 -18,-1 -18,-16 0,-6 2,-18 3,-24 3,-10 16,-43 30,-46 19,-3 14,40 33,49 3,1 12,2 16,2 33,-23 65,-54 98,-79 35,-26 17,-18 91,3 19,6 42,16 66,22 4,1 6,3 10,4 4,1 8,1 12,2l67 7c7,0 15,1 22,1 44,0 56,-28 34,-67 -17,-30 -50,-65 -76,-88 -51,-46 -138,-74 -168,-103 10,2 92,8 97,-11 -9,-5 -29,10 -44,-1z"/>
    <path class="fil2" d="M5288 1344c100,20 185,41 329,7 -6,-11 -13,-18 -12,-23 10,-45 -4,-45 -4,-61 -1,-6 -33,-187 -115,-220 -98,46 -192,185 -198,297z"/>
    <path class="fil1" d="M5929 916c-13,-7 -24,15 -10,22 13,6 28,-12 10,-22z"/>
    <path class="fil1" d="M5904 950l0 -3c-5,-8 -13,-9 -11,-21 1,-8 5,-10 11,-14 3,-2 4,-2 5,-6 -1,-1 -1,-7 -15,5 -17,16 -2,42 10,39z"/>
    <path class="fil4" d="M5747 1110c-4,-2 -1,0 -6,-2l0 -7c-9,-2 -6,-6 -11,-10 -6,-5 -7,-3 -10,-4 -20,-3 -17,2 -22,2 -2,0 -3,-2 -6,-1l-9 1c-10,1 -24,12 -27,21 -4,11 3,4 -8,16 1,10 6,2 -5,14 0,0 0,1 0,1 -1,1 0,1 0,2l0 1 0 1c2,11 1,4 0,12 0,6 1,7 0,14 -4,19 0,9 1,19 1,8 -1,1 1,16l9 22 14 -11c-22,-11 -9,-74 -2,-92 5,-11 24,-44 39,-27 11,13 10,39 25,49 10,-3 23,-16 33,-23 -5,-7 -2,-7 -16,-14z"/>
    <path class="fil4" d="M5662 1067c27,-23 59,-24 83,-24 18,0 58,20 77,32 14,-11 30,-26 47,-30 8,-2 33,9 43,13 35,14 90,33 127,40 8,2 14,1 22,2 27,3 107,24 72,-37 -16,-29 -50,-64 -74,-86 -38,-35 -111,-66 -165,-100 -10,-6 -31,-21 -41,-23 -20,-3 -33,3 -43,18 5,16 4,9 15,20l-28 32c-6,8 -17,28 -27,28 -3,-7 3,-4 5,-19 2,-20 23,-49 -11,-56 -26,-6 -47,7 -66,23 -8,7 -15,9 -23,16 -14,13 -27,25 -41,37 -24,22 -107,71 -138,91 18,12 24,13 41,35 22,31 52,98 62,135l1 6c4,0 2,3 1,-9 -4,-38 0,-24 4,-51 7,-37 23,-64 57,-93zm76 -103c-25,34 -62,-3 -32,-36 44,-48 69,5 42,14 -7,-5 0,-11 -3,-21 -12,-4 -26,8 -30,15 -6,9 -9,19 -7,28 4,2 9,3 14,1 11,-4 9,-9 16,-1zm166 -14c-12,3 -27,-23 -10,-39 14,-12 14,-6 15,-5 -1,4 -2,4 -5,6 -6,4 -10,6 -11,14 -2,12 6,13 11,21l0 3zm15 -12c-14,-7 -3,-29 10,-22 18,10 3,28 -10,22z"/>
    <path class="fil4 str1" d="M5650 1230c-1,-13 8,-6 32,-30 1,-1 14,-15 21,-12 5,2 10,12 9,18 10,0 11,-2 15,3 10,12 2,18 3,18 1,1 6,-3 12,8 6,10 1,18 -1,20 23,5 -4,37 -9,22 -3,7 -11,-8 -26,0 -22,11 -34,-7 -34,-7 -12,15 -59,46 -128,53 -40,-39 -39,-104 -47,-125 -12,-32 44,-99 98,-31 16,19 8,59 -5,90 -4,9 -7,11 -7,11 49,-16 61,-20 67,-38z"/>
    <path class="fil5" d="M5514 1266c10,-2 67,-13 82,-29 1,0 0,3 -1,7 3,-8 5,-17 7,-25 4,-21 3,-40 -7,-52 -6,-8 -13,-15 -19,-19 -16,-11 -31,-12 -44,-8 -2,1 -4,2 -7,3 -21,11 -34,38 -28,55 5,13 7,43 16,73 0,-2 0,-3 1,-5z"/>
    <path class="fil2 str1" d="M5514 1266c10,-2 68,-30 84,-31 1,1 -3,8 -4,15 0,0 2,2 2,3 -1,4 0,8 0,10 -17,10 -45,39 -56,58 -2,-1 -8,-10 -13,-14 -4,-5 -15,-30 -13,-41z"/>
    <path class="fil3 str0" d="M5693 1703c111,53 79,62 35,62 -25,1 -50,3 -77,-6 -13,-14 -47,-86 -26,-148 28,-6 32,-6 48,-13 6,-11 6,-31 -6,-36 -51,-21 -179,-40 -262,-68 -24,-8 90,-143 143,-127 157,49 218,161 200,232 -10,38 -52,45 -73,60 1,16 -2,18 18,44z"/>
    <path class="fil3" d="M5617 1351c-144,34 -229,13 -329,-7 -4,79 35,144 147,154 86,11 170,-14 194,-85 8,-27 -2,-47 -12,-62z"/>
   </g>
  </g>
 </g>
</svg>
