<?xml version="1.0" encoding="UTF-8"?>
<!DOCTYPE svg PUBLIC "-//W3C//DTD SVG 1.1//EN" "http://www.w3.org/Graphics/SVG/1.1/DTD/svg11.dtd">
<!-- Creator: CorelDRAW X7 -->
<svg xmlns="http://www.w3.org/2000/svg" xml:space="preserve" width="1920px" height="1080px" version="1.1" style="shape-rendering:geometricPrecision; text-rendering:geometricPrecision; image-rendering:optimizeQuality; fill-rule:evenodd; clip-rule:evenodd"
viewBox="0 0 1920 1080"
 xmlns:xlink="http://www.w3.org/1999/xlink">
 <defs>
  <style type="text/css">
   <![CDATA[
    .str0 {stroke:black;stroke-width:2.36221}
    .str1 {stroke:black;stroke-width:2.36221}
    .fil4 {fill:#020205}
    .fil3 {fill:#1A1A1A}
    .fil5 {fill:#333333}
    .fil6 {fill:#4D4D4D}
    .fil2 {fill:#666666}
    .fil1 {fill:gray}
    .fil0 {fill:#E6E6E6}
   ]]>
  </style>
 </defs>
 <g id="Слой_x0020_1">
  <metadata id="CorelCorpID_0Corel-Layer"/>
  <g id="_1938332142192">
   <g>
    <path class="fil0 str0" d="M90 660c8,-2 10,4 10,4 0,2 -2,3 -3,4 0,0 5,6 3,7 -1,1 -3,1 -4,0 -1,2 -1,3 -3,3 -3,1 -4,-1 -4,-1 0,0 0,1 -3,2 -2,0 -4,-2 -4,-2 -3,4 -8,-5 -4,-5 -1,-1 -1,0 -1,-4 -1,-6 4,-8 4,-8 -2,-4 -8,-19 -6,-34 2,-2 34,-16 39,-16 8,1 18,15 3,27 -4,3 -27,0 -27,0 -1,12 -4,20 0,23z"/>
    <path class="fil1 str0" d="M89 618c0,3 6,14 9,20 -1,1 -3,1 -5,2 -1,2 -1,3 -3,3 -2,-5 -9,-14 -14,-18 1,-1 4,-2 5,-4 1,-1 6,-2 8,-3z"/>
    <path class="fil2" d="M89 619c1,4 6,14 9,19 7,0 16,1 19,-1 15,-12 5,-26 -3,-27 -3,0 -15,5 -25,9z"/>
    <path class="fil3 str0" d="M223 721c10,-6 21,-12 28,-13 15,-2 -49,52 -52,46 -5,-20 -28,-41 -29,-43 -7,-6 -24,-18 -11,-22 13,-3 17,-10 34,10 5,6 9,33 11,41 4,-3 8,-12 19,-19z"/>
    <path class="fil0" d="M131 508c5,1 3,0 7,0l3 11c0,3 3,9 1,11 -2,-1 0,-2 -3,-4 -4,-4 -7,-14 -14,-8 -6,5 -7,12 -6,19 0,3 -1,5 -1,7 1,6 1,11 1,16 1,9 -2,35 -4,46 6,-2 8,-4 15,-3 11,0 31,5 41,9l1 1c1,-1 1,0 -2,-2 -9,-6 -5,-4 -10,-10 -7,-7 -10,-16 -11,-28 0,-10 5,-17 9,-22 3,-4 14,-9 20,-12 0,-5 0,-11 1,-15 1,-2 8,-6 11,-7 9,-5 22,-14 30,-21 2,-2 3,-3 4,-5 6,-5 24,-19 4,-22 -9,-1 -22,0 -31,2 -14,2 -33,13 -50,19 -3,1 -10,3 -12,5 -4,4 -5,8 -4,13z"/>
    <path class="fil0" d="M171 563l-1 -1c-2,1 -2,0 -4,0 -2,1 -2,1 -3,2 -4,4 -2,4 -3,5 0,0 -1,0 -1,1l-2 2c-1,3 -1,8 0,10 2,3 2,0 3,4 2,2 1,-1 2,4 0,0 0,0 0,0 0,0 0,0 0,0 0,0 1,0 1,0 0,0 0,0 0,1 3,1 1,0 3,2 1,1 1,1 3,2 3,4 2,2 4,3 2,1 0,1 4,3l6 1 0 -5c-6,3 -18,-10 -21,-15 -1,-3 -5,-13 1,-13 5,0 10,4 15,3 1,-3 1,-8 1,-11 -3,0 -2,-1 -6,1 -1,0 0,0 -2,1z"/>
    <path class="fil4" d="M139 539c-3,0 -1,1 -2,3 -1,2 -2,3 -3,3 -2,-1 -4,-3 -5,-6 0,-2 -1,-7 2,-9 3,1 3,4 5,3 3,-8 -13,-11 -10,7 2,12 17,10 13,-1zm-24 69c21,-12 66,12 67,12 9,8 28,61 9,73 -20,15 -73,10 -83,-2 -10,-15 5,-78 7,-83zm16 -100c-1,-5 0,-9 4,-13 2,-2 9,-4 12,-5 17,-6 36,-17 50,-19 9,-2 22,-3 31,-2 20,3 2,17 -4,22 -1,2 -2,3 -4,5 -8,7 -21,16 -30,21 -3,1 -10,5 -11,7 -1,4 -1,10 -1,15 -6,3 -17,8 -20,12 -4,5 -9,12 -9,22 1,12 4,21 11,28 5,6 1,4 10,10 3,2 3,1 2,2l-1 -1c-10,-4 -30,-9 -41,-9 -7,-1 -9,1 -15,3 2,-11 5,-37 4,-46 0,-5 0,-10 -1,-16 0,-2 1,-4 1,-7 -1,-7 0,-14 6,-19 7,-6 10,4 14,8 3,2 1,3 3,4 2,-2 -1,-8 -1,-11l-3 -11c-4,0 -2,1 -7,0zm40 55c2,-1 1,-1 2,-1 4,-2 3,-1 6,-1 0,3 0,8 -1,11 -5,1 -10,-3 -15,-3 -6,0 -2,10 -1,13 3,5 15,18 21,15l0 5 -6 -1c-4,-2 -2,-2 -4,-3 -2,-1 -1,1 -4,-3 -2,-1 -2,-1 -3,-2 -2,-2 0,-1 -3,-2 0,-1 0,-1 0,-1 0,0 -1,0 -1,0 0,0 0,0 0,0 0,0 0,0 0,0 -1,-5 0,-2 -2,-4 -1,-4 -1,-1 -3,-4 -1,-2 -1,-7 0,-10l2 -2c0,-1 1,-1 1,-1 1,-1 -1,-1 3,-5 1,-1 1,-1 3,-2 2,0 2,1 4,0l1 1zm-19 -91c1,-3 5,-10 2,-13 -2,1 0,3 -4,8 -4,6 -12,9 -19,13 -19,9 -29,12 -22,40 2,10 2,5 4,17 5,32 2,48 -3,79 -2,12 -13,45 -8,74 8,23 83,18 94,4 20,-25 -7,-66 -8,-75 4,1 9,0 9,-4 1,-3 -3,-7 -5,-9 -10,-13 -3,-15 -11,-15 -2,2 -3,4 -7,1 -1,-1 -3,-3 -4,-5 -2,-2 -7,-11 -5,-14 2,-5 11,4 16,1 1,0 3,-2 3,-3 1,-11 -1,-24 0,-35 0,-12 -1,-7 16,-19 4,-4 10,-7 16,-11 1,-1 1,-1 2,-2 1,-1 2,-1 3,-2l13 -13c1,-2 3,-3 4,-5 7,-10 3,-17 -9,-19 -10,-1 -23,0 -32,2 -19,3 -40,17 -51,19 2,-2 17,-19 14,-23 -3,1 -3,8 -8,9z"/>
    <path class="fil4" d="M164 485c-4,2 -1,8 3,6 4,-1 2,-8 -3,-6z"/>
    <path class="fil4" d="M167 497l0 -1c-3,0 -5,2 -7,-1 -1,-2 -1,-3 -1,-5 0,-1 0,-1 0,-2 -1,0 -2,-1 -2,4 1,7 9,8 10,5z"/>
    <path class="fil5 str1" d="M100 745c26,7 17,12 8,12 -9,0 -22,4 -28,-9 -6,-13 -10,-31 -6,-33 10,-1 16,-4 25,-7 8,-3 8,-36 16,-36 6,0 22,8 24,21 2,13 3,1 -11,22 -3,5 -7,10 -15,13 -4,1 -17,-2 -22,-1 2,4 4,7 9,18z"/>
    <path class="fil5" d="M199 672l-95 0c0,8 1,15 4,19 15,16 40,11 46,11 15,0 29,-3 37,-9 6,-4 8,-12 8,-21z"/>
    <path class="fil1" d="M104 672l95 0c0,-20 -10,-47 -17,-52 -1,0 -46,-24 -67,-12 -1,4 -10,40 -11,64z"/>
    <path class="fil1" d="M182 620c-1,0 -46,-24 -67,-12 -1,4 -10,40 -11,64l95 0c0,-20 -10,-47 -17,-52z"/>
    <path class="fil0 str0" d="M207 622c-2,-6 -3,-12 0,-15 1,-1 3,0 3,1 1,0 3,-5 5,-4 2,0 4,2 4,4 2,-1 2,-1 4,0 3,2 1,4 1,4 1,0 2,-1 4,2 2,2 1,4 1,5 6,0 1,10 -1,6 -1,2 0,2 -3,5 -5,4 -10,1 -10,1 -2,4 -12,20 -27,29 -3,-1 -37,-20 -41,-25 -5,-8 2,-27 23,-21 5,2 17,24 17,24 12,-7 19,-11 20,-16z"/>
    <path class="fil1 str0" d="M171 652c3,-2 9,-15 12,-22 2,1 3,3 5,3 3,1 4,0 6,1 -4,6 -7,18 -8,25 -1,0 -4,-2 -6,-2 -2,0 -7,-4 -9,-5z"/>
    <path class="fil2" d="M172 651c3,-3 8,-14 11,-21 -4,-6 -10,-15 -13,-16 -21,-6 -28,13 -23,21 2,3 15,10 25,16z"/>
    <path class="fil0 str0" d="M79 677c-2,-1 -3,-3 -2,-4 1,-1 2,-3 3,-2 2,1 3,4 2,5 -1,1 -1,2 -3,1z"/>
    <path class="fil0 str0" d="M87 679c-3,0 -5,-1 -5,-3 0,-2 -1,-6 2,-6 2,0 5,3 5,5 0,2 0,3 -2,4z"/>
    <path class="fil0 str0" d="M93 678c-2,1 -5,-1 -5,-3 0,-2 0,-5 2,-5 3,-1 5,2 6,4 0,2 0,4 -3,4z"/>
    <path class="fil0 str0" d="M99 676c-3,0 -5,-1 -5,-3 0,-2 -1,-6 2,-6 2,0 4,2 5,5 0,2 0,3 -2,4z"/>
    <path class="fil0 str0" d="M90 663c1,-2 5,-3 7,-2 2,1 3,2 3,5 -1,2 -5,3 -7,2 -2,-1 -4,-2 -3,-5z"/>
   </g>
   <path class="fil3 str0" d="M459 741c18,0 34,8 34,12 0,5 -16,4 -34,4 -19,0 -35,2 -35,-3 3,-9 9,-19 10,-29 1,-8 -33,-24 -30,-31 3,-6 16,-17 29,-13 13,4 5,2 18,23 4,5 6,7 7,15 1,5 -14,17 -15,22 4,0 10,0 16,0z"/>
   <path class="fil0 str0" d="M339 662c8,0 9,6 9,7 0,2 -3,3 -3,3 -1,-1 2,7 1,8 -2,0 -4,0 -5,-2 -2,2 -1,3 -3,3 -3,0 -3,-3 -4,-3 0,1 0,2 -3,2 -3,-1 -3,-3 -4,-4 -4,4 -6,-6 -2,-5 -1,-1 -1,-1 0,-4 1,-6 6,-7 6,-7 -1,-4 -3,-20 3,-34 2,-2 37,-7 42,-6 7,3 14,20 -5,27 -4,2 -25,-7 -25,-7 -4,12 -9,18 -7,22z"/>
   <path class="fil1 str0" d="M349 622c0,3 3,15 4,21 -1,1 -3,0 -5,1 -2,1 -2,2 -4,2 -1,-6 -5,-16 -8,-21 0,0 4,-1 5,-2 1,-1 7,-1 8,-1z"/>
   <path class="fil2" d="M349 623c0,4 3,14 4,20 7,2 16,5 18,4 19,-7 12,-24 5,-27 -3,-1 -16,1 -27,3z"/>
   <path class="fil0" d="M387 518c4,2 3,1 7,1l2 11c1,3 3,9 2,11 -2,-1 -1,-2 -4,-4 -4,-4 -6,-14 -14,-8 -5,5 -6,12 -6,19 0,3 -1,5 0,7 0,6 0,11 1,16 0,9 -3,35 -4,46 6,-2 7,-4 15,-3 10,0 30,5 40,9l1 1c1,-1 2,0 -1,-2 -9,-6 -6,-4 -11,-10 -7,-7 -10,-16 -11,-28 0,-10 5,-17 9,-22 3,-4 15,-9 20,-12 1,-5 0,-11 2,-15 1,-2 8,-6 10,-7 9,-5 23,-14 31,-21 1,-2 2,-3 4,-5 5,-5 23,-19 4,-22 -9,-1 -23,0 -32,2 -14,2 -33,13 -50,19 -3,1 -10,3 -12,5 -4,4 -4,8 -3,12z"/>
   <path class="fil0" d="M427 574l-2 -1c-2,1 -2,0 -4,0 -2,1 -2,1 -2,2 -4,4 -3,4 -4,5 0,0 0,0 -1,1l-1 2c-2,3 -2,8 0,10 1,2 1,0 2,4 2,2 1,-1 2,4 0,0 0,0 0,0 0,0 1,0 1,0 0,0 0,0 0,0 0,0 0,0 0,0 3,2 1,1 3,3 1,1 2,1 3,2 4,4 2,2 4,3 2,1 0,1 4,3l6 1 0 -5c-6,3 -18,-10 -20,-15 -2,-3 -6,-13 0,-13 5,0 11,4 16,3 1,-3 0,-8 0,-11 -2,0 -2,-1 -6,1 -1,0 0,0 -1,1z"/>
   <path class="fil4" d="M395 550c-3,0 -2,0 -3,3 0,2 -1,3 -2,3 -2,-1 -4,-3 -5,-6 -1,-2 -1,-7 2,-9 2,1 2,4 5,3 2,-8 -14,-11 -11,7 3,12 17,10 14,-1zm-25 69c21,-12 66,12 68,12 9,8 27,61 9,73 -20,15 -74,9 -84,-2 -10,-15 6,-78 7,-83zm17 -101c-1,-4 -1,-8 3,-12 2,-2 9,-4 12,-5 17,-6 36,-17 50,-19 9,-2 23,-3 32,-2 19,3 1,17 -4,22 -2,2 -3,3 -4,5 -8,7 -22,16 -31,21 -2,1 -9,5 -10,7 -2,4 -1,10 -2,15 -5,3 -17,8 -20,12 -4,5 -9,12 -9,22 1,12 4,21 11,28 5,6 2,4 11,10 3,2 2,1 1,2l-1 -1c-10,-4 -30,-9 -40,-9 -8,-1 -9,1 -15,3 1,-11 4,-37 4,-46 -1,-5 -1,-10 -1,-16 -1,-2 0,-4 0,-7 0,-7 1,-14 6,-19 8,-6 10,4 14,8 3,2 2,3 4,4 1,-2 -1,-8 -2,-11l-2 -11c-4,0 -3,1 -7,-1zm40 56c1,-1 0,-1 1,-1 4,-2 4,-1 6,-1 0,3 1,8 0,11 -5,1 -11,-3 -16,-3 -6,0 -2,10 0,13 2,5 14,18 20,15l0 5 -6 -1c-4,-2 -2,-2 -4,-3 -2,-1 0,1 -4,-3 -1,-1 -2,-1 -3,-2 -2,-2 0,-1 -3,-3 0,0 0,0 0,0 0,0 0,0 0,0 0,0 -1,0 -1,0 0,0 0,0 0,0 -1,-5 0,-2 -2,-4 -1,-4 -1,-2 -2,-4 -2,-2 -2,-7 0,-10l1 -2c1,-1 1,-1 1,-1 1,-1 0,-1 4,-5 0,-1 0,-1 2,-2 2,0 2,1 4,0l2 1zm-20 -91c1,-3 5,-10 3,-13 -2,1 -1,3 -4,8 -5,6 -13,9 -20,13 -18,9 -29,12 -22,40 3,10 3,5 4,17 5,32 2,48 -3,79 -1,12 -13,45 -8,74 8,23 84,18 95,4 20,-25 -8,-66 -8,-75 3,1 8,0 9,-4 0,-3 -4,-7 -5,-9 -11,-13 -4,-15 -12,-15 -1,2 -3,4 -6,1 -2,-1 -4,-3 -5,-5 -2,-2 -7,-11 -5,-14 3,-5 11,4 16,1 1,0 3,-2 4,-3 0,-11 -1,-24 -1,-35 0,-12 -1,-7 16,-19 5,-4 11,-7 16,-11 1,-1 2,-1 3,-2 1,-1 1,-1 2,-2l13 -14c1,-1 3,-2 4,-4 8,-10 4,-17 -9,-19 -9,-1 -22,0 -32,1 -19,4 -40,18 -51,20 2,-2 17,-19 14,-23 -3,1 -3,8 -8,9z"/>
   <path class="fil4" d="M420 496c-4,2 -1,8 3,6 3,-1 2,-8 -3,-6z"/>
   <path class="fil4" d="M423 508l-1 -1c-3,0 -4,1 -6,-1 -2,-2 -2,-3 -2,-5 0,-1 1,-1 0,-2 0,0 -2,-1 -1,4 0,7 8,8 10,5z"/>
   <path class="fil5 str1" d="M343 741c-7,27 -19,11 -16,-9 3,-14 4,-27 7,-27 8,5 16,3 26,5 7,2 3,-37 9,-33 5,3 41,5 35,17 -7,13 -19,42 -37,42 -5,0 -20,-13 -25,-15 0,4 3,14 1,20z"/>
   <path class="fil5" d="M455 683l-95 0c0,8 1,15 3,19 15,16 40,11 46,11 15,0 29,-3 38,-9 6,-4 8,-12 8,-21z"/>
   <path class="fil1" d="M360 683l95 0c-1,-20 -11,-47 -17,-52 -2,0 -47,-24 -68,-12 -1,4 -10,40 -10,64z"/>
   <path class="fil1" d="M438 631c-2,0 -47,-24 -68,-12 -1,4 -10,40 -10,64l95 0c-1,-20 -11,-47 -17,-52z"/>
   <path class="fil0 str0" d="M468 630c-4,-5 -7,-10 -5,-14 1,-1 3,0 4,0 0,0 1,-5 3,-5 2,-1 4,1 5,3 2,-2 2,-2 4,-1 3,1 2,4 3,4 0,0 1,-2 4,0 2,1 2,4 2,5 6,-2 3,9 0,6 0,2 1,2 -1,5 -4,6 -9,4 -9,4 -1,5 -7,22 -19,35 -3,0 -41,-9 -46,-13 -6,-6 -5,-27 16,-26 6,0 24,18 24,18 9,-10 15,-16 15,-21z"/>
   <path class="fil1 str0" d="M441 669c2,-3 5,-17 5,-24 2,0 4,1 7,1 2,0 3,-1 5,0 -2,6 -2,19 -1,25 -1,1 -5,0 -7,0 -1,1 -7,-2 -9,-2z"/>
   <path class="fil2" d="M442 668c1,-4 4,-16 4,-23 -5,-5 -13,-12 -17,-12 -21,-1 -22,20 -16,26 3,2 17,6 29,9z"/>
   <path class="fil0 str0" d="M324 676c-1,-1 -1,-3 -1,-4 1,-1 3,-3 4,-2 2,2 2,5 1,6 -1,1 -2,2 -4,0z"/>
   <path class="fil0 str0" d="M331 680c-2,-1 -4,-2 -3,-4 0,-2 1,-6 3,-5 2,0 4,3 4,5 -1,2 -1,4 -4,4z"/>
   <path class="fil0 str0" d="M338 681c-3,0 -5,-2 -4,-4 0,-2 1,-6 3,-5 3,0 5,3 4,5 0,2 -1,4 -3,4z"/>
   <path class="fil0 str0" d="M344 680c-3,-1 -5,-2 -4,-4 0,-2 1,-6 3,-5 2,0 4,3 4,5 -1,2 -1,4 -3,4z"/>
   <path class="fil0 str0" d="M338 666c2,-2 6,-2 8,-1 2,1 3,3 1,5 -1,2 -5,2 -7,1 -2,-2 -3,-4 -2,-5z"/>
   <g>
    <g>
     <g>
      <path class="fil0 str0" d="M657 648c1,-8 7,-8 7,-8 2,1 3,3 3,4 -1,0 7,-2 8,0 0,1 -1,3 -2,4 2,2 2,2 2,3 0,4 -3,3 -3,4 0,0 2,0 1,3 -1,3 -3,3 -4,3 3,5 -7,6 -5,2 -2,1 -1,1 -5,0 -5,-2 -5,-7 -5,-7 -5,1 -21,0 -34,-7 -1,-2 -3,-37 -1,-42 4,-7 22,-12 26,7 2,5 -10,25 -10,25 11,5 18,11 22,9z"/>
      <path class="fil1 str0" d="M617 633c4,1 16,0 22,-1 1,2 0,3 1,5 1,2 2,3 1,5 -6,0 -16,3 -22,5 0,0 0,-4 -1,-5 -1,-2 0,-7 -1,-9z"/>
      <path class="fil2" d="M618 633c5,1 15,0 21,-1 3,-6 7,-15 6,-18 -4,-19 -22,-14 -26,-7 -1,3 -1,16 -1,26z"/>
     </g>
     <path class="fil0 str0" d="M669 664c-2,1 -4,2 -5,1 -1,-1 -2,-3 0,-4 1,-2 4,-1 5,0 1,1 2,2 0,3z"/>
     <path class="fil0 str0" d="M673 658c-1,2 -2,4 -4,3 -2,0 -6,-1 -5,-4 1,-2 4,-3 6,-3 2,1 4,1 3,4z"/>
     <path class="fil0 str0" d="M675 651c-1,3 -2,5 -5,4 -2,-1 -5,-2 -4,-4 1,-3 4,-4 6,-3 2,0 4,1 3,3z"/>
     <path class="fil0 str0" d="M675 646c-1,2 -3,4 -5,3 -2,-1 -5,-2 -4,-4 0,-2 4,-4 6,-3 1,1 3,1 3,4z"/>
     <path class="fil0 str0" d="M660 649c-2,-1 -1,-6 0,-8 2,-1 4,-2 6,0 1,1 1,5 -1,7 -1,2 -3,3 -5,1z"/>
    </g>
    <path class="fil3 str0" d="M595 741c12,0 34,8 34,13 0,5 -16,4 -34,4 -18,0 -31,1 -31,-4 16,-23 16,-49 20,-64 2,-5 9,-13 23,-10 9,1 -1,31 -3,37 -1,5 -20,19 -21,24 4,0 0,0 12,0z"/>
    <path class="fil0" d="M600 505c5,2 3,0 7,0l3 11c0,3 3,9 1,11 -2,0 0,-1 -3,-4 -4,-4 -7,-13 -15,-7 -5,4 -6,11 -6,18 0,3 0,5 0,8 0,5 1,10 1,15 1,9 -3,36 -4,46 6,-2 7,-3 15,-3 11,0 30,5 40,9l2 1c1,-1 1,0 -2,-2 -9,-5 -5,-4 -10,-9 -8,-8 -11,-16 -11,-29 -1,-9 4,-17 9,-22 3,-4 14,-9 20,-11 0,-5 -1,-11 1,-16 1,-2 8,-5 10,-7 9,-5 23,-14 31,-21 2,-1 2,-3 4,-4 5,-6 23,-20 4,-23 -9,-1 -22,0 -31,2 -15,3 -34,13 -50,19 -3,1 -10,3 -12,5 -4,4 -5,8 -4,13z"/>
    <path class="fil0" d="M640 560l-1 -1c-2,2 -3,0 -5,1 -1,0 -1,1 -2,1 -4,4 -3,4 -3,5 -1,1 -1,1 -2,1l-1 3c-1,2 -1,7 0,9 2,3 2,0 2,5 3,1 2,-1 2,3 1,0 1,0 1,0 0,1 0,1 0,1 0,0 0,0 0,0 0,0 1,0 1,0 2,1 1,0 2,2 1,1 2,1 3,2 4,5 2,2 5,3 1,2 0,1 3,3l7 2 0 -5c-7,3 -18,-11 -21,-16 -1,-2 -5,-12 1,-13 5,0 10,5 15,3 1,-2 0,-8 1,-11 -3,0 -2,-1 -6,1 -1,1 -1,0 -2,1z"/>
    <path class="fil4" d="M608 536c-3,1 -1,1 -2,4 -1,1 -2,2 -3,3 -2,-1 -4,-4 -5,-6 -1,-3 -1,-8 2,-10 3,2 3,4 5,3 3,-7 -13,-11 -10,7 2,12 16,11 13,-1zm-25 70c22,-13 67,11 68,12 9,7 27,60 9,72 -20,15 -74,10 -84,-2 -10,-14 6,-77 7,-82zm17 -101c-1,-5 0,-9 4,-13 2,-2 9,-4 12,-5 16,-6 35,-16 50,-19 9,-2 22,-3 31,-2 19,3 1,17 -4,23 -2,1 -2,3 -4,4 -8,7 -22,16 -31,21 -2,2 -9,5 -10,7 -2,5 -1,11 -1,16 -6,2 -17,7 -20,11 -5,5 -10,13 -9,22 0,13 3,21 11,29 5,5 1,4 10,9 3,2 3,1 2,2l-2 -1c-10,-4 -29,-9 -40,-9 -8,0 -9,1 -15,3 1,-10 5,-37 4,-46 0,-5 -1,-10 -1,-15 0,-3 0,-5 0,-8 0,-7 1,-14 6,-18 8,-6 11,3 15,7 3,3 1,4 3,4 2,-2 -1,-8 -1,-11l-3 -11c-4,0 -2,2 -7,0zm40 55c1,-1 1,0 2,-1 4,-2 3,-1 6,-1 -1,3 0,9 -1,11 -5,2 -10,-3 -15,-3 -6,1 -2,11 -1,13 3,5 14,19 21,16l0 5 -7 -2c-3,-2 -2,-1 -3,-3 -3,-1 -1,2 -5,-3 -1,-1 -2,-1 -3,-2 -1,-2 0,-1 -2,-2 0,0 -1,0 -1,0 0,0 0,0 0,0 0,0 0,0 0,-1 0,0 0,0 -1,0 0,-4 1,-2 -2,-3 0,-5 0,-2 -2,-5 -1,-2 -1,-7 0,-9l1 -3c1,0 1,0 2,-1 0,-1 -1,-1 3,-5 1,0 1,-1 2,-1 2,-1 3,1 5,-1l1 1zm-19 -90c1,-3 5,-11 2,-13 -2,1 -1,3 -4,7 -5,6 -13,9 -20,13 -18,9 -29,12 -21,40 2,10 2,6 4,18 5,31 1,47 -3,79 -2,11 -13,44 -8,73 8,24 83,18 94,5 20,-26 -7,-67 -8,-76 4,1 8,0 9,-4 0,-3 -4,-7 -5,-8 -11,-13 -4,-16 -11,-16 -2,3 -4,4 -7,2 -1,-1 -4,-4 -5,-5 -1,-3 -6,-11 -5,-15 3,-4 11,4 17,1 0,0 2,-2 3,-3 1,-11 -1,-23 -1,-35 1,-12 -1,-6 17,-19 4,-3 10,-6 16,-11 1,0 1,-1 2,-1 1,-1 2,-2 2,-3l13 -13c2,-2 3,-3 5,-5 7,-9 3,-17 -9,-19 -10,-1 -23,0 -33,2 -18,3 -39,18 -51,19 2,-2 18,-19 14,-23 -2,1 -2,8 -7,10z"/>
    <path class="fil4" d="M633 483c-4,1 -1,8 3,6 4,-2 2,-9 -3,-6z"/>
    <path class="fil4" d="M636 494l-1 0c-2,-1 -4,1 -6,-2 -2,-1 -2,-3 -1,-5 0,-1 0,-1 -1,-2 0,0 -2,-1 -1,5 0,6 8,7 10,4z"/>
    <path class="fil1" d="M573 669l95 0c0,-20 -11,-46 -17,-51 -1,-1 -46,-25 -68,-12 -1,3 -10,39 -10,63z"/>
    <path class="fil5 str1" d="M584 731c-7,-12 -11,-27 -8,-29 9,2 29,0 39,-1 -2,-7 -12,-31 -13,-37 -1,-6 40,-11 39,3 -2,14 4,40 -4,54 -2,4 -39,-6 -43,-6 12,20 13,57 -10,16z"/>
    <path class="fil5" d="M668 669l-95 0c0,9 1,15 3,19 16,16 41,11 47,11 14,0 29,-2 37,-9 6,-3 8,-11 8,-21z"/>
    <path class="fil1" d="M651 618c-1,-1 -46,-25 -68,-12 -1,3 -10,39 -10,63l95 0c0,-20 -11,-46 -17,-51z"/>
    <path class="fil0 str0" d="M597 675c6,1 12,1 13,5 1,2 -1,3 -2,3 0,1 4,5 2,7 0,1 -3,2 -5,1 0,3 0,3 -1,4 -4,2 -5,-1 -5,0 0,0 0,1 -3,3 -3,1 -5,-1 -5,-2 -3,6 -10,-3 -5,-3 -2,-2 -2,0 -3,-5 -2,-6 2,-9 2,-9 -3,-4 -13,-19 -16,-36 2,-3 8,-39 21,-40 9,-1 24,12 10,29 -3,4 -11,18 -11,18 2,14 3,22 8,25z"/>
    <path class="fil1 str0" d="M574 629c2,3 15,8 22,10 -1,2 -2,4 -3,6 0,2 1,4 -1,5 -5,-3 -18,-6 -24,-6 -1,-1 1,-5 1,-7 0,-1 4,-6 5,-8z"/>
    <path class="fil2" d="M578 632c5,2 12,5 17,7 2,-3 4,-6 5,-7 14,-17 -1,-30 -10,-29 0,0 0,0 0,0 -1,0 -2,0 -3,1 -1,0 -2,1 -4,2 0,0 0,1 0,2 -2,2 -3,4 -5,7 -2,5 -4,10 -5,15 0,0 0,-1 1,-1 0,0 0,1 1,1 1,1 2,1 3,2z"/>
   </g>
   <g>
    <path class="fil3 str0" d="M803 732c0,1 5,8 13,12 7,4 16,4 18,10 4,6 -27,3 -34,3 -6,0 -18,-25 -18,-29 16,-13 26,-42 34,-55 13,-20 15,-18 29,-16 8,2 13,-3 4,18 -4,8 -46,53 -46,57z"/>
    <g>
     <g>
      <path class="fil0 str0" d="M918 613c-4,-7 1,-11 2,-11 1,-1 3,1 3,1 0,1 5,-5 7,-5 1,1 2,4 1,5 3,0 3,0 4,1 1,3 -1,5 0,5 0,0 1,-1 2,2 1,2 0,4 -1,5 6,2 -2,8 -2,4 -2,2 -1,2 -4,3 -6,2 -9,-2 -9,-2 -3,3 -16,13 -31,16 -2,-1 -25,-28 -26,-33 -2,-8 9,-22 25,-11 4,4 7,26 7,26 12,-2 20,-2 22,-6z"/>
      <path class="fil1 str0" d="M878 626c3,-2 12,-10 17,-15 1,1 2,3 3,4 2,1 3,1 4,3 -4,3 -11,12 -13,17 -1,1 -3,-2 -5,-3 -2,-1 -4,-5 -6,-6z"/>
      <path class="fil2" d="M879 625c4,-2 12,-10 15,-14 -1,-7 -3,-16 -5,-18 -16,-11 -27,3 -25,11 0,3 8,13 15,21z"/>
     </g>
     <path class="fil0 str0" d="M938 618c-1,2 -2,4 -3,3 -2,0 -4,0 -3,-2 0,-2 2,-4 4,-3 1,0 2,0 2,2z"/>
     <path class="fil0 str0" d="M937 610c1,3 1,5 -1,6 -2,1 -5,2 -6,0 -1,-3 1,-6 3,-6 1,-1 3,-2 4,0z"/>
     <path class="fil0 str0" d="M935 604c1,3 0,5 -2,6 -1,1 -5,2 -6,0 -1,-3 1,-6 3,-7 2,0 4,-1 5,1z"/>
     <path class="fil0 str0" d="M931 600c1,2 0,5 -2,5 -1,1 -5,2 -5,0 -1,-2 0,-5 2,-6 2,-1 4,-1 5,1z"/>
     <path class="fil0 str0" d="M922 612c-3,0 -5,-4 -5,-6 0,-3 2,-4 4,-4 2,0 4,3 4,6 0,2 -1,4 -3,4z"/>
    </g>
    <path class="fil0" d="M832 480c5,1 3,0 7,0l3 11c0,3 3,9 1,11 -2,0 0,-1 -3,-4 -4,-4 -7,-14 -14,-7 -6,4 -7,11 -7,18 1,3 0,5 0,8 1,5 1,10 1,15 1,9 -3,36 -4,46 6,-2 8,-3 15,-3 11,0 30,5 40,9l2 1c1,-1 1,0 -2,-2 -9,-5 -5,-4 -10,-9 -7,-8 -11,-16 -11,-29 -1,-10 5,-17 9,-22 3,-4 14,-9 20,-11 0,-5 -1,-11 1,-16 1,-2 8,-6 10,-7 10,-5 23,-14 31,-21 2,-2 3,-3 4,-4 5,-6 24,-20 4,-23 -9,-1 -22,0 -31,2 -14,2 -33,13 -50,19 -3,1 -10,3 -12,5 -4,4 -5,8 -4,13z"/>
    <path class="fil0" d="M872 535l-1 -1c-2,1 -2,0 -4,1 -2,0 -2,1 -3,1 -4,4 -2,4 -3,5 0,1 -1,0 -1,1l-2 2c-1,3 -1,8 0,10 2,3 2,0 3,5 2,1 1,-1 2,3 0,0 0,0 0,0 0,0 0,0 0,0 0,0 0,1 0,1 1,0 1,0 1,0 2,1 1,0 2,2 2,1 2,1 3,2 4,4 2,2 5,3 2,1 0,1 4,3l6 2 0 -5c-6,3 -18,-11 -21,-16 -1,-3 -5,-12 1,-13 5,0 10,5 15,3 1,-3 1,-8 1,-11 -3,0 -2,-1 -6,1 -1,1 0,0 -2,1z"/>
    <path class="fil4" d="M840 511c-3,0 -1,1 -2,4 -1,1 -2,2 -3,3 -2,-1 -4,-4 -5,-7 -1,-2 -1,-7 2,-9 3,1 3,4 5,3 3,-7 -13,-11 -10,7 2,12 16,10 13,-1zm-25 69c22,-12 67,12 68,13 9,7 27,60 9,72 -20,15 -73,10 -83,-2 -10,-14 5,-77 6,-83zm17 -100c-1,-5 0,-9 4,-13 2,-2 9,-4 12,-5 17,-6 36,-17 50,-19 9,-2 22,-3 31,-2 20,3 1,17 -4,23 -1,1 -2,2 -4,4 -8,7 -21,16 -31,21 -2,1 -9,5 -10,7 -2,5 -1,11 -1,16 -6,2 -17,7 -20,11 -4,5 -10,12 -9,22 0,13 4,21 11,29 5,5 1,4 10,9 3,2 3,1 2,2l-2 -1c-10,-4 -29,-9 -40,-9 -7,0 -9,1 -15,3 1,-10 5,-37 4,-46 0,-5 0,-10 -1,-15 0,-3 1,-5 0,-8 0,-7 1,-14 7,-18 7,-7 10,3 14,7 3,3 1,4 3,4 2,-2 -1,-8 -1,-11l-3 -11c-4,0 -2,1 -7,0zm40 55c2,-1 1,0 2,-1 4,-2 3,-1 6,-1 0,3 0,8 -1,11 -5,2 -10,-3 -15,-3 -6,1 -2,10 -1,13 3,5 15,19 21,16l0 5 -6 -2c-4,-2 -2,-2 -4,-3 -3,-1 -1,1 -5,-3 -1,-1 -1,-1 -3,-2 -1,-2 0,-1 -2,-2 0,0 0,0 -1,0 0,0 0,-1 0,-1 0,0 0,0 0,0 0,0 0,0 0,0 -1,-4 0,-2 -2,-3 -1,-5 -1,-2 -3,-5 -1,-2 -1,-7 0,-10l2 -2c0,-1 1,0 1,-1 1,-1 -1,-1 3,-5 1,0 1,-1 3,-1 2,-1 2,0 4,-1l1 1zm-19 -90c1,-3 5,-11 2,-13 -2,1 -1,3 -4,7 -4,6 -12,9 -20,13 -18,9 -28,12 -21,40 2,10 2,6 4,18 5,31 2,47 -3,79 -2,11 -13,44 -8,73 8,24 83,18 94,5 20,-26 -7,-67 -8,-76 4,1 9,0 9,-4 0,-3 -4,-7 -5,-9 -11,-13 -3,-15 -11,-15 -2,3 -4,4 -7,1 -1,-1 -3,-3 -4,-5 -2,-2 -7,-10 -5,-14 2,-4 11,4 16,1 1,0 2,-2 3,-3 1,-11 -1,-23 0,-35 0,-12 -1,-7 16,-19 4,-3 10,-7 16,-11 1,-1 1,-1 2,-2 1,0 2,-1 3,-2l13 -13c1,-2 3,-3 4,-5 7,-9 3,-17 -9,-19 -10,-1 -23,0 -32,2 -19,3 -40,17 -52,19 2,-2 18,-19 15,-23 -3,1 -3,8 -8,10z"/>
    <path class="fil4" d="M865 458c-4,1 -1,7 3,6 4,-2 2,-9 -3,-6z"/>
    <path class="fil4" d="M868 469l-1 -1c-2,0 -4,2 -6,-1 -2,-1 -1,-3 -1,-5 0,-1 0,-1 0,-2 -1,0 -2,-1 -2,4 0,7 9,8 10,5z"/>
    <path class="fil1" d="M805 644l95 0c0,-20 -11,-46 -17,-51 -1,-1 -46,-25 -68,-13 -1,4 -9,40 -10,64z"/>
    <path class="fil5 str1" d="M896 716c-14,-3 -33,-13 -32,-16 7,-6 19,-13 24,-21 -6,-3 -31,-10 -36,-14 -5,-3 18,-38 27,-28 10,11 33,22 39,38 2,5 -33,19 -36,23 23,3 60,26 14,18z"/>
    <path class="fil5" d="M900 644l-95 0c0,8 1,15 4,19 15,16 40,11 46,11 14,0 29,-2 37,-9 6,-4 8,-12 8,-21z"/>
    <path class="fil1" d="M883 593c-1,-1 -46,-25 -68,-13 -1,4 -9,40 -10,64l95 0c0,-20 -11,-46 -17,-51z"/>
    <path class="fil0 str0" d="M798 644c5,4 10,8 9,11 -1,2 -3,2 -4,2 0,0 1,6 -1,7 -1,0 -4,-1 -5,-2 -2,2 -2,3 -3,3 -4,-1 -4,-3 -5,-3 0,0 0,2 -3,1 -3,0 -4,-3 -4,-4 -5,4 -7,-7 -3,-5 -1,-2 -1,-1 0,-6 1,-6 7,-7 7,-7 -1,-5 -2,-23 4,-38 3,-2 27,-30 39,-24 8,4 15,22 -6,30 -5,1 -19,10 -19,10 -5,13 -9,21 -6,25z"/>
    <path class="fil1 str0" d="M801 593c1,3 9,14 14,20 -1,1 -4,2 -5,3 -1,2 -1,4 -4,5 -3,-6 -12,-15 -17,-19 0,0 3,-2 4,-4 1,-2 7,-4 8,-5z"/>
    <path class="fil2" d="M803 597c3,5 8,11 12,16 3,-2 6,-4 8,-4 21,-8 14,-26 6,-30 0,0 0,0 0,0 -1,-1 -2,-1 -3,-1 -1,0 -3,-1 -4,-1 -1,1 -1,1 -2,2 -2,1 -5,3 -7,4 -5,3 -9,7 -13,10 1,0 1,0 1,0 0,0 1,1 1,1 0,1 1,2 1,3z"/>
   </g>
   <g>
    <g>
     <g>
      <path class="fil0 str0" d="M1149 599c-8,1 -9,-5 -9,-6 0,-2 3,-3 3,-3 0,0 -3,-7 -1,-8 1,0 3,0 4,1 2,-2 2,-2 3,-2 4,-1 4,2 4,2 0,-1 0,-2 3,-2 3,0 4,3 4,3 4,-3 7,6 3,5 1,2 1,1 1,5 -1,6 -6,7 -6,7 1,4 3,20 -1,34 -2,2 -36,10 -41,8 -8,-2 -16,-19 2,-27 5,-2 26,6 26,6 3,-12 8,-19 5,-23z"/>
      <path class="fil1 str0" d="M1142 640c0,-3 -3,-15 -6,-21 2,-1 4,0 6,-1 1,-1 2,-3 4,-3 1,6 6,16 9,21 0,1 -4,1 -5,3 -1,1 -7,1 -8,1z"/>
      <path class="fil2" d="M1142 639c-1,-4 -4,-14 -6,-20 -6,-2 -15,-4 -18,-3 -18,8 -10,25 -2,27 2,1 15,-1 26,-4z"/>
     </g>
     <path class="fil0 str0" d="M1163 584c1,2 2,4 1,5 -1,1 -2,3 -4,1 -1,-1 -1,-4 0,-5 1,-1 2,-2 3,-1z"/>
     <path class="fil0 str0" d="M1156 581c2,1 4,2 4,4 0,2 -1,5 -3,5 -2,0 -4,-3 -4,-5 0,-2 0,-4 3,-4z"/>
     <path class="fil0 str0" d="M1149 580c3,1 5,2 5,4 -1,2 -1,6 -4,6 -2,-1 -4,-4 -4,-6 0,-2 1,-4 3,-4z"/>
     <path class="fil0 str0" d="M1144 582c2,0 4,2 4,4 0,2 -1,5 -3,5 -3,0 -5,-3 -4,-5 0,-2 0,-4 3,-4z"/>
     <path class="fil0 str0" d="M1150 596c-1,2 -6,2 -8,1 -2,-1 -3,-3 -2,-5 2,-2 5,-2 8,-1 2,1 3,3 2,5z"/>
    </g>
    <path class="fil0" d="M1071 505c4,2 3,1 7,0l2 12c1,3 3,8 2,11 -2,-1 -1,-2 -4,-5 -4,-4 -6,-13 -14,-7 -5,5 -6,11 -6,18 0,3 -1,5 0,8 0,5 0,10 1,15 0,9 -3,36 -4,46 6,-2 7,-3 15,-3 10,1 30,6 40,10l1 0c1,0 2,0 -1,-1 -9,-6 -6,-5 -11,-10 -7,-8 -10,-16 -11,-28 0,-10 5,-17 9,-23 3,-3 15,-9 20,-11 1,-5 0,-11 2,-15 1,-2 8,-6 10,-8 9,-5 23,-14 31,-21 1,-1 2,-3 4,-4 5,-5 23,-19 4,-22 -9,-2 -23,0 -32,1 -14,3 -33,13 -50,19 -3,2 -10,4 -12,6 -4,3 -4,7 -3,12z"/>
    <path class="fil0" d="M1111 560l-2 -1c-2,2 -2,1 -4,1 -2,0 -2,1 -2,2 -4,3 -3,3 -4,5 0,0 0,0 -1,1l-1 2c-2,2 -2,7 0,9 1,3 1,0 2,5 2,1 1,-1 2,3 0,1 0,0 0,1 0,0 1,0 1,0 0,0 0,0 0,0 0,0 0,0 0,0 3,2 1,1 3,2 1,1 2,1 3,3 4,4 2,1 4,3 2,1 0,0 4,2l6 2 0 -5c-6,3 -18,-11 -20,-15 -2,-3 -6,-13 0,-13 5,-1 11,4 16,2 1,-2 0,-7 0,-11 -2,0 -2,-1 -6,1 -1,1 0,1 -1,1z"/>
    <path class="fil4" d="M1079 536c-3,1 -2,1 -3,4 0,2 -1,3 -2,3 -2,-1 -4,-3 -5,-6 -1,-2 -1,-8 2,-9 2,1 2,3 5,3 2,-8 -14,-12 -11,6 3,13 17,11 14,-1zm-25 70c21,-13 66,12 68,12 9,7 27,60 9,73 -20,15 -74,9 -84,-3 -10,-14 6,-77 7,-82zm17 -101c-1,-5 -1,-9 3,-12 2,-2 9,-4 12,-6 17,-6 36,-16 50,-19 9,-1 23,-3 32,-1 19,3 1,17 -4,22 -2,1 -3,3 -4,4 -8,7 -22,16 -31,21 -2,2 -9,6 -10,8 -2,4 -1,10 -2,15 -5,2 -17,8 -20,11 -4,6 -9,13 -9,23 1,12 4,20 11,28 5,5 2,4 11,10 3,1 2,1 1,1l-1 0c-10,-4 -30,-9 -40,-10 -8,0 -9,1 -15,3 1,-10 4,-37 4,-46 -1,-5 -1,-10 -1,-15 -1,-3 0,-5 0,-8 0,-7 1,-13 6,-18 8,-6 10,3 14,7 3,3 2,4 4,5 1,-3 -1,-8 -2,-11l-2 -12c-4,1 -3,2 -7,0zm40 55c1,0 0,0 1,-1 4,-2 4,-1 6,-1 0,4 1,9 0,11 -5,2 -11,-3 -16,-2 -6,0 -2,10 0,13 2,4 14,18 20,15l0 5 -6 -2c-4,-2 -2,-1 -4,-2 -2,-2 0,1 -4,-3 -1,-2 -2,-2 -3,-3 -2,-1 0,0 -3,-2 0,0 0,0 0,0 0,0 0,0 0,0 0,0 -1,0 -1,0 0,-1 0,0 0,-1 -1,-4 0,-2 -2,-3 -1,-5 -1,-2 -2,-5 -2,-2 -2,-7 0,-9l1 -2c1,-1 1,-1 1,-1 1,-2 0,-2 4,-5 0,-1 0,-2 2,-2 2,0 2,1 4,-1l2 1zm-20 -90c1,-3 5,-10 3,-13 -2,1 -1,3 -4,7 -5,6 -13,10 -20,13 -18,9 -29,12 -22,40 3,10 3,6 4,18 5,32 2,48 -3,79 -1,11 -13,45 -8,73 8,24 84,18 95,5 20,-25 -8,-66 -8,-75 3,0 8,-1 9,-4 0,-4 -4,-8 -5,-9 -11,-13 -4,-16 -12,-16 -1,3 -3,4 -6,2 -2,-1 -4,-4 -5,-5 -2,-2 -7,-11 -5,-14 3,-5 11,3 16,1 1,-1 3,-3 4,-4 0,-11 -1,-23 -1,-34 0,-13 -1,-7 16,-20 5,-3 11,-6 16,-10 1,-1 2,-1 3,-2 1,-1 1,-2 2,-2l13 -14c1,-1 3,-3 4,-4 8,-10 4,-18 -9,-19 -9,-2 -22,-1 -32,1 -19,4 -40,18 -51,19 2,-1 17,-18 14,-23 -3,2 -3,8 -8,10z"/>
    <path class="fil4" d="M1104 483c-4,2 -1,8 3,6 3,-2 2,-8 -3,-6z"/>
    <path class="fil4" d="M1107 494l-1 0c-3,-1 -4,1 -6,-1 -2,-2 -2,-3 -2,-5 0,-1 1,-1 0,-2 0,0 -2,-1 -1,4 0,6 8,7 10,4z"/>
    <path class="fil3 str1" d="M1062 756c-13,3 -29,3 -37,0 -1,-1 -2,-24 -2,-25 0,-12 2,-20 3,-20 9,-1 25,-11 35,-13 13,-3 -5,-21 2,-30 3,-5 41,5 34,17 -7,13 -2,18 -26,31 -26,13 -37,4 -34,16 1,2 3,12 11,13 10,0 14,7 14,11z"/>
    <path class="fil1" d="M1044 669l95 0c-1,-20 -11,-46 -17,-51 -2,0 -47,-25 -68,-12 -1,4 -10,39 -10,63z"/>
    <path class="fil1" d="M1122 618c-2,0 -47,-25 -68,-12 -1,4 -10,39 -10,63l95 0c-1,-20 -11,-46 -17,-51z"/>
    <path class="fil5 str0" d="M1154 717c9,-8 29,-14 32,-10 3,3 -7,11 -21,23 -15,11 -26,23 -29,19 -25,-64 -52,-38 -57,-58 0,0 22,-14 31,-11 30,10 25,35 32,50 3,-4 3,-6 12,-13z"/>
    <path class="fil5" d="M1139 669l-95 0c0,9 1,16 3,19 15,16 40,12 46,12 15,0 29,-3 38,-9 6,-4 8,-12 8,-22z"/>
    <path class="fil0 str0" d="M1029 658c5,3 10,7 9,11 -1,2 -3,2 -4,2 0,0 1,5 -1,6 -1,1 -4,0 -5,-1 -2,2 -2,2 -3,2 -4,0 -4,-3 -5,-3 0,1 0,2 -3,2 -3,-1 -4,-3 -4,-4 -5,3 -7,-8 -3,-6 -1,-2 -1,-1 0,-5 1,-7 7,-7 7,-7 -1,-5 -2,-23 5,-39 2,-1 32,-18 43,-12 8,4 16,33 -6,30 -6,-1 -24,-1 -24,-1 -5,12 -9,20 -6,25z"/>
    <path class="fil6" d="M1033 610c0,4 6,16 9,23 1,0 2,0 3,0 1,0 2,0 3,0 4,0 9,0 11,1 22,3 14,-26 6,-30 -1,-1 -2,-1 -3,-1 -2,0 -4,0 -7,0 0,0 0,0 0,0 -1,0 -3,1 -4,1 -5,1 -13,4 -18,6z"/>
    <path class="fil1 str0" d="M1034 610c0,4 6,16 9,23 -2,1 -4,1 -6,2 -2,2 -2,3 -4,3 -2,-6 -9,-16 -14,-21 1,-1 4,-2 6,-4 1,-1 7,-2 9,-3z"/>
   </g>
   <g>
    <path class="fil3 str0" d="M1293 736c2,10 8,22 4,23 -3,1 -16,-6 -19,-21 -3,-15 -3,-29 -2,-31 8,1 16,6 24,5 4,-4 -3,-32 3,-30 5,1 30,-3 29,8 -1,16 -8,36 -23,38 -5,0 -13,-3 -20,-6 1,4 2,4 4,14z"/>
    <g>
     <g>
      <path class="fil0 str0" d="M1404 623c-8,-2 -7,-8 -7,-9 1,-1 4,-1 4,-1 0,0 0,-8 1,-8 2,0 4,1 5,2 2,-1 2,-1 3,-1 3,1 3,3 3,3 0,0 1,-1 3,0 3,1 3,4 3,4 5,-2 4,8 1,6 0,2 1,1 -1,4 -3,6 -8,5 -8,5 0,4 -3,20 -12,32 -3,1 -38,-4 -42,-7 -7,-5 -8,-23 11,-24 6,-1 23,14 23,14 7,-10 14,-15 13,-20z"/>
      <path class="fil1 str0" d="M1382 659c2,-2 3,-15 2,-21 2,0 4,0 6,0 2,0 3,-1 5,0 -1,5 0,16 1,22 0,1 -4,0 -5,1 -2,0 -7,-2 -9,-2z"/>
      <path class="fil2" d="M1383 659c1,-4 2,-15 1,-21 -5,-4 -12,-10 -16,-9 -19,1 -18,19 -11,24 2,2 15,4 26,6z"/>
     </g>
     <path class="fil0 str0" d="M1422 614c1,2 1,4 -1,5 -1,1 -3,2 -4,0 -1,-2 0,-4 1,-5 2,-1 3,-2 4,0z"/>
     <path class="fil0 str0" d="M1416 609c2,1 4,3 3,5 -1,2 -3,5 -5,4 -2,-1 -3,-5 -2,-7 1,-1 2,-3 4,-2z"/>
     <path class="fil0 str0" d="M1410 606c2,1 4,3 3,5 -1,2 -3,5 -5,4 -2,-1 -3,-5 -2,-7 1,-1 2,-3 4,-2z"/>
     <path class="fil0 str0" d="M1404 605c3,1 4,4 3,5 -1,2 -3,5 -5,4 -2,-1 -3,-4 -2,-6 1,-2 2,-4 4,-3z"/>
     <path class="fil0 str0" d="M1405 620c-1,2 -6,1 -7,-1 -2,-2 -2,-4 0,-6 2,-1 5,0 7,2 2,2 2,4 0,5z"/>
    </g>
    <path class="fil0" d="M1320 517c4,2 3,1 7,0l3 12c0,3 3,8 1,11 -2,-1 -1,-2 -3,-5 -4,-3 -7,-13 -15,-7 -5,5 -6,12 -6,19 0,3 0,4 0,7 0,6 1,10 1,16 1,9 -3,35 -4,45 6,-2 7,-3 15,-2 10,0 30,5 40,9l1 1c1,-1 2,0 -1,-2 -9,-6 -5,-4 -10,-10 -8,-7 -11,-16 -11,-28 -1,-10 4,-17 9,-22 3,-4 14,-10 20,-12 0,-5 -1,-11 1,-15 1,-2 8,-6 10,-7 9,-6 23,-14 31,-21 2,-2 2,-3 4,-5 5,-5 23,-19 4,-22 -9,-1 -22,0 -31,2 -15,2 -34,13 -50,19 -4,1 -10,3 -12,5 -5,4 -5,7 -4,12z"/>
    <path class="fil0" d="M1360 573l-1 -2c-2,2 -3,1 -5,1 -1,1 -1,1 -2,2 -4,3 -3,4 -3,5 -1,0 -1,0 -2,1l-1 2c-1,3 -1,7 0,10 2,2 2,0 2,4 3,2 2,-1 2,4 0,0 1,0 1,0 0,0 0,0 0,0 0,0 0,0 0,0 0,0 0,0 1,0 2,2 1,1 2,2 1,2 2,1 3,3 4,4 2,1 5,3 1,1 0,0 3,2l7 2 0 -5c-7,3 -18,-10 -21,-15 -2,-3 -5,-13 1,-13 5,0 10,4 15,3 1,-3 0,-8 0,-11 -2,0 -2,-1 -5,1 -2,0 -1,0 -2,1z"/>
    <path class="fil4" d="M1328 549c-3,0 -1,0 -2,3 -1,2 -2,3 -3,3 -2,-1 -4,-3 -5,-6 -1,-2 -1,-7 2,-9 3,1 3,3 5,3 3,-8 -13,-11 -10,7 2,12 16,10 13,-1zm-25 69c21,-12 67,12 68,12 9,8 27,61 9,73 -20,15 -74,9 -84,-2 -10,-15 6,-78 7,-83zm17 -101c-1,-5 -1,-8 4,-12 2,-2 8,-4 12,-5 16,-6 35,-17 50,-19 9,-2 22,-3 31,-2 19,3 1,17 -4,22 -2,2 -2,3 -4,5 -8,7 -22,15 -31,21 -2,1 -9,5 -10,7 -2,4 -1,10 -1,15 -6,2 -17,8 -20,12 -5,5 -10,12 -9,22 0,12 3,21 11,28 5,6 1,4 10,10 3,2 2,1 1,2l-1 -1c-10,-4 -30,-9 -40,-9 -8,-1 -9,0 -15,2 1,-10 5,-36 4,-45 0,-6 -1,-10 -1,-16 0,-3 0,-4 0,-7 0,-7 1,-14 6,-19 8,-6 11,4 15,7 2,3 1,4 3,5 2,-3 -1,-8 -1,-11l-3 -12c-4,1 -3,2 -7,0zm40 56c1,-1 0,-1 2,-1 3,-2 3,-1 5,-1 0,3 1,8 0,11 -5,1 -10,-3 -15,-3 -6,0 -3,10 -1,13 3,5 14,18 21,15l0 5 -7 -2c-3,-2 -2,-1 -3,-2 -3,-2 -1,1 -5,-3 -1,-2 -2,-1 -3,-3 -1,-1 0,0 -2,-2 -1,0 -1,0 -1,0 0,0 0,0 0,0 0,0 0,0 0,0 0,0 -1,0 -1,0 0,-5 1,-2 -2,-4 0,-4 0,-2 -2,-4 -1,-3 -1,-7 0,-10l1 -2c1,-1 1,-1 2,-1 0,-1 -1,-2 3,-5 1,-1 1,-1 2,-2 2,0 3,1 5,-1l1 2zm-19 -91c1,-3 5,-10 2,-13 -2,1 -1,3 -4,7 -5,6 -13,10 -20,13 -18,10 -29,13 -21,41 2,10 2,5 4,17 5,32 1,48 -3,79 -2,12 -13,45 -8,74 8,23 83,18 94,4 20,-25 -7,-66 -8,-75 4,1 8,-1 9,-4 0,-3 -4,-7 -5,-9 -11,-13 -4,-15 -11,-15 -2,2 -4,3 -7,1 -1,-1 -4,-3 -5,-5 -1,-2 -7,-11 -5,-14 3,-5 11,4 17,1 0,-1 2,-2 3,-3 0,-11 -1,-24 -1,-35 1,-12 -1,-7 17,-20 4,-3 10,-6 15,-10 1,-1 2,-1 3,-2 1,-1 2,-1 2,-2l13 -14c2,-1 3,-3 5,-4 7,-10 3,-17 -9,-19 -10,-2 -23,0 -33,1 -18,4 -39,18 -51,20 2,-2 18,-19 14,-23 -2,1 -2,8 -7,9z"/>
    <path class="fil4" d="M1353 495c-4,2 -1,8 3,6 4,-2 2,-8 -3,-6z"/>
    <path class="fil4" d="M1356 506l-1 0c-2,0 -4,1 -6,-1 -2,-2 -2,-3 -1,-5 0,-1 0,-1 -1,-2 0,0 -2,-1 -1,4 0,7 8,8 10,4z"/>
    <path class="fil1" d="M1293 682l95 0c0,-20 -11,-47 -17,-52 -1,0 -47,-24 -68,-12 -1,4 -10,40 -10,64z"/>
    <path class="fil5 str0" d="M1386 740c12,0 32,7 32,11 0,5 -13,5 -31,6 -19,0 -35,2 -35,-2 5,-18 9,-30 8,-40 -17,-18 -24,-28 -18,-42 0,0 27,3 32,11 4,6 10,21 11,27 2,11 -12,20 -16,32 4,-1 5,-3 17,-3z"/>
    <path class="fil5" d="M1388 682l-95 0c0,8 1,15 3,19 16,15 41,11 47,11 14,0 29,-3 37,-9 6,-4 8,-12 8,-21z"/>
    <path class="fil1" d="M1371 630c-1,0 -47,-24 -68,-12 -1,4 -10,40 -10,64l95 0c0,-20 -11,-47 -17,-52z"/>
    <g>
     <path class="fil0 str0" d="M1274 669c5,4 10,8 9,12 0,1 -2,1 -3,1 0,0 1,6 -1,7 -2,0 -5,0 -5,-2 -2,2 -2,3 -4,3 -4,0 -4,-3 -4,-3 0,0 0,2 -4,1 -3,0 -3,-3 -4,-4 -5,4 -6,-7 -2,-5 -1,-2 -2,-1 0,-6 1,-6 7,-7 7,-7 -1,-4 -1,-25 5,-41 3,-2 35,-14 46,-9 9,4 15,29 -2,28 -7,-1 -29,-2 -29,-2 -8,11 -11,23 -9,27z"/>
     <path class="fil1 str0" d="M1277 621c0,3 7,15 11,21 -1,1 -4,2 -5,3 -2,2 -2,3 -4,4 -3,-6 -11,-15 -16,-20 0,-1 4,-2 5,-4 1,-2 7,-3 9,-4z"/>
     <path class="fil6" d="M1277 621c1,5 7,16 11,21 0,0 0,0 0,0 2,1 4,1 7,1 1,0 2,0 3,0 5,0 11,0 14,1 17,1 11,-24 2,-28 -1,0 -2,-1 -3,-1 -1,0 -3,0 -5,0 -1,0 -1,0 -2,0 -1,0 -2,0 -4,0 -8,1 -17,4 -23,6z"/>
    </g>
   </g>
   <g>
    <path class="fil3 str0" d="M1559 719c6,8 9,18 6,18 -3,-1 -10,-1 -23,-13 -13,-12 -29,-25 -26,-27 8,-3 35,-5 39,-7 -2,-4 -35,-31 -28,-33 5,-1 19,-21 33,-3 11,14 19,49 12,52 -4,2 -27,-2 -36,-2 3,4 16,6 23,15z"/>
    <path class="fil0" d="M1526 479c5,1 3,0 7,0l3 11c1,3 3,9 1,11 -2,0 0,-1 -3,-4 -4,-4 -7,-14 -14,-7 -6,4 -7,11 -6,18 0,3 -1,5 -1,8 1,5 1,10 1,15 1,9 -2,36 -3,46 5,-2 7,-3 14,-3 11,0 31,5 41,9l1 1c1,-1 1,0 -2,-2 -9,-5 -5,-4 -10,-9 -7,-8 -10,-16 -11,-29 0,-9 5,-17 9,-22 3,-4 14,-9 20,-11 0,-5 0,-11 1,-16 1,-2 8,-5 11,-7 9,-5 22,-14 30,-21 2,-1 3,-3 4,-4 6,-6 24,-20 5,-23 -10,-1 -23,0 -32,2 -14,2 -33,13 -50,19 -3,1 -10,3 -12,5 -4,4 -5,8 -4,13z"/>
    <path class="fil0" d="M1566 534l-1 -1c-2,2 -2,0 -4,1 -2,0 -2,1 -3,1 -4,4 -2,4 -3,5 0,1 -1,1 -1,1l-1 3c-2,2 -2,7 -1,9 2,3 2,0 3,5 2,1 1,-1 2,3 0,0 0,0 0,0 0,0 0,0 0,1 0,0 1,0 1,0 0,0 0,0 0,0 3,1 1,0 3,2 1,1 1,1 3,2 3,4 2,2 4,3 2,2 0,1 4,3l6 2 0 -5c-6,3 -18,-11 -20,-16 -2,-3 -6,-12 0,-13 5,0 11,5 15,3 1,-2 1,-8 1,-11 -3,0 -2,-1 -6,1 -1,1 0,0 -2,1z"/>
    <path class="fil4" d="M1534 510c-2,0 -1,1 -2,4 -1,1 -2,2 -3,3 -2,-1 -4,-4 -5,-6 0,-3 -1,-8 2,-10 3,1 3,4 5,3 3,-7 -13,-11 -10,7 2,12 17,11 13,-1zm-24 69c21,-12 66,12 67,13 9,7 28,60 9,72 -20,15 -73,10 -83,-2 -10,-14 5,-77 7,-83zm16 -100c-1,-5 0,-9 4,-13 2,-2 9,-4 12,-5 17,-6 36,-17 50,-19 9,-2 22,-3 32,-2 19,3 1,17 -5,23 -1,1 -2,3 -4,4 -8,7 -21,16 -30,21 -3,2 -10,5 -11,7 -1,5 -1,11 -1,16 -6,2 -17,7 -20,11 -4,5 -9,13 -9,22 1,13 4,21 11,29 5,5 1,4 10,9 3,2 3,1 2,2l-1 -1c-10,-4 -30,-9 -41,-9 -7,0 -9,1 -14,3 1,-10 4,-37 3,-46 0,-5 0,-10 -1,-15 0,-3 1,-5 1,-8 -1,-7 0,-14 6,-18 7,-7 10,3 14,7 3,3 1,4 3,4 2,-2 0,-8 -1,-11l-3 -11c-4,0 -2,1 -7,0zm40 55c2,-1 1,0 2,-1 4,-2 3,-1 6,-1 0,3 0,9 -1,11 -4,2 -10,-3 -15,-3 -6,1 -2,10 0,13 2,5 14,19 20,16l0 5 -6 -2c-4,-2 -2,-1 -4,-3 -2,-1 -1,1 -4,-3 -2,-1 -2,-1 -3,-2 -2,-2 0,-1 -3,-2 0,0 0,0 0,0 0,0 -1,0 -1,0 0,-1 0,-1 0,-1 0,0 0,0 0,0 -1,-4 0,-2 -2,-3 -1,-5 -1,-2 -3,-5 -1,-2 -1,-7 1,-9l1 -3c0,0 1,0 1,-1 1,-1 -1,-1 3,-5 1,0 1,-1 3,-1 2,-1 2,1 4,-1l1 1zm-19 -90c1,-3 5,-11 2,-13 -2,1 0,3 -4,7 -4,6 -12,9 -19,13 -19,9 -29,12 -22,40 3,10 2,6 4,18 5,31 2,47 -3,79 -2,11 -13,44 -8,73 8,24 83,18 94,5 21,-26 -7,-67 -8,-76 4,1 9,0 9,-4 1,-3 -3,-7 -5,-9 -10,-12 -3,-15 -11,-15 -1,3 -3,4 -7,2 -1,-2 -3,-4 -4,-5 -2,-3 -7,-11 -5,-15 2,-4 11,4 16,1 1,0 3,-2 3,-3 1,-11 -1,-23 0,-35 0,-12 -1,-6 16,-19 4,-3 10,-7 16,-11 1,0 1,-1 2,-2 1,0 2,-1 3,-2l13 -13c1,-2 3,-3 4,-5 8,-9 3,-17 -9,-19 -10,-1 -23,0 -32,2 -19,3 -40,18 -51,19 2,-2 17,-19 14,-23 -3,1 -3,8 -8,10z"/>
    <path class="fil4" d="M1559 457c-4,1 -1,8 3,6 4,-2 3,-9 -3,-6z"/>
    <path class="fil4" d="M1562 468l0 0c-3,-1 -5,1 -7,-2 -1,-1 -1,-3 -1,-5 0,-1 0,-1 0,-2 -1,0 -2,-1 -2,4 1,7 9,8 10,5z"/>
    <path class="fil1" d="M1499 643l95 0c0,-20 -10,-46 -17,-51 -1,-1 -46,-25 -67,-13 -1,4 -10,40 -11,64z"/>
    <path class="fil5 str0" d="M1544 740c12,-1 32,7 32,11 0,5 -13,5 -31,5 -18,1 -35,3 -35,-2 5,-18 11,-36 13,-50 -5,-38 -23,-43 -17,-57 0,0 38,-11 46,9 3,7 -6,41 -8,46 -4,15 -13,29 -17,40 5,0 5,-2 17,-2z"/>
    <path class="fil5" d="M1594 643l-95 0c0,8 1,15 4,19 15,16 40,11 46,11 15,0 29,-2 37,-9 6,-4 8,-12 8,-21z"/>
    <path class="fil1" d="M1577 592c-1,-1 -46,-25 -67,-13 -1,4 -10,40 -11,64l95 0c0,-20 -10,-46 -17,-51z"/>
    <path class="fil0 str0" d="M1552 653c6,-1 12,-2 14,1 1,1 0,3 -1,4 0,0 4,3 4,5 -1,1 -3,3 -5,3 0,2 1,3 0,4 -3,3 -5,1 -5,1 0,0 1,1 -2,3 -2,2 -5,1 -5,1 -1,6 -10,-1 -6,-2 -2,-1 -2,0 -4,-4 -4,-5 -1,-10 -1,-10 -4,-2 -21,-13 -26,-31 -1,-4 -12,-41 0,-46 8,-3 24,1 22,18 0,6 1,28 1,28 2,13 9,23 14,25z"/>
    <path class="fil1 str0" d="M1515 630c3,0 17,-3 24,-5 0,2 0,5 1,7 1,2 1,3 1,5 -6,1 -15,3 -20,8 0,-1 -3,-4 -4,-6 -1,-1 -2,-8 -2,-9z"/>
    <path class="fil6" d="M1520 629c5,0 13,-2 18,-3 -1,-6 -1,-21 -1,-26 1,-8 -2,-13 -6,-16 -1,-1 -2,-1 -3,-2 -5,-1 -10,-1 -13,0 -12,5 -1,42 0,46 0,1 0,1 0,2 1,0 1,0 1,0 1,0 2,0 4,-1z"/>
   </g>
   <g>
    <g>
     <g>
      <path class="fil0 str0" d="M1733 618c7,-3 11,2 11,2 0,2 -1,4 -2,4 0,0 6,5 5,7 -1,1 -4,1 -5,1 -1,2 0,3 -2,3 -3,2 -4,0 -4,0 0,0 1,1 -2,2 -3,1 -5,0 -5,-1 -2,5 -8,-3 -5,-3 -1,-1 -1,0 -2,-4 -2,-6 2,-9 2,-9 -2,-3 -11,-17 -13,-32 2,-2 30,-23 35,-24 8,-1 21,12 9,26 -4,4 -26,5 -26,5 1,13 0,21 4,23z"/>
      <path class="fil1 str0" d="M1723 577c1,4 9,13 14,18 -2,1 -3,2 -5,3 -1,2 -1,3 -3,4 -3,-5 -11,-12 -16,-15 0,-1 3,-3 3,-5 1,-1 6,-3 7,-5z"/>
      <path class="fil2" d="M1724 578c2,4 8,12 13,17 6,-1 15,-3 18,-5 12,-14 -1,-27 -9,-26 -3,1 -14,8 -22,14z"/>
     </g>
     <path class="fil0 str0" d="M1726 637c-2,0 -3,-2 -3,-3 1,-1 1,-4 3,-3 2,1 3,3 3,5 0,1 -1,2 -3,1z"/>
     <path class="fil0 str0" d="M1734 637c-2,1 -5,0 -5,-2 -1,-1 -2,-5 0,-5 3,-1 6,1 6,3 1,2 1,3 -1,4z"/>
     <path class="fil0 str0" d="M1740 635c-2,1 -5,1 -5,-1 -1,-2 -2,-6 1,-7 2,0 5,2 6,4 0,2 1,4 -2,4z"/>
     <path class="fil0 str0" d="M1745 632c-2,0 -5,0 -5,-2 -1,-2 -2,-5 0,-6 3,-1 5,1 6,3 1,2 1,4 -1,5z"/>
     <path class="fil0 str0" d="M1734 622c0,-3 4,-5 6,-4 3,0 4,1 4,4 0,2 -4,3 -6,3 -3,0 -5,-1 -4,-3z"/>
    </g>
    <path class="fil3 str0" d="M1839 702c10,4 17,11 15,12 -3,1 -9,5 -26,1 -18,-4 -39,-13 -37,-17 5,-7 27,-21 31,-25 -28,-4 -55,-14 -50,-19 4,-3 15,-23 36,-15 15,7 41,20 36,34 -2,4 -25,17 -32,22 4,1 17,2 27,7z"/>
    <path class="fil0" d="M1758 464c4,1 3,0 7,0l2 11c1,3 3,9 1,11 -2,0 0,-1 -3,-4 -4,-4 -7,-14 -14,-7 -6,4 -7,11 -6,18 0,3 -1,5 -1,8 1,5 1,10 2,15 0,9 -3,36 -4,46 5,-2 7,-3 15,-3 10,0 30,5 40,9l1 1c1,-1 1,0 -2,-2 -9,-5 -5,-4 -10,-9 -7,-8 -10,-16 -11,-29 0,-10 5,-17 9,-22 3,-4 14,-9 20,-11 0,-5 0,-11 2,-16 1,-2 7,-6 10,-7 9,-5 22,-14 30,-21 2,-2 3,-3 4,-4 6,-6 24,-20 5,-23 -9,-1 -23,0 -32,2 -14,2 -33,13 -50,19 -3,1 -10,3 -12,5 -4,4 -5,8 -3,13z"/>
    <path class="fil0" d="M1798 519l-2 -1c-2,1 -2,0 -4,1 -2,0 -2,1 -3,1 -4,4 -2,4 -3,5 0,1 -1,0 -1,1l-1 2c-2,3 -2,8 0,10 1,3 1,0 2,5 2,1 1,-1 2,3 0,0 0,0 0,0 0,0 0,0 0,0 1,0 1,1 1,1 0,0 0,0 0,0 3,1 1,0 3,2 1,1 2,1 3,2 3,4 2,2 4,3 2,1 0,1 4,3l6 2 0 -5c-6,3 -18,-11 -20,-16 -2,-3 -6,-12 0,-13 5,0 11,5 15,3 1,-3 1,-8 1,-11 -2,0 -2,-1 -6,1 -1,1 0,0 -1,1z"/>
    <path class="fil4" d="M1766 495c-3,0 -2,1 -3,4 0,1 -1,2 -2,3 -3,-1 -5,-4 -6,-7 0,-2 -1,-7 2,-9 3,1 3,4 5,3 3,-7 -13,-11 -10,7 2,12 17,10 14,-1zm-25 69c21,-12 66,12 68,13 9,7 27,60 9,72 -20,15 -74,10 -84,-2 -10,-14 5,-77 7,-83zm17 -100c-2,-5 -1,-9 3,-13 2,-2 9,-4 12,-5 17,-6 36,-17 50,-19 9,-2 23,-3 32,-2 19,3 1,17 -5,23 -1,1 -2,2 -4,4 -8,7 -21,16 -30,21 -3,1 -9,5 -10,7 -2,5 -2,11 -2,16 -6,2 -17,7 -20,11 -4,5 -9,12 -9,22 1,13 4,21 11,29 5,5 1,4 10,9 3,2 3,1 2,2l-1 -1c-10,-4 -30,-9 -40,-9 -8,0 -10,1 -15,3 1,-10 4,-37 4,-46 -1,-5 -1,-10 -2,-15 0,-3 1,-5 1,-8 -1,-7 0,-14 6,-18 7,-7 10,3 14,7 3,3 1,4 3,4 2,-2 0,-8 -1,-11l-2 -11c-4,0 -3,1 -7,0zm40 55c1,-1 0,0 1,-1 4,-2 4,-1 6,-1 0,3 0,8 -1,11 -4,2 -10,-3 -15,-3 -6,1 -2,10 0,13 2,5 14,19 20,16l0 5 -6 -2c-4,-2 -2,-2 -4,-3 -2,-1 -1,1 -4,-3 -1,-1 -2,-1 -3,-2 -2,-2 0,-1 -3,-2 0,0 0,0 0,0 0,0 0,-1 -1,-1 0,0 0,0 0,0 0,0 0,0 0,0 -1,-4 0,-2 -2,-3 -1,-5 -1,-2 -2,-5 -2,-2 -2,-7 0,-10l1 -2c0,-1 1,0 1,-1 1,-1 -1,-1 3,-5 1,0 1,-1 3,-1 2,-1 2,0 4,-1l2 1zm-20 -90c1,-3 5,-11 2,-13 -2,1 0,3 -3,7 -5,6 -13,9 -20,13 -19,9 -29,12 -22,40 3,10 2,6 4,17 5,32 2,48 -3,80 -2,11 -13,44 -8,73 8,24 83,18 95,5 20,-26 -8,-67 -9,-76 4,1 9,0 9,-4 1,-3 -3,-7 -5,-9 -10,-13 -3,-15 -11,-15 -1,3 -3,4 -6,1 -2,-1 -4,-3 -5,-5 -2,-2 -7,-10 -5,-14 2,-4 11,4 16,1 1,0 3,-2 3,-3 1,-11 0,-23 0,-35 0,-12 -1,-7 16,-19 5,-3 11,-7 16,-11 1,-1 2,-1 3,-2 0,0 1,-1 2,-2l13 -13c1,-2 3,-3 4,-5 8,-9 3,-17 -9,-19 -9,-1 -23,0 -32,2 -19,3 -40,17 -51,19 2,-2 17,-19 14,-23 -3,1 -3,8 -8,10z"/>
    <path class="fil4" d="M1790 442c-4,1 0,7 3,6 4,-2 3,-9 -3,-6z"/>
    <path class="fil4" d="M1793 453l0 -1c-3,0 -5,2 -7,-1 -1,-1 -1,-3 -1,-5 0,-1 0,-1 0,-2 -1,0 -2,-1 -2,4 1,7 9,8 10,5z"/>
    <path class="fil1" d="M1731 628l94 0c0,-20 -10,-46 -16,-51 -2,-1 -47,-25 -68,-13 -1,4 -10,40 -10,64z"/>
    <path class="fil5 str0" d="M1738 742c12,0 27,14 17,15 -9,1 -12,2 -27,0 -14,-1 -26,-17 -25,-22 12,-14 23,-29 30,-42 8,-37 -7,-48 4,-59 0,0 39,2 40,23 0,8 -20,37 -23,42 -9,12 -23,22 -30,31 3,5 3,12 14,12z"/>
    <path class="fil5" d="M1825 628l-94 0c-1,8 0,15 3,19 15,16 40,11 46,11 15,0 29,-2 38,-9 5,-4 7,-12 7,-21z"/>
    <path class="fil1" d="M1809 577c-2,-1 -47,-25 -68,-13 -1,4 -10,40 -10,64l94 0c0,-20 -10,-46 -16,-51z"/>
    <g>
     <path class="fil0 str0" d="M1816 594c1,-5 3,-12 7,-12 1,-1 2,1 3,2 0,0 4,-3 6,-2 1,1 2,4 1,5 3,1 3,1 4,2 1,4 -1,5 -1,5 0,0 2,0 3,3 1,3 -1,5 -2,5 5,3 -4,9 -4,5 -1,2 0,2 -5,3 -6,1 -9,-4 -9,-4 -4,3 -23,12 -40,14 -2,-2 -28,-25 -28,-38 0,-9 19,-26 26,-10 3,6 11,27 11,27 14,2 25,0 28,-5z"/>
     <path class="fil1 str0" d="M1772 614c3,-2 10,-14 14,-20 2,1 3,3 5,4 2,0 4,0 5,1 -4,5 -9,17 -11,23 0,1 -4,-2 -6,-2 -2,-1 -6,-5 -7,-6z"/>
     <path class="fil6" d="M1772 613c4,-3 11,-13 14,-19 0,0 0,0 0,0 -1,-2 -1,-4 -2,-6 -1,-1 -1,-2 -2,-3 -2,-5 -4,-10 -5,-13 -7,-16 -26,1 -26,10 0,1 0,2 1,3 0,2 1,3 1,5 1,1 1,1 1,2 1,1 2,2 2,3 5,7 11,14 16,18z"/>
    </g>
   </g>
  </g>
 </g>
</svg>
