<?xml version="1.0" encoding="utf-8"?>
<!-- Generator: Adobe Illustrator 19.2.1, SVG Export Plug-In . SVG Version: 6.00 Build 0)  -->
<svg version="1.1" id="Слой_1" xmlns="http://www.w3.org/2000/svg" xmlns:xlink="http://www.w3.org/1999/xlink" x="0px" y="0px"
	 viewBox="0 0 762.3 59.3" style="enable-background:new 0 0 762.3 59.3;" xml:space="preserve">
<style type="text/css">
	.st0{fill:#FFFFFF;}
</style>
<g>
	<g>
		<g>
			<path class="st0" d="M31.8,29.7c0-8.8-7.1-15.9-15.9-15.9S0,20.9,0,29.7s7.1,15.9,15.9,15.9c3.4,0,6.6-1.1,9.2-2.9l2.9,2.9h3.8
				v-3.8l-2.9-3C30.7,36.2,31.8,33.1,31.8,29.7z M5.4,29.7c0-5.8,4.7-10.5,10.5-10.5s10.5,4.7,10.5,10.5s-4.7,10.5-10.5,10.5
				S5.4,35.5,5.4,29.7z"/>
			<polygon class="st0" points="133,13.8 127.5,13.8 127.5,45.6 133,45.6 133,45.6 147.8,45.6 147.8,40.2 133,40.2 			"/>
			<rect x="186" y="13.8" class="st0" width="5.4" height="31.8"/>
			<path class="st0" d="M79.5,13.8L79.5,13.8L79.5,13.8L79.5,13.8L79.5,13.8l-3,6.1L63.6,45.6l0,0h6.1l1.6-3.3h16.4l1.6,3.3h6.1l0,0
				L82.5,19.8L79.5,13.8z M74,36.9l5.5-11l5.5,11H74z"/>
		</g>
		<rect x="248.9" class="st0" width="1" height="59.3"/>
	</g>
	<g>
		<g>
			<path class="st0" d="M301.2,43.9V16.2h10.4c4.4,0,7.6,2.5,7.6,7.1c0,3.5-2.5,5.9-4.9,6.4c2.9,0.5,5.4,3.6,5.4,6.8
				c0,4.7-3.1,7.5-7.9,7.5H301.2z M317.8,23.3c0-3.2-2-5.8-6.1-5.8h-9.1V29h9.1C315.7,29,317.8,26.5,317.8,23.3z M318.3,36.5
				c0-3.2-2.2-6.2-6.5-6.2h-9.3v12.4h9.3C315.9,42.7,318.3,40.2,318.3,36.5z"/>
			<path class="st0" d="M359.2,43.9l-8.4-12h-6.6v12h-1.3V16.2h9.6c4.5,0,8.2,2.8,8.2,7.9c0,5.1-3.7,7.9-8.2,7.9l8.6,12H359.2z
				 M359.1,24c0-3.8-2.7-6.6-6.7-6.6h-8.2v13.3h8.2C356.4,30.7,359.1,27.9,359.1,24z"/>
			<path class="st0" d="M403.8,43.9l-3.1-7.4h-15.5l-3.1,7.4h-1.5l11.6-27.7h1.6l11.6,27.7H403.8z M393,17.7l-7.2,17.5h14.5
				L393,17.7z"/>
			<path class="st0" d="M446.6,43.9l-18.7-25.6v25.6h-1.3V16.2h1.3l18.7,25.3V16.2h1.3v27.7H446.6z"/>
			<path class="st0" d="M471.8,43.9V16.2h8.2c8.6,0,13.8,6.5,13.8,13.9c0,7.5-5.2,13.8-13.8,13.8H471.8z M492.4,30.1
				c0-6.9-4.5-12.6-12.3-12.6h-6.9v25.2h6.9C487.9,42.7,492.4,37.1,492.4,30.1z"/>
			<path class="st0" d="M544.3,43.9V16.2h8.2c8.6,0,13.8,6.5,13.8,13.9c0,7.5-5.2,13.8-13.8,13.8H544.3z M564.9,30.1
				c0-6.9-4.5-12.6-12.3-12.6h-6.9v25.2h6.9C560.4,42.7,564.9,37.1,564.9,30.1z"/>
			<path class="st0" d="M589.3,43.9V16.2h17v1.2h-15.6V29H606v1.2h-15.3v12.4h15.6v1.2H589.3z"/>
			<path class="st0" d="M627.7,40l1.1-1c1.7,2.1,4.6,4.1,8.6,4.1c6.4,0,8-3.7,8-6.3c0-9.1-16.8-4.6-16.8-14.1c0-4.5,4.1-7.1,8.7-7.1
				c4.1,0,7,1.5,9,3.9l-1,1c-2-2.5-4.7-3.6-7.9-3.6c-4,0-7.2,2.4-7.2,5.8c0,7.9,16.8,3.7,16.8,14.1c0,3.1-2,7.5-9.5,7.5
				C633.1,44.4,629.7,42.5,627.7,40z"/>
			<path class="st0" d="M669.7,43.9V16.2h1.3v27.7H669.7z"/>
			<path class="st0" d="M694,30.1c0-8.5,6.1-14.3,13.8-14.3c4.2,0,7.4,1.5,10.1,4.3l-0.9,0.9c-2.2-2.5-5.6-3.9-9.3-3.9
				c-6.9,0-12.4,5.3-12.4,13.1c0,7.7,5.4,13.1,12.4,13.1c4.1,0,7.2-2,8.8-3.7v-7.6h-11.4v-1.2h12.8V40c-2.4,2.7-6,4.4-10.1,4.4
				C700.1,44.4,694,38.6,694,30.1z"/>
			<path class="st0" d="M761,43.9l-18.7-25.6v25.6H741V16.2h1.3L761,41.5V16.2h1.3v27.7H761z"/>
		</g>
	</g>
</g>
</svg>
