<?xml version="1.0" encoding="UTF-8"?>
<svg version="1.1" viewBox="0 0 190 96" 
   xmlns="http://www.w3.org/2000/svg" 
   xmlns:cc="http://creativecommons.org/ns#" 
   xmlns:dc="http://purl.org/dc/elements/1.1/" 
   xmlns:rdf="http://www.w3.org/1999/02/22-rdf-syntax-ns#">
   <metadata>
      <rdf:RDF>
         <cc:Work rdf:about="">
            <dc:format>image/svg+xml</dc:format>
            <dc:type rdf:resource="http://purl.org/dc/dcmitype/StillImage"/>
            <dc:title>logo-1</dc:title>
         </cc:Work>
      </rdf:RDF>
   </metadata>
   <title>logo-1</title>
   <desc>Created with Sketch.</desc>
   <g fill-rule="evenodd">
      <path d="m88.953 31-2.9281 5.2055 8.9749 16.027 7.41-13.232h13.863l2.7273 5h-6.2071l-2.8374 2.8375-0.70377-1.2511-2.4881 4.443-12.971 12.971h-1.3147c-1.1242 0-2.1677-0.55908-2.7921-1.479l15.667-15.667c0.19582 0.09371 0.41514 0.14619 0.64671 0.14619 0.82843 0 1.5-0.67157 1.5-1.5s-0.67157-1.5-1.5-1.5-1.5 0.67157-1.5 1.5c0 0.23157 0.0525 0.45089 0.14619 0.64671l-15.477 15.477-2.1692-3.8736v-10.957l-4-4v-5.8782c0.5826-0.20592 1-0.76154 1-1.4146 0-0.82843-0.67157-1.5-1.5-1.5s-1.5 0.67157-1.5 1.5c0 0.65311 0.4174 1.2087 1 1.4146v6.2925l4 4v8.7572l-5.2517-9.378-5.9983 10.664c-1.6202 0-3.1071-0.57084-4.2705-1.5224l6.5205-6.5205v-6.2925c0.5826-0.20592 1-0.76154 1-1.4146 0-0.82843-0.67157-1.5-1.5-1.5s-1.5 0.67157-1.5 1.5c0 0.65311 0.4174 1.2087 1 1.4146v5.8782l-6.2461 6.2461c-1.0897-1.1988-1.7539-2.7913-1.7539-4.539l7.3717-13.515-2.7917-4.9852zm0.5625-1h-17.496l-13.02-23.25c0-0.17597 0.0067-0.35036 0.01996-0.52294l18.773 18.773h1.9571l0.81743 1.4597 0.7962-1.4597h5.7217c0.20592 0.5826 0.76154 1 1.4146 1 0.82843 0 1.5-0.67157 1.5-1.5s-0.67157-1.5-1.5-1.5c-0.65311 0-1.2087 0.4174-1.4146 1h-5.1763l3.8182-7h18.545l3.8182 7h-10.982l-2.1094-3.75zm8.1562-5h10.964l0.79621 1.4597 0.81743-1.4597h10.53l-6.1517 10.985 1.099 2.0148h-12.757l1.0049-1.7945zm-38.447-19.983c0.42125-1.5907 1.4087-2.951 2.7335-3.8523l10.101 10.101 7.131 12.734h-0.98289zm3.6324-4.3676c0.87686-0.41661 1.8578-0.64972 2.8932-0.64972l4.5091 8.052zm23.416 15.35 2.5909-4.75 0.69986-1.25h4.0219c0.20592 0.5826 0.76154 1 1.4146 1 0.82843 0 1.5-0.67157 1.5-1.5s-0.67157-1.5-1.5-1.5c-0.65311 0-1.2087 0.4174-1.4146 1h-3.462l0.29604-0.52874c0.59763-1.0632 1.7224-1.7213 2.9421-1.7213h3.277c1.2197 0 2.3444 0.65805 2.9421 1.7213l1.5558 2.7787 2.5909 4.75zm24.537 8 3.92-7h5.4771l6.2929-6.2929v-5.7925c0.5826-0.20592 1-0.76154 1-1.4146 0-0.82843-0.67157-1.5-1.5-1.5s-1.5 0.67157-1.5 1.5c0 0.65311 0.4174 1.2087 1 1.4146v5.3782l-5.7071 5.7071h-4.5029l8.96-16c3.7279 0 6.75 3.0221 6.75 6.75l-9.66 17.25zm8.7355 21 1.4991 2.7483-6.7691 6.7691-3.8109-6.7749 2.7426-2.7425zm1.9982 3.6634 0.45632 0.83658c0 3.7279-3.0221 6.75-6.75 6.75l-0.46544-0.82745zm-16.58 4.58-4.4971 8.0306c-0.59688 1.0658-1.7231 1.726-2.9447 1.726h-2.3147zm8.1217-23.243h-7.1707c-0.20592-0.5826-0.76154-1-1.4146-1-0.82843 0-1.5 0.67157-1.5 1.5s0.67157 1.5 1.5 1.5c0.65311 0 1.2087-0.4174 1.4146-1h7.1707c0.20592 0.5826 0.76154 1 1.4146 1 0.82843 0 1.5-0.67157 1.5-1.5s-0.67157-1.5-1.5-1.5c-0.65311 0-1.2087 0.4174-1.4146 1z" fill="#ff304f"/>
      <path d="m74 89.5c0 3.3137-2.6863 6-6 6h-10c-0.55228 0-1-0.44772-1-1v-20c0-0.55228 0.44772-1 1-1h9c3.3137 0 6 2.6863 6 6 0 1.8885-0.87246 3.5732-2.2363 4.673 1.9229 0.99966 3.2363 3.0099 3.2363 5.327zm-12.5 2.5h5.5c1.3807 0 2.5-1.1193 2.5-2.5v-0.5c0-1.3807-1.1193-2.5-2.5-2.5h-5.5zm0-9h4.5c1.3807 0 2.5-1.1193 2.5-2.5v-0.9c0-1.1598-0.9402-2.1-2.1-2.1h-4.9zm-25 8.5h9.5c0.55228 0 1 0.44772 1 1v2c0 0.55228-0.44772 1-1 1h-13c-0.55228 0-1-0.44772-1-1v-20c0-0.55228 0.44772-1 1-1h12.5c0.55228 0 1 0.44772 1 1v2c0 0.55228-0.44772 1-1 1h-9v5h7.5c0.55228 0 1 0.44772 1 1v2c0 0.55228-0.44772 1-1 1h-7.5zm64-9.75-4 6.75h-3l-4-6.75v12.75c0 0.55228-0.44772 1-1 1h-2.5c-0.55228 0-1-0.44772-1-1v-20c0-0.55228 0.44772-1 1-1h3.5l5.5 10 5.5-10h3.5c0.55228 0 1 0.44772 1 1v20c0 0.55228-0.44772 1-1 1h-2.5c-0.55228 0-1-0.44772-1-1zm-85 5.5v-12.75c0-0.55228 0.44772-1 1-1h2.5c0.55228 0 1 0.44772 1 1v20c0 0.55228-0.44772 1-1 1h-3.5l-5.5-10-5.5 10h-3.5c-0.55228 0-1-0.44772-1-1v-20c0-0.55228 0.44772-1 1-1h2.5c0.55228 0 1 0.44772 1 1v12.75l4-6.75h3zm112.67 2.75h-7.3333l-1.6054 4.8162c-0.13611 0.40834-0.51825 0.68377-0.94868 0.68377h-2.7792c-0.55228 0-1-0.44772-1-1v-0.5l7.5-20.5h5l7.5 20.5v0.5c0 0.55228-0.44772 1-1 1h-2.7792c-0.43043 0-0.81257-0.27543-0.94868-0.68377zm-1.1667-3.5-2.5-7.5-2.5 7.5zm21.5-4h8v-8c0-0.55228 0.44771-1 1-1h2.5c0.55228 0 1 0.44772 1 1v20c0 0.55228-0.44772 1-1 1h-2.5c-0.55229 0-1-0.44772-1-1v-8h-8v8c0 0.55228-0.44772 1-1 1h-2.5c-0.55229 0-1-0.44772-1-1v-20c0-0.55228 0.44771-1 1-1h2.5c0.55228 0 1 0.44772 1 1zm31.5-5.5c-2.2091 0-4 1.7909-4 4v7c0 2.2091 1.7909 4 4 4h2c2.2091 0 4-1.7909 4-4v-7c0-2.2091-1.7909-4-4-4zm0-4h2c4.4183 0 8 3.5817 8 8v7c0 4.4183-3.5817 8-8 8h-2c-4.4183 0-8-3.5817-8-8v-7c0-4.4183 3.5817-8 8-8z" fill="#fff"/>
   </g>
</svg>
