<?xml version="1.0" encoding="UTF-8" standalone="no"?>
<!-- Generator: Adobe Illustrator 22.0.1, SVG Export Plug-In . SVG Version: 6.00 Build 0)  -->

<svg
   xmlns:dc="http://purl.org/dc/elements/1.1/"
   xmlns:cc="http://creativecommons.org/ns#"
   xmlns:rdf="http://www.w3.org/1999/02/22-rdf-syntax-ns#"
   xmlns:svg="http://www.w3.org/2000/svg"
   xmlns="http://www.w3.org/2000/svg"
   xmlns:sodipodi="http://sodipodi.sourceforge.net/DTD/sodipodi-0.dtd"
   xmlns:inkscape="http://www.inkscape.org/namespaces/inkscape"
   version="1.1"
   id="Layer_1"
   x="0px"
   y="0px"
   viewBox="0 0 112.939 42"
   xml:space="preserve"
   sodipodi:docname="mcafee.svg"
   inkscape:version="0.92.3 (2405546, 2018-03-11)"
   width="112.939"
   height="42"><metadata
   id="metadata39"><rdf:RDF><cc:Work
       rdf:about=""><dc:format>image/svg+xml</dc:format><dc:type
         rdf:resource="http://purl.org/dc/dcmitype/StillImage" /><dc:title></dc:title></cc:Work></rdf:RDF></metadata><defs
   id="defs37" /><sodipodi:namedview
   pagecolor="#ffffff"
   bordercolor="#666666"
   borderopacity="1"
   objecttolerance="10"
   gridtolerance="10"
   guidetolerance="10"
   inkscape:pageopacity="0"
   inkscape:pageshadow="2"
   inkscape:window-width="1920"
   inkscape:window-height="1027"
   id="namedview35"
   showgrid="false"
   inkscape:zoom="5.7376664"
   inkscape:cx="55.910313"
   inkscape:cy="41.524818"
   inkscape:window-x="-8"
   inkscape:window-y="-8"
   inkscape:window-maximized="1"
   inkscape:current-layer="Layer_1" />
<style
   type="text/css"
   id="style2">
	.st0{fill:#FFFFFF;}
</style>
<g
   id="g32"
   transform="matrix(1.0126582,0,0,1.0126582,-14.45328,-19.544303)">
	<path
   class="st0"
   d="m 34.4,19.3 c 6,0.9 11.8,1.7 17.6,2.5 1.7,0.2 2.3,1 2.4,2.9 0.2,8.3 -1,16.2 -5.2,23.5 -3.2,5.3 -7.6,9.5 -13.2,12.2 -1,0.5 -2.5,0.5 -3.4,0 C 22.2,55 16.6,46.2 14.9,34.9 14.4,31.5 14.6,28.1 14.3,24.6 14.1,22.7 15,22 16.7,21.8 22.5,20.9 28.5,20.1 34.4,19.3 Z m -0.1,1.4 C 28.8,21.5 23.4,22.2 18,23 c -1.8,0.2 -2.5,1.2 -2.3,2.9 0.3,3.3 0.3,6.6 0.8,9.8 1.8,9.7 6.5,17.5 15.2,22.7 1.9,1.1 3.3,1.1 5.2,0 C 47.5,52.3 54.8,37.4 53,25.2 52.8,23.7 52,23.1 50.7,23 45.3,22.2 39.8,21.5 34.3,20.7 Z"
   id="path4"
   inkscape:connector-curvature="0"
   style="fill:#ffffff" />
	<path
   class="st0"
   d="m 62.7,30.2 c -0.2,1.7 -0.5,3.4 -0.6,5.1 -0.1,2 -0.8,3 -3.4,2.3 0.6,-4.4 1.2,-8.8 1.9,-13.2 4.1,-0.8 4.2,-0.8 4.9,2.9 0.3,1.8 0.8,3.5 1.7,5.3 0.4,-1.7 0.9,-3.4 1.3,-5.1 0.9,-3.7 0.8,-3.7 4.9,-3.3 0.5,3.9 1.1,7.9 1.5,11.9 0.1,0.5 -0.7,1.1 -1.1,1.6 -0.6,-0.5 -1.6,-1 -1.8,-1.6 -0.4,-2 -0.6,-4 -0.8,-6 -0.2,0 -0.5,-0.1 -0.7,-0.1 -0.4,1.9 -0.9,3.7 -1.3,5.6 -0.3,1.2 -0.6,2.3 -2.2,2.2 -1.5,-0.1 -2.1,-0.7 -2.3,-2.1 -0.3,-1.9 -0.9,-3.8 -1.3,-5.6 -0.3,0.1 -0.5,0.1 -0.7,0.1 z"
   id="path6"
   inkscape:connector-curvature="0"
   style="fill:#ffffff" />
	<path
   class="st0"
   d="m 92.5,49.1 c 0,-1.3 -0.1,-2.6 0,-3.8 0.1,-0.5 0.7,-1 1,-1.5 0.4,0.5 1,1 1.1,1.5 0.1,2 -0.1,4 0.1,6 0.2,1.2 0.7,2.7 1.6,3.5 1.7,1.4 4.1,-0.1 4.3,-2.7 0.1,-2.1 0,-4.3 0.1,-6.5 0,-0.6 0.6,-1.2 1,-1.8 0.4,0.6 1.1,1.1 1.2,1.7 0.1,2.5 0.1,5 -0.1,7.4 -0.2,2.7 -2.1,4.1 -5.2,4.1 -3.1,0 -4.9,-1.5 -5.1,-4.2 0,-1.3 0,-2.5 0,-3.7 0,0 0,0 0,0 z"
   id="path8"
   inkscape:connector-curvature="0"
   style="fill:#ffffff" />
	<path
   class="st0"
   d="m 72.7,45.3 c 0,1.3 0,2.3 0,3.7 1.1,0 2.1,-0.1 3.1,0 0.4,0 0.7,0.4 1.1,0.7 -0.4,0.3 -0.7,0.8 -1.1,0.8 -0.9,0.1 -1.9,0 -3,0 0,1.5 0,2.7 0,4.2 1.3,0 2.5,-0.1 3.6,0 0.3,0 0.7,0.5 1,0.7 -0.3,0.3 -0.6,0.8 -1,0.8 -1.8,0.1 -3.5,0.1 -5.3,0 -0.4,0 -1,-0.8 -1,-1.2 -0.1,-3.4 -0.1,-6.7 0,-10.1 0,-0.5 0.4,-1.3 0.7,-1.3 2,-0.1 4,-0.1 6,0 0.2,0 0.6,0.6 0.6,0.8 0,0.3 -0.5,0.7 -0.8,0.7 -1.3,0.3 -2.5,0.2 -3.9,0.2 z"
   id="path10"
   inkscape:connector-curvature="0"
   style="fill:#ffffff" />
	<path
   class="st0"
   d="m 120.7,45.4 c 0,1.4 0,2.4 0,3.7 1.1,0 2,-0.1 2.9,0 0.6,0.1 1.1,0.5 1.7,0.8 -0.6,0.3 -1.2,0.6 -1.8,0.7 -0.8,0.1 -1.7,0 -2.8,0 0,1.4 0,2.7 0,4.2 1.2,0 2.3,-0.1 3.4,0 0.6,0.1 1.1,0.5 1.7,0.8 -0.6,0.3 -1.2,0.7 -1.8,0.7 -1.3,0.1 -2.7,0.2 -4.1,0 -0.6,-0.1 -1.5,-0.9 -1.5,-1.5 -0.1,-3.2 -0.1,-6.4 0,-9.6 0,-0.6 0.7,-1.5 1.2,-1.6 1.7,-0.2 3.3,-0.1 5,0 0.4,0 0.7,0.6 1.1,0.9 -0.4,0.2 -0.8,0.7 -1.3,0.7 -1.1,0.2 -2.3,0.2 -3.7,0.2 z"
   id="path12"
   inkscape:connector-curvature="0"
   style="fill:#ffffff" />
	<path
   class="st0"
   d="m 59.4,54.8 c 1.3,0.1 2.4,0.4 3.3,0.2 0.7,-0.2 1.7,-0.9 1.8,-1.5 0.1,-0.6 -0.6,-1.5 -1.2,-2 -0.7,-0.6 -2,-0.6 -2.5,-1.3 -0.8,-1 -1.9,-2.4 -1.8,-3.5 0.1,-1.1 1.4,-2.5 2.6,-2.9 1.3,-0.5 2.9,0 4.3,0.2 0.1,0 0.1,0.8 -0.3,0.7 -1.4,0.7 -3.7,1 -4,2 -0.7,2.2 2.1,2 3.1,3.1 1,1 2.2,2.3 2.2,3.5 0,1.1 -1.3,2.8 -2.3,3.1 -1.6,0.5 -3.5,0 -5.2,-0.2 0.1,-0.1 0.1,-0.8 0,-1.4 z"
   id="path14"
   inkscape:connector-curvature="0"
   style="fill:#ffffff" />
	<path
   class="st0"
   d="m 102.4,27.6 c 1.1,0.8 1.7,1.2 2.3,1.6 -0.5,0.5 -1,0.9 -1.4,1.5 -0.3,0.5 -0.7,1.1 -0.7,1.6 -0.1,1.1 0,2.2 -0.1,3.3 0,1 0.1,2.4 -1.5,2 -0.6,-0.1 -1.1,-1.2 -1.3,-1.9 -0.2,-0.6 0,-1.4 -0.1,-2.1 0,-0.5 0.2,-1.2 -0.1,-1.4 -2,-2 -0.6,-3.8 0.1,-5.8 0.6,-2.1 1.8,-2.9 3.6,-3.2 0.5,-0.1 1.4,0.4 1.5,0.7 0.1,0.5 -0.3,1.1 -0.7,1.6 -0.5,0.8 -1.1,1.4 -1.6,2.1 z"
   id="path16"
   inkscape:connector-curvature="0"
   style="fill:#ffffff" />
	<path
   class="st0"
   d="m 89.5,45.3 c -4.3,-0.7 -6.8,1 -6.8,4.7 -0.1,3.3 2.1,5.3 5.5,5.2 0.6,0 1.3,0.4 1.9,0.6 -0.6,0.4 -1.2,1.1 -1.8,1.1 -2.7,0.2 -5.3,-0.3 -7,-2.7 -1.5,-2.2 -1.5,-5.8 0.1,-7.9 1.7,-2.4 4.2,-3.1 7,-2.8 0.7,0.1 1.2,0.8 1.9,1.2 -0.4,0.1 -0.6,0.3 -0.8,0.6 z"
   id="path18"
   inkscape:connector-curvature="0"
   style="fill:#ffffff" />
	<path
   class="st0"
   d="m 84.3,29.8 c -3.7,0.8 -5.2,1.7 -4.9,3.5 0.4,2.4 2.3,2.8 4.5,2.6 0.4,1.3 0.1,2.1 -1.5,2.2 -2.3,0.1 -4.6,-0.2 -5.5,-2.4 -0.6,-1.5 -0.6,-3.7 0,-5.2 0.9,-2.2 3.3,-2.6 5.6,-2.2 0.7,0.2 1.2,1 1.8,1.5 z"
   id="path20"
   inkscape:connector-curvature="0"
   style="fill:#ffffff" />
	<path
   class="st0"
   d="m 94.4,25.4 c -0.2,-0.6 -1.4,-1.3 -2.1,-1.3 -1,0 -2.8,0.3 -3,0.9 -1.5,4.1 -2.6,8.3 -3.8,12.5 2,0.5 3.2,0.5 3.8,-1.6 0.2,-0.6 1.6,-1 2.5,-1 0.8,0 2.2,0.5 2.3,1 0.5,2.3 2,2.1 3.9,1.6 -1.2,-4.2 -2.3,-8.2 -3.6,-12.1 z m -3.8,4.8 c 0.2,-0.8 0.4,-1.5 0.6,-2.3 0.1,-0.2 0.2,-0.4 0.6,-1.2 0.5,2.1 1,3.7 1.4,5.5 -2.9,0.5 -3.1,0.3 -2.6,-2 z"
   id="path22"
   inkscape:connector-curvature="0"
   style="fill:#ffffff" />
	<path
   class="st0"
   d="m 113,50.1 c 2.1,-1.9 2.7,-4.7 0.9,-5.4 -2.1,-0.8 -4.6,-0.7 -6.9,-0.8 -0.2,0 -0.7,0.9 -0.7,1.3 -0.1,3.3 -0.1,6.6 0,9.8 0,0.5 0.8,0.9 1.2,1.4 0.3,-0.5 0.9,-1 0.9,-1.6 0.1,-1.2 0,-2.3 0,-3.5 2.8,-0.8 3,1.1 3.7,2.6 0.6,1.4 0.9,3.1 3.3,2.1 -0.7,-1.9 -1.5,-3.9 -2.4,-5.9 z m -3.1,-0.9 c -2.5,-0.4 -0.9,-2.3 -1.3,-3.7 2,-0.2 3.8,-0.5 4,1.8 0.1,1.6 -1.5,2.1 -2.7,1.9 z"
   id="path24"
   inkscape:connector-curvature="0"
   style="fill:#ffffff" />
	<path
   class="st0"
   d="m 108.6,33.9 c 2.2,0 4.1,0 6.1,0 0.1,-3.8 -1.3,-5.5 -4.2,-5.6 -3.1,-0.1 -4.8,1.3 -5.1,4.1 -0.3,3.3 1.3,5.5 4.3,5.7 1.5,0.1 3.7,0.8 4.3,-1.8 -1.9,-0.7 -4.4,0.9 -5.4,-2.4 z m 1.4,-3.7 c 0.5,0 1.1,0.8 1.7,1.3 -0.4,0.4 -0.8,0.9 -1.4,1.4 -0.7,-0.5 -1.2,-0.9 -1.7,-1.2 0.5,-0.5 0.9,-1.5 1.4,-1.5 z"
   id="path26"
   inkscape:connector-curvature="0"
   style="fill:#ffffff" />
	<path
   class="st0"
   d="m 119.7,34 c 2,0 3.8,0 5.7,0 0.2,-3.9 -1,-5.5 -3.9,-5.6 -3.2,-0.2 -5.1,1.4 -5.4,4.4 -0.2,2.8 1.7,5.3 4.6,5.4 1.6,0.1 3.7,0.8 4.3,-1.9 -4.7,-0.4 -4.7,-0.4 -5.3,-2.3 z m -0.5,-2.3 c 0.6,-0.5 1.2,-1.5 1.8,-1.5 0.7,0 1.4,0.8 2,1.3 -0.1,0.3 -0.3,0.6 -0.4,0.8 -1,0 -2,0 -3,0 -0.2,-0.2 -0.3,-0.4 -0.4,-0.6 z"
   id="path28"
   inkscape:connector-curvature="0"
   style="fill:#ffffff" />
	<path
   class="st0"
   d="m 48.8,26.5 c 1.6,10.2 -2.7,22.6 -12.6,28.3 -1.5,0.9 -2.8,0.7 -4.2,-0.2 -7.8,-5 -11.5,-12.3 -12.4,-21.3 -0.2,-2.3 0,-4.7 0,-6.8 9.9,0 19.5,0 29.2,0 z M 36.9,45 c -1.6,-5.2 -3.2,-10.2 -4.8,-15.2 -0.6,-1.9 -2.3,-1.2 -3.4,-1.1 -0.6,0.1 -1.5,1 -1.6,1.7 -0.8,4.2 -1.4,8.5 -2.1,12.7 -0.2,1 -0.7,2.2 1,2.3 1.4,0.1 3,0.6 3.3,-1.7 0.2,-1.9 0.6,-3.9 1,-6.4 0.5,2 0.8,3.4 1.1,4.8 0.6,3.7 1.4,4.1 5.5,2.9 z m 1.7,-7.3 c 0.4,2.5 0.6,4.4 0.9,6.3 0.3,1.9 1.8,1.6 3,1.4 0.5,-0.1 1.4,-0.9 1.4,-1.3 -0.6,-4.7 -1.3,-9.4 -2.1,-14.1 -0.1,-0.5 -1,-1.3 -1.5,-1.3 -1.1,0 -2.7,0.1 -3.1,0.8 -2.7,3.8 -2.5,9 0.2,13.1 0.3,-1.6 0.7,-3 1.2,-4.9 z"
   id="path30"
   inkscape:connector-curvature="0"
   style="fill:#ffffff" />
</g>
</svg>