<svg xmlns="http://www.w3.org/2000/svg" viewBox="0 0 113.39 113.39"><defs><style>.cls-1{fill:#126075;}</style></defs><title>Asset 39</title><g id="Layer_2" data-name="Layer 2"><g id="Слой_1" data-name="Слой 1"><path class="cls-1" d="M62,37.56c3.11,0,9.06-3.24,11-5.2a4.85,4.85,0,0,0-6.83-6.9c-3,3.05-6.06,10.86-5,11.95A1.49,1.49,0,0,0,62,37.56Z"/><rect class="cls-1" x="24.86" y="42.06" width="29.3" height="9.02"/><path class="cls-1" d="M50.8,37.56a1.49,1.49,0,0,0,.84-.15c1-1.09-2-8.9-5-11.95a4.79,4.79,0,0,0-6.83,0,4.91,4.91,0,0,0,0,6.9C41.74,34.32,47.69,37.56,50.8,37.56Z"/><rect class="cls-1" x="29.36" y="55.59" width="24.79" height="27.05"/><rect class="cls-1" x="58.66" y="55.59" width="24.79" height="27.05"/><rect class="cls-1" x="58.66" y="42.06" width="29.3" height="9.02"/><path class="cls-1" d="M56.69,0a56.7,56.7,0,1,0,56.7,56.69A56.69,56.69,0,0,0,56.69,0ZM92.47,53.33a2.26,2.26,0,0,1-2.25,2.26H88v27a4.51,4.51,0,0,1-4.5,4.51H29.36a4.51,4.51,0,0,1-4.5-4.51v-27H22.6a2.26,2.26,0,0,1-2.25-2.26V42.06a4.51,4.51,0,0,1,4.51-4.5H39.12a18.42,18.42,0,0,1-2.52-2A9.36,9.36,0,0,1,49.82,22.28c2,2,7.14,9.94,6.43,15.28h.32C55.86,32.22,61,24.24,63,22.28A9.36,9.36,0,0,1,76.22,35.54a18.42,18.42,0,0,1-2.52,2H88a4.51,4.51,0,0,1,4.51,4.5Z"/></g></g></svg>