<svg xmlns="http://www.w3.org/2000/svg" viewBox="0 0 113.39 113.39"><defs><style>.cls-1{fill:#126075;}</style></defs><title>Asset 48</title><g id="Layer_2" data-name="Layer 2"><g id="Слой_1" data-name="Слой 1"><path class="cls-1" d="M55.74,56.23a3.62,3.62,0,0,0-2.15,2.32h2.15Z"/><path class="cls-1" d="M25.31,72.61a7.77,7.77,0,0,1,3.78-1.74v-30a1.33,1.33,0,0,1,2.66,0v30a7.8,7.8,0,0,1,3.67,1.78V34.81a5.12,5.12,0,0,0-5.11-5.11,5,5,0,0,0-3.63,1.53,4.81,4.81,0,0,0-1.37,3.53V72.61Zm3.81-37.24a1,1,0,0,1,.07-.25l.12-.23a1.12,1.12,0,0,1,.17-.2,1.06,1.06,0,0,1,.2-.17,1,1,0,0,1,.23-.12,1.21,1.21,0,0,1,.25-.08,1.51,1.51,0,0,1,.52,0,1.21,1.21,0,0,1,.25.08,1,1,0,0,1,.23.12,1.06,1.06,0,0,1,.2.17,1.12,1.12,0,0,1,.17.2l.12.23a1,1,0,0,1,.07.25,1.07,1.07,0,0,1,0,.25,1.09,1.09,0,0,1,0,.26,1,1,0,0,1-.07.25l-.12.23a1.73,1.73,0,0,1-.17.21,1.56,1.56,0,0,1-.2.16,1,1,0,0,1-.23.12,1.21,1.21,0,0,1-.25.08,1.7,1.7,0,0,1-.52,0,1.21,1.21,0,0,1-.25-.08,1,1,0,0,1-.23-.12,1.56,1.56,0,0,1-.2-.16,1.73,1.73,0,0,1-.17-.21l-.12-.23a1,1,0,0,1-.07-.25,1.09,1.09,0,0,1,0-.26A1.07,1.07,0,0,1,29.12,35.37Z"/><rect class="cls-1" x="46.58" y="67.77" width="31.71" height="2.54"/><path class="cls-1" d="M78.28,41.55V39.41H76A3.63,3.63,0,0,0,78.28,41.55Z"/><path class="cls-1" d="M38.08,34.81V78.54a1.33,1.33,0,1,1-2.66,0,5.12,5.12,0,0,0-5.11-5.11A5.05,5.05,0,0,0,26.68,75a4.82,4.82,0,0,0-1.37,3.2v.44a4.91,4.91,0,0,0,1.43,3.56,5.4,5.4,0,0,0,3.82,1.61H88.08V33.7H38A8.05,8.05,0,0,1,38.08,34.81Zm42.47,44a1.36,1.36,0,0,1-.94.39l-.26,0a1.09,1.09,0,0,1-.24-.07,1.71,1.71,0,0,1-.23-.13,1.16,1.16,0,0,1-.21-.16,1.38,1.38,0,0,1-.39-.94,1.09,1.09,0,0,1,0-.26,1,1,0,0,1,.08-.25,1,1,0,0,1,.12-.23,1.56,1.56,0,0,1,.16-.2,1.2,1.2,0,0,1,.21-.17,1.24,1.24,0,0,1,.23-.12l.24-.08a1.35,1.35,0,0,1,1.2.37,1.32,1.32,0,0,1,.39.94A1.33,1.33,0,0,1,80.55,78.82ZM43.92,38.08a1.32,1.32,0,0,1,1.33-1.33H79.61a1.32,1.32,0,0,1,1.33,1.33v21.8a1.32,1.32,0,0,1-1.33,1.33H72a1.33,1.33,0,1,1,0-2.66h6.27V51H71.34a1.33,1.33,0,0,1,0-2.66h6.94v-4a6.31,6.31,0,0,1-5.09-4.87H58.4v8a1.33,1.33,0,0,1-1.33,1.33H50.26a1.33,1.33,0,0,1,0-2.66h5.48V39.41H46.58V58.55h4.28a6.32,6.32,0,0,1,6.21-5.24,1.34,1.34,0,0,1,1.33,1.33v3.91h5.14v-10a1.33,1.33,0,0,1,2.66,0v11c0,.07,0,.13,0,.19s0,.13,0,.19a1.33,1.33,0,0,1-1.33,1.33H45.25a1.32,1.32,0,0,1-1.33-1.33ZM66.2,42.8a1.22,1.22,0,0,1,0,.26,1.09,1.09,0,0,1-.07.24,1.24,1.24,0,0,1-.12.23,1.73,1.73,0,0,1-.17.21,1.56,1.56,0,0,1-.2.16,1,1,0,0,1-.23.12,1.21,1.21,0,0,1-.25.08,1.15,1.15,0,0,1-.26,0,1.09,1.09,0,0,1-.26,0,1.21,1.21,0,0,1-.25-.08,1,1,0,0,1-.23-.12,1.56,1.56,0,0,1-.2-.16,1.73,1.73,0,0,1-.17-.21,1.24,1.24,0,0,1-.12-.23,1.09,1.09,0,0,1-.07-.24,1.22,1.22,0,0,1,0-.26,1.32,1.32,0,0,1,.39-.94,1.06,1.06,0,0,1,.2-.17,1,1,0,0,1,.23-.12l.25-.08a1.51,1.51,0,0,1,.52,0l.25.08a1,1,0,0,1,.23.12,1.06,1.06,0,0,1,.2.17A1.32,1.32,0,0,1,66.2,42.8ZM43.92,66.44a1.33,1.33,0,0,1,1.33-1.33H79.61a1.33,1.33,0,0,1,1.33,1.33v5.2A1.32,1.32,0,0,1,79.61,73H45.25a1.32,1.32,0,0,1-1.33-1.33Zm1.33,10.11H73.9a1.33,1.33,0,0,1,0,2.66H45.25a1.33,1.33,0,0,1,0-2.66Z"/><path class="cls-1" d="M56.69,0a56.7,56.7,0,1,0,56.7,56.69A56.69,56.69,0,0,0,56.69,0ZM90.74,85.1a1.33,1.33,0,0,1-1.33,1.33H30.56A8.05,8.05,0,0,1,24.84,84a7.56,7.56,0,0,1-2.19-5.46V34.83a7.44,7.44,0,0,1,2.12-5.45A7.75,7.75,0,0,1,37.1,31H89.26a1.48,1.48,0,0,1,1.48,1.48Z"/></g></g></svg>