<svg xmlns="http://www.w3.org/2000/svg" viewBox="0 0 113.39 113.39"><defs><style>.cls-1{fill:#126075;}</style></defs><title>Asset 49</title><g id="Layer_2" data-name="Layer 2"><g id="Слой_1" data-name="Слой 1"><path class="cls-1" d="M56.83,36.67A10.88,10.88,0,1,0,67.71,47.54,10.88,10.88,0,0,0,56.83,36.67ZM64.59,45l-8.22,8.22a2.25,2.25,0,0,1-3.18,0l-4.12-4.11A2.25,2.25,0,0,1,52.25,46l2.53,2.53,6.64-6.64A2.25,2.25,0,0,1,64.59,45Z"/><path class="cls-1" d="M74.58,40.74l1-6.79-6.75-1.18a2.26,2.26,0,0,1-1.6-1.16L64,25.55l-6.16,3a2.2,2.2,0,0,1-2,0l-6.16-3-3.21,6.06a2.27,2.27,0,0,1-1.6,1.16L38.13,34l1,6.79a2.23,2.23,0,0,1-.61,1.87l-4.77,4.93,4.77,4.93a2.23,2.23,0,0,1,.61,1.87l-1,6.79,6.75,1.19a2.22,2.22,0,0,1,1.6,1.16l3.21,6.05,6.16-3a2.24,2.24,0,0,1,1-.23,2.28,2.28,0,0,1,1,.23l6.16,3,3.21-6.06a2.22,2.22,0,0,1,1.6-1.15l6.75-1.19-1-6.79a2.2,2.2,0,0,1,.61-1.87L80,47.54l-4.76-4.93A2.2,2.2,0,0,1,74.58,40.74ZM56.83,62.91A15.37,15.37,0,1,1,72.2,47.54,15.39,15.39,0,0,1,56.83,62.91Z"/><path class="cls-1" d="M64.94,74.75a2.21,2.21,0,0,1-1-.23L56.83,71l-7.12,3.48a2.23,2.23,0,0,1-3-1L46,72.09V87L55.83,82a2.22,2.22,0,0,1,2,0L67.71,87V72.09l-.78,1.47A2.24,2.24,0,0,1,64.94,74.75Z"/><path class="cls-1" d="M56.69,0a56.7,56.7,0,1,0,56.7,56.69A56.69,56.69,0,0,0,56.69,0Zm28,49.1-5.51,5.7,1.11,7.85a2.25,2.25,0,0,1-1.83,2.53l-6.26,1.1V90.59a2.24,2.24,0,0,1-3.25,2L56.83,86.54,44.71,92.6a2.2,2.2,0,0,1-1,.24,2.26,2.26,0,0,1-2.25-2.25V66.28l-6.25-1.1a2.25,2.25,0,0,1-1.84-2.53l1.11-7.85L29,49.1A2.25,2.25,0,0,1,29,46l5.51-5.7-1.11-7.85a2.25,2.25,0,0,1,1.84-2.53L43,28.53l3.72-7a2.24,2.24,0,0,1,3-1L56.83,24,64,20.56a2.26,2.26,0,0,1,3,1l3.72,7,7.81,1.37a2.25,2.25,0,0,1,1.83,2.53l-1.11,7.85L84.69,46A2.23,2.23,0,0,1,84.69,49.1Z"/></g></g></svg>