<svg xmlns="http://www.w3.org/2000/svg" viewBox="0 0 113.39 113.39"><defs><style>.cls-1{fill:#126075;}</style></defs><title>Asset 52</title><g id="Layer_2" data-name="Layer 2"><g id="Слой_1" data-name="Слой 1"><path class="cls-1" d="M70.76,44.35H55a6,6,0,0,0-6,6V63a6,6,0,0,0,6,6H70.76a6,6,0,0,0,6-6V50.34A6,6,0,0,0,70.76,44.35Zm1,21a1.52,1.52,0,0,1-1.2.58H53.73a1.53,1.53,0,0,1-1.31-.72,1.57,1.57,0,0,1-.08-1.5l4.51-9.25a1.53,1.53,0,0,1,2.24-.61l3.28,2.18,3.8-6.32A1.52,1.52,0,0,1,67.74,49,1.55,1.55,0,0,1,69,50.19l3.08,13.88A1.56,1.56,0,0,1,71.78,65.37Z"/><path class="cls-1" d="M64.19,59a1.56,1.56,0,0,1-1,.71A1.47,1.47,0,0,1,62,59.52l-3.16-2.11L56.2,62.86H68.66l-1.83-8.23Z"/><path class="cls-1" d="M76.93,38.18H48.8a6,6,0,0,0-6,6V72.3a6,6,0,0,0,6,6H76.93a6,6,0,0,0,6-6V44.17A6,6,0,0,0,76.93,38.18ZM79.84,63a9.09,9.09,0,0,1-9.09,9.08H55A9.09,9.09,0,0,1,45.89,63V50.34A9.09,9.09,0,0,1,55,41.27H70.75a9.09,9.09,0,0,1,9.09,9.07Z"/><path class="cls-1" d="M56.69,0a56.7,56.7,0,1,0,56.7,56.69A56.69,56.69,0,0,0,56.69,0ZM92.18,82.21c0,5.66-3.73,11.51-10,11.51H34.47c-3.51,0-7.09-3.52-7.09-7V78.29H22.75a1.54,1.54,0,1,1,0-3.08h4.63V69H22.75a1.55,1.55,0,0,1,0-3.09h4.63V59.78H22.75a1.55,1.55,0,0,1,0-3.09h4.63V50.52H22.75a1.54,1.54,0,1,1,0-3.08h4.63V41.27H22.75a1.55,1.55,0,0,1,0-3.09h4.63v-13c0-3.61,3.65-5.55,7.09-5.55H82.2c5.88,0,10,4.14,10,10.08Z"/><path class="cls-1" d="M82.2,22.75H34.47c-1.61,0-4,.79-4,2.47v13h4.62a1.55,1.55,0,1,1,0,3.09H30.47v6.17h4.62a1.54,1.54,0,1,1,0,3.08H30.47v6.17h4.62a1.55,1.55,0,1,1,0,3.09H30.47V66h4.62a1.55,1.55,0,1,1,0,3.09H30.47v6.17h4.62a1.54,1.54,0,1,1,0,3.08H30.47v8.45c0,1.75,2.2,3.89,4,3.89H82.2c4.32,0,6.89-4.28,6.89-8.42V29.75C89.09,25.5,86.39,22.75,82.2,22.75ZM86,72.3a9.09,9.09,0,0,1-9.09,9.08H48.8a9.09,9.09,0,0,1-9.08-9.08V44.17a9.09,9.09,0,0,1,9.08-9.08H76.93A9.1,9.1,0,0,1,86,44.17Z"/></g></g></svg>