<svg xmlns="http://www.w3.org/2000/svg" viewBox="0 0 113.39 113.39"><defs><style>.cls-1{fill:#126075;}</style></defs><title>Asset 53</title><g id="Layer_2" data-name="Layer 2"><g id="Слой_1" data-name="Слой 1"><path class="cls-1" d="M39.62,67.37V38.69a5,5,0,0,0-4.94,5V77.25a4.94,4.94,0,0,0,4.94,4.94h24a5,5,0,0,0,5-4.94h-19a9.9,9.9,0,0,1-9.89-9.89Z"/><path class="cls-1" d="M56.69,0a56.7,56.7,0,1,0,56.7,56.69A56.69,56.69,0,0,0,56.69,0ZM82.13,55a2.47,2.47,0,1,1-4.94,0V33.76a5,5,0,0,0-4.94-4.95H49.51a5,5,0,0,0-4.95,4.95V67.37a4.93,4.93,0,0,0,4.95,4.94H72.25a5,5,0,0,0,4.94-4.94,2.47,2.47,0,1,1,4.94,0,9.9,9.9,0,0,1-8.65,9.81v.07a9.9,9.9,0,0,1-9.89,9.89h-24a9.91,9.91,0,0,1-9.89-9.89V43.64a9.9,9.9,0,0,1,9.89-9.89,9.9,9.9,0,0,1,9.89-9.88H72.25a9.9,9.9,0,0,1,9.88,9.89Zm-30-3a2.47,2.47,0,0,1,0-4.94H69.64a2.47,2.47,0,0,1,0,4.94Zm10,7.41a2.48,2.48,0,0,1-2.47,2.48H52.1a2.48,2.48,0,0,1,0-4.95h7.54A2.48,2.48,0,0,1,62.11,59.46Zm7.53-17.3H52.1a2.47,2.47,0,1,1,0-4.94H69.64a2.47,2.47,0,0,1,0,4.94Z"/></g></g></svg>