<svg xmlns="http://www.w3.org/2000/svg" viewBox="0 0 113.39 113.39"><defs><style>.cls-1{fill:#126075;}</style></defs><title>Asset 40</title><g id="Layer_2" data-name="Layer 2"><g id="Слой_1" data-name="Слой 1"><path class="cls-1" d="M43,77.1a2.68,2.68,0,1,0,1.77,4.69l.22-.23a2.62,2.62,0,0,0,.69-1.78A2.69,2.69,0,0,0,43,77.1Z"/><path class="cls-1" d="M49.46,83.57a2.69,2.69,0,0,0-1.77.68l-.22.22a2.64,2.64,0,0,0-.69,1.78,2.7,2.7,0,0,0,2.69,2.69,2.67,2.67,0,0,0,1.86-.77l0,0,0,0a2.66,2.66,0,0,0,.76-1.87A2.7,2.7,0,0,0,49.46,83.57Z"/><path class="cls-1" d="M36.54,70.64a2.68,2.68,0,1,0,2.68,2.68A2.68,2.68,0,0,0,36.54,70.64Z"/><path class="cls-1" d="M65.35,58.2l-6.93-.07-6.33,6.33a6,6,0,0,1-8.55-8.55L51,48.45H48.56a1.93,1.93,0,0,1-1.34-.55L44.31,45,27.59,61.7l5.91,5.91A6.46,6.46,0,0,1,43,73.32h0a6.47,6.47,0,0,1,6.46,6.46h0a6.45,6.45,0,0,1,5.68,9.49l2.32,2.31a2,2,0,0,0,2.76-2.76l-2-2a1.86,1.86,0,0,1-.56-1.33,1.9,1.9,0,0,1,3.23-1.34l1.91,1.91a2.06,2.06,0,0,0,2.91,0,2,2,0,0,0,0-3l-4.11-3.9a1.89,1.89,0,1,1,2.6-2.75L68,80.06a2.56,2.56,0,0,0,3.65-.13,2.56,2.56,0,0,0-.07-3.55h0l-3.92-3.93a1.89,1.89,0,0,1,2.67-2.67l3.93,3.93a2.4,2.4,0,0,0,3.39,0,2.42,2.42,0,0,0,.7-1.71,2.38,2.38,0,0,0-.71-1.69Z"/><path class="cls-1" d="M56.69,0a56.7,56.7,0,1,0,56.7,56.69A56.69,56.69,0,0,0,56.69,0ZM80.23,26.14A1.89,1.89,0,1,1,78.34,28,1.89,1.89,0,0,1,80.23,26.14ZM33,26.29a1.89,1.89,0,1,1-1.89,1.89A1.89,1.89,0,0,1,33,26.29ZM93.46,63a4.55,4.55,0,0,1-5.82.51l-6.2,5.67a6.18,6.18,0,0,1-1.15,7.15,6.16,6.16,0,0,1-4.18,1.81,6.38,6.38,0,0,1-1.68,4.31,6.28,6.28,0,0,1-4.28,2h0a5.85,5.85,0,0,1-5.55,5.92,5.74,5.74,0,0,1-9.79,3.81L52.5,92A6.46,6.46,0,0,1,43,86.25h0a6.47,6.47,0,0,1-6.44-6.46h0a6.45,6.45,0,0,1-5.71-9.49l-6.21-6.21a4.48,4.48,0,0,1-1.57.28A4.56,4.56,0,0,1,19.83,63l-11-11a1.9,1.9,0,0,1,0-2.68L26.94,31.19a1.9,1.9,0,0,1,2.68,2.68l-16.8,16.8,9.69,9.69a.76.76,0,0,0,1,0l0,0L42.2,41.75l.53-.53a.76.76,0,0,0,.22-.54.78.78,0,0,0-.22-.54L36.4,33.82a1.89,1.89,0,0,1,2.67-2.68l6.33,6.33a4.51,4.51,0,0,1,1.33,3.21,4.42,4.42,0,0,1-.16,1.21l2.77,2.78H64.73l2.2-2.2a4.54,4.54,0,0,1,1-5L74.4,31a1.89,1.89,0,0,1,2.67,2.67l-6.51,6.51a.77.77,0,0,0,0,1.07L89.7,60.37a.78.78,0,0,0,1.08,0l9.69-9.7L83.9,34.09a1.89,1.89,0,0,1,2.67-2.67l17.92,17.92a1.9,1.9,0,0,1,0,2.67ZM23.87,51.73A1.89,1.89,0,1,1,22,49.85,1.89,1.89,0,0,1,23.87,51.73Zm65.36-.19a1.89,1.89,0,1,1,1.88,1.89A1.88,1.88,0,0,1,89.23,51.54Z"/><path class="cls-1" d="M66.85,47.89a1.89,1.89,0,0,1-1.34.56H56.36L46.22,58.59a2.26,2.26,0,0,0,0,3.19,2.24,2.24,0,0,0,1.6.67,2.22,2.22,0,0,0,1.59-.67l6.9-6.89a1.87,1.87,0,0,1,1.36-.55l8.23.09a1.87,1.87,0,0,1,1.55.53h0L79,66.34l5.93-5.42L69.37,45.38Z"/></g></g></svg>