<svg xmlns="http://www.w3.org/2000/svg" viewBox="0 0 113.39 113.39"><defs><style>.cls-1{fill:#126075;}</style></defs><title>Asset 43</title><g id="Layer_2" data-name="Layer 2"><g id="Слой_1" data-name="Слой 1"><path class="cls-1" d="M34.77,73.13H31a1.83,1.83,0,0,0,0,3.66h3.77a1.83,1.83,0,0,0,0-3.66Z"/><path class="cls-1" d="M36.6,56.69a1.83,1.83,0,0,0-1.83-1.82H31a1.83,1.83,0,1,0,0,3.65h3.77A1.83,1.83,0,0,0,36.6,56.69Z"/><path class="cls-1" d="M36.6,38.43a1.83,1.83,0,0,0-1.83-1.83H31a1.83,1.83,0,1,0,0,3.65h3.77A1.83,1.83,0,0,0,36.6,38.43Z"/><path class="cls-1" d="M75.08,62.17a12.73,12.73,0,0,1,5.48,1.24V31a1.83,1.83,0,0,0-1.82-1.83H38.43A1.83,1.83,0,0,0,36.6,31v2.26a5.48,5.48,0,0,1,0,10.33v7.94a5.48,5.48,0,0,1,0,10.33v7.93a5.49,5.49,0,0,1,0,10.34v2.14a1.94,1.94,0,0,0,1.83,2H66.18a12.84,12.84,0,0,1,8.9-22Zm-11-21.92h11a1.83,1.83,0,0,1,0,3.66h-11a1.83,1.83,0,0,1,0-3.66Zm0,14.62h11a1.83,1.83,0,1,1,0,3.65h-11a1.83,1.83,0,1,1,0-3.65ZM58,68.94l-7.3,7.31a1.82,1.82,0,0,1-2.59,0l-4.16-4.17a1.82,1.82,0,1,1,2.58-2.58l2.88,2.88,6-6A1.82,1.82,0,0,1,58,68.94Zm0-14.61-7.3,7.31a1.85,1.85,0,0,1-2.59,0l-4.16-4.17a1.82,1.82,0,0,1,2.58-2.58l2.88,2.87,6-6A1.82,1.82,0,0,1,58,54.33Zm0-14.61L50.68,47a1.82,1.82,0,0,1-2.59,0l-4.16-4.16a1.83,1.83,0,1,1,2.58-2.59l2.88,2.88,6-6A1.83,1.83,0,1,1,58,39.72Z"/><path class="cls-1" d="M56.69,0a56.7,56.7,0,1,0,56.7,56.69A56.69,56.69,0,0,0,56.69,0ZM75.08,87.87H38.43a5.36,5.36,0,0,1-3.91-1.7A5.65,5.65,0,0,1,33,82.27V80.44H31a5.48,5.48,0,0,1,0-11h2V62.17H31a5.48,5.48,0,0,1,0-11h2v-7.3H31a5.48,5.48,0,0,1,0-11h2V31a5.48,5.48,0,0,1,5.48-5.48H78.74A5.48,5.48,0,0,1,84.22,31V66a12.87,12.87,0,0,1-9.14,21.85Z"/><path class="cls-1" d="M75.08,65.83A9.2,9.2,0,1,0,84.22,75,9.14,9.14,0,0,0,75.08,65.83Zm3.66,11H75.08A1.82,1.82,0,0,1,73.26,75V71.31a1.83,1.83,0,1,1,3.65,0v1.82h1.83a1.83,1.83,0,0,1,0,3.66Z"/></g></g></svg>