<svg xmlns="http://www.w3.org/2000/svg" viewBox="0 0 113.39 113.39"><defs><style>.cls-1{fill:#126075;}</style></defs><title>Asset 44</title><g id="Layer_2" data-name="Layer 2"><g id="Слой_1" data-name="Слой 1"><rect class="cls-1" x="54.63" y="64.17" width="8.24" height="8.25"/><polygon class="cls-1" points="45.35 42.73 43.71 47.67 47 47.67 45.35 42.73"/><rect class="cls-1" x="43.29" y="49.74" width="1.03" height="31.96"/><rect class="cls-1" x="46.38" y="49.74" width="1.03" height="31.96"/><rect class="cls-1" x="43.29" y="83.76" width="4.12" height="5.15"/><polygon class="cls-1" points="77.31 76.13 85.15 68.29 77.31 68.29 77.31 76.13"/><path class="cls-1" d="M56.69,0a56.7,56.7,0,1,0,56.7,56.69A56.69,56.69,0,0,0,56.69,0ZM39.17,40.46H37.11V38.4h2.06Zm0-4.12H37.11V34.28h2.06Zm10.31,53.6a1,1,0,0,1-1,1H42.26a1,1,0,0,1-1-1V48.71a1.48,1.48,0,0,1,.21-.62l3-9a1,1,0,0,1,1.85,0l3,9a1.12,1.12,0,0,1,.21.62Zm-8.25-53.6V34.28h2.06v2.06ZM88.65,67.27a.37.37,0,0,1-.1.3v.11c-.1.1-.1.2-.2.31L77,79.33a.94.94,0,0,1-.72.3H52.57v-2H75.25V67.27a1,1,0,0,1,1-1H86.59v-35H28.86V77.58h9.28v2H27.83a1,1,0,0,1-1-1V30.15a1,1,0,0,1,1-1H87.62a1,1,0,0,1,1,1ZM61.85,59v1H59.79V58a1,1,0,0,1,1-1h8.25a1,1,0,0,1,1,1v8.26a1,1,0,0,1-1,1H67V65.2h1V59Zm2.06-13.4V43.55H66v2.07a7.22,7.22,0,0,0,14.44,0V43.55h2.06v2.07a9.28,9.28,0,0,1-18.56,0Zm8.25,1H70.1V44.58a7.22,7.22,0,0,0-14.44,0v2.07H53.6V44.58a9.28,9.28,0,0,1,18.56,0ZM63.91,62.11a1,1,0,0,1,1,1V73.45a1,1,0,0,1-1,1H53.6a1,1,0,0,1-1-1V63.14a1,1,0,0,1,1-1ZM33,69.33V67.27H35v2.06ZM35,71.39v2.06H33V71.39ZM33,65.2V63.14H35V65.2Zm0-4.12V59H35v2.06ZM33,57V54.89H35V57Zm0-4.13V50.77H35v2.06Zm0-4.12V46.65H35v2.06Zm0-4.13V42.52H35v2.06Zm0-4.12V38.4H35v2.06Zm0-4.12V34.28H35v2.06Z"/></g></g></svg>