<svg xmlns="http://www.w3.org/2000/svg" viewBox="0 0 113.39 113.39"><defs><style>.cls-1{fill:#126075;}</style></defs><title>Asset 45</title><g id="Layer_2" data-name="Layer 2"><g id="Слой_1" data-name="Слой 1"><rect class="cls-1" x="53.23" y="70.75" width="7.14" height="7.14"/><rect class="cls-1" x="53.23" y="61.24" width="7.14" height="7.14"/><path class="cls-1" d="M31.82,79.08V41A1.19,1.19,0,0,1,33,39.83H80.59A1.19,1.19,0,0,1,81.78,41V65a17.63,17.63,0,0,1,2.38.49v-28H29.44v45.2H61.56a17.21,17.21,0,0,1,.17-2.38H33A1.19,1.19,0,0,1,31.82,79.08Z"/><rect class="cls-1" x="53.23" y="51.72" width="7.14" height="7.14"/><rect class="cls-1" x="43.71" y="61.24" width="7.14" height="7.14"/><rect class="cls-1" x="53.23" y="42.21" width="7.14" height="7.14"/><path class="cls-1" d="M72.26,66.31c.42-.19.85-.34,1.28-.49l.14,0c.35-.12.71-.23,1.07-.33l.54-.14.9-.19.87-.13c.23,0,.45-.07.69-.09.54,0,1.09-.08,1.65-.08V61.24H72.26Z"/><rect class="cls-1" x="62.74" y="42.21" width="7.14" height="7.14"/><rect class="cls-1" x="72.26" y="51.72" width="7.14" height="7.14"/><path class="cls-1" d="M84.16,29.12H81.78v1.19a1.19,1.19,0,1,1-2.38,0V29.12H77v1.19a1.19,1.19,0,1,1-2.38,0V29.12H72.26v1.19a1.19,1.19,0,0,1-2.38,0V29.12H67.5v1.19a1.19,1.19,0,1,1-2.38,0V29.12H48.47v1.19a1.19,1.19,0,0,1-2.38,0V29.12H43.71v1.19a1.19,1.19,0,1,1-2.38,0V29.12H39v1.19a1.19,1.19,0,1,1-2.37,0V29.12H34.2v1.19a1.19,1.19,0,0,1-2.38,0V29.12H29.44v5.95H84.16Z"/><rect class="cls-1" x="62.74" y="51.72" width="7.14" height="7.14"/><rect class="cls-1" x="43.71" y="70.75" width="7.14" height="7.14"/><rect class="cls-1" x="72.26" y="42.21" width="7.14" height="7.14"/><path class="cls-1" d="M62.75,76.28a.3.3,0,0,1,0-.08c.11-.3.23-.59.36-.88s.16-.34.25-.51.3-.62.47-.93l.13-.2a18.47,18.47,0,0,1,2.14-2.93H62.75Z"/><path class="cls-1" d="M56.69,0a56.7,56.7,0,1,0,56.7,56.69A56.69,56.69,0,0,0,56.69,0Zm9,75.54c-.06.11-.1.21-.15.32a14.85,14.85,0,0,0-1.18,3.29,15.88,15.88,0,0,0-.42,3.5c0,.33,0,.65,0,1v.14a.19.19,0,0,1,0,.08A1.19,1.19,0,0,1,62.8,85H28.25a1.19,1.19,0,0,1-1.19-1.19V27.93a1.19,1.19,0,0,1,1.19-1.19h3.57V25.55a1.19,1.19,0,0,1,2.38,0v1.19h2.38V25.55a1.19,1.19,0,1,1,2.37,0v1.19h2.38V25.55a1.19,1.19,0,1,1,2.38,0v1.19h2.38V25.55a1.19,1.19,0,1,1,2.38,0v1.19H65.12V25.55a1.19,1.19,0,1,1,2.38,0v1.19h2.38V25.55a1.19,1.19,0,1,1,2.38,0v1.19h2.38V25.55a1.19,1.19,0,1,1,2.38,0v1.19H79.4V25.55a1.19,1.19,0,1,1,2.38,0v1.19h3.57a1.19,1.19,0,0,1,1.19,1.19V67.11a1.07,1.07,0,0,1-.09.43,1.19,1.19,0,0,1-1.54.68,15.29,15.29,0,0,0-4.38-1h0l-.15,0c-.31,0-.63,0-.95,0-.49,0-1,0-1.45.07-.22,0-.43.06-.65.09s-.49.06-.73.11-.56.12-.84.19l-.45.11-1,.31-.21.08a15.68,15.68,0,0,0-6.23,4.23l0,0c-.26.29-.5.6-.74.91L67,73.5c-.21.28-.41.58-.61.88l-.17.28C66,75,65.84,75.24,65.68,75.54ZM79.4,95.73A13.09,13.09,0,1,1,92.48,82.65,13.08,13.08,0,0,1,79.4,95.73Z"/><path class="cls-1" d="M68.69,68.41c.39-.29.78-.57,1.19-.83V61.24H62.74v7.14h5.95Z"/><path class="cls-1" d="M79.4,71.94A10.71,10.71,0,1,0,90.1,82.65,10.72,10.72,0,0,0,79.4,71.94Zm6.79,5.6-6,5.95a1.18,1.18,0,0,1-1.68,0L75,79.92a1.19,1.19,0,0,1,1.68-1.68L79.4,81l5.1-5.11a1.21,1.21,0,0,1,1.66,0A1.2,1.2,0,0,1,86.19,77.54Z"/><rect class="cls-1" x="34.2" y="42.21" width="7.14" height="7.14"/><rect class="cls-1" x="43.71" y="51.72" width="7.14" height="7.14"/><rect class="cls-1" x="34.2" y="51.72" width="7.14" height="7.14"/><rect class="cls-1" x="43.71" y="42.21" width="7.14" height="7.14"/><rect class="cls-1" x="34.2" y="61.24" width="7.14" height="7.14"/><rect class="cls-1" x="34.2" y="70.75" width="7.14" height="7.14"/></g></g></svg>