<svg xmlns="http://www.w3.org/2000/svg" viewBox="0 0 113.39 113.39"><defs><style>.cls-1{fill:#126075;}</style></defs><title>Asset 46</title><g id="Layer_2" data-name="Layer 2"><g id="Слой_1" data-name="Слой 1"><circle class="cls-1" cx="35.88" cy="43.07" r="2.27"/><rect class="cls-1" x="38.15" y="24.92" width="24.97" height="2.27"/><path class="cls-1" d="M65.39,63.5a2.27,2.27,0,1,0,2.27,2.27A2.27,2.27,0,0,0,65.39,63.5Z"/><path class="cls-1" d="M51.43,71.11l-1.6-1.6,2.05-2.06a10.21,10.21,0,1,0-2.34,14.72l-7.65-7.65a1.14,1.14,0,0,1,.8-1.94H54a10.24,10.24,0,0,0-.89-3.12Z"/><circle class="cls-1" cx="35.88" cy="54.42" r="2.27"/><path class="cls-1" d="M51.28,80.69q.31-.34.6-.72l-2.05-2,1.61-1.6L53.1,78A10,10,0,0,0,54,74.85H45.43Z"/><path class="cls-1" d="M65.39,79.39a2.27,2.27,0,1,0,2.27,2.27A2.27,2.27,0,0,0,65.39,79.39Z"/><path class="cls-1" d="M65.39,35.13a1.13,1.13,0,0,1-1.13,1.13H52.91a1.13,1.13,0,0,1-1.14-1.13,1.14,1.14,0,1,0-2.27,0,1.13,1.13,0,0,1-1.13,1.13H37a1.13,1.13,0,0,1-1.14-1.13V29.45H26.8v59H74.47v-59H65.39ZM43.83,39.67h4.54a1.14,1.14,0,0,1,0,2.27H43.83a1.14,1.14,0,1,1,0-2.27Zm0,4.54H55.18a1.14,1.14,0,0,1,0,2.27H43.83a1.14,1.14,0,1,1,0-2.27Zm0,6.81H59.72a1.14,1.14,0,0,1,0,2.27H43.83a1.14,1.14,0,1,1,0-2.27Zm0,4.54h7.94a1.14,1.14,0,1,1,0,2.27H43.83a1.14,1.14,0,1,1,0-2.27Zm-7.95-17a4.54,4.54,0,1,1-4.54,4.54A4.54,4.54,0,0,1,35.88,38.53Zm0,11.35a4.54,4.54,0,1,1-4.54,4.54A4.54,4.54,0,0,1,35.88,49.88Zm22.7,17H55.65l-.86.85a12.36,12.36,0,0,1,0,11.9l.87.87h2.93V82.8h-3.4a1.14,1.14,0,0,1-.81-.33l-.89-.89A12.83,12.83,0,0,1,52,83.14l-.32.26A12.48,12.48,0,1,1,53.5,65.84l.87-.87a1.16,1.16,0,0,1,.81-.33h3.4ZM65.39,86.2a4.54,4.54,0,1,1,4.54-4.54A4.54,4.54,0,0,1,65.39,86.2Zm0-15.89a4.54,4.54,0,1,1,4.54-4.54A4.54,4.54,0,0,1,65.39,70.31ZM68.8,57.83H56.31a1.14,1.14,0,0,1,0-2.27H68.8a1.14,1.14,0,0,1,0,2.27Zm0-4.54H64.26a1.14,1.14,0,1,1,0-2.27H68.8a1.14,1.14,0,0,1,0,2.27Zm0-6.81H59.72a1.14,1.14,0,1,1,0-2.27H68.8a1.14,1.14,0,0,1,0,2.27Zm1.13-5.68a1.14,1.14,0,0,1-1.13,1.14H52.91a1.14,1.14,0,1,1,0-2.27H68.8A1.14,1.14,0,0,1,69.93,40.8Z"/><rect class="cls-1" x="81.28" y="48.75" width="4.54" height="31.78"/><path class="cls-1" d="M83.55,24.92a2.27,2.27,0,0,0-2.27,2.27h4.54A2.27,2.27,0,0,0,83.55,24.92Z"/><path class="cls-1" d="M49.5,31.92A3.41,3.41,0,0,1,53.85,34h9.27V29.45h-25V34h9.28A3.37,3.37,0,0,1,49.5,31.92Z"/><path class="cls-1" d="M56.69,0a56.7,56.7,0,1,0,56.7,56.69A56.69,56.69,0,0,0,56.69,0Zm20,89.61a1.14,1.14,0,0,1-1.14,1.13H25.67a1.14,1.14,0,0,1-1.14-1.13V28.32a1.13,1.13,0,0,1,1.14-1.13H35.88V23.78A1.13,1.13,0,0,1,37,22.65H64.26a1.13,1.13,0,0,1,1.13,1.13v3.41H75.6a1.13,1.13,0,0,1,1.14,1.13ZM92.63,43.07a1.14,1.14,0,1,1-2.27,0V32.86a3.41,3.41,0,0,0-2.27-3.2v52a1.36,1.36,0,0,1-.07.35l0,.08s0,0,0,0l-3.3,6.57v.87a1.14,1.14,0,0,1-2.27,0v-.87l-3.28-6.57,0,0s0,0,0-.08A1,1,0,0,1,79,81.7s0,0,0,0V27.19a4.54,4.54,0,0,1,9.08,0v.11a5.68,5.68,0,0,1,4.54,5.56Z"/><rect class="cls-1" x="81.28" y="29.45" width="4.54" height="17.02"/><polygon class="cls-1" points="83.55 85.93 85.12 82.8 81.98 82.8 83.55 85.93"/></g></g></svg>