<svg xmlns="http://www.w3.org/2000/svg" viewBox="0 0 113.39 113.39"><defs><style>.cls-1{fill:#126075;}</style></defs><title>Asset 47</title><g id="Layer_2" data-name="Layer 2"><g id="Слой_1" data-name="Слой 1"><polygon class="cls-1" points="58.58 43.21 52.17 49.63 64.99 49.63 58.58 43.21"/><path class="cls-1" d="M51.59,66.4h2.8V58a1.39,1.39,0,0,1,1.39-1.4h5.6v2.79h-4.2v7h8.39v-14h-14Z"/><rect class="cls-1" x="63.21" y="73.34" width="27.1" height="2.9" transform="translate(-30.41 76.16) rotate(-44.99)"/><path class="cls-1" d="M29.22,30.05a2.8,2.8,0,0,0-2.8,2.8v39.9a5.58,5.58,0,0,1,5.59,0V32.85A2.79,2.79,0,0,0,29.22,30.05Z"/><path class="cls-1" d="M56.69,0a56.7,56.7,0,1,0,56.7,56.69A56.69,56.69,0,0,0,56.69,0ZM68.37,88.78h-4.2a1.4,1.4,0,0,1-1.39-1.4v-4.2h0a1.39,1.39,0,0,1,.38-.82L84.33,61.22a1.4,1.4,0,0,1,2,0l4,4a1.39,1.39,0,0,1,0,2L69.19,88.37a1.38,1.38,0,0,1-.82.37ZM50.19,69.2a1.4,1.4,0,0,1-1.4-1.4V53L47,54.81l-2-2L57.59,40.25a1.39,1.39,0,0,1,2,0L72.15,52.83l-2,2L68.37,53V67.8A1.4,1.4,0,0,1,67,69.2Zm4.2,4.2v2.79h-2.8V73.4Zm-5.6,0v2.79H37.61V73.4ZM81,41.24H78.16v-2.8H81a4.2,4.2,0,0,1,4.2,4.19v2.8h-2.8v-2.8A1.4,1.4,0,0,0,81,41.24ZM90.74,79a4.19,4.19,0,0,1-4.19,4.19H78.16V80.39h8.39A1.4,1.4,0,0,0,87.94,79V72h2.8Zm0-21h-2.8V37a1.4,1.4,0,0,0-1.39-1.4H34.81v42H32a2.8,2.8,0,1,0-2.79,2.8H60v2.79H29.22a5.6,5.6,0,0,1-5.6-5.59V32.85a5.6,5.6,0,1,1,11.19,0H86.55A4.2,4.2,0,0,1,90.74,37Z"/></g></g></svg>