<svg width="58" height="58" viewBox="0 0 58 58" fill="none"
  xmlns="http://www.w3.org/2000/svg">
  <path d="M1.76454 46.8344C-0.554083 49.1859 -0.656375 53.5822 1.86683 56.1041C4.39004 58.626 8.8227 58.5238 11.1413 56.2064L28.9743 38.3827L46.8072 56.1723C49.2622 58.626 53.5585 58.626 56.0817 56.07C58.6049 53.5481 58.639 49.2882 56.184 46.8004L38.351 29.0107L56.184 11.187C58.639 8.73328 58.6049 4.47332 56.0817 1.91734C53.5244 -0.604565 49.2622 -0.638645 46.8072 1.8151L28.9743 19.6388L11.1413 1.78102C8.8227 -0.536406 4.39004 -0.638645 1.86683 1.88326C-0.656375 4.43924 -0.554083 8.83552 1.76454 11.1529L19.6316 29.0107L1.76454 46.8344Z" fill="white"/>
</svg>
