<svg width="60" height="58" viewBox="0 0 60 58" fill="none"
  xmlns="http://www.w3.org/2000/svg">
  <path d="M23.7636 58C26.4386 58 28.4914 57.0164 29.8911 54.8906L58.6003 11.0098C59.5956 9.5186 60 7.99562 60 6.66302C60 2.85558 57.0762 0 53.2504 0C50.6376 0 48.9891 0.95186 47.4028 3.49015L23.6703 41.3742L11.8507 27.2232C10.451 25.5733 8.8647 24.8118 6.6874 24.8118C2.83048 24.8118 0 27.6674 0 31.5066C0 33.2516 0.466563 34.6477 1.92846 36.361L17.916 55.3031C19.5023 57.1751 21.3686 58 23.7636 58Z" fill="white" />
</svg>