<?xml version="1.0" encoding="UTF-8" standalone="no"?>
<!-- Generator: Adobe Illustrator 19.0.0, SVG Export Plug-In . SVG Version: 6.00 Build 0)  -->

<svg
   xmlns:dc="http://purl.org/dc/elements/1.1/"
   xmlns:cc="http://creativecommons.org/ns#"
   xmlns:rdf="http://www.w3.org/1999/02/22-rdf-syntax-ns#"
   xmlns:svg="http://www.w3.org/2000/svg"
   xmlns="http://www.w3.org/2000/svg"
   xmlns:sodipodi="http://sodipodi.sourceforge.net/DTD/sodipodi-0.dtd"
   xmlns:inkscape="http://www.inkscape.org/namespaces/inkscape"
   version="1.1"
   id="Слой_1"
   x="0px"
   y="0px"
   viewBox="-247 358.9 72 80.099998"
   xml:space="preserve"
   sodipodi:docname="docs-1.svg"
   width="72"
   height="80.099998"
   inkscape:version="0.92.1 r15371"><metadata
     id="metadata4545"><rdf:RDF><cc:Work
         rdf:about=""><dc:format>image/svg+xml</dc:format><dc:type
           rdf:resource="http://purl.org/dc/dcmitype/StillImage" /><dc:title></dc:title></cc:Work></rdf:RDF></metadata><defs
     id="defs4543" /><sodipodi:namedview
     pagecolor="#ffffff"
     bordercolor="#666666"
     borderopacity="1"
     objecttolerance="10"
     gridtolerance="10"
     guidetolerance="10"
     inkscape:pageopacity="0"
     inkscape:pageshadow="2"
     inkscape:window-width="1920"
     inkscape:window-height="1028"
     id="namedview4541"
     showgrid="false"
     inkscape:zoom="1.722"
     inkscape:cx="29.060578"
     inkscape:cy="-4.9633767"
     inkscape:window-x="1912"
     inkscape:window-y="-8"
     inkscape:window-maximized="1"
     inkscape:current-layer="Слой_1" /><style
     type="text/css"
     id="style4518">
	.st0{opacity:0.98;enable-background:new    ;}
</style><g
     transform="translate(-14,-974.7)"
     id="g4538"
     style="fill:#ffffff"><path
       class="st0"
       d="m -213.4,1333.7 c -0.1,0 -0.2,0.1 -0.3,0.1 -0.1,0 -0.1,0 -0.2,0.1 -0.1,0 -0.1,0.1 -0.2,0.1 0,0 -0.1,0.1 -0.1,0.1 -0.1,0 -0.1,0.1 -0.2,0.1 0,0 -0.1,0.1 -0.1,0.1 0,0 -0.1,0.1 -0.1,0.2 -0.2,0.3 -0.4,0.6 -0.4,1 0,0 0,0.1 0,0.1 0,0 0,0 0,0 v 5.7 h -16.2 c -1,0 -1.8,0.8 -1.8,1.8 0,0 0,0 0,0 v 62.2 c 0,1 0.8,1.8 1.8,1.8 0,0 0,0 0,0 h 17.5 v 4.8 c 0,1 0.8,1.8 1.8,1.8 0,0 0,0 0,0 h 49.1 c 1,0 1.8,-0.8 1.8,-1.8 V 1350 c 0,-0.2 0,-0.3 0,-0.5 0,0 0,0 0,-0.1 0,0 0,-0.1 0,-0.1 0,0 0,0 0,-0.1 0,0 0,-0.1 0,-0.1 0,0 0,0 0,-0.1 0,0 0,-0.1 -0.1,-0.1 0,0 0,0 0,0 0,0 0,0 0,-0.1 0,0 0,0 -0.1,-0.1 0,-0.1 -0.1,-0.1 -0.1,-0.2 0,0 0,0 0,0 0,0 0,-0.1 -0.1,-0.1 l -12,-14.2 c -0.4,-0.4 -0.9,-0.6 -1.4,-0.6 h -38 c -0.1,0 -0.2,0 -0.4,0 -0.1,0.1 -0.1,0.1 -0.2,0.1 z m 2,3.7 h 35.8 l 8.9,10.6 h -13.7 v -4.8 c 0,-1 -0.8,-1.8 -1.8,-1.8 h -29.2 c 0,-0.1 0,-4 0,-4 z m -18,7.5 h 45.4 v 3 h -27.9 c -1,0 -1.8,0.8 -1.8,1.8 0,0 0,0 0,0 v 53.8 h -15.7 z m 19.4,6.6 h 28.1 17.3 v 58.6 H -210 v -5.2 c 0,0.1 0,-53.4 0,-53.4 z"
       id="path4520"
       style="opacity:0.98000004;fill:#ffffff;enable-background:new"
       inkscape:connector-curvature="0" /><path
       class="st0"
       d="m -225,1354.6 c -1,0.1 -1.7,1 -1.6,2 0.1,0.9 0.9,1.6 1.8,1.6 h 8.4 c 1,0.1 1.9,-0.7 1.9,-1.7 0.1,-1 -0.7,-1.9 -1.7,-1.9 -0.1,0 -0.2,0 -0.3,0 h -8.4 c 0,-0.1 0,-0.1 -0.1,0 z"
       id="path4522"
       style="opacity:0.98000004;fill:#ffffff;enable-background:new"
       inkscape:connector-curvature="0" /><path
       class="st0"
       d="m -206.7,1361.7 c -1.1,0.1 -1.9,1 -1.9,2.1 0,1.1 1,1.9 2.1,1.9 h 34.3 c 1.1,0.1 2,-0.8 2.1,-1.9 0.1,-1.1 -0.8,-2 -1.9,-2.1 -0.1,0 -0.1,0 -0.2,0 h -34.3 c -0.1,0 -0.2,0 -0.2,0 z"
       id="path4524"
       style="opacity:0.98000004;fill:#ffffff;enable-background:new"
       inkscape:connector-curvature="0" /><path
       class="st0"
       d="m -224.8,1362.7 c -1,0 -1.8,0.8 -1.8,1.8 0,1 0.8,1.8 1.8,1.8 0,0 0,0 0,0 h 8.3 c 1,0 1.8,-0.8 1.8,-1.8 0,-1 -0.8,-1.8 -1.8,-1.8 z"
       id="path4526"
       style="opacity:0.98000004;fill:#ffffff;enable-background:new"
       inkscape:connector-curvature="0" /><path
       class="st0"
       d="m -206.5,1370.5 c -1,0 -1.7,0.9 -1.7,1.9 0,1 0.9,1.7 1.9,1.7 h 37.9 c 1,0 1.8,-0.8 1.8,-1.8 0,-1 -0.8,-1.8 -1.8,-1.8 h -37.9 c -0.1,0 -0.1,0 -0.2,0 z"
       id="path4528"
       style="opacity:0.98000004;fill:#ffffff;enable-background:new"
       inkscape:connector-curvature="0" /><path
       class="st0"
       d="m -218.4,1370.8 c -1,0.1 -1.7,1 -1.6,2 0.1,0.9 0.9,1.6 1.8,1.6 h 0.2 c 1,0.1 1.9,-0.7 1.9,-1.7 0.1,-1 -0.7,-1.9 -1.7,-1.9 -0.1,0 -0.2,0 -0.3,0 h -0.2 c 0,0 -0.1,0 -0.1,0 z"
       id="path4530"
       style="opacity:0.98000004;fill:#ffffff;enable-background:new"
       inkscape:connector-curvature="0" /><path
       class="st0"
       d="m -199.9,1378.4 c -1,0.1 -1.7,0.9 -1.7,1.9 0.1,1 0.9,1.7 1.9,1.7 h 24.7 c 1,0 1.8,-0.8 1.8,-1.8 0,-1 -0.8,-1.8 -1.8,-1.8 h -24.7 c -0.1,0 -0.1,0 -0.2,0 z"
       id="path4532"
       style="opacity:0.98000004;fill:#ffffff;enable-background:new"
       inkscape:connector-curvature="0" /><path
       class="st0"
       d="m -225,1379 c -1,0.1 -1.7,1 -1.6,2 0.1,0.9 0.9,1.6 1.8,1.6 h 8.4 c 1,0.1 1.9,-0.7 1.9,-1.7 0.1,-1 -0.7,-1.9 -1.7,-1.9 -0.1,0 -0.2,0 -0.3,0 h -8.4 c 0,0 0,0 -0.1,0 z"
       id="path4534"
       style="opacity:0.98000004;fill:#ffffff;enable-background:new"
       inkscape:connector-curvature="0" /><path
       class="st0"
       d="m -206.3,1385.8 c -1.1,0 -1.9,0.9 -1.9,1.9 0,1 0.9,1.9 1.9,1.9 h 37.9 c 1.1,0 1.9,-0.9 1.9,-1.9 0,-1 -0.9,-1.9 -1.9,-1.9 z"
       id="path4536"
       style="opacity:0.98000004;fill:#ffffff;enable-background:new"
       inkscape:connector-curvature="0" /></g></svg>