<?xml version="1.0" encoding="UTF-8" standalone="no"?>
<!-- Generator: Adobe Illustrator 19.0.0, SVG Export Plug-In . SVG Version: 6.00 Build 0)  -->

<svg
   xmlns:dc="http://purl.org/dc/elements/1.1/"
   xmlns:cc="http://creativecommons.org/ns#"
   xmlns:rdf="http://www.w3.org/1999/02/22-rdf-syntax-ns#"
   xmlns:svg="http://www.w3.org/2000/svg"
   xmlns="http://www.w3.org/2000/svg"
   xmlns:sodipodi="http://sodipodi.sourceforge.net/DTD/sodipodi-0.dtd"
   xmlns:inkscape="http://www.inkscape.org/namespaces/inkscape"
   version="1.1"
   id="Слой_1"
   x="0px"
   y="0px"
   viewBox="-247 358.9 51.900002 59.799999"
   xml:space="preserve"
   sodipodi:docname="docs-2.svg"
   width="51.900002"
   height="59.799999"
   inkscape:version="0.92.1 r15371"><metadata
     id="metadata4562"><rdf:RDF><cc:Work
         rdf:about=""><dc:format>image/svg+xml</dc:format><dc:type
           rdf:resource="http://purl.org/dc/dcmitype/StillImage" /><dc:title></dc:title></cc:Work></rdf:RDF></metadata><defs
     id="defs4560" /><sodipodi:namedview
     pagecolor="#ffffff"
     bordercolor="#666666"
     borderopacity="1"
     objecttolerance="10"
     gridtolerance="10"
     guidetolerance="10"
     inkscape:pageopacity="0"
     inkscape:pageshadow="2"
     inkscape:window-width="1920"
     inkscape:window-height="1028"
     id="namedview4558"
     showgrid="false"
     inkscape:zoom="2.4352758"
     inkscape:cx="51.338325"
     inkscape:cy="15.012107"
     inkscape:window-x="1912"
     inkscape:window-y="-8"
     inkscape:window-maximized="1"
     inkscape:current-layer="Слой_1" /><path
     d="m -195.1,389 -5.2,-4.9 -0.6,0.6 v -24.5 c 0,-0.7 -0.5,-1.3 -1.2,-1.3 h -32.6 v 0 0 c -0.1,0 -0.1,0 -0.2,0 v 0 c -0.1,0 -0.1,0 -0.2,0 v 0 c 0,0 -0.1,0 -0.1,0.1 v 0 l -0.1,0.1 v 0 l -0.1,0.1 -11.3,11.4 -0.1,0.1 v 0 l -0.1,0.1 v 0 c 0,0 0,0.1 -0.1,0.1 v 0 c 0,0.1 0,0.1 0,0.2 v 0 c 0,0.1 0,0.1 0,0.2 v 0 0 46.1 c 0,0.7 0.5,1.3 1.2,1.3 h 43.7 c 0.7,0 1.2,-0.6 1.2,-1.3 v -22.9 z m -44.3,-22.3 3.5,-3.6 v 7.1 h -7 z m 36.1,49.7 h -41.3 v -43.6 h 9.9 c 0.7,0 1.2,-0.6 1.2,-1.3 v -10.1 h 30.1 V 387 l -16.8,16.1 0.1,4.9 5,0.1 11.8,-11.2 z m -33.8,-36.3 c 0,-0.7 0.5,-1.3 1.2,-1.3 h 24.2 c 0.7,0 1.2,0.6 1.2,1.3 0,0.7 -0.5,1.3 -1.2,1.3 h -24.1 c -0.8,0 -1.3,-0.6 -1.3,-1.3 z m 25.5,11.3 h -24.2 c -0.7,0 -1.2,-0.6 -1.2,-1.3 0,-0.7 0.5,-1.3 1.2,-1.3 h 24.2 c 0.7,0 1.2,0.6 1.2,1.3 0,0.7 -0.5,1.3 -1.2,1.3 z"
     id="path4555"
     style="fill:#ffffff"
     inkscape:connector-curvature="0" /></svg>