<?xml version="1.0" encoding="UTF-8" standalone="no"?>
<!-- Generator: Adobe Illustrator 19.0.0, SVG Export Plug-In . SVG Version: 6.00 Build 0)  -->

<svg
   xmlns:dc="http://purl.org/dc/elements/1.1/"
   xmlns:cc="http://creativecommons.org/ns#"
   xmlns:rdf="http://www.w3.org/1999/02/22-rdf-syntax-ns#"
   xmlns:svg="http://www.w3.org/2000/svg"
   xmlns="http://www.w3.org/2000/svg"
   xmlns:sodipodi="http://sodipodi.sourceforge.net/DTD/sodipodi-0.dtd"
   xmlns:inkscape="http://www.inkscape.org/namespaces/inkscape"
   version="1.1"
   id="Слой_1"
   x="0px"
   y="0px"
   viewBox="-247 358.9 89.199997 85.566002"
   xml:space="preserve"
   sodipodi:docname="family.svg"
   width="89.199997"
   height="85.566002"
   inkscape:version="0.92.1 r15371"><metadata
     id="metadata33"><rdf:RDF><cc:Work
         rdf:about=""><dc:format>image/svg+xml</dc:format><dc:type
           rdf:resource="http://purl.org/dc/dcmitype/StillImage" /><dc:title /></cc:Work></rdf:RDF></metadata><defs
     id="defs31" /><sodipodi:namedview
     pagecolor="#ffffff"
     bordercolor="#666666"
     borderopacity="1"
     objecttolerance="10"
     gridtolerance="10"
     guidetolerance="10"
     inkscape:pageopacity="0"
     inkscape:pageshadow="2"
     inkscape:window-width="1920"
     inkscape:window-height="1028"
     id="namedview29"
     showgrid="false"
     inkscape:zoom="2.6700352"
     inkscape:cx="-61.854712"
     inkscape:cy="49.158466"
     inkscape:window-x="1912"
     inkscape:window-y="-8"
     inkscape:window-maximized="1"
     inkscape:current-layer="Слой_1" /><style
     type="text/css"
     id="style2">
	.st0{display:none;}
	.st1{display:inline;stroke:#000000;stroke-width:4;stroke-miterlimit:10;}
	.st2{fill:none;}
</style><g
     class="st0"
     id="g6"
     style="display:none"
     transform="translate(0,-39.434)"><rect
       x="-370.10001"
       y="221.39999"
       class="st1"
       width="1220.1"
       height="751.59998"
       id="rect4"
       style="display:inline;stroke:#000000;stroke-width:4;stroke-miterlimit:10" /></g><g
     id="g4506"
     style="fill:#ffffff"><path
       d="m -167.8,399.26612 c 0,-7.6 -6.2,-13.8 -13.8,-13.8 -7.6,0 -13.8,6.2 -13.8,13.8 0,5.1 2.8,9.8 7.4,12.2 l 1.1,0.6 -1.2,0.3 c -1.2,0.4 -2.4,0.80001 -3.6,1.30001 l -0.5,0.19999 -0.2,-0.5 c -1.6,-3.8 -5.2,-6.3 -9.3,-6.3 -3.6,0 -6.9,1.9 -8.7,5 l -0.2,0.4 -0.4,-0.2 c -1.4,-0.7 -2.9,-1.2 -4.4,-1.6 l -1.3,-0.3 1.2,-0.6 c 5.1,-2.4 8.3,-7.6 8.3,-13.2 0,-8.1 -6.6,-14.6 -14.6,-14.6 -8.1,0 -14.6,6.6 -14.6,14.6 0,5.6 3.3,10.8 8.3,13.2 l 1.2,0.6 -1.3,0.3 c -11.1,2.9 -18.8,12.9 -18.8,24.3 v 1.6 h 29 l -0.2,0.7 c -0.6,1.8 -0.9,3.7 -0.9,5.6 v 1.60001 h 34.9 v -1.60001 c 0,-1.89999 -0.3,-3.8 -0.9,-5.6 l -0.2,-0.7 h 27.5 v -1.6 c 0,-10.5 -7,-19.8 -17.1,-22.7 l -1.2,-0.3 1.1,-0.6 c 4.3,-2.4 7.2,-7 7.2,-12.1 z m -33.9,11.1 c 3.8,0 6.8,3.10001 6.8,6.80001 0,3.69999 -3.1,6.8 -6.8,6.8 -3.8,0 -6.8,-3.10001 -6.8,-6.8 0,-3.7 3,-6.80001 6.8,-6.80001 z m -31.5,-13.8 c 0,-6.3 5.1,-11.39999 11.4,-11.39999 6.3,0 11.4,5.1 11.4,11.39999 0,6.3 -5.1,11.4 -11.4,11.4 -6.3,0 -11.4,-5.1 -11.4,-11.4 z m 16.9,36.8 h -27.3 l 0.1,-0.5 c 1.1,-11.19999 10.5,-19.69999 21.8,-19.69999 3.5,0 6.8,0.8 9.8,2.3 l 0.3,0.2 v 0.3 c -0.1,0.39999 -0.1,0.8 -0.1,1.2 0,3.39999 1.7,6.5 4.5,8.39999 l 0.8,0.60001 -1,0.3 c -3.6,1.2 -6.7,3.6 -8.8,6.7 z m 0.5,7.9 0.1,-0.6 c 1.1,-6.8 7.1,-11.9 14,-11.9 6.9,0 12.9,5.1 14,11.9 l 0.1,0.6 z m 54.4,-8.4 0.1,0.60001 h -25.8 l -0.1,-0.2 c -2.1,-3.1 -5.2,-5.5 -8.8,-6.7 l -1,-0.3 0.8,-0.6 c 2.7,-1.80001 4.4,-4.7 4.5,-7.9 v -0.3 l 0.2,-0.10001 c 3,-1.69999 6.4,-2.5 9.8,-2.5 10.5,-0.19999 19.2,7.60001 20.3,18 z m -20.2,-23.1 c -5.8,0 -10.5,-4.7 -10.5,-10.5 0,-5.8 4.7,-10.5 10.5,-10.5 5.8,0 10.5,4.7 10.5,10.5 0,5.7 -4.7,10.5 -10.5,10.5 z"
       id="path22"
       style="fill:#ffffff"
       inkscape:connector-curvature="0" /><path
       d="m -200.5,360.56612 -0.3,0.2 -0.3,-0.2 c -3.8,-2.6 -8.8,-2.1 -12.1,1.10001 -3.7,3.69999 -3.7,9.69999 0,13.39999 l 12.2,12.2 0.1,-0.1 0.1,0.1 12.2,-12.2 c 3.7,-3.7 3.7,-9.7 0,-13.39999 -3,-3.2 -8.1,-3.7 -11.9,-1.10001 z m 9.8,12.2 -9.9,9.9 -0.1,-0.1 -0.1,0.1 -9.9,-9.9 c -2.4,-2.4 -2.4,-6.4 0,-8.8 1.2,-1.2 2.7,-1.8 4.4,-1.8 1.7,0 3.2,0.6 4.4,1.8 l 1.3,1.3 1.3,-1.3 c 2.4,-2.4 6.4,-2.4 8.8,0 2.2,2.5 2.2,6.4 -0.2,8.8 z"
       id="path24"
       style="fill:#ffffff"
       inkscape:connector-curvature="0" /></g></svg>