<svg width="40" height="40" viewBox="0 0 40 40" fill="none"
  xmlns="http://www.w3.org/2000/svg">
  <path fill-rule="evenodd" clip-rule="evenodd" d="M12.8824 12H27.1168C27.6044 11.9999 27.9998 12.395 28 12.8824V27.1168V27.1172C27.9999 27.6049 27.6045 28.0001 27.1168 28H12.8832C12.3956 28.0001 12.0002 27.605 12 27.1176V12.8832C11.9999 12.3956 12.395 12.0002 12.8824 12ZM23.0469 21.8125V28H20.5469V21.8125H18.4688V19.3906H20.5469V17.6083C20.5469 15.5414 21.8087 14.4164 23.6525 14.4164C24.5355 14.4164 25.2944 14.4822 25.5156 14.5116V16.6719H24.2443C23.2411 16.6719 23.0469 17.1486 23.0469 17.8481V19.3906H25.4453L25.1328 21.8125H23.0469Z" fill="white"/>
</svg>
