<svg width="40" height="40" viewBox="0 0 40 40" fill="none"
  xmlns="http://www.w3.org/2000/svg">
  <path d="M20.0002 12.0077C16.7234 12.0077 13.6118 11.7165 12.4232 14.7643C11.9323 16.0231 12.0036 17.658 12.0036 19.9989C12.0036 22.053 11.9377 23.9836 12.4232 25.2325C13.6091 28.2822 16.746 27.99 19.9984 27.99C23.1362 27.99 26.3715 28.3165 27.5744 25.2325C28.0663 23.9611 27.9941 22.3506 27.9941 19.9989C27.9941 16.8771 28.1664 14.8617 26.6512 13.3486C25.1171 11.8156 23.0423 12.0077 19.9966 12.0077H20.0002ZM19.2837 13.4478C26.1188 13.437 26.9888 12.6777 26.5086 23.2253C26.3381 26.9557 23.4954 26.5464 20.0011 26.5464C13.6298 26.5464 13.4466 26.3642 13.4466 19.9953C13.4466 13.5524 13.952 13.4514 19.2837 13.446V13.4478ZM24.2688 14.7742C23.739 14.7742 23.3095 15.2035 23.3095 15.7328C23.3095 16.2621 23.739 16.6913 24.2688 16.6913C24.7985 16.6913 25.2281 16.2621 25.2281 15.7328C25.2281 15.2035 24.7985 14.7742 24.2688 14.7742ZM20.0002 15.8951C17.7323 15.8951 15.8941 17.7328 15.8941 19.9989C15.8941 22.2649 17.7323 24.1018 20.0002 24.1018C22.268 24.1018 24.1054 22.2649 24.1054 19.9989C24.1054 17.7328 22.268 15.8951 20.0002 15.8951ZM20.0002 17.3352C23.5243 17.3352 23.5288 22.6626 20.0002 22.6626C16.477 22.6626 16.4716 17.3352 20.0002 17.3352Z" fill="white"/>
</svg>
