<svg width="70" height="70" viewBox="0 0 70 70" fill="none"
  xmlns="http://www.w3.org/2000/svg">
  <rect opacity="0.1" width="70" height="70" rx="20" fill="#3AC2ED"/>
  <rect x="5" y="5" width="60" height="60" rx="16" fill="#3AC2ED"/>
  <path d="M26.5257 43.2608L23.1125 48.339L23.4757 50L25.1944 49.6453L28.606 44.5702C27.8724 44.1961 27.176 43.7577 26.5257 43.2608ZM40.9762 41.4873C40.9989 41.442 41.0135 41.392 41.0346 41.3435C41.1206 41.1607 41.1968 40.9779 41.2584 40.7857C41.2681 40.7513 41.273 40.7169 41.2843 40.6857C41.3476 40.4757 41.4006 40.263 41.4432 40.0482V40.0154C41.7594 38.1888 41.2081 36.1512 39.9466 34.3105L41.7464 31.6323C43.8203 31.887 45.6137 31.3839 46.4763 30.0979C47.9729 27.8744 46.152 24.1728 42.4145 21.8274C38.6738 19.4805 34.432 19.382 32.9386 21.6024C32.0727 22.8899 32.3257 24.6759 33.4137 26.4041L31.6106 29.0823C29.3584 28.7182 27.2067 29.0573 25.6063 30.0823C25.5966 30.0854 25.5852 30.0885 25.5787 30.0948C25.3917 30.2173 25.212 30.3498 25.0404 30.4917C25.0128 30.5136 24.9804 30.5339 24.9577 30.5557C24.802 30.6883 24.6553 30.8303 24.5183 30.9808C24.4859 31.0183 24.4405 31.0511 24.4097 31.0901C24.237 31.2786 24.0797 31.4797 23.9394 31.6917C21.6953 35.0246 23.6103 40.0685 28.2088 42.9561C32.8105 45.8436 38.3592 45.478 40.5984 42.1451C40.7395 41.9342 40.8692 41.7138 40.9762 41.4873ZM39.6547 25.9275C38.2165 25.0259 37.5144 23.604 38.09 22.7462C38.664 21.8915 40.2968 21.9305 41.7319 22.8321C43.1733 23.7337 43.869 25.1587 43.2966 26.0134C42.7242 26.8681 41.0946 26.8291 39.6547 25.9275Z" fill="white"/>
</svg>
