<svg width="26" height="26" viewBox="0 0 26 26" fill="none"
  xmlns="http://www.w3.org/2000/svg">
  <path d="M7.12406 18.8314C11.1769 22.8778 16.0992 26 20.1241 26C21.9331 26 23.5178 25.37 24.794 23.9698C25.5372 23.1438 26 22.1777 26 21.2256C26 20.5256 25.7335 19.8535 25.0744 19.3775L20.7691 16.3253C20.11 15.8772 19.5631 15.6532 19.0583 15.6532C18.4272 15.6532 17.8522 16.0172 17.2071 16.6473L16.2114 17.6274C16.0572 17.7814 15.8608 17.8514 15.6785 17.8514C15.4682 17.8514 15.2578 17.7674 15.1176 17.6974C14.2481 17.2353 12.7616 15.9612 11.3732 14.5891C9.99892 13.217 8.72276 11.7329 8.274 10.8648C8.20388 10.7108 8.11974 10.5148 8.11974 10.3048C8.11974 10.1228 8.17584 9.94076 8.3301 9.78675L9.32578 8.76467C9.94283 8.12062 10.3215 7.56058 10.3215 6.91653C10.3215 6.41249 10.0831 5.86645 9.62028 5.2084L6.60518 0.966074C6.11435 0.294023 5.42718 0 4.6699 0C3.74434 0 2.79072 0.420032 1.96332 1.21809C0.60302 2.52019 0 4.13032 0 5.90845C0 9.92676 3.0712 14.7991 7.12406 18.8314Z" fill="white"/>
</svg>
