<svg width="40" height="40" viewBox="0 0 40 40" fill="none"
  xmlns="http://www.w3.org/2000/svg">
  <path d="M27.6772 12.2108C25.6549 10.1298 22.8592 9 20.0041 9C13.937 9 9.05952 13.9351 9.11895 19.9405C9.11895 21.8432 9.65429 23.6865 10.5466 25.3513L9 31L14.7697 29.5135C16.3757 30.4055 18.1601 30.8217 19.9447 30.8217C25.9523 30.8217 30.8298 25.8865 30.8298 19.8812C30.8298 16.9676 29.6996 14.2324 27.6773 12.2108H27.6772ZM20.0041 28.9785C18.3981 28.9785 16.7921 28.5623 15.424 27.7299L15.0671 27.5515L11.6172 28.4433L12.5094 25.0542L12.2715 24.6974C9.65429 20.4758 10.9034 14.8865 15.1861 12.2702C19.4688 9.65404 25.0006 10.9027 27.6178 15.1838C30.2349 19.4649 28.9858 24.9946 24.7032 27.6109C23.335 28.5027 21.6696 28.9784 20.0041 28.9784V28.9785ZM25.2385 22.3785L24.5842 22.0812C24.5842 22.0812 23.6326 21.665 23.0377 21.3677C22.9782 21.3677 22.9188 21.3082 22.8592 21.3082C22.6808 21.3082 22.5618 21.3677 22.4429 21.4272C22.4429 21.4272 22.3834 21.4866 21.5507 22.4379C21.4911 22.5568 21.3722 22.6163 21.2532 22.6163H21.1937C21.1343 22.6163 21.0153 22.5568 20.9558 22.4974L20.6584 22.3785C20.0041 22.0812 19.4093 21.7244 18.9334 21.2488C18.8145 21.1299 18.636 21.0109 18.517 20.892C18.1007 20.4758 17.6843 20.0001 17.3869 19.465L17.3274 19.346C17.268 19.2865 17.268 19.2271 17.2085 19.1082C17.2085 18.9893 17.2085 18.8704 17.268 18.8109C17.268 18.8109 17.5059 18.5136 17.6843 18.3353C17.8033 18.2163 17.8628 18.038 17.9817 17.919C18.1007 17.7406 18.1602 17.5028 18.1007 17.3244C18.0412 17.0271 17.3274 15.4217 17.149 15.065C17.03 14.8866 16.9111 14.8271 16.7327 14.7677H16.0784C15.9593 14.7677 15.8405 14.8271 15.7214 14.8271L15.6619 14.8866C15.543 14.9461 15.424 15.065 15.305 15.1244C15.1861 15.2434 15.1266 15.3622 15.0076 15.4812C14.5912 16.0163 14.3533 16.6704 14.3533 17.3244C14.3533 17.8001 14.4723 18.2758 14.6508 18.692L14.7103 18.8704C15.2456 20.0001 15.9593 21.0109 16.9111 21.9028L17.149 22.1406C17.3274 22.319 17.5059 22.4379 17.6249 22.6163C18.874 23.6866 20.3015 24.4596 21.9075 24.8758C22.086 24.9352 22.3239 24.9352 22.5024 24.9947H23.0971C23.3946 24.9947 23.7514 24.8758 23.9894 24.7569C24.1678 24.638 24.2868 24.638 24.4057 24.5191L24.5247 24.4001C24.6437 24.2812 24.7627 24.2217 24.8816 24.1028C25.0006 23.9839 25.1195 23.865 25.179 23.746C25.298 23.5082 25.3574 23.2109 25.4169 22.9137V22.4974C25.4169 22.4974 25.3574 22.4379 25.2385 22.3785Z" fill="white" />
</svg>
