<?xml version="1.0" encoding="UTF-8"?>
<svg width="40px" height="25px" viewBox="0 0 40 25" version="1.1" xmlns="http://www.w3.org/2000/svg" xmlns:xlink="http://www.w3.org/1999/xlink">
    <!-- Generator: Sketch 41.2 (35397) - http://www.bohemiancoding.com/sketch -->
    <title>Aa</title>
    <desc>Created with Sketch.</desc>
    <defs></defs>
    <g id="Page-1" stroke="none" stroke-width="1" fill="none" fill-rule="evenodd">
        <g id="gravity" transform="translate(-1095.000000, -3976.000000)">
            <g id="6" transform="translate(0.000000, 3536.000000)">
                <g id="trend" transform="translate(1095.000000, 436.000000)">
                    <g id="Aa" transform="translate(0.000000, 4.000000)">
                        <g id="Layer_1">
                            <path d="M39,22.6770312 L38.3333594,22.6770312 C38.1494531,22.6770312 38,22.5272656 38,22.3436719 L38,14.34375 C38,11.2194531 35.4579688,8.67710937 32.3333594,8.67710937 L29.6667188,8.67710937 C26.5420313,8.67710937 24.0000781,11.2194531 24.0000781,14.34375 C24.0000781,14.8958594 24.4476563,15.34375 25.0000781,15.34375 L27.6667188,15.34375 C28.2191406,15.34375 28.6667188,14.8958594 28.6667188,14.34375 C28.6667188,12.7923437 29.5345313,10.6771094 31.0000781,10.6771094 C32.465625,10.6771094 33.3334375,12.7923437 33.3334375,14.34375 L33.3334375,14.9610156 C32.3279688,15.2814844 31.334375,15.453125 30.3685938,15.6107031 C28.3585156,15.9382031 26.4597656,16.2474219 25.0860156,17.921875 C24.020625,19.2200781 23.7608594,20.8776562 24.4085938,22.2467187 C25.1390625,23.7917187 26.8125781,24.6771094 29.0000781,24.6771094 L30.3334375,24.6771094 C31.5207813,24.6771094 32.6363281,24.3913281 33.839375,23.7767969 C34.2669531,24.3207031 34.9229688,24.6771094 35.6667969,24.6771094 L39,24.6771094 C39.5524219,24.6771094 40,24.2292187 40,23.6771094 C40,23.125 39.5524219,22.6770312 39,22.6770312 Z M33.3333594,21.7798437 C32.2541406,22.3974219 31.3121875,22.6771094 30.3333594,22.6771094 C29.4322656,22.6771094 29.0319531,22.07875 28.873125,21.7220312 C28.5714063,21.0430469 28.5824219,20.0078906 29.2878906,19.2259375 C30.1740625,18.2432031 31.8016406,17.6261719 33.3334375,17.1441406 L33.3334375,21.7799219 L33.3333594,21.7799219 L33.3333594,21.7798437 Z" id="Shape" fill="#FF6469"></path>
                            <path d="M22.3333594,22.6770313 L21.6699219,22.6770313 L12.5914844,0.62953125 C12.4371875,0.255078125 12.071875,0.010390625 11.6666406,0.010390625 C11.2614063,0.010390625 10.8961719,0.255234375 10.7417969,0.62953125 L1.6634375,22.6770313 L1,22.6770313 C0.447578125,22.6770313 0,23.1249219 0,23.6770313 C0,24.2291406 0.447578125,24.6770313 1,24.6770313 L2.33609375,24.6770313 C2.33992187,24.6770313 2.34382812,24.6771094 2.34765625,24.6770313 L3.66664062,24.6770313 C4.2190625,24.6770313 4.66664063,24.2291406 4.66664063,23.6770313 C4.66664063,23.1775 4.29914062,22.766875 3.8203125,22.6925 L5.74820312,18.0103125 L14.2516406,18.0103125 L16.1796094,22.6925 C15.7007813,22.7667969 15.3332812,23.1775 15.3332812,23.6770313 C15.3332812,24.2291406 15.7808594,24.6770313 16.3332812,24.6770313 L22.3332812,24.6770313 C22.8857031,24.6770313 23.3332812,24.2291406 23.3332812,23.6770313 C23.3333594,23.125 22.8857812,22.6770313 22.3333594,22.6770313 Z M6.57171875,16.0103906 L9.99992187,7.6846875 L13.4282031,16.0103906 L6.57171875,16.0103906 Z" id="Shape" fill="#FFDC69"></path>
                        </g>
                    </g>
                </g>
            </g>
        </g>
    </g>
</svg>