<?xml version="1.0" encoding="UTF-8"?>
<svg width="40px" height="48px" viewBox="0 0 40 48" version="1.1" xmlns="http://www.w3.org/2000/svg" xmlns:xlink="http://www.w3.org/1999/xlink">
    <!-- Generator: Sketch 41.2 (35397) - http://www.bohemiancoding.com/sketch -->
    <title>android</title>
    <desc>Created with Sketch.</desc>
    <defs></defs>
    <g id="Page-1" stroke="none" stroke-width="1" fill="none" fill-rule="evenodd">
        <g id="gravity" transform="translate(-735.000000, -4116.000000)" fill="#A6D864">
            <g id="6" transform="translate(0.000000, 3536.000000)">
                <g id="android" transform="translate(409.000000, 576.000000)">
                    <g transform="translate(326.000000, 4.000000)" id="Layer_1">
                        <g>
                            <g id="android">
                                <path d="M3.01504673,35.8606542 C4.61514019,35.8606542 6.01018692,34.4656075 6.01018692,32.865514 L6.01018692,18.8757944 C6.01018692,17.2842991 4.6153271,15.8819626 3.01504673,15.8819626 C1.41514019,15.8819626 0.0201869159,17.2843925 0.0201869159,18.8757944 L0.0201869159,32.865514 C0.0202803738,34.4654206 1.41514019,35.8606542 3.01504673,35.8606542 Z M29.5898131,0.301775701 C29.19,-0.100560748 28.5947664,-0.100560748 28.1949533,0.301775701 L25.5126168,2.97514019 L25.3888785,3.09869159 C23.7984112,2.30224299 22.0151402,1.90448598 20.0293458,1.90065421 C20.0196262,1.90065421 20.01,1.90037383 20.0002804,1.90037383 L20,1.90037383 C19.9899065,1.90037383 19.9806542,1.90065421 19.9706542,1.90065421 C17.9849533,1.90448598 16.2017757,2.30224299 14.6114019,3.09869159 L14.4873832,2.97514019 L11.8050467,0.301775701 C11.4049533,-0.100560748 10.81,-0.100560748 10.4101869,0.301775701 C10.0100935,0.701869159 10.0100935,1.29570093 10.4101869,1.69551402 L13.0048598,4.29065421 C12.168785,4.8488785 11.4106542,5.53196262 10.7514019,6.31327103 C9.17308411,8.18411215 8.16626168,10.618972 8.02785047,13.2571028 C8.02654206,13.2845794 8.02383178,13.3116822 8.02261682,13.3391589 C8.01411215,13.518785 8.01018692,13.6993458 8.01018692,13.8806542 L31.9899065,13.8806542 C31.9899065,13.6994393 31.9856075,13.5188785 31.9774766,13.3391589 C31.9761682,13.3116822 31.9734579,13.2845794 31.9718692,13.2571028 C31.8337383,10.618972 30.826729,8.18401869 29.2483178,6.31345794 C28.5893458,5.53214953 27.8309346,4.84906542 26.9948598,4.29084112 L29.5898131,1.69570093 C29.99,1.29570093 29.99,0.701962617 29.5898131,0.301775701 Z M15.0014019,10.388785 C14.1740187,10.388785 13.5031776,9.71803738 13.5031776,8.89056075 C13.5031776,8.06308411 14.1739252,7.39233645 15.0014019,7.39233645 C15.828785,7.39233645 16.4996262,8.06308411 16.4996262,8.89056075 C16.4996262,9.71803738 15.828785,10.388785 15.0014019,10.388785 Z M24.9985981,10.388785 C24.171215,10.388785 23.5003738,9.71803738 23.5003738,8.89056075 C23.5003738,8.06308411 24.1711215,7.39233645 24.9985981,7.39233645 C25.8259813,7.39233645 26.4968224,8.06308411 26.4968224,8.89056075 C26.4968224,9.71803738 25.8260748,10.388785 24.9985981,10.388785 Z M36.9850467,35.8606542 C38.5849533,35.8606542 39.9799065,34.4656075 39.9799065,32.865514 L39.9799065,18.8757944 C39.9799065,17.2842991 38.5850467,15.8819626 36.9850467,15.8819626 C35.3849533,15.8819626 33.9899065,17.2843925 33.9899065,18.8757944 L33.9899065,32.865514 C33.9899065,34.4654206 35.3848598,35.8606542 36.9850467,35.8606542 Z M24.9949533,47.8504673 C26.5948598,47.8504673 27.9900935,46.4552336 27.9900935,44.8553271 L27.9900935,37.8603738 L29.99,37.8603738 C31.1900935,37.8603738 31.9899065,37.0602804 31.9899065,35.8604673 L31.9899065,15.8819626 L8.01009346,15.8819626 L8.01009346,35.8606542 C8.01009346,37.0605607 8.81009346,37.8605607 10.01,37.8605607 L12.0100935,37.8605607 L12.0100935,44.855514 C12.0100935,46.4554206 13.4049533,47.8506542 15.0052336,47.8506542 C16.6049533,47.8506542 18.0000935,46.4554206 18.0000935,44.855514 L18.0000935,37.8605607 L22,37.8605607 L22,44.855514 C21.9998131,46.4552336 23.3950467,47.8504673 24.9949533,47.8504673 Z" id="Combined-Shape"></path>
                            </g>
                        </g>
                    </g>
                </g>
            </g>
        </g>
    </g>
</svg>