<?xml version="1.0" encoding="UTF-8"?>
<svg width="40px" height="52px" viewBox="0 0 40 52" version="1.1" xmlns="http://www.w3.org/2000/svg" xmlns:xlink="http://www.w3.org/1999/xlink">
    <!-- Generator: Sketch 41.2 (35397) - http://www.bohemiancoding.com/sketch -->
    <title>apple</title>
    <desc>Created with Sketch.</desc>
    <defs></defs>
    <g id="Page-1" stroke="none" stroke-width="1" fill="none" fill-rule="evenodd">
        <g id="gravity" transform="translate(-735.000000, -3976.000000)" fill="#CCD0D2">
            <g id="6" transform="translate(0.000000, 3536.000000)">
                <g id="apple" transform="translate(411.000000, 436.000000)">
                    <g id="apple-2" transform="translate(324.000000, 4.000000)">
                        <g id="apple">
                            <path d="M27.4338596,7.77333333 C29.3584211,5.71298246 30.6601754,2.85245614 30.3038596,0 C27.5312281,0.0989473684 24.1708772,1.62754386 22.1807018,3.6877193 C20.3966667,5.51157895 18.8347368,8.42649123 19.2515789,11.2229825 C22.3454386,11.4322807 25.5061404,9.83035088 27.4338596,7.77333333 Z M33.3385965,27.4724561 C33.2794737,21.0775439 38.4015789,18.0061404 38.6284211,17.8577193 C35.7487719,13.5150877 31.2640351,12.9208772 29.6668421,12.8538596 C25.8480702,12.4529825 22.2208772,15.1664912 20.2821053,15.1664912 C18.3512281,15.1664912 15.3645614,12.9064912 12.1973684,12.967193 C8.03368421,13.0357895 4.19719298,15.4603509 2.05877193,19.3029825 C-2.26649123,27.0333333 0.950175439,38.4847368 5.16491228,44.7550877 C7.22526316,47.8247368 9.67842105,51.2682456 12.8998246,51.1436842 C16.0094737,51.0191228 17.1817544,49.0754386 20.9335088,49.0754386 C24.6868421,49.0754386 25.7377193,51.1436842 29.0214035,51.0814035 C32.3626316,51.0191228 34.477193,47.9526316 36.52,44.8733333 C38.8836842,41.3133333 39.8580702,37.8666667 39.9138596,37.6926316 C39.8421053,37.6510526 33.407193,35.1196491 33.3385965,27.4724561 Z" id="Shape"></path>
                        </g>
                    </g>
                </g>
            </g>
        </g>
    </g>
</svg>