<?xml version="1.0" encoding="UTF-8"?>
<svg width="40px" height="34px" viewBox="0 0 40 34" version="1.1" xmlns="http://www.w3.org/2000/svg" xmlns:xlink="http://www.w3.org/1999/xlink">
    <!-- Generator: Sketch 41.2 (35397) - http://www.bohemiancoding.com/sketch -->
    <title>pixel perfect</title>
    <desc>Created with Sketch.</desc>
    <defs></defs>
    <g id="Page-1" stroke="none" stroke-width="1" fill="none" fill-rule="evenodd">
        <g id="gravity" transform="translate(-1095.000000, -4116.000000)">
            <g id="6" transform="translate(0.000000, 3536.000000)">
                <g id="Pixel-perfect" transform="translate(1095.000000, 576.000000)">
                    <g id="pixel-perfect" transform="translate(0.000000, 4.000000)">
                        <g id="Layer_1">
                            <path d="M38.6207031,0.0565625 L1.37929688,0.0565625 C0.6175,0.0565625 0,0.6740625 0,1.43585937 L0,23.5048437 L40,23.5048437 L40,1.43585937 C40,0.6740625 39.3825,0.0565625 38.6207031,0.0565625 Z M37.9310156,21.4358594 L2.06898437,21.4358594 L2.06898437,2.12554687 L37.9310156,2.12554687 L37.9310156,21.4358594 Z" id="Shape" fill="#464655"></path>
                            <g id="Group" transform="translate(2.031250, 2.109375)" fill="#FFFFFF">
                                <path d="M13.8307031,8.636875 C14.0213281,8.636875 14.1755469,8.79109375 14.1755469,8.98171875 L15.21,8.98171875 L15.21,7.94726562 L13.8307031,7.94726562 C13.6400781,7.94726562 13.4858594,7.79304687 13.4858594,7.60242187 C13.4858594,7.41179687 13.6400781,7.25757812 13.8307031,7.25757812 L15.21,7.25757812 L15.21,2.77484375 L9.003125,2.77484375 L9.003125,8.98171875 L13.4858594,8.98171875 C13.4859375,8.79109375 13.6401562,8.636875 13.8307031,8.636875 Z" id="Shape"></path>
                                <path d="M0.037734375,19.3264844 L35.8997656,19.3264844 L35.8997656,0.016171875 L0.037734375,0.016171875 L0.037734375,19.3264844 Z M15.2100781,17.6023438 L13.8307812,17.6023438 C13.6401562,17.6023438 13.4859375,17.448125 13.4859375,17.2575 C13.4859375,17.066875 13.6401562,16.9126563 13.8307812,16.9126563 L15.2100781,16.9126563 C15.4007031,16.9126563 15.5549219,17.066875 15.5549219,17.2575 C15.5549219,17.448125 15.400625,17.6023438 15.2100781,17.6023438 Z M13.8307031,14.1540625 C14.0213281,14.1540625 14.1755469,14.3082813 14.1755469,14.4989063 L14.1755469,15.8782031 C14.1755469,16.0688281 14.0213281,16.2230469 13.8307031,16.2230469 C13.6400781,16.2230469 13.4858594,16.0688281 13.4858594,15.8782031 L13.4858594,14.4989063 C13.4859375,14.3082813 13.6401562,14.1540625 13.8307031,14.1540625 Z M13.4859375,13.1196094 L13.4859375,11.7403125 C13.4859375,11.5496875 13.6401562,11.3954688 13.8307812,11.3954688 C14.0214062,11.3954688 14.175625,11.5496875 14.175625,11.7403125 L14.175625,13.1196094 C14.175625,13.3102344 14.0214062,13.4644531 13.8307812,13.4644531 C13.6401562,13.4644531 13.4859375,13.3102344 13.4859375,13.1196094 Z M17.9686719,17.6023438 L16.589375,17.6023438 C16.39875,17.6023438 16.2445312,17.448125 16.2445312,17.2575 C16.2445312,17.066875 16.39875,16.9126563 16.589375,16.9126563 L17.9686719,16.9126563 C18.1592969,16.9126563 18.3135156,17.066875 18.3135156,17.2575 C18.3135156,17.448125 18.1592969,17.6023438 17.9686719,17.6023438 Z M23.8307031,15.8782031 C23.8307031,16.0688281 23.6764844,16.2230469 23.4858594,16.2230469 C23.2952344,16.2230469 23.1410156,16.0688281 23.1410156,15.8782031 L23.1410156,14.4989063 C23.1410156,14.3082813 23.2952344,14.1540625 23.4858594,14.1540625 C23.6764844,14.1540625 23.8307031,14.3082813 23.8307031,14.4989063 L23.8307031,15.8782031 Z M23.8307031,13.1196094 C23.8307031,13.3102344 23.6764844,13.4644531 23.4858594,13.4644531 C23.2952344,13.4644531 23.1410156,13.3102344 23.1410156,13.1196094 L23.1410156,11.7403125 C23.1410156,11.5496875 23.2952344,11.3954688 23.4858594,11.3954688 C23.6764844,11.3954688 23.8307031,11.5496875 23.8307031,11.7403125 L23.8307031,13.1196094 Z M23.8307031,10.3610156 C23.8307031,10.5516406 23.6764844,10.7058594 23.4858594,10.7058594 C23.2952344,10.7058594 23.1410156,10.5516406 23.1410156,10.3610156 L23.1410156,8.98171875 C23.1410156,8.79109375 23.2952344,8.636875 23.4858594,8.636875 C23.6764844,8.636875 23.8307031,8.79109375 23.8307031,8.98171875 L23.8307031,10.3610156 Z M26.9342969,11.050625 L26.9342969,6.22304688 L26.9342969,2.08515625 C26.9342969,1.70429688 27.243125,1.39546875 27.6239844,1.39546875 L33.8308594,1.39546875 C34.2117187,1.39546875 34.5205469,1.70429688 34.5205469,2.08515625 L34.5205469,6.223125 L34.5205469,11.0507031 L34.5205469,17.2575781 C34.5205469,17.6384375 34.2117187,17.9472656 33.8308594,17.9472656 L27.6239844,17.9472656 C27.243125,17.9472656 26.9342969,17.6384375 26.9342969,17.2575781 L26.9342969,11.050625 Z M22.1065625,7.25757813 L23.4858594,7.25757813 C23.6764844,7.25757813 23.8307031,7.41179688 23.8307031,7.60242188 C23.8307031,7.79304688 23.6764844,7.94726563 23.4858594,7.94726563 L22.1065625,7.94726563 C21.9159375,7.94726563 21.7617188,7.79304688 21.7617188,7.60242188 C21.7617969,7.41179688 21.9160156,7.25757813 22.1065625,7.25757813 Z M22.1065625,16.9127344 L23.4858594,16.9127344 C23.6764844,16.9127344 23.8307031,17.0669531 23.8307031,17.2575781 C23.8307031,17.4482031 23.6764844,17.6024219 23.4858594,17.6024219 L22.1065625,17.6024219 C21.9159375,17.6024219 21.7617188,17.4482031 21.7617188,17.2575781 C21.7617188,17.0669531 21.9160156,16.9127344 22.1065625,16.9127344 Z M19.3479687,7.25757813 L20.7272656,7.25757813 C20.9178906,7.25757813 21.0721094,7.41179688 21.0721094,7.60242188 C21.0721094,7.79304688 20.9178906,7.94726563 20.7272656,7.94726563 L19.3479687,7.94726563 C19.1573437,7.94726563 19.003125,7.79304688 19.003125,7.60242188 C19.003125,7.41179688 19.1573437,7.25757813 19.3479687,7.25757813 Z M19.3479687,16.9127344 L20.7272656,16.9127344 C20.9178906,16.9127344 21.0721094,17.0669531 21.0721094,17.2575781 C21.0721094,17.4482031 20.9178906,17.6024219 20.7272656,17.6024219 L19.3479687,17.6024219 C19.1573437,17.6024219 19.003125,17.4482031 19.003125,17.2575781 C19.003125,17.0669531 19.1573437,16.9127344 19.3479687,16.9127344 Z M7.62382812,2.08515625 C7.62382812,1.70398438 7.93265625,1.39546875 8.31351562,1.39546875 L15.8996875,1.39546875 C16.2805469,1.39546875 16.589375,1.70390625 16.589375,2.08515625 L16.589375,7.25757813 L17.9686719,7.25757813 C18.1592969,7.25757813 18.3135156,7.41179688 18.3135156,7.60242188 C18.3135156,7.79304688 18.1592969,7.94726563 17.9686719,7.94726563 L16.589375,7.94726563 L16.589375,9.67140625 C16.589375,9.74617188 16.5771094,9.81804688 16.5551562,9.88539063 L18.3649219,11.5067969 C18.5148437,11.6410938 18.4757812,11.8854688 18.2914844,11.9664844 L17.6057031,12.2675 L18.2182031,13.6625781 C18.2946875,13.8369531 18.2151562,14.0403906 18.0410156,14.1171094 C17.9959375,14.1366406 17.94875,14.1460938 17.9026562,14.1460938 C17.7696094,14.1460938 17.6433594,14.0692969 17.5864844,13.94 L16.9739062,12.5447656 L16.2878906,12.8458594 C16.1035937,12.9267969 15.8971875,12.7900781 15.8998437,12.5888281 L15.9288281,10.3596094 C15.9190625,10.3600781 15.9095312,10.3610938 15.8996875,10.3610938 L14.1755469,10.3610938 C14.1755469,10.5517188 14.0213281,10.7059375 13.8307031,10.7059375 C13.6400781,10.7059375 13.4858594,10.5517188 13.4858594,10.3610938 L8.3134375,10.3610938 C7.93257812,10.3610938 7.62375,10.0526563 7.62375,9.67140625 L7.62375,2.08515625 L7.62382812,2.08515625 Z M1.41703125,2.08515625 C1.41703125,1.70429688 1.72585937,1.39546875 2.10671875,1.39546875 L4.17570312,1.39546875 C4.5565625,1.39546875 4.86539062,1.70429688 4.86539062,2.08515625 L4.86539062,17.2575781 C4.86539062,17.6384375 4.5565625,17.9472656 4.17570312,17.9472656 L2.10671875,17.9472656 C1.72585937,17.9472656 1.41703125,17.6384375 1.41703125,17.2575781 L1.41703125,2.08515625 L1.41703125,2.08515625 Z" id="Shape"></path>
                            </g>
                            <path d="M0,26.2634375 C0,27.0252344 0.6175,27.6427344 1.37929688,27.6427344 L14.4827344,27.6427344 L25.5171875,27.6427344 L38.620625,27.6427344 C39.3824219,27.6427344 39.9999219,27.0252344 39.9999219,26.2634375 L39.9999219,23.5048437 L0,23.5048437 L0,26.2634375 Z M20,24.5392969 C20.5713281,24.5392969 21.0344531,25.0025 21.0344531,25.57375 C21.0344531,26.145 20.57125,26.6082031 20,26.6082031 C19.4286719,26.6082031 18.9655469,26.145 18.9655469,25.57375 C18.9655469,25.0025 19.4286719,24.5392969 20,24.5392969 Z" id="Shape" fill="#BEC8DC"></path>
                            <polygon id="Shape" fill="#AFBBD0" points="13.8792969 32.4703906 26.1207031 32.4703906 25.6896875 29.0221094 14.3103125 29.0221094"></polygon>
                            <path d="M13.793125,32.4703906 C13.4122656,32.4703906 13.1034375,32.7792187 13.1034375,33.1600781 C13.1034375,33.5409375 13.4122656,33.8497656 13.793125,33.8497656 L26.2069531,33.8497656 C26.5878125,33.8497656 26.8966406,33.5409375 26.8966406,33.1600781 C26.8966406,32.7792187 26.5878125,32.4703906 26.2069531,32.4703906 L26.1207812,32.4703906 L13.879375,32.4703906 L13.793125,32.4703906 Z" id="Shape" fill="#BEC8DC"></path>
                            <g id="Group" transform="translate(14.296875, 24.531250)" fill="#96A5B9">
                                <polygon id="Shape" points="0.0134375 4.49085938 11.3928125 4.49085938 11.2203906 3.1115625 0.185859375 3.1115625"></polygon>
                                <ellipse id="Oval" cx="5.703125" cy="1.04257813" rx="1.03445312" ry="1.03445312"></ellipse>
                            </g>
                            <path d="M4.13796875,20.0565625 L6.20695313,20.0565625 C6.5878125,20.0565625 6.89664063,19.7477344 6.89664063,19.366875 L6.89664063,4.19453125 C6.89664063,3.81367187 6.5878125,3.50484375 6.20695313,3.50484375 L4.13796875,3.50484375 C3.75710938,3.50484375 3.44828125,3.81367187 3.44828125,4.19453125 L3.44828125,19.3669531 C3.44828125,19.7478125 3.75703125,20.0565625 4.13796875,20.0565625 Z M4.82757812,4.88414063 L5.51726562,4.88414063 C5.898125,4.88414063 6.20695312,5.19296875 6.20695312,5.57382813 C6.20695312,5.9546875 5.898125,6.26351563 5.51726562,6.26351563 L4.82757812,6.26351563 C4.44671875,6.26351563 4.13789062,5.9546875 4.13789062,5.57382813 C4.13796875,5.19296875 4.44671875,4.88414063 4.82757812,4.88414063 Z M4.82757812,6.953125 L5.51726562,6.953125 C5.898125,6.953125 6.20695312,7.26195312 6.20695312,7.6428125 C6.20695312,8.02367187 5.898125,8.3325 5.51726562,8.3325 L4.82757812,8.3325 C4.44671875,8.3325 4.13789062,8.02367187 4.13789062,7.6428125 C4.13796875,7.26195312 4.44671875,6.953125 4.82757812,6.953125 Z M4.82757812,9.02210937 L5.51726562,9.02210937 C5.898125,9.02210937 6.20695312,9.3309375 6.20695312,9.71179687 C6.20695312,10.0926562 5.898125,10.4014844 5.51726562,10.4014844 L4.82757812,10.4014844 C4.44671875,10.4014844 4.13789062,10.0926562 4.13789062,9.71179687 C4.13789062,9.3309375 4.44671875,9.02210937 4.82757812,9.02210937 Z M4.82757812,11.0910938 L5.51726562,11.0910938 C5.898125,11.0910938 6.20695312,11.3999219 6.20695312,11.7807813 C6.20695312,12.1616406 5.898125,12.4704688 5.51726562,12.4704688 L4.82757812,12.4704688 C4.44671875,12.4704688 4.13789062,12.1616406 4.13789062,11.7807813 C4.13789062,11.3999219 4.44671875,11.0910938 4.82757812,11.0910938 Z M4.82757812,13.16 L5.51726562,13.16 C5.898125,13.16 6.20695312,13.4688281 6.20695312,13.8496875 C6.20695312,14.2305469 5.898125,14.539375 5.51726562,14.539375 L4.82757812,14.539375 C4.44671875,14.539375 4.13789062,14.2305469 4.13789062,13.8496875 C4.13789062,13.4688281 4.44671875,13.16 4.82757812,13.16 Z M4.13796875,16.6082812 C4.13796875,16.2274219 4.44679688,15.9185937 4.82765625,15.9185937 L5.51734375,15.9185937 C5.89820313,15.9185937 6.20703125,16.2274219 6.20703125,16.6082812 L6.20703125,17.9875781 C6.20703125,18.3684375 5.89820313,18.6772656 5.51734375,18.6772656 L4.82765625,18.6772656 C4.44679688,18.6772656 4.13796875,18.3684375 4.13796875,17.9875781 L4.13796875,16.6082812 L4.13796875,16.6082812 Z" id="Shape" fill="#BEC8DC"></path>
                            <path d="M4.82757812,6.2634375 L5.51726562,6.2634375 C5.898125,6.2634375 6.20695312,5.95460938 6.20695312,5.57375 C6.20695312,5.19289063 5.898125,4.8840625 5.51726562,4.8840625 L4.82757812,4.8840625 C4.44671875,4.8840625 4.13789062,5.19289063 4.13789062,5.57375 C4.13796875,5.9546875 4.44671875,6.2634375 4.82757812,6.2634375 Z" id="Shape" fill="#E4EAF6"></path>
                            <path d="M4.82757812,8.33242187 L5.51726562,8.33242187 C5.898125,8.33242187 6.20695312,8.02359375 6.20695312,7.64273437 C6.20695312,7.261875 5.898125,6.95304687 5.51726562,6.95304687 L4.82757812,6.95304687 C4.44671875,6.95304687 4.13789062,7.261875 4.13789062,7.64273437 C4.13796875,8.02367187 4.44671875,8.33242187 4.82757812,8.33242187 Z" id="Shape" fill="#96A5B9"></path>
                            <g id="Group" transform="translate(4.062500, 8.984375)" fill="#E4EAF6">
                                <path d="M0.765078125,1.41703125 L1.45476562,1.41703125 C1.835625,1.41703125 2.14445312,1.10820313 2.14445312,0.72734375 C2.14445312,0.346484375 1.835625,0.03765625 1.45476562,0.03765625 L0.765078125,0.03765625 C0.38421875,0.03765625 0.075390625,0.346484375 0.075390625,0.72734375 C0.075390625,1.10820313 0.38421875,1.41703125 0.765078125,1.41703125 Z" id="Shape"></path>
                                <path d="M0.765078125,3.48601563 L1.45476562,3.48601563 C1.835625,3.48601563 2.14445312,3.1771875 2.14445312,2.79632813 C2.14445312,2.41546875 1.835625,2.10664063 1.45476562,2.10664063 L0.765078125,2.10664063 C0.38421875,2.10664063 0.075390625,2.41546875 0.075390625,2.79632813 C0.075390625,3.1771875 0.38421875,3.48601563 0.765078125,3.48601563 Z" id="Shape"></path>
                                <path d="M0.765078125,5.55492187 L1.45476562,5.55492187 C1.835625,5.55492187 2.14445312,5.24609375 2.14445312,4.86523437 C2.14445312,4.484375 1.835625,4.17554687 1.45476562,4.17554687 L0.765078125,4.17554687 C0.38421875,4.17554687 0.075390625,4.484375 0.075390625,4.86523437 C0.075390625,5.24609375 0.38421875,5.55492187 0.765078125,5.55492187 Z" id="Shape"></path>
                            </g>
                            <path d="M4.82757812,18.6772656 L5.51726562,18.6772656 C5.898125,18.6772656 6.20695312,18.3684375 6.20695312,17.9875781 L6.20695312,16.6082812 C6.20695312,16.2274219 5.898125,15.9185937 5.51726562,15.9185937 L4.82757812,15.9185937 C4.44671875,15.9185937 4.13789062,16.2274219 4.13789062,16.6082812 L4.13789062,17.9875781 C4.13796875,18.3684375 4.44664062,18.6772656 4.82757812,18.6772656 Z" id="Shape" fill="#96A5B9"></path>
                            <g id="Group" transform="translate(28.906250, 3.437500)" fill="#BEC8DC">
                                <path d="M7.64546875,0.75703125 C7.64546875,0.376171875 7.33664062,0.06734375 6.95578125,0.06734375 L0.74890625,0.06734375 C0.368046875,0.06734375 0.05921875,0.376171875 0.05921875,0.75703125 L0.05921875,4.895 L7.64539062,4.895 L7.64539062,0.75703125 L7.64546875,0.75703125 Z M6.61101562,4.2053125 L3.85242187,4.2053125 L3.16273437,4.2053125 L1.09375,4.2053125 C0.90328125,4.2053125 0.74890625,4.0509375 0.74890625,3.86046875 C0.74890625,3.67 0.90328125,3.515625 1.09375,3.515625 L3.16273437,3.515625 L3.85242187,3.515625 L6.61101562,3.515625 C6.80148437,3.515625 6.95585937,3.67 6.95585937,3.86046875 C6.95585937,4.0509375 6.80140625,4.2053125 6.61101562,4.2053125 Z M6.61101562,2.8259375 L5.92132812,2.8259375 L5.23164062,2.8259375 L1.09375,2.8259375 C0.90328125,2.8259375 0.74890625,2.6715625 0.74890625,2.48109375 C0.74890625,2.290625 0.90328125,2.13625 1.09375,2.13625 L5.23171875,2.13625 L5.92140625,2.13625 L6.61109375,2.13625 C6.8015625,2.13625 6.9559375,2.290625 6.9559375,2.48109375 C6.9559375,2.6715625 6.80140625,2.8259375 6.61101562,2.8259375 Z M6.61101562,1.44664063 L2.47304687,1.44664063 L1.78335937,1.44664063 L1.09375,1.44664063 C0.90328125,1.44664063 0.74890625,1.29226563 0.74890625,1.10179688 C0.74890625,0.911328125 0.90328125,0.756953125 1.09375,0.756953125 L1.7834375,0.756953125 L2.473125,0.756953125 L6.61109375,0.756953125 C6.8015625,0.756953125 6.9559375,0.911328125 6.9559375,1.10179688 C6.9559375,1.29226563 6.80140625,1.44664063 6.61101562,1.44664063 Z" id="Shape"></path>
                                <path d="M0.74890625,16.6190625 L6.95578125,16.6190625 C7.33664062,16.6190625 7.64546875,16.3102344 7.64546875,15.929375 L7.64546875,9.7225 L0.059296875,9.7225 L0.059296875,15.929375 C0.059296875,16.3103125 0.368046875,16.6190625 0.74890625,16.6190625 Z M3.85234375,10.4121875 L6.6109375,10.4121875 C6.80140625,10.4121875 6.95578125,10.5665625 6.95578125,10.7570313 C6.95578125,10.9475 6.80140625,11.101875 6.6109375,11.101875 L3.85234375,11.101875 C3.661875,11.101875 3.5075,10.9475 3.5075,10.7570313 C3.5075,10.5665625 3.66195312,10.4121875 3.85234375,10.4121875 Z M3.85234375,11.7914844 L6.6109375,11.7914844 C6.80140625,11.7914844 6.95578125,11.9458594 6.95578125,12.1363281 C6.95578125,12.3267969 6.80140625,12.4811719 6.6109375,12.4811719 L3.85234375,12.4811719 C3.661875,12.4811719 3.5075,12.3267969 3.5075,12.1363281 C3.50757812,11.9458594 3.66195312,11.7914844 3.85234375,11.7914844 Z M3.85234375,13.1707812 L6.6109375,13.1707812 C6.80140625,13.1707812 6.95578125,13.3251562 6.95578125,13.515625 C6.95578125,13.7060937 6.80140625,13.8604687 6.6109375,13.8604687 L3.85234375,13.8604687 C3.661875,13.8604687 3.5075,13.7060937 3.5075,13.515625 C3.50757812,13.3251562 3.66195312,13.1707812 3.85234375,13.1707812 Z M3.85234375,14.5500781 L6.6109375,14.5500781 C6.80140625,14.5500781 6.95578125,14.7044531 6.95578125,14.8949219 C6.95578125,15.0853906 6.80140625,15.2397656 6.6109375,15.2397656 L3.85234375,15.2397656 C3.661875,15.2397656 3.5075,15.0853906 3.5075,14.8949219 C3.50757812,14.7045312 3.66195312,14.5500781 3.85234375,14.5500781 Z M2.47304688,10.4121875 L2.47304688,10.4121875 C2.66351563,10.4121875 2.81789063,10.5665625 2.81789063,10.7570313 C2.81789063,10.9475 2.66351563,11.101875 2.47304688,11.101875 L2.47304688,11.101875 C2.28257813,11.101875 2.12820313,10.9475 2.12820313,10.7570313 C2.12820313,10.5665625 2.28265625,10.4121875 2.47304688,10.4121875 Z M2.47304688,11.7914844 L2.47304688,11.7914844 C2.66351563,11.7914844 2.81789063,11.9458594 2.81789063,12.1363281 C2.81789063,12.3267969 2.66351563,12.4811719 2.47304688,12.4811719 L2.47304688,12.4811719 C2.28257813,12.4811719 2.12820313,12.3267969 2.12820313,12.1363281 C2.12820313,11.9458594 2.28265625,11.7914844 2.47304688,11.7914844 Z M2.47304688,13.1707812 L2.47304688,13.1707812 C2.66351563,13.1707812 2.81789063,13.3251562 2.81789063,13.515625 C2.81789063,13.7060937 2.66351563,13.8604687 2.47304688,13.8604687 L2.47304688,13.8604687 C2.28257813,13.8604687 2.12820313,13.7060937 2.12820313,13.515625 C2.12820313,13.3251562 2.28265625,13.1707812 2.47304688,13.1707812 Z M2.47304688,14.5500781 L2.47304688,14.5500781 C2.66351563,14.5500781 2.81789063,14.7044531 2.81789063,14.8949219 C2.81789063,15.0853906 2.66351563,15.2397656 2.47304688,15.2397656 L2.47304688,15.2397656 C2.28257813,15.2397656 2.12820313,15.0853906 2.12820313,14.8949219 C2.12820313,14.7045312 2.28265625,14.5500781 2.47304688,14.5500781 Z M1.09375,10.4121875 L1.09375,10.4121875 C1.28421875,10.4121875 1.43859375,10.5665625 1.43859375,10.7570313 C1.43859375,10.9475 1.28421875,11.101875 1.09375,11.101875 L1.09375,11.101875 C0.90328125,11.101875 0.74890625,10.9475 0.74890625,10.7570313 C0.74890625,10.5665625 0.90328125,10.4121875 1.09375,10.4121875 Z M1.09375,11.7914844 L1.09375,11.7914844 C1.28421875,11.7914844 1.43859375,11.9458594 1.43859375,12.1363281 C1.43859375,12.3267969 1.28421875,12.4811719 1.09375,12.4811719 L1.09375,12.4811719 C0.90328125,12.4811719 0.74890625,12.3267969 0.74890625,12.1363281 C0.74890625,11.9458594 0.90328125,11.7914844 1.09375,11.7914844 Z M1.09375,13.1707812 L1.09375,13.1707812 C1.28421875,13.1707812 1.43859375,13.3251562 1.43859375,13.515625 C1.43859375,13.7060937 1.28421875,13.8604687 1.09375,13.8604687 L1.09375,13.8604687 C0.90328125,13.8604687 0.74890625,13.7060937 0.74890625,13.515625 C0.74890625,13.3251562 0.90328125,13.1707812 1.09375,13.1707812 Z M1.09375,14.5500781 L1.09375,14.5500781 C1.28421875,14.5500781 1.43859375,14.7044531 1.43859375,14.8949219 C1.43859375,15.0853906 1.28421875,15.2397656 1.09375,15.2397656 L1.09375,15.2397656 C0.90328125,15.2397656 0.74890625,15.0853906 0.74890625,14.8949219 C0.74890625,14.7045312 0.90328125,14.5500781 1.09375,14.5500781 Z" id="Shape"></path>
                            </g>
                            <g id="Group" transform="translate(28.906250, 4.140625)" fill="#96A5B9">
                                <path d="M7.64546875,4.19179688 L0.059296875,4.19179688 L0.059296875,9.019375 L7.64546875,9.019375 L7.64546875,4.19179688 Z M1.7834375,8.32976563 L1.09375,8.32976563 C0.90328125,8.32976563 0.74890625,8.17539063 0.74890625,7.98492188 C0.74890625,7.79445313 0.90328125,7.64007813 1.09375,7.64007813 L1.7834375,7.64007813 C1.97390625,7.64007813 2.12828125,7.79445313 2.12828125,7.98492188 C2.12828125,8.17539063 1.97382812,8.32976563 1.7834375,8.32976563 Z M1.7834375,6.95046875 L1.09375,6.95046875 C0.90328125,6.95046875 0.74890625,6.79609375 0.74890625,6.605625 C0.74890625,6.41515625 0.90328125,6.26078125 1.09375,6.26078125 L1.7834375,6.26078125 C1.97390625,6.26078125 2.12828125,6.41515625 2.12828125,6.605625 C2.12828125,6.79609375 1.97382812,6.95046875 1.7834375,6.95046875 Z M1.7834375,5.57109375 L1.09375,5.57109375 C0.90328125,5.57109375 0.74890625,5.41671875 0.74890625,5.22625 C0.74890625,5.03578125 0.90328125,4.88140625 1.09375,4.88140625 L1.7834375,4.88140625 C1.97390625,4.88140625 2.12828125,5.03578125 2.12828125,5.22625 C2.12828125,5.41671875 1.97382812,5.57109375 1.7834375,5.57109375 Z M6.61101563,8.32976563 L3.16273438,8.32976563 C2.97226563,8.32976563 2.81789063,8.17539063 2.81789063,7.98492188 C2.81789063,7.79445313 2.97226563,7.64007813 3.16273438,7.64007813 L6.61101563,7.64007813 C6.80148438,7.64007813 6.95585938,7.79445313 6.95585938,7.98492188 C6.95585938,8.17539063 6.80140625,8.32976563 6.61101563,8.32976563 Z M6.61101563,6.95046875 L3.16273438,6.95046875 C2.97226563,6.95046875 2.81789063,6.79609375 2.81789063,6.605625 C2.81789063,6.41515625 2.97226563,6.26078125 3.16273438,6.26078125 L6.61101563,6.26078125 C6.80148438,6.26078125 6.95585938,6.41515625 6.95585938,6.605625 C6.95585938,6.79609375 6.80140625,6.95046875 6.61101563,6.95046875 Z M6.61101563,5.57109375 L3.16273438,5.57109375 C2.97226563,5.57109375 2.81789063,5.41671875 2.81789063,5.22625 C2.81789063,5.03578125 2.97226563,4.88140625 3.16273438,4.88140625 L6.61101563,4.88140625 C6.80148438,4.88140625 6.95585938,5.03578125 6.95585938,5.22625 C6.95585938,5.41671875 6.80140625,5.57109375 6.61101563,5.57109375 Z" id="Shape"></path>
                                <path d="M6.61101562,0.05390625 L2.47304687,0.05390625 C2.66351562,0.05390625 2.81789062,0.20828125 2.81789062,0.39875 C2.81789062,0.58921875 2.66351562,0.74359375 2.47304687,0.74359375 L6.61101562,0.74359375 C6.80148437,0.74359375 6.95585937,0.58921875 6.95585937,0.39875 C6.95585937,0.20828125 6.80140625,0.05390625 6.61101562,0.05390625 Z" id="Shape"></path>
                                <path d="M1.43859375,0.398671875 C1.43859375,0.208203125 1.59296875,0.053828125 1.7834375,0.053828125 L1.09375,0.053828125 C0.90328125,0.053828125 0.74890625,0.208203125 0.74890625,0.398671875 C0.74890625,0.589140625 0.90328125,0.743515625 1.09375,0.743515625 L1.7834375,0.743515625 C1.59296875,0.743515625 1.43859375,0.589140625 1.43859375,0.398671875 Z" id="Shape"></path>
                                <path d="M6.61101562,2.8125 L3.85242187,2.8125 C4.04289062,2.8125 4.19726562,2.966875 4.19726562,3.15734375 C4.19726562,3.3478125 4.04289062,3.5021875 3.85242187,3.5021875 L6.61101562,3.5021875 C6.80148437,3.5021875 6.95585937,3.3478125 6.95585937,3.15734375 C6.95585937,2.966875 6.80140625,2.8125 6.61101562,2.8125 Z" id="Shape"></path>
                                <path d="M2.81789062,3.15734375 C2.81789062,2.966875 2.97226562,2.8125 3.16273437,2.8125 L1.09375,2.8125 C0.90328125,2.8125 0.74890625,2.966875 0.74890625,3.15734375 C0.74890625,3.3478125 0.90328125,3.5021875 1.09375,3.5021875 L3.16273437,3.5021875 C2.97226562,3.5021875 2.81789062,3.34773438 2.81789062,3.15734375 Z" id="Shape"></path>
                            </g>
                            <path d="M35.5172656,9.02210937 L32.0689844,9.02210937 C31.8785156,9.02210937 31.7241406,9.17648437 31.7241406,9.36695312 C31.7241406,9.55742187 31.8785156,9.71179687 32.0689844,9.71179687 L35.5172656,9.71179687 C35.7077344,9.71179687 35.8621094,9.55742187 35.8621094,9.36695312 C35.8621094,9.17648437 35.7076563,9.02210937 35.5172656,9.02210937 Z" id="Shape" fill="#BEC8DC"></path>
                            <g id="Group" transform="translate(29.609375, 5.546875)" fill="#96A5B9">
                                <path d="M4.18375,0.371796875 C4.18375,0.181328125 4.338125,0.026953125 4.52859375,0.026953125 L0.390625,0.026953125 C0.20015625,0.026953125 0.04578125,0.181328125 0.04578125,0.371796875 C0.04578125,0.562265625 0.20015625,0.716640625 0.390625,0.716640625 L4.52859375,0.716640625 C4.338125,0.7165625 4.18375,0.5621875 4.18375,0.371796875 Z" id="Shape"></path>
                                <path d="M5.90789062,0.026953125 L5.21820312,0.026953125 C5.40867187,0.026953125 5.56304687,0.181328125 5.56304687,0.371796875 C5.56304687,0.562265625 5.40867187,0.716640625 5.21820312,0.716640625 L5.90789062,0.716640625 C6.09835937,0.716640625 6.25273437,0.562265625 6.25273437,0.371796875 C6.25273437,0.181328125 6.09828125,0.026953125 5.90789062,0.026953125 Z" id="Shape"></path>
                            </g>
                            <g id="Group" transform="translate(29.609375, 4.140625)" fill="#E4EAF6">
                                <path d="M2.11476563,0.398671875 C2.11476563,0.208203125 1.96039063,0.053828125 1.76992188,0.053828125 L1.08023438,0.053828125 C0.889765625,0.053828125 0.735390625,0.208203125 0.735390625,0.398671875 C0.735390625,0.589140625 0.889765625,0.743515625 1.08023438,0.743515625 L1.76992188,0.743515625 C1.96039063,0.743515625 2.11476563,0.589140625 2.11476563,0.398671875 Z" id="Shape"></path>
                                <path d="M3.4940625,3.15734375 C3.4940625,2.966875 3.3396875,2.8125 3.14921875,2.8125 L2.45953125,2.8125 C2.2690625,2.8125 2.1146875,2.966875 2.1146875,3.15734375 C2.1146875,3.3478125 2.2690625,3.5021875 2.45953125,3.5021875 L3.14921875,3.5021875 C3.3396875,3.5021875 3.4940625,3.34773438 3.4940625,3.15734375 Z" id="Shape"></path>
                                <path d="M1.0803125,4.88148437 L0.390625,4.88148437 C0.20015625,4.88148437 0.04578125,5.03585937 0.04578125,5.22632812 C0.04578125,5.41679687 0.20015625,5.57117187 0.390625,5.57117187 L1.0803125,5.57117187 C1.27078125,5.57117187 1.42515625,5.41679687 1.42515625,5.22632812 C1.42515625,5.03585937 1.27070312,4.88148437 1.0803125,4.88148437 Z" id="Shape"></path>
                            </g>
                            <path d="M35.5172656,10.4014063 L32.0689844,10.4014063 C31.8785156,10.4014063 31.7241406,10.5557813 31.7241406,10.74625 C31.7241406,10.9367188 31.8785156,11.0910938 32.0689844,11.0910938 L35.5172656,11.0910938 C35.7077344,11.0910938 35.8621094,10.9367188 35.8621094,10.74625 C35.8621094,10.5557813 35.7076563,10.4014063 35.5172656,10.4014063 Z" id="Shape" fill="#BEC8DC"></path>
                            <path d="M30.6896875,10.4014063 L30,10.4014063 C29.8095312,10.4014063 29.6551562,10.5557813 29.6551562,10.74625 C29.6551562,10.9367188 29.8095312,11.0910938 30,11.0910938 L30.6896875,11.0910938 C30.8801562,11.0910938 31.0345312,10.9367188 31.0345312,10.74625 C31.0345312,10.5557813 30.8800781,10.4014063 30.6896875,10.4014063 Z" id="Shape" fill="#E4EAF6"></path>
                            <path d="M35.5172656,11.7807031 L32.0689844,11.7807031 C31.8785156,11.7807031 31.7241406,11.9350781 31.7241406,12.1255469 C31.7241406,12.3160156 31.8785156,12.4703906 32.0689844,12.4703906 L35.5172656,12.4703906 C35.7077344,12.4703906 35.8621094,12.3160156 35.8621094,12.1255469 C35.8621094,11.9350781 35.7076563,11.7807031 35.5172656,11.7807031 Z" id="Shape" fill="#BEC8DC"></path>
                            <g id="Group" transform="translate(29.609375, 11.718750)" fill="#E4EAF6">
                                <path d="M1.0803125,0.061953125 L0.390625,0.061953125 C0.20015625,0.061953125 0.04578125,0.216328125 0.04578125,0.406796875 C0.04578125,0.597265625 0.20015625,0.751640625 0.390625,0.751640625 L1.0803125,0.751640625 C1.27078125,0.751640625 1.42515625,0.597265625 1.42515625,0.406796875 C1.42515625,0.216328125 1.27070312,0.061953125 1.0803125,0.061953125 Z" id="Shape"></path>
                                <path d="M0.390625,4.19992188 L0.390625,4.19992188 C0.58109375,4.19992188 0.73546875,4.04554688 0.73546875,3.85507813 C0.73546875,3.66460938 0.58109375,3.51023438 0.390625,3.51023438 L0.390625,3.51023438 C0.20015625,3.51023438 0.04578125,3.66460938 0.04578125,3.85507813 C0.04578125,4.04546875 0.20015625,4.19992188 0.390625,4.19992188 Z" id="Shape"></path>
                                <path d="M0.390625,2.82054687 L0.390625,2.82054687 C0.58109375,2.82054687 0.73546875,2.66617187 0.73546875,2.47570312 C0.73546875,2.28523437 0.58109375,2.13085938 0.390625,2.13085938 L0.390625,2.13085938 C0.20015625,2.13085938 0.04578125,2.28523437 0.04578125,2.47570312 C0.04578125,2.66617187 0.20015625,2.82054687 0.390625,2.82054687 Z" id="Shape"></path>
                                <path d="M0.390625,6.95851563 L0.390625,6.95851563 C0.58109375,6.95851563 0.73546875,6.80414063 0.73546875,6.61367188 C0.73546875,6.42320313 0.58109375,6.26882813 0.390625,6.26882813 L0.390625,6.26882813 C0.20015625,6.26882813 0.04578125,6.42320313 0.04578125,6.61367188 C0.04578125,6.80414063 0.20015625,6.95851563 0.390625,6.95851563 Z" id="Shape"></path>
                                <path d="M0.390625,5.57921875 L0.390625,5.57921875 C0.58109375,5.57921875 0.73546875,5.42484375 0.73546875,5.234375 C0.73546875,5.04390625 0.58109375,4.88953125 0.390625,4.88953125 L0.390625,4.88953125 C0.20015625,4.88953125 0.04578125,5.04390625 0.04578125,5.234375 C0.04578125,5.42484375 0.20015625,5.57921875 0.390625,5.57921875 Z" id="Shape"></path>
                            </g>
                            <g id="Group" transform="translate(31.015625, 13.828125)" fill="#96A5B9">
                                <path d="M0.363671875,2.09054688 L0.363671875,2.09054688 C0.554140625,2.09054688 0.708515625,1.93617188 0.708515625,1.74570313 C0.708515625,1.55523438 0.554140625,1.40085938 0.363671875,1.40085938 L0.363671875,1.40085938 C0.173203125,1.40085938 0.018828125,1.55523438 0.018828125,1.74570313 C0.018828125,1.93609375 0.17328125,2.09054688 0.363671875,2.09054688 Z" id="Shape"></path>
                                <path d="M0.363671875,0.711171875 L0.363671875,0.711171875 C0.554140625,0.711171875 0.708515625,0.556796875 0.708515625,0.366328125 C0.708515625,0.175859375 0.554140625,0.021484375 0.363671875,0.021484375 L0.363671875,0.021484375 C0.173203125,0.021484375 0.018828125,0.175859375 0.018828125,0.366328125 C0.018828125,0.556796875 0.17328125,0.711171875 0.363671875,0.711171875 Z" id="Shape"></path>
                                <path d="M0.363671875,4.84914063 L0.363671875,4.84914063 C0.554140625,4.84914063 0.708515625,4.69476563 0.708515625,4.50429688 C0.708515625,4.31382813 0.554140625,4.15945313 0.363671875,4.15945313 L0.363671875,4.15945313 C0.173203125,4.15945313 0.018828125,4.31382813 0.018828125,4.50429688 C0.018828125,4.69476563 0.17328125,4.84914063 0.363671875,4.84914063 Z" id="Shape"></path>
                                <path d="M0.363671875,3.46984375 L0.363671875,3.46984375 C0.554140625,3.46984375 0.708515625,3.31546875 0.708515625,3.125 C0.708515625,2.93453125 0.554140625,2.78015625 0.363671875,2.78015625 L0.363671875,2.78015625 C0.173203125,2.78015625 0.018828125,2.93453125 0.018828125,3.125 C0.018828125,3.31546875 0.17328125,3.46984375 0.363671875,3.46984375 Z" id="Shape"></path>
                                <path d="M1.74296875,2.09054688 L4.5015625,2.09054688 C4.69203125,2.09054688 4.84640625,1.93617188 4.84640625,1.74570313 C4.84640625,1.55523438 4.69203125,1.40085938 4.5015625,1.40085938 L1.74296875,1.40085938 C1.5525,1.40085938 1.398125,1.55523438 1.398125,1.74570313 C1.39820312,1.93609375 1.55257812,2.09054688 1.74296875,2.09054688 Z" id="Shape"></path>
                                <path d="M1.74296875,0.711171875 L4.5015625,0.711171875 C4.69203125,0.711171875 4.84640625,0.556796875 4.84640625,0.366328125 C4.84640625,0.175859375 4.69203125,0.021484375 4.5015625,0.021484375 L1.74296875,0.021484375 C1.5525,0.021484375 1.398125,0.175859375 1.398125,0.366328125 C1.398125,0.556796875 1.55257812,0.711171875 1.74296875,0.711171875 Z" id="Shape"></path>
                                <path d="M1.74296875,4.84914063 L4.5015625,4.84914063 C4.69203125,4.84914063 4.84640625,4.69476563 4.84640625,4.50429688 C4.84640625,4.31382813 4.69203125,4.15945313 4.5015625,4.15945313 L1.74296875,4.15945313 C1.5525,4.15945313 1.398125,4.31382813 1.398125,4.50429688 C1.39820312,4.69476563 1.55257812,4.84914063 1.74296875,4.84914063 Z" id="Shape"></path>
                                <path d="M1.74296875,3.46984375 L4.5015625,3.46984375 C4.69203125,3.46984375 4.84640625,3.31546875 4.84640625,3.125 C4.84640625,2.93453125 4.69203125,2.78015625 4.5015625,2.78015625 L1.74296875,2.78015625 C1.5525,2.78015625 1.398125,2.93453125 1.398125,3.125 C1.39820312,3.31546875 1.55257812,3.46984375 1.74296875,3.46984375 Z" id="Shape"></path>
                            </g>
                            <path d="M35.1724219,5.91867187 C35.1724219,5.72820312 35.0180469,5.57382812 34.8275781,5.57382812 L34.1378906,5.57382812 C33.9474219,5.57382812 33.7930469,5.72820312 33.7930469,5.91867187 C33.7930469,6.10914062 33.9474219,6.26351562 34.1378906,6.26351562 L34.8275781,6.26351562 C35.0180469,6.2634375 35.1724219,6.1090625 35.1724219,5.91867187 Z" id="Shape" fill="#E4EAF6"></path>
                            <path d="M10.3447656,12.4703906 L15.5171875,12.4703906 L15.5171875,11.0910937 L11.034375,11.0910937 L11.034375,4.88421875 L17.24125,4.88421875 L17.24125,9.36695312 C17.431875,9.36695312 17.5860937,9.52117187 17.5860937,9.71179687 C17.5860937,9.90242187 17.431875,10.0566406 17.24125,10.0566406 L17.24125,11.0910937 L16.2067969,11.0910937 L16.2067969,12.4703906 L17.9309375,12.4703906 C17.9407812,12.4703906 17.9503125,12.469375 17.9600781,12.4689062 L17.9655469,12.0544531 C17.9686719,11.8167969 18.25,11.6933594 18.4270312,11.851875 L18.5864844,11.9946875 C18.6084375,11.9272656 18.6207031,11.8554687 18.6207031,11.7807031 L18.6207031,10.0565625 C18.4300781,10.0565625 18.2758594,9.90234375 18.2758594,9.71171875 C18.2758594,9.52109375 18.4300781,9.366875 18.6207031,9.366875 L18.6207031,4.19453125 C18.6207031,3.81335937 18.311875,3.50484375 17.9310156,3.50484375 L10.3448437,3.50484375 C9.96398437,3.50484375 9.65515625,3.81328125 9.65515625,4.19453125 L9.65515625,11.7807031 C9.65507812,12.1619531 9.96390625,12.4703906 10.3447656,12.4703906 Z" id="Shape" fill="#FF6469"></path>
                            <g id="Group" transform="translate(15.468750, 9.296875)" fill="#96A5B9">
                                <path d="M0.393203125,6.27695312 C0.583828125,6.27695312 0.738046875,6.12273437 0.738046875,5.93210937 L0.738046875,4.5528125 C0.738046875,4.3621875 0.583828125,4.20796875 0.393203125,4.20796875 C0.202578125,4.20796875 0.048359375,4.3621875 0.048359375,4.5528125 L0.048359375,5.93210937 C0.0484375,6.12273437 0.20265625,6.27695312 0.393203125,6.27695312 Z" id="Shape"></path>
                                <path d="M8.6690625,10.4148438 L10.0483594,10.4148438 C10.2389844,10.4148438 10.3932031,10.260625 10.3932031,10.07 C10.3932031,9.879375 10.2389844,9.72515625 10.0483594,9.72515625 L8.6690625,9.72515625 C8.4784375,9.72515625 8.32421875,9.879375 8.32421875,10.07 C8.32421875,10.260625 8.47851562,10.4148438 8.6690625,10.4148438 Z" id="Shape"></path>
                                <path d="M10.0484375,6.9665625 C9.8578125,6.9665625 9.70359375,7.12078125 9.70359375,7.31140625 L9.70359375,8.69070312 C9.70359375,8.88132812 9.8578125,9.03554687 10.0484375,9.03554687 C10.2390625,9.03554687 10.3932812,8.88132812 10.3932812,8.69070312 L10.3932812,7.31140625 C10.3932031,7.12078125 10.2389844,6.9665625 10.0484375,6.9665625 Z" id="Shape"></path>
                                <path d="M8.6690625,0.7596875 L10.0483594,0.7596875 C10.2389844,0.7596875 10.3932031,0.60546875 10.3932031,0.41484375 C10.3932031,0.22421875 10.2389844,0.07 10.0483594,0.07 L8.6690625,0.07 C8.4784375,0.07 8.32421875,0.22421875 8.32421875,0.41484375 C8.32429687,0.60546875 8.47851562,0.7596875 8.6690625,0.7596875 Z" id="Shape"></path>
                                <path d="M10.0484375,1.449375 C9.8578125,1.449375 9.70359375,1.60359375 9.70359375,1.79421875 L9.70359375,3.17351563 C9.70359375,3.36414063 9.8578125,3.51835938 10.0484375,3.51835938 C10.2390625,3.51835938 10.3932812,3.36414063 10.3932812,3.17351563 L10.3932812,1.79421875 C10.3932031,1.60359375 10.2389844,1.449375 10.0484375,1.449375 Z" id="Shape"></path>
                                <path d="M4.53117187,9.72523437 L3.151875,9.72523437 C2.96125,9.72523437 2.80703125,9.87945312 2.80703125,10.0700781 C2.80703125,10.2607031 2.96125,10.4149219 3.151875,10.4149219 L4.53117187,10.4149219 C4.72179687,10.4149219 4.87601562,10.2607031 4.87601562,10.0700781 C4.87601562,9.87945312 4.72179687,9.72523437 4.53117187,9.72523437 Z" id="Shape"></path>
                                <path d="M0.393203125,1.449375 C0.202578125,1.449375 0.048359375,1.60359375 0.048359375,1.79421875 L0.048359375,3.17351563 C0.048359375,3.36414063 0.202578125,3.51835938 0.393203125,3.51835938 C0.583828125,3.51835938 0.738046875,3.36414063 0.738046875,3.17351563 L0.738046875,1.79421875 C0.738046875,1.60359375 0.583828125,1.449375 0.393203125,1.449375 Z" id="Shape"></path>
                                <path d="M1.77257813,9.72523437 L0.39328125,9.72523437 C0.20265625,9.72523437 0.0484375,9.87945312 0.0484375,10.0700781 C0.0484375,10.2607031 0.20265625,10.4149219 0.39328125,10.4149219 L1.77257813,10.4149219 C1.96320313,10.4149219 2.11742188,10.2607031 2.11742188,10.0700781 C2.11742188,9.87945312 1.963125,9.72523437 1.77257813,9.72523437 Z" id="Shape"></path>
                                <path d="M0.0484375,8.69070312 C0.0484375,8.88132812 0.20265625,9.03554687 0.39328125,9.03554687 C0.58390625,9.03554687 0.738125,8.88132812 0.738125,8.69070312 L0.738125,7.31140625 C0.738125,7.12078125 0.58390625,6.9665625 0.39328125,6.9665625 C0.20265625,6.9665625 0.0484375,7.12078125 0.0484375,7.31140625 L0.0484375,8.69070312 Z" id="Shape"></path>
                                <path d="M10.0484375,4.20796875 C9.8578125,4.20796875 9.70359375,4.3621875 9.70359375,4.5528125 L9.70359375,5.93210937 C9.70359375,6.12273437 9.8578125,6.27695312 10.0484375,6.27695312 C10.2390625,6.27695312 10.3932812,6.12273437 10.3932812,5.93210937 L10.3932812,4.5528125 C10.3932031,4.3621875 10.2389844,4.20796875 10.0484375,4.20796875 Z" id="Shape"></path>
                                <path d="M5.91046875,0.7596875 L7.28976562,0.7596875 C7.48039062,0.7596875 7.63460937,0.60546875 7.63460937,0.41484375 C7.63460937,0.22421875 7.48039062,0.07 7.28976562,0.07 L5.91046875,0.07 C5.71984375,0.07 5.565625,0.22421875 5.565625,0.41484375 C5.565625,0.60546875 5.71984375,0.7596875 5.91046875,0.7596875 Z" id="Shape"></path>
                                <path d="M0.0484375,0.41484375 C0.0484375,0.60546875 0.20265625,0.7596875 0.39328125,0.7596875 L1.77257813,0.7596875 C1.96320313,0.7596875 2.11742188,0.60546875 2.11742188,0.41484375 C2.11742188,0.22421875 1.96320313,0.07 1.77257813,0.07 L0.39328125,0.07 C0.20265625,0.070078125 0.0484375,0.224296875 0.0484375,0.41484375 Z" id="Shape"></path>
                                <path d="M5.91046875,10.4148438 L7.28976562,10.4148438 C7.48039062,10.4148438 7.63460937,10.260625 7.63460937,10.07 C7.63460937,9.879375 7.48039062,9.72515625 7.28976562,9.72515625 L5.91046875,9.72515625 C5.71984375,9.72515625 5.565625,9.879375 5.565625,10.07 C5.565625,10.260625 5.71984375,10.4148438 5.91046875,10.4148438 Z" id="Shape"></path>
                                <path d="M2.80703125,0.41484375 C2.80703125,0.60546875 2.96125,0.7596875 3.151875,0.7596875 L4.53117187,0.7596875 C4.72179687,0.7596875 4.87601562,0.60546875 4.87601562,0.41484375 C4.87601562,0.22421875 4.72179687,0.07 4.53117187,0.07 L3.151875,0.07 C2.96125,0.070078125 2.80703125,0.224296875 2.80703125,0.41484375 Z" id="Shape"></path>
                            </g>
                            <path d="M17.9654687,12.0544531 L17.96,12.4689062 L17.9310156,14.698125 C17.9284375,14.8994531 18.1346875,15.0361719 18.3190625,14.9551562 L19.0050781,14.6540625 L19.6176562,16.0492969 C19.6745312,16.1785937 19.8008594,16.2553906 19.9338281,16.2553906 C19.9799219,16.2553906 20.0271094,16.2460156 20.0721875,16.2264062 C20.2463281,16.1496094 20.3257031,15.94625 20.249375,15.771875 L19.636875,14.3767969 L20.3226562,14.0757812 C20.5069531,13.9948437 20.5460156,13.7505469 20.3960937,13.6160937 L18.5863281,11.9946875 L18.426875,11.851875 C18.2499219,11.6932812 17.9685156,11.8167969 17.9654687,12.0544531 Z" id="Shape" fill="#464655"></path>
                        </g>
                    </g>
                </g>
            </g>
        </g>
    </g>
</svg>