<?xml version="1.0" encoding="UTF-8"?>
<svg width="40px" height="31px" viewBox="0 0 40 31" version="1.1" xmlns="http://www.w3.org/2000/svg" xmlns:xlink="http://www.w3.org/1999/xlink">
    <!-- Generator: Sketch 41.2 (35397) - http://www.bohemiancoding.com/sketch -->
    <title>ui/ux</title>
    <desc>Created with Sketch.</desc>
    <defs></defs>
    <g id="Page-1" stroke="none" stroke-width="1" fill="none" fill-rule="evenodd">
        <g id="gravity" transform="translate(-735.000000, -3836.000000)">
            <g id="6" transform="translate(0.000000, 3536.000000)">
                <g id="UI/UX" transform="translate(411.000000, 296.000000)">
                    <g id="ui/ux" transform="translate(324.000000, 4.000000)">
                        <g id="Layer_1">
                            <path d="M37.9310156,0.061953125 L2.06898437,0.061953125 C0.926328125,0.061953125 0,0.98828125 0,2.1309375 L0,28.3378125 C0,29.4804687 0.926328125,30.4067969 2.06898437,30.4067969 L37.9310156,30.4067969 C39.0736719,30.4067969 40,29.4804687 40,28.3378125 L40,2.1309375 C40,0.98828125 39.0736719,0.061953125 37.9310156,0.061953125 Z M34.4827344,1.44125 L35.1724219,1.44125 C35.5532813,1.44125 35.8621094,1.75007812 35.8621094,2.1309375 C35.8621094,2.51179687 35.5532813,2.820625 35.1724219,2.820625 L34.4827344,2.820625 C34.101875,2.820625 33.7930469,2.51179687 33.7930469,2.1309375 C33.793125,1.75007812 34.101875,1.44125 34.4827344,1.44125 Z M15.1724219,1.44125 L31.7241406,1.44125 C32.105,1.44125 32.4138281,1.75007812 32.4138281,2.1309375 C32.4138281,2.51179687 32.105,2.820625 31.7241406,2.820625 L15.1724219,2.820625 C14.7915625,2.820625 14.4827344,2.51179687 14.4827344,2.1309375 C14.4827344,1.75007812 14.7915625,1.44125 15.1724219,1.44125 Z M11.7241406,1.44125 L12.4138281,1.44125 C12.7946875,1.44125 13.1035156,1.75007812 13.1035156,2.1309375 C13.1035156,2.51179687 12.7946875,2.820625 12.4138281,2.820625 L11.7241406,2.820625 C11.3432813,2.820625 11.0344531,2.51179687 11.0344531,2.1309375 C11.0344531,1.75007812 11.3432813,1.44125 11.7241406,1.44125 Z M8.96554687,1.44125 L9.65523437,1.44125 C10.0360937,1.44125 10.3449219,1.75007812 10.3449219,2.1309375 C10.3449219,2.51179687 10.0360937,2.820625 9.65523437,2.820625 L8.96554687,2.820625 C8.5846875,2.820625 8.27585937,2.51179687 8.27585937,2.1309375 C8.27585937,1.75007812 8.5846875,1.44125 8.96554687,1.44125 Z M6.206875,1.44125 C6.58773437,1.44125 6.8965625,1.75007812 6.8965625,2.1309375 C6.8965625,2.51179687 6.58773437,2.820625 6.206875,2.820625 C5.82601562,2.820625 5.5171875,2.51179687 5.5171875,2.1309375 C5.51726562,1.75007812 5.82601562,1.44125 6.206875,1.44125 Z M4.13796875,1.44125 C4.51882813,1.44125 4.82765625,1.75007812 4.82765625,2.1309375 C4.82765625,2.51179687 4.51882813,2.820625 4.13796875,2.820625 C3.75710938,2.820625 3.44828125,2.51179687 3.44828125,2.1309375 C3.44828125,1.75007812 3.75703125,1.44125 4.13796875,1.44125 Z M2.06898438,1.44125 C2.44984375,1.44125 2.75867188,1.75007812 2.75867188,2.1309375 C2.75867188,2.51179687 2.44984375,2.820625 2.06898438,2.820625 C1.688125,2.820625 1.37929688,2.51179687 1.37929688,2.1309375 C1.37929688,1.75007812 1.688125,1.44125 2.06898438,1.44125 Z M38.6207031,8.3378125 L38.6207031,28.3378125 C38.6207031,28.7186719 38.311875,29.0275 37.9310156,29.0275 L20,29.0275 L2.06898438,29.0275 C1.688125,29.0275 1.37929688,28.7186719 1.37929688,28.3378125 L1.37929688,8.3378125 L1.37929688,4.88953125 C1.37929688,4.50867188 1.688125,4.19984375 2.06898438,4.19984375 L20,4.19984375 L37.9310156,4.19984375 C38.311875,4.19984375 38.6207031,4.50867188 38.6207031,4.88953125 L38.6207031,8.3378125 L38.6207031,8.3378125 Z M37.9310156,2.82054687 L37.2413281,2.82054687 C36.8604688,2.82054687 36.5516406,2.51171875 36.5516406,2.13085937 C36.5516406,1.75 36.8604688,1.44117187 37.2413281,1.44117187 L37.9310156,1.44117187 C38.311875,1.44117187 38.6207031,1.75 38.6207031,2.13085937 C38.6207031,2.51179687 38.311875,2.82054687 37.9310156,2.82054687 Z" id="Shape" fill="#D2DCF0"></path>
                            <path d="M20,29.0275 L37.9310156,29.0275 C38.311875,29.0275 38.6207031,28.7186719 38.6207031,28.3378125 L38.6207031,8.3378125 L20,8.3378125 L20,29.0275 Z M30.3448437,11.7860937 L30.3448437,11.0964062 C30.3448437,10.7155469 30.6536719,10.4067187 31.0345312,10.4067187 L35.8621094,10.4067187 C36.2429687,10.4067187 36.5517969,10.7155469 36.5517969,11.0964062 L36.5517969,11.7860937 L36.5517969,17.3033594 C36.5517969,17.6842187 36.2429687,17.9930469 35.8621094,17.9930469 L31.0345312,17.9930469 C30.6536719,17.9930469 30.3448437,17.6842187 30.3448437,17.3033594 L30.3448437,11.7860937 Z M22.0689844,11.7860937 L22.0689844,11.0964062 C22.0689844,10.7155469 22.3778125,10.4067187 22.7586719,10.4067187 L27.58625,10.4067187 C27.9671094,10.4067187 28.2759375,10.7155469 28.2759375,11.0964062 L28.2759375,11.7860937 L28.2759375,17.3033594 C28.2759375,17.6842187 27.9671094,17.9930469 27.58625,17.9930469 L22.7585938,17.9930469 C22.3777344,17.9930469 22.0689063,17.6842187 22.0689063,17.3033594 L22.0689063,11.7860937 L22.0689844,11.7860937 Z M22.7585938,20.0619531 L23.4482813,20.0619531 L35.8621094,20.0619531 C36.2429688,20.0619531 36.5517969,20.3707812 36.5517969,20.7516406 L36.5517969,26.2689062 C36.5517969,26.6497656 36.2429688,26.9585937 35.8621094,26.9585937 L23.4482813,26.9585937 L22.7585938,26.9585937 C22.3777344,26.9585937 22.0689063,26.6497656 22.0689063,26.2689062 L22.0689063,20.7516406 C22.0689844,20.3707812 22.3777344,20.0619531 22.7585938,20.0619531 Z" id="Shape" fill="#FFFFFF"></path>
                            <ellipse id="Oval" fill="#FF6469" cx="2.06898438" cy="2.1309375" rx="0.6896875" ry="0.6896875"></ellipse>
                            <ellipse id="Oval" fill="#FFE169" cx="4.13796875" cy="2.1309375" rx="0.6896875" ry="0.6896875"></ellipse>
                            <ellipse id="Oval" fill="#87E1AA" cx="6.206875" cy="2.1309375" rx="0.6896875" ry="0.6896875"></ellipse>
                            <g id="Group" transform="translate(8.203125, 1.406250)" fill="#E4EAF6">
                                <path d="M0.762421875,1.41429687 L1.45210937,1.41429687 C1.83296875,1.41429687 2.14179687,1.10546875 2.14179687,0.724609375 C2.14179687,0.34375 1.83296875,0.034921875 1.45210937,0.034921875 L0.762421875,0.034921875 C0.3815625,0.034921875 0.072734375,0.34375 0.072734375,0.724609375 C0.072734375,1.10554687 0.3815625,1.41429687 0.762421875,1.41429687 Z" id="Shape"></path>
                                <path d="M3.52101563,1.41429687 L4.21070313,1.41429687 C4.5915625,1.41429687 4.90039063,1.10546875 4.90039063,0.724609375 C4.90039063,0.34375 4.5915625,0.034921875 4.21070313,0.034921875 L3.52101563,0.034921875 C3.14015625,0.034921875 2.83132813,0.34375 2.83132813,0.724609375 C2.83132813,1.10554687 3.14015625,1.41429687 3.52101563,1.41429687 Z" id="Shape"></path>
                                <path d="M26.2796094,1.41429687 L26.9692969,1.41429687 C27.3501563,1.41429687 27.6589844,1.10546875 27.6589844,0.724609375 C27.6589844,0.34375 27.3501563,0.034921875 26.9692969,0.034921875 L26.2796094,0.034921875 C25.89875,0.034921875 25.5899219,0.34375 25.5899219,0.724609375 C25.59,1.10554687 25.89875,1.41429687 26.2796094,1.41429687 Z" id="Shape"></path>
                                <path d="M29.7278906,0.035 L29.0382031,0.035 C28.6573438,0.035 28.3485156,0.343828125 28.3485156,0.7246875 C28.3485156,1.10554687 28.6573438,1.414375 29.0382031,1.414375 L29.7278906,1.414375 C30.10875,1.414375 30.4175781,1.10554687 30.4175781,0.7246875 C30.4175781,0.343828125 30.10875,0.035 29.7278906,0.035 Z" id="Shape"></path>
                                <path d="M6.96929688,1.41429687 L23.5210156,1.41429687 C23.901875,1.41429687 24.2107031,1.10546875 24.2107031,0.724609375 C24.2107031,0.34375 23.901875,0.034921875 23.5210156,0.034921875 L6.96929688,0.034921875 C6.5884375,0.034921875 6.27960938,0.34375 6.27960938,0.724609375 C6.27960938,1.10554687 6.5884375,1.41429687 6.96929688,1.41429687 Z" id="Shape"></path>
                            </g>
                            <path d="M37.9310156,4.19992187 L20,4.19992187 L20,8.33789062 L38.6207031,8.33789062 L38.6207031,4.88960937 C38.6207031,4.50867187 38.311875,4.19992187 37.9310156,4.19992187 Z M24.8275781,6.95851562 L22.0689844,6.95851562 C21.688125,6.95851562 21.3792969,6.6496875 21.3792969,6.26882812 C21.3792969,5.88796875 21.688125,5.57914062 22.0689844,5.57914062 L24.8275781,5.57914062 C25.2084375,5.57914062 25.5172656,5.88796875 25.5172656,6.26882812 C25.5172656,6.6496875 25.2084375,6.95851562 24.8275781,6.95851562 Z M30.3448438,6.95851562 L27.58625,6.95851562 C27.2053906,6.95851562 26.8965625,6.6496875 26.8965625,6.26882812 C26.8965625,5.88796875 27.2053906,5.57914062 27.58625,5.57914062 L30.3448438,5.57914062 C30.7257031,5.57914062 31.0345313,5.88796875 31.0345313,6.26882812 C31.0345313,6.6496875 30.7257031,6.95851562 30.3448438,6.95851562 Z M35.8620312,6.95851562 L33.1034375,6.95851562 C32.7225781,6.95851562 32.41375,6.6496875 32.41375,6.26882812 C32.41375,5.88796875 32.7225781,5.57914062 33.1034375,5.57914062 L35.8620312,5.57914062 C36.2428906,5.57914062 36.5517187,5.88796875 36.5517187,6.26882812 C36.5517187,6.6496875 36.2429687,6.95851562 35.8620312,6.95851562 Z" id="Shape" fill="#FF6469"></path>
                            <g id="Group" transform="translate(21.328125, 5.546875)" fill="#D2555F">
                                <path d="M3.49945313,0.03234375 L0.740859375,0.03234375 C0.36,0.03234375 0.051171875,0.341171875 0.051171875,0.72203125 C0.051171875,1.10289063 0.36,1.41171875 0.740859375,1.41171875 L3.49945313,1.41171875 C3.8803125,1.41171875 4.18914063,1.10289063 4.18914063,0.72203125 C4.18914063,0.341171875 3.8803125,0.03234375 3.49945313,0.03234375 Z" id="Shape"></path>
                                <path d="M9.01671875,0.03234375 L6.258125,0.03234375 C5.87726563,0.03234375 5.5684375,0.341171875 5.5684375,0.72203125 C5.5684375,1.10289063 5.87726563,1.41171875 6.258125,1.41171875 L9.01671875,1.41171875 C9.39757813,1.41171875 9.70640625,1.10289063 9.70640625,0.72203125 C9.70640625,0.341171875 9.39757813,0.03234375 9.01671875,0.03234375 Z" id="Shape"></path>
                                <path d="M14.5339062,0.03234375 L11.7753125,0.03234375 C11.3944531,0.03234375 11.085625,0.341171875 11.085625,0.72203125 C11.085625,1.10289063 11.3944531,1.41171875 11.7753125,1.41171875 L14.5339062,1.41171875 C14.9147656,1.41171875 15.2235937,1.10289063 15.2235937,0.72203125 C15.2235937,0.341171875 14.9148437,0.03234375 14.5339062,0.03234375 Z" id="Shape"></path>
                            </g>
                            <g id="Group" transform="translate(22.031250, 11.718750)" fill="#DEE3ED">
                                <path d="M0.72734375,6.27421875 L5.55492188,6.27421875 C5.93578125,6.27421875 6.24460938,5.96539062 6.24460938,5.58453125 L6.24460938,0.067265625 C6.24460938,0.448125 5.93578125,0.756953125 5.55492188,0.756953125 L0.72734375,0.756953125 C0.346484375,0.756953125 0.03765625,0.448125 0.03765625,0.067265625 L0.03765625,5.58453125 C0.037734375,5.96546875 0.346484375,6.27421875 0.72734375,6.27421875 Z" id="Shape"></path>
                                <path d="M9.00320313,6.27421875 L13.8307813,6.27421875 C14.2116406,6.27421875 14.5204688,5.96539062 14.5204688,5.58453125 L14.5204688,0.067265625 C14.5204688,0.448125 14.2116406,0.756953125 13.8307813,0.756953125 L9.00320313,0.756953125 C8.62234375,0.756953125 8.31351563,0.448125 8.31351563,0.067265625 L8.31351563,5.58453125 C8.31359375,5.96546875 8.62234375,6.27421875 9.00320313,6.27421875 Z" id="Shape"></path>
                            </g>
                            <path d="M22.7585938,12.4757812 L27.5861719,12.4757812 C27.9670313,12.4757812 28.2758594,12.1669531 28.2758594,11.7860937 L28.2758594,11.0964062 C28.2758594,10.7155469 27.9670313,10.4067187 27.5861719,10.4067187 L22.7585938,10.4067187 C22.3777344,10.4067187 22.0689063,10.7155469 22.0689063,11.0964062 L22.0689063,11.7860937 C22.0689844,12.1669531 22.3777344,12.4757812 22.7585938,12.4757812 Z" id="Shape" fill="#FF969B"></path>
                            <path d="M31.0344531,12.4757812 L35.8620313,12.4757812 C36.2428906,12.4757812 36.5517188,12.1669531 36.5517188,11.7860937 L36.5517188,11.0964062 C36.5517188,10.7155469 36.2428906,10.4067187 35.8620313,10.4067187 L31.0344531,10.4067187 C30.6535938,10.4067187 30.3447656,10.7155469 30.3447656,11.0964062 L30.3447656,11.7860937 C30.3448438,12.1669531 30.6535938,12.4757812 31.0344531,12.4757812 Z" id="Shape" fill="#A0DCF0"></path>
                            <path d="M24.1379688,20.7516406 L24.1379688,26.2689062 C24.1379688,26.6497656 23.8291406,26.9585937 23.4482813,26.9585937 L35.8621094,26.9585937 C36.2429688,26.9585937 36.5517969,26.6497656 36.5517969,26.2689062 L36.5517969,20.7516406 C36.5517969,20.3707812 36.2429688,20.0619531 35.8621094,20.0619531 L23.4482813,20.0619531 C23.8291406,20.0619531 24.1379688,20.3707812 24.1379688,20.7516406 Z" id="Shape" fill="#DEE3ED"></path>
                            <path d="M22.7585938,26.9585156 L23.4482813,26.9585156 C23.8291406,26.9585156 24.1379688,26.6496875 24.1379688,26.2688281 L24.1379688,20.7515625 C24.1379688,20.3707031 23.8291406,20.061875 23.4482813,20.061875 L22.7585938,20.061875 C22.3777344,20.061875 22.0689063,20.3707031 22.0689063,20.7515625 L22.0689063,26.2688281 C22.0689844,26.6496875 22.3777344,26.9585156 22.7585938,26.9585156 Z" id="Shape" fill="#91E6BE"></path>
                            <path d="M20,4.19992187 L2.06898438,4.19992187 C1.688125,4.19992187 1.37929688,4.50875 1.37929688,4.88960937 L1.37929688,8.33789062 L1.37929688,28.3378906 C1.37929688,28.71875 1.688125,29.0275781 2.06898438,29.0275781 L20,29.0275781 L20,8.3378125 L20,4.19992187 Z M6.8965625,6.26882812 L17.9310156,6.26882812 C18.311875,6.26882812 18.6207031,6.57765625 18.6207031,6.95851562 C18.6207031,7.339375 18.311875,7.64820312 17.9310156,7.64820312 L6.8965625,7.64820312 C6.51570313,7.64820312 6.206875,7.339375 6.206875,6.95851562 C6.206875,6.57765625 6.51570313,6.26882812 6.8965625,6.26882812 Z M3.44828125,6.26882812 L4.13796875,6.26882812 C4.51882813,6.26882812 4.82765625,6.57765625 4.82765625,6.95851562 C4.82765625,7.339375 4.51882813,7.64820312 4.13796875,7.64820312 L3.44828125,7.64820312 C3.06742188,7.64820312 2.75859375,7.339375 2.75859375,6.95851562 C2.75859375,6.57765625 3.06742188,6.26882812 3.44828125,6.26882812 Z M10.3448437,10.4067969 L8.27585937,10.4067969 C7.895,10.4067969 7.58617187,10.0979687 7.58617187,9.71710937 C7.58617187,9.33625 7.895,9.02742187 8.27585937,9.02742187 L10.3448437,9.02742187 C10.7257031,9.02742187 11.0345312,9.33625 11.0345312,9.71710937 C11.0344531,10.0979687 10.7257031,10.4067969 10.3448437,10.4067969 Z M11.0344531,12.4757812 C11.0344531,12.8566406 10.725625,13.1654687 10.3447656,13.1654687 L8.27578125,13.1654687 C7.89492188,13.1654687 7.58609375,12.8566406 7.58609375,12.4757812 C7.58609375,12.0949219 7.89492188,11.7860937 8.27578125,11.7860937 L10.3447656,11.7860937 C10.7257031,11.7860937 11.0344531,12.0949219 11.0344531,12.4757812 Z M3.44828125,17.3033594 L4.13796875,17.3033594 C4.51882813,17.3033594 4.82765625,17.6121875 4.82765625,17.9930469 C4.82765625,18.3739062 4.51882813,18.6827344 4.13796875,18.6827344 L3.44828125,18.6827344 C3.06742188,18.6827344 2.75859375,18.3739062 2.75859375,17.9930469 C2.75859375,17.6121875 3.06742188,17.3033594 3.44828125,17.3033594 Z M2.75859375,15.234375 C2.75859375,14.8535156 3.06742188,14.5446875 3.44828125,14.5446875 L4.13796875,14.5446875 C4.51882813,14.5446875 4.82765625,14.8535156 4.82765625,15.234375 C4.82765625,15.6152344 4.51882813,15.9240625 4.13796875,15.9240625 L3.44828125,15.9240625 C3.06742188,15.9240625 2.75859375,15.6152344 2.75859375,15.234375 Z M4.82757812,20.0619531 L5.51726562,20.0619531 C5.898125,20.0619531 6.20695312,20.3707812 6.20695312,20.7516406 C6.20695312,21.1325 5.898125,21.4413281 5.51726562,21.4413281 L4.82757812,21.4413281 C4.44671875,21.4413281 4.13789062,21.1325 4.13789062,20.7516406 C4.13789062,20.3707812 4.44671875,20.0619531 4.82757812,20.0619531 Z M5.51726562,13.1653906 L4.82757812,13.1653906 C4.44671875,13.1653906 4.13789062,12.8565625 4.13789062,12.4757031 C4.13789062,12.0948437 4.44671875,11.7860156 4.82757812,11.7860156 L5.51726562,11.7860156 C5.898125,11.7860156 6.20695312,12.0948437 6.20695312,12.4757031 C6.20695312,12.8565625 5.898125,13.1653906 5.51726562,13.1653906 Z M5.51726562,10.4067969 L4.82757812,10.4067969 C4.44671875,10.4067969 4.13789062,10.0979687 4.13789062,9.71710937 C4.13789062,9.33625 4.44671875,9.02742187 4.82757812,9.02742187 L5.51726562,9.02742187 C5.898125,9.02742187 6.20695312,9.33625 6.20695312,9.71710937 C6.206875,10.0979687 5.898125,10.4067969 5.51726562,10.4067969 Z M4.13796875,26.9585156 L3.44828125,26.9585156 C3.06742188,26.9585156 2.75859375,26.6496875 2.75859375,26.2688281 C2.75859375,25.8879687 3.06742188,25.5791406 3.44828125,25.5791406 L4.13796875,25.5791406 C4.51882813,25.5791406 4.82765625,25.8879687 4.82765625,26.2688281 C4.82757813,26.6496875 4.51882813,26.9585156 4.13796875,26.9585156 Z M5.51726562,24.1999219 L4.82757812,24.1999219 C4.44671875,24.1999219 4.13789062,23.8910937 4.13789062,23.5102344 C4.13789062,23.129375 4.44671875,22.8205469 4.82757812,22.8205469 L5.51726562,22.8205469 C5.898125,22.8205469 6.20695312,23.129375 6.20695312,23.5102344 C6.20695312,23.8910937 5.898125,24.1999219 5.51726562,24.1999219 Z M17.9310156,26.9585156 L6.8965625,26.9585156 C6.51570313,26.9585156 6.206875,26.6496875 6.206875,26.2688281 C6.206875,25.8879687 6.51570313,25.5791406 6.8965625,25.5791406 L17.9310156,25.5791406 C18.311875,25.5791406 18.6207031,25.8879687 18.6207031,26.2688281 C18.6207031,26.6496875 18.311875,26.9585156 17.9310156,26.9585156 Z M8.27585937,22.8205469 L10.3448437,22.8205469 C10.7257031,22.8205469 11.0345312,23.129375 11.0345312,23.5102344 C11.0345312,23.8910937 10.7257031,24.1999219 10.3448437,24.1999219 L8.27585937,24.1999219 C7.895,24.1999219 7.58617187,23.8910937 7.58617187,23.5102344 C7.58617187,23.129375 7.895,22.8205469 8.27585937,22.8205469 Z M7.58617187,20.7516406 C7.58617187,20.3707812 7.895,20.0619531 8.27585937,20.0619531 L10.3448437,20.0619531 C10.7257031,20.0619531 11.0345312,20.3707812 11.0345312,20.7516406 C11.0345312,21.1325 10.7257031,21.4413281 10.3448437,21.4413281 L8.27585937,21.4413281 C7.895,21.44125 7.58617187,21.1325 7.58617187,20.7516406 Z M17.9310156,24.1999219 L13.1034375,24.1999219 C12.7225781,24.1999219 12.41375,23.8910937 12.41375,23.5102344 C12.41375,23.129375 12.7225781,22.8205469 13.1034375,22.8205469 L17.9310156,22.8205469 C18.311875,22.8205469 18.6207031,23.129375 18.6207031,23.5102344 C18.6207031,23.8910937 18.311875,24.1999219 17.9310156,24.1999219 Z M17.9310156,21.44125 L13.1034375,21.44125 C12.7225781,21.44125 12.41375,21.1324219 12.41375,20.7515625 C12.41375,20.3707031 12.7225781,20.061875 13.1034375,20.061875 L17.9310156,20.061875 C18.311875,20.061875 18.6207031,20.3707031 18.6207031,20.7515625 C18.6207031,21.1324219 18.311875,21.44125 17.9310156,21.44125 Z M17.9310156,18.6826562 L6.8965625,18.6826562 C6.51570313,18.6826562 6.206875,18.3738281 6.206875,17.9929687 C6.206875,17.6121094 6.51570313,17.3032812 6.8965625,17.3032812 L17.9310156,17.3032812 C18.311875,17.3032812 18.6207031,17.6121094 18.6207031,17.9929687 C18.6207031,18.3738281 18.311875,18.6826562 17.9310156,18.6826562 Z M17.9310156,15.9240625 L6.8965625,15.9240625 C6.51570313,15.9240625 6.206875,15.6152344 6.206875,15.234375 C6.206875,14.8535156 6.51570313,14.5446875 6.8965625,14.5446875 L17.9310156,14.5446875 C18.311875,14.5446875 18.6207031,14.8535156 18.6207031,15.234375 C18.6207031,15.6152344 18.311875,15.9240625 17.9310156,15.9240625 Z M17.9310156,13.1653906 L13.1034375,13.1653906 C12.7225781,13.1653906 12.41375,12.8565625 12.41375,12.4757031 C12.41375,12.0948437 12.7225781,11.7860156 13.1034375,11.7860156 L17.9310156,11.7860156 C18.311875,11.7860156 18.6207031,12.0948437 18.6207031,12.4757031 C18.6207031,12.8565625 18.311875,13.1653906 17.9310156,13.1653906 Z M17.9310156,10.4067969 L13.1034375,10.4067969 C12.7225781,10.4067969 12.41375,10.0979687 12.41375,9.71710937 C12.41375,9.33625 12.7225781,9.02742187 13.1034375,9.02742187 L17.9310156,9.02742187 C18.311875,9.02742187 18.6207031,9.33625 18.6207031,9.71710937 C18.6207031,10.0979687 18.311875,10.4067969 17.9310156,10.4067969 Z" id="Shape" fill="#464655"></path>
                            <path d="M6.8965625,7.64820313 L17.9310156,7.64820313 C18.311875,7.64820313 18.6207031,7.339375 18.6207031,6.95851563 C18.6207031,6.57765625 18.311875,6.26882813 17.9310156,6.26882813 L6.8965625,6.26882813 C6.51570313,6.26882813 6.206875,6.57765625 6.206875,6.95851563 C6.206875,7.339375 6.51570313,7.64820313 6.8965625,7.64820313 Z" id="Shape" fill="#FFE169"></path>
                            <g id="Group" transform="translate(7.578125, 8.984375)" fill="#91E6BE">
                                <path d="M2.76671875,0.043125 L0.697734375,0.043125 C0.316875,0.043125 0.008046875,0.351953125 0.008046875,0.7328125 C0.008046875,1.11367188 0.316875,1.4225 0.697734375,1.4225 L2.76671875,1.4225 C3.14757812,1.4225 3.45640625,1.11367188 3.45640625,0.7328125 C3.45632812,0.351875 3.14757812,0.043125 2.76671875,0.043125 Z" id="Shape"></path>
                                <path d="M2.76671875,2.80171875 L0.697734375,2.80171875 C0.316875,2.80171875 0.008046875,3.11054687 0.008046875,3.49140625 C0.008046875,3.87226562 0.316875,4.18109375 0.697734375,4.18109375 L2.76671875,4.18109375 C3.14757812,4.18109375 3.45640625,3.87226562 3.45640625,3.49140625 C3.45640625,3.11054687 3.14757812,2.80171875 2.76671875,2.80171875 Z" id="Shape"></path>
                            </g>
                            <path d="M17.9310156,14.5446875 L6.8965625,14.5446875 C6.51570313,14.5446875 6.206875,14.8535156 6.206875,15.234375 C6.206875,15.6152344 6.51570313,15.9240625 6.8965625,15.9240625 L17.9310156,15.9240625 C18.311875,15.9240625 18.6207031,15.6152344 18.6207031,15.234375 C18.6207031,14.8535156 18.311875,14.5446875 17.9310156,14.5446875 Z" id="Shape" fill="#FFE169"></path>
                            <g id="Group" transform="translate(6.171875, 8.984375)" fill="#FFFFFF">
                                <path d="M11.7591406,8.31898438 L0.7246875,8.31898438 C0.343828125,8.31898438 0.035,8.6278125 0.035,9.00867188 C0.035,9.38953125 0.343828125,9.69835938 0.7246875,9.69835938 L11.7591406,9.69835938 C12.14,9.69835938 12.4488281,9.38953125 12.4488281,9.00867188 C12.4488281,8.6278125 12.14,8.31898438 11.7591406,8.31898438 Z" id="Shape"></path>
                                <path d="M11.7591406,0.043125 L6.9315625,0.043125 C6.55070312,0.043125 6.241875,0.351953125 6.241875,0.7328125 C6.241875,1.11367188 6.55070312,1.4225 6.9315625,1.4225 L11.7591406,1.4225 C12.14,1.4225 12.4488281,1.11367188 12.4488281,0.7328125 C12.4488281,0.351875 12.14,0.043125 11.7591406,0.043125 Z" id="Shape"></path>
                                <path d="M11.7591406,2.80171875 L6.9315625,2.80171875 C6.55070312,2.80171875 6.241875,3.11054687 6.241875,3.49140625 C6.241875,3.87226562 6.55070312,4.18109375 6.9315625,4.18109375 L11.7591406,4.18109375 C12.14,4.18109375 12.4488281,3.87226562 12.4488281,3.49140625 C12.4488281,3.11054687 12.14,2.80171875 11.7591406,2.80171875 Z" id="Shape"></path>
                                <path d="M11.7591406,11.0775781 L6.9315625,11.0775781 C6.55070312,11.0775781 6.241875,11.3864062 6.241875,11.7672656 C6.241875,12.148125 6.55070312,12.4569531 6.9315625,12.4569531 L11.7591406,12.4569531 C12.14,12.4569531 12.4488281,12.148125 12.4488281,11.7672656 C12.4488281,11.3864062 12.14,11.0775781 11.7591406,11.0775781 Z" id="Shape"></path>
                                <path d="M11.7591406,13.8361719 L6.9315625,13.8361719 C6.55070312,13.8361719 6.241875,14.145 6.241875,14.5258594 C6.241875,14.9067188 6.55070312,15.2155469 6.9315625,15.2155469 L11.7591406,15.2155469 C12.14,15.2155469 12.4488281,14.9067188 12.4488281,14.5258594 C12.4488281,14.145 12.14,13.8361719 11.7591406,13.8361719 Z" id="Shape"></path>
                            </g>
                            <g id="Group" transform="translate(7.578125, 20.000000)" fill="#91E6BE">
                                <path d="M0.697734375,1.44125 L2.76671875,1.44125 C3.14757812,1.44125 3.45640625,1.13242187 3.45640625,0.7515625 C3.45640625,0.370703125 3.14757812,0.061875 2.76671875,0.061875 L0.697734375,0.061875 C0.316875,0.061875 0.008046875,0.370703125 0.008046875,0.7515625 C0.008046875,1.13242187 0.316875,1.44125 0.697734375,1.44125 Z" id="Shape"></path>
                                <path d="M0.697734375,4.19992188 L2.76671875,4.19992188 C3.14757812,4.19992188 3.45640625,3.89109375 3.45640625,3.51023438 C3.45640625,3.129375 3.14757812,2.82054688 2.76671875,2.82054688 L0.697734375,2.82054688 C0.316875,2.82054688 0.008046875,3.129375 0.008046875,3.51023438 C0.008046875,3.89109375 0.316875,4.19992188 0.697734375,4.19992188 Z" id="Shape"></path>
                            </g>
                            <path d="M17.9310156,25.5792188 L6.8965625,25.5792188 C6.51570313,25.5792188 6.206875,25.8880469 6.206875,26.2689063 C6.206875,26.6497656 6.51570313,26.9585938 6.8965625,26.9585938 L17.9310156,26.9585938 C18.311875,26.9585938 18.6207031,26.6497656 18.6207031,26.2689063 C18.6207031,25.8879688 18.311875,25.5792188 17.9310156,25.5792188 Z" id="Shape" fill="#FFE169"></path>
                            <g id="Group" transform="translate(2.734375, 6.250000)" fill="#FF6469">
                                <path d="M0.71390625,1.39820313 L1.40359375,1.39820313 C1.78445313,1.39820313 2.09328125,1.089375 2.09328125,0.708515625 C2.09328125,0.32765625 1.78445313,0.018828125 1.40359375,0.018828125 L0.71390625,0.018828125 C0.333046875,0.018828125 0.02421875,0.32765625 0.02421875,0.708515625 C0.02421875,1.089375 0.333046875,1.39820313 0.71390625,1.39820313 Z" id="Shape"></path>
                                <path d="M2.78289062,2.7775 L2.09320312,2.7775 C1.71234375,2.7775 1.40351562,3.08632813 1.40351562,3.4671875 C1.40351562,3.84804688 1.71234375,4.156875 2.09320312,4.156875 L2.78289062,4.156875 C3.16375,4.156875 3.47257812,3.84804688 3.47257812,3.4671875 C3.4725,3.08625 3.16375,2.7775 2.78289062,2.7775 Z" id="Shape"></path>
                                <path d="M2.78289062,5.53609375 L2.09320312,5.53609375 C1.71234375,5.53609375 1.40351562,5.84492187 1.40351562,6.22578125 C1.40351562,6.60664062 1.71234375,6.91546875 2.09320312,6.91546875 L2.78289062,6.91546875 C3.16375,6.91546875 3.47257812,6.60664062 3.47257812,6.22578125 C3.47257812,5.84492187 3.16375,5.53609375 2.78289062,5.53609375 Z" id="Shape"></path>
                                <path d="M0.71390625,9.6740625 L1.40359375,9.6740625 C1.78445313,9.6740625 2.09328125,9.36523437 2.09328125,8.984375 C2.09328125,8.60351562 1.78445313,8.2946875 1.40359375,8.2946875 L0.71390625,8.2946875 C0.333046875,8.2946875 0.02421875,8.60351562 0.02421875,8.984375 C0.02421875,9.36523437 0.333046875,9.6740625 0.71390625,9.6740625 Z" id="Shape"></path>
                                <path d="M0.71390625,12.4326563 L1.40359375,12.4326563 C1.78445313,12.4326563 2.09328125,12.1238281 2.09328125,11.7429688 C2.09328125,11.3621094 1.78445313,11.0532813 1.40359375,11.0532813 L0.71390625,11.0532813 C0.333046875,11.0532813 0.02421875,11.3621094 0.02421875,11.7429688 C0.02421875,12.1238281 0.333046875,12.4326563 0.71390625,12.4326563 Z" id="Shape"></path>
                                <path d="M2.09320312,15.19125 L2.78289062,15.19125 C3.16375,15.19125 3.47257812,14.8824219 3.47257812,14.5015625 C3.47257812,14.1207031 3.16375,13.811875 2.78289062,13.811875 L2.09320312,13.811875 C1.71234375,13.811875 1.40351562,14.1207031 1.40351562,14.5015625 C1.40351562,14.8824219 1.71234375,15.19125 2.09320312,15.19125 Z" id="Shape"></path>
                                <path d="M2.78289062,16.5705469 L2.09320312,16.5705469 C1.71234375,16.5705469 1.40351562,16.879375 1.40351562,17.2602344 C1.40351562,17.6410938 1.71234375,17.9499219 2.09320312,17.9499219 L2.78289062,17.9499219 C3.16375,17.9499219 3.47257812,17.6410938 3.47257812,17.2602344 C3.47257812,16.879375 3.16375,16.5705469 2.78289062,16.5705469 Z" id="Shape"></path>
                                <path d="M1.40359375,19.3292188 L0.71390625,19.3292188 C0.333046875,19.3292188 0.02421875,19.6380469 0.02421875,20.0189063 C0.02421875,20.3997656 0.333046875,20.7085938 0.71390625,20.7085938 L1.40359375,20.7085938 C1.78445313,20.7085938 2.09328125,20.3997656 2.09328125,20.0189063 C2.09320313,19.6379688 1.78445313,19.3292188 1.40359375,19.3292188 Z" id="Shape"></path>
                            </g>
                        </g>
                    </g>
                </g>
            </g>
        </g>
    </g>
</svg>