<?xml version="1.0" encoding="UTF-8" standalone="no"?>
<!-- Generator: Adobe Illustrator 19.0.0, SVG Export Plug-In . SVG Version: 6.00 Build 0)  -->

<svg
   xmlns:dc="http://purl.org/dc/elements/1.1/"
   xmlns:cc="http://creativecommons.org/ns#"
   xmlns:rdf="http://www.w3.org/1999/02/22-rdf-syntax-ns#"
   xmlns:svg="http://www.w3.org/2000/svg"
   xmlns="http://www.w3.org/2000/svg"
   xmlns:sodipodi="http://sodipodi.sourceforge.net/DTD/sodipodi-0.dtd"
   xmlns:inkscape="http://www.inkscape.org/namespaces/inkscape"
   version="1.1"
   id="Слой_1"
   x="0px"
   y="0px"
   viewBox="-109 3950.5 48 48"
   xml:space="preserve"
   inkscape:version="0.91 r13725"
   sodipodi:docname="arrow (copy).svg"
   width="48"
   height="48"><metadata
     id="metadata4205"><rdf:RDF><cc:Work
         rdf:about=""><dc:format>image/svg+xml</dc:format><dc:type
           rdf:resource="http://purl.org/dc/dcmitype/StillImage" /><dc:title></dc:title></cc:Work></rdf:RDF></metadata><defs
     id="defs4203" /><sodipodi:namedview
     pagecolor="#ffffff"
     bordercolor="#666666"
     borderopacity="1"
     objecttolerance="10"
     gridtolerance="10"
     guidetolerance="10"
     inkscape:pageopacity="0"
     inkscape:pageshadow="2"
     inkscape:window-width="1920"
     inkscape:window-height="1062"
     id="namedview4201"
     showgrid="false"
     inkscape:zoom="6.6114484"
     inkscape:cx="35.048441"
     inkscape:cy="44.794642"
     inkscape:window-x="0"
     inkscape:window-y="18"
     inkscape:window-maximized="1"
     inkscape:current-layer="Слой_1" /><g
     id="g4197"
     transform="matrix(1.5514628,0,0,1.5514628,6.5993334,-2232.1568)"
     style="fill:#ffffff"><path
       d="m -50.7,3987.2 c -0.1,0.3 -0.4,0.6 -0.6,0.8 -4.2,4.2 -8.3,8.3 -12.5,12.5 4.3,4.3 8.5,8.5 12.8,12.8 0.7,0.7 0.6,1.9 -0.2,2.4 -0.6,0.4 -1.4,0.4 -1.9,-0.1 -4.7,-4.6 -9.3,-9.3 -14,-14 -0.6,-0.6 -0.6,-1.6 0,-2.2 4.6,-4.6 9.3,-9.3 13.9,-13.9 0.6,-0.6 1.6,-0.6 2.2,0 0.5,0.5 0.6,1.3 0.3,1.7 z"
       id="path4199"
       inkscape:connector-curvature="0"
       style="fill:#ffffff" /></g></svg>