<?xml version="1.0" encoding="UTF-8" standalone="no"?>
<!-- Generator: Adobe Illustrator 19.0.0, SVG Export Plug-In . SVG Version: 6.00 Build 0)  -->

<svg
   xmlns:dc="http://purl.org/dc/elements/1.1/"
   xmlns:cc="http://creativecommons.org/ns#"
   xmlns:rdf="http://www.w3.org/1999/02/22-rdf-syntax-ns#"
   xmlns:svg="http://www.w3.org/2000/svg"
   xmlns="http://www.w3.org/2000/svg"
   xmlns:sodipodi="http://sodipodi.sourceforge.net/DTD/sodipodi-0.dtd"
   xmlns:inkscape="http://www.inkscape.org/namespaces/inkscape"
   version="1.1"
   id="Слой_1"
   x="0px"
   y="0px"
   viewBox="-109 3950.5 48 48"
   xml:space="preserve"
   inkscape:version="0.91 r13725"
   sodipodi:docname="cart2.svg"
   width="48"
   height="48"><metadata
     id="metadata4187"><rdf:RDF><cc:Work
         rdf:about=""><dc:format>image/svg+xml</dc:format><dc:type
           rdf:resource="http://purl.org/dc/dcmitype/StillImage" /><dc:title>05</dc:title></cc:Work></rdf:RDF></metadata><defs
     id="defs4185" /><sodipodi:namedview
     pagecolor="#ffffff"
     bordercolor="#666666"
     borderopacity="1"
     objecttolerance="10"
     gridtolerance="10"
     guidetolerance="10"
     inkscape:pageopacity="0"
     inkscape:pageshadow="2"
     inkscape:window-width="1920"
     inkscape:window-height="1062"
     id="namedview4183"
     showgrid="false"
     inkscape:zoom="9.35"
     inkscape:cx="40.802139"
     inkscape:cy="38.983957"
     inkscape:window-x="0"
     inkscape:window-y="18"
     inkscape:window-maximized="1"
     inkscape:current-layer="Слой_1" /><title
     id="title4179">05</title><path
     d="m -61.587842,3967.1392 -8.709532,0 -5.883261,-12.5163 c -0.115358,-0.2884 -0.461432,-0.4038 -0.749827,-0.2884 -0.288395,0.1153 -0.403753,0.4614 -0.288395,0.7498 l 5.652544,11.9972 -26.878425,0 5.652544,-11.9972 c 0.115358,-0.2884 0,-0.6345 -0.288395,-0.7498 -0.288395,-0.1154 -0.634469,0 -0.749827,0.2884 l -5.883261,12.5163 -8.709533,0 c -0.34607,0 -0.57679,0.2307 -0.57679,0.5768 0,0.058 0,0.1154 0,0.1731 l 6.17166,21.3989 c 0.92286,3.23 3.86449,5.4218 7.209874,5.4218 l 21.28356,0 c 3.345383,0 6.287014,-2.2495 7.209878,-5.4218 l 6.113977,-21.3989 c 0.05768,-0.2884 -0.115358,-0.6345 -0.403754,-0.6922 -0.05768,-0.058 -0.115358,-0.058 -0.173037,-0.058 l 0,0 z m -6.690767,21.8604 c -0.749827,2.7109 -3.287704,4.6143 -6.113976,4.6143 l -21.28356,0 c -2.826272,0 -5.306475,-1.9034 -6.113975,-4.6143 l -5.88326,-20.7068 45.278032,0 -5.883261,20.7068 z"
     id="path4181"
     inkscape:connector-curvature="0"
     style="fill:#000000;fill-opacity:1" /></svg>