<?xml version="1.0" encoding="UTF-8" standalone="no"?>
<!-- Generator: Adobe Illustrator 19.0.0, SVG Export Plug-In . SVG Version: 6.00 Build 0)  -->

<svg
   xmlns:dc="http://purl.org/dc/elements/1.1/"
   xmlns:cc="http://creativecommons.org/ns#"
   xmlns:rdf="http://www.w3.org/1999/02/22-rdf-syntax-ns#"
   xmlns:svg="http://www.w3.org/2000/svg"
   xmlns="http://www.w3.org/2000/svg"
   xmlns:sodipodi="http://sodipodi.sourceforge.net/DTD/sodipodi-0.dtd"
   xmlns:inkscape="http://www.inkscape.org/namespaces/inkscape"
   version="1.1"
   id="Слой_1"
   x="0px"
   y="0px"
   viewBox="-109 3950.5 48 48"
   xml:space="preserve"
   sodipodi:docname="cart3w.svg"
   width="48"
   height="48"
   inkscape:version="0.92.3 (2405546, 2018-03-11)"><metadata
   id="metadata11"><rdf:RDF><cc:Work
       rdf:about=""><dc:format>image/svg+xml</dc:format><dc:type
         rdf:resource="http://purl.org/dc/dcmitype/StillImage" /><dc:title>05</dc:title></cc:Work></rdf:RDF></metadata><defs
   id="defs9" /><sodipodi:namedview
   pagecolor="#ffffff"
   bordercolor="#666666"
   borderopacity="1"
   objecttolerance="10"
   gridtolerance="10"
   guidetolerance="10"
   inkscape:pageopacity="0"
   inkscape:pageshadow="2"
   inkscape:window-width="1920"
   inkscape:window-height="1027"
   id="namedview7"
   showgrid="false"
   inkscape:zoom="11.313709"
   inkscape:cx="17.209651"
   inkscape:cy="23.421639"
   inkscape:window-x="1912"
   inkscape:window-y="-8"
   inkscape:window-maximized="1"
   inkscape:current-layer="Слой_1" />
<title
   id="title2">05</title>
<path
   style="stroke-width:0.19999526;stroke-miterlimit:4;stroke-dasharray:none;fill:#ffffff"
   d="m -77.130419,3954.0854 c -0.409469,0.1895 -0.630952,0.6842 -0.34373,1.1914 l 5.542703,11.8941 h -26.159072 l 5.492084,-11.7809 c 0.275501,-0.4407 0.282304,-1.0253 -0.287331,-1.3007 -0.40168,-0.182 -0.914062,-0.044 -1.159007,0.6054 l -5.815662,12.4762 -8.419796,0.01 c -0.32951,2e-4 -0.71977,0.3713 -0.71977,0.7063 v 0.2769 l 6.17158,21.3984 c 0.92282,3.23 3.863419,5.4219 7.208644,5.4219 h 21.284147 c 3.345225,0 6.285822,-2.2496 7.208642,-5.4219 l 6.112991,-21.3984 c 0.05768,-0.2884 -0.07488,-0.6221 -0.179678,-0.7149 -0.186577,-0.2026 -0.444253,-0.2738 -0.501929,-0.2738 v 0 h -8.466396 l -5.814568,-12.4801 c -0.233495,-0.6645 -0.764737,-0.7703 -1.153852,-0.6054 z m -29.943671,14.6855 h 44.171903 l -5.978716,20.5 c -0.749792,2.7109 -3.261676,4.013 -5.513317,4.013 h -21.282193 c -2.251641,0 -4.707497,-1.3021 -5.514957,-4.013 z"
   id="path4"
   inkscape:connector-curvature="0"
   sodipodi:nodetypes="ccccccccssccsscccccccccccsscc" />
</svg>