<?xml version="1.0" encoding="UTF-8" standalone="no"?>
<!-- Generator: Adobe Illustrator 19.0.0, SVG Export Plug-In . SVG Version: 6.00 Build 0)  -->

<svg
   xmlns:dc="http://purl.org/dc/elements/1.1/"
   xmlns:cc="http://creativecommons.org/ns#"
   xmlns:rdf="http://www.w3.org/1999/02/22-rdf-syntax-ns#"
   xmlns:svg="http://www.w3.org/2000/svg"
   xmlns="http://www.w3.org/2000/svg"
   xmlns:sodipodi="http://sodipodi.sourceforge.net/DTD/sodipodi-0.dtd"
   xmlns:inkscape="http://www.inkscape.org/namespaces/inkscape"
   version="1.1"
   id="Слой_1"
   x="0px"
   y="0px"
   viewBox="-109 3950.5 48 48"
   xml:space="preserve"
   inkscape:version="0.91 r13725"
   sodipodi:docname="favourite.svg"
   width="48"
   height="48"><metadata
     id="metadata4363"><rdf:RDF><cc:Work
         rdf:about=""><dc:format>image/svg+xml</dc:format><dc:type
           rdf:resource="http://purl.org/dc/dcmitype/StillImage" /><dc:title /></cc:Work></rdf:RDF></metadata><defs
     id="defs4361" /><sodipodi:namedview
     pagecolor="#ffffff"
     bordercolor="#666666"
     borderopacity="1"
     objecttolerance="10"
     gridtolerance="10"
     guidetolerance="10"
     inkscape:pageopacity="0"
     inkscape:pageshadow="2"
     inkscape:window-width="1920"
     inkscape:window-height="1062"
     id="namedview4359"
     showgrid="false"
     inkscape:zoom="13.222897"
     inkscape:cx="37.939388"
     inkscape:cy="22.514752"
     inkscape:window-x="0"
     inkscape:window-y="18"
     inkscape:window-maximized="1"
     inkscape:current-layer="Слой_1" /><g
     id="g4355"
     transform="matrix(0.51118211,0,0,0.51118211,-54.814696,1929.516)"
     style="fill:#000000;fill-opacity:1"><path
       d="m -74.6,4026.7 c 5.8,5.7 10.9,10.6 13.4,13.4 0.6,0.6 1.4,1 2.2,1 0.8,0 1.7,-0.4 2.2,-1 2.5,-2.8 7.5,-7.7 13.4,-13.4 15.3,-15 27.2,-26.8 29.5,-32.3 1.2,-3 1.8,-6.2 1.8,-9.4 0,-13.8 -11.2,-25 -25,-25 -10.4,0 -17.9,7.6 -22,12.6 -4,-5.1 -11.5,-12.7 -21.9,-12.7 -13.8,0 -25,11.2 -25,25 0,3.3 0.6,6.4 1.8,9.4 2.4,5.5 14.3,17.4 29.6,32.4 z m -6.4,-60.8 c 6.8,0 13,4.3 19.5,13.4 0.6,0.8 1.5,1.3 2.4,1.3 0.9,0 1.9,-0.5 2.4,-1.3 6.7,-9.1 12.9,-13.4 19.7,-13.4 10.5,0 19,8.5 19,19 0,2.5 -0.5,4.9 -1.4,7.2 -2,4.8 -17.7,20.2 -28.1,30.3 -4.5,4.4 -8.6,8.4 -11.4,11.3 -2.8,-2.9 -6.9,-6.9 -11.4,-11.3 -10.5,-10.2 -26.3,-25.6 -28.2,-30.4 -0.9,-2.3 -1.4,-4.7 -1.4,-7.2 0,-10.4 8.5,-18.9 18.9,-18.9 z"
       id="path4357"
       inkscape:connector-curvature="0"
       style="fill:#000000;fill-opacity:1" /></g></svg>