<?xml version="1.0" encoding="UTF-8" standalone="no"?>
<!-- Generator: Adobe Illustrator 19.0.0, SVG Export Plug-In . SVG Version: 6.00 Build 0)  -->

<svg
   xmlns:dc="http://purl.org/dc/elements/1.1/"
   xmlns:cc="http://creativecommons.org/ns#"
   xmlns:rdf="http://www.w3.org/1999/02/22-rdf-syntax-ns#"
   xmlns:svg="http://www.w3.org/2000/svg"
   xmlns="http://www.w3.org/2000/svg"
   xmlns:sodipodi="http://sodipodi.sourceforge.net/DTD/sodipodi-0.dtd"
   xmlns:inkscape="http://www.inkscape.org/namespaces/inkscape"
   version="1.1"
   id="Слой_1"
   x="0px"
   y="0px"
   viewBox="-109 3950.5 48 48"
   xml:space="preserve"
   inkscape:version="0.91 r13725"
   sodipodi:docname="phone.svg"
   width="48"
   height="48"><metadata
     id="metadata4181"><rdf:RDF><cc:Work
         rdf:about=""><dc:format>image/svg+xml</dc:format><dc:type
           rdf:resource="http://purl.org/dc/dcmitype/StillImage" /><dc:title></dc:title></cc:Work></rdf:RDF></metadata><defs
     id="defs4179" /><sodipodi:namedview
     pagecolor="#ffffff"
     bordercolor="#666666"
     borderopacity="1"
     objecttolerance="10"
     gridtolerance="10"
     guidetolerance="10"
     inkscape:pageopacity="0"
     inkscape:pageshadow="2"
     inkscape:window-width="1920"
     inkscape:window-height="1062"
     id="namedview4177"
     showgrid="false"
     inkscape:zoom="9.35"
     inkscape:cx="50"
     inkscape:cy="50"
     inkscape:window-x="0"
     inkscape:window-y="18"
     inkscape:window-maximized="1"
     inkscape:current-layer="Слой_1" /><g
     transform="matrix(0.75,0,0,0.75,-40.768931,259.825)"
     id="g4173"><path
       d="m -83,4920.9 c -0.3,0 -0.6,0.1 -0.8,0.4 l -6.8,6.8 c -0.5,0.5 -0.5,1.2 0,1.7 20.3,20.3 35.1,35 54.6,54.6 0.3,0.3 0.6,0.5 1,0.5 0.4,0 0.7,-0.3 1,-0.5 l 6.5,-6.5 c 0.4,-0.4 0.6,-0.8 0.5,-1.3 -0.1,-0.3 -0.3,-0.5 -0.5,-0.7 0,0 -8.9,-8.9 -13.4,-13.4 -0.3,-0.3 -0.6,-0.5 -1,-0.5 -0.4,0 -0.8,0.3 -1,0.5 -2,2 -5.9,5.9 -5.9,5.9 l -25.7,-25.7 6,-6 0,0 0,0 c 0,0 0,0 0,0 0,0 0,0 0.1,-0.1 0.4,-0.5 0.3,-1.3 -0.2,-1.7 l -13.5,-13.5 c -0.2,-0.4 -0.5,-0.5 -0.9,-0.5 l 0,0 z m 0.1,2.9 12,12 -5.1,5.1 -12,-12 5.1,-5.1 z m 41,41 12,12 -5.1,5.1 -12,-12 5.1,-5.1 z"
       id="path4175"
       inkscape:connector-curvature="0" /></g></svg>