<?xml version="1.0" encoding="UTF-8" standalone="no"?>
<!-- Generator: Adobe Illustrator 19.0.0, SVG Export Plug-In . SVG Version: 6.00 Build 0)  -->

<svg
   xmlns:dc="http://purl.org/dc/elements/1.1/"
   xmlns:cc="http://creativecommons.org/ns#"
   xmlns:rdf="http://www.w3.org/1999/02/22-rdf-syntax-ns#"
   xmlns:svg="http://www.w3.org/2000/svg"
   xmlns="http://www.w3.org/2000/svg"
   xmlns:sodipodi="http://sodipodi.sourceforge.net/DTD/sodipodi-0.dtd"
   xmlns:inkscape="http://www.inkscape.org/namespaces/inkscape"
   version="1.1"
   id="Слой_1"
   x="0px"
   y="0px"
   viewBox="-109 3950.5 48 48"
   xml:space="preserve"
   inkscape:version="0.91 r13725"
   sodipodi:docname="share.svg"
   width="48"
   height="48"><metadata
     id="metadata4494"><rdf:RDF><cc:Work
         rdf:about=""><dc:format>image/svg+xml</dc:format><dc:type
           rdf:resource="http://purl.org/dc/dcmitype/StillImage" /><dc:title /></cc:Work></rdf:RDF></metadata><defs
     id="defs4492" /><sodipodi:namedview
     pagecolor="#ffffff"
     bordercolor="#666666"
     borderopacity="1"
     objecttolerance="10"
     gridtolerance="10"
     guidetolerance="10"
     inkscape:pageopacity="0"
     inkscape:pageshadow="2"
     inkscape:window-width="1920"
     inkscape:window-height="1062"
     id="namedview4490"
     showgrid="false"
     inkscape:zoom="2.36"
     inkscape:cx="-9.9576271"
     inkscape:cy="50"
     inkscape:window-x="0"
     inkscape:window-y="18"
     inkscape:window-maximized="1"
     inkscape:current-layer="Слой_1" /><style
     type="text/css"
     id="style4468">
	.st0{display:none;}
	.st1{display:inline;}
	.st2{display:inline;fill:none;stroke:#E00C02;stroke-width:4;stroke-miterlimit:10;}
	.st3{display:inline;stroke:#E00C02;stroke-width:4;stroke-miterlimit:10;}
</style><g
     class="st0"
     id="g4470"
     style="display:none"
     transform="translate(0,-52)"><path
       class="st1"
       d="m -15,3959 c 0,8.8 -7.2,16 -16,16 -8.8,0 -16,-7.2 -16,-16 0,-8.8 7.2,-16 16,-16 8.8,0 16,7.2 16,16 z m -72,13 c -8.8,0 -16,7.2 -16,16 0,8.8 7.2,16 16,16 8.8,0 16,-7.2 16,-16 0,-8.8 -7.2,-16 -16,-16 z m 56,29 c -8.8,0 -16,7.2 -16,16 0,8.8 7.2,16 16,16 8.8,0 16,-7.2 16,-16 0,-8.8 -7.2,-16 -16,-16 z m -39.1,-19.2 24.6,-12.3 c -0.8,-1.1 -1.5,-2.2 -2,-3.5 l -24.3,12.2 c 0.6,1.1 1.2,2.3 1.7,3.6 z m 24.1,25.2 -24.3,-12.6 c -0.5,1.3 -1.1,2.5 -1.8,3.6 l 24.3,12.6 c 0.5,-1.3 1.1,-2.5 1.8,-3.6 z"
       id="path4472"
       inkscape:connector-curvature="0"
       style="display:inline" /></g><g
     class="st0"
     id="g4474"
     style="display:none"
     transform="translate(0,-52)"><line
       class="st2"
       x1="-71.800003"
       y1="3994.3999"
       x2="-46.200001"
       y2="4007.6001"
       id="line4476"
       style="display:inline;fill:none;stroke:#e00c02;stroke-width:4;stroke-miterlimit:10" /><line
       class="st2"
       x1="-46.400002"
       y1="3967.8999"
       x2="-71.599998"
       y2="3980.1001"
       id="line4478"
       style="display:inline;fill:none;stroke:#e00c02;stroke-width:4;stroke-miterlimit:10" /><circle
       class="st3"
       cx="-32"
       cy="4015"
       r="16"
       id="circle4480"
       style="display:inline;stroke:#e00c02;stroke-width:4;stroke-miterlimit:10" /><circle
       class="st3"
       cx="-86"
       cy="3987"
       r="16"
       id="circle4482"
       style="display:inline;stroke:#e00c02;stroke-width:4;stroke-miterlimit:10" /><circle
       class="st3"
       cx="-32"
       cy="3961"
       r="16"
       id="circle4484"
       style="display:inline;stroke:#e00c02;stroke-width:4;stroke-miterlimit:10" /></g><g
     id="g4486"
     transform="matrix(0.5327414,0,0,0.5327414,-53.54162,1843.268)"
     style="fill:#000000;fill-opacity:1"><path
       d="m -32,4009.5 c -6.2,0 -11.7,3.2 -15,8 L -69.3,4006 c 0.8,-2 1.2,-4.2 1.2,-6.5 0,-2.1 -0.4,-4.1 -1,-5.9 l 21.8,-10.5 c 3.2,5.1 8.8,8.4 15.2,8.4 9.9,0 18,-8.1 18,-18 0,-9.9 -8.1,-18 -18,-18 -9.9,0 -18,8.1 -18,18 0,2.1 0.4,4.1 1,6 l -21.8,10.5 c -3.2,-5.1 -8.8,-8.4 -15.2,-8.4 -9.9,0 -18,8.1 -18,18 0,9.9 8.1,18 18,18 6.2,0 11.7,-3.2 15,-8 l 22.3,11.5 c -0.8,2 -1.2,4.2 -1.2,6.4 0,9.9 8.1,18 18,18 9.9,0 18,-8.1 18,-18 0,-9.9 -8.1,-18 -18,-18 z m 0,-50 c 7.7,0 14,6.3 14,14 0,7.7 -6.3,14 -14,14 -7.7,0 -14,-6.3 -14,-14 0,-7.7 6.3,-14 14,-14 z m -54,54 c -7.7,0 -14,-6.3 -14,-14 0,-7.7 6.3,-14 14,-14 7.7,0 14,6.3 14,14 0,7.7 -6.3,14 -14,14 z m 54,28 c -7.7,0 -14,-6.3 -14,-14 0,-7.7 6.3,-14 14,-14 7.7,0 14,6.3 14,14 0,7.7 -6.3,14 -14,14 z"
       id="path4488"
       inkscape:connector-curvature="0"
       style="fill:#000000;fill-opacity:1" /></g></svg>