<?xml version="1.0" encoding="UTF-8" standalone="no"?>
<!-- Created with Inkscape (http://www.inkscape.org/) -->

<svg
   xmlns:dc="http://purl.org/dc/elements/1.1/"
   xmlns:cc="http://creativecommons.org/ns#"
   xmlns:rdf="http://www.w3.org/1999/02/22-rdf-syntax-ns#"
   xmlns:svg="http://www.w3.org/2000/svg"
   xmlns="http://www.w3.org/2000/svg"
   xmlns:sodipodi="http://sodipodi.sourceforge.net/DTD/sodipodi-0.dtd"
   xmlns:inkscape="http://www.inkscape.org/namespaces/inkscape"
   width="48"
   height="48"
   viewBox="0 0 12.7 12.7"
   version="1.1"
   id="svg8"
   inkscape:version="0.92.3 (2405546, 2018-03-11)"
   sodipodi:docname="socnet_github.svg">
  <defs
     id="defs2" />
  <sodipodi:namedview
     id="base"
     pagecolor="#ffffff"
     bordercolor="#666666"
     borderopacity="1.0"
     inkscape:pageopacity="0.0"
     inkscape:pageshadow="2"
     inkscape:zoom="15.839192"
     inkscape:cx="26.372602"
     inkscape:cy="28.59527"
     inkscape:document-units="mm"
     inkscape:current-layer="layer1"
     showgrid="false"
     units="px"
     inkscape:window-width="3840"
     inkscape:window-height="2093"
     inkscape:window-x="-9"
     inkscape:window-y="-9"
     inkscape:window-maximized="1" />
  <metadata
     id="metadata5">
    <rdf:RDF>
      <cc:Work
         rdf:about="">
        <dc:format>image/svg+xml</dc:format>
        <dc:type
           rdf:resource="http://purl.org/dc/dcmitype/StillImage" />
        <dc:title></dc:title>
      </cc:Work>
    </rdf:RDF>
  </metadata>
  <g
     inkscape:label="Layer 1"
     inkscape:groupmode="layer"
     id="layer1"
     transform="translate(0,-284.29998)">
    <path
       id="path815"
       d="M 6.350025,284.4566 C 2.841637,284.4566 0,287.29824 0,290.80664 c 0,2.80988 1.817695,5.18321 4.34183,6.02458 0.317501,0.0555 0.436564,-0.13501 0.436564,-0.30163 0,-0.15081 -0.008,-0.65088 -0.008,-1.18269 -1.595445,0.29369 -2.008197,-0.38894 -2.135198,-0.74613 -0.07145,-0.18255 -0.381002,-0.74612 -0.650877,-0.89693 -0.222251,-0.1191 -0.539753,-0.41276 -0.008,-0.42069 0.500065,-0.007 0.857254,0.46036 0.976317,0.65086 0.571502,0.96046 1.484319,0.69058 1.849444,0.52388 0.05556,-0.41274 0.222251,-0.69056 0.404814,-0.8493 -1.412879,-0.15876 -2.88926,-0.70645 -2.88926,-3.13533 0,-0.69057 0.246062,-1.26207 0.650876,-1.70657 -0.06349,-0.15875 -0.285751,-0.80963 0.0635,-1.68275 0,0 0.531815,-0.1667 1.746257,0.65086 0.508003,-0.14295 1.047754,-0.2143 1.587506,-0.2143 0.539753,0 1.079505,0.0714 1.587507,0.2143 1.214442,-0.82549 1.746256,-0.65086 1.746256,-0.65086 0.349252,0.87312 0.127006,1.524 0.06349,1.68275 0.404814,0.4445 0.650878,1.00806 0.650878,1.70657 0,2.43682 -1.484318,2.97657 -2.897198,3.13533 0.230188,0.19843 0.428627,0.57944 0.428627,1.17474 0,0.84932 -0.0079,1.53194 -0.0079,1.74626 0,0.16668 0.11907,0.36514 0.436563,0.30163 A 6.360344,6.360344 0 0 0 12.7,290.80664 c 0,-3.5084 -2.841637,-6.35004 -6.350026,-6.35004 z"
       inkscape:connector-curvature="0"
       style="fill-rule:evenodd;stroke-width:0.79375309;fill:#ffffff;fill-opacity:1" />
  </g>
</svg>
