<?xml version="1.0" encoding="UTF-8" standalone="no"?>
<!-- Created with Inkscape (http://www.inkscape.org/) -->

<svg
   xmlns:dc="http://purl.org/dc/elements/1.1/"
   xmlns:cc="http://creativecommons.org/ns#"
   xmlns:rdf="http://www.w3.org/1999/02/22-rdf-syntax-ns#"
   xmlns:svg="http://www.w3.org/2000/svg"
   xmlns="http://www.w3.org/2000/svg"
   xmlns:sodipodi="http://sodipodi.sourceforge.net/DTD/sodipodi-0.dtd"
   xmlns:inkscape="http://www.inkscape.org/namespaces/inkscape"
   width="16.5mm"
   height="16.5mm"
   viewBox="0 0 16.5 16.5"
   version="1.1"
   id="svg8"
   sodipodi:docname="1.svg"
   inkscape:version="0.92.3 (2405546, 2018-03-11)">
  <defs
     id="defs2" />
  <sodipodi:namedview
     id="base"
     pagecolor="#ffffff"
     bordercolor="#666666"
     borderopacity="1.0"
     inkscape:pageopacity="0.0"
     inkscape:pageshadow="2"
     inkscape:zoom="1.4"
     inkscape:cx="107.73613"
     inkscape:cy="92.075551"
     inkscape:document-units="mm"
     inkscape:current-layer="layer1"
     showgrid="false"
     height="29mm"
     inkscape:window-width="1366"
     inkscape:window-height="705"
     inkscape:window-x="-8"
     inkscape:window-y="-8"
     inkscape:window-maximized="1" />
  <metadata
     id="metadata5">
    <rdf:RDF>
      <cc:Work
         rdf:about="">
        <dc:format>image/svg+xml</dc:format>
        <dc:type
           rdf:resource="http://purl.org/dc/dcmitype/StillImage" />
        <dc:title></dc:title>
      </cc:Work>
    </rdf:RDF>
  </metadata>
  <g
     inkscape:label="Layer 1"
     inkscape:groupmode="layer"
     id="layer1"
     transform="translate(0,-280.5)">
    <g
       id="g819"
       transform="matrix(0.26458333,0,0,0.26458333,0.31611354,280.59593)"
       style="fill:#f95110;fill-opacity:1">
      <path
         id="path817"
         d="m 58.356239,16.26427 c -1.14e-4,0 -1.14e-4,0 -2.29e-4,0 0,0 -0.0019,-0.0019 -0.0019,-0.0019 0,0 -3.736839,-0.532499 -3.736839,-0.532499 -0.52517,-0.07498 -0.890351,-0.56119 -0.815506,-1.086039 0.03593,-0.252095 0.170746,-0.479708 0.374565,-0.632725 0,0 3.02021,-2.263505 3.02021,-2.263505 0.424576,-0.318275 0.510521,-0.920015 0.192146,-1.344254 0,0 -3.458175,-4.6077261 -3.458175,-4.6077261 -0.318375,-0.4242398 -0.920449,-0.5103119 -1.34491,-0.1920364 0,0 -3.019295,2.2635046 -3.019295,2.2635046 C 49.143631,8.1876478 48.5411,8.1050186 48.220322,7.6826916 48.064568,7.4776487 47.997849,7.2186674 48.035042,6.963894 c 0,0 0.534096,-3.7347635 0.534096,-3.7347635 0.0753,-0.5248485 -0.289307,-1.0110601 -0.814476,-1.086421 -3.44e-4,0 -6.87e-4,0 -0.001,0 0,0 -5.702362,-0.8140507 -5.702362,-0.8140507 -0.525055,-0.075361 -1.012002,0.2888197 -1.087418,0.8136682 0,0 0,0 0,3.825e-4 0,0 -0.534096,3.734381 -0.534096,3.734381 -0.07473,0.5248484 -0.561218,0.8897941 -1.086387,0.8148157 -0.252457,-0.035576 -0.48008,-0.170614 -0.633088,-0.3741267 0,0 -2.264213,-3.0182612 -2.264213,-3.0182612 -0.318375,-0.4242397 -0.920448,-0.5103118 -1.34491,-0.1920363 0,0 -2.886658,2.1648086 -2.886658,2.1648086 -1.305999,-0.138863 -2.622985,-0.138863 -3.928985,0 C 19.732887,6.2493044 13.025848,13.065449 12.192146,21.6279 c -0.02586,0.271988 -0.03548,0.54168 -0.04898,0.811373 0,0 -0.288163,0 -0.288163,0 -0.455818,7.65e-4 -0.84835,0.321718 -0.939445,0.768145 0,0 -0.663872,3.154447 -0.663872,3.154447 0,0 -2.6590346,-1.832762 -2.6590346,-1.832762 -0.3815461,-0.263189 -0.8968735,-0.216137 -1.2247467,0.11132 0,0 -2.8818512,2.880163 -2.8818512,2.880163 -0.3273011,0.327457 -0.3742218,0.841977 -0.1114655,1.222989 0,0 1.8252182,2.65255 1.8252182,2.65255 0,0 -3.1575394,0.663329 -3.1575394,0.663329 -0.4417419,0.09678 -0.7561111,0.488125 -0.7550811,0.939908 0,0 0,3.839962 0,3.839962 -2.289e-4,0.454078 0.3180313,0.846567 0.7627487,0.939907 0,0 3.1575394,0.663329 3.1575394,0.663329 0,0 -1.8252182,2.652551 -1.8252182,2.652551 -0.2627564,0.381395 -0.2158356,0.895532 0.1114654,1.222988 0,0 2.8818512,2.880164 2.8818512,2.880164 0.3278732,0.327839 0.8432007,0.374509 1.2248611,0.11132 0,0 2.6541137,-1.828554 2.6541137,-1.828554 0,0 0.663872,3.155211 0.663872,3.155211 0.09109,0.446428 0.483627,0.767381 0.939445,0.768146 0,0 3.842469,0 3.842469,0 0.454445,3.83e-4 0.846862,-0.317893 0.940475,-0.762025 0,0 0.663872,-3.155594 0.663872,-3.155594 0,0 2.654114,1.823963 2.654114,1.823963 0.381546,0.262425 0.896186,0.215754 1.223831,-0.11132 0,0 1.491852,-1.495741 1.491852,-1.495741 0,0 0,2.735945 0,2.735945 0.0043,1.365677 0.736541,2.625772 1.921348,3.306315 0,0 0,5.333792 0,5.333792 0,2.120816 1.720276,3.839963 3.842468,3.839963 0,0 3.842469,0 3.842469,0 2.122192,0 3.842582,-1.719147 3.842582,-3.839963 0,0 0,-5.333792 0,-5.333792 1.184807,-0.680543 1.916886,-1.940638 1.921235,-3.306315 0,0 0,-3.799796 0,-3.799796 0.02598,-1.598646 0.862999,-3.074878 2.22187,-3.918767 0.797195,-0.516815 1.553192,-1.094454 2.261353,-1.727945 0,0 -1.28151,-1.430326 -1.28151,-1.430326 -0.63343,0.56731 -1.31012,1.084125 -2.024002,1.546619 -1.907501,1.196211 -3.075142,3.279921 -3.098946,5.530419 0,0 0,3.799796 0,3.799796 0,1.060408 -0.860138,1.919981 -1.921348,1.919981 0,0 -7.684937,0 -7.684937,0 -1.06121,0 -1.921234,-0.859573 -1.921234,-1.919981 0,0 0,-3.879365 0,-3.879365 -0.0222,-2.208036 -1.171531,-4.251579 -3.047104,-5.418334 -7.613868,-4.781017 -9.907837,-14.825056 -5.123634,-22.434211 2.968254,-4.7209583 8.148766,-7.5942358 13.727875,-7.6145106 -0.01419,0.034429 -0.02689,0.06924 -0.03742,0.1048167 -0.03571,0.2520956 0.03033,0.5080166 0.183448,0.7115292 0,0 2.264214,3.0171137 2.264214,3.0171137 0.238724,0.308712 0.261612,0.732952 0.05768,1.065764 -0.196495,0.334724 -0.576324,0.517197 -0.960617,0.461729 0,0 -3.736839,-0.533647 -3.736839,-0.533647 -0.525284,-0.07536 -1.011887,0.289202 -1.087303,0.813668 0,3.82e-4 -1.15e-4,7.65e-4 -1.15e-4,0.0011 0,0 -0.81562,5.701798 -0.81562,5.701798 -0.0753,0.524466 0.289421,1.01106 0.814476,1.086421 3.43e-4,0 6.86e-4,0 0.0011,0 0,0 3.736839,0.534029 3.736839,0.534029 0.52517,0.0746 0.890351,0.560808 0.815506,1.085656 -0.03593,0.252096 -0.170745,0.479709 -0.374679,0.632726 0,0 -3.01918,2.262739 -3.01918,2.262739 -0.424462,0.317893 -0.510521,0.919633 -0.192147,1.343873 0,0 3.45829,4.608108 3.45829,4.608108 0.318261,0.42424 0.920334,0.510312 1.344796,0.192036 0,0 3.02021,-2.262739 3.02021,-2.262739 0.424919,-0.317511 1.026993,-0.230673 1.344681,0.193949 0.151977,0.20313 0.217437,0.458286 0.181846,0.709234 0,0 -0.53318,3.734763 -0.53318,3.734763 -0.07542,0.524466 0.289192,1.011443 0.814362,1.086804 1.14e-4,0 1.14e-4,0 2.28e-4,0 0,0 5.706139,0.814816 5.706139,0.814816 0.04486,0.0057 0.09018,0.0088 0.135498,0.0088 0.478249,3.83e-4 0.883942,-0.350791 0.95192,-0.823614 0,0 0.53318,-3.734764 0.53318,-3.734764 0.07484,-0.524848 0.561218,-0.889794 1.086502,-0.814815 0.252342,0.03558 0.479965,0.170614 0.632973,0.374126 0,0 2.265129,3.017496 2.265129,3.017496 0.318374,0.42424 0.920448,0.50993 1.344909,0.192037 0,0 4.611054,-3.456273 4.611054,-3.456273 0.424461,-0.317893 0.510406,-0.919632 0.192146,-1.343872 0,0 -2.264213,-3.017113 -2.264213,-3.017113 -0.237694,-0.309477 -0.260582,-0.732952 -0.05768,-1.065764 0.192261,-0.339315 0.575524,-0.523318 0.960618,-0.460964 0,0 3.736839,0.532882 3.736839,0.532882 0.525169,0.07536 1.012001,-0.289202 1.087417,-0.813668 0,-3.83e-4 0,-3.83e-4 0,-3.83e-4 0,0 0.814591,-5.702562 0.814591,-5.702562 0.07542,-0.524849 -0.289078,-1.011443 -0.814362,-1.086804 z m -31.83918,34.015306 c 0,0 7.684937,0 7.684937,0 0,0 0,1.919982 0,1.919982 0,0 -7.684937,0 -7.684937,0 0,0 0,-1.919982 0,-1.919982 z m 0,3.839963 c 0,0 7.684937,0 7.684937,0 0,0 0,0.960182 0,0.960182 0,1.060408 -0.860024,1.919981 -1.921234,1.919981 0,0 -3.842469,0 -3.842469,0 -1.061096,0 -1.921234,-0.859573 -1.921234,-1.919981 0,0 0,-0.960182 0,-0.960182 z M 18.869545,37.564242 c 0.524483,0.428831 1.07254,0.827823 1.641655,1.195064 0.907631,0.573431 1.590958,1.440655 1.935654,2.456688 0,0 -2.060509,2.055402 -2.060509,2.055402 0,0 -1.995277,-1.374476 -1.995277,-1.374476 -0.873642,-0.601739 -2.070008,-0.381777 -2.672196,0.491567 -0.14431,0.209251 -0.245705,0.44528 -0.298004,0.693933 0,0 -0.503426,2.397012 -0.503426,2.397012 0,0 -2.283325,0 -2.283325,0 0,0 -0.503425,-2.393187 -0.503425,-2.393187 -0.218583,-1.037455 -1.23745,-1.701932 -2.2756581,-1.4835 -0.2490235,0.05241 -0.4850006,0.153782 -0.694542,0.298001 0,0 -1.9961929,1.37065 -1.9961929,1.37065 0,0 -1.7502594,-1.74516 -1.7502594,-1.74516 0,0 1.3746643,-1.993047 1.3746643,-1.993047 0.6026459,-0.872579 0.3831482,-2.068408 -0.4901504,-2.67053 -0.2096558,-0.144601 -0.4459763,-0.246357 -0.6953431,-0.298765 0,0 -2.3947906,-0.503809 -2.3947906,-0.503809 0,0 0,-2.281102 0,-2.281102 0,0 2.3947906,-0.504191 2.3947906,-0.504191 1.0379792,-0.219962 1.7010499,-1.239055 1.48098,-2.276511 -0.0523,-0.245975 -0.1523209,-0.479326 -0.294571,-0.687046 0,0 -1.3755798,-1.998786 -1.3755798,-1.998786 0,0 1.7502594,-1.745159 1.7502594,-1.745159 0,0 1.9971085,1.374858 1.9971085,1.374858 0.8740995,0.600975 2.0703505,0.380248 2.6718525,-0.49348 0.144081,-0.208868 0.245246,-0.444514 0.297432,-0.693167 0,0 0.168113,-0.798749 0.168113,-0.798749 0.153923,1.106313 0.408898,2.195795 0.761833,3.255438 -3.1608577,0.376422 -5.4177471,3.242813 -5.0408931,6.401468 0.3767395,3.158654 3.2447431,5.414125 6.4054871,5.037703 1.902809,-0.226847 3.568382,-1.383656 4.444313,-3.087119 z m -1.491852,-1.35267 c -0.71743,1.992664 -2.915153,3.026677 -4.909057,2.310175 -1.993905,-0.716885 -3.0287938,-2.913445 -2.311593,-4.906109 0.548859,-1.524433 1.997109,-2.539701 3.618165,-2.536258 0.01247,0 0.02403,0 0.03651,0 0.88337,1.903532 2.089806,3.639893 3.565979,5.132192 z M 56.584579,21.828735 c 0,0 -2.78572,-0.397462 -2.78572,-0.397462 -1.575737,-0.224935 -3.035431,0.869519 -3.260422,2.444065 -0.108032,0.755904 0.08892,1.524049 0.5476,2.13497 0,0 1.687774,2.249351 1.687774,2.249351 0,0 -3.073997,2.304054 -3.073997,2.304054 0,0 -1.688805,-2.248203 -1.688805,-2.248203 -0.95478,-1.272719 -2.761116,-1.530936 -4.0345,-0.576492 -0.611458,0.458286 -1.015663,1.14036 -1.124039,1.896646 0,0 -0.389099,2.787588 -0.389099,2.787588 0,0 -3.8031,-0.54321 -3.8031,-0.54321 0,0 0.397682,-2.784145 0.397682,-2.784145 0.225677,-1.574546 -0.868721,-3.033563 -2.444229,-3.258881 -0.757141,-0.108642 -1.52607,0.08837 -2.137871,0.547036 0,0 -2.250824,1.686631 -2.250824,1.686631 0,0 -2.305412,-3.0722 -2.305412,-3.0722 0,0 2.249794,-1.687396 2.249794,-1.687396 1.273384,-0.954443 1.531677,-2.759662 0.576782,-4.031999 -0.45845,-0.611303 -1.14109,-1.015268 -1.897659,-1.123527 0,0 -2.785836,-0.397462 -2.785836,-0.397462 0,0 0.543709,-3.800561 0.543709,-3.800561 0,0 2.785835,0.397462 2.785835,0.397462 1.575509,0.225317 3.03566,-0.868372 3.261223,-2.442917 0.108376,-0.75667 -0.08858,-1.525198 -0.547485,-2.1365008 0,0 -1.693611,-2.2512633 -1.693611,-2.2512633 0,0 3.073997,-2.3040541 3.073997,-2.3040541 0,0 1.688805,2.2493505 1.688805,2.2493505 0.954895,1.2727193 2.76123,1.5309356 4.0345,0.5764918 0.611458,-0.4579036 1.015778,-1.1403596 1.124039,-1.8962638 0,0 0.397682,-2.7841451 0.397682,-2.7841451 0,0 3.803215,0.5424454 3.803215,0.5424454 0,0 -0.397797,2.7837626 -0.397797,2.7837626 -0.224991,1.5749279 0.869866,3.0335629 2.445603,3.258498 0.756569,0.1078768 1.525154,-0.08875 2.136612,-0.547036 0,0 2.250824,-1.6870129 2.250824,-1.6870129 0,0 2.305412,3.0721997 2.305412,3.0721997 0,0 -2.25071,1.687778 -2.25071,1.687778 -1.273384,0.954061 -1.531677,2.75928 -0.576896,4.031617 0.458564,0.611303 1.14109,1.015268 1.897773,1.123527 0,0 2.785836,0.397462 2.785836,0.397462 0,0 -0.546685,3.799796 -0.546685,3.799796 z M 42.594063,10.212446 c -4.244271,0 -7.685051,3.438675 -7.685051,7.680308 0,4.24125 3.44078,7.679925 7.685051,7.679925 4.24427,0 7.685051,-3.438675 7.685051,-7.679925 -0.0048,-4.23972 -3.442726,-7.675718 -7.685051,-7.680308 z m 0,13.440252 c -3.183289,0 -5.763703,-2.57872 -5.763703,-5.759944 0,-3.181225 2.580414,-5.760327 5.763703,-5.760327 3.183288,0 5.763817,2.579102 5.763817,5.760327 -0.0038,3.179694 -2.582131,5.756118 -5.763817,5.759944 z M 29.398911,43.55945 c 0,0 1.921234,0 1.921234,0 0,0 0,2.880164 0,2.880164 0,0 -1.921234,0 -1.921234,0 0,0 0,-2.880164 0,-2.880164 z m -3.241196,-9.428145 c -5.929985,-2.315148 -8.859329,-8.996254 -6.542702,-14.922222 0.897789,-2.296403 2.508888,-4.244693 4.59652,-5.557962 0,0 -1.026879,-1.624276 -1.026879,-1.624276 -6.284408,3.956639 -8.169594,12.255518 -4.210396,18.53572 1.53328,2.432206 3.806534,4.309343 6.486054,5.355214 2.371788,0.908156 3.938026,3.18352 3.938599,5.72169 0,0 1.921234,0 1.921234,0 0.003,-3.330416 -2.050553,-6.316926 -5.16243,-7.508164 z m 22.453766,2.708019 c 0,0 6.724319,0 6.724319,0 0,0 0,1.919982 0,1.919982 0,0 -6.724319,0 -6.724319,0 0,0 0,-1.919982 0,-1.919982 z m -1.575394,6.497104 c 0,0 1.229782,-1.475084 1.229782,-1.475084 0,0 5.76416,4.799379 5.76416,4.799379 0,0 -1.229782,1.475085 -1.229782,1.475085 0,0 -5.76416,-4.79938 -5.76416,-4.79938 z m -4.188423,1.183204 c 0,0 1.921234,0 1.921234,0 0,0 0,6.720126 0,6.720126 0,0 -1.921234,0 -1.921234,0 0,0 0,-6.720126 0,-6.720126 z M 2.2680588,17.667054 c 0,0 7.6844787,-1.919599 7.6844787,-1.919599 0,0 0.4656605,1.861452 0.4656605,1.861452 0,0 -7.6844791,1.919599 -7.6844791,1.919599 0,0 -0.4656601,-1.861452 -0.4656601,-1.861452 z M 3.8638229,7.8605739 c 0,0 1.1160279,-1.5615389 1.1160279,-1.5615389 0,0 6.7238612,4.79938 6.7238612,4.79938 0,0 -1.116027,1.561921 -1.116027,1.561921 0,0 -6.7238621,-4.7997621 -6.7238621,-4.7997621 z M 12.094528,1.5555066 c 0,0 1.861382,-0.475883 1.861382,-0.475883 0,0 1.964721,7.6795429 1.964721,7.6795429 0,0 -1.861381,0.475883 -1.861381,0.475883 0,0 -1.964722,-7.6795429 -1.964722,-7.6795429 z"
         inkscape:connector-curvature="0"
         style="fill:#f95110;fill-rule:evenodd;stroke:none;paint-order:stroke fill markers;fill-opacity:1" />
    </g>
  </g>
</svg>
