<?xml version="1.0" encoding="UTF-8" standalone="no"?>
<!-- Created with Inkscape (http://www.inkscape.org/) -->

<svg
   xmlns:dc="http://purl.org/dc/elements/1.1/"
   xmlns:cc="http://creativecommons.org/ns#"
   xmlns:rdf="http://www.w3.org/1999/02/22-rdf-syntax-ns#"
   xmlns:svg="http://www.w3.org/2000/svg"
   xmlns="http://www.w3.org/2000/svg"
   xmlns:sodipodi="http://sodipodi.sourceforge.net/DTD/sodipodi-0.dtd"
   xmlns:inkscape="http://www.inkscape.org/namespaces/inkscape"
   width="16.5mm"
   height="16.5mm"
   viewBox="0 0 16.5 16.5"
   version="1.1"
   id="svg8"
   sodipodi:docname="10.svg"
   inkscape:version="0.92.3 (2405546, 2018-03-11)">
  <defs
     id="defs2" />
  <sodipodi:namedview
     id="base"
     pagecolor="#ffffff"
     bordercolor="#666666"
     borderopacity="1.0"
     inkscape:pageopacity="0.0"
     inkscape:pageshadow="2"
     inkscape:zoom="1.4"
     inkscape:cx="107.73613"
     inkscape:cy="92.075551"
     inkscape:document-units="mm"
     inkscape:current-layer="layer1"
     showgrid="false"
     height="29mm"
     inkscape:window-width="1366"
     inkscape:window-height="705"
     inkscape:window-x="-8"
     inkscape:window-y="-8"
     inkscape:window-maximized="1" />
  <metadata
     id="metadata5">
    <rdf:RDF>
      <cc:Work
         rdf:about="">
        <dc:format>image/svg+xml</dc:format>
        <dc:type
           rdf:resource="http://purl.org/dc/dcmitype/StillImage" />
        <dc:title></dc:title>
      </cc:Work>
    </rdf:RDF>
  </metadata>
  <g
     inkscape:label="Layer 1"
     inkscape:groupmode="layer"
     id="layer1"
     transform="translate(0,-280.5)">
    <g
       id="g4658"
       transform="matrix(0.26458333,0,0,0.26458333,-0.22677047,280.68423)"
       style="fill:#f95110;fill-opacity:1">
      <path
         id="path4656"
         d="m 57.879997,56.145954 c -1.587753,0 -2.88002,1.292612 -2.88002,2.880164 0,1.587551 1.292267,2.87978 2.88002,2.87978 1.587639,0 2.879906,-1.292229 2.879906,-2.87978 0,-1.587552 -1.292267,-2.880164 -2.879906,-2.880164 z m 0,3.839963 c -0.528831,0 -0.960045,-0.43036 -0.960045,-0.959799 0,-0.529822 0.431214,-0.960182 0.960045,-0.960182 0.528717,0 0.959931,0.43036 0.959931,0.960182 0,0.529439 -0.431214,0.959799 -0.959931,0.959799 z M 6.9999084,4.306075 c 0,-1.5875519 -1.2922668,-2.8801633 -2.8800201,-2.8801633 -1.5876388,0 -2.8799057,1.2926114 -2.8799057,2.8801633 0,1.5875518 1.2922669,2.8801633 2.8799057,2.8801633 1.5877533,0 2.8800201,-1.2926115 2.8800201,-2.8801633 z m -3.8399505,0 c 0,-0.5286739 0.4312134,-0.960182 0.9599304,-0.960182 0.5288315,0 0.9600449,0.4315081 0.9600449,0.960182 0,0.5286739 -0.4312134,0.9597994 -0.9600449,0.9597994 -0.528717,0 -0.9599304,-0.4311255 -0.9599304,-0.9597994 z M 52.812325,39.469774 c 0,0 -1.896172,-3.791762 -1.896172,-3.791762 0.40226,-0.815963 0.746727,-1.640725 1.029854,-2.461279 0,0 4.013901,-1.338517 4.013901,-1.338517 0,0 0,-10.984328 0,-10.984328 0,0 -4.013901,-1.338517 -4.013901,-1.338517 -0.282212,-0.820554 -0.627594,-1.645316 -1.029854,-2.461279 0,0 1.898003,-3.795588 1.898003,-3.795588 0,0 -7.766762,-7.7667625 -7.766762,-7.7667625 0,0 -3.795433,1.8981764 -3.795433,1.8981764 -0.816078,-0.4024348 -1.640625,-0.7478708 -2.461396,-1.0298047 0,0 -1.338272,-4.0140196 -1.338272,-4.0140196 0,0 -10.984726,0 -10.984726,0 0,0 -1.338272,4.0140196 -1.338272,4.0140196 -0.82077,0.2819339 -1.645317,0.6273699 -2.461395,1.0298047 0,0 -3.795433,-1.8981764 -3.795433,-1.8981764 0,0 -7.766762,7.7667625 -7.766762,7.7667625 0,0 1.898003,3.795588 1.898003,3.795588 -0.402145,0.815963 -0.747643,1.640725 -1.029854,2.461279 0,0 -4.0139007,1.338517 -4.0139007,1.338517 0,0 0,10.983563 0,10.983563 0,0 4.0139007,1.337752 4.0139007,1.337752 0.280266,0.815198 0.621071,1.632309 1.019554,2.441769 0,0 -1.234703,2.248968 -1.234703,2.248968 0,0 -5.718727,0 -5.718727,0 0,0 0,19.200196 0,19.200196 0,0 6.719971,0 6.719971,0 0,0 0,-2.880163 0,-2.880163 0,0 7.282448,0 7.282448,0 0,0 2.88002,2.880163 2.88002,2.880163 0,0 5.197563,0 5.197563,0 0,0 0,0.9598 0,0.9598 0,2.117756 1.722107,3.839962 3.83995,3.839962 2.117844,0 3.840065,-1.722206 3.840065,-3.839962 0,0 0,-0.9598 0,-0.9598 0,0 6.720887,0 6.720887,0 1.587639,0 2.88002,-1.292229 2.88002,-2.880163 0,-0.74022 -0.288735,-1.408905 -0.748673,-1.919981 0.460854,-0.510695 0.748673,-1.179762 0.748673,-1.919982 0,-0.74022 -0.288735,-1.408904 -0.748673,-1.919981 0.366669,-0.407026 0.616951,-0.915042 0.704613,-1.481205 0,0 7.455483,-7.51505 7.455483,-7.51505 z M 14.930664,35.231202 c -0.528259,-1.01412 -0.959015,-2.045455 -1.281052,-3.063019 0,0 -0.147628,-0.466319 -0.147628,-0.466319 0,0 -3.6220554,-1.20807 -3.6220554,-1.20807 0,0 0,-8.21625 0,-8.21625 0,0 3.6220554,-1.207304 3.6220554,-1.207304 0,0 0.146713,-0.467085 0.146713,-0.467085 0.320663,-1.016798 0.751877,-2.048133 1.280594,-3.062253 0,0 0.225906,-0.435334 0.225906,-0.435334 0,0 -1.713638,-3.427964 -1.713638,-3.427964 0,0 5.809135,-5.8089097 5.809135,-5.8089097 0,0 3.427964,1.7137909 3.427964,1.7137909 0,0 0.434989,-0.2257001 0.434989,-0.2257001 1.01532,-0.5290565 2.045632,-0.9597994 3.062439,-1.2811352 0,0 0.467263,-0.1465139 0.467263,-0.1465139 0,0 1.208954,-3.623061 1.208954,-3.623061 0,0 8.216285,0 8.216285,0 0,0 1.207009,3.6219134 1.207009,3.6219134 0,0 0.467262,0.1468964 0.467262,0.1468964 1.016807,0.3205707 2.048035,0.7516962 3.062439,1.2803701 0,0 0.43499,0.2260827 0.43499,0.2260827 0,0 3.427963,-1.7137909 3.427963,-1.7137909 0,0 5.809135,5.8092923 5.809135,5.8092923 0,0 -1.713638,3.427964 -1.713638,3.427964 0,0 0.225449,0.434951 0.225449,0.434951 0.529175,1.015268 0.95993,2.045838 1.281051,3.062254 0,0 0.146714,0.467467 0.146714,0.467467 0,0 3.62297,1.208834 3.62297,1.208834 0,0 0,8.216251 0,8.216251 0,0 -3.622055,1.207304 -3.622055,1.207304 0,0 -0.147629,0.466319 -0.147629,0.466319 -0.322036,1.017564 -0.752792,2.048899 -1.281051,3.063019 0,0 -0.225449,0.435334 -0.225449,0.435334 0,0 1.715584,3.430259 1.715584,3.430259 0,0 -5.672836,5.716334 -5.672836,5.716334 -0.04875,-0.06427 -0.100823,-0.127386 -0.154267,-0.187063 0.460854,-0.511077 0.748673,-1.179761 0.748673,-1.919981 0,-1.497655 -1.153107,-2.716818 -2.615204,-2.853386 4.072494,-3.263853 6.454239,-8.161929 6.454239,-13.466647 0,-9.527989 -7.752228,-17.2798324 -17.280007,-17.2798324 -9.527778,0 -17.280006,7.7518434 -17.280006,17.2798324 0,5.240451 2.38266,10.17066 6.427002,13.439869 0,0 -8.211479,0 -8.211479,0 0,0 2.271995,-4.139493 2.271995,-4.139493 0,0 -0.236778,-0.455226 -0.236778,-0.455226 z M 43.480927,50.38601 c 0,0.529822 -0.431328,0.960182 -0.960045,0.960182 0,0 -7.680931,0 -7.680931,0 -0.528717,0 -0.960045,-0.43036 -0.960045,-0.960182 0,-0.529821 0.431328,-0.959799 0.960045,-0.959799 0,0 7.680931,0 7.680931,0 0.528717,0 0.960045,0.429978 0.960045,0.959799 z M 29.642387,26.386052 c 0,0 4.635086,0 4.635086,0 0,0 1.522522,-1.52252 1.522522,-1.52252 0,0 0,-4.237424 0,-4.237424 1.058808,0 1.919976,0.861103 1.919976,1.919981 0,0 0,4.402301 0,4.402301 0,0 -3.277474,3.277625 -3.277474,3.277625 0,0 -4.965019,0 -4.965019,0 0,0 -3.277588,-3.277625 -3.277588,-3.277625 0,0 0,-4.402301 0,-4.402301 0,-1.058878 0.861168,-1.919981 1.92009,-1.919981 0,0 0,4.237424 0,4.237424 0,0 1.522407,1.52252 1.522407,1.52252 z m 0.397568,5.759944 c 0,0 3.839951,0 3.839951,0 0,0 0,3.839963 0,3.839963 0,0 -3.839951,0 -3.839951,0 0,0 0,-3.839963 0,-3.839963 z m 5.76004,-0.562338 c 0,0 3.839951,-3.839962 3.839951,-3.839962 0,0 0,-5.197607 0,-5.197607 0,-2.117756 -1.722221,-3.839963 -3.839951,-3.839963 0,0 -1.920089,0 -1.920089,0 0,0 0,5.362483 0,5.362483 0,0 -0.397454,0.397462 -0.397454,0.397462 0,0 -3.045044,0 -3.045044,0 0,0 -0.397453,-0.397462 -0.397453,-0.397462 0,0 0,-5.362483 0,-5.362483 0,0 -1.919975,0 -1.919975,0 -2.117844,0 -3.840065,1.722207 -3.840065,3.839963 0,0 0,5.197607 0,5.197607 0,0 3.840065,3.839962 3.840065,3.839962 0,0 0,4.402301 0,4.402301 0,0 -2.317543,0 -2.317543,0 0,0 -0.06043,0.06044 -0.06043,0.06044 -3.277588,-2.114695 -5.302048,-5.740817 -5.302048,-9.660348 0,-6.352503 5.167466,-11.519888 11.519966,-11.519888 6.352501,0 11.519967,5.167385 11.519967,11.519888 0,3.891223 -1.943894,7.454608 -5.197449,9.599907 0,0 -2.482453,0 -2.482453,0 0,0 0,-4.402301 0,-4.402301 z m 9.599991,-5.197606 c 0,-7.411381 -6.028633,-13.43987 -13.440056,-13.43987 -7.411422,0 -13.439941,6.028489 -13.439941,13.43987 0,4.434434 2.205849,8.563216 5.824127,11.058159 0,0 -1.382332,1.382509 -1.382332,1.382509 -3.986663,-2.887432 -6.361885,-7.508929 -6.361885,-12.440668 0,-8.468728 6.891175,-15.359851 15.360031,-15.359851 8.468972,0 15.360032,6.891123 15.360032,15.359851 0,4.744293 -2.144509,9.121728 -5.805932,12.024079 -0.109748,-0.680926 -0.457077,-1.276162 -0.956268,-1.708818 3.059464,-2.540083 4.842224,-6.280202 4.842224,-10.315261 z m -2.879104,15.359851 c 0.528717,0 0.960045,0.43036 0.960045,0.960182 0,0.529821 -0.431328,0.959799 -0.960045,0.959799 0,0 -7.680931,0 -7.680931,0 -0.528717,0 -0.960045,-0.429978 -0.960045,-0.959799 0,-0.529822 0.431328,-0.960182 0.960045,-0.960182 0,0 7.680931,0 7.680931,0 z m -7.680931,5.760326 c -0.528717,0 -0.960045,-0.43036 -0.960045,-0.960182 0,-0.529821 0.431328,-0.959799 0.960045,-0.959799 0,0 7.680931,0 7.680931,0 0.528717,0 0.960045,0.429978 0.960045,0.959799 0,0.529822 -0.431328,0.960182 -0.960045,0.960182 0,0 -7.680931,0 -7.680931,0 z m -23.999978,7.679926 c 0,0 -2.8800197,0 -2.8800197,0 0,0 0,-15.360234 0,-15.360234 0,0 2.8800197,0 2.8800197,0 0,0 0,15.360234 0,15.360234 z m 12.877465,0 c 0,0 -2.88002,-2.880163 -2.88002,-2.880163 0,0 -8.077469,0 -8.077469,0 0,0 0,-10.560089 0,-10.560089 0,0 9.997444,0 9.997444,0 0,0 3.840065,-3.839963 3.840065,-3.839963 0,0 12.082443,0 12.082443,0 0.528832,0 0.960045,0.43036 0.960045,0.960182 0,0.529439 -0.431213,0.959799 -0.960045,0.959799 0,0 -9.997444,0 -9.997444,0 0,0 -4.121246,4.121514 -4.121246,4.121514 0,0 1.357498,1.357262 1.357498,1.357262 0,0 2.201271,-2.20115 2.201271,-2.20115 0,0 0,12.082608 0,12.082608 0,0 -4.402542,0 -4.402542,0 z m 8.242492,4.799762 c -1.058921,0 -1.919975,-0.861103 -1.919975,-1.919981 0,0 0,-16.320033 0,-16.320033 0,0 2.096672,0 2.096672,0 -0.107803,0.301443 -0.176697,0.622014 -0.176697,0.960182 0,0.74022 0.288735,1.408904 0.748558,1.919981 -0.460739,0.511077 -0.748558,1.179761 -0.748558,1.919981 0,0.74022 0.288735,1.408905 0.748558,1.919982 -0.460739,0.511077 -0.748558,1.179761 -0.748558,1.919981 0,0.74022 0.288735,1.409287 0.748558,1.919982 -0.460739,0.511076 -0.748558,1.179761 -0.748558,1.919981 0,1.249767 0.805321,2.305967 1.919976,2.703429 0,0 0,1.136534 0,1.136534 0,1.058878 -0.861054,1.919981 -1.919976,1.919981 z m 10.560952,-4.799762 c 0,0 -7.680931,0 -7.680931,0 -0.528717,0 -0.960045,-0.430361 -0.960045,-0.960182 0,-0.529439 0.431328,-0.9598 0.960045,-0.9598 0,0 7.680931,0 7.680931,0 0.528717,0 0.960045,0.430361 0.960045,0.9598 0,0.529821 -0.431328,0.960182 -0.960045,0.960182 z M 3.1599579,10.066019 c 0,0 1.9199753,0 1.9199753,0 0,0 0,1.919981 0,1.919981 0,0 -1.9199753,0 -1.9199753,0 0,0 0,-1.919981 0,-1.919981 z m 0,4.800145 c 0,0 1.9199753,0 1.9199753,0 0,0 0,1.919981 0,1.919981 0,0 -1.9199753,0 -1.9199753,0 0,0 0,-1.919981 0,-1.919981 z m 0,4.799762 c 0,0 1.9199753,0 1.9199753,0 0,0 0,1.919981 0,1.919981 0,0 -1.9199753,0 -1.9199753,0 0,0 0,-1.919981 0,-1.919981 z M 56.919952,41.745903 c 0,0 1.919976,0 1.919976,0 0,0 0,1.919981 0,1.919981 0,0 -1.919976,0 -1.919976,0 0,0 0,-1.919981 0,-1.919981 z m 0,4.800144 c 0,0 1.919976,0 1.919976,0 0,0 0,1.919982 0,1.919982 0,0 -1.919976,0 -1.919976,0 0,0 0,-1.919982 0,-1.919982 z m 0,4.800145 c 0,0 1.919976,0 1.919976,0 0,0 0,1.919981 0,1.919981 0,0 -1.919976,0 -1.919976,0 0,0 0,-1.919981 0,-1.919981 z"
         inkscape:connector-curvature="0"
         style="fill:#f95110;fill-rule:evenodd;stroke:none;paint-order:stroke fill markers;fill-opacity:1" />
    </g>
  </g>
</svg>
