<?xml version="1.0" encoding="UTF-8" standalone="no"?>
<!-- Created with Inkscape (http://www.inkscape.org/) -->

<svg
   xmlns:dc="http://purl.org/dc/elements/1.1/"
   xmlns:cc="http://creativecommons.org/ns#"
   xmlns:rdf="http://www.w3.org/1999/02/22-rdf-syntax-ns#"
   xmlns:svg="http://www.w3.org/2000/svg"
   xmlns="http://www.w3.org/2000/svg"
   xmlns:sodipodi="http://sodipodi.sourceforge.net/DTD/sodipodi-0.dtd"
   xmlns:inkscape="http://www.inkscape.org/namespaces/inkscape"
   width="16.5mm"
   height="16.5mm"
   viewBox="0 0 16.5 16.5"
   version="1.1"
   id="svg8"
   sodipodi:docname="11.svg"
   inkscape:version="0.92.3 (2405546, 2018-03-11)">
  <defs
     id="defs2" />
  <sodipodi:namedview
     id="base"
     pagecolor="#ffffff"
     bordercolor="#666666"
     borderopacity="1.0"
     inkscape:pageopacity="0.0"
     inkscape:pageshadow="2"
     inkscape:zoom="1.4"
     inkscape:cx="107.73613"
     inkscape:cy="92.075551"
     inkscape:document-units="mm"
     inkscape:current-layer="layer1"
     showgrid="false"
     height="29mm"
     inkscape:window-width="1366"
     inkscape:window-height="705"
     inkscape:window-x="-8"
     inkscape:window-y="-8"
     inkscape:window-maximized="1" />
  <metadata
     id="metadata5">
    <rdf:RDF>
      <cc:Work
         rdf:about="">
        <dc:format>image/svg+xml</dc:format>
        <dc:type
           rdf:resource="http://purl.org/dc/dcmitype/StillImage" />
        <dc:title></dc:title>
      </cc:Work>
    </rdf:RDF>
  </metadata>
  <g
     inkscape:label="Layer 1"
     inkscape:groupmode="layer"
     id="layer1"
     transform="translate(0,-280.5)">
    <g
       id="g4672"
       transform="matrix(0.26458333,0,0,0.26458333,0.11753308,280.54185)"
       style="fill:#f95110;fill-opacity:1">
      <path
         id="path4670"
         d="m 14.664276,45.889987 c 0,0 5.76004,0 5.76004,0 0,0 0,1.919981 0,1.919981 0,0 -5.76004,0 -5.76004,0 0,0 0,-1.919981 0,-1.919981 z m 43.200073,-3.840345 c 0,0 -6.884079,0 -6.884079,0 -0.769271,0 -1.492996,0.29953 -2.037162,0.843889 0,0 -2.996293,2.996456 -2.996293,2.996456 0,0 -5.362472,0 -5.362472,0 -1.587639,0 -2.88002,1.292229 -2.88002,2.879781 0,0 0,3.839962 0,3.839962 0,0 -4.016762,0 -4.016762,0 -0.28965,-0.813285 -0.929947,-1.453662 -1.743278,-1.743246 0,0 0,-10.736824 0,-10.736824 0,0 6.720085,0 6.720085,0 1.587639,0 2.879905,-1.292229 2.879905,-2.879781 0,0 0,-1.919981 0,-1.919981 0,-1.249767 -0.805206,-2.305967 -1.919975,-2.703429 0,0 0,-2.274215 0,-2.274215 1.114769,-0.397462 1.919975,-1.453662 1.919975,-2.703429 0,0 4.799996,0 4.799996,0 5.293693,0 9.600105,-4.306282 9.600105,-9.599907 0,-5.293624 -4.306412,-9.5991415 -9.600105,-9.5991415 -0.750847,0 -1.49952,0.090663 -2.236862,0.2685449 -2.087746,-4.2726184 -6.396561,-6.9886709 -11.20308,-6.9886709 -3.854484,0 -7.495765,1.7971852 -9.855423,4.8368688 -0.241928,-0.024865 -0.475387,-0.036724 -0.704612,-0.036724 -2.779198,0 -5.325852,1.5072179 -6.679688,3.8977267 -0.332336,-0.03864 -0.666046,-0.05776 -1.000328,-0.05776 -4.7633742,0 -8.6399459,3.876687 -8.6399459,8.640107 0,4.763421 3.8765717,8.640108 8.6399459,8.640108 0,0 5.76004,0 5.76004,0 0,1.249384 0.805321,2.305584 1.919976,2.703046 0,0 0,2.274598 0,2.274598 -1.114655,0.397462 -1.919976,1.453279 -1.919976,2.703046 0,0 0,1.919982 0,1.919982 0,1.587934 1.292382,2.880163 2.880021,2.880163 0,0 6.71997,0 6.71997,0 0,0 0,10.736823 0,10.736823 -0.813217,0.289585 -1.453628,0.929961 -1.743278,1.743247 0,0 -4.016648,0 -4.016648,0 0,0 0,-7.680308 0,-7.680308 0,-1.587552 -1.292381,-2.879781 -2.88002,-2.879781 0,0 -6.884079,0 -6.884079,0 -0.769272,0 -1.492996,0.299531 -2.037162,0.843889 0,0 -2.9962926,2.995309 -2.9962926,2.995309 0,0 -5.3624725,0 -5.3624725,0 -1.5876389,0 -2.8800202,1.292229 -2.8800202,2.879781 0,0 0,9.599906 0,9.599906 0,1.587935 1.2923813,2.880164 2.8800202,2.880164 0,0 17.2800061,0 17.2800061,0 1.587639,0 2.88002,-1.292229 2.88002,-2.880164 0,0 0,-3.839962 0,-3.839962 0,0 4.016648,0 4.016648,0 0.397567,1.114729 1.453628,1.919981 2.703323,1.919981 1.249695,0 2.305756,-0.805252 2.703209,-1.919981 0,0 4.016762,0 4.016762,0 0,0 0,3.839962 0,3.839962 0,1.587935 1.292381,2.880164 2.88002,2.880164 0,0 17.280006,0 17.280006,0 1.587639,0 2.880021,-1.292229 2.880021,-2.880164 0,0 0,-13.439869 0,-13.439869 0,-1.587552 -1.292382,-2.880163 -2.880021,-2.880163 z M 37.704323,30.529753 c 0,0 0,1.919982 0,1.919982 0,0 -13.439942,0 -13.439942,0 0,0 0,-1.919982 0,-1.919982 0,0 13.439942,0 13.439942,0 z m 1.919975,-2.87978 c 0,0.528674 -0.431213,0.959799 -0.95993,0.959799 0,0 -15.360031,0 -15.360031,0 -0.528717,0 -0.960045,-0.431125 -0.960045,-0.959799 0,0 0,-1.919982 0,-1.919982 0,-0.529056 0.431328,-0.960182 0.960045,-0.960182 0,0 15.360031,0 15.360031,0 0.528717,0 0.95993,0.431126 0.95993,0.960182 0,0 0,1.919982 0,1.919982 z M 24.264381,22.849828 c 0,0 0,-1.919981 0,-1.919981 0,0 13.439942,0 13.439942,0 0,0 0,1.919981 0,1.919981 0,0 -13.439942,0 -13.439942,0 z m 14.399987,-3.839963 c 0,0 -15.360031,0 -15.360031,0 -0.528717,0 -0.960045,-0.431125 -0.960045,-0.960182 0,0 0,-1.919981 0,-1.919981 0,-0.528674 0.431328,-0.959799 0.960045,-0.959799 0,0 15.360031,0 15.360031,0 0.528717,0 0.95993,0.431125 0.95993,0.959799 0,0 0,1.919981 0,1.919981 0,0.529057 -0.431213,0.960182 -0.95993,0.960182 z m -24.000092,6.720126 c -3.705368,0 -6.7199706,-3.014818 -6.7199706,-6.720126 0,-3.70569 3.0146026,-6.720126 6.7199706,-6.720126 0.454331,0 0.907974,0.04514 1.348686,0.136568 0,0 0.756569,0.154547 0.756569,0.154547 0,0 0.313111,-0.705026 0.313111,-0.705026 0.924339,-2.0821793 2.990112,-3.4260515 5.26165,-3.4260515 0.302353,0 0.622101,0.029456 0.977325,0.090663 0,0 0.598183,0.1013738 0.598183,0.1013738 0,0 0.348244,-0.4953927 0.348244,-0.4953927 1.980514,-2.8155136 5.209236,-4.4967883 8.636283,-4.4967883 4.313393,0 8.151513,2.5844578 9.779549,6.5847057 0,0 0.340805,0.838151 0.340805,0.838151 0,0 0.857277,-0.289585 0.857277,-0.289585 0.804405,-0.273901 1.634102,-0.413146 2.462311,-0.413146 4.234772,0 7.680015,3.445179 7.680015,7.679925 0,4.234747 -3.445243,7.680308 -7.680015,7.680308 0,0 -4.799996,0 -4.799996,0 0,-1.249766 -0.805206,-2.305967 -1.919975,-2.703428 0,0 0,-2.274599 0,-2.274599 1.114769,-0.397461 1.919975,-1.453279 1.919975,-2.703046 0,0 0,-1.919981 0,-1.919981 0,-1.587552 -1.292266,-2.880163 -2.879905,-2.880163 0,0 -15.360031,0 -15.360031,0 -1.587639,0 -2.880021,1.292611 -2.880021,2.880163 0,0 0,1.919981 0,1.919981 0,1.249767 0.805321,2.305585 1.919976,2.703046 0,0 0,2.274599 0,2.274599 -1.114655,0.397461 -1.919976,1.453662 -1.919976,2.703428 0,0 -5.76004,0 -5.76004,0 z m 7.680016,11.519888 c 0,0 0,-1.919981 0,-1.919981 0,-0.529821 0.431328,-0.960182 0.960045,-0.960182 0,0 15.360031,0 15.360031,0 0.528717,0 0.95993,0.430361 0.95993,0.960182 0,0 0,1.919981 0,1.919981 0,0.529439 -0.431213,0.9598 -0.95993,0.9598 0,0 -15.360031,0 -15.360031,0 -0.528717,0 -0.960045,-0.430361 -0.960045,-0.9598 z M 4.1043549,47.809968 c 0,0 6.1574931,0 6.1574931,0 0,0 3.55877,-3.558794 3.55877,-3.558794 0.181389,-0.181707 0.423202,-0.281551 0.679664,-0.281551 0,0 6.884079,0 6.884079,0 0.528717,0 0.959931,0.43036 0.959931,0.960182 0,0 0,4.800145 0,4.800145 0,0 -19.199982,0 -19.199982,0 0,0 0,-0.960182 0,-0.960182 0,-0.529822 0.4313278,-0.9598 0.9600449,-0.9598 z M 21.384361,59.329856 c 0,0 -17.2800061,0 -17.2800061,0 -0.5287171,0 -0.9600449,-0.43036 -0.9600449,-0.960182 0,0 0,-6.719743 0,-6.719743 0,0 19.199982,0 19.199982,0 0,0 0,6.719743 0,6.719743 0,0.529822 -0.431214,0.960182 -0.959931,0.960182 z m 9.599991,-4.800144 c -0.528717,0 -0.960045,-0.430361 -0.960045,-0.9598 0,-0.529821 0.431328,-0.960182 0.960045,-0.960182 0.528717,0 0.959931,0.430361 0.959931,0.960182 0,0.529439 -0.431214,0.9598 -0.959931,0.9598 z m 9.599991,-6.719744 c 0,0 6.157494,0 6.157494,0 0,0 3.558769,-3.558794 3.558769,-3.558794 0.181389,-0.181707 0.423202,-0.281551 0.679664,-0.281551 0,0 6.884079,0 6.884079,0 0.528717,0 0.959931,0.43036 0.959931,0.960182 0,0 0,4.800145 0,4.800145 0,0 -19.199982,0 -19.199982,0 0,0 0,-0.960182 0,-0.960182 0,-0.529822 0.431328,-0.9598 0.960045,-0.9598 z m 17.280006,11.519888 c 0,0 -17.280006,0 -17.280006,0 -0.528717,0 -0.960045,-0.43036 -0.960045,-0.960182 0,0 0,-6.719743 0,-6.719743 0,0 19.199982,0 19.199982,0 0,0 0,6.719743 0,6.719743 0,0.529822 -0.431214,0.960182 -0.959931,0.960182 z m -6.71997,-13.439869 c 0,0 5.759926,0 5.759926,0 0,0 0,1.919981 0,1.919981 0,0 -5.759926,0 -5.759926,0 0,0 0,-1.919981 0,-1.919981 z m 0.95993,-27.840304 c 0,-3.176634 -2.583275,-5.759944 -5.76004,-5.759944 0,0 0,1.919982 0,1.919982 2.117843,0 3.840065,1.722206 3.840065,3.839962 0,2.117756 -1.722222,3.839963 -3.840065,3.839963 0,0 0,1.919981 0,1.919981 3.176765,0 5.76004,-2.582927 5.76004,-5.759944 z M 9.8642807,19.009865 c 0,0 1.9200893,0 1.9200893,0 0,-1.587552 1.292267,-2.880163 2.879906,-2.880163 0,0 0,-1.919981 0,-1.919981 -2.646561,0 -4.7999953,2.153715 -4.7999953,4.800144 z M 32.904327,7.4899771 c 1.79535,0 3.481865,0.6989054 4.75216,1.9677992 0,0 1.35704,-1.3572612 1.35704,-1.3572612 -1.631699,-1.6319267 -3.801498,-2.5305193 -6.1092,-2.5305193 -2.307701,0 -4.477501,0.8985926 -6.109199,2.5305193 0,0 1.35704,1.3572612 1.35704,1.3572612 1.270294,-1.2688938 2.95681,-1.9677992 4.752159,-1.9677992 z M 5.0642853,29.967416 c 0,0 0,9.202445 0,9.202445 0,0 1.9200897,0 1.9200897,0 0,0 0,-9.202445 0,-9.202445 0,0 2.2011566,2.20115 2.2011566,2.20115 0,0 1.3574984,-1.357644 1.3574984,-1.357644 0,0 -4.5186999,-4.518593 -4.5186999,-4.518593 0,0 -4.5186996,4.518593 -4.5186996,4.518593 0,0 1.3574982,1.357644 1.3574982,1.357644 0,0 2.2011566,-2.20115 2.2011566,-2.20115 z m 0,11.122426 c 0,0 1.9200897,0 1.9200897,0 0,0 0,1.919982 0,1.919982 0,0 -1.9200897,0 -1.9200897,0 0,0 0,-1.919982 0,-1.919982 z M 56.904305,27.649973 c 0,0 -1.919976,0 -1.919976,0 0,0 0,9.202445 0,9.202445 0,0 -2.201271,-2.201533 -2.201271,-2.201533 0,0 -1.357498,1.357644 -1.357498,1.357644 0,0 4.518814,4.518593 4.518814,4.518593 0,0 4.5187,-4.518593 4.5187,-4.518593 0,0 -1.357498,-1.357644 -1.357498,-1.357644 0,0 -2.201271,2.201533 -2.201271,2.201533 0,0 0,-9.202445 0,-9.202445 z m -1.919976,-3.840346 c 0,0 1.919976,0 1.919976,0 0,0 0,1.920364 0,1.920364 0,0 -1.919976,0 -1.919976,0 0,0 0,-1.920364 0,-1.920364 z"
         inkscape:connector-curvature="0"
         style="fill:#f95110;fill-rule:evenodd;stroke:none;paint-order:stroke fill markers;fill-opacity:1" />
    </g>
  </g>
</svg>
