<?xml version="1.0" encoding="UTF-8" standalone="no"?>
<!-- Created with Inkscape (http://www.inkscape.org/) -->

<svg
   xmlns:dc="http://purl.org/dc/elements/1.1/"
   xmlns:cc="http://creativecommons.org/ns#"
   xmlns:rdf="http://www.w3.org/1999/02/22-rdf-syntax-ns#"
   xmlns:svg="http://www.w3.org/2000/svg"
   xmlns="http://www.w3.org/2000/svg"
   xmlns:sodipodi="http://sodipodi.sourceforge.net/DTD/sodipodi-0.dtd"
   xmlns:inkscape="http://www.inkscape.org/namespaces/inkscape"
   width="16.5mm"
   height="16.5mm"
   viewBox="0 0 16.5 16.5"
   version="1.1"
   id="svg8"
   sodipodi:docname="12.svg"
   inkscape:version="0.92.3 (2405546, 2018-03-11)">
  <defs
     id="defs2" />
  <sodipodi:namedview
     id="base"
     pagecolor="#ffffff"
     bordercolor="#666666"
     borderopacity="1.0"
     inkscape:pageopacity="0.0"
     inkscape:pageshadow="2"
     inkscape:zoom="1.4"
     inkscape:cx="107.73613"
     inkscape:cy="92.075551"
     inkscape:document-units="mm"
     inkscape:current-layer="layer1"
     showgrid="false"
     height="29mm"
     inkscape:window-width="1366"
     inkscape:window-height="705"
     inkscape:window-x="-8"
     inkscape:window-y="-8"
     inkscape:window-maximized="1" />
  <metadata
     id="metadata5">
    <rdf:RDF>
      <cc:Work
         rdf:about="">
        <dc:format>image/svg+xml</dc:format>
        <dc:type
           rdf:resource="http://purl.org/dc/dcmitype/StillImage" />
        <dc:title></dc:title>
      </cc:Work>
    </rdf:RDF>
  </metadata>
  <g
     inkscape:label="Layer 1"
     inkscape:groupmode="layer"
     id="layer1"
     transform="translate(0,-280.5)">
    <g
       id="g4686"
       transform="matrix(0.26458333,0,0,0.26458333,-0.45051873,280.1714)"
       style="fill:#f95110;fill-opacity:1">
      <path
         id="path4684"
         d="m 21.616081,14.84248 c 0.119934,0 0.242272,-0.02448 0.359917,-0.07613 0.0057,-0.0027 0.591545,-0.244062 1.331749,-0.169849 0.494957,0.0482 0.935211,-0.312155 0.984421,-0.807165 0.04921,-0.49501 -0.312195,-0.935699 -0.806809,-0.985047 -1.205978,-0.120119 -2.126198,0.265867 -2.22702,0.310242 -0.455132,0.200452 -0.665131,0.732951 -0.464974,1.18856 0.148659,0.33702 0.477219,0.539385 0.822716,0.539385 z m -4.983787,-0.246358 c 0.728874,-0.0723 1.307373,0.159903 1.330719,0.169849 0.115814,0.05011 0.236778,0.07345 0.355339,0.07345 0.345955,0 0.676002,-0.200835 0.824547,-0.537855 0.200157,-0.455225 -0.0065,-0.986577 -0.461655,-1.187029 -0.100823,-0.04438 -1.020928,-0.429978 -2.227135,-0.310242 -0.494499,0.04935 -0.855903,0.490037 -0.806694,0.985047 0.04921,0.494245 0.489464,0.855365 0.984879,0.806782 z M 4.5398941,39.612496 c 0,0 0.3600311,0 0.3600311,0 0,0 0,0.940673 0,0.940673 0,0.497305 0.4031754,0.900505 0.8999634,0.900505 0.4973602,0 0.9000778,-0.4032 0.9000778,-0.900505 0,0 0,-0.940673 0,-0.940673 0,0 51.7199706,0 51.7199706,0 0,0 0,12.455588 0,12.455588 0,0.497305 0.403175,0.900122 0.899964,0.900122 0.49736,0 0.900077,-0.402817 0.900077,-0.900122 0,0 0,-12.455588 0,-12.455588 0,0 0.359917,0 0.359917,0 1.488762,0 2.700005,-1.211895 2.700005,-2.701133 0,-1.489621 -1.211243,-2.701133 -2.700005,-2.701133 0,0 -12.959976,0 -12.959976,0 0,0 0,-2.341161 0,-2.341161 0,0 5.100059,0 5.100059,0 1.157799,0 2.099991,-0.942585 2.099991,-2.100924 0,0 0,-10.804534 0,-10.804534 0,-1.158339 -0.942192,-2.100924 -2.099991,-2.100924 0,0 -16.800041,0 -16.800041,0 -1.157799,0 -2.099991,0.942585 -2.099991,2.100924 0,0 0,10.804534 0,10.804534 0,1.158339 0.942192,2.100924 2.099991,2.100924 0,0 5.10006,0 5.10006,0 0,0 0,2.341161 0,2.341161 0,0 -10.966874,0 -10.966874,0 0,0 0,-0.431126 0,-0.431126 0,-1.086421 -0.190315,-2.139178 -0.566253,-3.129581 -0.176354,-0.465172 -0.695687,-0.698905 -1.16066,-0.522553 -0.464516,0.176734 -0.698433,0.696227 -0.522194,1.161017 0.298119,0.785742 0.449066,1.62351 0.449066,2.491117 0,0 0,0.431126 0,0.431126 0,0 -16.566124,0 -16.566124,0 0,0 0,-0.431126 0,-0.431126 0,-3.367905 2.318001,-6.108058 5.167008,-6.108058 0,0 6.231651,0 6.231651,0 0.981102,0 1.935883,0.327457 2.761803,0.947176 0.397567,0.298383 0.961418,0.218049 1.259994,-0.179413 0.298119,-0.398227 0.217552,-0.962477 -0.180015,-1.261243 -1.139489,-0.855365 -2.467919,-1.307913 -3.841782,-1.307913 0,0 -0.175781,0 -0.175781,0 0,0 0,-2.17399 0,-2.17399 2.331962,-0.921927 4.127769,-2.914592 4.776535,-5.370515 0.226364,0.06465 0.461197,0.09793 0.700264,0.09793 1.549301,0 2.67334,-1.518695 2.67334,-3.611203 0,-1.853801 -0.963822,-3.130728 -2.423973,-3.260793 0.09006,-1.030952 -0.02907,-1.9226591 -0.07542,-2.213774 0.0014,-0.3607377 -0.03708,-1.5688072 -0.558815,-2.805185 -0.562935,-1.3343086 -1.780701,-2.9390748 -4.399681,-3.2137404 -0.656204,-0.6591209 -2.3592,-1.6147124 -6.509514,-0.9203975 -2.248535,0.377187 -3.953361,1.7168512 -4.930229,3.8747741 -0.634804,1.4027837 -0.757141,2.7187303 -0.777741,3.0293549 -0.0412,0.2486527 -0.175323,1.1728759 -0.08057,2.2489679 -1.4606094,0.130065 -2.4248886,1.406992 -2.4248886,3.261176 0,2.092508 1.1244966,3.61082 2.6737976,3.61082 0.239067,0 0.4739,-0.03328 0.700264,-0.09755 0.648766,2.455924 2.444572,4.448206 4.776535,5.370133 0,0 0,2.174755 0,2.174755 0,0 -0.175323,0 -0.175323,0 -3.841782,0 -6.9675069,3.548083 -6.9675069,7.908686 0,0 0,0.431126 0,0.431126 0,0 -5.347023,0 -5.347023,0 -1.4886475,0 -2.7000046,1.211512 -2.7000046,2.701133 0,1.489238 1.2113571,2.701133 2.7000046,2.701133 z M 29.259933,14.812259 c 0,0.981222 -0.399856,1.810191 -0.873298,1.810191 -0.172005,0 -0.319634,-0.05891 -0.441513,-0.13848 0.0014,-0.06312 0.0047,-0.125474 0.0047,-0.189359 0,0 0,-2.502211 0,-2.502211 0.11158,-0.128152 0.201988,-0.274283 0.272827,-0.43189 0.0539,-0.01224 0.108719,-0.02027 0.163994,-0.02027 0.81047,0 0.873298,1.12697 0.873298,1.472024 z M 13.164505,9.5725727 c 0.0074,-0.041315 0.01259,-0.085307 0.01453,-0.1270041 0.0088,-0.1874459 0.261497,-4.6092559 4.210739,-5.2710547 3.771629,-0.6311953 4.812699,0.286907 4.962616,0.44834 0.12291,0.3282215 0.389557,0.4456621 0.749588,0.4628765 1.585808,0.077274 2.639465,0.7639376 3.221283,2.0993939 0.46875,1.07724 0.437279,2.1759023 0.436821,2.1839357 -0.0027,0.068093 0.0024,0.1365678 0.01499,0.2035127 0.0029,0.016832 0.294342,1.6728593 -0.16594,2.9796243 C 25.944008,11.941659 25.554451,10.26727 25.463585,9.3216248 25.436348,9.03204 25.270866,8.7730587 25.018753,8.6273099 23.345284,7.6564168 22.966942,6.6675441 22.927116,6.549721 22.847008,6.1924262 22.562393,5.9376528 22.200531,5.8783587 21.835922,5.8175344 21.474976,6.006893 21.285576,6.3247859 20.55098,7.555043 17.213997,8.3182155 15.283722,8.5098693 14.854797,8.5523316 14.516396,8.8927945 14.475998,9.3216248 14.401039,10.119609 14.025558,11.912203 13.33136,12.552197 12.866844,11.236633 13.161644,9.5874919 13.164505,9.5725727 Z M 11.552948,16.62245 c -0.473442,0 -0.873756,-0.828969 -0.873756,-1.810191 0,-0.345054 0.06328,-1.472024 0.873756,-1.472024 0.05573,0 0.11055,0.008 0.165482,0.02066 0.06981,0.15646 0.160217,0.301826 0.271339,0.429978 0,0 0,2.503741 0,2.503741 0,0.06388 0.0033,0.126622 0.0047,0.190124 -0.12188,0.0788 -0.269051,0.137715 -0.441513,0.137715 z m 2.236862,-0.327839 c 0,0 0,-1.966269 0,-1.966269 0.205765,-0.05968 0.400772,-0.157607 0.575638,-0.294175 1.145554,-0.891707 1.619911,-2.767696 1.80233,-3.818923 1.324196,-0.189741 4.061279,-0.7111464 5.698128,-1.9383431 0.382461,0.502661 0.969772,1.0963671 1.862755,1.6713287 0.144424,0.9666854 0.595779,3.1119844 1.845016,4.0851724 0.174866,0.13695 0.370331,0.234116 0.575638,0.293793 0,0 0,1.967416 0,1.967416 0,3.394301 -2.759972,6.155494 -6.152344,6.155494 0,0 -0.05482,0 -0.05482,0 -3.392372,0 -6.152344,-2.761193 -6.152344,-6.155494 z m 5.039978,7.876553 c 0.363693,0.05126 0.734482,0.07995 1.112366,0.07995 0,0 0.05528,0 0.05528,0 0.377312,0 0.748558,-0.02869 1.112366,-0.07995 0,0 0,1.699254 0,1.699254 0,0 -2.280007,0 -2.280007,0 0,0 0,-1.699254 0,-1.699254 z m 17.090149,5.897277 c -0.165481,0 -0.29995,-0.134655 -0.29995,-0.300296 0,0 0,-10.804534 0,-10.804534 0,-0.165258 0.134469,-0.300296 0.29995,-0.300296 0,0 16.800041,0 16.800041,0 0.165482,0 0.29995,0.135038 0.29995,0.300296 0,0 0,10.804534 0,10.804534 0,0.165641 -0.134468,0.300296 -0.29995,0.300296 0,0 -5.100059,0 -5.100059,0 0,0 0,-3.361402 0,-3.361402 0,-1.820521 -1.480293,-3.301726 -3.300018,-3.301726 -1.819611,0 -3.299904,1.481205 -3.299904,3.301726 0,0 0,3.361402 0,3.361402 0,0 -5.10006,0 -5.10006,0 z m 6.899986,-3.361402 c 0,-0.82744 0.673142,-1.500715 1.499978,-1.500715 0.827407,0 1.500091,0.673275 1.500091,1.500715 0,0 0,7.503191 0,7.503191 0,0 -3.000069,0 -3.000069,0 0,0 0,-7.503191 0,-7.503191 z M 4.5398941,36.010858 c 0,0 56.0400009,0 56.0400009,0 0.496445,0 0.900078,0.403965 0.900078,0.900505 0,0.49654 -0.403633,0.900505 -0.900078,0.900505 0,0 -56.0400009,0 -56.0400009,0 -0.4963303,0 -0.8999634,-0.403965 -0.8999634,-0.900505 0,-0.49654 0.4036331,-0.900505 0.8999634,-0.900505 z M 60.579895,58.221282 c 0,0 -0.359917,0 -0.359917,0 0,0 0,-2.281102 0,-2.281102 0,-0.497688 -0.402717,-0.900505 -0.900077,-0.900505 -0.496789,0 -0.899964,0.402817 -0.899964,0.900505 0,0 0,2.281102 0,2.281102 0,0 -51.7199706,0 -51.7199706,0 0,0 0,-13.806346 0,-13.806346 0,-0.497305 -0.4027176,-0.900123 -0.9000778,-0.900123 -0.496788,0 -0.8999634,0.402818 -0.8999634,0.900123 0,0 0,13.806346 0,13.806346 0,0 -0.3600311,0 -0.3600311,0 -1.4886475,0 -2.7000046,1.211129 -2.7000046,2.701133 0,1.489238 1.2113571,2.701133 2.7000046,2.701133 0,0 56.0400009,0 56.0400009,0 1.488762,0 2.700005,-1.211895 2.700005,-2.701133 0,-1.490004 -1.211243,-2.701133 -2.700005,-2.701133 z m 0,3.601256 c 0,0 -56.0400009,0 -56.0400009,0 -0.4963303,0 -0.8999634,-0.403965 -0.8999634,-0.900123 0,-0.496923 0.4036331,-0.900505 0.8999634,-0.900505 0,0 56.0400009,0 56.0400009,0 0.496445,0 0.900078,0.403582 0.900078,0.900505 0,0.496158 -0.403633,0.900123 -0.900078,0.900123 z M 25.359901,42.913839 c -3.142891,0 -5.699958,2.558445 -5.699958,5.702563 0,3.1445 2.557067,5.702562 5.699958,5.702562 0,0 14.399987,0 14.399987,0 3.143005,0 5.700073,-2.558062 5.700073,-5.702562 0,-3.144118 -2.557068,-5.702563 -5.700073,-5.702563 0,0 -14.399987,0 -14.399987,0 z m 18.300019,5.702945 c 0,2.15142 -1.749344,3.901935 -3.900032,3.901935 0,0 -14.399987,0 -14.399987,0 -2.150116,0 -3.899917,-1.750515 -3.899917,-3.901935 0,-2.151419 1.749801,-3.901552 3.899917,-3.901552 0,0 14.399987,0 14.399987,0 2.150688,-3.82e-4 3.900032,1.750133 3.900032,3.901552 z M 23.289436,18.698892 c 0.428467,-0.252096 0.570946,-0.804105 0.318375,-1.232935 -0.252686,-0.428065 -0.804405,-0.570754 -1.232414,-0.317893 -0.0089,0.0054 -0.912667,0.51452 -2.351647,0.51452 -1.448478,0 -2.493324,-0.523701 -2.519531,-0.537473 -0.439224,-0.229143 -0.981102,-0.06044 -1.21273,0.377953 -0.231972,0.439924 -0.06329,0.984282 0.375938,1.216485 0.05768,0.0306 1.430626,0.743663 3.356323,0.743663 1.947556,0 3.2127,-0.732952 3.265686,-0.76432 z"
         inkscape:connector-curvature="0"
         style="fill:#f95110;fill-rule:evenodd;stroke:none;paint-order:stroke fill markers;fill-opacity:1" />
    </g>
  </g>
</svg>
