<?xml version="1.0" encoding="UTF-8" standalone="no"?>
<!-- Created with Inkscape (http://www.inkscape.org/) -->

<svg
   xmlns:dc="http://purl.org/dc/elements/1.1/"
   xmlns:cc="http://creativecommons.org/ns#"
   xmlns:rdf="http://www.w3.org/1999/02/22-rdf-syntax-ns#"
   xmlns:svg="http://www.w3.org/2000/svg"
   xmlns="http://www.w3.org/2000/svg"
   xmlns:sodipodi="http://sodipodi.sourceforge.net/DTD/sodipodi-0.dtd"
   xmlns:inkscape="http://www.inkscape.org/namespaces/inkscape"
   width="16.5mm"
   height="16.5mm"
   viewBox="0 0 16.5 16.5"
   version="1.1"
   id="svg8"
   sodipodi:docname="13.svg"
   inkscape:version="0.92.3 (2405546, 2018-03-11)">
  <defs
     id="defs2" />
  <sodipodi:namedview
     id="base"
     pagecolor="#ffffff"
     bordercolor="#666666"
     borderopacity="1.0"
     inkscape:pageopacity="0.0"
     inkscape:pageshadow="2"
     inkscape:zoom="1.4"
     inkscape:cx="107.73613"
     inkscape:cy="92.075551"
     inkscape:document-units="mm"
     inkscape:current-layer="layer1"
     showgrid="false"
     height="29mm"
     inkscape:window-width="1366"
     inkscape:window-height="705"
     inkscape:window-x="-8"
     inkscape:window-y="-8"
     inkscape:window-maximized="1" />
  <metadata
     id="metadata5">
    <rdf:RDF>
      <cc:Work
         rdf:about="">
        <dc:format>image/svg+xml</dc:format>
        <dc:type
           rdf:resource="http://purl.org/dc/dcmitype/StillImage" />
        <dc:title></dc:title>
      </cc:Work>
    </rdf:RDF>
  </metadata>
  <g
     inkscape:label="Layer 1"
     inkscape:groupmode="layer"
     id="layer1"
     transform="translate(0,-280.5)">
    <g
       id="g4700"
       transform="matrix(0.25227942,0,0,0.25227942,0.13155331,280.6359)"
       style="fill:#f95110;fill-opacity:1">
      <path
         id="path4698"
         d="m 15.031906,26.783025 c -2.258949,0 -4.095955,1.836969 -4.095955,4.095883 0,2.258914 1.83712,4.096267 4.095955,4.096267 2.258835,0 4.095955,-1.837353 4.095955,-4.096267 0,-2.258914 -1.837006,-4.095883 -4.095955,-4.095883 z m 0,6.144016 c -1.129417,0 -2.048035,-0.918484 -2.048035,-2.048133 0,-1.129266 0.918503,-2.048133 2.048035,-2.048133 1.129418,0 2.048035,0.918867 2.048035,2.048133 0,1.129649 -0.918503,2.048133 -2.048035,2.048133 z m 34.816132,-6.144016 c -2.259064,0 -4.09607,1.836969 -4.09607,4.095883 0,2.258914 1.83712,4.096267 4.09607,4.096267 2.258949,0 4.095955,-1.837353 4.095955,-4.096267 0,-2.258914 -1.83712,-4.095883 -4.095955,-4.095883 z m 0,6.144016 c -1.129532,0 -2.048149,-0.918484 -2.048149,-2.048133 0,-1.129266 0.918502,-2.048133 2.048149,-2.048133 1.129417,0 2.048034,0.918867 2.048034,2.048133 -1.14e-4,1.129649 -0.918617,2.048133 -2.048034,2.048133 z M 32.439972,26.783025 c -2.259064,0 -4.095955,1.836969 -4.095955,4.095883 0,2.258914 1.837006,4.096267 4.095955,4.096267 2.258949,0 4.095955,-1.837353 4.095955,-4.096267 0,-2.258914 -1.837006,-4.095883 -4.095955,-4.095883 z m 0,6.144016 c -1.129417,0 -2.048035,-0.918484 -2.048035,-2.048133 0,-1.129266 0.918503,-2.048133 2.048035,-2.048133 1.129417,0 2.048035,0.918867 2.048035,2.048133 0,1.129649 -0.918618,2.048133 -2.048035,2.048133 z m -7.166977,5.120333 c 0,0 -20.4821777,0 -20.4821777,0 -1.6936112,0 -3.0709076,1.378301 -3.0709076,3.07067 0,0 0,12.290329 0,12.290329 0,1.692751 1.3772964,3.071052 3.0709076,3.071052 0,0 20.4821777,0 20.4821777,0 1.693611,0 3.070908,-1.378301 3.070908,-3.071052 0,0 0,-12.290329 0,-12.290329 1.14e-4,-1.692369 -1.377297,-3.07067 -3.070908,-3.07067 z m 1.022987,15.360999 c 0,0.56425 -0.458793,1.023301 -1.022987,1.023301 0,0 -20.4821777,0 -20.4821777,0 -0.5641938,0 -1.0229874,-0.459051 -1.0229874,-1.023301 0,0 0,-12.290329 0,-12.290329 0,-0.564251 0.4587936,-1.022919 1.0229874,-1.022919 0,0 20.4821777,0 20.4821777,0 0.564194,0 1.022987,0.458668 1.022987,1.022919 0,0 0,12.290329 0,12.290329 z m 1.023903,-3.072965 c 0,0 -24.575958,0 -24.575958,0 -0.5652237,0 -1.0240173,0.457903 -1.0240173,1.024067 0,0 0,2.048898 0,2.048898 0,1.692751 1.3772964,3.071052 3.0709076,3.071052 0,0 20.4821777,0 20.4821777,0 1.693611,0 3.070908,-1.378301 3.070908,-3.071052 0,0 0,-2.048898 0,-2.048898 1.14e-4,-0.566164 -0.45868,-1.024067 -1.024018,-1.024067 z m -1.023903,3.072965 c 0,0.56425 -0.458793,1.023301 -1.022987,1.023301 0,0 -20.4821777,0 -20.4821777,0 -0.5641938,0 -1.0229874,-0.459051 -1.0229874,-1.023301 0,0 0,-1.024832 0,-1.024832 0,0 22.5281521,0 22.5281521,0 0,0 0,1.024832 0,1.024832 z m -8.192024,1.023301 c 0,0 -6.144104,0 -6.144104,0 -0.565109,0 -1.023903,0.457521 -1.023903,1.023684 0,0 0,6.1444 0,6.1444 0,0.566163 0.458794,1.023684 1.023903,1.023684 0,0 6.144104,0 6.144104,0 0.565109,0 1.023903,-0.457521 1.023903,-1.023684 0,0 0,-6.1444 0,-6.1444 1.14e-4,-0.566163 -0.458679,-1.023684 -1.023903,-1.023684 z m -1.024017,6.144017 c 0,0 -4.095955,0 -4.095955,0 0,0 0,-4.096266 0,-4.096266 0,0 4.095955,0 4.095955,0 0,0 0,4.096266 0,4.096266 z m 4.095955,0 c 0,0 -12.2879794,0 -12.2879794,0 -0.5652237,0 -1.0240174,0.457521 -1.0240174,1.024067 0,0.566163 0.4587937,1.023684 1.0240174,1.023684 0,0 12.2879794,0 12.2879794,0 0.565223,0 1.024017,-0.457521 1.024017,-1.023684 1.14e-4,-0.566546 -0.458679,-1.024067 -1.024017,-1.024067 z M 60.089012,38.047374 c 0,0 -20.482063,0 -20.482063,0 -1.693726,0 -3.070908,1.378301 -3.070908,3.07067 0,0 0,12.290329 0,12.290329 0,1.692751 1.377182,3.071052 3.070908,3.071052 0,0 20.482063,0 20.482063,0 1.693726,0 3.070908,-1.378301 3.070908,-3.071052 0,0 0,-12.290329 0,-12.290329 0,-1.692369 -1.377182,-3.07067 -3.070908,-3.07067 z m 1.022873,15.360999 c 0,0.56425 -0.458794,1.023301 -1.022987,1.023301 0,0 -20.481949,0 -20.481949,0 -0.564194,0 -1.022988,-0.459051 -1.022988,-1.023301 0,0 0,-12.290329 0,-12.290329 0,-0.564251 0.458794,-1.022919 1.022988,-1.022919 0,0 20.482063,0 20.482063,0 0.564194,0 1.022988,0.458668 1.022988,1.022919 0,0 0,12.290329 0,12.290329 0,0 -1.15e-4,0 -1.15e-4,0 z m 1.024132,-3.072965 c 0,0 -24.576073,0 -24.576073,0 -0.565109,0 -1.023903,0.457903 -1.023903,1.024067 0,0 0,2.048898 0,2.048898 0,1.692751 1.377182,3.071052 3.070908,3.071052 0,0 20.482063,0 20.482063,0 1.693726,0 3.070908,-1.378301 3.070908,-3.071052 0,0 0,-2.048898 0,-2.048898 0,-0.566164 -0.458794,-1.024067 -1.023903,-1.024067 z m -1.024132,3.072965 c 0,0.56425 -0.458794,1.023301 -1.022987,1.023301 0,0 -20.481949,0 -20.481949,0 -0.564194,0 -1.022988,-0.459051 -1.022988,-1.023301 0,0 0,-1.024832 0,-1.024832 0,0 22.527924,0 22.527924,0 0,0 0,1.024832 0,1.024832 z m -8.19191,1.023301 c 0,0 -6.143989,0 -6.143989,0 -0.565224,0 -1.024018,0.457521 -1.024018,1.023684 0,0 0,6.1444 0,6.1444 0,0.566163 0.458794,1.023684 1.024018,1.023684 0,0 6.143989,0 6.143989,0 0.565224,0 1.024018,-0.457521 1.024018,-1.023684 0,0 0,-6.1444 0,-6.1444 0,-0.566163 -0.458794,-1.023684 -1.024018,-1.023684 z m -1.024017,6.144017 c 0,0 -4.096069,0 -4.096069,0 0,0 0,-4.096266 0,-4.096266 0,0 4.096069,0 4.096069,0 0,0 0,4.096266 0,4.096266 z m 4.096069,0 c 0,0 -12.288093,0 -12.288093,0 -0.56511,0 -1.023903,0.457521 -1.023903,1.024067 0,0.566163 0.458793,1.023684 1.023903,1.023684 0,0 12.288093,0 12.288093,0 0.56511,0 1.023903,-0.457521 1.023903,-1.023684 0,-0.566546 -0.458793,-1.024067 -1.023903,-1.024067 z M 42.680946,1.1836556 c 0,0 -20.482063,0 -20.482063,0 -1.693611,0 -3.070908,1.378301 -3.070908,3.0710521 0,0 0,11.2651143 0,11.2651143 0,1.692752 1.377297,3.071053 3.070908,3.071053 0,0 20.482063,0 20.482063,0 1.693726,0 3.070908,-1.378684 3.070908,-3.071053 0,0 0,-11.2651143 0,-11.2651143 0,-1.6927511 -1.377182,-3.0710521 -3.070908,-3.0710521 z m 1.022988,14.3361664 c 0,0.564251 -0.458679,1.022919 -1.022988,1.022919 0,0 -20.482063,0 -20.482063,0 -0.564194,0 -1.022987,-0.458668 -1.022987,-1.022919 0,0 0,-11.2651143 0,-11.2651143 0,-0.5642504 0.458793,-1.0229189 1.022987,-1.0229189 0,0 20.482063,0 20.482063,0 0.564309,0 1.022988,0.4586685 1.022988,1.0229189 0,0 0,11.2651143 0,11.2651143 z m 1.024017,-3.072964 c 0,0 -24.575958,0 -24.575958,0 -0.565224,0 -1.024018,0.457521 -1.024018,1.023684 0,0 0,2.04928 0,2.04928 0,1.692752 1.377297,3.071053 3.070908,3.071053 0,0 20.482063,0 20.482063,0 1.693726,0 3.070908,-1.378684 3.070908,-3.071053 0,0 0,-2.04928 0,-2.04928 0,-0.566163 -0.458679,-1.023684 -1.023903,-1.023684 z m -1.024017,3.072964 c 0,0.564251 -0.458679,1.022919 -1.022988,1.022919 0,0 -20.482063,0 -20.482063,0 -0.564194,0 -1.022987,-0.458668 -1.022987,-1.022919 0,0 0,-1.025214 0,-1.025214 0,0 22.527923,0 22.527923,0 0,0 0,1.025214 0,1.025214 0,0 1.15e-4,0 1.15e-4,0 z m -8.192025,1.022919 c 0,0 -6.143989,0 -6.143989,0 -0.565224,0 -1.023903,0.457904 -1.023903,1.024067 0,0 0,6.144017 0,6.144017 0,0.566545 0.458679,1.024066 1.023903,1.024066 0,0 6.143989,0 6.143989,0 0.565224,0 1.024018,-0.457521 1.024018,-1.024066 0,0 0,-6.144017 0,-6.144017 0,-0.566163 -0.458794,-1.024067 -1.024018,-1.024067 z m -1.023902,6.1444 c 0,0 -4.095955,0 -4.095955,0 0,0 0,-4.096266 0,-4.096266 0,0 4.095955,0 4.095955,0 0,0 0,4.096266 0,4.096266 z m 4.095954,0 c 0,0 -12.287979,0 -12.287979,0 -0.565223,0 -1.024017,0.457521 -1.024017,1.023684 0,0.566545 0.458794,1.024066 1.024017,1.024066 0,0 12.287979,0 12.287979,0 0.565224,0 1.023903,-0.457521 1.023903,-1.024066 0,-0.566163 -0.458679,-1.023684 -1.023903,-1.023684 z m -9.216041,7.168083 c 0,0 -11.263962,0 -11.263962,0 -0.565224,0 -1.024017,0.457521 -1.024017,1.023684 0,0.566546 0.458793,1.024067 1.024017,1.024067 0,0 11.263962,0 11.263962,0 0.565224,0 1.024017,-0.457521 1.024017,-1.024067 0,-0.566163 -0.458793,-1.023684 -1.024017,-1.023684 z m 17.408066,0 c 0,0 -11.264077,0 -11.264077,0 -0.565223,0 -1.023902,0.457521 -1.023902,1.023684 0,0.566546 0.458679,1.024067 1.023902,1.024067 0,0 11.264077,0 11.264077,0 0.565223,0 1.023903,-0.457521 1.023903,-1.024067 0,-0.566163 -0.45868,-1.023684 -1.023903,-1.023684 z m 15.360031,0 c 0,0 -9.216042,0 -9.216042,0 -0.565223,0 -1.023903,0.457521 -1.023903,1.023684 0,0.566546 0.45868,1.024067 1.023903,1.024067 0,0 9.216042,0 9.216042,0 0.565109,0 1.023903,-0.457521 1.023903,-1.024067 0,-0.566163 -0.458794,-1.023684 -1.023903,-1.023684 z m 0,-2.048133 c -0.565224,0 -1.024017,0.457521 -1.024017,1.023684 0,0 0,4.096266 0,4.096266 0,0.566163 0.458793,1.024067 1.024017,1.024067 0.565109,0 1.023903,-0.457904 1.023903,-1.024067 0,0 0,-4.096266 0,-4.096266 0,-0.566163 -0.458794,-1.023684 -1.023903,-1.023684 z m -50.176163,2.048133 c 0,0 -9.215927,0 -9.215927,0 -0.5652237,0 -1.0240173,0.457521 -1.0240173,1.023684 0,0.566546 0.4587936,1.024067 1.0240173,1.024067 0,0 9.215927,0 9.215927,0 0.565224,0 1.024017,-0.457521 1.024017,-1.024067 0,-0.566163 -0.458679,-1.023684 -1.024017,-1.023684 z M 2.743927,27.807091 c -0.5652237,0 -1.0240173,0.457521 -1.0240173,1.023684 0,0 0,4.096266 0,4.096266 0,0.566163 0.4587936,1.024067 1.0240173,1.024067 0.5652237,0 1.0239029,-0.457904 1.0239029,-1.024067 0,0 0,-4.096266 0,-4.096266 1.144e-4,-0.566163 -0.4585648,-1.023684 -1.0239029,-1.023684 z m 12.287979,5.11995 c -0.565224,0 -1.024017,0.457904 -1.024017,1.024067 0,0 0,5.11995 0,5.11995 0,0.566546 0.458793,1.024067 1.024017,1.024067 0.565224,0 1.023903,-0.457521 1.023903,-1.024067 0,0 0,-5.11995 0,-5.11995 2.29e-4,-0.566163 -0.458565,-1.024067 -1.023903,-1.024067 z m 34.816132,0 c -0.565224,0 -1.024018,0.457904 -1.024018,1.024067 0,0 0,5.11995 0,5.11995 0,0.566546 0.458794,1.024067 1.024018,1.024067 0.565109,0 1.023903,-0.457521 1.023903,-1.024067 0,0 0,-5.11995 0,-5.11995 0,-0.566163 -0.458794,-1.024067 -1.023903,-1.024067 z M 32.439972,23.710825 c -0.565224,0 -1.024017,0.457903 -1.024017,1.024066 0,0 0,3.0722 0,3.0722 0,0.566163 0.458793,1.023684 1.024017,1.023684 0.565224,0 1.023903,-0.457521 1.023903,-1.023684 0,0 0,-3.0722 0,-3.0722 0,-0.566163 -0.458679,-1.024066 -1.023903,-1.024066 z"
         inkscape:connector-curvature="0"
         style="fill:#f95110;fill-opacity:1;fill-rule:evenodd;stroke:none;paint-order:stroke fill markers" />
    </g>
  </g>
</svg>
