<?xml version="1.0" encoding="UTF-8" standalone="no"?>
<!-- Created with Inkscape (http://www.inkscape.org/) -->

<svg
   xmlns:dc="http://purl.org/dc/elements/1.1/"
   xmlns:cc="http://creativecommons.org/ns#"
   xmlns:rdf="http://www.w3.org/1999/02/22-rdf-syntax-ns#"
   xmlns:svg="http://www.w3.org/2000/svg"
   xmlns="http://www.w3.org/2000/svg"
   xmlns:sodipodi="http://sodipodi.sourceforge.net/DTD/sodipodi-0.dtd"
   xmlns:inkscape="http://www.inkscape.org/namespaces/inkscape"
   width="16.5mm"
   height="16.5mm"
   viewBox="0 0 16.5 16.5"
   version="1.1"
   id="svg8"
   sodipodi:docname="14.svg"
   inkscape:version="0.92.3 (2405546, 2018-03-11)">
  <defs
     id="defs2" />
  <sodipodi:namedview
     id="base"
     pagecolor="#ffffff"
     bordercolor="#666666"
     borderopacity="1.0"
     inkscape:pageopacity="0.0"
     inkscape:pageshadow="2"
     inkscape:zoom="1.4"
     inkscape:cx="107.73613"
     inkscape:cy="92.075551"
     inkscape:document-units="mm"
     inkscape:current-layer="layer1"
     showgrid="false"
     height="29mm"
     inkscape:window-width="1366"
     inkscape:window-height="705"
     inkscape:window-x="-8"
     inkscape:window-y="-8"
     inkscape:window-maximized="1" />
  <metadata
     id="metadata5">
    <rdf:RDF>
      <cc:Work
         rdf:about="">
        <dc:format>image/svg+xml</dc:format>
        <dc:type
           rdf:resource="http://purl.org/dc/dcmitype/StillImage" />
        <dc:title></dc:title>
      </cc:Work>
    </rdf:RDF>
  </metadata>
  <g
     inkscape:label="Layer 1"
     inkscape:groupmode="layer"
     id="layer1"
     transform="translate(0,-280.5)">
    <g
       id="g4714"
       transform="matrix(0.24557995,0,0,0.24557995,0.76873987,280.89223)"
       style="fill:#f95110;fill-opacity:1">
      <path
         id="path4712"
         d="m 52.057701,14.513353 c 0,0 -1.613388,0 -1.613388,0 0,0 0,-3.584424 0,-3.584424 0,-5.1035013 -4.163589,-9.2594443 -9.277039,-9.2594443 0,0 -19.477958,0 -19.477958,0 -5.113449,0 -9.277039,4.155943 -9.277039,9.2594443 0,0 0,3.584424 0,3.584424 0,0 -1.470222,0 -1.470222,0 -5.1134493,0 -9.2771533,4.15556 -9.2771533,9.259444 0,0 0,14.934463 0,14.934463 0,5.103884 4.163704,9.259444 9.2771533,9.259444 0,0 1.457176,0 1.457176,0 0,0 0,11.73985 0,11.73985 0,2.545439 2.081795,4.62341 4.632111,4.62341 0,0 28.767929,0 28.767929,0 2.550201,0 4.631996,-2.077971 4.631996,-4.62341 0,0 0,-11.73985 0,-11.73985 0,0 1.626434,0 1.626434,0 5.113449,0 9.277039,-4.15556 9.277039,-9.259444 0,0 0,-14.934463 0,-14.934463 0,-5.103884 -4.16359,-9.259444 -9.277039,-9.259444 z M 15.912338,10.928929 c 0,-3.1686008 2.589226,-5.7530587 5.763932,-5.7530587 0,0 19.464912,0 19.464912,0 3.17482,0 5.764046,2.5844579 5.764046,5.7530587 0,0 0,3.584424 0,3.584424 0,0 -30.99289,0 -30.99289,0 0,0 0,-3.584424 0,-3.584424 z m 31.005936,48.803638 c 0,0.610538 -0.507546,1.117025 -1.119003,1.117025 0,0 -28.767929,0 -28.767929,0 -0.611573,0 -1.119004,-0.506487 -1.119004,-1.117025 0,0 0,-19.363159 0,-19.363159 0,0 31.005936,0 31.005936,0 0,0 0,19.363159 0,19.363159 z m 10.903358,-21.0123 c 0,3.1686 -2.589225,5.753058 -5.763931,5.753058 0,0 -1.613388,0 -1.613388,0 0,0 0,-4.103917 0,-4.103917 0,0 2.315941,0 2.315941,0 0.975838,0 1.756554,-0.778857 1.756554,-1.753193 0,-0.973953 -0.780716,-1.753193 -1.756554,-1.753193 0,0 -42.9372025,0 -42.9372025,0 -0.9758378,0 -1.7565537,0.77924 -1.7565537,1.753193 0,0.974336 0.7807159,1.753193 1.7565537,1.753193 0,0 2.5892255,0 2.5892255,0 0,0 0,4.103917 0,4.103917 0,0 -1.470222,0 -1.470222,0 -3.1748202,0 -5.764046,-2.584458 -5.764046,-5.753058 0,0 0,-14.934464 0,-14.934464 0,-3.168983 2.5892258,-5.753058 5.764046,-5.753058 0,0 41.115646,0 41.115646,0 3.174706,0 5.763931,2.584075 5.763931,5.753058 0,0 0,14.934464 0,14.934464 z M 20.167023,48.992683 c 0,0 22.366447,0 22.366447,0 0.975838,0 1.756439,-0.779239 1.756439,-1.753192 0,-0.973954 -0.780601,-1.753193 -1.756439,-1.753193 0,0 -22.366447,0 -22.366447,0 -0.975838,0 -1.756554,0.779239 -1.756554,1.753193 0,0.973953 0.793762,1.753192 1.756554,1.753192 z m 22.509498,3.662081 c 0,0 -22.379379,0 -22.379379,0 -0.975838,0 -1.756554,0.779239 -1.756554,1.753193 0,0.973953 0.780716,1.753192 1.756554,1.753192 0,0 22.366333,0 22.366333,0 0.975952,0 1.756554,-0.779239 1.756554,-1.753192 0,-0.973954 -0.780602,-1.753193 -1.743508,-1.753193 z M 52.018677,21.39606 c 0,0 -3.565178,0 -3.565178,0 -0.975838,0 -1.756439,0.779239 -1.756439,1.753192 0,0.973954 0.780601,1.753193 1.756439,1.753193 0,0 3.565178,0 3.565178,0 0.975837,0 1.756439,-0.779239 1.756439,-1.753193 0,-0.973953 -0.780602,-1.753192 -1.756439,-1.753192 z"
         inkscape:connector-curvature="0"
         style="fill:#f95110;fill-rule:evenodd;stroke:none;paint-order:stroke fill markers;fill-opacity:1" />
    </g>
  </g>
</svg>
