<?xml version="1.0" encoding="UTF-8" standalone="no"?>
<!-- Created with Inkscape (http://www.inkscape.org/) -->

<svg
   xmlns:dc="http://purl.org/dc/elements/1.1/"
   xmlns:cc="http://creativecommons.org/ns#"
   xmlns:rdf="http://www.w3.org/1999/02/22-rdf-syntax-ns#"
   xmlns:svg="http://www.w3.org/2000/svg"
   xmlns="http://www.w3.org/2000/svg"
   xmlns:sodipodi="http://sodipodi.sourceforge.net/DTD/sodipodi-0.dtd"
   xmlns:inkscape="http://www.inkscape.org/namespaces/inkscape"
   width="16.5mm"
   height="16.5mm"
   viewBox="0 0 16.5 16.5"
   version="1.1"
   id="svg8"
   sodipodi:docname="15.svg"
   inkscape:version="0.92.3 (2405546, 2018-03-11)">
  <defs
     id="defs2" />
  <sodipodi:namedview
     id="base"
     pagecolor="#ffffff"
     bordercolor="#666666"
     borderopacity="1.0"
     inkscape:pageopacity="0.0"
     inkscape:pageshadow="2"
     inkscape:zoom="1.4"
     inkscape:cx="107.73613"
     inkscape:cy="92.075551"
     inkscape:document-units="mm"
     inkscape:current-layer="layer1"
     showgrid="false"
     height="29mm"
     inkscape:window-width="1366"
     inkscape:window-height="705"
     inkscape:window-x="-8"
     inkscape:window-y="-8"
     inkscape:window-maximized="1" />
  <metadata
     id="metadata5">
    <rdf:RDF>
      <cc:Work
         rdf:about="">
        <dc:format>image/svg+xml</dc:format>
        <dc:type
           rdf:resource="http://purl.org/dc/dcmitype/StillImage" />
        <dc:title></dc:title>
      </cc:Work>
    </rdf:RDF>
  </metadata>
  <g
     inkscape:label="Layer 1"
     inkscape:groupmode="layer"
     id="layer1"
     transform="translate(0,-280.5)">
    <g
       id="g4728"
       transform="matrix(0.23333948,0,0,0.23333948,-0.13486505,281.23713)"
       style="fill:#f95110;fill-opacity:1">
      <path
         id="path4726"
         d="m 53.619667,35.211552 c -0.02232,-0.76738 -0.362892,-1.499184 -0.934524,-2.008348 -4.86271,-4.32847 -11.143342,-6.712476 -17.685242,-6.712476 -6.541786,0 -12.822418,2.384006 -17.685127,6.712476 -0.571518,0.509164 -0.912095,1.240968 -0.934411,2.007966 -0.02243,0.771971 0.277749,1.527492 0.823861,2.073381 0,0 5.344047,5.343737 5.344047,5.343737 1.03981,1.039369 2.670937,1.110139 3.794632,0.164494 2.410698,-2.029771 5.485268,-3.147178 8.656998,-3.147178 3.172073,0 6.246528,1.117789 8.657226,3.147178 0.528489,0.445279 1.169129,0.665241 1.808167,0.665241 0.719147,0 1.43589,-0.278873 1.98658,-0.829735 0,0 5.343933,-5.343355 5.343933,-5.343355 0.545883,-0.545888 0.846176,-1.30141 0.82386,-2.073381 z m -8.151283,5.430958 c 0,0 -4.58e-4,0 -4.58e-4,0 -2.91687,-2.455924 -6.634483,-3.808212 -10.468025,-3.808212 -3.833313,0 -7.551155,1.352671 -10.463677,3.806299 0,0 -5.351944,-5.337617 -5.351944,-5.337617 4.347382,-3.869419 9.964142,-6.000563 15.81585,-6.000563 5.851593,0 11.468353,2.131144 15.807838,5.994442 0,0 -5.339584,5.345651 -5.339584,5.345651 z m -6.28521,8.265598 c -1.117401,-1.117025 -2.602959,-1.732536 -4.183044,-1.732536 -1.5802,0 -3.065872,0.615511 -4.183274,1.732536 -2.306442,2.306732 -2.306442,6.059092 1.15e-4,8.365442 1.153221,1.153366 2.668419,1.729857 4.183159,1.729857 1.51474,0 3.029709,-0.576491 4.18293,-1.729857 1.117286,-1.117025 1.73275,-2.602438 1.73275,-4.182721 0,-1.579901 -0.615464,-3.065314 -1.732636,-4.182721 z m -1.988182,6.378133 c -1.210098,1.209982 -3.179741,1.209982 -4.390068,0 -1.210556,-1.210748 -1.210556,-3.179694 0,-4.390059 0.586281,-0.586438 1.365967,-0.909304 2.195206,-0.909304 0.82901,0 1.608696,0.322866 2.194977,0.909304 0,0 0,0 1.14e-4,0 0.586395,0.586438 0.909233,1.366059 0.909233,2.195029 0,0.82897 -0.322952,1.608592 -0.909462,2.19503 z M 67.377411,18.594284 C 49.221931,1.5432121 20.778099,1.5432121 2.6222763,18.593901 2.0601425,19.12181 1.7440567,19.8364 1.7318115,20.606458 c -0.011902,0.766615 0.2802658,1.487708 0.8223725,2.029771 0,0 5.3335189,5.333027 5.3335189,5.333027 1.0733414,1.073414 2.7842331,1.107078 3.8947681,0.07689 6.316452,-5.860171 14.561805,-9.0873 23.21743,-9.0873 8.65551,0 16.900978,3.227129 23.217315,9.0873 0.540619,0.501896 1.223717,0.751313 1.906243,0.751313 0.719147,0 1.43795,-0.277343 1.988754,-0.827822 0,0 5.333519,-5.333026 5.333519,-5.333026 0.542221,-0.542063 0.834274,-1.263156 0.822258,-2.030154 -0.01224,-0.769676 -0.328331,-1.484648 -0.890579,-2.012174 z m -7.247772,7.391488 c -6.83796,-6.344469 -15.76252,-9.838231 -25.129509,-9.838231 -9.367218,0 -18.291779,3.493762 -25.1243594,9.834023 0,0 -5.3287125,-5.338382 -5.3287125,-5.338382 17.0767589,-16.0373338 43.8296129,-16.0369513 60.9059139,0 0,0 0.0047,0.0054 0.0047,0.0054 0,0 -5.328025,5.337234 -5.328025,5.337234 z"
         inkscape:connector-curvature="0"
         style="fill:#f95110;fill-rule:evenodd;stroke:none;paint-order:stroke fill markers;fill-opacity:1" />
    </g>
  </g>
</svg>
