<?xml version="1.0" encoding="UTF-8" standalone="no"?>
<!-- Created with Inkscape (http://www.inkscape.org/) -->

<svg
   xmlns:dc="http://purl.org/dc/elements/1.1/"
   xmlns:cc="http://creativecommons.org/ns#"
   xmlns:rdf="http://www.w3.org/1999/02/22-rdf-syntax-ns#"
   xmlns:svg="http://www.w3.org/2000/svg"
   xmlns="http://www.w3.org/2000/svg"
   xmlns:sodipodi="http://sodipodi.sourceforge.net/DTD/sodipodi-0.dtd"
   xmlns:inkscape="http://www.inkscape.org/namespaces/inkscape"
   width="16.5mm"
   height="16.5mm"
   viewBox="0 0 16.5 16.5"
   version="1.1"
   id="svg8"
   sodipodi:docname="16.svg"
   inkscape:version="0.92.3 (2405546, 2018-03-11)">
  <defs
     id="defs2" />
  <sodipodi:namedview
     id="base"
     pagecolor="#ffffff"
     bordercolor="#666666"
     borderopacity="1.0"
     inkscape:pageopacity="0.0"
     inkscape:pageshadow="2"
     inkscape:zoom="1.4"
     inkscape:cx="107.73613"
     inkscape:cy="92.075551"
     inkscape:document-units="mm"
     inkscape:current-layer="layer1"
     showgrid="false"
     height="29mm"
     inkscape:window-width="1366"
     inkscape:window-height="705"
     inkscape:window-x="-8"
     inkscape:window-y="-8"
     inkscape:window-maximized="1" />
  <metadata
     id="metadata5">
    <rdf:RDF>
      <cc:Work
         rdf:about="">
        <dc:format>image/svg+xml</dc:format>
        <dc:type
           rdf:resource="http://purl.org/dc/dcmitype/StillImage" />
        <dc:title></dc:title>
      </cc:Work>
    </rdf:RDF>
  </metadata>
  <g
     inkscape:label="Layer 1"
     inkscape:groupmode="layer"
     id="layer1"
     transform="translate(0,-280.5)">
    <g
       id="g4742"
       transform="matrix(0.24253472,0,0,0.24253472,0.45989151,281.02153)"
       style="fill:#f95110;fill-opacity:1">
      <path
         id="path4740"
         d="m 12.499985,8.0137858 c -2.481079,0 -4.500046,2.0274762 -4.500046,4.5182112 0,2.491117 2.018967,4.518593 4.500046,4.518593 2.480964,0 4.499931,-2.027476 4.499931,-4.518593 0,-2.490735 -2.018967,-4.5182112 -4.499931,-4.5182112 z m 0,7.0284552 c -1.378098,0 -2.5000766,-1.12544 -2.5000766,-2.510244 0,-1.384422 1.1219786,-2.509862 2.5000766,-2.509862 1.377983,0 2.499962,1.12544 2.499962,2.509862 0,1.384804 -1.121979,2.510244 -2.499962,2.510244 z m 39.499969,-5.020106 c 0.552292,0 0.999985,0.449487 0.999985,1.003791 0,0.554687 -0.447693,1.004175 -0.999985,1.004175 -0.552292,0 -0.999985,-0.449488 -0.999985,-1.004175 0,-0.554304 0.447693,-1.003791 0.999985,-1.003791 z m -4.000053,0 c 0.552292,0 1.000099,0.449487 1.000099,1.003791 0,0.554687 -0.447807,1.004175 -1.000099,1.004175 -0.552292,0 -0.999985,-0.449488 -0.999985,-1.004175 0,-0.554304 0.447693,-1.003791 0.999985,-1.003791 z m 6.000023,3.01214 c 0.552292,0 0.999984,0.449488 0.999984,1.004174 0,0.554305 -0.447692,1.003792 -0.999984,1.003792 -0.552292,0 -0.999985,-0.449487 -0.999985,-1.003792 0,-0.554686 0.447693,-1.004174 0.999985,-1.004174 z m -3.999939,0 c 0.552292,0 0.999984,0.449488 0.999984,1.004174 0,0.554305 -0.447692,1.003792 -0.999984,1.003792 C 49.447693,15.042241 49,14.592754 49,14.038449 c 0,-0.554686 0.447693,-1.004174 0.999985,-1.004174 z m -6.000023,-3.01214 c 0.552292,0 0.999985,0.449487 0.999985,1.003791 0,0.554687 -0.447693,1.004175 -0.999985,1.004175 -0.552292,0 -0.999985,-0.449488 -0.999985,-1.004175 0,-0.554304 0.447693,-1.003791 0.999985,-1.003791 z m 1.999969,3.01214 c 0.552292,0 0.999985,0.449488 0.999985,1.004174 0,0.554305 -0.447693,1.003792 -0.999985,1.003792 -0.552292,0 -0.999984,-0.449487 -0.999984,-1.003792 0,-0.554686 0.447692,-1.004174 0.999984,-1.004174 z m -6.000023,-3.01214 c 0.552292,0 0.999985,0.449487 0.999985,1.003791 0,0.554687 -0.447693,1.004175 -0.999985,1.004175 -0.552291,0 -0.999984,-0.449488 -0.999984,-1.004175 0,-0.554304 0.447693,-1.003791 0.999984,-1.003791 z m 2.000084,3.01214 c 0.552292,0 0.999985,0.449488 0.999985,1.004174 0,0.554305 -0.447693,1.003792 -0.999985,1.003792 -0.552406,0 -1.000099,-0.449487 -1.000099,-1.003792 0,-0.554686 0.447693,-1.004174 1.000099,-1.004174 z m -6.000023,-3.01214 c 0.552292,0 0.999985,0.449487 0.999985,1.003791 0,0.554687 -0.447693,1.004175 -0.999985,1.004175 -0.552291,0 -0.999984,-0.449488 -0.999984,-1.004175 0,-0.554304 0.447693,-1.003791 0.999984,-1.003791 z m 1.99997,3.01214 c 0.552292,0 0.999985,0.449488 0.999985,1.004174 0,0.554305 -0.447693,1.003792 -0.999985,1.003792 -0.552292,0 -0.999985,-0.449487 -0.999985,-1.003792 0,-0.554686 0.447693,-1.004174 0.999985,-1.004174 z M 12.499985,27.091186 c -2.481079,0 -4.500046,2.027093 -4.500046,4.518211 0,2.491117 2.018967,4.51821 4.500046,4.51821 2.480964,0 4.499931,-2.027093 4.499931,-4.51821 0,-2.491118 -2.018967,-4.518211 -4.499931,-4.518211 z m 0,7.028455 c -1.378098,0 -2.5000766,-1.12544 -2.5000766,-2.510244 0,-1.384422 1.1219786,-2.510245 2.5000766,-2.510245 1.377983,0 2.499962,1.125823 2.499962,2.510245 0,1.384804 -1.121979,2.510244 -2.499962,2.510244 z m 0,12.048562 c -2.481079,0 -4.500046,2.027476 -4.500046,4.518594 0,2.490734 2.018967,4.51821 4.500046,4.51821 2.480964,0 4.499931,-2.027476 4.499931,-4.51821 0,-2.491118 -2.018967,-4.518594 -4.499931,-4.518594 z m 0,7.028456 c -1.378098,0 -2.5000766,-1.125441 -2.5000766,-2.509862 0,-1.384805 1.1219786,-2.510245 2.5000766,-2.510245 1.377983,0 2.499962,1.12544 2.499962,2.510245 0,1.384421 -1.121979,2.509862 -2.499962,2.509862 z M 61.999916,18.448018 c 0,0 0,-11.8316603 0,-11.8316603 0,-2.5515592 -2.066917,-4.6268529 -4.607963,-4.6268529 0,0 -50.7839589,0 -50.7839589,0 -2.5410462,0 -4.608078,2.0752937 -4.608078,4.6268529 0,0 0,11.8308953 0,11.8308953 0,1.474702 0.7030105,2.774964 1.7770386,3.622679 -1.0740281,0.848479 -1.7770386,2.149506 -1.7770386,3.623443 0,0 0,11.830895 0,11.830895 0,1.475085 0.7030105,2.775347 1.7770386,3.622679 -1.0740281,0.848479 -1.7770386,2.149889 -1.7770386,3.623826 0,0 0,11.830895 0,11.830895 0,2.551177 2.0670318,4.626471 4.608078,4.626471 0,0 27.8749469,0 27.8749469,0 2.682037,0.496157 5.622024,0.753226 8.517036,0.753226 8.67199,0 17.815933,-2.258149 18.894997,-6.579733 0.06695,-0.133507 0.104942,-0.286142 0.104942,-0.447575 0,0 0,-9.036804 0,-9.036804 0,0 0,-0.376422 0,-0.376422 0,0 0,-0.376422 0,-0.376422 0,0 0,-8.283577 0,-8.283577 0,0 0,-0.376422 0,-0.376422 0,0 0,-0.376805 0,-0.376805 0,0 0,-8.659999 0,-8.659999 0,0 0,-0.376422 0,-0.376422 0,-0.150722 -0.03696,-0.29035 -0.09602,-0.417737 -0.346985,-1.470111 -1.647949,-2.708019 -3.561973,-3.699952 2.086029,-0.440689 3.657989,-2.301376 3.657989,-4.525479 z M 4,37.525418 c 0,0 0,-11.832043 0,-11.832043 0,-1.443716 1.1699295,-2.618504 2.6079941,-2.618504 0,0 20.8599469,0 20.8599469,0 -1.808967,0.975101 -3.037033,2.177815 -3.372001,3.598578 -0.05905,0.128535 -0.09602,0.267015 -0.09602,0.417737 0,0 0,0.376422 0,0.376422 0,0 0,8.659999 0,8.659999 0,0 0,0.376805 0,0.376805 0,0 0,0.376422 0,0.376422 0,0 0,3.263088 0,3.263088 0,0 -17.3919299,0 -17.3919299,0 C 5.1699295,40.143922 4,38.969134 4,37.525418 Z m 22.625999,-6.161996 c 0.04498,0.02907 0.09293,0.05815 0.138932,0.08722 0.17601,0.110555 0.359001,0.219197 0.550003,0.325544 0.05505,0.02984 0.108032,0.06121 0.162964,0.09028 0.233001,0.125474 0.475044,0.247888 0.727043,0.365328 0.04005,0.01913 0.08297,0.03711 0.123024,0.05547 0.220985,0.101374 0.447922,0.19854 0.681953,0.294175 0.06901,0.02793 0.136986,0.05623 0.205994,0.08339 0.276031,0.108259 0.556984,0.214606 0.848007,0.315215 0.01602,0.005 0.03204,0.0099 0.04807,0.01607 0.277977,0.09525 0.563965,0.18668 0.854988,0.275048 0.07794,0.0241 0.157013,0.04705 0.235978,0.07039 0.288047,0.08416 0.579986,0.166406 0.87902,0.244827 0.02392,0.0061 0.04692,0.01301 0.07095,0.01913 0.322036,0.08339 0.651054,0.160668 0.984993,0.236029 0.084,0.01913 0.169029,0.03711 0.253028,0.05509 0.285988,0.06235 0.574952,0.121648 0.867005,0.177882 0.05802,0.01109 0.116043,0.02295 0.17395,0.03405 0.343094,0.06427 0.690079,0.123562 1.041069,0.179795 0.08297,0.01301 0.167999,0.02601 0.250969,0.03902 0.291023,0.04514 0.583992,0.0876 0.880051,0.126621 0.08091,0.01109 0.160904,0.02219 0.242958,0.03213 0.357971,0.04514 0.718002,0.08722 1.081009,0.125474 0.07301,0.008 0.146942,0.01415 0.219955,0.02104 0.304985,0.03022 0.61203,0.05738 0.919075,0.08225 0.09293,0.0073 0.184937,0.0153 0.277977,0.02219 0.367012,0.02716 0.73597,0.05126 1.104927,0.07039 0.05207,0.0031 0.105057,0.0038 0.158043,0.0069 0.325012,0.01607 0.651054,0.02831 0.976982,0.03711 0.09808,0.0031 0.196037,0.0061 0.295029,0.008 0.372963,0.008 0.74604,0.01415 1.117973,0.01415 0.372048,0 0.745011,-0.0061 1.117974,-0.01415 0.09808,-0.0019 0.196037,-0.005 0.295028,-0.008 0.326042,-0.0088 0.651055,-0.02104 0.976982,-0.03711 0.05299,-0.0031 0.105057,-0.0038 0.158043,-0.0069 0.368958,-0.01913 0.73803,-0.04323 1.105042,-0.07039 0.09293,-0.0069 0.184936,-0.01415 0.277977,-0.02219 0.30796,-0.0241 0.613975,-0.05203 0.91896,-0.08225 0.07301,-0.0069 0.147057,-0.01415 0.22007,-0.02104 0.363007,-0.03825 0.722923,-0.07919 1.080895,-0.125474 0.08102,-0.0099 0.162048,-0.02104 0.243072,-0.03213 0.295029,-0.03902 0.589028,-0.08148 0.879936,-0.126621 0.084,-0.01301 0.168,-0.02486 0.251084,-0.03902 0.35099,-0.05623 0.697975,-0.115527 1.040954,-0.179795 0.05905,-0.01109 0.116043,-0.02295 0.174065,-0.03405 0.292969,-0.05623 0.581932,-0.115528 0.86689,-0.177882 0.08503,-0.01913 0.169029,-0.03711 0.253029,-0.05509 0.333023,-0.07536 0.66307,-0.152635 0.984993,-0.236029 0.02403,-0.0061 0.04704,-0.01301 0.07107,-0.01913 0.298919,-0.07727 0.590972,-0.15952 0.87902,-0.244827 0.07896,-0.02334 0.157929,-0.04629 0.235977,-0.07039 0.291024,-0.08837 0.577012,-0.179795 0.854989,-0.275048 0.01602,-0.005 0.03193,-0.0099 0.04795,-0.01607 0.291024,-0.101374 0.573006,-0.206956 0.848007,-0.315215 0.07004,-0.02716 0.138016,-0.05547 0.205994,-0.08339 0.234032,-0.09564 0.461083,-0.192801 0.682068,-0.294175 0.04097,-0.01913 0.08297,-0.03634 0.12291,-0.05547 0.251998,-0.11744 0.493011,-0.239854 0.727043,-0.365328 0.05596,-0.03022 0.109062,-0.06044 0.162964,-0.09028 0.190086,-0.105582 0.373077,-0.213841 0.550003,-0.325544 0.04601,-0.02907 0.09407,-0.057 0.139045,-0.08722 0.207024,-0.134655 0.402947,-0.273136 0.589028,-0.415824 0.01202,-0.0088 0.02598,-0.01683 0.03799,-0.02601 0,0 0,5.008248 0,5.008248 -0.02403,0.116675 -0.04005,0.234881 -0.02106,0.354617 0.01408,0.07306 0.02403,0.145366 0.02403,0.219962 0,0.110172 -0.03101,0.22264 -0.05802,0.334342 -0.02094,0.08607 -0.04795,0.173674 -0.084,0.259746 -0.03193,0.07536 -0.07198,0.15187 -0.115928,0.227231 -0.04303,0.07498 -0.09006,0.151487 -0.144081,0.226848 -0.07702,0.104434 -0.163994,0.208868 -0.262986,0.313302 -0.03696,0.04017 -0.07404,0.08033 -0.113983,0.120501 -2.117042,2.056166 -8.364029,3.913793 -16.220054,3.913793 -7.850991,0 -14.095002,-1.855714 -16.215935,-3.911115 -0.04406,-0.04399 -0.084,-0.08722 -0.124054,-0.131212 -0.09396,-0.100609 -0.178986,-0.200835 -0.252914,-0.301444 -0.05699,-0.07919 -0.107003,-0.158373 -0.152092,-0.238707 -0.04097,-0.07154 -0.07897,-0.142688 -0.109978,-0.214989 -0.03902,-0.09143 -0.06603,-0.181707 -0.088,-0.271987 -0.02701,-0.108642 -0.05802,-0.21805 -0.05802,-0.326309 0,-0.07154 0.009,-0.142689 0.02106,-0.213076 0.02094,-0.130447 0.008,-0.260894 -0.02106,-0.386368 0,0 0,-4.984531 0,-4.984531 0.01202,0.0092 0.02609,0.01722 0.03799,0.0264 0.185051,0.142306 0.381088,0.281169 0.588111,0.416589 z m 33.230896,14.771883 c -0.03193,0.07536 -0.07198,0.151486 -0.115928,0.226847 -0.04303,0.07536 -0.09006,0.151487 -0.144081,0.226848 -0.0769,0.104434 -0.163994,0.208868 -0.262986,0.313303 -0.03696,0.04017 -0.07393,0.08033 -0.113983,0.1205 -2.116928,2.056167 -8.364029,3.913794 -16.21994,3.913794 -7.85099,0 -14.095001,-1.855332 -16.216049,-3.910733 -0.04395,-0.04437 -0.084,-0.08722 -0.12394,-0.131595 -0.09407,-0.100226 -0.1791,-0.200835 -0.253028,-0.301061 -0.05699,-0.07957 -0.107003,-0.158755 -0.151978,-0.239089 -0.04108,-0.07115 -0.07908,-0.142688 -0.110092,-0.214989 -0.03891,-0.09143 -0.06592,-0.181708 -0.08789,-0.271988 -0.023,-0.09449 -0.04704,-0.189741 -0.05001,-0.284229 0,0 0,-0.120501 0,-0.120501 0.004,-0.04514 0.0059,-0.09028 0.01293,-0.13542 0.01408,-0.08645 -0.0049,-0.170614 -0.01396,-0.255921 0,0 -0.0061,-4.927149 -0.0061,-4.927149 0,0 0,-0.186681 0,-0.186681 0.04005,0.03099 0.08709,0.06006 0.12909,0.09028 0.125999,0.09449 0.257949,0.186681 0.39299,0.278109 0.109977,0.07345 0.223961,0.145749 0.340004,0.218049 0.178985,0.110173 0.359001,0.219962 0.550918,0.325161 0.0021,0.0011 0.004,0.0019 0.005,0.0031 2.086029,1.141507 4.954033,1.965886 8.124961,2.465104 0.02403,0.0038 0.04807,0.0069 0.0721,0.01109 1.022988,0.15952 2.072983,0.283847 3.140946,0.375274 0.22705,0.01913 0.452957,0.0394 0.681953,0.05547 0.223045,0.01607 0.446091,0.02984 0.670052,0.04208 0.302009,0.01683 0.604019,0.03213 0.906028,0.04399 0.176011,0.0073 0.352021,0.0153 0.528946,0.02027 0.487061,0.01415 0.972977,0.0241 1.457978,0.0241 0.484085,0 0.970001,-0.0092 1.455001,-0.02334 0.178071,-0.005 0.354996,-0.01301 0.533066,-0.01989 0.29995,-0.01224 0.598984,-0.02601 0.898018,-0.04323 0.226021,-0.01301 0.451012,-0.02716 0.676003,-0.04323 0.22499,-0.01607 0.447006,-0.03519 0.670967,-0.05432 1.078033,-0.09104 2.137985,-0.217667 3.170013,-0.378335 0.01499,-0.0019 0.03101,-0.005 0.04601,-0.0069 3.464928,-0.544358 6.563988,-1.479293 8.681031,-2.790266 0.114898,-0.07154 0.228996,-0.142688 0.337944,-0.216137 0.13504,-0.09028 0.26699,-0.182855 0.39196,-0.276961 0.04509,-0.03328 0.09602,-0.06427 0.140076,-0.09831 0,0 0,5.008248 0,5.008248 -0.02403,0.116293 -0.04006,0.234881 -0.02106,0.354234 0.01007,0.07345 0.02003,0.145749 0.02003,0.219962 0,0.110555 -0.03101,0.223023 -0.05802,0.334343 -0.02197,0.08645 -0.04795,0.173674 -0.08503,0.260129 z M 6.6079941,59.221322 C 5.1699295,59.221322 4,58.046534 4,56.602435 c 0,0 0,-11.83166 0,-11.83166 0,-1.444098 1.1699295,-2.618504 2.6079941,-2.618504 0,0 17.3919299,0 17.3919299,0 0,0 0,3.01214 0,3.01214 0,0 0,0.376422 0,0.376422 0,0 0,0.376422 0,0.376422 0,0 0,9.036804 0,9.036804 0,0 0,1.003792 0,1.003792 0,0 0.296058,0 0.296058,0 0.01591,0.03711 0.03891,0.07345 0.05699,0.110555 0.03502,0.07536 0.07393,0.148427 0.113983,0.223022 0.08194,0.148427 0.17498,0.294941 0.277977,0.439542 0.101967,0.145749 0.21698,0.286142 0.338974,0.42577 0.06203,0.07039 0.124054,0.139628 0.191002,0.208868 0.383034,0.396697 0.843086,0.768146 1.373978,1.115494 0.01808,0.01224 0.03708,0.0241 0.05608,0.03634 0.383949,0.247887 0.799026,0.482769 1.247978,0.704643 0,0 -21.3449479,0 -21.3449479,0 0,0 0,-7.65e-4 0,-7.65e-4 z M 59.999947,54.696991 c -0.008,0.03099 -0.01499,0.06312 -0.02003,0.09411 -0.409011,2.503359 -7.32994,5.18307 -16.979942,5.18307 -3.079033,0 -5.875053,-0.2739 -8.276024,-0.726831 0,0 10e-4,-0.008 10e-4,-0.008 -4.97303,-0.944881 -7.724991,-2.540466 -8.495064,-3.885868 -0.001,-7.65e-4 -0.0019,-0.0019 -0.0019,-0.0038 -0.03502,-0.06235 -0.06008,-0.123561 -0.08697,-0.184003 -0.05207,-0.125474 -0.101051,-0.2498 -0.121079,-0.374509 0,0 -0.008,-5.788252 -0.008,-5.788252 0.03605,0.02793 0.07908,0.05432 0.116044,0.08225 0.125999,0.09449 0.257949,0.18668 0.39299,0.278108 0.109977,0.07345 0.223961,0.145749 0.340004,0.218049 0.178985,0.110555 0.359001,0.219962 0.551033,0.325162 0.0019,0.0011 0.004,0.0019 0.0049,0.0031 2.086029,1.141507 4.954033,1.965886 8.125076,2.465105 0.02392,0.0038 0.04795,0.0069 0.07198,0.01109 1.022988,0.159521 2.072983,0.283847 3.140946,0.375275 0.22705,0.01913 0.453071,0.0394 0.682068,0.05547 0.22293,0.01607 0.445976,0.02984 0.669937,0.04208 0.302009,0.01683 0.604019,0.03213 0.906028,0.04399 0.176011,0.0073 0.352021,0.0153 0.529061,0.02028 0.486946,0.01415 0.972977,0.0241 1.457977,0.0241 0.483971,0 0.970001,-0.0092 1.455002,-0.02333 0.177956,-0.005 0.354996,-0.01301 0.532951,-0.01989 0.300064,-0.01224 0.598984,-0.02601 0.898018,-0.04323 0.226021,-0.01301 0.451012,-0.02716 0.676003,-0.04323 0.224991,-0.01607 0.447006,-0.03519 0.670967,-0.05394 1.078033,-0.09143 2.137985,-0.218049 3.170013,-0.378717 0.01499,-0.0019 0.03101,-0.005 0.04601,-0.0069 3.465043,-0.544358 6.563988,-1.479292 8.681031,-2.790266 0.115013,-0.07154 0.228996,-0.142688 0.337944,-0.216136 0.13504,-0.09028 0.26699,-0.182473 0.392074,-0.276961 0.04498,-0.03328 0.0959,-0.06427 0.139962,-0.09831 0,0 0,5.701033 0,5.701033 z m 0,-27.229383 c 0,2.547351 -7.271004,5.396911 -16.99997,5.396911 -9.729996,0 -17.000084,-2.84956 -17.000084,-5.396911 0,-0.128535 0.03101,-0.258982 0.06809,-0.389429 0.03994,-0.129682 0.09396,-0.262041 0.17395,-0.398609 0.003,-0.0061 0.006,-0.01224 0.009,-0.01836 0.333023,-0.55813 1.00399,-1.158339 2.036933,-1.737891 0.04406,-0.0241 0.08903,-0.0482 0.134011,-0.0723 0.17704,-0.0964 0.364036,-0.191654 0.560989,-0.286142 0.228996,-0.107494 0.464058,-0.214989 0.716057,-0.318275 0.04898,-0.02104 0.100021,-0.04132 0.150948,-0.06121 1.162033,-0.464789 2.561988,-0.877553 4.138069,-1.214955 0.493011,-0.104434 0.994949,-0.202748 1.510963,-0.289202 0.136986,-0.02295 0.270996,-0.04705 0.410042,-0.06924 4.476929,-0.692784 9.699898,-0.692784 14.176941,0 0.140991,0.02219 0.277061,0.04705 0.415993,0.07039 0.513038,0.08531 1.012001,0.182473 1.501007,0.286907 4.875068,1.042429 7.997017,2.832728 7.997017,4.498319 z m 0,-9.01959 c 0,1.444098 -1.170044,2.618887 -2.607994,2.618887 0,0 -4.630051,0 -4.630051,0 -0.05791,-0.01339 -0.121994,-0.02142 -0.180016,-0.03443 -0.655975,-0.142306 -1.330948,-0.270075 -2.020912,-0.380247 -0.06706,-0.01033 -0.13401,-0.02142 -0.201073,-0.03137 -2.360916,-0.368388 -4.880905,-0.55813 -7.359924,-0.55813 -2.479019,0 -4.997063,0.189742 -7.357979,0.55813 -0.06901,0.0099 -0.1371,0.02104 -0.206108,0.03137 -0.687904,0.110172 -1.360931,0.237941 -2.014961,0.379482 -0.05894,0.01301 -0.12497,0.02104 -0.184021,0.03405 0,0 -26.6289139,0 -26.6289139,0 C 5.1699295,21.066905 4,19.892116 4,18.448018 4,18.448018 4,6.6163577 4,6.6163577 4,5.1722593 5.1699295,3.997471 6.6079941,3.997471 c 0,0 50.7829289,0 50.7829289,0 1.43898,0 2.609024,1.1747883 2.609024,2.6188867 0,0 0,11.8316603 0,11.8316603 z"
         inkscape:connector-curvature="0"
         style="fill:#f95110;fill-rule:evenodd;stroke:none;paint-order:stroke fill markers;fill-opacity:1" />
    </g>
  </g>
</svg>
