<?xml version="1.0" encoding="UTF-8" standalone="no"?>
<!-- Created with Inkscape (http://www.inkscape.org/) -->

<svg
   xmlns:dc="http://purl.org/dc/elements/1.1/"
   xmlns:cc="http://creativecommons.org/ns#"
   xmlns:rdf="http://www.w3.org/1999/02/22-rdf-syntax-ns#"
   xmlns:svg="http://www.w3.org/2000/svg"
   xmlns="http://www.w3.org/2000/svg"
   xmlns:sodipodi="http://sodipodi.sourceforge.net/DTD/sodipodi-0.dtd"
   xmlns:inkscape="http://www.inkscape.org/namespaces/inkscape"
   width="16.5mm"
   height="16.5mm"
   viewBox="0 0 16.5 16.5"
   version="1.1"
   id="svg8"
   sodipodi:docname="17.svg"
   inkscape:version="0.92.3 (2405546, 2018-03-11)">
  <defs
     id="defs2" />
  <sodipodi:namedview
     id="base"
     pagecolor="#ffffff"
     bordercolor="#666666"
     borderopacity="1.0"
     inkscape:pageopacity="0.0"
     inkscape:pageshadow="2"
     inkscape:zoom="1.4"
     inkscape:cx="107.73613"
     inkscape:cy="92.075551"
     inkscape:document-units="mm"
     inkscape:current-layer="layer1"
     showgrid="false"
     height="29mm"
     inkscape:window-width="1366"
     inkscape:window-height="705"
     inkscape:window-x="-8"
     inkscape:window-y="-8"
     inkscape:window-maximized="1" />
  <metadata
     id="metadata5">
    <rdf:RDF>
      <cc:Work
         rdf:about="">
        <dc:format>image/svg+xml</dc:format>
        <dc:type
           rdf:resource="http://purl.org/dc/dcmitype/StillImage" />
        <dc:title></dc:title>
      </cc:Work>
    </rdf:RDF>
  </metadata>
  <g
     inkscape:label="Layer 1"
     inkscape:groupmode="layer"
     id="layer1"
     transform="translate(0,-280.5)">
    <g
       id="g4756"
       transform="matrix(0.26458333,0,0,0.26458333,1.6446939,281.33294)"
       style="fill:#f95110;fill-opacity:1">
      <path
         id="path4754"
         d="m 24.302116,30.600148 c 0.05596,0 0.111924,0 0.1791,0 0.02243,0 0.04486,0 0.06718,0 0.03365,0 0.07839,0 0.112038,0 3.280792,-0.05585 5.934563,-1.209599 7.894134,-3.416488 C 36.86544,22.321926 36.148811,13.987088 36.070419,13.191782 35.790497,7.2210567 32.968842,4.364611 30.63974,3.03145 28.904243,2.034544 26.877495,1.4966891 24.615685,1.4519316 c 0,0 -0.07839,0 -0.07839,0 -0.01121,0 -0.03364,0 -0.04486,0 0,0 -0.06718,0 -0.06718,0 -1.242829,0 -3.683853,0.2016 -6.02417,1.5347609 -2.351418,1.3327785 -5.217934,4.1896067 -5.497856,10.2050895 -0.07839,0.795306 -0.795021,9.130144 3.515968,13.991878 1.948357,2.206889 4.602127,3.360637 7.882919,3.416488 z M 15.892998,13.471803 c 0,-0.03366 0.0111,-0.06694 0.0111,-0.08951 0.369529,-8.0318647 6.06903,-8.8944982 8.509941,-8.8944982 0,0 0.04486,0 0.04486,0 0.02232,0 0.05596,0 0.08949,0 3.0233,0.066945 8.162842,1.2994972 8.509941,8.8944982 0,0.03366 0,0.06733 0.01122,0.08951 0.01121,0.07842 0.795021,7.695992 -2.765694,11.706569 -1.410828,1.590612 -3.292008,2.374824 -5.766564,2.397394 -0.02243,0 -0.03364,0 -0.05608,0 0,0 0,0 0,0 -0.02232,0 -0.03353,0 -0.05596,0 -2.463341,-0.02257 -4.355736,-0.806782 -5.755348,-2.397394 C 15.120293,21.190365 15.881783,13.53913 15.892998,13.471803 Z m 31.598739,30.952288 c 0,-0.01148 0,-0.02257 0,-0.03366 0,-0.0899 -0.01121,-0.179413 -0.01121,-0.280021 -0.06718,-2.218365 -0.212746,-7.404878 -5.072365,-9.062817 -0.03364,-0.01109 -0.07839,-0.02257 -0.112037,-0.03366 -5.049935,-1.288404 -9.248886,-4.2007 -9.293747,-4.234364 -0.682984,-0.481621 -1.623574,-0.313685 -2.105027,0.369536 -0.481567,0.683221 -0.313568,1.624276 0.36953,2.10628 0.190315,0.134272 4.646874,3.237458 10.223122,4.671227 2.608909,0.929579 2.900047,3.71908 2.978439,6.273317 0,0.100608 0,0.190506 0.01121,0.280021 0.01122,1.008 -0.05596,2.565331 -0.235176,3.461628 -1.814003,1.03057 -8.924217,4.592807 -19.740829,4.592807 -10.771752,0 -17.9268266,-3.573714 -19.7520448,-4.604283 -0.1791001,-0.895915 -0.2574921,-2.453246 -0.2350617,-3.461246 0,-0.0899 0.011101,-0.179412 0.011101,-0.280021 C 4.6060333,41.63459 4.897171,38.845089 7.5061951,37.915511 13.082443,36.481358 17.539001,33.367079 17.729317,33.2439 c 0.682983,-0.481621 0.850982,-1.422676 0.369529,-2.105897 -0.481567,-0.683221 -1.422042,-0.85154 -2.10514,-0.369536 -0.04475,0.03328 -4.221382,2.945961 -9.2937472,4.234364 -0.044746,0.01109 -0.078392,0.02219 -0.1119232,0.03366 -4.8596192,1.669033 -5.005188,6.855546 -5.0723648,9.062434 0,0.100992 0,0.190507 -0.011215,0.280022 0,0.01148 0,0.02257 0,0.03366 -0.011215,0.582613 -0.022431,3.573713 0.5710601,5.074811 0.1119233,0.291115 0.3134537,0.537472 0.5822754,0.705791 0.3358841,0.223787 8.3866877,5.354449 21.8570707,5.354449 13.470383,0 21.521187,-5.141756 21.857071,-5.354449 0.257606,-0.168319 0.470352,-0.414676 0.582275,-0.705791 0.559845,-1.490004 0.54863,-4.481105 0.537529,-5.063334 z"
         inkscape:connector-curvature="0"
         style="fill:#f95110;fill-rule:evenodd;stroke:none;paint-order:stroke fill markers;fill-opacity:1" />
    </g>
  </g>
</svg>
