<?xml version="1.0" encoding="UTF-8" standalone="no"?>
<!-- Created with Inkscape (http://www.inkscape.org/) -->

<svg
   xmlns:dc="http://purl.org/dc/elements/1.1/"
   xmlns:cc="http://creativecommons.org/ns#"
   xmlns:rdf="http://www.w3.org/1999/02/22-rdf-syntax-ns#"
   xmlns:svg="http://www.w3.org/2000/svg"
   xmlns="http://www.w3.org/2000/svg"
   xmlns:sodipodi="http://sodipodi.sourceforge.net/DTD/sodipodi-0.dtd"
   xmlns:inkscape="http://www.inkscape.org/namespaces/inkscape"
   width="16.5mm"
   height="16.5mm"
   viewBox="0 0 16.5 16.5"
   version="1.1"
   id="svg8"
   sodipodi:docname="18.svg"
   inkscape:version="0.92.3 (2405546, 2018-03-11)">
  <defs
     id="defs2" />
  <sodipodi:namedview
     id="base"
     pagecolor="#ffffff"
     bordercolor="#666666"
     borderopacity="1.0"
     inkscape:pageopacity="0.0"
     inkscape:pageshadow="2"
     inkscape:zoom="1.4"
     inkscape:cx="107.73613"
     inkscape:cy="92.075551"
     inkscape:document-units="mm"
     inkscape:current-layer="layer1"
     showgrid="false"
     height="29mm"
     inkscape:window-width="1366"
     inkscape:window-height="705"
     inkscape:window-x="-8"
     inkscape:window-y="-8"
     inkscape:window-maximized="1" />
  <metadata
     id="metadata5">
    <rdf:RDF>
      <cc:Work
         rdf:about="">
        <dc:format>image/svg+xml</dc:format>
        <dc:type
           rdf:resource="http://purl.org/dc/dcmitype/StillImage" />
        <dc:title></dc:title>
      </cc:Work>
    </rdf:RDF>
  </metadata>
  <g
     inkscape:label="Layer 1"
     inkscape:groupmode="layer"
     id="layer1"
     transform="translate(0,-280.5)">
    <g
       id="g4770"
       transform="matrix(0.23074758,0,0,0.23074758,0.83706232,281.39515)"
       style="fill:#f95110;fill-opacity:1">
      <path
         id="path4768"
         d="m 46.519966,1.2796738 c 0,0 -29.040069,0 -29.040069,0 -8.9326863,0 -16.1999135,7.2675445 -16.1999135,16.2002972 0,0 0,3.599726 0,3.599726 0,2.977711 2.4223709,5.399971 5.4000092,5.399971 0,0 7.1999363,0 7.1999363,0 2.977523,0 5.400009,-2.42226 5.400009,-5.399971 0,0 0,-3.599726 0,-3.599726 0,-0.992698 0.807495,-1.800246 1.800041,-1.800246 0,0 21.840019,0 21.840019,0 0.992432,0 1.799927,0.807548 1.799927,1.800246 0,0 0,3.599726 0,3.599726 0,2.977711 2.422485,5.399971 5.400009,5.399971 0,0 7.20005,0 7.20005,0 2.977524,0 5.40001,-2.42226 5.40001,-5.399971 0,0 0,-3.599726 0,-3.599726 0,-8.9327527 -7.267342,-16.2002972 -16.200028,-16.2002972 z M 15.67997,21.079697 c 0,0.992698 -0.807495,1.800245 -1.800041,1.800245 0,0 -7.1999363,0 -7.1999363,0 -0.9925461,0 -1.8000412,-0.807547 -1.8000412,-1.800245 0,0 0,-1.799863 0,-1.799863 0,0 10.8000185,0 10.8000185,0 0,0 0,1.799863 0,1.799863 z m 27.240028,-8.999698 c 0,0 -21.840019,0 -21.840019,0 -2.346611,0 -4.347382,1.504923 -5.090447,3.599726 0,0 -10.9804912,0 -10.9804912,0 C 5.8852005,9.5819961 11.143417,4.8797823 17.479897,4.8797823 c 0,0 29.040069,0 29.040069,0 6.336594,0 11.594696,4.7022138 12.470856,10.7999427 0,0 -10.980492,0 -10.980492,0 -0.743065,-2.094803 -2.743835,-3.599726 -5.090332,-3.599726 z m 16.199913,8.999698 c 0,0.992698 -0.807495,1.800245 -1.799927,1.800245 0,0 -7.20005,0 -7.20005,0 -0.992546,0 -1.800041,-0.807547 -1.800041,-1.800245 0,0 0,-1.799863 0,-1.799863 0,0 10.800018,0 10.800018,0 0,0 0,1.799863 0,1.799863 z M 58.432693,51.707971 C 48.627396,27.869828 49.215622,29.273759 49.112167,29.101615 c -0.970344,-1.617007 -2.744636,-2.621947 -4.630394,-2.621947 0,0 -3.361816,0 -3.361816,0 0,0 0,-1.799863 0,-1.799863 0,-2.977711 -2.422485,-5.399971 -5.400009,-5.399971 0,0 -7.440033,0 -7.440033,0 -2.977524,0 -5.400009,2.42226 -5.400009,5.399971 0,0 0,1.799863 0,1.799863 0,0 -3.361588,0 -3.361588,0 -2.331505,0 -4.227333,1.587935 -4.751701,2.863332 0,0 -9.1969301,22.35885 -9.1969301,22.35885 -0.4576492,1.100575 -0.6897354,2.263122 -0.6897354,3.455125 0,0 0,2.162896 0,2.162896 0,2.977329 2.4224853,5.399971 5.4000095,5.399971 0,0 43.439941,0 43.439941,0 2.977638,0 5.400009,-2.422642 5.400009,-5.399971 0,0 0,-2.162896 0,-2.162896 0,-1.192003 -0.2322,-2.354932 -0.687218,-3.449004 z M 26.479988,24.679805 c 0,-0.992698 0.807381,-1.799863 1.799927,-1.799863 0,0 7.440033,0 7.440033,0 0.992546,0 1.800041,0.807165 1.800041,1.799863 0,0 0,1.799863 0,1.799863 0,0 -11.040001,0 -11.040001,0 0,0 0,-1.799863 0,-1.799863 z m 29.039955,32.640066 c 0,0.992315 -0.807495,1.799863 -1.800041,1.799863 0,0 -43.439941,0 -43.439941,0 -0.9925464,0 -1.8000416,-0.807548 -1.8000416,-1.799863 0,0 0,-2.162896 0,-2.162896 0,-0.714972 0.1392746,-1.41273 0.4164505,-2.079502 0,0 9.1390231,-22.218074 9.1390231,-22.218074 0.333366,-0.483534 0.891609,-0.779622 1.482925,-0.779622 0.553436,0 23.597603,0 24.963455,0 0.591088,0 1.149331,0.296088 1.482697,0.779622 0,0 9.141769,22.224578 9.141769,22.224578 0.274544,0.660268 0.413704,1.357643 0.413704,2.072998 0,0 0,2.162896 0,2.162896 z M 32.11998,33.679885 c -5.955162,0 -10.800018,4.844902 -10.800018,10.799943 0,5.955041 4.844856,10.799943 10.800018,10.799943 5.955047,0 10.800018,-4.844902 10.800018,-10.799943 0,-5.955041 -4.844971,-10.799943 -10.800018,-10.799943 z m 0,17.999778 c -3.97007,0 -7.20005,-3.229808 -7.20005,-7.199835 0,-3.970027 3.22998,-7.199834 7.20005,-7.199834 3.97007,0 7.199936,3.229807 7.199936,7.199834 0,3.970027 -3.229866,7.199835 -7.199936,7.199835 z m 0,-10.799943 c -1.985092,0 -3.600083,1.615095 -3.600083,3.600108 0,1.985014 1.614991,3.600109 3.600083,3.600109 1.984978,0 3.599968,-1.615095 3.599968,-3.600109 0,-1.985013 -1.61499,-3.600108 -3.599968,-3.600108 z"
         inkscape:connector-curvature="0"
         style="fill:#f95110;fill-rule:evenodd;stroke:none;paint-order:stroke fill markers;fill-opacity:1" />
    </g>
  </g>
</svg>
