<?xml version="1.0" encoding="UTF-8" standalone="no"?>
<!-- Created with Inkscape (http://www.inkscape.org/) -->

<svg
   xmlns:dc="http://purl.org/dc/elements/1.1/"
   xmlns:cc="http://creativecommons.org/ns#"
   xmlns:rdf="http://www.w3.org/1999/02/22-rdf-syntax-ns#"
   xmlns:svg="http://www.w3.org/2000/svg"
   xmlns="http://www.w3.org/2000/svg"
   xmlns:sodipodi="http://sodipodi.sourceforge.net/DTD/sodipodi-0.dtd"
   xmlns:inkscape="http://www.inkscape.org/namespaces/inkscape"
   width="16.5mm"
   height="16.5mm"
   viewBox="0 0 16.5 16.5"
   version="1.1"
   id="svg8"
   sodipodi:docname="19.svg"
   inkscape:version="0.92.3 (2405546, 2018-03-11)">
  <defs
     id="defs2" />
  <sodipodi:namedview
     id="base"
     pagecolor="#ffffff"
     bordercolor="#666666"
     borderopacity="1.0"
     inkscape:pageopacity="0.0"
     inkscape:pageshadow="2"
     inkscape:zoom="1.4"
     inkscape:cx="107.73613"
     inkscape:cy="92.075551"
     inkscape:document-units="mm"
     inkscape:current-layer="layer1"
     showgrid="false"
     height="29mm"
     inkscape:window-width="1366"
     inkscape:window-height="705"
     inkscape:window-x="-8"
     inkscape:window-y="-8"
     inkscape:window-maximized="1" />
  <metadata
     id="metadata5">
    <rdf:RDF>
      <cc:Work
         rdf:about="">
        <dc:format>image/svg+xml</dc:format>
        <dc:type
           rdf:resource="http://purl.org/dc/dcmitype/StillImage" />
        <dc:title></dc:title>
      </cc:Work>
    </rdf:RDF>
  </metadata>
  <g
     inkscape:label="Layer 1"
     inkscape:groupmode="layer"
     id="layer1"
     transform="translate(0,-280.5)">
    <g
       id="g4784"
       transform="matrix(0.24568452,0,0,0.24568452,0.26459992,281.12502)"
       style="fill:#f95110;fill-opacity:1">
      <path
         id="path4782"
         d="m 12.5,7.9997478 c -2.481079,0 -4.5000458,2.0190602 -4.5000458,4.5002312 0,2.480789 2.0189668,4.499849 4.5000458,4.499849 2.480965,0 4.499931,-2.01906 4.499931,-4.499849 0,-2.481171 -2.018966,-4.5002312 -4.499931,-4.5002312 z m 0,7.0001472 c -1.378098,0 -2.5000763,-1.121232 -2.5000763,-2.499916 0,-1.379066 1.1219783,-2.5002985 2.5000763,-2.5002985 1.377983,0 2.499962,1.1212325 2.499962,2.5002985 0,1.378684 -1.121979,2.499916 -2.499962,2.499916 z M 51.999969,9.9996805 c 0.552292,0 0.999985,0.4479575 0.999985,0.9999665 0,0.552391 -0.447693,1.000349 -0.999985,1.000349 -0.552291,0 -0.999984,-0.447958 -0.999984,-1.000349 0,-0.552009 0.447693,-0.9999665 0.999984,-0.9999665 z m -4.000053,0 c 0.552292,0 0.999985,0.4479575 0.999985,0.9999665 0,0.552391 -0.447693,1.000349 -0.999985,1.000349 -0.552292,0 -0.999985,-0.447958 -0.999985,-1.000349 0,-0.552009 0.447693,-0.9999665 0.999985,-0.9999665 z m 6.000023,3.0002815 c 0.552292,0 0.999985,0.447575 0.999985,0.999967 0,0.552009 -0.447693,0.999966 -0.999985,0.999966 -0.552292,0 -0.999985,-0.447957 -0.999985,-0.999966 0,-0.552392 0.447693,-0.999967 0.999985,-0.999967 z m -3.999939,0 c 0.552292,0 0.999985,0.447575 0.999985,0.999967 0,0.552009 -0.447693,0.999966 -0.999985,0.999966 -0.552406,0 -1.000099,-0.447957 -1.000099,-0.999966 0,-0.552392 0.447693,-0.999967 1.000099,-0.999967 z M 43.999977,9.9996805 c 0.552292,0 0.999985,0.4479575 0.999985,0.9999665 0,0.552391 -0.447693,1.000349 -0.999985,1.000349 -0.552292,0 -0.999985,-0.447958 -0.999985,-1.000349 0,-0.552009 0.447693,-0.9999665 0.999985,-0.9999665 z m 1.99997,3.0002815 c 0.552291,0 0.999984,0.447575 0.999984,0.999967 0,0.552009 -0.447693,0.999966 -0.999984,0.999966 -0.552292,0 -0.999985,-0.447957 -0.999985,-0.999966 0,-0.552392 0.447693,-0.999967 0.999985,-0.999967 z M 39.999924,9.9996805 c 0.552292,0 0.999984,0.4479575 0.999984,0.9999665 0,0.552391 -0.447692,1.000349 -0.999984,1.000349 -0.552292,0 -0.999985,-0.447958 -0.999985,-1.000349 0,-0.552009 0.447693,-0.9999665 0.999985,-0.9999665 z m 1.999969,3.0002815 c 0.552406,0 1.000099,0.447575 1.000099,0.999967 0,0.552009 -0.447693,0.999966 -1.000099,0.999966 -0.552292,0 -0.999985,-0.447957 -0.999985,-0.999966 0,-0.552392 0.447693,-0.999967 0.999985,-0.999967 z M 35.999985,9.9996805 c 0.552292,0 0.999984,0.4479575 0.999984,0.9999665 0,0.552391 -0.447692,1.000349 -0.999984,1.000349 C 35.447693,11.999996 35,11.552038 35,10.999647 35,10.447638 35.447693,9.9996805 35.999985,9.9996805 Z m 1.999969,3.0002815 c 0.552292,0 0.999985,0.447575 0.999985,0.999967 0,0.552009 -0.447693,0.999966 -0.999985,0.999966 -0.552292,0 -0.999985,-0.447957 -0.999985,-0.999966 0,-0.552392 0.447693,-0.999967 0.999985,-0.999967 z M 61.999931,18.3919 c 0,0 0,-11.7842248 0,-11.7842248 0,-2.540848 -2.067032,-4.6077257 -4.607963,-4.6077257 0,0 -50.7840731,0 -50.7840731,0 -2.5409317,0 -4.6079636,2.0668777 -4.6079636,4.6077257 0,0 0,11.7830778 0,11.7830778 0,1.468963 0.7030106,2.765018 1.7770386,3.608907 -1.074028,0.844271 -1.7770386,2.140326 -1.7770386,3.608142 0,0 0,11.783077 0,11.783077 0,2.541996 2.0670319,4.608873 4.6079636,4.608873 0,0 24.3920521,0 24.3920521,0 0,0 0,8.101105 0,8.101105 -1.956025,0.398992 -3.499947,1.942934 -3.899002,3.898875 0,0 -24.1010289,0 -24.1010289,0 -0.5519486,0 -0.9999848,0.447192 -0.9999848,0.999966 0,0.553157 0.4480362,0.999966 0.9999848,0.999966 0,0 24.1010289,0 24.1010289,0 0.464973,2.279189 2.484054,4.000248 4.898986,4.000248 2.415047,0 4.434014,-1.721059 4.898987,-4.000248 0,0 24.101029,0 24.101029,0 0.551948,0 0.999984,-0.446809 0.999984,-0.999966 0,-0.552774 -0.448036,-0.999966 -0.999984,-0.999966 0,0 -24.101029,0 -24.101029,0 -0.398941,-1.955941 -1.942978,-3.499883 -3.899002,-3.898875 0,0 0,-8.101105 0,-8.101105 0,0 24.392052,0 24.392052,0 2.540931,0 4.607963,-2.066877 4.607963,-4.608108 0,0 0,-11.783842 0,-11.783842 0,-1.468964 -0.70301,-2.763871 -1.777038,-3.608142 1.074028,-0.843889 1.777038,-2.139944 1.777038,-3.60776 z M 35,54.999698 c 0,1.654114 -1.346054,3.000282 -3.000069,3.000282 -1.654014,0 -2.999954,-1.346168 -2.999954,-3.000282 0,-1.653732 1.34594,-2.999899 2.999954,-2.999899 1.654015,0 3.000069,1.346167 3.000069,2.999899 z M 59.999962,25.607802 c 0,0 0,11.783077 0,11.783077 0,1.439125 -1.170044,2.608941 -2.607994,2.608941 0,0 -50.7840731,0 -50.7840731,0 -1.4379501,0 -2.6079941,-1.169816 -2.6079941,-2.608176 0,0 0,-11.783842 0,-11.783842 0,-1.437978 1.170044,-2.608176 2.6079941,-2.608176 0,0 50.7830431,0 50.7830431,0 1.43898,0 2.609024,1.170198 2.609024,2.608176 z M 6.6078949,20.999693 c -1.4379501,0 -2.6079941,-1.169815 -2.6079941,-2.607793 0,0 0,-11.7842248 0,-11.7842248 0,-1.4379777 1.170044,-2.607793 2.6079941,-2.607793 0,0 50.7830431,0 50.7830431,0 1.43898,0 2.609024,1.1698153 2.609024,2.607793 0,0 0,11.7830778 0,11.7830778 0,1.439125 -1.170044,2.60894 -2.607994,2.60894 0,0 -50.7840731,0 -50.7840731,0 z M 12.5,35.999954 c 2.480965,0 4.499931,-2.01906 4.499931,-4.500231 0,-2.480789 -2.018966,-4.499849 -4.499931,-4.499849 -2.481079,0 -4.5000458,2.01906 -4.5000458,4.499849 0,2.481171 2.0189668,4.500231 4.5000458,4.500231 z m 0,-7.000147 c 1.377983,0 2.499962,1.12085 2.499962,2.499916 0,1.379066 -1.121979,2.499916 -2.499962,2.499916 -1.378098,0 -2.5000763,-1.12085 -2.5000763,-2.499916 0,-1.379066 1.1219783,-2.499916 2.5000763,-2.499916 z m 39.499969,0 c 0.552292,0 0.999985,0.447575 0.999985,0.999966 0,0.552392 -0.447693,0.999967 -0.999985,0.999967 -0.552291,0 -0.999984,-0.447575 -0.999984,-0.999967 0,-0.552391 0.447693,-0.999966 0.999984,-0.999966 z m -4.000053,0 c 0.552292,0 0.999985,0.447575 0.999985,0.999966 0,0.552392 -0.447693,0.999967 -0.999985,0.999967 -0.552292,0 -0.999985,-0.447575 -0.999985,-0.999967 0,-0.552391 0.447693,-0.999966 0.999985,-0.999966 z m 6.000023,2.999899 c 0.552292,0 0.999985,0.447957 0.999985,0.999966 0,0.552392 -0.447693,0.999967 -0.999985,0.999967 -0.552292,0 -0.999985,-0.447575 -0.999985,-0.999967 0,-0.552009 0.447693,-0.999966 0.999985,-0.999966 z m -3.999939,0 c 0.552292,0 0.999985,0.447957 0.999985,0.999966 0,0.552392 -0.447693,0.999967 -0.999985,0.999967 -0.552406,0 -1.000099,-0.447575 -1.000099,-0.999967 0,-0.552009 0.447693,-0.999966 1.000099,-0.999966 z m -6.000023,-2.999899 c 0.552292,0 0.999985,0.447575 0.999985,0.999966 0,0.552392 -0.447693,0.999967 -0.999985,0.999967 -0.552292,0 -0.999985,-0.447575 -0.999985,-0.999967 0,-0.552391 0.447693,-0.999966 0.999985,-0.999966 z m 1.99997,2.999899 c 0.552291,0 0.999984,0.447957 0.999984,0.999966 0,0.552392 -0.447693,0.999967 -0.999984,0.999967 -0.552292,0 -0.999985,-0.447575 -0.999985,-0.999967 0,-0.552009 0.447693,-0.999966 0.999985,-0.999966 z m -6.000023,-2.999899 c 0.552292,0 0.999984,0.447575 0.999984,0.999966 0,0.552392 -0.447692,0.999967 -0.999984,0.999967 -0.552292,0 -0.999985,-0.447575 -0.999985,-0.999967 0,-0.552391 0.447693,-0.999966 0.999985,-0.999966 z m 1.999969,2.999899 c 0.552406,0 1.000099,0.447957 1.000099,0.999966 0,0.552392 -0.447693,0.999967 -1.000099,0.999967 -0.552292,0 -0.999985,-0.447575 -0.999985,-0.999967 0,-0.552009 0.447693,-0.999966 0.999985,-0.999966 z m -5.999908,-2.999899 c 0.552292,0 0.999984,0.447575 0.999984,0.999966 0,0.552392 -0.447692,0.999967 -0.999984,0.999967 C 35.447693,30.99974 35,30.552165 35,29.999773 c 0,-0.552391 0.447693,-0.999966 0.999985,-0.999966 z m 1.999969,2.999899 c 0.552292,0 0.999985,0.447957 0.999985,0.999966 0,0.552392 -0.447693,0.999967 -0.999985,0.999967 -0.552292,0 -0.999985,-0.447575 -0.999985,-0.999967 0,-0.552009 0.447693,-0.999966 0.999985,-0.999966 z"
         inkscape:connector-curvature="0"
         style="fill:#f95110;fill-rule:evenodd;stroke:none;paint-order:stroke fill markers;fill-opacity:1" />
    </g>
  </g>
</svg>
