<?xml version="1.0" encoding="UTF-8" standalone="no"?>
<!-- Created with Inkscape (http://www.inkscape.org/) -->

<svg
   xmlns:dc="http://purl.org/dc/elements/1.1/"
   xmlns:cc="http://creativecommons.org/ns#"
   xmlns:rdf="http://www.w3.org/1999/02/22-rdf-syntax-ns#"
   xmlns:svg="http://www.w3.org/2000/svg"
   xmlns="http://www.w3.org/2000/svg"
   xmlns:sodipodi="http://sodipodi.sourceforge.net/DTD/sodipodi-0.dtd"
   xmlns:inkscape="http://www.inkscape.org/namespaces/inkscape"
   width="16.5mm"
   height="16.5mm"
   viewBox="0 0 16.5 16.5"
   version="1.1"
   id="svg8"
   sodipodi:docname="2.svg"
   inkscape:version="0.92.3 (2405546, 2018-03-11)">
  <defs
     id="defs2" />
  <sodipodi:namedview
     id="base"
     pagecolor="#ffffff"
     bordercolor="#666666"
     borderopacity="1.0"
     inkscape:pageopacity="0.0"
     inkscape:pageshadow="2"
     inkscape:zoom="1.4"
     inkscape:cx="98.450419"
     inkscape:cy="92.075551"
     inkscape:document-units="mm"
     inkscape:current-layer="layer1"
     showgrid="false"
     height="29mm"
     inkscape:window-width="1366"
     inkscape:window-height="705"
     inkscape:window-x="-8"
     inkscape:window-y="-8"
     inkscape:window-maximized="1" />
  <metadata
     id="metadata5">
    <rdf:RDF>
      <cc:Work
         rdf:about="">
        <dc:format>image/svg+xml</dc:format>
        <dc:type
           rdf:resource="http://purl.org/dc/dcmitype/StillImage" />
        <dc:title></dc:title>
      </cc:Work>
    </rdf:RDF>
  </metadata>
  <g
     inkscape:label="Layer 1"
     inkscape:groupmode="layer"
     id="layer1"
     transform="translate(0,-280.5)">
    <g
       id="g833"
       transform="matrix(0.26458333,0,0,0.26458333,1.0067024,280.74708)"
       style="fill:#f95110;fill-opacity:1">
      <path
         id="path831"
         d="m 40.755165,36.570363 c 0,-0.517963 -0.420227,-0.938759 -0.937958,-0.938759 0,0 -5.628547,0 -5.628547,0 -0.517845,0 -0.938073,0.420796 -0.938073,0.938759 0,0.517963 0.420228,0.93876 0.938073,0.93876 0,0 5.628547,0 5.628547,0 0.517731,0 0.937958,-0.420415 0.937958,-0.93876 z M 37.002762,12.165292 c 0,0 0,-4.693415 0,-4.693415 0,-0.5183453 -0.420227,-0.9387596 -0.938072,-0.9387596 -0.517731,0 -0.937958,0.4204143 -0.937958,0.9387596 0,0 0,4.693415 0,4.693415 0,2.587901 2.104111,4.693416 4.690475,4.693416 0,0 8.442765,0 8.442765,0 0,0 0,17.834519 0,17.834519 0,0.517962 0.420227,0.938377 0.938072,0.938377 0.517731,0 0.938072,-0.420415 0.938072,-0.938377 0,0 0,-18.773279 0,-18.773279 0,-0.518345 -0.420341,-0.93876 -0.938072,-0.93876 0,0 -9.380837,0 -9.380837,0 -1.551704,0 -2.814445,-1.263538 -2.814445,-2.815896 z m 2.814331,12.202344 c 0,0 -7.504807,0 -7.504807,0 -0.51773,0 -0.938072,0.420797 -0.938072,0.93876 0,0.517963 0.420342,0.93876 0.938072,0.93876 0,0 7.504807,0 7.504807,0 0.517731,0 0.938072,-0.420797 0.938072,-0.93876 0,-0.517963 -0.420227,-0.93876 -0.938072,-0.93876 z m -10.318909,0.93876 c 0,-0.517963 -0.420341,-0.93876 -0.938072,-0.93876 0,0 -5.628548,0 -5.628548,0 -0.517845,0 -0.938072,0.420797 -0.938072,0.93876 0,0.517963 0.420227,0.93876 0.938072,0.93876 0,0 5.628548,0 5.628548,0 0.517731,0 0.938072,-0.420415 0.938072,-0.93876 z m -6.566734,4.693415 c -0.517845,0 -0.938072,0.420415 -0.938072,0.93876 0,0.517963 0.420227,0.938377 0.938072,0.938377 0,0 1.876259,0 1.876259,0 0.51773,0 0.937958,-0.420414 0.937958,-0.938377 0,-0.518345 -0.420228,-0.93876 -0.937958,-0.93876 0,0 -1.876259,0 -1.876259,0 0,0 0,0 0,0 z m 0,-9.38683 c 0,0 9.380836,0 9.380836,0 0.517846,0 0.938073,-0.420415 0.938073,-0.938377 0,-0.518346 -0.420227,-0.93876 -0.938073,-0.93876 0,0 -9.380836,0 -9.380836,0 -0.517845,0 -0.938072,0.420414 -0.938072,0.93876 0,0.517962 0.420227,0.938377 0.938072,0.938377 z m 5.628548,11.263967 c 0,0 9.380836,0 9.380836,0 0.517731,0 0.938072,-0.420414 0.938072,-0.938377 0,-0.518345 -0.420341,-0.93876 -0.938072,-0.93876 0,0 -9.380836,0 -9.380836,0 -0.517846,0 -0.938073,0.420415 -0.938073,0.93876 0,0.517963 0.420227,0.938377 0.938073,0.938377 z m 5.628547,9.38683 c -0.517845,0 -0.938072,0.420415 -0.938072,0.93876 0,0.517963 0.420227,0.938377 0.938072,0.938377 0,0 1.876145,0 1.876145,0 0.517845,0 0.938072,-0.420414 0.938072,-0.938377 0,-0.518345 -0.420227,-0.93876 -0.938072,-0.93876 0,0 -1.876145,0 -1.876145,0 z m -3.752403,-5.632174 c 0,0 -7.504692,0 -7.504692,0 -0.517845,0 -0.938072,0.420796 -0.938072,0.938759 0,0.517963 0.420227,0.93876 0.938072,0.93876 0,0 7.504692,0 7.504692,0 0.517845,0 0.938072,-0.420797 0.938072,-0.93876 0,-0.517963 -0.420227,-0.938759 -0.938072,-0.938759 z m 0,5.632174 c 0,0 -7.504692,0 -7.504692,0 -0.517845,0 -0.938072,0.420415 -0.938072,0.93876 0,0.517963 0.420227,0.938377 0.938072,0.938377 0,0 7.504692,0 7.504692,0 0.517845,0 0.938072,-0.420414 0.938072,-0.938377 0,-0.518345 -0.420227,-0.93876 -0.938072,-0.93876 z m 22.334976,-0.759347 c 0,0 -1.876144,-1.877519 -1.876144,-1.877519 -1.441956,-1.442568 -3.638878,-1.43989 -5.078774,0 0,0 -12.290954,12.298363 -12.290954,12.298363 -0.175438,0.175587 -0.274773,0.415058 -0.274773,0.663711 0,0 0,5.632175 0,5.632175 0,0.517963 0.420227,0.938377 0.938072,0.938377 0,0 5.628548,0 5.628548,0 0.248566,0 0.487747,-0.09946 0.663185,-0.274666 0,0 12.29084,-12.298745 12.29084,-12.298745 1.494484,-1.495359 1.494484,-3.585571 0,-5.081696 z m -8.167991,1.990752 c 0,0 1.487846,1.488856 1.487846,1.488856 0,0 -8.150139,8.155043 -8.150139,8.155043 0,0 -1.487846,-1.488473 -1.487846,-1.488473 0,0 8.150139,-8.155426 8.150139,-8.155426 z m -9.476395,13.787218 c 0,0 0,-4.304752 0,-4.304752 0,0 4.302063,4.304752 4.302063,4.304752 0,0 -4.302063,0 -4.302063,0 z m 5.628433,-1.327423 c 0,0 -1.487732,-1.488473 -1.487732,-1.488473 0,0 8.150139,-8.155426 8.150139,-8.155426 0,0 1.487846,1.488856 1.487846,1.488856 0,0 -8.150253,8.155043 -8.150253,8.155043 z M 51.444748,44.259087 c 0,0 -1.213074,1.213808 -1.213074,1.213808 0,0 -4.302063,-4.304752 -4.302063,-4.304752 0,0 1.212959,-1.213808 1.212959,-1.213808 0.74112,-0.740602 1.681138,-0.744428 2.425919,0 0,0 1.876259,1.877519 1.876259,1.877519 0.758858,0.760112 0.758858,1.667886 0,2.427233 z M 30.436142,56.282401 c 0,0 -24.3903351,0 -24.3903351,0 -1.55159,0 -2.8142166,-1.263538 -2.8142166,-2.815896 0,0 0,-46.9333876 0,-46.9333876 0,-1.5523579 1.2626266,-2.8158961 2.8142166,-2.8158961 0,0 29.6305851,0 29.6305851,0 0,0 9.105949,9.1113997 9.105949,9.1113997 0.366783,0.367241 0.959702,0.367241 1.326485,0 0.366783,-0.366858 0.366783,-0.960182 0,-1.32704 0,0 -9.380837,-9.3868307 -9.380837,-9.3868307 -0.175438,-0.1763522 -0.414734,-0.2750482 -0.663299,-0.2750482 0,0 -30.0188831,0 -30.0188831,0 -2.5862503,0 -4.690361,2.1055146 -4.690361,4.6934153 0,0 0,46.9333876 0,46.9333876 0,2.587901 2.1041107,4.693415 4.6904754,4.693415 0,0 24.3903347,0 24.3903347,0 0.517846,0 0.938073,-0.420796 0.938073,-0.938759 0,-0.517963 -0.420342,-0.93876 -0.938187,-0.93876 z m 0,-9.38683 c 0,0 -7.504692,0 -7.504692,0 -0.517845,0 -0.938072,0.420797 -0.938072,0.938759 0,0.517963 0.420227,0.93876 0.938072,0.93876 0,0 7.504692,0 7.504692,0 0.517845,0 0.938072,-0.420797 0.938072,-0.93876 0,-0.517962 -0.420227,-0.938759 -0.938072,-0.938759 z M 18.241089,19.674221 c 0,-0.517963 -0.420342,-0.938377 -0.938072,-0.938377 0,0 -5.628548,0 -5.628548,0 -0.517731,0 -0.938072,0.420414 -0.938072,0.938377 0,0 0,5.632175 0,5.632175 0,0.517963 0.420341,0.93876 0.938072,0.93876 0,0 5.628548,0 5.628548,0 0.51773,0 0.938072,-0.420797 0.938072,-0.93876 0,0 0,-5.632175 0,-5.632175 z m -1.876259,4.693415 c 0,0 -3.752289,0 -3.752289,0 0,0 0,-3.754655 0,-3.754655 0,0 3.752289,0 3.752289,0 0,0 0,3.754655 0,3.754655 z M 11.674355,48.77309 c 0,0 5.628547,0 5.628547,0 0.517731,0 0.938072,-0.420414 0.938072,-0.93876 0,0 0,-5.631792 0,-5.631792 0,-0.518345 -0.420341,-0.93876 -0.938072,-0.93876 0,0 -5.628547,0 -5.628547,0 -0.517731,0 -0.938073,0.420415 -0.938073,0.93876 0,0 0,5.631792 0,5.631792 0,0.518346 0.420342,0.93876 0.938073,0.93876 z m 0.938186,-5.632175 c 0,0 3.752289,0 3.752289,0 0,0 0,3.754656 0,3.754656 0,0 -3.752289,0 -3.752289,0 0,0 0,-3.754656 0,-3.754656 z m 0.274773,-5.90684 c 0.176353,0.176352 0.415535,0.275048 0.663299,0.275048 0.03101,0 0.061,-0.0011 0.09281,-0.005 0.279579,-0.02716 0.531921,-0.17903 0.687675,-0.412764 0,0 3.752289,-5.632175 3.752289,-5.632175 0.287018,-0.43189 0.170746,-1.014885 -0.259895,-1.301792 -0.432472,-0.288437 -1.013145,-0.170997 -1.301079,0.259746 0,0 -3.117256,4.679261 -3.117256,4.679261 0,0 -1.067619,-1.066911 -1.067619,-1.066911 -0.366669,-0.367241 -0.959702,-0.367241 -1.326371,0 -0.366783,0.366859 -0.366897,0.960182 0,1.32704 0,0 1.876145,1.87752 1.876145,1.87752 z"
         inkscape:connector-curvature="0"
         style="fill:#f95110;fill-rule:evenodd;stroke:none;paint-order:stroke fill markers;fill-opacity:1" />
    </g>
  </g>
</svg>
