<?xml version="1.0" encoding="UTF-8" standalone="no"?>
<!-- Created with Inkscape (http://www.inkscape.org/) -->

<svg
   xmlns:dc="http://purl.org/dc/elements/1.1/"
   xmlns:cc="http://creativecommons.org/ns#"
   xmlns:rdf="http://www.w3.org/1999/02/22-rdf-syntax-ns#"
   xmlns:svg="http://www.w3.org/2000/svg"
   xmlns="http://www.w3.org/2000/svg"
   xmlns:sodipodi="http://sodipodi.sourceforge.net/DTD/sodipodi-0.dtd"
   xmlns:inkscape="http://www.inkscape.org/namespaces/inkscape"
   width="16.5mm"
   height="16.5mm"
   viewBox="0 0 16.5 16.5"
   version="1.1"
   id="svg8"
   sodipodi:docname="21.svg"
   inkscape:version="0.92.3 (2405546, 2018-03-11)">
  <defs
     id="defs2" />
  <sodipodi:namedview
     id="base"
     pagecolor="#ffffff"
     bordercolor="#666666"
     borderopacity="1.0"
     inkscape:pageopacity="0.0"
     inkscape:pageshadow="2"
     inkscape:zoom="1.4"
     inkscape:cx="107.73613"
     inkscape:cy="25.298186"
     inkscape:document-units="mm"
     inkscape:current-layer="layer1"
     showgrid="false"
     height="29mm"
     inkscape:window-width="1366"
     inkscape:window-height="705"
     inkscape:window-x="-8"
     inkscape:window-y="-8"
     inkscape:window-maximized="1" />
  <metadata
     id="metadata5">
    <rdf:RDF>
      <cc:Work
         rdf:about="">
        <dc:format>image/svg+xml</dc:format>
        <dc:type
           rdf:resource="http://purl.org/dc/dcmitype/StillImage" />
        <dc:title></dc:title>
      </cc:Work>
    </rdf:RDF>
  </metadata>
  <g
     inkscape:label="Layer 1"
     inkscape:groupmode="layer"
     id="layer1"
     transform="translate(0,-280.5)">
    <g
       style="display:inline;fill:#f95110;fill-opacity:1"
       transform="matrix(0.10714285,0,0,0.10714285,0.92064207,264.31943)"
       id="layer1-2"
       inkscape:label="Layer 1">
      <g
         style="fill:#f95110;fill-opacity:1;fill-rule:evenodd"
         transform="matrix(0.26458333,0,0,0.26458333,1.2851203,163.72559)"
         id="g323">
        <g
           style="fill:#f95110;fill-opacity:1;fill-rule:evenodd"
           id="g14">
          <g
             style="fill:#f95110;fill-opacity:1;fill-rule:evenodd"
             id="g12">
            <path
               style="fill:#f95110;fill-opacity:1;fill-rule:evenodd"
               inkscape:connector-curvature="0"
               d="M 462.8,247.776 C 417.736,175.28 340.424,132 256,132 171.576,132 94.264,175.28 49.2,247.768 c -1.6,2.592 -1.6,5.872 0,8.456 C 94.264,328.72 171.576,372 256,372 c 84.424,0 161.736,-43.28 206.8,-115.768 1.6,-2.592 1.6,-5.872 0,-8.456 z M 256,356 C 178.8,356 107.952,317.216 65.488,252 107.944,186.784 178.8,148 256,148 333.2,148 404.048,186.784 446.512,252 404.056,317.216 333.2,356 256,356 Z"
               id="path10" />
          </g>
        </g>
        <g
           style="fill:#f95110;fill-opacity:1;fill-rule:evenodd"
           id="g20">
          <g
             style="fill:#f95110;fill-opacity:1;fill-rule:evenodd"
             id="g18">
            <path
               style="fill:#f95110;fill-opacity:1;fill-rule:evenodd"
               inkscape:connector-curvature="0"
               d="m 256,164 c -48.52,0 -88,39.48 -88,88 0,48.52 39.48,88 88,88 48.52,0 88,-39.48 88,-88 0,-48.52 -39.48,-88 -88,-88 z m 0,160 c -39.704,0 -72,-32.296 -72,-72 0,-39.704 32.296,-72 72,-72 39.704,0 72,32.296 72,72 0,39.704 -32.296,72 -72,72 z"
               id="path16" />
          </g>
        </g>
        <g
           style="fill:#f95110;fill-opacity:1;fill-rule:evenodd"
           id="g26">
          <g
             style="fill:#f95110;fill-opacity:1;fill-rule:evenodd"
             id="g24">
            <path
               style="fill:#f95110;fill-opacity:1;fill-rule:evenodd"
               inkscape:connector-curvature="0"
               d="m 256,220 c -17.648,0 -32,14.352 -32,32 0,17.648 14.352,32 32,32 17.648,0 32,-14.352 32,-32 0,-17.648 -14.352,-32 -32,-32 z m 0,48 c -8.824,0 -16,-7.176 -16,-16 0,-8.824 7.176,-16 16,-16 8.824,0 16,7.176 16,16 0,8.824 -7.176,16 -16,16 z"
               id="path22" />
          </g>
        </g>
        <g
           style="fill:#f95110;fill-opacity:1;fill-rule:evenodd"
           id="g32">
          <g
             style="fill:#f95110;fill-opacity:1;fill-rule:evenodd"
             id="g30">
            <path
               style="fill:#f95110;fill-opacity:1;fill-rule:evenodd"
               inkscape:connector-curvature="0"
               d="M 504,108 H 392 c -4.424,0 -8,3.576 -8,8 0,4.424 3.576,8 8,8 h 112 c 4.424,0 8,-3.576 8,-8 0,-4.424 -3.576,-8 -8,-8 z"
               id="path28" />
          </g>
        </g>
        <g
           style="fill:#f95110;fill-opacity:1;fill-rule:evenodd"
           id="g38">
          <g
             style="fill:#f95110;fill-opacity:1;fill-rule:evenodd"
             id="g36">
            <path
               style="fill:#f95110;fill-opacity:1;fill-rule:evenodd"
               inkscape:connector-curvature="0"
               d="m 424,76 h -32 c -4.424,0 -8,3.576 -8,8 0,4.424 3.576,8 8,8 h 32 c 4.424,0 8,-3.576 8,-8 0,-4.424 -3.576,-8 -8,-8 z"
               id="path34" />
          </g>
        </g>
        <g
           style="fill:#f95110;fill-opacity:1;fill-rule:evenodd"
           id="g44">
          <g
             style="fill:#f95110;fill-opacity:1;fill-rule:evenodd"
             id="g42">
            <path
               style="fill:#f95110;fill-opacity:1;fill-rule:evenodd"
               inkscape:connector-curvature="0"
               d="m 504,44 h -24 c -4.424,0 -8,3.576 -8,8 0,4.424 3.576,8 8,8 h 24 c 4.424,0 8,-3.576 8,-8 0,-4.424 -3.576,-8 -8,-8 z"
               id="path40" />
          </g>
        </g>
        <g
           style="fill:#f95110;fill-opacity:1;fill-rule:evenodd"
           id="g50">
          <g
             style="fill:#f95110;fill-opacity:1;fill-rule:evenodd"
             id="g48">
            <path
               style="fill:#f95110;fill-opacity:1;fill-rule:evenodd"
               inkscape:connector-curvature="0"
               d="m 504,76 h -48 c -4.424,0 -8,3.576 -8,8 0,4.424 3.576,8 8,8 h 48 c 4.424,0 8,-3.576 8,-8 0,-4.424 -3.576,-8 -8,-8 z"
               id="path46" />
          </g>
        </g>
        <g
           style="fill:#f95110;fill-opacity:1;fill-rule:evenodd"
           id="g56">
          <g
             style="fill:#f95110;fill-opacity:1;fill-rule:evenodd"
             id="g54">
            <path
               style="fill:#f95110;fill-opacity:1;fill-rule:evenodd"
               inkscape:connector-curvature="0"
               d="m 424,12 h -32 c -4.424,0 -8,3.576 -8,8 0,4.424 3.576,8 8,8 h 32 c 4.424,0 8,-3.576 8,-8 0,-4.424 -3.576,-8 -8,-8 z"
               id="path52" />
          </g>
        </g>
        <g
           style="fill:#f95110;fill-opacity:1;fill-rule:evenodd"
           id="g62">
          <g
             style="fill:#f95110;fill-opacity:1;fill-rule:evenodd"
             id="g60">
            <path
               style="fill:#f95110;fill-opacity:1;fill-rule:evenodd"
               inkscape:connector-curvature="0"
               d="m 504,12 h -48 c -4.424,0 -8,3.576 -8,8 0,4.424 3.576,8 8,8 h 48 c 4.424,0 8,-3.576 8,-8 0,-4.424 -3.576,-8 -8,-8 z"
               id="path58" />
          </g>
        </g>
        <g
           style="fill:#f95110;fill-opacity:1;fill-rule:evenodd"
           id="g68">
          <g
             style="fill:#f95110;fill-opacity:1;fill-rule:evenodd"
             id="g66">
            <path
               style="fill:#f95110;fill-opacity:1;fill-rule:evenodd"
               inkscape:connector-curvature="0"
               d="m 448,44 h -56 c -4.424,0 -8,3.576 -8,8 0,4.424 3.576,8 8,8 h 56 c 4.424,0 8,-3.576 8,-8 0,-4.424 -3.576,-8 -8,-8 z"
               id="path64" />
          </g>
        </g>
        <g
           style="fill:#f95110;fill-opacity:1;fill-rule:evenodd"
           id="g74">
          <g
             style="fill:#f95110;fill-opacity:1;fill-rule:evenodd"
             id="g72">
            <path
               style="fill:#f95110;fill-opacity:1;fill-rule:evenodd"
               inkscape:connector-curvature="0"
               d="m 336,244 h -56 c -4.424,0 -8,3.576 -8,8 0,4.424 3.576,8 8,8 h 56 c 4.424,0 8,-3.576 8,-8 0,-4.424 -3.576,-8 -8,-8 z"
               id="path70" />
          </g>
        </g>
        <g
           style="fill:#f95110;fill-opacity:1;fill-rule:evenodd"
           id="g80">
          <g
             style="fill:#f95110;fill-opacity:1;fill-rule:evenodd"
             id="g78">
            <path
               style="fill:#f95110;fill-opacity:1;fill-rule:evenodd"
               inkscape:connector-curvature="0"
               d="m 256,308 c -4.424,0 -8,3.576 -8,8 v 16 c 0,4.424 3.576,8 8,8 4.424,0 8,-3.576 8,-8 v -16 c 0,-4.424 -3.576,-8 -8,-8 z"
               id="path76" />
          </g>
        </g>
        <g
           style="fill:#f95110;fill-opacity:1;fill-rule:evenodd"
           id="g86">
          <g
             style="fill:#f95110;fill-opacity:1;fill-rule:evenodd"
             id="g84">
            <path
               style="fill:#f95110;fill-opacity:1;fill-rule:evenodd"
               inkscape:connector-curvature="0"
               d="m 256,164 c -4.424,0 -8,3.576 -8,8 v 16 c 0,4.424 3.576,8 8,8 4.424,0 8,-3.576 8,-8 v -16 c 0,-4.424 -3.576,-8 -8,-8 z"
               id="path82" />
          </g>
        </g>
        <g
           style="fill:#f95110;fill-opacity:1;fill-rule:evenodd"
           id="g92">
          <g
             style="fill:#f95110;fill-opacity:1;fill-rule:evenodd"
             id="g90">
            <path
               style="fill:#f95110;fill-opacity:1;fill-rule:evenodd"
               inkscape:connector-curvature="0"
               d="m 318.224,302.912 -11.32,-11.32 c -3.128,-3.128 -8.184,-3.128 -11.312,0 -3.128,3.128 -3.128,8.184 0,11.312 l 11.32,11.32 c 1.56,1.56 3.608,2.344 5.656,2.344 2.048,0 4.096,-0.776 5.656,-2.344 3.128,-3.128 3.128,-8.184 0,-11.312 z"
               id="path88" />
          </g>
        </g>
        <g
           style="fill:#f95110;fill-opacity:1;fill-rule:evenodd"
           id="g98">
          <g
             style="fill:#f95110;fill-opacity:1;fill-rule:evenodd"
             id="g96">
            <path
               style="fill:#f95110;fill-opacity:1;fill-rule:evenodd"
               inkscape:connector-curvature="0"
               d="m 216.408,201.096 -11.312,-11.312 c -3.128,-3.128 -8.184,-3.128 -11.312,0 -3.128,3.128 -3.128,8.184 0,11.312 l 11.312,11.312 c 1.56,1.56 3.608,2.344 5.656,2.344 2.048,0 4.088,-0.784 5.656,-2.344 3.128,-3.128 3.128,-8.184 0,-11.312 z"
               id="path94" />
          </g>
        </g>
        <g
           style="fill:#f95110;fill-opacity:1;fill-rule:evenodd"
           id="g104">
          <g
             style="fill:#f95110;fill-opacity:1;fill-rule:evenodd"
             id="g102">
            <path
               style="fill:#f95110;fill-opacity:1;fill-rule:evenodd"
               inkscape:connector-curvature="0"
               d="m 232,244 h -55.992 c -4.424,0 -8,3.576 -8,8 0,4.424 3.576,8 8,8 H 232 c 4.424,0 8,-3.576 8,-8 0,-4.424 -3.576,-8 -8,-8 z"
               id="path100" />
          </g>
        </g>
        <g
           style="fill:#f95110;fill-opacity:1;fill-rule:evenodd"
           id="g110">
          <g
             style="fill:#f95110;fill-opacity:1;fill-rule:evenodd"
             id="g108">
            <path
               style="fill:#f95110;fill-opacity:1;fill-rule:evenodd"
               inkscape:connector-curvature="0"
               d="m 397.656,110.352 c -3.128,-3.128 -8.184,-3.128 -11.312,0 L 295.6,201.096 c -3.128,3.128 -3.128,8.184 0,11.312 1.56,1.56 3.608,2.344 5.656,2.344 2.048,0 4.096,-0.784 5.656,-2.344 l 90.744,-90.744 c 3.128,-3.128 3.128,-8.184 0,-11.312 z"
               id="path106" />
          </g>
        </g>
        <g
           style="fill:#f95110;fill-opacity:1;fill-rule:evenodd"
           id="g116">
          <g
             style="fill:#f95110;fill-opacity:1;fill-rule:evenodd"
             id="g114">
            <path
               style="fill:#f95110;fill-opacity:1;fill-rule:evenodd"
               inkscape:connector-curvature="0"
               d="m 216.408,291.584 c -3.128,-3.128 -8.184,-3.128 -11.312,0 l -90.768,90.76 c -3.128,3.128 -3.128,8.184 0,11.312 1.56,1.56 3.608,2.344 5.656,2.344 2.048,0 4.096,-0.784 5.656,-2.344 l 90.768,-90.76 c 3.128,-3.128 3.128,-8.184 0,-11.312 z"
               id="path112" />
          </g>
        </g>
        <g
           style="fill:#f95110;fill-opacity:1;fill-rule:evenodd"
           id="g122">
          <g
             style="fill:#f95110;fill-opacity:1;fill-rule:evenodd"
             id="g120">
            <path
               style="fill:#f95110;fill-opacity:1;fill-rule:evenodd"
               inkscape:connector-curvature="0"
               d="M 119.984,380 H 8 c -4.424,0 -8,3.576 -8,8 0,4.424 3.576,8 8,8 h 111.984 c 4.424,0 8,-3.576 8,-8 0,-4.424 -3.576,-8 -8,-8 z"
               id="path118" />
          </g>
        </g>
        <g
           style="fill:#f95110;fill-opacity:1;fill-rule:evenodd"
           id="g128">
          <g
             style="fill:#f95110;fill-opacity:1;fill-rule:evenodd"
             id="g126">
            <path
               style="fill:#f95110;fill-opacity:1;fill-rule:evenodd"
               inkscape:connector-curvature="0"
               d="M 120,412 H 8 c -4.424,0 -8,3.576 -8,8 v 72 c 0,4.424 3.576,8 8,8 h 112 c 4.424,0 8,-3.576 8,-8 v -72 c 0,-4.424 -3.576,-8 -8,-8 z m -8,72 H 16 v -56 h 96 z"
               id="path124" />
          </g>
        </g>
        <g
           style="fill:#f95110;fill-opacity:1;fill-rule:evenodd"
           id="g134">
          <g
             style="fill:#f95110;fill-opacity:1;fill-rule:evenodd"
             id="g132">
            <path
               style="fill:#f95110;fill-opacity:1;fill-rule:evenodd"
               inkscape:connector-curvature="0"
               d="M 96,460 H 32 c -4.424,0 -8,3.576 -8,8 0,4.424 3.576,8 8,8 h 64 c 4.424,0 8,-3.576 8,-8 0,-4.424 -3.576,-8 -8,-8 z"
               id="path130" />
          </g>
        </g>
        <g
           style="fill:#f95110;fill-opacity:1;fill-rule:evenodd"
           id="g140">
          <g
             style="fill:#f95110;fill-opacity:1;fill-rule:evenodd"
             id="g138">
            <path
               style="fill:#f95110;fill-opacity:1;fill-rule:evenodd"
               inkscape:connector-curvature="0"
               d="m 32,460 c -4.424,0 -8,3.576 -8,8 v 24 c 0,4.424 3.576,8 8,8 4.424,0 8,-3.576 8,-8 v -24 c 0,-4.424 -3.576,-8 -8,-8 z"
               id="path136" />
          </g>
        </g>
        <g
           style="fill:#f95110;fill-opacity:1;fill-rule:evenodd"
           id="g146">
          <g
             style="fill:#f95110;fill-opacity:1;fill-rule:evenodd"
             id="g144">
            <path
               style="fill:#f95110;fill-opacity:1;fill-rule:evenodd"
               inkscape:connector-curvature="0"
               d="m 96,460 c -4.424,0 -8,3.576 -8,8 v 24 c 0,4.424 3.576,8 8,8 4.424,0 8,-3.576 8,-8 v -24 c 0,-4.424 -3.576,-8 -8,-8 z"
               id="path142" />
          </g>
        </g>
        <g
           style="fill:#f95110;fill-opacity:1;fill-rule:evenodd"
           id="g152">
          <g
             style="fill:#f95110;fill-opacity:1;fill-rule:evenodd"
             id="g150">
            <path
               style="fill:#f95110;fill-opacity:1;fill-rule:evenodd"
               inkscape:connector-curvature="0"
               d="M 168,20 H 96 c -4.424,0 -8,3.576 -8,8 v 72 c 0,4.424 3.576,8 8,8 h 72 c 4.424,0 8,-3.576 8,-8 V 28 c 0,-4.424 -3.576,-8 -8,-8 z m -8,72 H 104 V 36 h 56 z"
               id="path148" />
          </g>
        </g>
        <g
           style="fill:#f95110;fill-opacity:1;fill-rule:evenodd"
           id="g158">
          <g
             style="fill:#f95110;fill-opacity:1;fill-rule:evenodd"
             id="g156">
            <path
               style="fill:#f95110;fill-opacity:1;fill-rule:evenodd"
               inkscape:connector-curvature="0"
               d="M 72,124 H 40 c -4.424,0 -8,3.576 -8,8 v 32 c 0,4.424 3.576,8 8,8 h 32 c 4.424,0 8,-3.576 8,-8 v -32 c 0,-4.424 -3.576,-8 -8,-8 z m -8,32 H 48 v -16 h 16 z"
               id="path154" />
          </g>
        </g>
        <g
           style="fill:#f95110;fill-opacity:1;fill-rule:evenodd"
           id="g164">
          <g
             style="fill:#f95110;fill-opacity:1;fill-rule:evenodd"
             id="g162">
            <path
               style="fill:#f95110;fill-opacity:1;fill-rule:evenodd"
               inkscape:connector-curvature="0"
               d="m 248,52 h -24 c -4.424,0 -8,3.576 -8,8 v 24 c 0,4.424 3.576,8 8,8 h 24 c 4.424,0 8,-3.576 8,-8 V 60 c 0,-4.424 -3.576,-8 -8,-8 z m -8,24 h -8 v -8 h 8 z"
               id="path160" />
          </g>
        </g>
        <g
           style="fill:#f95110;fill-opacity:1;fill-rule:evenodd"
           id="g170">
          <g
             style="fill:#f95110;fill-opacity:1;fill-rule:evenodd"
             id="g168">
            <path
               style="fill:#f95110;fill-opacity:1;fill-rule:evenodd"
               inkscape:connector-curvature="0"
               d="m 416,396 h -72 c -4.424,0 -8,3.576 -8,8 v 72 c 0,4.424 3.576,8 8,8 h 72 c 4.424,0 8,-3.576 8,-8 v -72 c 0,-4.424 -3.576,-8 -8,-8 z m -8,72 h -56 v -56 h 56 z"
               id="path166" />
          </g>
        </g>
        <g
           style="fill:#f95110;fill-opacity:1;fill-rule:evenodd"
           id="g176">
          <g
             style="fill:#f95110;fill-opacity:1;fill-rule:evenodd"
             id="g174">
            <path
               style="fill:#f95110;fill-opacity:1;fill-rule:evenodd"
               inkscape:connector-curvature="0"
               d="m 472,332 h -32 c -4.424,0 -8,3.576 -8,8 v 32 c 0,4.424 3.576,8 8,8 h 32 c 4.424,0 8,-3.576 8,-8 v -32 c 0,-4.424 -3.576,-8 -8,-8 z m -8,32 h -16 v -16 h 16 z"
               id="path172" />
          </g>
        </g>
        <g
           style="fill:#f95110;fill-opacity:1;fill-rule:evenodd"
           id="g182">
          <g
             style="fill:#f95110;fill-opacity:1;fill-rule:evenodd"
             id="g180">
            <path
               style="fill:#f95110;fill-opacity:1;fill-rule:evenodd"
               inkscape:connector-curvature="0"
               d="m 288,412 h -24 c -4.424,0 -8,3.576 -8,8 v 24 c 0,4.424 3.576,8 8,8 h 24 c 4.424,0 8,-3.576 8,-8 v -24 c 0,-4.424 -3.576,-8 -8,-8 z m -8,24 h -8 v -8 h 8 z"
               id="path178" />
          </g>
        </g>
        <g
           style="fill:#f95110;fill-opacity:1;fill-rule:evenodd"
           id="g184" />
        <g
           style="fill:#f95110;fill-opacity:1;fill-rule:evenodd"
           id="g186" />
        <g
           style="fill:#f95110;fill-opacity:1;fill-rule:evenodd"
           id="g188" />
        <g
           style="fill:#f95110;fill-opacity:1;fill-rule:evenodd"
           id="g190" />
        <g
           style="fill:#f95110;fill-opacity:1;fill-rule:evenodd"
           id="g192" />
        <g
           style="fill:#f95110;fill-opacity:1;fill-rule:evenodd"
           id="g194" />
        <g
           style="fill:#f95110;fill-opacity:1;fill-rule:evenodd"
           id="g196" />
        <g
           style="fill:#f95110;fill-opacity:1;fill-rule:evenodd"
           id="g198" />
        <g
           style="fill:#f95110;fill-opacity:1;fill-rule:evenodd"
           id="g200" />
        <g
           style="fill:#f95110;fill-opacity:1;fill-rule:evenodd"
           id="g202" />
        <g
           style="fill:#f95110;fill-opacity:1;fill-rule:evenodd"
           id="g204" />
        <g
           style="fill:#f95110;fill-opacity:1;fill-rule:evenodd"
           id="g206" />
        <g
           style="fill:#f95110;fill-opacity:1;fill-rule:evenodd"
           id="g208" />
        <g
           style="fill:#f95110;fill-opacity:1;fill-rule:evenodd"
           id="g210" />
        <g
           style="fill:#f95110;fill-opacity:1;fill-rule:evenodd"
           id="g212" />
      </g>
    </g>
  </g>
</svg>
