<?xml version="1.0" encoding="UTF-8" standalone="no"?>
<!-- Created with Inkscape (http://www.inkscape.org/) -->

<svg
   xmlns:dc="http://purl.org/dc/elements/1.1/"
   xmlns:cc="http://creativecommons.org/ns#"
   xmlns:rdf="http://www.w3.org/1999/02/22-rdf-syntax-ns#"
   xmlns:svg="http://www.w3.org/2000/svg"
   xmlns="http://www.w3.org/2000/svg"
   xmlns:sodipodi="http://sodipodi.sourceforge.net/DTD/sodipodi-0.dtd"
   xmlns:inkscape="http://www.inkscape.org/namespaces/inkscape"
   width="16.5mm"
   height="16.5mm"
   viewBox="0 0 16.5 16.5"
   version="1.1"
   id="svg8"
   sodipodi:docname="22.svg"
   inkscape:version="0.92.3 (2405546, 2018-03-11)">
  <defs
     id="defs2" />
  <sodipodi:namedview
     id="base"
     pagecolor="#ffffff"
     bordercolor="#666666"
     borderopacity="1.0"
     inkscape:pageopacity="0.0"
     inkscape:pageshadow="2"
     inkscape:zoom="1.4"
     inkscape:cx="107.73613"
     inkscape:cy="25.298186"
     inkscape:document-units="mm"
     inkscape:current-layer="layer1"
     showgrid="false"
     height="29mm"
     inkscape:window-width="1366"
     inkscape:window-height="705"
     inkscape:window-x="-8"
     inkscape:window-y="-8"
     inkscape:window-maximized="1" />
  <metadata
     id="metadata5">
    <rdf:RDF>
      <cc:Work
         rdf:about="">
        <dc:format>image/svg+xml</dc:format>
        <dc:type
           rdf:resource="http://purl.org/dc/dcmitype/StillImage" />
        <dc:title></dc:title>
      </cc:Work>
    </rdf:RDF>
  </metadata>
  <g
     inkscape:label="Layer 1"
     inkscape:groupmode="layer"
     id="layer1"
     transform="translate(0,-280.5)">
    <g
       id="g5024"
       transform="matrix(0.26458333,0,0,0.26458333,0.18900342,280.74707)"
       style="fill:#f95110;fill-opacity:1">
      <path
         id="path5022"
         d="m 51.877785,49.183936 c 0,0 -0.92537,-0.371066 -0.92537,-0.371066 4.653283,-5.176184 7.207489,-11.825157 7.207489,-18.813063 0,-5.716717 -1.728286,-11.217297 -4.877243,-15.841472 -0.03822,-0.07536 -0.08549,-0.142689 -0.140533,-0.201983 C 51.762657,11.968278 50.12043,10.144698 48.235931,8.5414617 47.861824,8.2231863 47.30072,8.2687088 46.98246,8.6428355 c -0.318146,0.3741267 -0.272827,0.9353167 0.101166,1.2535921 1.511764,1.2857254 2.857475,2.7233204 4.024772,4.2791214 -1.882324,0.73563 -4.141731,1.358792 -6.664009,1.851124 -0.696373,-2.074911 -1.552162,-4.009047 -2.558212,-5.754206 -1.355896,-2.3522545 -2.915611,-4.2466055 -4.615402,-5.6398257 2.645531,0.7566693 5.165748,1.9283973 7.478485,3.4907013 0.407066,0.2746656 0.959701,0.1679362 1.234703,-0.2390891 C 46.25885,7.4772282 46.151848,6.9248366 45.744781,6.6497885 41.087494,3.502993 35.642967,1.8396977 30,1.8396977 c -7.521973,0 -14.593391,2.9291288 -19.912033,8.2480013 -5.3189851,5.318872 -8.2479859,12.390555 -8.2479859,19.912108 0,6.996704 2.5576401,13.646442 7.2185898,18.824922 0,0 -0.9136963,0.357677 -0.9136963,0.357677 -0.3364563,0.121649 -3.1977082,1.262773 -3.1977082,4.900753 0,0 0,3.18658 0,3.18658 0,0.491185 0.3980256,0.890177 0.8893204,0.890177 0,0 5.1153942,0 5.1153942,0 0,0 0.79628,0 0.79628,0 0,0 0.948601,0 0.948601,0 0,0 4.549828,0 4.549828,0 0,0 1.679191,0 1.679191,0 0.04292,0 0.0848,-0.0042 0.126114,-0.0099 0.04131,0.0057 0.08308,0.0099 0.126,0.0099 0,0 3.618393,0 3.618393,0 0.49118,0 0.889205,-0.398227 0.889205,-0.889412 0,-0.491184 -0.398025,-0.889029 -0.889205,-0.889029 0,0 -2.729073,0 -2.729073,0 0,0 0,-3.097065 0,-3.097065 0,-3.267678 2.566452,-4.207586 2.670135,-4.243927 0.01373,-0.0046 0.02735,-0.0096 0.04097,-0.01492 0,0 4.330445,-1.696194 4.330445,-1.696194 0.0094,0.01033 0.0182,0.02104 0.02815,0.0306 0,0 2.301407,2.241317 2.301407,2.241317 0.166168,0.161816 0.38887,0.252478 0.620499,0.252478 0.0046,0 0.0093,0 0.01396,0 0.23655,-0.0038 0.462227,-0.101756 0.626221,-0.27237 0,0 2.20974,-2.29296 2.20974,-2.29296 0,0 4.324722,1.734448 4.324722,1.734448 0.01568,0.0065 0.02609,0.01033 0.04211,0.01568 0.109177,0.03825 2.676087,0.978544 2.676087,4.24584 0,0 0,3.097065 0,3.097065 0,0 -6.504364,0 -6.504364,0 0,0 -6.876183,0 -6.876183,0 0,0 -0.995636,0 -0.995636,0 -0.49118,0 -0.889206,0.397845 -0.889206,0.889029 0,0.491185 0.39814,0.889412 0.889206,0.889412 0,0 0.995636,0 0.995636,0 0,0 6.876183,0 6.876183,0 0,0 7.393684,0 7.393684,0 0,0 1.15e-4,0 1.15e-4,0 0,0 1.14e-4,0 1.14e-4,0 0,0 1.134567,0 1.134567,0 0,0 0.796166,0 0.796166,0 0,0 0.948715,0 0.948715,0 0,0 4.549599,0 4.549599,0 0,0 5.912017,0 5.912017,0 0.491181,0 0.889206,-0.404347 0.889206,-0.895532 0,0 0,-3.181225 0,-3.181225 2.29e-4,-3.623826 -2.839393,-4.770306 -3.193702,-4.899223 z M 49.18705,48.104784 c 0,0 -0.876618,-0.351557 -0.876618,-0.351557 0,0 0,-0.505721 0,-0.505721 0.968743,-0.568459 1.71341,-1.478145 2.067147,-2.563801 1.29364,-0.102139 2.315597,-1.1855 2.315597,-2.504889 0,-0.784595 -0.361747,-1.486178 -0.926513,-1.947907 0,0 0,-1.580284 0,-1.580284 0,-3.047334 -2.286759,-5.568672 -5.233841,-5.943182 0.03353,-0.602887 0.05676,-1.210364 0.06798,-1.818225 0,0 9.764213,0 9.764213,0 -0.213776,6.436662 -2.742233,12.516795 -7.177963,17.215566 z m -3.210526,-2.001846 c 0,0 -0.811042,0 -0.811042,0 -1.571274,0 -2.849579,-1.278075 -2.849579,-2.849177 0,0 0,-2.35302 0,-2.35302 0,0 0,0 0,0 1.158371,-0.125856 3.210182,-0.530586 4.791069,-1.850741 0.35408,0.607095 0.901909,1.263921 1.719246,1.647611 0,0 0,2.555767 0,2.555767 -1.15e-4,1.571485 -1.27842,2.84956 -2.849694,2.84956 z m 0.555497,1.744012 c 0,0 0,0.493097 0,0.493097 0,0 -0.99083,1.027892 -0.99083,1.027892 0,0 -0.931091,-0.906626 -0.931091,-0.906626 0,0 0,-0.614363 0,-0.614363 0.182304,0.02181 0.36747,0.03443 0.555496,0.03443 0,0 0.811043,0 0.811043,0 0.188141,0 0.373077,-0.01262 0.555382,-0.03443 z m -5.102578,-8.666886 c -9.15e-4,0 -0.0019,0 -0.003,0 -0.03056,0 -0.06088,0.0015 -0.09075,0.0046 -0.0095,7.65e-4 -0.01888,0.0031 -0.02838,0.0042 -0.02003,0.0027 -0.04005,0.005 -0.05962,0.0092 -0.0135,0.0027 -0.02632,0.0065 -0.03948,0.0099 -0.01534,0.0038 -0.03079,0.0073 -0.04555,0.01186 -0.0097,0.0031 -0.01888,0.0073 -0.02838,0.01033 0,0 0,-0.579553 0,-0.579553 0,-2.323946 1.890564,-4.214471 4.214401,-4.214471 0,0 0.425263,0 0.425263,0 2.323723,0 4.213943,1.890525 4.213943,4.214471 0,0 0,0.572284 0,0.572284 -0.01671,-0.0054 -0.03364,-0.0096 -0.05081,-0.01377 -0.0081,-0.0023 -0.01625,-0.005 -0.02449,-0.0069 -1.239738,-0.281934 -1.645202,-1.936431 -1.648178,-1.949055 -0.07713,-0.340845 -0.346756,-0.6048 -0.689163,-0.674805 -0.342407,-0.07039 -0.693855,0.06694 -0.898705,0.350027 -1.610298,2.226015 -5.199966,2.251645 -5.247116,2.251645 z m 9.175187,3.598196 c 0,0 0,-1.198506 0,-1.198506 0.187225,0.13389 0.309906,0.352322 0.309906,0.599445 0,0.247122 -0.122681,0.465171 -0.309906,0.599061 z M 52.1521,15.672056 c 2.575836,3.979208 4.050865,8.611799 4.212684,13.438339 0,0 -9.764442,0 -9.764442,0 -0.0721,-4.002543 -0.631485,-7.863546 -1.628838,-11.379495 2.733994,-0.542828 5.1717,-1.23676 7.180596,-2.058844 z m -7.330399,13.438722 c 0,0 -9.101486,0 -9.101486,0 -0.001,-3.83e-4 -0.0019,0 -0.0027,0 -1.213302,-1.341195 -2.918701,-2.227163 -4.828262,-2.374825 0,0 0,-7.647026 0,-7.647026 4.363747,-0.04361 8.574943,-0.406261 12.326775,-1.037073 0.981788,3.400421 1.532707,7.155077 1.60572,11.058924 z m -7.844467,9.285839 c 0,0.522936 -0.353279,0.964008 -0.833702,1.09981 0,0 0,-2.19962 0,-2.19962 0.480423,0.135803 0.833702,0.576874 0.833702,1.09981 z M 30.889206,3.6678689 c 3.538742,0.3779521 6.868286,3.003342 9.456139,7.4928621 0.908203,1.57531 1.687889,3.315497 2.330818,5.182687 -3.585434,0.586821 -7.609062,0.924988 -11.787072,0.966685 0,0 0,-13.6422341 0,-13.6422341 0,0 1.15e-4,0 1.15e-4,0 z M 30.325241,28.490676 c 3.029022,0 5.493279,2.46434 5.493279,5.493695 0,0 0,1.086421 0,1.086421 -0.006,-0.0046 -0.01225,-0.0088 -0.01831,-0.01339 -0.01282,-0.01033 -0.02598,-0.02027 -0.03948,-0.02946 -0.01041,-0.0073 -0.02117,-0.01415 -0.03193,-0.02066 -0.01339,-0.0088 -0.02655,-0.01683 -0.0404,-0.02487 -0.0127,-0.0069 -0.02575,-0.01339 -0.0388,-0.01989 -0.01236,-0.0061 -0.02472,-0.01224 -0.03742,-0.01798 -0.01568,-0.0069 -0.03182,-0.01262 -0.04784,-0.01874 -0.0111,-0.0042 -0.02209,-0.0084 -0.0333,-0.01224 -0.01785,-0.0057 -0.03639,-0.01071 -0.0547,-0.0153 -0.0082,-0.0023 -0.01625,-0.005 -0.02461,-0.0073 -1.689262,-0.384073 -2.224388,-2.586371 -2.228851,-2.605498 -0.07713,-0.340845 -0.346756,-0.6048 -0.689163,-0.674805 -0.342407,-0.07039 -0.69397,0.06695 -0.898705,0.350026 -2.082481,2.879016 -6.682548,2.908472 -6.743202,2.908472 -1.14e-4,0 -2.29e-4,0 -2.29e-4,0 -0.0013,0 -0.0022,0 -0.0032,0 -0.03056,0 -0.061,0.0015 -0.09075,0.0042 -0.0094,0.0011 -0.01843,0.0031 -0.02769,0.0046 -0.02014,0.0027 -0.04063,0.005 -0.06043,0.0092 -0.0127,0.0023 -0.02495,0.0065 -0.03765,0.0096 -0.01579,0.0038 -0.03204,0.0073 -0.04738,0.01224 -0.01442,0.0046 -0.02827,0.01033 -0.04234,0.0153 -0.01293,0.005 -0.02632,0.0092 -0.03902,0.01415 -0.01637,0.0073 -0.03181,0.0153 -0.04738,0.02295 -0.01007,0.005 -0.02037,0.0092 -0.03021,0.01454 -0.01602,0.0084 -0.03101,0.01836 -0.04646,0.02793 -0.0088,0.0057 -0.01797,0.01071 -0.02678,0.01645 -0.01431,0.0096 -0.02781,0.02027 -0.04177,0.03099 -0.0088,0.0065 -0.01808,0.01301 -0.02678,0.01989 -0.0081,0.0069 -0.01579,0.01454 -0.0238,0.02142 0,0 0,-1.108609 0,-1.108609 0,-3.028972 2.464256,-5.493312 5.493278,-5.493312 0,0 0.532036,0 0.532036,0 0,0 0,0 0,0 z m -15.147056,0.619719 c 0.07301,-3.90423 0.62416,-7.65965 1.606178,-11.060454 3.757095,0.631578 7.972755,0.995376 12.326317,1.038986 0,0 0,7.656207 0,7.656207 -1.864128,0.174822 -3.525925,1.055053 -4.714508,2.371382 -0.03227,-0.0034 -0.06523,-0.0057 -0.09853,-0.0057 0,0 -9.119453,0 -9.119453,0 0,0 0,-3.83e-4 0,-3.83e-4 z m 8.820877,8.177231 c 0,0 0,2.217982 0,2.217982 -0.498619,-0.123179 -0.869637,-0.572666 -0.869637,-1.108991 -1.14e-4,-0.535942 0.371018,-0.985812 0.869637,-1.108991 z M 29.11068,3.6678689 c 0,0 0,13.6422341 0,13.6422341 -4.168053,-0.04208 -8.195,-0.381395 -11.786042,-0.969363 0.642701,-1.866042 1.422158,-3.605464 2.329903,-5.180009 2.587852,-4.4895201 5.917397,-7.11491 9.456139,-7.4928621 z m -6.391297,0.9728058 c -1.696014,1.3924551 -3.252411,3.2837458 -4.605789,5.6317923 -1.005707,1.744777 -1.861267,3.678147 -2.557411,5.751911 C 13.037109,15.53281 10.78125,14.911179 8.9024734,14.17861 12.30835,9.6481575 17.137299,6.2458235 22.719383,4.6406747 Z M 7.8557968,15.676264 c 2.0038605,0.819024 4.4419102,1.510278 7.1733852,2.052724 -0.998039,3.516331 -1.557426,7.378099 -1.629753,11.381407 0,0 -9.7643277,0 -9.7643277,0 0.1644516,-4.93939 1.6929245,-9.539465 4.2206955,-13.434131 z M 13.586082,47.84695 c 0.182305,0.02219 0.367356,0.03443 0.555497,0.03443 0,0 0.811157,0 0.811157,0 0.187912,0 0.372963,-0.01224 0.555153,-0.03443 0,0 0,0.493097 0,0.493097 0,0 -0.990715,1.027892 -0.990715,1.027892 0,0 -0.931092,-0.906626 -0.931092,-0.906626 0,0 0,-0.614363 0,-0.614363 z m 1.366654,-1.744012 c 0,0 -0.811157,0 -0.811157,0 -1.571389,0 -2.849694,-1.278075 -2.849694,-2.84956 0,0 0,-2.351872 0,-2.351872 1.158257,-0.125091 3.209267,-0.530586 4.791069,-1.851506 0.354195,0.607095 0.902024,1.264303 1.719246,1.647611 0,0 0,2.55615 0,2.55615 -1.14e-4,1.571102 -1.278305,2.849177 -2.849464,2.849177 z m 2.288132,-8.850123 c -0.07713,-0.340463 -0.346756,-0.604418 -0.689164,-0.674423 -0.342407,-0.07039 -0.693969,0.06656 -0.89859,0.350027 -1.611557,2.227163 -5.204086,2.251645 -5.247459,2.251645 -0.0011,0 -0.0019,0 -0.003,0 -0.03055,0 -0.061,0.0015 -0.09075,0.0046 -0.0094,0.0011 -0.01843,0.0031 -0.02769,0.0042 -0.02014,0.0027 -0.04063,0.0054 -0.06043,0.0092 -0.01259,0.0027 -0.02495,0.0065 -0.03765,0.0096 -0.01579,0.0042 -0.03181,0.0076 -0.04738,0.01224 -0.0096,0.0031 -0.01854,0.0073 -0.02804,0.01033 0,0 0,-0.579553 0,-0.579553 0,-2.323946 1.890449,-4.214471 4.214286,-4.214471 0,0 0.425377,0 0.425377,0 2.323723,0 4.214058,1.890525 4.214058,4.214471 0,0 0,0.572284 0,0.572284 0,0 -2.29e-4,0 -2.29e-4,0 -0.01705,-0.0054 -0.03479,-0.0096 -0.05219,-0.01415 -0.0078,-0.0019 -0.01545,-0.0046 -0.02335,-0.0065 -1.239395,-0.281934 -1.644859,-1.936813 -1.647834,-1.949437 z M 3.6349869,30.889218 c 0,0 9.7642131,0 9.7642131,0 0.0111,0.612451 0.03479,1.224137 0.06855,1.830849 -2.899704,0.416972 -5.13588,2.916888 -5.13588,5.930558 0,0 0,1.573398 0,1.573398 -0.5702591,0.461729 -0.9360122,1.16599 -0.9360122,1.954793 0,1.329336 1.0376358,2.418052 2.3451233,2.506419 0.3538509,1.084891 1.0980609,1.994195 2.0664599,2.562271 0,0 0,0.500748 0,0.500748 0,0 -0.971375,0.380247 -0.971375,0.380247 C 6.3853455,43.425905 3.848877,37.339652 3.6349869,30.889218 Z m 5.8782577,10.670644 c 0,0 0,1.237908 0,1.237908 -0.2034759,-0.131212 -0.338974,-0.359208 -0.338974,-0.618571 0,-0.259747 0.1354981,-0.487742 0.338974,-0.619337 z M 18.28846,53.28441 c 0,0 0,3.097065 0,3.097065 0,0 -1.042099,0 -1.042099,0 0,0 -4.549713,0 -4.549713,0 0,0 -0.948601,0 -0.948601,0 0,0 -0.796166,0 -0.796166,0 0,0 -4.2260738,0 -4.2260738,0 0,0 0,-2.298316 0,-2.298316 0,-2.479258 1.9381714,-3.197673 2.0135879,-3.224451 0.013733,-0.0046 0.027466,-0.0096 0.04097,-0.01492 0,0 3.3540339,-1.313652 3.3540339,-1.313652 0,0 1.782189,1.735979 1.782189,1.735979 0.166168,0.161815 0.388756,0.252095 0.620384,0.252095 0.0047,0 0.0094,0 0.01408,0 0.236664,-0.0034 0.462113,-0.101756 0.626221,-0.271988 0,0 1.683426,-1.747072 1.683426,-1.747072 0,0 2.080879,0.834326 2.080879,0.834326 -0.394592,0.807547 -0.653114,1.785326 -0.653114,2.950933 z m 8.57975,-7.770588 c 0,0 -4.719887,1.848446 -4.719887,1.848446 -0.601044,0.206573 -1.4328,0.683604 -2.170715,1.470494 0,0 -2.691307,-1.079535 -2.691307,-1.079535 0,0 0,-0.505721 0,-0.505721 0.968971,-0.568076 1.713409,-1.478145 2.067146,-2.563801 1.293869,-0.102139 2.315826,-1.1855 2.315826,-2.504889 0,-0.784595 -0.361747,-1.486178 -0.926628,-1.947907 0,0 0,-1.580284 0,-1.580284 0,-3.137231 -2.423286,-5.717099 -5.49591,-5.970725 -0.03388,-0.593323 -0.05734,-1.19162 -0.06866,-1.791064 0,0 8.036614,0 8.036614,0 -0.443917,0.939907 -0.693398,1.988839 -0.693398,3.095152 0,0 0,2.074911 0,2.074911 -0.710335,0.533647 -1.170616,1.382892 -1.170616,2.337718 0,1.595968 1.286659,2.896613 2.877273,2.921096 0.417366,1.409669 1.378556,2.587135 2.640038,3.289101 0,0 0,0.907008 0,0.907008 0,0 2.29e-4,0 2.29e-4,0 z M 19.580612,42.77826 c 0,0 0,-1.198888 0,-1.198888 0.18734,0.13389 0.31025,0.352321 0.31025,0.599827 0,0.247122 -0.12291,0.465554 -0.31025,0.599061 z m 11.915474,3.356047 c 0,0.0011 0,0.0027 0,0.0034 0,0 0,0.05394 0,0.05394 0,0 -1.457062,1.511808 -1.457062,1.511808 0,0 -1.392288,-1.356113 -1.392288,-1.356113 0,0 0,-1.118937 0,-1.118937 0.298691,0.05011 0.60482,0.07727 0.917587,0.07727 0,0 1.014405,0 1.014405,0 0.312538,0 0.618667,-0.02716 0.917358,-0.07689 0,0 0,0.905479 0,0.905479 z m -0.917358,-2.607028 c 0,0 -1.014405,0 -1.014405,0 -2.087974,0 -3.786735,-1.698872 -3.786735,-3.78679 0,0 0,-3.139527 0,-3.139527 1.419182,-0.130829 4.225502,-0.623927 6.275368,-2.464339 0.432701,0.818641 1.157913,1.769259 2.312278,2.262357 0,0 0,3.341509 0,3.341509 -1.14e-4,2.087918 -1.698646,3.78679 -3.786506,3.78679 z m 9.467926,5.311604 c -0.737686,-0.788803 -1.570587,-1.267746 -2.17289,-1.475467 0,0 -4.59938,-1.844621 -4.59938,-1.844621 0,0 0,-0.911981 0,-0.911981 1.261825,-0.701966 2.2229,-1.879814 2.640152,-3.289867 1.573791,-0.04361 2.840995,-1.336221 2.840995,-2.92033 0,-0.949088 -0.455475,-1.794125 -1.158714,-2.328154 0,0 0,-2.084475 0,-2.084475 0,-1.106313 -0.249481,-2.155245 -0.693512,-3.09477 0,0 7.918167,0 7.918167,0 -0.01156,0.601357 -0.03513,1.202332 -0.06947,1.798333 -3.025589,0.300296 -5.396576,2.859889 -5.396576,5.963074 0,0 0,1.573781 0,1.573781 -0.570259,0.461346 -0.935898,1.165607 -0.935898,1.954793 0,1.329335 1.037636,2.418051 2.345238,2.506036 0.353736,1.084891 1.098175,1.994195 2.066574,2.562271 0,0 0,0.500748 0,0.500748 0,0 -2.784691,1.090629 -2.784691,1.090629 z m 0.490722,-7.279021 c 0,0 0,1.237908 0,1.237908 -0.20359,-0.131212 -0.338859,-0.359208 -0.338859,-0.618571 0,-0.259747 0.135383,-0.487742 0.338859,-0.619337 z M 53.29319,56.381475 c 0,0 -5.022697,0 -5.022697,0 0,0 -4.549599,0 -4.549599,0 0,0 -0.948715,0 -0.948715,0 0,0 -0.796166,0 -0.796166,0 0,0 -0.24559,0 -0.24559,0 0,0 0,-3.097065 0,-3.097065 0,-1.161016 -0.256119,-2.135735 -0.648193,-2.940987 0,0 2.076301,-0.813286 2.076301,-0.813286 0,0 1.782074,1.735979 1.782074,1.735979 0.166054,0.161815 0.388756,0.252095 0.620499,0.252095 0.0046,0 0.0094,0 0.01396,0 0.236663,-0.0034 0.462112,-0.101756 0.62622,-0.271988 0,0 1.683541,-1.747072 1.683541,-1.747072 0,0 3.346824,1.34196 3.346824,1.34196 0.01568,0.0065 0.02438,0.0096 0.04051,0.0153 0.08251,0.02907 2.021141,0.74787 2.021141,3.227129 0,0 0,2.297933 0,2.297933 0,0 -1.14e-4,0 -1.14e-4,0 z"
         inkscape:connector-curvature="0"
         style="fill:#f95110;fill-rule:evenodd;stroke:none;paint-order:stroke fill markers;fill-opacity:1" />
    </g>
  </g>
</svg>
