<?xml version="1.0" encoding="UTF-8" standalone="no"?>
<!-- Created with Inkscape (http://www.inkscape.org/) -->

<svg
   xmlns:dc="http://purl.org/dc/elements/1.1/"
   xmlns:cc="http://creativecommons.org/ns#"
   xmlns:rdf="http://www.w3.org/1999/02/22-rdf-syntax-ns#"
   xmlns:svg="http://www.w3.org/2000/svg"
   xmlns="http://www.w3.org/2000/svg"
   xmlns:sodipodi="http://sodipodi.sourceforge.net/DTD/sodipodi-0.dtd"
   xmlns:inkscape="http://www.inkscape.org/namespaces/inkscape"
   width="16.5mm"
   height="16.5mm"
   viewBox="0 0 16.5 16.5"
   version="1.1"
   id="svg8"
   sodipodi:docname="23.svg"
   inkscape:version="0.92.3 (2405546, 2018-03-11)">
  <defs
     id="defs2" />
  <sodipodi:namedview
     id="base"
     pagecolor="#ffffff"
     bordercolor="#666666"
     borderopacity="1.0"
     inkscape:pageopacity="0.0"
     inkscape:pageshadow="2"
     inkscape:zoom="1.4"
     inkscape:cx="107.73613"
     inkscape:cy="25.298186"
     inkscape:document-units="mm"
     inkscape:current-layer="layer1"
     showgrid="false"
     height="29mm"
     inkscape:window-width="1366"
     inkscape:window-height="705"
     inkscape:window-x="-8"
     inkscape:window-y="-8"
     inkscape:window-maximized="1" />
  <metadata
     id="metadata5">
    <rdf:RDF>
      <cc:Work
         rdf:about="">
        <dc:format>image/svg+xml</dc:format>
        <dc:type
           rdf:resource="http://purl.org/dc/dcmitype/StillImage" />
        <dc:title></dc:title>
      </cc:Work>
    </rdf:RDF>
  </metadata>
  <g
     inkscape:label="Layer 1"
     inkscape:groupmode="layer"
     id="layer1"
     transform="translate(0,-280.5)">
    <g
       id="g5038"
       transform="matrix(0.22898109,0,0,0.22898109,0.53741775,280.95357)"
       style="fill:#f95110;fill-opacity:1">
      <path
         id="path5036"
         d="m 5.8273926,48.326028 c 0,0 2.0800781,0 2.0800781,0 0,0 0,2.080266 0,2.080266 0,0 -2.0800781,0 -2.0800781,0 0,0 0,-2.080266 0,-2.080266 z m 4.1600418,0 c 0,0 2.0799636,0 2.0799636,0 0,0 0,2.080266 0,2.080266 0,0 -2.0799636,0 -2.0799636,0 0,0 0,-2.080266 0,-2.080266 z m 20.7999806,2.080266 c 0,0 2.080078,0 2.080078,0 0,0 0,2.08065 0,2.08065 0,0 -2.080078,0 -2.080078,0 0,0 0,-2.08065 0,-2.08065 z m -4.159928,0 c 0,0 2.079964,0 2.079964,0 0,0 0,2.08065 0,2.08065 0,0 -2.079964,0 -2.079964,0 0,0 0,-2.08065 0,-2.08065 z M 5.8273926,31.681981 c 0,0 2.0800781,0 2.0800781,0 0,0 0,2.080649 0,2.080649 0,0 -2.0800781,0 -2.0800781,0 0,0 0,-2.080649 0,-2.080649 z m 4.1600418,0 c 0,0 2.0799636,0 2.0799636,0 0,0 0,2.080649 0,2.080649 0,0 -2.0799636,0 -2.0799636,0 0,0 0,-2.080649 0,-2.080649 z M 30.787415,33.76263 c 0,0 2.080078,0 2.080078,0 0,0 0,2.080267 0,2.080267 0,0 -2.080078,0 -2.080078,0 0,0 0,-2.080267 0,-2.080267 z m -4.159928,0 c 0,0 2.079964,0 2.079964,0 0,0 0,2.080267 0,2.080267 0,0 -2.079964,0 -2.079964,0 0,0 0,-2.080267 0,-2.080267 z M 5.8273926,15.038317 c 0,0 2.0800781,0 2.0800781,0 0,0 0,2.080267 0,2.080267 0,0 -2.0800781,0 -2.0800781,0 0,0 0,-2.080267 0,-2.080267 z m 4.1600418,0 c 0,0 2.0799636,0 2.0799636,0 0,0 0,2.080267 0,2.080267 0,0 -2.0799636,0 -2.0799636,0 0,0 0,-2.080267 0,-2.080267 z m 20.7999806,2.080267 c 0,0 2.080078,0 2.080078,0 0,0 0,2.080649 0,2.080649 0,0 -2.080078,0 -2.080078,0 0,0 0,-2.080649 0,-2.080649 z m -4.159928,0 c 0,0 2.079964,0 2.079964,0 0,0 0,2.080649 0,2.080649 0,0 -2.079964,0 -2.079964,0 0,0 0,-2.080649 0,-2.080649 z m 36.399994,-1.040133 c 0,0 -10.645294,0 -10.645294,0 0,0 -4.160042,2.080649 -4.160042,2.080649 0,0 -11.194725,0 -11.194725,0 0,0 0,-4.160916 0,-4.160916 0,-1.721059 -1.399956,-3.120783 -3.120003,-3.120783 0,0 -29.119949,0 -29.119949,0 -1.720047,0 -3.1200028,1.399724 -3.1200028,3.120783 0,0 0,6.241183 0,6.241183 0,1.720294 1.3999558,3.120782 3.1200028,3.120782 0,0 1.0399246,0 1.0399246,0 0,0 0,4.160916 0,4.160916 0,0 -1.0399246,0 -1.0399246,0 -1.720047,0 -3.1200028,1.399724 -3.1200028,3.120783 0,0 0,6.241565 0,6.241565 0,1.720294 1.3999558,3.1204 3.1200028,3.1204 0,0 1.0399246,0 1.0399246,0 0,0 0,4.161299 0,4.161299 0,0 -1.0399246,0 -1.0399246,0 -1.720047,0 -3.1200028,1.399723 -3.1200028,3.1204 0,0 0,6.241565 0,6.241565 0,1.720294 1.3999558,3.120783 3.1200028,3.120783 0,0 29.119949,0 29.119949,0 1.720047,0 3.120003,-1.400489 3.120003,-3.120783 0,0 0,-2.080267 0,-2.080267 0,0 26.000061,0 26.000061,0 1.719933,0 3.120003,-1.400488 3.120003,-3.120782 0,0 0,-29.126795 0,-29.126795 0,-1.721059 -1.40007,-3.120782 -3.120003,-3.120782 z M 3.7474289,20.239367 c 0,0 0,-6.241183 0,-6.241183 0,-0.573814 0.4662323,-1.040516 1.0400391,-1.040516 0,0 29.119949,0 29.119949,0 0.573807,0 1.040039,0.466702 1.040039,1.040516 0,0 0,6.241183 0,6.241183 0,0.573048 -0.466232,1.040133 -1.040039,1.040133 0,0 -29.119949,0 -29.119949,0 -0.5738068,0 -1.0400391,-0.467085 -1.0400391,-1.040133 z m 4.1600418,3.120782 c 0,0 22.8799443,0 22.8799443,0 0,0 0,4.160916 0,4.160916 0,0 -22.8799443,0 -22.8799443,0 0,0 0,-4.160916 0,-4.160916 z M 3.7474289,36.883413 c 0,0 0,-6.241565 0,-6.241565 0,-0.573432 0.4662323,-1.040134 1.0400391,-1.040134 0,0 29.119949,0 29.119949,0 0.573807,0 1.040039,0.466702 1.040039,1.040134 0,0 0,6.241565 0,6.241565 0,0.572666 -0.466232,1.040133 -1.040039,1.040133 0,0 -29.119949,0 -29.119949,0 -0.5738068,0 -1.0400391,-0.467467 -1.0400391,-1.040133 z m 4.1600418,3.1204 c 0,0 22.8799443,0 22.8799443,0 0,0 0,4.161299 0,4.161299 0,0 -22.8799443,0 -22.8799443,0 0,0 0,-4.161299 0,-4.161299 z M 34.947456,53.527077 c 0,0.573049 -0.466232,1.040133 -1.040039,1.040133 0,0 -29.119949,0 -29.119949,0 -0.5738068,0 -1.0400391,-0.467084 -1.0400391,-1.040133 0,0 0,-6.241565 0,-6.241565 0,-0.573432 0.4662323,-1.040134 1.0400391,-1.040134 0,0 29.119949,0 29.119949,0 0.573807,0 1.040039,0.466702 1.040039,1.040134 0,0 0,6.241565 0,6.241565 z m 28.080025,-4.160916 c 0,0 -26.000061,0 -26.000061,0 0,0 0,-2.080649 0,-2.080649 0,-1.720677 -1.399956,-3.1204 -3.120003,-3.1204 0,0 -1.039924,0 -1.039924,0 0,0 0,-4.161299 0,-4.161299 0,0 1.039924,0 1.039924,0 1.720047,0 3.120003,-1.400106 3.120003,-3.1204 0,0 0,-6.241565 0,-6.241565 0,-1.721059 -1.399956,-3.120783 -3.120003,-3.120783 0,0 -1.039924,0 -1.039924,0 0,0 0,-4.160916 0,-4.160916 0,0 1.039924,0 1.039924,0 1.720047,0 3.120003,-1.400488 3.120003,-3.120782 0,0 11.685333,0 11.685333,0 0,0 4.159928,-2.080267 4.159928,-2.080267 0,0 10.1548,0 10.1548,0 0.573807,0 1.039925,0.466702 1.039925,1.040133 0,0 0,5.20105 0,5.20105 0,0 -24.959908,0 -24.959908,0 0,0 0,2.080649 0,2.080649 0,0 24.959908,0 24.959908,0 0,0 0,21.845096 0,21.845096 0,0.572666 -0.466118,1.040133 -1.039925,1.040133 z M 51.587395,20.239367 c 0,0 10.400047,0 10.400047,0 0,0 0,2.080649 0,2.080649 0,0 -10.400047,0 -10.400047,0 0,0 0,-2.080649 0,-2.080649 z M 39.107498,47.285512 c 0,0 22.879944,0 22.879944,0 0,0 0,-16.643664 0,-16.643664 0,0 -22.879944,0 -22.879944,0 0,0 0,16.643664 0,16.643664 z m 2.079964,-14.563015 c 0,0 18.720016,0 18.720016,0 0,0 0,12.482748 0,12.482748 0,0 -18.720016,0 -18.720016,0 0,0 0,-12.482748 0,-12.482748 z m 2.079964,2.080267 c 0,0 14.559974,0 14.559974,0 0,0 0,2.080649 0,2.080649 0,0 -14.559974,0 -14.559974,0 0,0 0,-2.080649 0,-2.080649 z m 0,4.160916 c 0,0 14.559974,0 14.559974,0 0,0 0,2.080649 0,2.080649 0,0 -14.559974,0 -14.559974,0 0,0 0,-2.080649 0,-2.080649 z m 4.160041,-28.086279 c 0,0 17.679978,0 17.679978,0 0,0 0,-2.0806489 0,-2.0806489 0,0 -19.760056,0 -19.760056,0 0,0 0,1.4375949 0,1.4375949 0,0 -4.954719,-2.4777283 -4.954719,-2.4777283 0,0 4.954719,-2.478111 4.954719,-2.478111 0,0 0,1.4379777 0,1.4379777 0,0 15.600014,0 15.600014,0 0,0 0,-2.0806493 0,-2.0806493 0,0 -13.519936,0 -13.519936,0 0,0 0,-2.7233208 0,-2.7233208 0,0 -11.685333,5.8441034 -11.685333,5.8441034 0,0 11.685333,5.8437213 11.685333,5.8437213 0,0 0,-2.722939 0,-2.722939 z M 63.027481,4.6358361 c 0,0 2.079964,0 2.079964,0 0,0 0,2.0806493 0,2.0806493 0,0 -2.079964,0 -2.079964,0 0,0 0,-2.0806493 0,-2.0806493 z M 53.667473,56.64786 c 0,0 -14.559975,0 -14.559975,0 0,0 0,2.080266 0,2.080266 0,0 16.639939,0 16.639939,0 0,0 0,-1.437595 0,-1.437595 0,0 4.954719,2.478111 4.954719,2.478111 0,0 -4.954719,2.477729 -4.954719,2.477729 0,0 0,-1.437595 0,-1.437595 0,0 -12.480011,0 -12.480011,0 0,0 0,2.080649 0,2.080649 0,0 10.400047,0 10.400047,0 0,0 0,2.722938 0,2.722938 0,0 11.685219,-5.843721 11.685219,-5.843721 0,0 -11.685219,-5.844486 -11.685219,-5.844486 0,0 0,2.723704 0,2.723704 z m -14.559975,4.160916 c 0,0 2.079964,0 2.079964,0 0,0 0,2.080649 0,2.080649 0,0 -2.079964,0 -2.079964,0 0,0 0,-2.080649 0,-2.080649 z"
         inkscape:connector-curvature="0"
         style="fill:#f95110;fill-rule:evenodd;stroke:none;paint-order:stroke fill markers;fill-opacity:1" />
    </g>
  </g>
</svg>
