<?xml version="1.0" encoding="UTF-8" standalone="no"?>
<!-- Created with Inkscape (http://www.inkscape.org/) -->

<svg
   xmlns:dc="http://purl.org/dc/elements/1.1/"
   xmlns:cc="http://creativecommons.org/ns#"
   xmlns:rdf="http://www.w3.org/1999/02/22-rdf-syntax-ns#"
   xmlns:svg="http://www.w3.org/2000/svg"
   xmlns="http://www.w3.org/2000/svg"
   xmlns:sodipodi="http://sodipodi.sourceforge.net/DTD/sodipodi-0.dtd"
   xmlns:inkscape="http://www.inkscape.org/namespaces/inkscape"
   width="16.5mm"
   height="16.5mm"
   viewBox="0 0 16.5 16.5"
   version="1.1"
   id="svg8"
   sodipodi:docname="3.svg"
   inkscape:version="0.92.3 (2405546, 2018-03-11)">
  <defs
     id="defs2" />
  <sodipodi:namedview
     id="base"
     pagecolor="#ffffff"
     bordercolor="#666666"
     borderopacity="1.0"
     inkscape:pageopacity="0.0"
     inkscape:pageshadow="2"
     inkscape:zoom="1.4"
     inkscape:cx="107.73613"
     inkscape:cy="92.075551"
     inkscape:document-units="mm"
     inkscape:current-layer="layer1"
     showgrid="false"
     height="29mm"
     inkscape:window-width="1366"
     inkscape:window-height="705"
     inkscape:window-x="-8"
     inkscape:window-y="-8"
     inkscape:window-maximized="1" />
  <metadata
     id="metadata5">
    <rdf:RDF>
      <cc:Work
         rdf:about="">
        <dc:format>image/svg+xml</dc:format>
        <dc:type
           rdf:resource="http://purl.org/dc/dcmitype/StillImage" />
        <dc:title></dc:title>
      </cc:Work>
    </rdf:RDF>
  </metadata>
  <g
     inkscape:label="Layer 1"
     inkscape:groupmode="layer"
     id="layer1"
     transform="translate(0,-280.5)">
    <g
       id="g4560"
       transform="matrix(0.26458333,0,0,0.26458333,0.16226682,281.20064)"
       style="fill:#f95110;fill-opacity:1">
      <path
         id="path4558"
         d="m 29.141006,47.239859 c 0,0 1.919976,0 1.919976,0 0,0 0,1.919981 0,1.919981 0,0 -1.919976,0 -1.919976,0 0,0 0,-1.919981 0,-1.919981 z m 28.799973,1.919981 c 0,0 -0.95993,0 -0.95993,0 0,0 0,-34.560047 0,-34.560047 0,-2.120816 -1.719246,-3.839962 -3.840065,-3.839962 0,0 -3.839951,0 -3.839951,0 0,0 0,-5.7599444 0,-5.7599444 0,-2.1208162 -1.719246,-3.8399627 -3.840065,-3.8399627 0,0 -23.039932,0 -23.039932,0 -2.120819,0 -3.840065,1.7191465 -3.840065,3.8399627 0,0 0,0.9597994 0,0.9597994 0,0 -1.919976,0 -1.919976,0 -2.120704,0 -3.83995,1.7195291 -3.83995,3.8399628 0,0 0,0.9601822 0,0.9601822 0,0 -5.7600404,0 -5.7600404,0 -2.1207046,0 -3.8399505,1.719146 -3.8399505,3.839962 0,0 0,34.560047 0,34.560047 0,0 -0.9600449,0 -0.9600449,0 -0.5302048,0 -0.9600448,0.429978 -0.9600448,0.9598 0,0 0,2.880163 0,2.880163 0,2.120816 1.7192459,3.839963 3.840065,3.839963 0,0 49.9200436,0 49.9200436,0 2.120705,0 3.839951,-1.719147 3.839951,-3.839963 0,0 0,-2.880163 0,-2.880163 0,-0.529822 -0.42984,-0.9598 -0.960045,-0.9598 z M 20.50106,4.9998866 c 0,-1.0604081 0.859566,-1.9199813 1.919976,-1.9199813 0,0 23.039932,0 23.039932,0 1.060524,0 1.92009,0.8595732 1.92009,1.9199813 0,0 0,15.3598514 0,15.3598514 0,1.060408 -0.859566,1.919981 -1.92009,1.919981 0,0 -1.919975,0 -1.919975,0 -0.302124,0 -0.586624,0.142306 -0.768013,0.384073 0,0 -2.112007,2.815513 -2.112007,2.815513 0,0 -2.112008,-2.815513 -2.112008,-2.815513 -0.181274,-0.241767 -0.465774,-0.384073 -0.767898,-0.384073 0,0 -15.360031,0 -15.360031,0 -1.06041,0 -1.919976,-0.859573 -1.919976,-1.919981 0,0 0,-15.3598514 0,-15.3598514 z m -5.76004,4.7997622 c 0,-1.0604082 0.859566,-1.9199814 1.919975,-1.9199814 0,0 1.919976,0 1.919976,0 0,0 0,12.4800706 0,12.4800706 0,2.120816 1.719246,3.839962 3.840065,3.839962 0,0 12.480011,0 12.480011,0 0,0 0,0.960182 0,0.960182 0,1.060408 -0.859566,1.919982 -1.919976,1.919982 0,0 -6.720085,0 -6.720085,0 -0.302124,0 -0.586624,0.142305 -0.768013,0.384072 0,0 -2.112007,2.815514 -2.112007,2.815514 0,0 -2.111893,-2.815514 -2.111893,-2.815514 -0.181388,-0.241767 -0.465888,-0.384072 -0.768013,-0.384072 0,0 -3.840065,0 -3.840065,0 -1.060409,0 -1.919975,-0.859574 -1.919975,-1.919982 0,0 0,-15.3602332 0,-15.3602332 z m 1.919975,19.2001962 c 0,0 3.359986,0 3.359986,0 0,0 2.592087,3.45589 2.592087,3.45589 0.318031,0.42424 0.919761,0.510312 1.343994,0.192036 0.07267,-0.0547 0.137329,-0.119353 0.191917,-0.192036 0,0 2.592087,-3.45589 2.592087,-3.45589 0,0 6.240005,0 6.240005,0 2.120705,0 3.839951,-1.719147 3.839951,-3.839963 0,0 0,-0.960182 0,-0.960182 0,0 0.479965,0 0.479965,0 0,0 2.592087,3.456273 2.592087,3.456273 0.318031,0.423857 0.919762,0.509929 1.343994,0.191654 0.07267,-0.05432 0.137329,-0.118971 0.191918,-0.191654 0,0 2.592086,-3.456273 2.592086,-3.456273 0,0 1.439896,0 1.439896,0 2.120819,0 3.840065,-1.719146 3.840065,-3.839962 0,0 0,-3.839963 0,-3.839963 0,0 1.919975,0 1.919975,0 0,0 0,26.880121 0,26.880121 0,0 -3.83995,0 -3.83995,0 0,0 0,-0.960182 0,-0.960182 -5.72e-4,-1.595967 -0.79422,-3.087118 -2.117844,-3.979208 1.517716,-1.481205 1.547127,-3.912263 0.0658,-5.430192 -1.481438,-1.517547 -3.912506,-1.547002 -5.430222,-0.06541 -1.517715,1.481205 -1.547012,3.912263 -0.0658,5.430192 0.02163,0.02219 0.0436,0.04399 0.0658,0.06542 -1.323624,0.89209 -2.117271,2.383241 -2.117729,3.979208 0,0 0,0.960182 0,0.960182 0,0 -15.360031,0 -15.360031,0 0,0 0,-0.960182 0,-0.960182 -4.58e-4,-1.595967 -0.79422,-3.087118 -2.117729,-3.979208 1.517601,-1.481205 1.547012,-3.912263 0.06569,-5.430192 -1.481324,-1.517547 -3.912506,-1.547002 -5.430222,-0.06541 -1.517601,1.481205 -1.547012,3.912263 -0.0658,5.430192 0.02163,0.02219 0.0436,0.04399 0.0658,0.06542 -1.323624,0.89209 -2.117271,2.383241 -2.117729,3.979208 0,0 0,0.960182 0,0.960182 0,0 -3.8400651,0 -3.8400651,0 0,0 0,-26.880121 0,-26.880121 0,0 3.8400651,0 3.8400651,0 0,0 0,8.640107 0,8.640107 0,2.120816 1.719246,3.839963 3.83995,3.839963 z m 25.920067,10.560089 c 1.5905,0 2.879906,1.289168 2.879906,2.87978 0,0 0,0.960182 0,0.960182 0,0 -5.759926,0 -5.759926,0 0,0 0,-0.960182 0,-0.960182 0,-1.590612 1.289406,-2.87978 2.88002,-2.87978 z m -1.920089,-3.839963 c 0,-1.060791 0.859565,-1.919981 1.920089,-1.919981 1.06041,0 1.919976,0.85919 1.919976,1.919981 0,1.060408 -0.859566,1.919981 -1.919976,1.919981 -1.060524,0 -1.920089,-0.859573 -1.920089,-1.919981 z M 17.62104,39.559934 c 1.590615,0 2.88002,1.289168 2.88002,2.87978 0,0 0,0.960182 0,0.960182 0,0 -5.76004,0 -5.76004,0 0,0 0,-0.960182 0,-0.960182 0,-1.590612 1.289406,-2.87978 2.88002,-2.87978 z m -1.919975,-3.839963 c 0,-1.060791 0.859566,-1.919981 1.919975,-1.919981 1.06041,0 1.919976,0.85919 1.919976,1.919981 0,1.060408 -0.859566,1.919981 -1.919976,1.919981 -1.060409,0 -1.919975,-0.859573 -1.919975,-1.919981 z M 5.1410294,14.599793 c 0,-1.060408 0.8595657,-1.919981 1.9199752,-1.919981 0,0 5.7600404,0 5.7600404,0 0,0 0,1.919981 0,1.919981 0,0 -4.7999955,0 -4.7999955,0 -0.5302048,0 -0.9600449,0.429978 -0.9600449,0.960182 0,0 0,28.799721 0,28.799721 0,0.530204 0.4298401,0.960182 0.9600449,0.960182 0,0 44.1600035,0 44.1600035,0 0.53009,0 0.959931,-0.429978 0.959931,-0.960182 0,0 0,-28.799721 0,-28.799721 0,-0.530204 -0.429841,-0.960182 -0.959931,-0.960182 0,0 -2.88002,0 -2.88002,0 0,0 0,-1.919981 0,-1.919981 0,0 3.839951,0 3.839951,0 1.060524,0 1.920089,0.859573 1.920089,1.919981 0,0 0,34.560047 0,34.560047 0,0 -16.320076,0 -16.320076,0 -0.254631,0 -0.498733,0.101374 -0.678749,0.281169 0,0 -1.638679,1.638813 -1.638679,1.638813 0,0 -12.64515,0 -12.64515,0 0,0 -1.638679,-1.638813 -1.638679,-1.638813 -0.180016,-0.179795 -0.424118,-0.281169 -0.678749,-0.281169 0,0 -16.3199616,0 -16.3199616,0 0,0 0,-34.560047 0,-34.560047 z m 51.8400196,38.40001 c 0,1.060408 -0.859566,1.919982 -1.919976,1.919982 0,0 -49.9200436,0 -49.9200436,0 -1.0604096,0 -1.9199753,-0.859574 -1.9199753,-1.919982 0,0 0,-1.919981 0,-1.919981 0,0 17.8424839,0 17.8424839,0 0,0 1.638794,1.638812 1.638794,1.638812 0.180015,0.179795 0.424003,0.281169 0.678634,0.281169 0,0 13.440056,0 13.440056,0 0.254631,0 0.498734,-0.101374 0.678749,-0.281169 0,0 1.63868,-1.638812 1.63868,-1.638812 0,0 17.842598,0 17.842598,0 0,0 0,1.919981 0,1.919981 z M 29.141006,5.959686 c 0,0 15.360032,0 15.360032,0 0,0 0,1.9199814 0,1.9199814 0,0 -15.360032,0 -15.360032,0 0,0 0,-1.9199814 0,-1.9199814 z m -5.76004,3.8399628 c 0,0 21.120072,0 21.120072,0 0,0 0,1.9199812 0,1.9199812 0,0 -21.120072,0 -21.120072,0 0,0 0,-1.9199812 0,-1.9199812 z m 0,3.8403452 c 0,0 21.120072,0 21.120072,0 0,0 0,1.919981 0,1.919981 0,0 -21.120072,0 -21.120072,0 0,0 0,-1.919981 0,-1.919981 z m 0,3.839963 c 0,0 17.280007,0 17.280007,0 0,0 0,1.919981 0,1.919981 0,0 -17.280007,0 -17.280007,0 0,0 0,-1.919981 0,-1.919981 z m 1.92009,-11.520271 c 0,0 1.919975,0 1.919975,0 0,0 0,1.9199814 0,1.9199814 0,0 -1.919975,0 -1.919975,0 0,0 0,-1.9199814 0,-1.9199814 z"
         inkscape:connector-curvature="0"
         style="fill:#f95110;fill-rule:evenodd;stroke:none;paint-order:stroke fill markers;fill-opacity:1" />
    </g>
  </g>
</svg>
