<?xml version="1.0" encoding="UTF-8" standalone="no"?>
<!-- Created with Inkscape (http://www.inkscape.org/) -->

<svg
   xmlns:dc="http://purl.org/dc/elements/1.1/"
   xmlns:cc="http://creativecommons.org/ns#"
   xmlns:rdf="http://www.w3.org/1999/02/22-rdf-syntax-ns#"
   xmlns:svg="http://www.w3.org/2000/svg"
   xmlns="http://www.w3.org/2000/svg"
   xmlns:sodipodi="http://sodipodi.sourceforge.net/DTD/sodipodi-0.dtd"
   xmlns:inkscape="http://www.inkscape.org/namespaces/inkscape"
   width="16.5mm"
   height="16.5mm"
   viewBox="0 0 16.5 16.5"
   version="1.1"
   id="svg8"
   sodipodi:docname="4.svg"
   inkscape:version="0.92.3 (2405546, 2018-03-11)">
  <defs
     id="defs2" />
  <sodipodi:namedview
     id="base"
     pagecolor="#ffffff"
     bordercolor="#666666"
     borderopacity="1.0"
     inkscape:pageopacity="0.0"
     inkscape:pageshadow="2"
     inkscape:zoom="1.4"
     inkscape:cx="107.73613"
     inkscape:cy="92.075551"
     inkscape:document-units="mm"
     inkscape:current-layer="layer1"
     showgrid="false"
     height="29mm"
     inkscape:window-width="1366"
     inkscape:window-height="705"
     inkscape:window-x="-8"
     inkscape:window-y="-8"
     inkscape:window-maximized="1" />
  <metadata
     id="metadata5">
    <rdf:RDF>
      <cc:Work
         rdf:about="">
        <dc:format>image/svg+xml</dc:format>
        <dc:type
           rdf:resource="http://purl.org/dc/dcmitype/StillImage" />
        <dc:title></dc:title>
      </cc:Work>
    </rdf:RDF>
  </metadata>
  <g
     inkscape:label="Layer 1"
     inkscape:groupmode="layer"
     id="layer1"
     transform="translate(0,-280.5)">
    <g
       id="g4574"
       transform="matrix(0.26458333,0,0,0.26458333,0.56308105,280.25575)"
       style="fill:#f95110;fill-opacity:1">
      <path
         id="path4572"
         d="m 47.446762,38.000375 c -4.060593,-1.59482 -8.433494,-1.511809 -11.940765,0.181325 -1.556511,-1.913861 -3.926354,-3.138762 -6.577263,-3.138762 -2.313423,0 -4.412613,0.933404 -5.944405,2.442917 -2.097816,-2.178963 -3.328399,-5.391938 -3.328399,-8.811869 0,-6.341792 4.159698,-11.500761 9.272804,-11.500761 5.113106,0 9.272804,5.158969 9.272804,11.500761 0,1.511426 -0.233459,2.980389 -0.694199,4.366341 -0.222244,0.668685 0.138817,1.390925 0.806351,1.613565 0.667877,0.22264 1.388855,-0.138863 1.611099,-0.807548 0.547028,-1.646463 0.824433,-3.386267 0.824433,-5.172358 0,-7.748783 -5.30262,-14.052703 -11.820603,-14.052703 -6.518097,0 -11.820716,6.30392 -11.820716,14.052703 0,3.440206 1.063613,6.727394 2.929344,9.264034 -2.990113,-0.60786 -6.303635,-0.247122 -9.344445,1.082978 -3.3935161,1.483883 -6.1129756,3.985712 -7.6574703,7.04414 -1.5854645,3.13991 -1.7524338,6.488305 -0.4703521,9.42891 1.8268203,4.189989 6.2446975,6.595417 11.1638264,6.595417 2.104339,0 4.300346,-0.439924 6.424713,-1.36912 2.594032,-1.134238 4.811325,-2.874425 6.412239,-5.031965 0.419655,-0.565781 0.302009,-1.36453 -0.262642,-1.784944 -0.564423,-0.420414 -1.362534,-0.302974 -1.782303,0.262807 -1.336327,1.80101 -3.198967,3.25888 -5.386734,4.215619 C 13.330666,60.91965 6.9460068,59.166075 4.8998032,54.473042 3.9271698,52.242054 4.0723953,49.665246 5.308815,47.216591 c 1.277504,-2.529754 3.5516739,-4.610021 6.403313,-5.85711 3.048591,-1.333161 6.393814,-1.518311 9.185943,-0.549713 -0.291137,0.856895 -0.451355,1.77385 -0.451355,2.728293 0,4.684235 3.804932,8.494742 8.481903,8.494742 0.44632,0 0.884514,-0.03519 1.312752,-0.102139 1.45237,3.562237 4.580612,6.544921 8.574944,8.113729 1.961059,0.770058 3.966064,1.134621 5.893707,1.134621 5.152359,0 9.752197,-2.60435 11.483688,-7.026925 2.379456,-6.077455 -1.544494,-13.323194 -8.746948,-16.151714 z m -24.452019,5.537686 c 0,-3.277242 2.661896,-5.943564 5.933991,-5.943564 3.272095,0 5.934219,2.666322 5.934219,5.943564 0,3.27686 -2.662124,5.943182 -5.934219,5.943182 -3.272095,0 -5.933991,-2.666322 -5.933991,-5.943182 z m 30.827179,9.682537 c -1.866531,4.767628 -8.180694,6.76297 -14.075317,4.447822 -3.276901,-1.286873 -5.84404,-3.674704 -7.066956,-6.514318 2.800141,-1.389012 4.730873,-4.280651 4.730873,-7.616423 0,-1.111669 -0.216522,-2.173225 -0.605964,-3.147178 2.841339,-1.29988 6.38443,-1.321685 9.711914,-0.01492 5.894737,2.315148 9.171982,8.077387 7.30545,12.845017 z M 8.3926544,21.898774 c 0,0.704643 0.5702591,1.275779 1.2739563,1.275779 0.7036973,0 1.2738423,-0.571136 1.2738423,-1.275779 0,-1.234083 0.306243,-1.796038 0.69374,-2.507567 0.447693,-0.822084 1.004792,-1.845003 1.004792,-3.729408 0,-1.884787 -0.557099,-2.908089 -1.004792,-3.72979 -0.387497,-0.711912 -0.69374,-1.273867 -0.69374,-2.5083324 0,-1.2340825 0.306243,-1.7960375 0.69374,-2.5079493 0.447693,-0.8220841 1.004792,-1.8450031 1.004792,-3.7297905 0,-0.7046435 -0.570145,-1.2757796 -1.273842,-1.2757796 -0.703697,0 -1.273956,0.5711361 -1.273956,1.2757796 0,1.2340825 -0.3062444,1.7964201 -0.6936269,2.5079494 -0.4478073,0.822084 -1.0049057,1.845003 -1.0049057,3.7297904 0,1.8847874 0.5570984,2.9080894 1.0049057,3.7301734 0.3873825,0.711911 0.6936269,1.273866 0.6936269,2.507949 0,1.234082 -0.3062444,1.796038 -0.6936269,2.507567 -0.4478073,0.821701 -1.0049057,1.84462 -1.0049057,3.729408 z m 36.6248706,0 c 0,0.704643 0.570144,1.275779 1.273842,1.275779 0.703697,0 1.273956,-0.571136 1.273956,-1.275779 0,-1.234083 0.306244,-1.796038 0.693626,-2.507567 0.447808,-0.822084 1.004906,-1.845003 1.004906,-3.729408 0,-1.884787 -0.557098,-2.908089 -1.004906,-3.72979 -0.387382,-0.711912 -0.693626,-1.273867 -0.693626,-2.5083324 0,-1.2340825 0.306244,-1.7960375 0.693626,-2.5079493 0.447808,-0.8220841 1.004906,-1.8450031 1.004906,-3.7297905 0,-0.7046435 -0.570259,-1.2757796 -1.273956,-1.2757796 -0.703698,0 -1.273842,0.5711361 -1.273842,1.2757796 0,1.2340825 -0.306244,1.7964201 -0.693741,2.5079494 -0.447693,0.822084 -1.004791,1.845003 -1.004791,3.7297904 0,1.8847874 0.557098,2.9080894 1.004791,3.7301734 0.387497,0.711911 0.693741,1.273866 0.693741,2.507949 0,1.234082 -0.306244,1.796038 -0.693741,2.507567 -0.447693,0.821701 -1.004791,1.84462 -1.004791,3.729408 z M 28.160606,12.790052 c 0.703698,0 1.273957,-0.571137 1.273957,-1.27578 0,-1.831614 0.349731,-2.688892 0.754623,-3.6815901 0.442314,-1.0848908 0.943909,-2.3143828 0.943909,-4.6471276 0,-0.704261 -0.570145,-1.2757796 -1.273957,-1.2757796 -0.703697,0 -1.273841,0.5715186 -1.273841,1.2757796 0,1.8319965 -0.349732,2.688892 -0.754624,3.6819726 -0.442314,1.0845083 -0.943908,2.3140002 -0.943908,4.6467451 0,0.704643 0.570144,1.27578 1.273841,1.27578 z"
         inkscape:connector-curvature="0"
         style="fill:#f95110;fill-rule:evenodd;stroke:none;paint-order:stroke fill markers;fill-opacity:1" />
    </g>
  </g>
</svg>
