<?xml version="1.0" encoding="UTF-8" standalone="no"?>
<!-- Created with Inkscape (http://www.inkscape.org/) -->

<svg
   xmlns:dc="http://purl.org/dc/elements/1.1/"
   xmlns:cc="http://creativecommons.org/ns#"
   xmlns:rdf="http://www.w3.org/1999/02/22-rdf-syntax-ns#"
   xmlns:svg="http://www.w3.org/2000/svg"
   xmlns="http://www.w3.org/2000/svg"
   xmlns:sodipodi="http://sodipodi.sourceforge.net/DTD/sodipodi-0.dtd"
   xmlns:inkscape="http://www.inkscape.org/namespaces/inkscape"
   width="16.5mm"
   height="16.5mm"
   viewBox="0 0 16.5 16.5"
   version="1.1"
   id="svg8"
   sodipodi:docname="5.svg"
   inkscape:version="0.92.3 (2405546, 2018-03-11)">
  <defs
     id="defs2" />
  <sodipodi:namedview
     id="base"
     pagecolor="#ffffff"
     bordercolor="#666666"
     borderopacity="1.0"
     inkscape:pageopacity="0.0"
     inkscape:pageshadow="2"
     inkscape:zoom="1.4"
     inkscape:cx="107.73613"
     inkscape:cy="92.075551"
     inkscape:document-units="mm"
     inkscape:current-layer="layer1"
     showgrid="false"
     height="29mm"
     inkscape:window-width="1366"
     inkscape:window-height="705"
     inkscape:window-x="-8"
     inkscape:window-y="-8"
     inkscape:window-maximized="1" />
  <metadata
     id="metadata5">
    <rdf:RDF>
      <cc:Work
         rdf:about="">
        <dc:format>image/svg+xml</dc:format>
        <dc:type
           rdf:resource="http://purl.org/dc/dcmitype/StillImage" />
        <dc:title></dc:title>
      </cc:Work>
    </rdf:RDF>
  </metadata>
  <g
     inkscape:label="Layer 1"
     inkscape:groupmode="layer"
     id="layer1"
     transform="translate(0,-280.5)">
    <g
       id="g4588"
       transform="matrix(0.20119243,0,0,0.23075111,0.38399021,281.91141)"
       style="fill:#f95110;fill-opacity:1">
      <path
         id="path4586"
         d="m 75.435928,27.245055 c 0,0 -42.110824,-24.0680511 -42.110824,-24.0680511 -3.248062,-1.8595397 -7.693978,-0.8568955 -9.835167,2.2053581 0,0 -8.157921,11.654161 -8.157921,11.654161 -0.800629,1.14495 -1.223602,2.487292 -1.223602,3.883955 0,2.413079 1.297989,4.660899 3.385963,5.865143 0,0 8.881188,5.125306 8.881188,5.125306 0,0 -1.604233,2.139178 -1.604233,2.139178 -0.86895,1.157574 -1.346626,2.592109 -1.346626,4.039268 0,1.48809 0.54531,2.887431 1.423759,4.044623 0,0 -2.363777,3.554203 -2.363777,3.554203 0,0 -11.481857,0 -11.481857,0 0,0 0,-4.67008 0,-4.67008 0,-0.858426 -0.694542,-1.536291 -1.5528493,-1.536291 0,0 -6.2109375,0 -6.2109375,0 -0.8583069,0 -1.5527344,0.677865 -1.5527344,1.536291 0,0 0,15.530847 0,15.530847 0,0.858426 0.6944275,1.552741 1.5527344,1.552741 0,0 6.2110519,0 6.2110519,0 0.8583069,0 1.5528489,-0.694315 1.5528489,-1.552741 0,0 0,-1.550445 0,-1.550445 0,0 11.481857,0 11.481857,0 3.122177,0 6.019936,-1.54968 7.751656,-4.147909 0,0 2.545166,-3.818541 2.545166,-3.818541 0.49015,0.106347 0.984421,0.202748 1.489792,0.202748 2.47158,0 4.797706,-1.316329 6.068458,-3.436763 0,0 1.706085,-2.843822 1.706085,-2.843822 0,0 13.214951,7.625987 13.214951,7.625987 0.238037,0.138098 0.506401,0.208103 0.776367,0.208103 0.150032,0 0.300293,-0.02142 0.447235,-0.06541 0.409584,-0.124327 0.750618,-0.410851 0.941735,-0.793011 0,0 1.149559,-2.302907 1.149559,-2.302907 0.188713,0.01415 0.370216,0.05509 0.562362,0.05509 5.992699,0 10.869255,-4.8778 10.869255,-10.871478 0,-0.658356 -0.09716,-1.336604 -0.241699,-2.030154 0,0 5.594559,-2.797534 5.594559,-2.797534 0.512581,-0.256303 0.841484,-0.773501 0.858307,-1.346932 0.01499,-0.571902 -0.285187,-1.107461 -0.782662,-1.390925 z M 7.8973618,54.998521 c 0,0 -3.1055832,0 -3.1055832,0 0,0 0,-12.413508 0,-12.413508 0,0 3.1053543,0 3.1053543,0 0,0 0,12.413508 0,12.413508 0,0 2.289e-4,0 2.289e-4,0 z M 27.652382,49.135673 c -1.153908,1.730623 -3.085785,2.764253 -5.167694,2.764253 0,0 -11.481857,0 -11.481857,0 0,0 0,-3.103568 0,-3.103568 0,0 11.481857,0 11.481857,0 1.043243,0 2.009125,-0.516433 2.583847,-1.381744 0,0 2.15023,-3.224452 2.15023,-3.224452 0,0 2.666588,1.598646 2.666588,1.598646 0,0 -2.232971,3.346865 -2.232971,3.346865 z m 10.024795,-6.921726 c -1.085701,1.804454 -3.640708,2.447125 -5.448303,1.360704 0,0 -3.938026,-2.361053 -3.938026,-2.361053 -1.085587,-0.64994 -1.760445,-1.841177 -1.760445,-3.106246 0,-0.778857 0.257721,-1.550063 0.724754,-2.174372 0,0 1.828995,-2.436796 1.828995,-2.436796 0,0 10.271416,5.922142 10.271416,5.922142 0,0 -1.678391,2.795621 -1.678391,2.795621 z m 17.707901,2.863714 c 0,0 -36.339569,-20.952241 -36.339569,-20.952241 -1.129532,-0.65147 -1.831627,-1.866808 -1.831627,-3.171661 0,-0.755904 0.228997,-1.48197 0.662613,-2.101689 0,0 3.898545,-5.564082 3.898545,-5.564082 0,0 38.425827,22.15266 38.425827,22.15266 0,0 -4.815789,9.637013 -4.815789,9.637013 z m 4.765206,-2.590579 c 0,0 3.250351,-6.504372 3.250351,-6.504372 0,0 3.449249,-1.723354 3.449249,-1.723354 0.01739,0.190506 0.05196,0.387516 0.05196,0.571901 0,3.931391 -2.952575,7.154312 -6.751556,7.655825 z m 2.145996,-9.421641 c 0,0 -38.733101,-22.329778 -38.733101,-22.329778 0,0 2.471352,-3.5270426 2.471352,-3.5270426 0.817451,-1.1667549 2.154808,-1.8641301 3.580169,-1.8641301 0.759774,0 1.510277,0.1989221 2.169915,0.5761092 0,0 39.592094,22.6082685 39.592094,22.6082685 0,0 -9.080429,4.536573 -9.080429,4.536573 z m -9.368935,3.312819 c 0.857621,0 1.552849,0.694697 1.552849,1.551592 0,0.857278 -0.695228,1.551976 -1.552849,1.551976 -0.857506,0 -1.552734,-0.694698 -1.552734,-1.551976 0,-0.856895 0.695228,-1.551592 1.552734,-1.551592 z"
         inkscape:connector-curvature="0"
         style="fill:#f95110;fill-opacity:1;fill-rule:evenodd;stroke:none;paint-order:stroke fill markers" />
    </g>
  </g>
</svg>
