<?xml version="1.0" encoding="UTF-8" standalone="no"?>
<!-- Created with Inkscape (http://www.inkscape.org/) -->

<svg
   xmlns:dc="http://purl.org/dc/elements/1.1/"
   xmlns:cc="http://creativecommons.org/ns#"
   xmlns:rdf="http://www.w3.org/1999/02/22-rdf-syntax-ns#"
   xmlns:svg="http://www.w3.org/2000/svg"
   xmlns="http://www.w3.org/2000/svg"
   xmlns:sodipodi="http://sodipodi.sourceforge.net/DTD/sodipodi-0.dtd"
   xmlns:inkscape="http://www.inkscape.org/namespaces/inkscape"
   width="16.5mm"
   height="16.5mm"
   viewBox="0 0 16.5 16.5"
   version="1.1"
   id="svg8"
   sodipodi:docname="7.svg"
   inkscape:version="0.92.3 (2405546, 2018-03-11)">
  <defs
     id="defs2" />
  <sodipodi:namedview
     id="base"
     pagecolor="#ffffff"
     bordercolor="#666666"
     borderopacity="1.0"
     inkscape:pageopacity="0.0"
     inkscape:pageshadow="2"
     inkscape:zoom="1.4"
     inkscape:cx="107.73613"
     inkscape:cy="92.075551"
     inkscape:document-units="mm"
     inkscape:current-layer="layer1"
     showgrid="false"
     height="29mm"
     inkscape:window-width="1366"
     inkscape:window-height="705"
     inkscape:window-x="-8"
     inkscape:window-y="-8"
     inkscape:window-maximized="1" />
  <metadata
     id="metadata5">
    <rdf:RDF>
      <cc:Work
         rdf:about="">
        <dc:format>image/svg+xml</dc:format>
        <dc:type
           rdf:resource="http://purl.org/dc/dcmitype/StillImage" />
        <dc:title></dc:title>
      </cc:Work>
    </rdf:RDF>
  </metadata>
  <g
     inkscape:label="Layer 1"
     inkscape:groupmode="layer"
     id="layer1"
     transform="translate(0,-280.5)">
    <g
       id="g4616"
       transform="matrix(0.26458333,0,0,0.26458333,0.10976344,280.63199)"
       style="fill:#f95110;fill-opacity:1">
      <path
         id="path4614"
         d="m 55.358505,29.098762 c 0,0 -19.691963,0 -19.691963,0 -0.816536,0 -1.476974,0.659886 -1.476974,1.47585 0,0.815963 0.660438,1.463608 1.476974,1.463608 0,0 19.691963,0 19.691963,0 0,0 -5.007133,5.002892 -5.007133,5.002892 -0.576325,0.576109 -0.576325,1.49995 0,2.075676 0.288276,0.288055 0.660438,0.431891 1.044731,0.431891 0.384178,0 0.756454,-0.143836 1.044617,-0.431891 0,0 7.516594,-7.510459 7.516594,-7.510459 0.576324,-0.575726 0.576324,-1.499567 0,-2.075676 0,0 -7.516594,-7.510459 -7.516594,-7.510459 -0.576325,-0.575727 -1.500893,-0.575727 -2.077332,0 -0.576324,0.576109 -0.576324,1.49995 0,2.075676 0,0 4.995117,5.002892 4.995117,5.002892 z M 9.5867157,39.116788 c 0.2881622,0.288055 0.6603243,0.431891 1.0446163,0.431891 0.384179,0 0.756455,-0.143836 1.044617,-0.431891 0.576325,-0.575726 0.576325,-1.499567 0,-2.075676 0,0 -5.0070189,-5.002892 -5.0070189,-5.002892 0,0 19.6919629,0 19.6919629,0 0.816422,0 1.47686,-0.659886 1.47686,-1.463608 0,-0.803722 -0.660438,-1.47585 -1.47686,-1.47585 0,0 -19.6919629,0 -19.6919629,0 0,0 4.9950029,-5.002892 4.9950029,-5.002892 0.576324,-0.575726 0.576324,-1.499567 0,-2.075676 -0.576325,-0.575727 -1.500893,-0.575727 -2.0772173,0 0,0 -7.5165939,7.510459 -7.5165939,7.510459 -0.5763245,0.576109 -0.5763245,1.49995 0,2.075676 0,0 7.5165939,7.510459 7.5165939,7.510459 z M 24.523773,11.246646 c 0,0 5.007019,-5.0032744 5.007019,-5.0032744 0,0 0,19.6760794 0,19.6760794 0,0.815963 0.660439,1.475849 1.47686,1.475849 0.816536,0 1.476975,-0.659886 1.476975,-1.475849 0,0 0,-19.6760794 0,-19.6760794 0,0 5.007019,5.0032744 5.007019,5.0032744 0.288162,0.287672 0.660324,0.431891 1.044617,0.431891 0.384178,0 0.756454,-0.144219 1.044616,-0.431891 0.576325,-0.576109 0.576325,-1.4999492 0,-2.0756758 0,0 -7.516594,-7.5104591 -7.516594,-7.5104591 -0.552292,-0.552009 -1.524925,-0.552009 -2.077217,0 0,0 -7.516594,7.5104591 -7.516594,7.5104591 -0.576324,0.5757266 -0.576324,1.4995668 0,2.0756758 0.552407,0.575727 1.488877,0.575727 2.053299,0 z m 6.483879,22.495419 c -0.816421,0 -1.47686,0.659886 -1.47686,1.475466 0,0 0,19.67608 0,19.67608 0,0 -5.007019,-5.002893 -5.007019,-5.002893 -0.576324,-0.576109 -1.500892,-0.576109 -2.077331,0 -0.576325,0.575727 -0.576325,1.499567 0,2.075677 0,0 7.516594,7.510459 7.516594,7.510459 0.276146,0.275813 0.648422,0.43189 1.044616,0.43189 0.384293,0 0.768471,-0.156077 1.044617,-0.43189 0,0 7.516594,-7.510459 7.516594,-7.510459 0.576324,-0.57611 0.576324,-1.49995 0,-2.075677 -0.576325,-0.576109 -1.500893,-0.576109 -2.077217,0 0,0 -5.007019,5.002893 -5.007019,5.002893 0,0 0,-19.67608 0,-19.67608 -0.01202,-0.81558 -0.660439,-1.475466 -1.476975,-1.475466 z"
         inkscape:connector-curvature="0"
         style="fill:#f95110;fill-rule:evenodd;stroke:none;paint-order:stroke fill markers;fill-opacity:1" />
    </g>
  </g>
</svg>
