<?xml version="1.0" encoding="UTF-8" standalone="no"?>
<!-- Created with Inkscape (http://www.inkscape.org/) -->

<svg
   xmlns:dc="http://purl.org/dc/elements/1.1/"
   xmlns:cc="http://creativecommons.org/ns#"
   xmlns:rdf="http://www.w3.org/1999/02/22-rdf-syntax-ns#"
   xmlns:svg="http://www.w3.org/2000/svg"
   xmlns="http://www.w3.org/2000/svg"
   xmlns:sodipodi="http://sodipodi.sourceforge.net/DTD/sodipodi-0.dtd"
   xmlns:inkscape="http://www.inkscape.org/namespaces/inkscape"
   width="16.5mm"
   height="16.5mm"
   viewBox="0 0 16.5 16.5"
   version="1.1"
   id="svg8"
   sodipodi:docname="8.svg"
   inkscape:version="0.92.3 (2405546, 2018-03-11)">
  <defs
     id="defs2" />
  <sodipodi:namedview
     id="base"
     pagecolor="#ffffff"
     bordercolor="#666666"
     borderopacity="1.0"
     inkscape:pageopacity="0.0"
     inkscape:pageshadow="2"
     inkscape:zoom="1.4"
     inkscape:cx="107.73613"
     inkscape:cy="92.075551"
     inkscape:document-units="mm"
     inkscape:current-layer="layer1"
     showgrid="false"
     height="29mm"
     inkscape:window-width="1366"
     inkscape:window-height="705"
     inkscape:window-x="-8"
     inkscape:window-y="-8"
     inkscape:window-maximized="1" />
  <metadata
     id="metadata5">
    <rdf:RDF>
      <cc:Work
         rdf:about="">
        <dc:format>image/svg+xml</dc:format>
        <dc:type
           rdf:resource="http://purl.org/dc/dcmitype/StillImage" />
        <dc:title></dc:title>
      </cc:Work>
    </rdf:RDF>
  </metadata>
  <g
     inkscape:label="Layer 1"
     inkscape:groupmode="layer"
     id="layer1"
     transform="translate(0,-280.5)">
    <g
       id="g4630"
       transform="matrix(0.2519841,0,0,0.2519841,0.06301156,280.96124)"
       style="fill:#f95110;fill-opacity:1">
      <path
         id="path4628"
         d="m 5.9999924,61.999857 c 0,0 47.9999546,0 47.9999546,0 C 56.209,61.999857 58,60.208792 58,57.999991 c 0,0 0,-3.000282 0,-3.000282 0,-0.552391 -0.447578,-0.999966 -1.000099,-0.999966 0,0 -1.99997,0 -1.99997,0 0,0 0,-15.999845 0,-15.999845 0,0 -1.999969,0 -1.999969,0 0,0 0,15.999845 0,15.999845 0,0 -1.99997,0 -1.99997,0 0,0 0,-15.999845 0,-15.999845 0,0 -2.000084,0 -2.000084,0 0,0 0,15.999845 0,15.999845 0,0 -12.764053,0 -12.764053,0 -1.064644,-0.0038 -2.038994,0.598679 -2.51152,1.553123 -0.136299,0.275431 -0.417481,0.449488 -0.724411,0.44681 0,0 -5.764046,0 -5.764046,0 -0.306587,0.0019 -0.58754,-0.171762 -0.722809,-0.44681 -0.473099,-0.954444 -1.447449,-1.556948 -2.513122,-1.553123 0,0 -13.000031,0 -13.000031,0 0,0 0,-24.999925 0,-24.999925 0,-0.552391 0.447579,-0.999966 0.999985,-0.999966 0,0 18.000068,0 18.000068,0 0,0 0,-1.999933 0,-1.999933 0,0 -18.000068,0 -18.000068,0 -1.656532,0 -2.9999544,1.34349 -2.9999544,2.999899 0,0 0,24.999925 0,24.999925 0,0 -1.9999695,0 -1.9999695,0 0,0 0,-26.999857 0,-26.999857 0,-1.656792 1.3434219,-2.9999 2.9999542,-2.9999 0,0 20.0000377,0 20.0000377,0 0,0 0,-2.000315 0,-2.000315 0,0 -20.0000377,0 -20.0000377,0 -2.7599716,0.0034 -4.9966049,2.24017 -5.0000381,5.000215 0,0 0,26.999857 0,26.999857 0,0 -1.9999695,0 -1.9999695,0 -0.5525207,0 -0.9999847,0.447575 -0.9999847,0.999966 0,0 0,3.000282 0,3.000282 0,2.208801 1.7908859,3.999866 4.0000534,3.999866 z m -2.000084,-6.000181 c 0,0 20.0000386,0 20.0000386,0 0.306587,-0.0015 0.587539,0.171761 0.724411,0.445662 0.47184,0.955209 1.446876,1.558096 2.51152,1.554653 0,0 5.764046,0 5.764046,0 1.065674,0.0034 2.040596,-0.599444 2.513122,-1.554653 0.135384,-0.274283 0.416565,-0.447575 0.722809,-0.445662 0,0 19.764061,0 19.764061,0 0,0 0,2.000315 0,2.000315 0,1.104401 -0.895271,1.999933 -1.999969,1.999933 0,0 -47.9999546,0 -47.9999546,0 -1.1046982,0 -2.000084,-0.895532 -2.000084,-1.999933 0,0 0,-2.000315 0,-2.000315 z M 14.999969,38.999865 c 0,0 0,8.000113 0,8.000113 0,0.552392 0.447464,0.999967 0.999985,0.999967 0,0 28.000031,0 28.000031,0 0.552406,0 0.999984,-0.447575 0.999984,-0.999967 0,0 0,-8.000113 0,-8.000113 0,-0.552392 -0.447578,-0.999967 -0.999984,-0.999967 0,0 -28.000031,0 -28.000031,0 -0.552521,0 -0.999985,0.447575 -0.999985,0.999967 z m 1.99997,0.999966 c 0,0 26.000061,0 26.000061,0 0,0 0,5.999798 0,5.999798 0,0 -26.000061,0 -26.000061,0 0,0 0,-5.999798 0,-5.999798 z m 1.999969,1.999933 c 0,0 2.000084,0 2.000084,0 0,0 0,1.999933 0,1.999933 0,0 -2.000084,0 -2.000084,0 0,0 0,-1.999933 0,-1.999933 z m 4.000054,0 c 0,0 1.999969,0 1.999969,0 0,0 0,1.999933 0,1.999933 0,0 -1.999969,0 -1.999969,0 0,0 0,-1.999933 0,-1.999933 z m 3.999939,0 c 0,0 2.000084,0 2.000084,0 0,0 0,1.999933 0,1.999933 0,0 -2.000084,0 -2.000084,0 0,0 0,-1.999933 0,-1.999933 z m 4.000053,0 c 0,0 1.99997,0 1.99997,0 0,0 0,1.999933 0,1.999933 0,0 -1.99997,0 -1.99997,0 0,0 0,-1.999933 0,-1.999933 z M 58.999985,17.036946 c 0,0 0,-3.037006 0,-3.037006 0,-6.6275507 -5.372544,-11.9999791 -12.000046,-11.9999791 -6.627502,0 -12.000046,5.3724284 -12.000046,11.9999791 0,0 0,3.037006 0,3.037006 -1.701507,0.181325 -2.994003,1.613565 -2.999954,3.324678 0,0 0,12.276175 0,12.276175 0.0025,1.856096 1.506844,3.360636 3.362846,3.362167 0,0 23.274308,0 23.274308,0 1.856002,-0.0015 3.360328,-1.506071 3.362846,-3.362167 0,0 0,-12.276175 0,-12.276175 -0.006,-1.711113 -1.298447,-3.143353 -2.999954,-3.324678 z M 36.999977,13.99994 c 0,-5.5231502 4.476814,-10.0000463 9.999962,-10.0000463 5.523148,0 9.999962,4.4768961 9.999962,10.0000463 0,0 0,2.999899 0,2.999899 0,0 -1.99997,0 -1.99997,0 0,0 0,-2.999899 0,-2.999899 0,-4.4187497 -3.581543,-8.0001136 -7.999992,-8.0001136 -4.418449,0 -7.999992,3.5813639 -7.999992,8.0001136 0,0 0,2.999899 0,2.999899 0,0 -1.99997,0 -1.99997,0 0,0 0,-2.999899 0,-2.999899 z m 3.999939,2.999899 c 0,0 0,-2.999899 0,-2.999899 0,-3.313202 2.686844,-6.0001808 6.000023,-6.0001808 3.313179,0 6.000023,2.6869788 6.000023,6.0001808 0,0 0,2.999899 0,2.999899 0,0 -12.000046,0 -12.000046,0 z m 19.000053,15.63796 c -6.86e-4,0.752461 -0.611,1.361851 -1.362876,1.361851 0,0 -23.274308,0 -23.274308,0 -0.751876,0 -1.36219,-0.60939 -1.362877,-1.361851 0,0 0,-12.276175 0,-12.276175 6.87e-4,-0.752079 0.611001,-1.36147 1.362877,-1.361852 0,0 23.274308,0 23.274308,0 0.751876,3.82e-4 1.36219,0.609773 1.362876,1.361852 0,0 0,12.276175 0,12.276175 z m -13.00003,-9.638162 c -1.459351,-0.0031 -2.707787,1.047402 -2.955666,2.486145 -0.247192,1.43836 0.579071,2.845352 1.955681,3.330033 0,0 0,2.183936 0,2.183936 0,0 1.99997,0 1.99997,0 0,0 0,-2.183936 0,-2.183936 1.37661,-0.484681 2.202873,-1.891673 1.955681,-3.330033 -0.247879,-1.438743 -1.496315,-2.489205 -2.955666,-2.486145 z m 0,4.000249 c -0.552521,0 -0.999985,-0.447575 -0.999985,-0.999967 0,-0.552774 0.447464,-0.999966 0.999985,-0.999966 0.552521,0 0.999985,0.447192 0.999985,0.999966 0,0.552392 -0.447464,0.999967 -0.999985,0.999967 z m -27.000046,-9.00008 c 0,0 2.000084,0 2.000084,0 0,0 0,1.999932 0,1.999932 0,0 -2.000084,0 -2.000084,0 0,0 0,-1.999932 0,-1.999932 z m 0,-3.999866 c 0,0 2.000084,0 2.000084,0 0,0 0,1.999933 0,1.999933 0,0 -2.000084,0 -2.000084,0 0,0 0,-1.999933 0,-1.999933 z m 0,-4.000248 c 0,0 2.000084,0 2.000084,0 0,0 0,1.999933 0,1.999933 0,0 -2.000084,0 -2.000084,0 0,0 0,-1.999933 0,-1.999933 z m 0,-3.9998656 c 0,0 2.000084,0 2.000084,0 0,0 0,1.9999328 0,1.9999328 0,0 -2.000084,0 -2.000084,0 0,0 0,-1.9999328 0,-1.9999328 z m 4.000054,0 c 0,0 1.999969,0 1.999969,0 0,0 0,1.9999328 0,1.9999328 0,0 -1.999969,0 -1.999969,0 0,0 0,-1.9999328 0,-1.9999328 z m 4.000053,0 c 0,0 1.999969,0 1.999969,0 0,0 0,1.9999328 0,1.9999328 0,0 -1.999969,0 -1.999969,0 0,0 0,-1.9999328 0,-1.9999328 z m 3.999939,0 c 0,0 1.999969,0 1.999969,0 0,0 0,1.9999328 0,1.9999328 0,0 -1.999969,0 -1.999969,0 0,0 0,-1.9999328 0,-1.9999328 z"
         inkscape:connector-curvature="0"
         style="fill:#f95110;fill-rule:evenodd;stroke:none;paint-order:stroke fill markers;fill-opacity:1" />
    </g>
  </g>
</svg>
