<?xml version="1.0" encoding="UTF-8" standalone="no"?>
<!-- Created with Inkscape (http://www.inkscape.org/) -->

<svg
   xmlns:dc="http://purl.org/dc/elements/1.1/"
   xmlns:cc="http://creativecommons.org/ns#"
   xmlns:rdf="http://www.w3.org/1999/02/22-rdf-syntax-ns#"
   xmlns:svg="http://www.w3.org/2000/svg"
   xmlns="http://www.w3.org/2000/svg"
   xmlns:sodipodi="http://sodipodi.sourceforge.net/DTD/sodipodi-0.dtd"
   xmlns:inkscape="http://www.inkscape.org/namespaces/inkscape"
   width="16.5mm"
   height="16.5mm"
   viewBox="0 0 16.5 16.5"
   version="1.1"
   id="svg8"
   sodipodi:docname="9.svg"
   inkscape:version="0.92.3 (2405546, 2018-03-11)">
  <defs
     id="defs2" />
  <sodipodi:namedview
     id="base"
     pagecolor="#ffffff"
     bordercolor="#666666"
     borderopacity="1.0"
     inkscape:pageopacity="0.0"
     inkscape:pageshadow="2"
     inkscape:zoom="1.4"
     inkscape:cx="107.73613"
     inkscape:cy="92.075551"
     inkscape:document-units="mm"
     inkscape:current-layer="layer1"
     showgrid="false"
     height="29mm"
     inkscape:window-width="1366"
     inkscape:window-height="705"
     inkscape:window-x="-8"
     inkscape:window-y="-8"
     inkscape:window-maximized="1" />
  <metadata
     id="metadata5">
    <rdf:RDF>
      <cc:Work
         rdf:about="">
        <dc:format>image/svg+xml</dc:format>
        <dc:type
           rdf:resource="http://purl.org/dc/dcmitype/StillImage" />
        <dc:title></dc:title>
      </cc:Work>
    </rdf:RDF>
  </metadata>
  <g
     inkscape:label="Layer 1"
     inkscape:groupmode="layer"
     id="layer1"
     transform="translate(0,-280.5)">
    <g
       id="g4644"
       transform="matrix(0.26458333,0,0,0.26458333,1.3607244,280.9174)"
       style="fill:#f95110;fill-opacity:1">
      <path
         id="path4642"
         d="m 5.6603622,18.114266 c 0,0 13.4049228,0 13.4049228,0 2.500763,-0.0027 4.528084,-2.031301 4.530601,-4.534278 0,0 0,-7.794688 0,-7.794688 -0.0025,-2.5033588 -2.029381,-4.5315997 -4.530601,-4.5342775 0,0 -13.4049228,0 -13.4049228,0 -2.5011062,0.00268 -4.5279693,2.0309187 -4.530487,4.5342775 0,0 0,7.794306 0,7.794306 0.00252,2.503359 2.0293808,4.531982 4.530487,4.53466 z M 3.0020142,5.7853 c 0.00172,-1.4689636 1.1907577,-2.6590537 2.658348,-2.6605838 0,0 13.4049228,0 13.4049228,0 1.467247,0.00153 2.656746,1.1916202 2.658462,2.6605838 0,0 0,7.794306 0,7.794306 -0.0017,1.468963 -1.191215,2.659436 -2.658462,2.660584 0,0 -13.4049228,0 -13.4049228,0 -1.4675903,-0.0011 -2.6570892,-1.191621 -2.658348,-2.660584 0,0 0,-7.794306 0,-7.794306 z m 11.2328338,8.581578 c 0,0 3.744621,0 3.744621,0 0.516815,0 0.935898,-0.419266 0.935898,-0.936846 0,0 0,-7.4947753 0,-7.4947753 0,-0.5175801 -0.419083,-0.9368468 -0.935898,-0.9368468 0,0 -3.744621,0 -3.744621,0 -0.516815,0 -0.935898,0.4192667 -0.935898,0.9368468 0,0 0,7.4947753 0,7.4947753 0,0.517197 0.419083,0.936846 0.935898,0.936846 z m 0.936241,-7.4947744 c 0,0 1.872139,0 1.872139,0 0,0 0,5.6206984 0,5.6206984 0,0 -1.872139,0 -1.872139,0 0,0 0,-5.6206984 0,-5.6206984 z M 6.7462921,14.366878 c 0,0 3.7442779,0 3.7442779,0 0.517159,0 0.936241,-0.419266 0.936241,-0.936846 0,0 0,-7.4947753 0,-7.4947753 0,-0.5175801 -0.419082,-0.9368468 -0.936241,-0.9368468 0,0 -3.7442779,0 -3.7442779,0 -0.5168152,0 -0.9358978,0.4192667 -0.9358978,0.9368468 0,0 0,7.4947753 0,7.4947753 0,0.517197 0.4190826,0.936846 0.9358978,0.936846 z M 7.6825333,6.8721036 c 0,0 1.8721389,0 1.8721389,0 0,0 0,5.6206984 0,5.6206984 0,0 -1.8721389,0 -1.8721389,0 0,0 0,-5.6206984 0,-5.6206984 z M 47.934151,17.177036 c 0,0 -2.80838,0 -2.80838,0 0,0 0,-8.4312387 0,-8.4312387 0,-0.5171976 -0.419083,-0.9368469 -0.935898,-0.9368469 0,0 -3.744736,0 -3.744736,0 -0.516701,0 -0.935783,0.4196493 -0.935783,0.9368469 0,0 0,8.4312387 0,8.4312387 0,0 -3.744278,0 -3.744278,0 0,0 0,-8.4312387 0,-8.4312387 0,-0.5171976 -0.419083,-0.9368469 -0.936356,-0.9368469 0,0 -3.744278,0 -3.744278,0 -0.516701,0 -0.935783,0.4196493 -0.935783,0.9368469 0,0 0,8.4312387 0,8.4312387 0,0 -2.808495,0 -2.808495,0 -0.516701,0 -0.935783,0.41965 -0.935783,0.93723 0,0 0,5.620698 0,5.620698 0,0.517198 0.419082,0.936847 0.935783,0.936847 0,0 0.936356,0 0.936356,0 0,0 0,3.680825 0,3.680825 -0.0078,4.349127 1.669807,8.531848 4.680061,11.668315 0,0 0,5.261108 0,5.261108 0,0.517581 0.419083,0.93723 0.936356,0.93723 0,0 0.935783,0 0.935783,0 0,0 0,10.30455 0,10.30455 0,0.517963 0.419083,0.93723 0.936356,0.93723 0,0 3.744278,0 3.744278,0 0.517158,0 0.935783,-0.419267 0.935783,-0.93723 0,0 0,-10.30455 0,-10.30455 0,0 0.936356,0 0.936356,0 0.517158,0 0.936241,-0.419649 0.936241,-0.93723 0,0 0,-5.261108 0,-5.261108 3.009796,-3.136849 4.687843,-7.319188 4.680176,-11.668315 0,0 0,-3.680825 0,-3.680825 0,0 0.936241,0 0.936241,0 0.516815,0 0.935898,-0.419649 0.935898,-0.936847 0,0 0,-5.620698 0,-5.620698 0,-0.51758 -0.419083,-0.93723 -0.935898,-0.93723 z M 41.381493,9.6826441 c 0,0 1.872139,0 1.872139,0 0,0 0,7.4943919 0,7.4943919 0,0 -1.872139,0 -1.872139,0 0,0 0,-7.4943919 0,-7.4943919 z m -9.360695,0 c 0,0 1.872139,0 1.872139,0 0,0 0,7.4943919 0,7.4943919 0,0 -1.872139,0 -1.872139,0 0,0 0,-7.4943919 0,-7.4943919 z m 6.5522,45.9047309 c 0,0 -1.872139,0 -1.872139,0 0,0 0,-9.368086 0,-9.368086 0,0 1.872139,0 1.872139,0 0,0 0,9.368086 0,9.368086 z m 1.872139,-11.242162 c 0,0 -5.616417,0 -5.616417,0 0,0 0,-3.747388 0,-3.747388 0,0 5.616417,0 5.616417,0 0,0 0,3.747388 0,3.747388 z m 4.680634,-15.992577 c 0.01064,3.862533 -1.472397,7.579317 -4.138527,10.371495 0,0 -6.700516,0 -6.700516,0 -2.666245,-2.792178 -4.149284,-6.508962 -4.138069,-10.371495 0,0 0,-3.680825 0,-3.680825 0,0 14.977112,0 14.977112,0 0,0 0,3.680825 0,3.680825 z m 1.872139,-5.554518 c 0,0 -18.721848,0 -18.721848,0 0,0 0,-3.747388 0,-3.747388 0,0 18.721848,0 18.721848,0 0,0 0,3.747388 0,3.747388 z M 24.531784,35.913973 c 0,0 -10.806084,0 -10.806084,0 0,0 4.191628,-10.905524 4.191628,-10.905524 0.185966,-0.482769 -0.05436,-1.025597 -0.536842,-1.21113 -0.365525,-0.141158 -0.780373,-0.0394 -1.039124,0.255156 0,0 -14.0413284,15.926014 -14.0413284,15.926014 -0.3419495,0.388663 -0.3046418,0.980456 0.083656,1.322832 0.1705169,0.150339 0.390358,0.233734 0.6183243,0.233734 0,0 10.8406451,0 10.8406451,0 0,0 -4.2339709,11.863794 -4.2339709,11.863794 -0.174408,0.487359 0.07885,1.023301 0.5655669,1.198123 0.370217,0.132742 0.783806,0.01951 1.035347,-0.282699 0,0 14.041214,-16.862861 14.041214,-16.862861 0.331192,-0.397079 0.278092,-0.988107 -0.118332,-1.319389 -0.1688,-0.141158 -0.381317,-0.21805 -0.6007,-0.21805 z m -11.388359,13.14952 c 0,0 2.909546,-8.150835 2.909546,-8.150835 0.173492,-0.48736 -0.08057,-1.023302 -0.567398,-1.196976 -0.100708,-0.03596 -0.207367,-0.05432 -0.314484,-0.05432 0,0 -10.0947188,0 -10.0947188,0 0,0 9.2239378,-10.462541 9.2239378,-10.462541 0,0 -2.807922,7.315745 -2.807922,7.315745 -0.185623,0.482769 0.05482,1.024832 0.5373,1.210365 0.106316,0.04131 0.219383,0.06235 0.333023,0.06274 0,0 10.170479,0 10.170479,0 0,0 -9.389763,11.275826 -9.389763,11.275826 z"
         inkscape:connector-curvature="0"
         style="fill:#f95110;fill-opacity:1;fill-rule:evenodd;stroke:none;paint-order:stroke fill markers" />
    </g>
  </g>
</svg>
