<?xml version="1.0" encoding="UTF-8" standalone="no"?>
<!-- Generator: Adobe Illustrator 19.0.0, SVG Export Plug-In . SVG Version: 6.00 Build 0)  -->

<svg
   xmlns:dc="http://purl.org/dc/elements/1.1/"
   xmlns:cc="http://creativecommons.org/ns#"
   xmlns:rdf="http://www.w3.org/1999/02/22-rdf-syntax-ns#"
   xmlns:svg="http://www.w3.org/2000/svg"
   xmlns="http://www.w3.org/2000/svg"
   xmlns:sodipodi="http://sodipodi.sourceforge.net/DTD/sodipodi-0.dtd"
   xmlns:inkscape="http://www.inkscape.org/namespaces/inkscape"
   version="1.1"
   id="Слой_1"
   x="0px"
   y="0px"
   viewBox="-287 408.9 20 19.950001"
   xml:space="preserve"
   sodipodi:docname="cube.svg"
   width="20"
   height="19.950001"
   inkscape:version="0.92.1 r15371"><metadata
     id="metadata960"><rdf:RDF><cc:Work
         rdf:about=""><dc:format>image/svg+xml</dc:format><dc:type
           rdf:resource="http://purl.org/dc/dcmitype/StillImage" /><dc:title></dc:title></cc:Work></rdf:RDF></metadata><defs
     id="defs958" /><sodipodi:namedview
     pagecolor="#ffffff"
     bordercolor="#666666"
     borderopacity="1"
     objecttolerance="10"
     gridtolerance="10"
     guidetolerance="10"
     inkscape:pageopacity="0"
     inkscape:pageshadow="2"
     inkscape:window-width="1920"
     inkscape:window-height="1028"
     id="namedview956"
     showgrid="false"
     inkscape:zoom="17.22"
     inkscape:cx="5.0074433"
     inkscape:cy="12.493747"
     inkscape:window-x="1912"
     inkscape:window-y="-8"
     inkscape:window-maximized="1"
     inkscape:current-layer="Слой_1" /><path
     d="m -267.6,413.475 -9,-4.5 c -0.2,-0.1 -0.6,-0.1 -0.8,0 l -9,4.5 c -0.4,0.2 -0.6,0.5 -0.6,0.9 v 9.5 c 0,0.4 0.2,0.8 0.6,0.9 l 9,4 c 0.3,0.1 0.6,0.1 0.8,0 l 9,-4 c 0.4,-0.2 0.6,-0.5 0.6,-0.9 v -9.5 c 0,-0.4 -0.2,-0.7 -0.6,-0.9 z m -9.4,-2.5 6.8,3.4 -6.8,3.4 -6.8,-3.4 z m -8,5 7,3.5 v 6.8 l -7,-3.1 z m 9,10.4 v -6.8 l 7,-3.5 v 7.2 z"
     id="path953"
     inkscape:connector-curvature="0"
     style="fill:#ffffff;fill-opacity:1" /></svg>