<?xml version="1.0" encoding="UTF-8" standalone="no"?>
<!-- Generator: Adobe Illustrator 19.0.0, SVG Export Plug-In . SVG Version: 6.00 Build 0)  -->

<svg
   xmlns:dc="http://purl.org/dc/elements/1.1/"
   xmlns:cc="http://creativecommons.org/ns#"
   xmlns:rdf="http://www.w3.org/1999/02/22-rdf-syntax-ns#"
   xmlns:svg="http://www.w3.org/2000/svg"
   xmlns="http://www.w3.org/2000/svg"
   xmlns:sodipodi="http://sodipodi.sourceforge.net/DTD/sodipodi-0.dtd"
   xmlns:inkscape="http://www.inkscape.org/namespaces/inkscape"
   version="1.1"
   id="Слой_1"
   x="0px"
   y="0px"
   viewBox="-247 358.9 60 53.950001"
   xml:space="preserve"
   sodipodi:docname="heart.svg"
   width="60"
   height="53.950001"
   inkscape:version="0.92.1 r15371"><metadata
     id="metadata979"><rdf:RDF><cc:Work
         rdf:about=""><dc:format>image/svg+xml</dc:format><dc:type
           rdf:resource="http://purl.org/dc/dcmitype/StillImage" /><dc:title></dc:title></cc:Work></rdf:RDF></metadata><defs
     id="defs977" /><sodipodi:namedview
     pagecolor="#ffffff"
     bordercolor="#666666"
     borderopacity="1"
     objecttolerance="10"
     gridtolerance="10"
     guidetolerance="10"
     inkscape:pageopacity="0"
     inkscape:pageshadow="2"
     inkscape:window-width="1920"
     inkscape:window-height="1028"
     id="namedview975"
     showgrid="false"
     inkscape:zoom="3.444"
     inkscape:cx="9.5977086"
     inkscape:cy="48.034738"
     inkscape:window-x="1912"
     inkscape:window-y="-8"
     inkscape:window-maximized="1"
     inkscape:current-layer="Слой_1" /><g
     transform="translate(-20,-987.9)"
     id="g972"
     style="fill:#ffffff"><path
       d="m -209.2,1346.8 c -10.4,0 -17.8,8.8 -17.8,19.2 0,8.5 3.4,15 8.6,20.2 5.2,5.2 12.1,9.3 19.8,14.1 1,0.6 2.2,0.6 3.2,0 7.7,-4.8 14.6,-9 19.8,-14.1 5.2,-5.2 8.6,-11.7 8.6,-20.2 0,-10.4 -7.4,-19.2 -17.8,-19.2 -5.2,0 -9.4,2.1 -12.2,4.2 -2.8,-2.2 -7,-4.2 -12.2,-4.2 z m 0,6 c 4.5,0 8.7,2.9 10.1,4.3 1.2,1.2 3.1,1.2 4.2,0.1 0,0 0,0 0.1,-0.1 1.3,-1.4 5.5,-4.3 10.1,-4.3 7.2,0 11.8,5.5 11.8,13.2 0,7 -2.4,11.5 -6.8,15.9 -4.1,4.1 -10.2,7.8 -17.2,12.3 -7,-4.4 -13.1,-8.2 -17.2,-12.3 -4.4,-4.4 -6.8,-8.9 -6.8,-15.9 -0.1,-7.8 4.5,-13.2 11.7,-13.2 z"
       id="path970"
       style="fill:#ffffff"
       inkscape:connector-curvature="0" /></g></svg>