<?xml version="1.0" encoding="UTF-8" standalone="no"?>
<!-- Generator: Adobe Illustrator 19.0.0, SVG Export Plug-In . SVG Version: 6.00 Build 0)  -->

<svg
   xmlns:dc="http://purl.org/dc/elements/1.1/"
   xmlns:cc="http://creativecommons.org/ns#"
   xmlns:rdf="http://www.w3.org/1999/02/22-rdf-syntax-ns#"
   xmlns:svg="http://www.w3.org/2000/svg"
   xmlns="http://www.w3.org/2000/svg"
   xmlns:sodipodi="http://sodipodi.sourceforge.net/DTD/sodipodi-0.dtd"
   xmlns:inkscape="http://www.inkscape.org/namespaces/inkscape"
   version="1.1"
   id="Слой_1"
   x="0px"
   y="0px"
   viewBox="-247 358.9 88 65.735001"
   xml:space="preserve"
   sodipodi:docname="party.svg"
   width="88"
   height="65.735001"
   inkscape:version="0.92.1 r15371"><metadata
     id="metadata1008"><rdf:RDF><cc:Work
         rdf:about=""><dc:format>image/svg+xml</dc:format><dc:type
           rdf:resource="http://purl.org/dc/dcmitype/StillImage" /><dc:title></dc:title></cc:Work></rdf:RDF></metadata><defs
     id="defs1006" /><sodipodi:namedview
     pagecolor="#ffffff"
     bordercolor="#666666"
     borderopacity="1"
     objecttolerance="10"
     gridtolerance="10"
     guidetolerance="10"
     inkscape:pageopacity="0"
     inkscape:pageshadow="2"
     inkscape:window-width="1920"
     inkscape:window-height="1028"
     id="namedview1004"
     showgrid="false"
     inkscape:zoom="3.444"
     inkscape:cx="16.741446"
     inkscape:cy="51.946784"
     inkscape:window-x="1912"
     inkscape:window-y="-8"
     inkscape:window-maximized="1"
     inkscape:current-layer="Слой_1" /><g
     id="g1001"
     transform="translate(-6,-29.665235)"
     style="fill:#ffffff"><circle
       cx="-183"
       cy="410.20001"
       r="2"
       id="circle989"
       style="fill:#ffffff" /><circle
       cx="-175"
       cy="394.20001"
       r="2"
       id="circle991"
       style="fill:#ffffff" /><circle
       cx="-161"
       cy="416.20001"
       r="4"
       id="circle993"
       style="fill:#ffffff" /><rect
       x="-175.89999"
       y="405.39999"
       transform="matrix(-0.7071,0.7071,-0.7071,-0.7071,-6.7406,819.1872)"
       width="5.6999998"
       height="5.6999998"
       id="rect995"
       style="fill:#ffffff" /><path
       d="m -157,432.2 c 0,2.2 -1.8,4 -4,4 -2.2,0 -4,-1.8 -4,-4 0,-4.4 -3.6,-8 -8,-8 -2.1,0 -4,0.8 -5.5,2.2 l -11,-19 c 2.6,-1.3 4.4,-4 4.4,-7.2 0,-4.4 -3.6,-8 -8,-8 v 4 c 2.2,0 4,1.8 4,4 0,1.7 -1,3.1 -2.4,3.7 l -5.7,-9.9 -43.8,52.2 4.7,8.1 67.1,-11.8 -7.2,-12.4 c 0.7,-1.1 1.9,-1.8 3.4,-1.8 2.2,0 4,1.8 4,4 0,4.4 3.6,8 8,8 4.4,0 8,-3.6 8,-8 h -4 z m -36,-15 v 21.3 l -8,1.4 v -29 l 2.6,-3.1 z m -16,24.1 -8,1.4 V 430 l 8,-9.5 z m -16,-1.7 v 4.5 l -4.5,0.8 z m 40,-2.5 V 431 l 3.2,5.5 z"
       id="path997"
       inkscape:connector-curvature="0"
       style="fill:#ffffff" /><rect
       x="-165"
       y="392.20001"
       transform="matrix(-0.7071,0.7071,-0.7071,-0.7071,7.2598,785.39)"
       width="12"
       height="4"
       id="rect999"
       style="fill:#ffffff" /></g></svg>