<?xml version="1.0" encoding="UTF-8" standalone="no"?>
<!-- Generator: Adobe Illustrator 19.0.0, SVG Export Plug-In . SVG Version: 6.00 Build 0)  -->

<svg
   xmlns:dc="http://purl.org/dc/elements/1.1/"
   xmlns:cc="http://creativecommons.org/ns#"
   xmlns:rdf="http://www.w3.org/1999/02/22-rdf-syntax-ns#"
   xmlns:svg="http://www.w3.org/2000/svg"
   xmlns="http://www.w3.org/2000/svg"
   xmlns:sodipodi="http://sodipodi.sourceforge.net/DTD/sodipodi-0.dtd"
   xmlns:inkscape="http://www.inkscape.org/namespaces/inkscape"
   version="1.1"
   id="Слой_1"
   x="0px"
   y="0px"
   viewBox="-247 358.9 87 87"
   xml:space="preserve"
   sodipodi:docname="plate.svg"
   width="87"
   height="87"
   inkscape:version="0.92.1 r15371"><metadata
     id="metadata1039"><rdf:RDF><cc:Work
         rdf:about=""><dc:format>image/svg+xml</dc:format><dc:type
           rdf:resource="http://purl.org/dc/dcmitype/StillImage" /><dc:title>Artboard 14</dc:title></cc:Work></rdf:RDF></metadata><defs
     id="defs1037" /><sodipodi:namedview
     pagecolor="#ffffff"
     bordercolor="#666666"
     borderopacity="1"
     objecttolerance="10"
     gridtolerance="10"
     guidetolerance="10"
     inkscape:pageopacity="0"
     inkscape:pageshadow="2"
     inkscape:window-width="1920"
     inkscape:window-height="1028"
     id="namedview1035"
     showgrid="false"
     inkscape:zoom="3.444"
     inkscape:cx="5.1753952"
     inkscape:cy="43.52738"
     inkscape:window-x="1912"
     inkscape:window-y="-8"
     inkscape:window-maximized="1"
     inkscape:current-layer="Слой_1" /><title
     id="title1018">Artboard 14</title><g
     id="g1032"
     style="fill:#ffffff"
     transform="translate(-6.5,-19)"><g
       id="g1022"
       style="fill:#ffffff"><path
         d="m -197,464.9 c -24,0 -43.5,-19.5 -43.5,-43.5 0,-24 19.5,-43.5 43.5,-43.5 24,0 43.5,19.5 43.5,43.5 0,24 -19.5,43.5 -43.5,43.5 z m 0,-83.2 c -21.9,0 -39.7,17.8 -39.7,39.7 0,21.9 17.8,39.7 39.7,39.7 21.9,0 39.7,-17.8 39.7,-39.7 v 0 c 0,-21.9 -17.8,-39.7 -39.7,-39.7 z"
         id="path1020"
         style="fill:#ffffff"
         inkscape:connector-curvature="0" /></g><g
       id="g1026"
       style="fill:#ffffff"><path
         d="m -197,449.3 c -15.4,0 -27.9,-12.5 -27.9,-27.9 0,-15.4 12.5,-27.9 27.9,-27.9 15.4,0 27.9,12.5 27.9,27.9 0,15.4 -12.5,27.9 -27.9,27.9 z m 0,-52 c -13.3,0 -24.1,10.8 -24.1,24.1 0,13.3 10.8,24.1 24.1,24.1 13.3,0 24.1,-10.8 24.1,-24.1 0,-13.3 -10.8,-24.1 -24.1,-24.1 z"
         id="path1024"
         style="fill:#ffffff"
         inkscape:connector-curvature="0" /></g><g
       id="g1030"
       style="fill:#ffffff"><path
         d="m -198.6,435.4 c -6.8,0 -12.3,-5.5 -12.4,-12.3 0,-1.1 0.9,-1.9 1.9,-1.9 1.1,0 1.9,0.9 1.9,1.9 0,0 0,0 0,0 0,4.7 3.8,8.5 8.5,8.5 1.1,0 1.9,0.9 1.9,1.9 0,1 -0.8,1.9 -1.8,1.9 -0.1,0 -0.1,0 0,0 z"
         id="path1028"
         style="fill:#ffffff"
         inkscape:connector-curvature="0" /></g></g></svg>