<?xml version="1.0" encoding="UTF-8" standalone="no"?>
<!-- Generator: Adobe Illustrator 19.0.0, SVG Export Plug-In . SVG Version: 6.00 Build 0)  -->

<svg
   xmlns:dc="http://purl.org/dc/elements/1.1/"
   xmlns:cc="http://creativecommons.org/ns#"
   xmlns:rdf="http://www.w3.org/1999/02/22-rdf-syntax-ns#"
   xmlns:svg="http://www.w3.org/2000/svg"
   xmlns="http://www.w3.org/2000/svg"
   xmlns:sodipodi="http://sodipodi.sourceforge.net/DTD/sodipodi-0.dtd"
   xmlns:inkscape="http://www.inkscape.org/namespaces/inkscape"
   version="1.1"
   id="Слой_1"
   x="0px"
   y="0px"
   viewBox="-281 400.9 26 32"
   xml:space="preserve"
   sodipodi:docname="shield.svg"
   width="26"
   height="32"
   inkscape:version="0.92.1 r15371"><metadata
     id="metadata1060"><rdf:RDF><cc:Work
         rdf:about=""><dc:format>image/svg+xml</dc:format><dc:type
           rdf:resource="http://purl.org/dc/dcmitype/StillImage" /><dc:title></dc:title></cc:Work></rdf:RDF></metadata><defs
     id="defs1058" /><sodipodi:namedview
     pagecolor="#ffffff"
     bordercolor="#666666"
     borderopacity="1"
     objecttolerance="10"
     gridtolerance="10"
     guidetolerance="10"
     inkscape:pageopacity="0"
     inkscape:pageshadow="2"
     inkscape:window-width="1920"
     inkscape:window-height="1028"
     id="namedview1056"
     showgrid="false"
     inkscape:zoom="10.7625"
     inkscape:cx="-1.7728673"
     inkscape:cy="10.880767"
     inkscape:window-x="1912"
     inkscape:window-y="-8"
     inkscape:window-maximized="1"
     inkscape:current-layer="Слой_1" /><g
     id="g1053"
     style="fill:#ffffff"
     transform="translate(-3,-4)"><path
       d="m -265,436.9 c -0.1,0 -0.2,0 -0.2,0 -5.8,-1.5 -12.8,-10.1 -12.8,-16 v -12.3 c 0,-0.6 0.4,-1 1,-1 1.9,0 4.6,-0.8 8.2,-1.7 1.1,-0.3 2.3,-0.6 3.6,-1 0.2,0 0.3,0 0.5,0 1.2,0.3 2.3,0.6 3.3,0.9 3.6,1 6.4,1.8 8.4,1.8 0.6,0 1,0.4 1,1 v 12.3 c 0,6 -5.7,14.5 -12.8,16 -0.1,0 -0.1,0 -0.2,0 z m -11,-27.3 v 11.3 c 0,4.9 6,12.5 11,14 5.8,-1.4 11,-8.9 11,-14 v -11.3 c -2.1,-0.2 -4.7,-0.9 -8,-1.8 -1,-0.3 -2,-0.5 -3,-0.8 -1.2,0.3 -2.3,0.6 -3.3,0.9 -3.1,0.8 -5.7,1.5 -7.7,1.7 z"
       id="path1049"
       style="fill:#ffffff"
       inkscape:connector-curvature="0" /><path
       d="m -266,425.9 c -0.3,0 -0.5,-0.1 -0.7,-0.3 l -4,-4 c -0.4,-0.4 -0.4,-1 0,-1.4 0.4,-0.4 1,-0.4 1.4,0 l 3.2,3.2 6.3,-7.2 c 0.4,-0.4 1,-0.5 1.4,-0.1 0.4,0.4 0.5,1 0.1,1.4 l -7,8 c -0.1,0.3 -0.4,0.4 -0.7,0.4 0,0 0,0 0,0 z"
       id="path1051"
       style="fill:#ffffff"
       inkscape:connector-curvature="0" /></g></svg>