<?xml version="1.0" encoding="UTF-8" standalone="no"?>
<!-- Generator: Adobe Illustrator 19.0.0, SVG Export Plug-In . SVG Version: 6.00 Build 0)  -->

<svg
   xmlns:dc="http://purl.org/dc/elements/1.1/"
   xmlns:cc="http://creativecommons.org/ns#"
   xmlns:rdf="http://www.w3.org/1999/02/22-rdf-syntax-ns#"
   xmlns:svg="http://www.w3.org/2000/svg"
   xmlns="http://www.w3.org/2000/svg"
   xmlns:sodipodi="http://sodipodi.sourceforge.net/DTD/sodipodi-0.dtd"
   xmlns:inkscape="http://www.inkscape.org/namespaces/inkscape"
   version="1.1"
   id="Слой_1"
   x="0px"
   y="0px"
   viewBox="-247 358.9 98 92.18"
   xml:space="preserve"
   sodipodi:docname="smart.svg"
   inkscape:version="0.92.1 r15371"
   width="98"
   height="92.18"><metadata
     id="metadata27"><rdf:RDF><cc:Work
         rdf:about=""><dc:format>image/svg+xml</dc:format><dc:type
           rdf:resource="http://purl.org/dc/dcmitype/StillImage" /><dc:title>Artboard 9</dc:title></cc:Work></rdf:RDF></metadata><defs
     id="defs25" /><sodipodi:namedview
     pagecolor="#ffffff"
     bordercolor="#666666"
     borderopacity="1"
     objecttolerance="10"
     gridtolerance="10"
     guidetolerance="10"
     inkscape:pageopacity="0"
     inkscape:pageshadow="2"
     inkscape:window-width="1920"
     inkscape:window-height="1028"
     id="namedview23"
     showgrid="false"
     inkscape:zoom="1.888"
     inkscape:cx="50"
     inkscape:cy="62.5"
     inkscape:window-x="1912"
     inkscape:window-y="-8"
     inkscape:window-maximized="1"
     inkscape:current-layer="Слой_1" /><title
     id="title2">Artboard 9</title><g
     id="g20"
     style="fill:#ffffff"
     transform="translate(-1,-16.420121)"><path
       d="m -179.6,429.2 c 13.3,-9.6 16.4,-28.2 6.8,-41.5 -1.1,-1.6 -2.4,-3 -3.8,-4.4 -6,-5.7 -14.1,-8.5 -22.4,-7.9 -16.4,1.2 -28.7,15.4 -27.6,31.7 0.6,8.8 5.1,16.9 12.3,22 v 5.7 c 0,1.4 1.1,2.5 2.5,2.5 1.4,0 2.5,-1.1 2.5,-2.5 v -6 c 0,-1.4 -0.7,-2.8 -1.9,-3.6 -11.1,-7.9 -13.7,-23.4 -5.8,-34.5 4.3,-6 11,-9.8 18.3,-10.3 6.9,-0.5 13.6,1.9 18.6,6.6 10,9.3 10.5,25 1.2,35 -1.2,1.2 -2.4,2.4 -3.8,3.3 -1.2,0.8 -1.9,2.2 -1.9,3.6 v 6 c 0,1.4 1.1,2.5 2.5,2.5 1.4,0 2.5,-1.1 2.5,-2.5 z"
       id="path4"
       style="fill:#ffffff"
       inkscape:connector-curvature="0" /><path
       d="m -202.1,467.5 h 10.2 c 3.3,0 5.9,-2.6 5.9,-5.9 v 0 -1 c 3.8,-1.5 6.3,-5.2 6.4,-9.3 v -6.7 c 0,-1.4 -1.1,-2.5 -2.5,-2.5 h -29.8 c -1.4,0 -2.5,1.1 -2.5,2.5 v 6.6 c 0,4.1 2.5,7.8 6.3,9.3 v 1 c 0.1,3.3 2.7,5.9 6,6 0,0 0,0 0,0 z m -7.3,-16.2 v -4.1 h 24.8 v 4.1 c 0,2.5 -1.8,4.5 -4.2,4.9 -1.2,0.2 -2.1,1.2 -2.1,2.5 v 2.9 c 0,0.5 -0.4,0.9 -0.9,0.9 H -202 c -0.5,0 -0.9,-0.4 -0.9,-0.9 v -2.9 c 0,-1.2 -0.9,-2.3 -2.1,-2.5 -2.5,-0.4 -4.3,-2.5 -4.4,-4.9 z"
       id="path6"
       style="fill:#ffffff"
       inkscape:connector-curvature="0" /><path
       d="m -243.5,407.6 h 8.1 c 1.4,0 2.5,-1.1 2.5,-2.5 0,-1.4 -1.1,-2.5 -2.5,-2.5 h -8.1 c -1.4,0 -2.5,1.1 -2.5,2.5 0,1.4 1.1,2.5 2.5,2.5 z"
       id="path8"
       style="fill:#ffffff"
       inkscape:connector-curvature="0" /><path
       d="m -227.3,389.5 c 0.7,-1.2 0.4,-2.7 -0.8,-3.4 l -7.6,-5 c -1.2,-0.7 -2.7,-0.3 -3.4,0.9 -0.7,1.1 -0.4,2.5 0.7,3.3 l 7.6,5 c 1.2,0.7 2.8,0.3 3.5,-0.8 z"
       id="path10"
       style="fill:#ffffff"
       inkscape:connector-curvature="0" /><path
       d="m -239,428.4 c 0.8,1.1 2.3,1.5 3.4,0.7 l 7.6,-5 c 1.1,-0.8 1.4,-2.4 0.6,-3.5 -0.8,-1.1 -2.2,-1.4 -3.3,-0.7 l -7.5,5 c -1.2,0.8 -1.6,2.3 -0.8,3.5 z"
       id="path12"
       style="fill:#ffffff"
       inkscape:connector-curvature="0" /><path
       d="m -150.5,402.6 h -8.1 c -1.4,0 -2.5,1.1 -2.5,2.5 0,1.4 1.1,2.5 2.5,2.5 h 8.1 c 1.4,0 2.5,-1.1 2.5,-2.5 0,-1.4 -1.1,-2.5 -2.5,-2.5 z"
       id="path14"
       style="fill:#ffffff"
       inkscape:connector-curvature="0" /><path
       d="m -155,381.8 c -0.8,-1.1 -2.3,-1.5 -3.4,-0.7 l -7.6,5 c -1.2,0.7 -1.6,2.2 -0.9,3.4 0.7,1.2 2.2,1.6 3.4,0.9 0.1,0 0.1,-0.1 0.2,-0.1 l 7.6,-5 c 1.1,-0.8 1.5,-2.3 0.7,-3.5 z"
       id="path16"
       style="fill:#ffffff"
       inkscape:connector-curvature="0" /><path
       d="m -155.8,424.9 -7.6,-5 c -1.2,-0.7 -2.7,-0.4 -3.4,0.8 -0.7,1.2 -0.4,2.7 0.8,3.4 v 0 l 7.6,5 c 1.2,0.7 2.7,0.3 3.4,-0.9 0.6,-1 0.3,-2.4 -0.8,-3.3 z"
       id="path18"
       style="fill:#ffffff"
       inkscape:connector-curvature="0" /></g></svg>