<svg xmlns="http://www.w3.org/2000/svg" viewBox="0 0 90.04 60.77"><defs><style>.cls-1{fill:#3eb4f0;}.cls-2{fill:#fff;}</style></defs><title>Asset 12</title><g id="Layer_2" data-name="Layer 2"><g id="Слой_1" data-name="Слой 1"><polygon class="cls-1" points="0 60.77 90.04 60.77 90.04 0 0 0 11.26 29.73 0 60.77"/><path class="cls-2" d="M47.47,41.53A11.15,11.15,0,1,1,58.62,30.38,11.16,11.16,0,0,1,47.47,41.53ZM67.25,28.1a1.2,1.2,0,0,0-.46-.81l-3.13-2.37,1.14-3.76A1.17,1.17,0,0,0,64,19.68l-3.83-.89-.49-3.9a1.16,1.16,0,0,0-1.38-1l-3.86.74-2-3.37a1.16,1.16,0,0,0-.76-.53,1.14,1.14,0,0,0-.91.18l-3.22,2.25-3.23-2.25a1.13,1.13,0,0,0-.91-.18,1.14,1.14,0,0,0-.75.53l-2,3.37-3.86-.74a1.16,1.16,0,0,0-1.37,1l-.49,3.9L31,19.68a1.24,1.24,0,0,0-.75.55,1.21,1.21,0,0,0-.1.93l1.14,3.76-3.14,2.37a1.19,1.19,0,0,0-.45.81A1.17,1.17,0,0,0,28,29l2.57,3-1.9,3.44A1.16,1.16,0,0,0,29.17,37l3.56,1.67-.34,3.92a1.19,1.19,0,0,0,.3.88,1.16,1.16,0,0,0,.84.38l3.93.08,1.29,3.71a1.16,1.16,0,0,0,.63.69,1.2,1.2,0,0,0,.93,0l3.62-1.53,2.69,2.87a1.16,1.16,0,0,0,1.7,0L51,46.83l3.62,1.53a1.2,1.2,0,0,0,.93,0,1.15,1.15,0,0,0,.62-.69L57.47,44l3.93-.08a1.15,1.15,0,0,0,1.14-1.26l-.33-3.92L65.77,37a1.18,1.18,0,0,0,.61-.7,1.14,1.14,0,0,0-.09-.92L64.4,32,67,29a1.17,1.17,0,0,0,.28-.88Z"/><path class="cls-2" d="M52,28.71l-5,5a1.16,1.16,0,0,1-1.64,0l-2.5-2.49a1.17,1.17,0,1,1,1.65-1.65l1.67,1.67,4.17-4.17A1.17,1.17,0,1,1,52,28.71Zm-4.57-7.15a8.82,8.82,0,1,0,8.82,8.82,8.83,8.83,0,0,0-8.82-8.82Z"/></g></g></svg>