<svg xmlns="http://www.w3.org/2000/svg" viewBox="0 0 227.44 19.88"><defs><style>.cls-1{fill:#fff;}.cls-2{fill:none;stroke:#fff;stroke-miterlimit:10;stroke-width:0.5px;}</style></defs><title>Asset 2</title><g id="Layer_2" data-name="Layer 2"><g id="Слой_1" data-name="Слой 1"><path class="cls-1" d="M10.66,9.94A5.32,5.32,0,1,0,8.4,14.3l1,1h1.29V14l-1-1A5.25,5.25,0,0,0,10.66,9.94Zm-8.84,0a3.51,3.51,0,1,1,3.51,3.52A3.51,3.51,0,0,1,1.82,9.94Z"/><polygon class="cls-1" points="44.57 4.61 42.76 4.61 42.76 15.27 44.57 15.27 44.57 15.27 49.54 15.27 49.54 13.46 44.57 13.46 44.57 4.61"/><rect class="cls-1" x="62.36" y="4.61" width="1.82" height="10.66"/><path class="cls-1" d="M26.65,4.61h0l-1,2-4.31,8.63h2l.54-1.09H29.4l.54,1.09h2L27.66,6.64ZM24.8,12.36l1.85-3.69,1.84,3.69Z"/><path class="cls-1" d="M106.82,14.58l-1-2.49h-5.18l-1,2.49h-.51l3.87-9.29h.53l3.87,9.29ZM103.2,5.81l-2.42,5.86h4.84Z"/><path class="cls-1" d="M119.92,14.58l-2.82-4h-2.23v4h-.45V5.29h3.21a2.55,2.55,0,0,1,2.74,2.63,2.56,2.56,0,0,1-2.74,2.65l2.86,4Zm0-6.66a2.13,2.13,0,0,0-2.25-2.21h-2.76v4.44h2.76A2.14,2.14,0,0,0,119.88,7.92Z"/><path class="cls-1" d="M127.73,9.94a4.59,4.59,0,0,1,4.64-4.8A4.12,4.12,0,0,1,135.6,6.6l-.35.31a3.66,3.66,0,0,0-2.88-1.35,4.13,4.13,0,0,0-4.15,4.38,4.15,4.15,0,0,0,4.15,4.39A3.69,3.69,0,0,0,135.25,13l.36.29a4.11,4.11,0,0,1-3.24,1.48A4.59,4.59,0,0,1,127.73,9.94Z"/><path class="cls-1" d="M149.69,14.58V10h-6.34v4.57h-.44V5.29h.44v4.3h6.34V5.29h.44v9.29Z"/><path class="cls-1" d="M158.15,14.58V5.29h.45v9.29Z"/><path class="cls-1" d="M169.05,14.58V5.71h-3.13V5.29h6.73v.42H169.5v8.87Z"/><path class="cls-1" d="M180,14.58V5.29h5.68v.42h-5.24V9.59h5.14V10h-5.14v4.15h5.24v.42Z"/><path class="cls-1" d="M193,9.94a4.6,4.6,0,0,1,4.64-4.8,4.12,4.12,0,0,1,3.23,1.46l-.34.31a3.7,3.7,0,0,0-2.89-1.35,4.13,4.13,0,0,0-4.15,4.38,4.16,4.16,0,0,0,4.15,4.39A3.73,3.73,0,0,0,200.51,13l.36.29a4.14,4.14,0,0,1-3.25,1.48A4.6,4.6,0,0,1,193,9.94Z"/><path class="cls-1" d="M210.6,14.58V5.71h-3.14V5.29h6.73v.42H211v8.87Z"/><path class="cls-1" d="M221,13.27l.37-.32a3.68,3.68,0,0,0,2.88,1.38c2.14,0,2.69-1.23,2.69-2.1,0-3.07-5.64-1.55-5.64-4.72,0-1.51,1.38-2.37,2.91-2.37a3.69,3.69,0,0,1,3,1.31l-.35.32a3.19,3.19,0,0,0-2.66-1.21,2.18,2.18,0,0,0-2.43,2c0,2.64,5.64,1.25,5.64,4.72,0,1-.66,2.52-3.17,2.52A4.06,4.06,0,0,1,221,13.27Z"/><line class="cls-2" x1="83.59" y1="19.88" x2="83.59"/></g></g></svg>