<svg xmlns="http://www.w3.org/2000/svg" viewBox="0 0 30.91 24.29"><defs><style>.cls-1{fill:#008df6;}</style></defs><title>Asset 10</title><g id="Layer_2" data-name="Layer 2"><g id="Слой_1" data-name="Слой 1"><path class="cls-1" d="M28.15,24.29A2.61,2.61,0,0,0,30,23.6L21.2,14.85l-.6.43c-.66.49-1.19.86-1.6,1.13a9.74,9.74,0,0,1-1.63.83,5,5,0,0,1-1.9.42h0a5,5,0,0,1-1.9-.42,9.74,9.74,0,0,1-1.63-.83c-.41-.27-.94-.64-1.59-1.13l-.61-.43L1,23.6a2.61,2.61,0,0,0,1.81.69Z"/><path class="cls-1" d="M1.74,9.33A9.3,9.3,0,0,1,0,7.83V21.16l7.72-7.72q-2.33-1.62-6-4.11Z"/><path class="cls-1" d="M29.19,9.33q-3.53,2.38-6,4.11l7.72,7.72V7.83a9.65,9.65,0,0,1-1.72,1.5Z"/><path class="cls-1" d="M28.15,0H2.76a2.44,2.44,0,0,0-2,.9A3.44,3.44,0,0,0,0,3.14,4,4,0,0,0,1,5.49a8.48,8.48,0,0,0,2,2L6.5,9.94l2.78,1.94L11,13.09l.26.19.48.34c.37.27.68.49.93.65s.54.36.89.56a4.93,4.93,0,0,0,1,.47,2.81,2.81,0,0,0,.86.16h0a2.87,2.87,0,0,0,.87-.16,4.87,4.87,0,0,0,1-.47c.35-.2.65-.39.89-.56s.56-.38.94-.65l.47-.34.26-.19,1.75-1.21L28,7.49a8.37,8.37,0,0,0,2.11-2.13,4.54,4.54,0,0,0,.84-2.6A2.63,2.63,0,0,0,30.09.81,2.65,2.65,0,0,0,28.15,0Z"/></g></g></svg>