<?xml version="1.0" encoding="utf-8"?>
<!-- Generator: Adobe Illustrator 22.0.1, SVG Export Plug-In . SVG Version: 6.00 Build 0)  -->
<svg version="1.1" id="Layer_1" xmlns="http://www.w3.org/2000/svg" xmlns:xlink="http://www.w3.org/1999/xlink" x="0px" y="0px"
	 viewBox="0 0 29.7 29.7" style="enable-background:new 0 0 29.7 29.7;" xml:space="preserve">
<style type="text/css">
	.st0{fill:#008DF6;}
</style>
<g>
	<g>
		<path class="st0" d="M22.6,19.7c-1-1-2.2-1-3.1,0c-0.7,0.7-1.5,1.5-2.2,2.2c-0.2,0.2-0.4,0.2-0.6,0.1c-0.5-0.3-1-0.5-1.4-0.8
			c-2.1-1.3-3.9-3.1-5.5-5c-0.8-1-1.5-2-2-3.2c-0.1-0.2-0.1-0.4,0.1-0.6c0.7-0.7,1.5-1.4,2.2-2.2c1-1,1-2.2,0-3.2
			C9.4,6.5,8.9,5.9,8.3,5.3C7.7,4.7,7.1,4.1,6.5,3.6c-1-0.9-2.2-0.9-3.1,0C2.6,4.3,1.9,5,1.1,5.8C0.4,6.4,0.1,7.2,0,8.2
			c-0.1,1.5,0.3,3,0.8,4.4c1.1,2.9,2.7,5.5,4.8,7.9c2.7,3.2,6,5.8,9.7,7.6c1.7,0.8,3.5,1.5,5.4,1.6c1.3,0.1,2.5-0.3,3.4-1.3
			c0.6-0.7,1.3-1.3,2-2c1-1,1-2.2,0-3.2C25,22,23.8,20.8,22.6,19.7L22.6,19.7z M22.6,19.7"/>
	</g>
	<path class="st0" d="M21.4,14.7l2.3-0.4c-0.4-2.1-1.3-4-2.9-5.5c-1.6-1.6-3.6-2.6-5.8-2.9l-0.3,2.3c1.7,0.2,3.3,1,4.5,2.2
		C20.4,11.6,21.1,13.1,21.4,14.7L21.4,14.7z M21.4,14.7"/>
	<path class="st0" d="M25,4.8c-2.6-2.6-6-4.3-9.6-4.8L15,2.3c3.2,0.4,6.1,1.9,8.3,4.2c2.2,2.2,3.6,4.9,4.1,7.9l2.3-0.4
		C29.1,10.5,27.5,7.3,25,4.8L25,4.8z M25,4.8"/>
</g>
</svg>
