<?xml version="1.0" encoding="utf-8"?>
<!-- Generator: Adobe Illustrator 22.0.1, SVG Export Plug-In . SVG Version: 6.00 Build 0)  -->
<svg version="1.1" id="Layer_1" xmlns="http://www.w3.org/2000/svg" xmlns:xlink="http://www.w3.org/1999/xlink" x="0px" y="0px"
	 viewBox="0 0 30.9 24.3" style="enable-background:new 0 0 30.9 24.3;" xml:space="preserve">
<style type="text/css">
	.st0{fill:#008DF6;}
</style>
<g>
	<path class="st0" d="M28.2,24.3c0.7,0,1.3-0.2,1.8-0.7l-8.8-8.8c-0.2,0.2-0.4,0.3-0.6,0.4c-0.7,0.5-1.2,0.9-1.6,1.1
		c-0.4,0.3-1,0.5-1.6,0.8c-0.7,0.3-1.3,0.4-1.9,0.4h0c-0.6,0-1.2-0.1-1.9-0.4c-0.7-0.3-1.2-0.6-1.6-0.8c-0.4-0.3-0.9-0.6-1.6-1.1
		c-0.2-0.1-0.4-0.3-0.6-0.4L1,23.6c0.5,0.5,1.1,0.7,1.8,0.7H28.2z M28.2,24.3"/>
	<path class="st0" d="M1.7,9.3C1.1,8.9,0.5,8.4,0,7.8v13.3l7.7-7.7C6.2,12.4,4.2,11,1.7,9.3L1.7,9.3z M1.7,9.3"/>
	<path class="st0" d="M29.2,9.3c-2.3,1.6-4.3,3-6,4.1l7.7,7.7V7.8C30.4,8.4,29.8,8.9,29.2,9.3L29.2,9.3z M29.2,9.3"/>
	<path class="st0" d="M28.2,0H2.8c-0.9,0-1.6,0.3-2,0.9C0.2,1.5,0,2.2,0,3.1c0,0.7,0.3,1.5,0.9,2.4c0.6,0.8,1.3,1.5,2,2
		c0.4,0.3,1.6,1.1,3.5,2.5c1.1,0.7,2,1.4,2.8,1.9c0.7,0.5,1.3,0.9,1.7,1.2c0.1,0,0.1,0.1,0.3,0.2c0.1,0.1,0.3,0.2,0.5,0.3
		c0.4,0.3,0.7,0.5,0.9,0.7c0.2,0.2,0.5,0.4,0.9,0.6c0.4,0.2,0.7,0.4,1,0.5c0.3,0.1,0.6,0.2,0.9,0.2h0c0.3,0,0.6-0.1,0.9-0.2
		c0.3-0.1,0.6-0.3,1-0.5c0.4-0.2,0.6-0.4,0.9-0.6c0.2-0.2,0.6-0.4,0.9-0.7c0.2-0.1,0.4-0.3,0.5-0.3c0.1-0.1,0.2-0.1,0.3-0.2
		c0.4-0.3,1-0.7,1.7-1.2c1.4-1,3.5-2.5,6.3-4.4c0.8-0.6,1.5-1.3,2.1-2.1c0.6-0.8,0.8-1.7,0.8-2.6c0-0.8-0.3-1.4-0.8-1.9
		C29.5,0.3,28.9,0,28.2,0L28.2,0z M28.2,0"/>
</g>
</svg>
