<?xml version="1.0" encoding="utf-8"?>
<!-- Generator: Adobe Illustrator 22.0.1, SVG Export Plug-In . SVG Version: 6.00 Build 0)  -->
<svg version="1.1" id="Layer_1" xmlns="http://www.w3.org/2000/svg" xmlns:xlink="http://www.w3.org/1999/xlink" x="0px" y="0px"
	 viewBox="0 0 30.2 41.7" style="enable-background:new 0 0 30.2 41.7;" xml:space="preserve">
<style type="text/css">
	.st0{fill:#008DF6;}
</style>
<g>
	<g>
		<path class="st0" d="M15.1,22.7c-4.2,0-7.6-3.4-7.6-7.6c0-4.2,3.4-7.6,7.6-7.6c4.2,0,7.6,3.4,7.6,7.6
			C22.7,19.3,19.3,22.7,15.1,22.7L15.1,22.7z M15.1,0C6.8,0,0,6.8,0,15.1c0,10.3,13.5,25.5,14.1,26.2c0.5,0.6,1.5,0.6,2,0
			c0.6-0.6,14.1-15.8,14.1-26.2C30.2,6.8,23.5,0,15.1,0L15.1,0z"/>
	</g>
</g>
</svg>
