<?xml version="1.0" encoding="UTF-8" standalone="no"?>
<!-- Created with Inkscape (http://www.inkscape.org/) -->

<svg
   xmlns:dc="http://purl.org/dc/elements/1.1/"
   xmlns:cc="http://creativecommons.org/ns#"
   xmlns:rdf="http://www.w3.org/1999/02/22-rdf-syntax-ns#"
   xmlns:svg="http://www.w3.org/2000/svg"
   xmlns="http://www.w3.org/2000/svg"
   xmlns:sodipodi="http://sodipodi.sourceforge.net/DTD/sodipodi-0.dtd"
   xmlns:inkscape="http://www.inkscape.org/namespaces/inkscape"
   width="184.70599"
   height="111.693"
   viewBox="0 0 48.870126 29.552107"
   version="1.1"
   id="svg8"
   inkscape:version="0.92.2 (5c3e80d, 2017-08-06)"
   sodipodi:docname="1.svg">
  <defs
     id="defs2" />
  <sodipodi:namedview
     id="base"
     pagecolor="#ffffff"
     bordercolor="#666666"
     borderopacity="1.0"
     inkscape:pageopacity="0.0"
     inkscape:pageshadow="2"
     inkscape:zoom="2.8"
     inkscape:cx="186.63294"
     inkscape:cy="72.219001"
     inkscape:document-units="px"
     inkscape:current-layer="layer1"
     showgrid="false"
     units="px"
     inkscape:window-width="1920"
     inkscape:window-height="1027"
     inkscape:window-x="-8"
     inkscape:window-y="-8"
     inkscape:window-maximized="1" />
  <metadata
     id="metadata5">
    <rdf:RDF>
      <cc:Work
         rdf:about="">
        <dc:format>image/svg+xml</dc:format>
        <dc:type
           rdf:resource="http://purl.org/dc/dcmitype/StillImage" />
        <dc:title></dc:title>
      </cc:Work>
    </rdf:RDF>
  </metadata>
  <g
     inkscape:label="Layer 1"
     inkscape:groupmode="layer"
     id="layer1"
     transform="translate(0,-267.44789)">
    <g
       style="opacity:0.1"
       id="XMLID_2664_"
       transform="matrix(0.26458333,0,0,0.26458333,-6.6075476,195.85086)">
      <polygon
         style="fill:none"
         points="105,294.6 105,287 94.1,298 98,295.7 "
         id="XMLID_2673_" />
      <polygon
         style="fill:none"
         points="41.5,339.5 42.5,339.2 43.3,337.7 "
         id="XMLID_2935_" />
      <polygon
         style="fill:none;stroke:#efeeee;stroke-width:1.35880005;stroke-miterlimit:10"
         points="137,367.2 199.4,304.8 197.2,302.4 192.9,300.1 119.6,373.4 121.2,373.5 129.2,366.6 "
         stroke-miterlimit="10"
         id="XMLID_2936_" />
      <polygon
         style="fill:none;stroke:#efeeee;stroke-width:1.35880005;stroke-miterlimit:10"
         points="190.2,291.6 109.1,372.7 119.6,373.4 192.9,300.1 192.1,299.7 191.7,293.4 "
         stroke-miterlimit="10"
         id="XMLID_2937_" />
      <polygon
         style="fill:none;stroke:#efeeee;stroke-width:1.35880005;stroke-miterlimit:10"
         points="202.9,312.5 201.5,311.8 201.1,306.7 199.4,304.8 137,367.2 139.4,367.4 143.4,372 "
         stroke-miterlimit="10"
         id="XMLID_2938_" />
      <polygon
         style="fill:none;stroke:#efeeee;stroke-width:1.35880005;stroke-miterlimit:10"
         points="95.2,380.4 107.5,372.6 109.1,372.7 190.2,291.6 189.4,290.7 185.1,289.5 181.6,289 91.3,379.3 "
         stroke-miterlimit="10"
         id="XMLID_2939_" />
      <polygon
         style="fill:none;stroke:#efeeee;stroke-width:1.35880005;stroke-miterlimit:10"
         points="200.4,352.1 208.6,342 208.4,340.6 196.9,352.2 "
         stroke-miterlimit="10"
         id="XMLID_2947_" />
      <polygon
         style="fill:none;stroke:#efeeee;stroke-width:1.35880005;stroke-miterlimit:10"
         points="171.9,287.5 80.8,378.6 85.4,381.5 89.8,378.9 91.3,379.3 181.6,289 "
         stroke-miterlimit="10"
         id="XMLID_2948_" />
      <polygon
         style="fill:none;stroke:#efeeee;stroke-width:1.35880005;stroke-miterlimit:10"
         points="105.2,287 105.8,286.4 105.2,286.4 "
         stroke-miterlimit="10"
         id="XMLID_2949_" />
      <polygon
         style="fill:none;stroke:#efeeee;stroke-width:1.35880005;stroke-miterlimit:10"
         points="204.1,322.6 203.5,320.8 206.2,314.2 202.9,312.5 143.4,372 147.6,376.8 148.9,377.8 "
         stroke-miterlimit="10"
         id="XMLID_2997_" />
      <polygon
         style="fill:none;stroke:#efeeee;stroke-width:1.35880005;stroke-miterlimit:10"
         points="92.6,298.9 87.1,297.3 86.9,305.3 94.1,298 "
         stroke-miterlimit="10"
         id="XMLID_2998_" />
      <polygon
         style="fill:none;stroke:#efeeee;stroke-width:1.35880005;stroke-miterlimit:10"
         points="208.4,340.6 207.6,334.3 206.5,331.3 172.3,365.6 177.5,365.3 183.1,362 183.5,362.2 183.5,362.1 186.8,352.3 196.9,352.2 "
         stroke-miterlimit="10"
         id="XMLID_2999_" />
      <polygon
         style="fill:none;stroke:#efeeee;stroke-width:1.35880005;stroke-miterlimit:10"
         points="167.8,363.8 170.4,365.7 172.3,365.6 206.5,331.3 205.9,329.4 209,324.8 209,324.7 204.6,324.3 204.1,322.6 148.9,377.8 153,381.1 161.7,373.5 162.8,369.8 "
         stroke-miterlimit="10"
         id="XMLID_3000_" />
      <polygon
         style="fill:none;stroke:#efeeee;stroke-miterlimit:10"
         points="168.6,278.1 161.2,279.1 156.5,283.5 153.8,283.5 66.9,370.2 73.9,374.3 169,279.2 "
         stroke-miterlimit="10"
         id="XMLID_3001_" />
      <polygon
         style="fill:none;stroke:#efeeee;stroke-width:1.35880005;stroke-miterlimit:10"
         points="171.9,287.5 171.7,287.5 169,279.2 73.9,374.3 80.8,378.6 "
         stroke-miterlimit="10"
         id="XMLID_3002_" />
      <polygon
         style="fill:none;stroke:#efeeee;stroke-width:1.35880005;stroke-miterlimit:10"
         points="36.2,340.8 26,354.9 41.5,339.5 "
         stroke-miterlimit="10"
         id="XMLID_3003_" />
      <polygon
         style="fill:none;stroke:#efeeee;stroke-miterlimit:10"
         points="46.8,312.5 40.5,328.8 40.9,329 68.5,301.3 67.9,300.1 64.8,297.7 60.1,299.7 57.4,303.2 57,309.6 53.5,312.5 "
         stroke-miterlimit="10"
         id="XMLID_3004_" />
      <polygon
         style="fill:none;stroke:#efeeee;stroke-width:1.35880005;stroke-miterlimit:10"
         points="72,308.9 68.5,301.3 40.9,328.9 44.5,331.4 44.8,334.5 43.3,337.7 "
         stroke-miterlimit="10"
         id="XMLID_3005_" />
      <polygon
         style="fill:none;stroke:#efeeee;stroke-miterlimit:10"
         points="74,318.2 32.6,359.8 37.5,363.5 37.5,366.4 82.7,320.9 77.5,322 "
         stroke-miterlimit="10"
         id="XMLID_3006_" />
      <polygon
         style="fill:none;stroke:#efeeee;stroke-width:1.35880005;stroke-miterlimit:10"
         points="72,308.9 43.3,337.7 42.5,339.2 41.5,339.5 26,354.9 32.3,359.8 73.9,318.2 73.4,317.7 72.6,310.2 "
         stroke-miterlimit="10"
         id="XMLID_3007_" />
      <polygon
         style="fill:none;stroke:#efeeee;stroke-miterlimit:10"
         points="105.5,287 105.5,294.6 98.3,295.7 94.2,298 87,305.3 86.8,310.6 89.1,314.3 115.3,288 114.9,288.4 109.5,286.5 105.8,286.5 "
         stroke-miterlimit="10"
         id="XMLID_3008_" />
      <polygon
         style="fill:none;stroke:#efeeee;stroke-miterlimit:10"
         points="147.4,278.3 145.9,274.5 140,274.5 45.5,369 56.3,369.4 "
         stroke-miterlimit="10"
         id="XMLID_3009_" />
      <polygon
         style="fill:none;stroke:#efeeee;stroke-miterlimit:10"
         points="147.4,278.5 56.3,369.5 66.6,369.8 66.9,370.2 153.8,283.5 149.4,283.5 "
         stroke-miterlimit="10"
         id="XMLID_3010_" />
      <polygon
         style="fill:none;stroke:#efeeee;stroke-miterlimit:10"
         points="89.1,314.4 89.5,315 89.1,320.5 84.8,320.5 82.7,321 37.5,366.4 37.5,368.7 45.8,369 140,274.5 138.8,274.5 137.7,271.8 135.7,275.7 133.4,277.3 128.7,281 125.5,285.5 119.3,285.5 115.3,288.2 "
         stroke-miterlimit="10"
         id="XMLID_3011_" />
    </g>
  </g>
</svg>
