<?xml version="1.0" encoding="UTF-8" standalone="no"?>
<!-- Created with Inkscape (http://www.inkscape.org/) -->

<svg
   xmlns:dc="http://purl.org/dc/elements/1.1/"
   xmlns:cc="http://creativecommons.org/ns#"
   xmlns:rdf="http://www.w3.org/1999/02/22-rdf-syntax-ns#"
   xmlns:svg="http://www.w3.org/2000/svg"
   xmlns="http://www.w3.org/2000/svg"
   xmlns:sodipodi="http://sodipodi.sourceforge.net/DTD/sodipodi-0.dtd"
   xmlns:inkscape="http://www.inkscape.org/namespaces/inkscape"
   width="326.51099"
   height="179.60699"
   viewBox="0 0 86.389362 47.521019"
   version="1.1"
   id="svg8"
   inkscape:version="0.92.2 (5c3e80d, 2017-08-06)"
   sodipodi:docname="10.svg">
  <defs
     id="defs2" />
  <sodipodi:namedview
     id="base"
     pagecolor="#ffffff"
     bordercolor="#666666"
     borderopacity="1.0"
     inkscape:pageopacity="0.0"
     inkscape:pageshadow="2"
     inkscape:zoom="2.8"
     inkscape:cx="186.63294"
     inkscape:cy="72.219001"
     inkscape:document-units="px"
     inkscape:current-layer="layer1"
     showgrid="false"
     units="px"
     inkscape:window-width="1920"
     inkscape:window-height="1027"
     inkscape:window-x="-8"
     inkscape:window-y="-8"
     inkscape:window-maximized="1" />
  <metadata
     id="metadata5">
    <rdf:RDF>
      <cc:Work
         rdf:about="">
        <dc:format>image/svg+xml</dc:format>
        <dc:type
           rdf:resource="http://purl.org/dc/dcmitype/StillImage" />
        <dc:title></dc:title>
      </cc:Work>
    </rdf:RDF>
  </metadata>
  <g
     inkscape:label="Layer 1"
     inkscape:groupmode="layer"
     id="layer1"
     transform="translate(0,-249.47898)">
    <g
       style="opacity:0.1"
       id="XMLID_367_"
       transform="matrix(0.26458333,0,0,0.26458333,-98.218991,165.82008)">
      <polygon
         style="fill:none"
         points="434,401.9 438.6,397.6 442.9,398 446.2,391.9 451.6,387.4 452.2,380.7 459.6,374.4 467.4,367.7 472.4,358 429.3,401.2 "
         id="XMLID_375_" />
      <polygon
         style="fill:none"
         points="481.4,350.3 485,348.2 485,345.9 477.6,353.1 "
         id="XMLID_1429_" />
      <polygon
         style="fill:none"
         points="407.2,412 409.1,411 409.8,409.5 "
         id="XMLID_1430_" />
      <polygon
         style="fill:none"
         points="565.7,343.2 565.5,343.4 "
         id="XMLID_1431_" />
      <polygon
         style="fill:none"
         points="612.6,478.8 611.7,481.9 614.1,485.3 642.7,456.7 641.5,456.6 636.5,458 633.1,458 630.3,459.9 628.4,466 623.2,471.3 620,473.2 620,476.9 "
         id="XMLID_1432_" />
      <polygon
         style="fill:none"
         points="573.6,335.3 575.9,333.9 576.4,332.5 "
         id="XMLID_1433_" />
      <polygon
         style="fill:none"
         points="534.1,355 538,351.6 538,348 531.6,355 "
         id="XMLID_1434_" />
      <polygon
         style="fill:none"
         points="655.4,455.2 652.4,456.2 651.4,459.2 "
         id="XMLID_1435_" />
      <polygon
         style="fill:none;stroke:#efeeee;stroke-miterlimit:10"
         points="550.6,335.9 545.4,339.7 538.5,345.8 538.5,348 "
         stroke-miterlimit="10"
         id="XMLID_1436_" />
      <polygon
         style="fill:none;stroke:#efeeee;stroke-miterlimit:10"
         points="559.1,338.6 558.6,334.1 554.5,333 550.6,335.9 538.5,348 538.5,351.6 534.1,354.5 531.6,354.5 410.1,476.2 417.7,479.8 "
         stroke-miterlimit="10"
         id="XMLID_1437_" />
      <polygon
         style="fill:none;stroke:#efeeee;stroke-miterlimit:10"
         points="409.8,409.5 420.4,398.9 419.3,397.5 415.8,397.5 414.1,400.9 413.7,405.2 410.9,406.9 "
         stroke-miterlimit="10"
         id="XMLID_1438_" />
      <polygon
         style="fill:none;stroke:#efeeee;stroke-width:1.35880005;stroke-miterlimit:10"
         points="576.4,332.5 581.2,327.7 577.9,328 "
         stroke-miterlimit="10"
         id="XMLID_1439_" />
      <polygon
         style="fill:none;stroke:#efeeee;stroke-miterlimit:10"
         points="524.4,351.9 523.4,351.7 402.5,472.7 410.1,476.1 531.6,354.5 527.8,354.5 "
         stroke-miterlimit="10"
         id="XMLID_1440_" />
      <polygon
         style="fill:none;stroke:#efeeee;stroke-width:1.35880005;stroke-miterlimit:10"
         points="565.7,343.2 573.6,335.3 569.9,337.5 "
         stroke-miterlimit="10"
         id="XMLID_1441_" />
      <polygon
         style="fill:none;stroke:#efeeee;stroke-width:1.35880005;stroke-miterlimit:10"
         points="559.1,338.6 417.7,479.9 420,481 424.4,484.5 565.5,343.4 559.5,342.7 "
         stroke-miterlimit="10"
         id="XMLID_1442_" />
      <polygon
         style="fill:none;stroke:#efeeee;stroke-width:1.35880005;stroke-miterlimit:10"
         points="651.4,459.2 651.1,459.5 651.3,459.6 "
         stroke-miterlimit="10"
         id="XMLID_1443_" />
      <polygon
         style="fill:none;stroke:#efeeee;stroke-miterlimit:10"
         points="404.2,419.4 400.5,420.1 400.5,425.1 402.6,428 429.4,401.2 421.2,399.9 420.4,398.8 409.8,409.5 409.1,411 407.2,412 405.2,414 404.6,416.6 "
         stroke-miterlimit="10"
         id="XMLID_1444_" />
      <polygon
         style="fill:none;stroke:#efeeee;stroke-width:1.35880005;stroke-miterlimit:10"
         points="405.2,414 407.2,412 405.4,412.9 "
         stroke-miterlimit="10"
         id="XMLID_1445_" />
      <polygon
         style="fill:none;stroke:#efeeee;stroke-width:1.35880005;stroke-miterlimit:10"
         points="472.4,358 477.4,353.1 473.5,356 "
         stroke-miterlimit="10"
         id="XMLID_1446_" />
      <polygon
         style="fill:none;stroke:#efeeee;stroke-miterlimit:10"
         points="483.5,342.5 483.5,342.6 484.5,342.5 484.5,345.9 495.3,335.5 492.1,335.5 491.2,337.5 487.8,341.1 "
         stroke-miterlimit="10"
         id="XMLID_1447_" />
      <polygon
         style="fill:none;stroke:#efeeee;stroke-miterlimit:10"
         points="446.2,391.9 442.9,398 438.6,397.6 434,401.9 429.3,401.2 402.4,428 403.7,429.6 404.1,433.1 393.1,441.3 389.6,443.5 383.6,447.8 378.6,450 371.9,455.5 372.9,456.9 377.7,457.6 384.4,464.3 394.9,469.2 515,349 514.2,345.6 508.1,344.7 391.4,461.4 508.1,344.7 504.4,344.3 501.5,340.1 391.4,450.2 501.5,340.3 497.9,335.5 495.3,335.5 484.5,345.9 484.5,348.2 481,350.3 477.4,353.1 472.4,358 467.4,367.7 459.6,374.4 452.2,380.7 451.6,387.4 "
         stroke-miterlimit="10"
         id="XMLID_1448_" />
      <polygon
         style="fill:none;stroke:#efeeee;stroke-miterlimit:10"
         points="402.5,472.7 523.4,351.8 519.8,350.9 519.6,352.5 515.9,352.5 515,348.9 394.9,469.1 "
         stroke-miterlimit="10"
         id="XMLID_1449_" />
      <polygon
         style="fill:none;stroke:#efeeee;stroke-width:1.35880005;stroke-miterlimit:10"
         points="612.1,487.3 612.4,487.3 614.4,485.8 614.1,485.3 "
         stroke-miterlimit="10"
         id="XMLID_1450_" />
      <polygon
         style="fill:none;stroke:#efeeee;stroke-miterlimit:10"
         points="673.3,457.6 677,454.8 677.8,455.2 690.4,442.6 677.8,455.2 680.9,456.5 684.8,456.2 688.1,457.6 693.2,456.5 694.3,456.1 694,452.8 693.8,444.6 692.5,443.3 694,438.7 696.1,438.3 693.7,437.2 694.9,438.1 693.7,437.2 692.3,436.6 692,436.8 690,439 689.8,439.1 689.7,439.1 686.6,439.6 683.4,442.5 682.8,442.5 682.3,443.2 680.4,441.3 667.5,454.2 670,455.6 "
         stroke-miterlimit="10"
         id="XMLID_1451_" />
      <polygon
         style="fill:none;stroke:#efeeee;stroke-miterlimit:10"
         points="673.5,357.5 673.5,351.3 673.8,351.1 673.8,350.8 676.5,348.3 678,346.7 683.4,341.8 684,341.2 684.1,341.2 684.3,341 682.5,338.4 528.4,492.6 539.6,492.5 673.5,358.5 673.5,358 673.5,357.9 "
         stroke-miterlimit="10"
         id="XMLID_1452_" />
      <polygon
         style="fill:none;stroke:#efeeee;stroke-miterlimit:10"
         points="678.2,367.1 677.2,366.2 551.7,491.7 563.7,490.8 676.6,378.2 676.5,377.5 676.5,374.6 680,369.4 "
         stroke-miterlimit="10"
         id="XMLID_1453_" />
      <polygon
         style="fill:none;stroke:#efeeee;stroke-width:1.35880005;stroke-miterlimit:10"
         points="584.4,327.4 581.2,327.7 576.4,332.5 575.9,333.9 573.6,335.3 565.7,343.2 565.5,343.4 424.4,484.5 430.6,489.5 601,319 599.2,317.1 595.9,319.6 591.5,320.2 586.8,322.8 "
         stroke-miterlimit="10"
         id="XMLID_1454_" />
      <polygon
         style="fill:none;stroke:#efeeee;stroke-miterlimit:10"
         points="673.5,358.5 539.6,492.5 541.7,492.4 551.6,491.7 677.2,366.2 675.2,364 674.4,361.1 673.5,359.1 "
         stroke-miterlimit="10"
         id="XMLID_1455_" />
      <polygon
         style="fill:none;stroke:#efeeee;stroke-miterlimit:10"
         points="675.4,397.1 675.3,396.9 678.1,395.9 678.5,395.8 680.1,394.4 681.1,393.2 682.8,388.6 680,385.8 575.8,490 587.9,489.1 675.9,401.1 675.6,400.8 675.8,400.6 675.5,400 675.5,397.1 "
         stroke-miterlimit="10"
         id="XMLID_1456_" />
      <polygon
         style="fill:none;stroke:#efeeee;stroke-width:1.35880005;stroke-miterlimit:10"
         points="651.1,459.5 651.4,459.2 652.4,456.2 655.4,455.2 680.8,429.8 681,418.4 642.7,456.7 648.5,457.9 "
         stroke-miterlimit="10"
         id="XMLID_1457_" />
      <polygon
         style="fill:none;stroke:#efeeee;stroke-width:1.35880005;stroke-miterlimit:10"
         points="680.9,407.3 680.4,406.9 675.9,401.1 587.9,489.1 600,488.2 "
         stroke-miterlimit="10"
         id="XMLID_1458_" />
      <polygon
         style="fill:none;stroke:#efeeee;stroke-miterlimit:10"
         points="680.8,429.8 655.4,455.2 656.6,454.8 661.6,454.3 665.5,453.1 667.5,454.3 680.4,441.4 679.9,440.9 677.5,438.7 677.5,438.4 677.3,438.2 677,433.9 680.8,432.2 "
         stroke-miterlimit="10"
         id="XMLID_1459_" />
      <polygon
         style="fill:none;stroke:#efeeee;stroke-miterlimit:10"
         points="681.1,418.4 681.2,416.8 681.5,416.7 681.5,416.5 685.8,411.3 681,407.3 600,488.2 612.1,487.3 614.1,485.3 611.7,481.9 612.4,478.8 619.5,476.9 619.5,473.2 623,471.3 628.3,466 630.3,459.7 633.1,457.5 636.5,457.5 641.5,456.3 642.7,456.6 "
         stroke-miterlimit="10"
         id="XMLID_1460_" />
      <polygon
         style="fill:none;stroke:#efeeee;stroke-width:1.35880005;stroke-miterlimit:10"
         points="676.6,378.7 676.4,378.2 563.7,490.8 575.8,490 680,385.8 678.4,384.1 678.2,383.4 676.7,380 "
         stroke-miterlimit="10"
         id="XMLID_1461_" />
      <polygon
         style="fill:none;stroke:#efeeee;stroke-miterlimit:10"
         points="470.6,494.4 625.6,339.4 622.5,337.5 618.8,337.5 617.7,336.1 464.7,489 464.8,489 "
         stroke-miterlimit="10"
         id="XMLID_1462_" />
      <polygon
         style="fill:none;stroke:#efeeee;stroke-width:1.35880005;stroke-miterlimit:10"
         points="608.8,333.7 604.1,333.4 602,329.3 440.6,490.7 451.6,490.9 "
         stroke-miterlimit="10"
         id="XMLID_1463_" />
      <polygon
         style="fill:none;stroke:#efeeee;stroke-width:1.35880005;stroke-miterlimit:10"
         points="464.7,489 617.7,336 616,334.1 608.8,333.7 451.6,490.9 453.8,490.9 455.7,489.2 "
         stroke-miterlimit="10"
         id="XMLID_1464_" />
      <polygon
         style="fill:none;stroke:#efeeee;stroke-miterlimit:10"
         points="601.5,326.3 605.1,323.7 601.9,320 601,319 430.6,489.5 431.9,490.5 440.6,490.7 601.8,329.3 601.5,328.9 "
         stroke-miterlimit="10"
         id="XMLID_1465_" />
      <polygon
         style="fill:none;stroke:#efeeee;stroke-width:1.35880005;stroke-miterlimit:10"
         points="528.4,492.6 682.5,338.4 680.8,335.8 681.7,330.4 680.3,329.5 516.1,493.7 518.7,492.7 "
         stroke-miterlimit="10"
         id="XMLID_1466_" />
      <polygon
         style="fill:none;stroke:#efeeee;stroke-miterlimit:10"
         points="650.5,342.8 645.2,342.2 492.6,494.7 504,494.5 671.1,327.6 669.8,326.5 664.5,326.5 659.6,337.9 "
         stroke-miterlimit="10"
         id="XMLID_1467_" />
      <polygon
         style="fill:none;stroke:#efeeee;stroke-width:1.35880005;stroke-miterlimit:10"
         points="470.6,494.4 471.1,494.8 471,495.1 481.2,494.9 627.4,348.7 628.6,346.6 627.7,340.6 625.6,339.3 "
         stroke-miterlimit="10"
         id="XMLID_1468_" />
      <polygon
         style="fill:none;stroke:#efeeee;stroke-width:1.35880005;stroke-miterlimit:10"
         points="671.7,328 671.1,327.5 504,494.5 512.2,494.4 512.4,495.1 512.5,495.1 516.1,493.7 680.3,329.5 678.6,328.4 "
         stroke-miterlimit="10"
         id="XMLID_1469_" />
      <polygon
         style="fill:none;stroke:#efeeee;stroke-width:1.35880005;stroke-miterlimit:10"
         points="640.1,344.7 635.3,345.8 630.1,352.3 626,351.2 627.4,348.7 481.2,494.9 492.6,494.7 645.2,342.1 644.8,342.1 "
         stroke-miterlimit="10"
         id="XMLID_1470_" />
    </g>
  </g>
</svg>
