<?xml version="1.0" encoding="UTF-8" standalone="no"?>
<!-- Created with Inkscape (http://www.inkscape.org/) -->

<svg
   xmlns:dc="http://purl.org/dc/elements/1.1/"
   xmlns:cc="http://creativecommons.org/ns#"
   xmlns:rdf="http://www.w3.org/1999/02/22-rdf-syntax-ns#"
   xmlns:svg="http://www.w3.org/2000/svg"
   xmlns="http://www.w3.org/2000/svg"
   xmlns:sodipodi="http://sodipodi.sourceforge.net/DTD/sodipodi-0.dtd"
   xmlns:inkscape="http://www.inkscape.org/namespaces/inkscape"
   width="119.893"
   height="174.778"
   viewBox="0 0 31.721688 46.243347"
   version="1.1"
   id="svg8"
   inkscape:version="0.92.2 (5c3e80d, 2017-08-06)"
   sodipodi:docname="11.svg">
  <defs
     id="defs2" />
  <sodipodi:namedview
     id="base"
     pagecolor="#ffffff"
     bordercolor="#666666"
     borderopacity="1.0"
     inkscape:pageopacity="0.0"
     inkscape:pageshadow="2"
     inkscape:zoom="2.8"
     inkscape:cx="186.63294"
     inkscape:cy="72.219001"
     inkscape:document-units="px"
     inkscape:current-layer="layer1"
     showgrid="false"
     units="px"
     inkscape:window-width="1920"
     inkscape:window-height="1027"
     inkscape:window-x="-8"
     inkscape:window-y="-8"
     inkscape:window-maximized="1" />
  <metadata
     id="metadata5">
    <rdf:RDF>
      <cc:Work
         rdf:about="">
        <dc:format>image/svg+xml</dc:format>
        <dc:type
           rdf:resource="http://purl.org/dc/dcmitype/StillImage" />
        <dc:title></dc:title>
      </cc:Work>
    </rdf:RDF>
  </metadata>
  <g
     inkscape:label="Layer 1"
     inkscape:groupmode="layer"
     id="layer1"
     transform="translate(0,-250.75665)">
    <g
       style="opacity:0.1"
       id="XMLID_2327_"
       transform="matrix(0.26458333,0,0,0.26458333,-116.01278,120.25833)">
      <polygon
         style="fill:none"
         points="532,632 525.5,633.8 520.3,639.2 516,641.6 512.1,646.7 508.6,651.4 504.3,656.1 503,657.7 503,661.1 "
         id="XMLID_2358_" />
      <polygon
         style="fill:none"
         points="481.9,583.9 480.9,582.1 472.5,590.4 474.8,588.6 481.8,583.9 "
         id="XMLID_2360_" />
      <polygon
         style="fill:none;stroke:#efeeee;stroke-width:1.35880005;stroke-miterlimit:10"
         points="527,580.8 457.6,650.1 469.3,649.7 534.6,584.4 532.4,580.8 527.4,581.3 "
         stroke-miterlimit="10"
         id="XMLID_2361_" />
      <polygon
         style="fill:none;stroke:#efeeee;stroke-width:1.35880005;stroke-miterlimit:10"
         points="457.6,650.1 527,580.8 521.8,574.8 454.5,642.1 456.1,650.2 "
         stroke-miterlimit="10"
         id="XMLID_2362_" />
      <polygon
         style="fill:none;stroke:#efeeee;stroke-width:1.35880005;stroke-miterlimit:10"
         points="454.5,642.1 521.8,574.8 522,571.7 524.9,560.5 452.6,632.8 "
         stroke-miterlimit="10"
         id="XMLID_2363_" />
      <polygon
         style="fill:none;stroke:#efeeee;stroke-width:1.35880005;stroke-miterlimit:10"
         points="527.7,546.4 450.7,623.4 452.6,632.8 524.9,560.5 525.5,558.3 527.8,555.5 "
         stroke-miterlimit="10"
         id="XMLID_2364_" />
      <polygon
         style="fill:none;stroke:#efeeee;stroke-width:1.35880005;stroke-miterlimit:10"
         points="534.6,584.4 469.3,649.7 476.5,649.4 481.6,648.6 538.7,591.5 538.7,590.8 "
         stroke-miterlimit="10"
         id="XMLID_2365_" />
      <polygon
         style="fill:none;stroke:#efeeee;stroke-miterlimit:10"
         points="557.8,612.5 557.7,612.5 553.6,610.1 531.9,631.9 535.2,631 541.1,623.2 545,618.9 550.5,622 552.4,616.1 557.5,614.9 "
         stroke-miterlimit="10"
         id="XMLID_2366_" />
      <polygon
         style="fill:none;stroke:#efeeee;stroke-width:1.35880005;stroke-miterlimit:10"
         points="488.7,652.7 541.3,600.1 538.5,597.1 538.7,591.5 481.6,648.6 483.5,648.2 487.2,651.4 "
         stroke-miterlimit="10"
         id="XMLID_2367_" />
      <polygon
         style="fill:none;stroke:#efeeee;stroke-miterlimit:10"
         points="496.4,667.5 502.5,661.1 502.5,657.7 504,656.1 508.5,651.4 512.1,646.7 516,641.6 520.3,639.2 525.4,633.8 531.9,632 553.6,610.2 547.3,606.4 546.8,605.8 490.5,662.2 496,667.5 "
         stroke-miterlimit="10"
         id="XMLID_2368_" />
      <polygon
         style="fill:none;stroke:#efeeee;stroke-width:1.35880005;stroke-miterlimit:10"
         points="541.3,600.1 488.7,652.7 491.3,654.9 488.6,660.4 490.5,662.1 546.8,605.8 "
         stroke-miterlimit="10"
         id="XMLID_2369_" />
      <polygon
         style="fill:none;stroke:#efeeee;stroke-miterlimit:10"
         points="502.5,661.1 496.4,667.5 502.5,667.5 "
         stroke-miterlimit="10"
         id="XMLID_2370_" />
      <polygon
         style="fill:none;stroke:#efeeee;stroke-width:1.35880005;stroke-miterlimit:10"
         points="501.1,494.6 473.5,522.2 474.8,523.9 475,531.9 512.3,494.6 512.2,494.4 "
         stroke-miterlimit="10"
         id="XMLID_2371_" />
      <polygon
         style="fill:none;stroke:#efeeee;stroke-width:1.35880005;stroke-miterlimit:10"
         points="473.5,522.2 501.1,494.6 489.7,494.8 468.8,515.7 "
         stroke-miterlimit="10"
         id="XMLID_2372_" />
      <polygon
         style="fill:none;stroke:#efeeee;stroke-width:1.35880005;stroke-miterlimit:10"
         points="439.9,612.2 439.2,622 440.8,622.1 472.5,590.4 469.4,593 462.6,595.4 456.1,599.7 448.3,606 445.3,608.8 440.1,612.3 "
         stroke-miterlimit="10"
         id="XMLID_2373_" />
      <polygon
         style="fill:none;stroke:#efeeee;stroke-width:1.35880005;stroke-miterlimit:10"
         points="470.2,503.1 478.4,494.9 471,495.1 "
         stroke-miterlimit="10"
         id="XMLID_2374_" />
      <polygon
         style="fill:none;stroke:#efeeee;stroke-width:1.35880005;stroke-miterlimit:10"
         points="512.3,494.6 475,531.9 475.3,542.8 514.6,503.5 513.3,500.5 512.4,495.1 "
         stroke-miterlimit="10"
         id="XMLID_2377_" />
      <polygon
         style="fill:none;stroke:#efeeee;stroke-width:1.35880005;stroke-miterlimit:10"
         points="489.7,494.8 478.4,494.9 470.2,503.1 469.4,510.4 467.6,514.1 468.8,515.7 "
         stroke-miterlimit="10"
         id="XMLID_2378_" />
      <polygon
         style="fill:none;stroke:#efeeee;stroke-width:1.35880005;stroke-miterlimit:10"
         points="524.7,527.1 484.7,567.1 484.7,569.1 477.8,576.7 480.9,582.1 527.6,535.4 "
         stroke-miterlimit="10"
         id="XMLID_2379_" />
      <polygon
         style="fill:none;stroke:#efeeee;stroke-width:1.35880005;stroke-miterlimit:10"
         points="450.6,622.8 450.7,623.4 527.7,546.4 527.6,535.6 527.6,535.4 480.9,582.1 481.9,583.9 481.8,583.9 474.8,588.6 472.5,590.4 440.8,622.1 "
         stroke-miterlimit="10"
         id="XMLID_2382_" />
      <polygon
         style="fill:none;stroke:#efeeee;stroke-width:1.35880005;stroke-miterlimit:10"
         points="479.3,550 518,511.3 514.6,503.5 475.3,542.8 475.4,546.6 "
         stroke-miterlimit="10"
         id="XMLID_2385_" />
      <polygon
         style="fill:none;stroke:#efeeee;stroke-width:1.35880005;stroke-miterlimit:10"
         points="484.7,567.1 524.7,527.1 523.9,524.9 521.4,519.1 485.4,555.2 486.2,555.9 484.5,562 "
         stroke-miterlimit="10"
         id="XMLID_2386_" />
      <polygon
         style="fill:none;stroke:#efeeee;stroke-width:1.35880005;stroke-miterlimit:10"
         points="485.4,555.2 521.4,519.1 518,511.3 479.3,550 "
         stroke-miterlimit="10"
         id="XMLID_2387_" />
    </g>
  </g>
</svg>
