<?xml version="1.0" encoding="UTF-8" standalone="no"?>
<!-- Created with Inkscape (http://www.inkscape.org/) -->

<svg
   xmlns:dc="http://purl.org/dc/elements/1.1/"
   xmlns:cc="http://creativecommons.org/ns#"
   xmlns:rdf="http://www.w3.org/1999/02/22-rdf-syntax-ns#"
   xmlns:svg="http://www.w3.org/2000/svg"
   xmlns="http://www.w3.org/2000/svg"
   xmlns:sodipodi="http://sodipodi.sourceforge.net/DTD/sodipodi-0.dtd"
   xmlns:inkscape="http://www.inkscape.org/namespaces/inkscape"
   width="155.005"
   height="126.5"
   viewBox="0 0 41.01174 33.469793"
   version="1.1"
   id="svg8"
   inkscape:version="0.92.2 (5c3e80d, 2017-08-06)"
   sodipodi:docname="12.svg">
  <defs
     id="defs2" />
  <sodipodi:namedview
     id="base"
     pagecolor="#ffffff"
     bordercolor="#666666"
     borderopacity="1.0"
     inkscape:pageopacity="0.0"
     inkscape:pageshadow="2"
     inkscape:zoom="2.8"
     inkscape:cx="186.63294"
     inkscape:cy="72.219001"
     inkscape:document-units="px"
     inkscape:current-layer="layer1"
     showgrid="false"
     units="px"
     inkscape:window-width="1920"
     inkscape:window-height="1027"
     inkscape:window-x="-8"
     inkscape:window-y="-8"
     inkscape:window-maximized="1" />
  <metadata
     id="metadata5">
    <rdf:RDF>
      <cc:Work
         rdf:about="">
        <dc:format>image/svg+xml</dc:format>
        <dc:type
           rdf:resource="http://purl.org/dc/dcmitype/StillImage" />
        <dc:title></dc:title>
      </cc:Work>
    </rdf:RDF>
  </metadata>
  <g
     inkscape:label="Layer 1"
     inkscape:groupmode="layer"
     id="layer1"
     transform="translate(0,-263.5302)">
    <g
       style="opacity:0.1"
       id="XMLID_2151_"
       transform="matrix(0.26458333,0,0,0.26458333,-135.3603,134.81041)">
      <polygon
         style="fill:none"
         points="567.8,593.7 562.6,594.2 562.3,599.2 "
         id="XMLID_2152_" />
      <polygon
         style="fill:none"
         points="617.7,588.7 632.5,574 631.5,574 625.7,577.8 620.2,580.5 617.8,587.6 "
         id="XMLID_2328_" />
      <polygon
         style="fill:none"
         points="617.7,588.7 616.7,595.4 618.2,599.3 641,576.6 640.9,576.7 635.8,574 632.5,574 "
         id="XMLID_2329_" />
      <polygon
         style="fill:none;stroke:#efeeee;stroke-miterlimit:10"
         points="625.7,577.6 631.5,573.5 632.5,573.5 655.3,550.9 653.4,541.7 599.9,595.2 604.5,598.5 607.6,598.7 617.7,588.6 617.8,587.5 620.2,580.5 "
         stroke-miterlimit="10"
         id="XMLID_2331_" />
      <polygon
         style="fill:none;stroke:#efeeee;stroke-width:1.35880005;stroke-miterlimit:10"
         points="580.7,592 638.5,534.2 635.9,533 634.8,526.7 567.8,593.7 570.8,593.4 577.1,591.8 "
         stroke-miterlimit="10"
         id="XMLID_2332_" />
      <polygon
         style="fill:none;stroke:#efeeee;stroke-miterlimit:10"
         points="557.5,611 557.5,604.4 562,600.1 562.2,599.2 552.1,609.2 557.7,612.5 557.8,612.5 "
         stroke-miterlimit="10"
         id="XMLID_2333_" />
      <polygon
         style="fill:none;stroke:#efeeee;stroke-miterlimit:10"
         points="641,576.5 657.9,559.6 656.5,557 655.3,550.9 632.5,573.5 635.8,573.5 640.9,576.4 "
         stroke-miterlimit="10"
         id="XMLID_2334_" />
      <polygon
         style="fill:none;stroke:#efeeee;stroke-miterlimit:10"
         points="599.9,595.2 653.4,541.7 653.3,541.4 646,537.9 590.2,593.7 593.2,594.5 599,594.5 "
         stroke-miterlimit="10"
         id="XMLID_2335_" />
      <polygon
         style="fill:none;stroke:#efeeee;stroke-width:1.35880005;stroke-miterlimit:10"
         points="590.2,593.7 646,537.9 638.5,534.2 580.7,592 584.9,592.2 "
         stroke-miterlimit="10"
         id="XMLID_2336_" />
      <polygon
         style="fill:none;stroke:#efeeee;stroke-miterlimit:10"
         points="665.9,583.5 666.1,574.5 665.8,574 656.3,583.5 "
         stroke-miterlimit="10"
         id="XMLID_2337_" />
      <polygon
         style="fill:none;stroke:#efeeee;stroke-miterlimit:10"
         points="661.8,566.9 648,580.6 654.7,583.5 656.3,583.5 665.8,574.1 663.7,570.4 "
         stroke-miterlimit="10"
         id="XMLID_2338_" />
      <polygon
         style="fill:none;stroke:#efeeee;stroke-width:1.35880005;stroke-miterlimit:10"
         points="615.5,602.4 619,601.2 618.2,599.3 615.3,602.3 "
         stroke-miterlimit="10"
         id="XMLID_2339_" />
      <polygon
         style="fill:none;stroke:#efeeee;stroke-width:1.35880005;stroke-miterlimit:10"
         points="648,580.7 661.8,566.9 657.9,559.6 641,576.6 647.6,580.5 "
         stroke-miterlimit="10"
         id="XMLID_2340_" />
      <polygon
         style="fill:none;stroke:#efeeee;stroke-width:1.35880005;stroke-miterlimit:10"
         points="618.2,599.3 616.7,595.4 617.7,588.6 607.6,598.7 610.8,598.9 615.3,602.3 "
         stroke-miterlimit="10"
         id="XMLID_2341_" />
      <polygon
         style="fill:none;stroke:#efeeee;stroke-width:1.35880005;stroke-miterlimit:10"
         points="527.8,555.2 594.4,488.6 582.3,489.5 527.7,544.1 "
         stroke-miterlimit="10"
         id="XMLID_2342_" />
      <polygon
         style="fill:none;stroke:#efeeee;stroke-width:1.35880005;stroke-miterlimit:10"
         points="524.1,525.3 558.2,491.2 546.1,492.1 520.7,517.5 523.9,524.9 "
         stroke-miterlimit="10"
         id="XMLID_2343_" />
      <polygon
         style="fill:none;stroke:#efeeee;stroke-width:1.35880005;stroke-miterlimit:10"
         points="629,521.3 545.6,604.6 547.3,606.4 552.2,609.3 562.3,599.2 562.6,594.2 567.8,593.7 634.8,526.7 634.7,526.2 "
         stroke-miterlimit="10"
         id="XMLID_2344_" />
      <polygon
         style="fill:none;stroke:#efeeee;stroke-width:1.35880005;stroke-miterlimit:10"
         points="546.1,492.1 541.7,492.4 534.5,492.5 517.3,509.7 520.7,517.5 "
         stroke-miterlimit="10"
         id="XMLID_2345_" />
      <polygon
         style="fill:none;stroke:#efeeee;stroke-width:1.35880005;stroke-miterlimit:10"
         points="527,533.7 570.3,490.4 558.2,491.2 524.1,525.3 "
         stroke-miterlimit="10"
         id="XMLID_2346_" />
      <polygon
         style="fill:none;stroke:#efeeee;stroke-width:1.35880005;stroke-miterlimit:10"
         points="513.9,501.9 517.3,509.7 534.5,492.5 523.2,492.6 "
         stroke-miterlimit="10"
         id="XMLID_2347_" />
      <polygon
         style="fill:none;stroke:#efeeee;stroke-width:1.35880005;stroke-miterlimit:10"
         points="513.9,501.9 523.2,492.6 518.7,492.7 512.5,495.1 512.4,495.1 513.3,500.5 "
         stroke-miterlimit="10"
         id="XMLID_2350_" />
      <polygon
         style="fill:none;stroke:#efeeee;stroke-width:1.35880005;stroke-miterlimit:10"
         points="527.7,544.1 582.3,489.5 570.3,490.4 527,533.7 527.6,535.6 "
         stroke-miterlimit="10"
         id="XMLID_2351_" />
      <polygon
         style="fill:none;stroke:#efeeee;stroke-width:1.35880005;stroke-miterlimit:10"
         points="619.3,508.5 538.1,589.8 538.7,590.8 538.5,597.1 540.2,598.9 623.9,515.2 623.2,514.1 622.3,510.6 621.4,509 "
         stroke-miterlimit="10"
         id="XMLID_2352_" />
      <polygon
         style="fill:none;stroke:#efeeee;stroke-width:1.35880005;stroke-miterlimit:10"
         points="629,521.3 626.4,519.1 623.9,515.2 540.2,598.9 545.6,604.6 "
         stroke-miterlimit="10"
         id="XMLID_2353_" />
      <polygon
         style="fill:none;stroke:#efeeee;stroke-width:1.35880005;stroke-miterlimit:10"
         points="614.4,502.2 533.7,582.9 538.1,589.8 619.3,508.5 618.6,508.4 615.6,503.4 "
         stroke-miterlimit="10"
         id="XMLID_2354_" />
      <polygon
         style="fill:none;stroke:#efeeee;stroke-width:1.35880005;stroke-miterlimit:10"
         points="522,571.7 522,572.3 606.5,487.7 594.4,488.6 527.8,555.2 527.8,555.5 525.5,558.3 "
         stroke-miterlimit="10"
         id="XMLID_2355_" />
      <polygon
         style="fill:none;stroke:#efeeee;stroke-width:1.35880005;stroke-miterlimit:10"
         points="606.5,487.7 522,572.3 521.8,574.8 525.9,579.5 609.1,496.3 610,494.2 609.1,491.4 612.2,487.5 612.4,487.3 "
         stroke-miterlimit="10"
         id="XMLID_2356_" />
      <polygon
         style="fill:none;stroke:#efeeee;stroke-width:1.35880005;stroke-miterlimit:10"
         points="527.4,581.3 532.4,580.8 533.7,582.9 614.4,502.2 611.9,499.8 608.3,498.4 609.1,496.3 525.9,579.5 "
         stroke-miterlimit="10"
         id="XMLID_2357_" />
    </g>
  </g>
</svg>
