<?xml version="1.0" encoding="UTF-8" standalone="no"?>
<!-- Created with Inkscape (http://www.inkscape.org/) -->

<svg
   xmlns:dc="http://purl.org/dc/elements/1.1/"
   xmlns:cc="http://creativecommons.org/ns#"
   xmlns:rdf="http://www.w3.org/1999/02/22-rdf-syntax-ns#"
   xmlns:svg="http://www.w3.org/2000/svg"
   xmlns="http://www.w3.org/2000/svg"
   xmlns:sodipodi="http://sodipodi.sourceforge.net/DTD/sodipodi-0.dtd"
   xmlns:inkscape="http://www.inkscape.org/namespaces/inkscape"
   width="121.811"
   height="146.80099"
   viewBox="0 0 32.229159 38.841098"
   version="1.1"
   id="svg8"
   inkscape:version="0.92.2 (5c3e80d, 2017-08-06)"
   sodipodi:docname="13.svg">
  <defs
     id="defs2" />
  <sodipodi:namedview
     id="base"
     pagecolor="#ffffff"
     bordercolor="#666666"
     borderopacity="1.0"
     inkscape:pageopacity="0.0"
     inkscape:pageshadow="2"
     inkscape:zoom="2.8"
     inkscape:cx="186.63294"
     inkscape:cy="72.219001"
     inkscape:document-units="px"
     inkscape:current-layer="layer1"
     showgrid="false"
     units="px"
     inkscape:window-width="1920"
     inkscape:window-height="1027"
     inkscape:window-x="-8"
     inkscape:window-y="-8"
     inkscape:window-maximized="1" />
  <metadata
     id="metadata5">
    <rdf:RDF>
      <cc:Work
         rdf:about="">
        <dc:format>image/svg+xml</dc:format>
        <dc:type
           rdf:resource="http://purl.org/dc/dcmitype/StillImage" />
        <dc:title></dc:title>
      </cc:Work>
    </rdf:RDF>
  </metadata>
  <g
     inkscape:label="Layer 1"
     inkscape:groupmode="layer"
     id="layer1"
     transform="translate(0,-258.15889)">
    <g
       style="opacity:0.1"
       id="XMLID_2686_"
       transform="matrix(0.26458334,0,0,0.26458334,-154.49566,203.63835)">
      <polygon
         style="fill:none"
         points="596.1,262.4 596.2,260.9 594.4,262.7 "
         id="XMLID_2876_" />
      <polygon
         style="fill:none"
         points="605.7,242.5 606.4,239.4 603.8,242.1 "
         id="XMLID_2877_" />
      <polygon
         style="fill:none"
         points="664.5,326.3 664,327.6 665.3,326.3 "
         id="XMLID_2878_" />
      <polygon
         style="fill:none"
         points="614,231.9 616.7,230.7 620.2,229.2 624.5,221.4 "
         id="XMLID_2879_" />
      <polygon
         style="fill:none;stroke:#efeeee;stroke-miterlimit:10"
         points="671.7,328.1 674.6,328.2 690.9,312.1 690.5,311.5 690.5,311.1 689.5,311 689.5,305.2 694.3,301.6 694.7,301.4 703.4,291.8 704.3,287.3 665.3,326.5 669.8,326.5 "
         stroke-miterlimit="10"
         id="XMLID_2880_" />
      <polygon
         style="fill:none;stroke:#efeeee;stroke-width:1.35880005;stroke-miterlimit:10"
         points="628.5,351.9 701.8,278.5 697,272.1 627.8,341.3 628.6,346.6 626,351.2 "
         stroke-miterlimit="10"
         id="XMLID_2881_" />
      <polygon
         style="fill:none;stroke:#efeeee;stroke-miterlimit:10"
         points="640.1,344.7 644.8,342.1 649,342.6 664,327.7 664.5,326.5 665.3,326.5 704.4,287.3 705.2,283.1 701.8,278.5 628.5,351.9 630.1,352.3 635.3,345.8 "
         stroke-miterlimit="10"
         id="XMLID_2882_" />
      <polygon
         style="fill:none;stroke:#efeeee;stroke-width:1.35880005;stroke-miterlimit:10"
         points="664,327.6 649,342.6 650.5,342.7 659.6,337.8 "
         stroke-miterlimit="10"
         id="XMLID_2883_" />
      <polygon
         style="fill:none;stroke:#efeeee;stroke-width:1.35880005;stroke-miterlimit:10"
         points="606.4,239.4 614,231.9 613.9,231.9 607.3,235.8 "
         stroke-miterlimit="10"
         id="XMLID_2884_" />
      <polygon
         style="fill:none;stroke:#efeeee;stroke-width:1.35880005;stroke-miterlimit:10"
         points="624.5,221.3 624.5,221.4 "
         stroke-miterlimit="10"
         id="XMLID_2885_" />
      <polygon
         style="fill:none;stroke:#efeeee;stroke-miterlimit:10"
         points="627.8,341.4 697,272.1 692.3,265.8 620.6,337.5 622.5,337.5 627.7,340.7 "
         stroke-miterlimit="10"
         id="XMLID_2886_" />
      <polygon
         style="fill:none;stroke:#efeeee;stroke-width:1.35880005;stroke-miterlimit:10"
         points="678.6,328.4 681.7,330.4 681.3,332.7 696.2,317.8 695.9,317.5 690.7,312.1 674.6,328.2 "
         stroke-miterlimit="10"
         id="XMLID_2887_" />
      <polygon
         style="fill:none;stroke:#efeeee;stroke-width:1.35880005;stroke-miterlimit:10"
         points="700.9,336.2 701.5,335.3 702,334.4 693.9,342.5 698.2,342 699,340.3 "
         stroke-miterlimit="10"
         id="XMLID_2888_" />
      <polygon
         style="fill:none;stroke:#efeeee;stroke-miterlimit:10"
         points="701.5,323.8 684.3,340.9 684.3,341 684.4,340.9 686.9,343.1 687.1,343.2 690.2,342.9 693.9,342.5 702,334.4 702,334.3 702.5,333.8 703.3,332.6 703.1,330.1 702.9,328.3 701.5,326.7 "
         stroke-miterlimit="10"
         id="XMLID_2889_" />
      <polygon
         style="fill:none;stroke:#efeeee;stroke-miterlimit:10"
         points="701.5,323.8 701.5,323 696.3,317.8 681.3,332.7 680.8,335.8 684.3,340.9 "
         stroke-miterlimit="10"
         id="XMLID_2890_" />
      <polygon
         style="fill:none;stroke:#efeeee;stroke-width:1.35880005;stroke-miterlimit:10"
         points="600,279.5 599.8,290.1 598.7,292 659.3,231.3 652.1,227.4 "
         stroke-miterlimit="10"
         id="XMLID_2891_" />
      <polygon
         style="fill:none;stroke:#efeeee;stroke-width:1.35880005;stroke-miterlimit:10"
         points="652.1,227.4 645.3,223.7 645,223.3 596.9,271.4 600,278.8 600,279.5 "
         stroke-miterlimit="10"
         id="XMLID_2892_" />
      <polygon
         style="fill:none;stroke:#efeeee;stroke-miterlimit:10"
         points="596.1,262.4 594.4,262.7 593.2,263.9 594.6,266 595.7,268.6 596.5,270.6 596.9,271.4 645,223.5 641.3,217.5 644.1,217.5 648,217.5 650.3,212.2 650,207.2 596.2,260.9 "
         stroke-miterlimit="10"
         id="XMLID_2893_" />
      <polygon
         style="fill:none;stroke:#efeeee;stroke-width:1.35880005;stroke-miterlimit:10"
         points="594.4,262.7 592.6,263 593.2,263.9 "
         stroke-miterlimit="10"
         id="XMLID_2894_" />
      <polygon
         style="fill:none;stroke:#efeeee;stroke-miterlimit:10"
         points="616.7,230.7 614,231.9 606.4,239.4 605.7,242.5 603.8,242.1 589,256.8 590.9,258.2 593.9,258 596.3,259.3 596.2,260.9 650,207.1 650,206.9 646.8,208.2 641.7,211.5 637,211.5 636.6,214.9 630,220.1 624.5,221.3 620.2,229.2 "
         stroke-miterlimit="10"
         id="XMLID_2895_" />
      <polygon
         style="fill:none;stroke:#efeeee;stroke-width:1.35880005;stroke-miterlimit:10"
         points="584.6,243.5 585.4,249.3 594.5,240.2 592,241.7 587.7,244.8 584.6,243.4 "
         stroke-miterlimit="10"
         id="XMLID_2896_" />
      <polygon
         style="fill:none;stroke:#efeeee;stroke-miterlimit:10"
         points="620.6,337.5 692.3,265.8 687.5,259.3 612.8,334 616,334.2 618.8,337.5 "
         stroke-miterlimit="10"
         id="XMLID_2897_" />
      <polygon
         style="fill:none;stroke:#efeeee;stroke-width:1.35880005;stroke-miterlimit:10"
         points="586.3,248.7 590,248.3 591.8,250.4 589.2,252.6 587.4,254.8 588.1,256.1 589,256.8 603.8,242.1 602.2,241.7 597.1,238.6 594.5,240.2 585.4,249.3 585.5,250 "
         stroke-miterlimit="10"
         id="XMLID_2898_" />
      <polygon
         style="fill:none;stroke:#efeeee;stroke-width:1.35880005;stroke-miterlimit:10"
         points="603.4,332.1 604.1,333.4 612.8,333.9 687.5,259.3 682.7,252.8 "
         stroke-miterlimit="10"
         id="XMLID_2899_" />
      <polygon
         style="fill:none;stroke:#efeeee;stroke-width:1.35880005;stroke-miterlimit:10"
         points="597.2,294.6 597.6,297.9 600.5,301.4 666.2,235.7 663.3,233.5 659.3,231.3 598.7,292 "
         stroke-miterlimit="10"
         id="XMLID_2900_" />
      <polygon
         style="fill:none;stroke:#efeeee;stroke-miterlimit:10"
         points="677.6,246.7 603,321.3 605.1,323.7 601.5,326.3 601.5,328.9 603.3,332.1 682.6,252.8 680.5,249.9 "
         stroke-miterlimit="10"
         id="XMLID_2901_" />
      <polygon
         style="fill:none;stroke:#efeeee;stroke-width:1.35880005;stroke-miterlimit:10"
         points="672.3,240.8 671.1,239.4 666.2,235.7 600.5,301.4 601.5,302.7 598.9,304.2 593.9,312.6 597.4,313.1 598,315.1 "
         stroke-miterlimit="10"
         id="XMLID_2902_" />
      <polygon
         style="fill:none;stroke:#efeeee;stroke-width:1.35880005;stroke-miterlimit:10"
         points="598.3,316.1 599.2,317.1 601.9,320 603,321.3 677.6,246.7 672.3,240.8 598,315.1 "
         stroke-miterlimit="10"
         id="XMLID_2903_" />
    </g>
  </g>
</svg>
