<?xml version="1.0" encoding="UTF-8" standalone="no"?>
<!-- Created with Inkscape (http://www.inkscape.org/) -->

<svg
   xmlns:dc="http://purl.org/dc/elements/1.1/"
   xmlns:cc="http://creativecommons.org/ns#"
   xmlns:rdf="http://www.w3.org/1999/02/22-rdf-syntax-ns#"
   xmlns:svg="http://www.w3.org/2000/svg"
   xmlns="http://www.w3.org/2000/svg"
   xmlns:sodipodi="http://sodipodi.sourceforge.net/DTD/sodipodi-0.dtd"
   xmlns:inkscape="http://www.inkscape.org/namespaces/inkscape"
   width="216.327"
   height="187.25"
   viewBox="0 0 57.236517 49.543231"
   version="1.1"
   id="svg8"
   inkscape:version="0.92.2 (5c3e80d, 2017-08-06)"
   sodipodi:docname="14.svg">
  <defs
     id="defs2" />
  <sodipodi:namedview
     id="base"
     pagecolor="#ffffff"
     bordercolor="#666666"
     borderopacity="1.0"
     inkscape:pageopacity="0.0"
     inkscape:pageshadow="2"
     inkscape:zoom="2.8"
     inkscape:cx="186.63294"
     inkscape:cy="72.219001"
     inkscape:document-units="px"
     inkscape:current-layer="layer1"
     showgrid="false"
     units="px"
     inkscape:window-width="1920"
     inkscape:window-height="1027"
     inkscape:window-x="-8"
     inkscape:window-y="-8"
     inkscape:window-maximized="1" />
  <metadata
     id="metadata5">
    <rdf:RDF>
      <cc:Work
         rdf:about="">
        <dc:format>image/svg+xml</dc:format>
        <dc:type
           rdf:resource="http://purl.org/dc/dcmitype/StillImage" />
        <dc:title></dc:title>
      </cc:Work>
    </rdf:RDF>
  </metadata>
  <g
     inkscape:label="Layer 1"
     inkscape:groupmode="layer"
     id="layer1"
     transform="translate(0,-247.45676)">
    <g
       style="opacity:0.1"
       id="XMLID_161_"
       transform="matrix(0.26458334,0,0,0.26458334,-178.05313,172.79999)">
      <polygon
         style="fill:none"
         points="872.7,359.2 861.6,365.7 861.3,370.6 "
         id="XMLID_1478_" />
      <polygon
         style="fill:none"
         points="837,383.2 837,383 829.8,383 827.1,382.3 822.7,386.7 826.4,390.1 830.1,390.4 "
         id="XMLID_1479_" />
      <polygon
         style="fill:none"
         points="811.4,386.9 817.5,380.8 810,381 808.3,382.3 806.2,383.5 808.3,385.4 "
         id="XMLID_1480_" />
      <polygon
         style="fill:none"
         points="814.1,415 813.1,416.2 812.8,419.1 817,415 816.8,415 "
         id="XMLID_1481_" />
      <polygon
         style="fill:none"
         points="837.4,383.3 830.3,390.4 831.2,390.5 834.9,391.4 836.8,391.8 839.9,385.6 "
         id="XMLID_1482_" />
      <polygon
         style="fill:none"
         points="811.4,386.9 811.9,387.1 822.1,386.3 822.7,386.8 827.1,382.4 826.3,382.2 823.6,380.7 817.7,380.8 817.5,380.8 "
         id="XMLID_1483_" />
      <polygon
         style="fill:none"
         points="877,342.2 877.6,343.1 885.8,335 883.2,335.2 877,339.7 "
         id="XMLID_1484_" />
      <polygon
         style="fill:none"
         points="737.7,306.4 737,304.4 727.6,313.7 728.8,315.3 734.6,310.4 "
         id="XMLID_1485_" />
      <polygon
         style="fill:none"
         points="698.1,342.1 698.2,342 699,340.3 701.5,335.3 702.5,333.8 703.3,333 703.3,332.6 703.4,332.5 703.1,330.1 702.9,328.4 702.4,327.8 687,343.1 687.1,343.2 690.2,342.9 "
         id="XMLID_1486_" />
      <polygon
         style="fill:none;stroke:#efeeee;stroke-miterlimit:10"
         points="679.2,395.5 678.5,395.8 678.4,395.8 678.1,395.9 675.2,397.1 675.5,399.7 763.8,311.5 758.3,311.5 756.4,307.6 679.1,384.7 683.2,388.9 681,393.7 680.1,394.4 "
         stroke-miterlimit="10"
         id="XMLID_1487_" />
      <polygon
         style="fill:none;stroke:#efeeee;stroke-miterlimit:10"
         points="676.4,376.2 749.5,303.3 746.2,297.5 744.2,297.5 737,304.6 737.7,306.5 734.6,310.4 728.8,315.4 727.6,313.7 676.4,365 678.1,367.1 680.1,369.4 676.2,374.6 "
         stroke-miterlimit="10"
         id="XMLID_1488_" />
      <polygon
         style="fill:none;stroke:#efeeee;stroke-width:1.35880005;stroke-miterlimit:10"
         points="683.4,341.8 676.5,348.3 673.9,351.1 673.7,356.5 687,343.1 686.9,343.1 684.1,341.2 "
         stroke-miterlimit="10"
         id="XMLID_1489_" />
      <polygon
         style="fill:none;stroke:#efeeee;stroke-miterlimit:10"
         points="673.5,358 674.4,361.1 675.5,363.9 676.4,365 727.6,313.7 722.9,307.2 702.3,327.8 702.9,328.4 703.1,330.1 703.4,332.5 703.3,332.6 703.3,333 702.5,333.8 701.5,335.3 699,340.3 698.2,342 698.1,342.1 690.2,342.9 687.1,343.2 687,343.1 673.6,356.5 673.5,357.5 "
         stroke-miterlimit="10"
         id="XMLID_1490_" />
      <polygon
         style="fill:none;stroke:#efeeee;stroke-width:1.35880005;stroke-miterlimit:10"
         points="812.8,419.1 787.4,444.5 790.6,452.5 811.8,431.4 "
         stroke-miterlimit="10"
         id="XMLID_1491_" />
      <polygon
         style="fill:none;stroke:#efeeee;stroke-width:1.35880005;stroke-miterlimit:10"
         points="804.2,468.2 808,468.7 808.6,468.1 809.6,455.9 802.5,463 "
         stroke-miterlimit="10"
         id="XMLID_1492_" />
      <polygon
         style="fill:none;stroke:#efeeee;stroke-width:1.35880005;stroke-miterlimit:10"
         points="874.6,358.1 881,354.4 880.7,351.2 872.7,359.2 "
         stroke-miterlimit="10"
         id="XMLID_1498_" />
      <polygon
         style="fill:none;stroke:#efeeee;stroke-width:1.35880005;stroke-miterlimit:10"
         points="796.3,458 802.3,462.6 802.5,463 809.6,455.9 810.7,443.6 "
         stroke-miterlimit="10"
         id="XMLID_1499_" />
      <polygon
         style="fill:none;stroke:#efeeee;stroke-width:1.35880005;stroke-miterlimit:10"
         points="790.6,452.5 791.2,454.1 796.3,458 810.7,443.6 811.8,431.4 "
         stroke-miterlimit="10"
         id="XMLID_1501_" />
      <polygon
         style="fill:none;stroke:#efeeee;stroke-miterlimit:10"
         points="702.4,327.8 723,307.2 718.2,300.7 698.8,320.2 701.5,323 701.5,326.7 "
         stroke-miterlimit="10"
         id="XMLID_1502_" />
      <polygon
         style="fill:none;stroke:#efeeee;stroke-miterlimit:10"
         points="888.5,334.7 888.5,332.5 888.2,332.4 885.6,335 "
         stroke-miterlimit="10"
         id="XMLID_1503_" />
      <polygon
         style="fill:none;stroke:#efeeee;stroke-width:1.35880005;stroke-miterlimit:10"
         points="808.5,468.7 808.6,468.1 808,468.7 "
         stroke-miterlimit="10"
         id="XMLID_1504_" />
      <polygon
         style="fill:none;stroke:#efeeee;stroke-width:1.35880005;stroke-miterlimit:10"
         points="781.3,438.4 781.5,438.3 782.3,438.4 830.3,390.4 826.4,390.1 822.7,386.8 768.8,440.7 777.6,440.5 779.8,439.2 780.9,438.4 "
         stroke-miterlimit="10"
         id="XMLID_1505_" />
      <polygon
         style="fill:none;stroke:#efeeee;stroke-miterlimit:10"
         points="709,287.8 705.5,283.3 703.5,291.8 697.7,298.8 694.9,301.4 694.7,301.5 694.7,301.6 690.5,305.7 690.5,306.4 "
         stroke-miterlimit="10"
         id="XMLID_1506_" />
      <polygon
         style="fill:none;stroke:#efeeee;stroke-width:1.35880005;stroke-miterlimit:10"
         points="867.9,408.9 867.1,409.7 867.8,409.5 "
         stroke-miterlimit="10"
         id="XMLID_1507_" />
      <polygon
         style="fill:none;stroke:#efeeee;stroke-width:1.35880005;stroke-miterlimit:10"
         points="811.4,386.9 758.1,440.2 758.8,440.9 768.8,440.7 822.7,386.8 822.1,386.3 811.9,387.1 "
         stroke-miterlimit="10"
         id="XMLID_1508_" />
      <polygon
         style="fill:none;stroke:#efeeee;stroke-miterlimit:10"
         points="709,287.8 690.5,306.4 690.5,311.1 693.5,314.5 713.6,294.3 709.7,289 "
         stroke-miterlimit="10"
         id="XMLID_1509_" />
      <polygon
         style="fill:none;stroke:#efeeee;stroke-miterlimit:10"
         points="713.5,294.2 693.3,314.3 696.4,317.5 696.5,317.5 698.7,320.1 718.2,300.7 "
         stroke-miterlimit="10"
         id="XMLID_1510_" />
      <polygon
         style="fill:none;stroke:#efeeee;stroke-miterlimit:10"
         points="736.9,299.6 736.2,302.2 737,304.6 744.2,297.5 740.4,297.5 "
         stroke-miterlimit="10"
         id="XMLID_2047_" />
      <polygon
         style="fill:none;stroke:#efeeee;stroke-miterlimit:10"
         points="682.1,442.5 682.8,442.5 685.9,439.3 689.8,439 692,436.8 692.3,436.5 692.3,436.6 692.5,436.3 693.7,437.2 693.8,437.2 817.9,313.1 814.1,307.1 813.5,306.3 679.4,440.4 679.9,440.7 "
         stroke-miterlimit="10"
         id="XMLID_2066_" />
      <polygon
         style="fill:none;stroke:#efeeee;stroke-miterlimit:10"
         points="825.9,316.2 819.3,315.3 817.9,313.1 693.8,437.2 696.1,438.3 697,438.1 703.2,434.5 703.9,434.3 708.7,432.5 709.6,432.5 "
         stroke-miterlimit="10"
         id="XMLID_2067_" />
      <polygon
         style="fill:none;stroke:#efeeee;stroke-miterlimit:10"
         points="832.1,317.2 825.9,316.2 709.6,432.5 711.2,432.5 711.3,432.5 711.6,432.5 716.3,434.7 717.8,435.6 833.8,319.6 "
         stroke-miterlimit="10"
         id="XMLID_2068_" />
      <polygon
         style="fill:none;stroke:#efeeee;stroke-miterlimit:10"
         points="833.8,319.6 717.8,435.5 719.9,436.5 724.8,436.5 725.6,436.1 727.4,434 729,435.6 838.5,326.1 838.3,325.9 "
         stroke-miterlimit="10"
         id="XMLID_2069_" />
      <polygon
         style="fill:none;stroke:#efeeee;stroke-miterlimit:10"
         points="765.4,311.5 763.8,311.5 675.5,399.7 675.6,400.6 679.9,406.2 785.5,300.5 783.1,300.5 777.6,307 770.3,306.6 "
         stroke-miterlimit="10"
         id="XMLID_2070_" />
      <polygon
         style="fill:none;stroke:#efeeee;stroke-miterlimit:10"
         points="681.5,427.5 681.5,432 680.5,432.2 677.5,433.7 677.5,438.4 679.5,440.4 813.6,306.3 808.9,299.9 "
         stroke-miterlimit="10"
         id="XMLID_2071_" />
      <polygon
         style="fill:none;stroke:#efeeee;stroke-miterlimit:10"
         points="792.6,295.6 788.9,300.5 785.5,300.5 679.9,406.2 685.7,411.2 685.6,411.3 685.8,411.4 683.6,413.8 800.7,296.7 800.3,296.5 "
         stroke-miterlimit="10"
         id="XMLID_2072_" />
      <polygon
         style="fill:none;stroke:#efeeee;stroke-width:1.35880005;stroke-miterlimit:10"
         points="838.5,326.1 729,435.7 734,440.5 735.2,440.6 846.1,329.7 842.4,329.6 "
         stroke-miterlimit="10"
         id="XMLID_2073_" />
      <polygon
         style="fill:none;stroke:#efeeee;stroke-miterlimit:10"
         points="808.6,299.6 800.8,296.7 683.8,413.8 681.5,416.7 681.5,427.5 808.9,299.9 "
         stroke-miterlimit="10"
         id="XMLID_2074_" />
      <polygon
         style="fill:none;stroke:#efeeee;stroke-width:1.35880005;stroke-miterlimit:10"
         points="873.7,324.6 817.5,380.8 817.7,380.8 823.6,380.7 826.3,382.2 827.1,382.4 880.3,329.2 879.4,328.1 873.8,325 "
         stroke-miterlimit="10"
         id="XMLID_2075_" />
      <path
         style="fill:none;stroke:#efeeee;stroke-width:1.35880005;stroke-miterlimit:10"
         inkscape:connector-curvature="0"
         d="m 824.8,417.6 c 0,0 0.2,0 0.6,0.1 l 36.1,-36.1 -0.8,-2 0.1,-1.8 0.4,-7.1 -44.2,44.2 z"
         stroke-miterlimit="10"
         id="XMLID_2076_" />
      <polygon
         style="fill:none;stroke:#efeeee;stroke-miterlimit:10"
         points="872.7,359.2 880.7,351.2 880.2,346.9 877.6,343.1 837.4,383.3 839.9,385.6 836.8,391.8 834.9,391.4 831.2,390.5 830.3,390.4 782.3,438.4 783.7,438.6 785.2,438.6 787.4,444.5 812.8,419.1 813.1,415.9 814.1,414.5 816.8,414.5 817,414.7 861.3,370.5 861.6,365.7 "
         stroke-miterlimit="10"
         id="XMLID_2077_" />
      <polygon
         style="fill:none;stroke:#efeeee;stroke-miterlimit:10"
         points="742,438.6 744.9,438 747.3,435.5 748.4,434.2 750.7,434.5 752.4,434.5 752.5,434.6 856.9,330.2 846.1,329.7 735.2,440.5 735.7,440.5 739.9,440.5 740.3,440.2 "
         stroke-miterlimit="10"
         id="XMLID_2078_" />
      <path
         style="fill:none;stroke:#efeeee;stroke-width:1.35880005;stroke-miterlimit:10"
         inkscape:connector-curvature="0"
         d="m 844.5,415.3 4.6,-1 0.9,1.3 18.1,-18.1 -1.9,-4.7 -1.2,-3 -0.1,-0.3 -28.9,28.9 c 3,-1 8.5,-3.1 8.5,-3.1 z"
         stroke-miterlimit="10"
         id="XMLID_2092_" />
      <path
         style="fill:none;stroke:#efeeee;stroke-width:1.35880005;stroke-miterlimit:10"
         inkscape:connector-curvature="0"
         d="m 833.9,419 c 0.2,0 1,-0.2 2,-0.6 l 28.9,-28.9 -3.2,-8 -36.1,36.1 c 1.9,0.4 7.7,1.4 8.4,1.4 z"
         stroke-miterlimit="10"
         id="XMLID_2115_" />
      <polygon
         style="fill:none;stroke:#efeeee;stroke-miterlimit:10"
         points="752.9,434.8 758.1,440.2 811.4,386.9 808.3,385.4 806.2,383.5 808.3,382.3 810,381 817.5,380.8 873.7,324.5 873.2,320.5 871.1,320.5 863.3,330.3 856.9,330.1 752.5,434.6 752.6,434.8 "
         stroke-miterlimit="10"
         id="XMLID_2127_" />
      <polygon
         style="fill:none;stroke:#efeeee;stroke-miterlimit:10"
         points="868,397.5 849.9,415.3 852.3,418.5 855,418.5 860.2,410.9 867.1,409.5 867.9,408.8 868.2,406 869.9,402.1 "
         stroke-miterlimit="10"
         id="XMLID_2128_" />
      <polygon
         style="fill:none;stroke:#efeeee;stroke-miterlimit:10"
         points="876.5,342.2 876.5,339.7 882.9,335.2 885.6,335 888.2,332.4 882.2,331.7 880.3,329.2 827.1,382.5 829.8,383.5 837.5,383.5 837.5,383.4 877.4,343.2 "
         stroke-miterlimit="10"
         id="XMLID_2129_" />
      <polygon
         style="fill:none;stroke:#efeeee;stroke-width:1.35880005;stroke-miterlimit:10"
         points="756.4,307.4 755.5,305.6 751.7,304.6 750.6,304.4 750.6,304.3 750.1,304.2 749.5,303.1 676.4,376.2 676.6,378.7 678.2,383.4 678.4,383.9 679.1,384.7 "
         stroke-miterlimit="10"
         id="XMLID_2149_" />
    </g>
  </g>
</svg>
