<?xml version="1.0" encoding="UTF-8" standalone="no"?>
<!-- Created with Inkscape (http://www.inkscape.org/) -->

<svg
   xmlns:dc="http://purl.org/dc/elements/1.1/"
   xmlns:cc="http://creativecommons.org/ns#"
   xmlns:rdf="http://www.w3.org/1999/02/22-rdf-syntax-ns#"
   xmlns:svg="http://www.w3.org/2000/svg"
   xmlns="http://www.w3.org/2000/svg"
   xmlns:sodipodi="http://sodipodi.sourceforge.net/DTD/sodipodi-0.dtd"
   xmlns:inkscape="http://www.inkscape.org/namespaces/inkscape"
   width="198.48599"
   height="153.896"
   viewBox="0 0 52.516085 40.718317"
   version="1.1"
   id="svg8"
   inkscape:version="0.92.2 (5c3e80d, 2017-08-06)"
   sodipodi:docname="15.svg">
  <defs
     id="defs2" />
  <sodipodi:namedview
     id="base"
     pagecolor="#ffffff"
     bordercolor="#666666"
     borderopacity="1.0"
     inkscape:pageopacity="0.0"
     inkscape:pageshadow="2"
     inkscape:zoom="2.8"
     inkscape:cx="186.63294"
     inkscape:cy="72.219001"
     inkscape:document-units="px"
     inkscape:current-layer="layer1"
     showgrid="false"
     units="px"
     inkscape:window-width="1920"
     inkscape:window-height="1027"
     inkscape:window-x="-8"
     inkscape:window-y="-8"
     inkscape:window-maximized="1" />
  <metadata
     id="metadata5">
    <rdf:RDF>
      <cc:Work
         rdf:about="">
        <dc:format>image/svg+xml</dc:format>
        <dc:type
           rdf:resource="http://purl.org/dc/dcmitype/StillImage" />
        <dc:title></dc:title>
      </cc:Work>
    </rdf:RDF>
  </metadata>
  <g
     inkscape:label="Layer 1"
     inkscape:groupmode="layer"
     id="layer1"
     transform="translate(0,-256.28167)">
    <g
       style="opacity:0.1"
       id="XMLID_340_"
       transform="matrix(0.26458334,0,0,0.26458334,-164.05529,142.08618)">
      <polygon
         style="fill:none"
         points="731.8,445 717.6,459.3 720.5,459.6 727.8,459 730.5,456.2 731.4,450.1 735,449.2 732.8,445 "
         id="XMLID_1476_" />
      <polygon
         style="fill:none"
         points="704.7,461 705.7,461 707.1,462 711.3,462 717.4,459.1 717.6,459.2 731.8,445 729.1,445 724.1,445.6 725.8,448.7 722.2,447.8 716.6,450.1 715.2,455.9 711.6,455.1 710.9,454.8 "
         id="XMLID_2153_" />
      <polygon
         style="fill:none"
         points="787.2,558 783.1,558 780.4,561.4 781.8,563.3 "
         id="XMLID_2158_" />
      <polygon
         style="fill:none"
         points="700.4,454 694.3,456.2 694,452.9 693.9,449.4 682.2,461.1 685.3,462.1 689.5,460.7 694.5,459.8 694.6,460 700.8,454 "
         id="XMLID_2159_" />
      <polygon
         style="fill:none"
         points="708.2,454 700.8,454 694.6,460 697.3,461 704.7,461 710.9,455 "
         id="XMLID_2162_" />
      <polygon
         style="fill:none"
         points="629,482.2 633.4,482.7 636.8,478.3 637.7,471.9 626,483.7 "
         id="XMLID_2163_" />
      <polygon
         style="fill:none;stroke:#efeeee;stroke-width:1.35880005;stroke-miterlimit:10"
         points="638.2,469.1 637.7,471.9 641,468.7 "
         stroke-miterlimit="10"
         id="XMLID_2164_" />
      <polygon
         style="fill:none;stroke:#efeeee;stroke-miterlimit:10"
         points="804.7,485.5 809.4,481.9 815.4,484.8 817.4,482.7 818,474.5 814.2,474.5 803.6,485.5 "
         stroke-miterlimit="10"
         id="XMLID_2165_" />
      <polygon
         style="fill:none;stroke:#efeeee;stroke-width:1.35880005;stroke-miterlimit:10"
         points="626,483.7 625.6,483.9 625.6,484 "
         stroke-miterlimit="10"
         id="XMLID_2166_" />
      <polygon
         style="fill:none;stroke:#efeeee;stroke-width:1.35880005;stroke-miterlimit:10"
         points="772.9,526.8 770.6,518.4 713.2,575.7 725,575.2 773.1,527.1 "
         stroke-miterlimit="10"
         id="XMLID_2167_" />
      <polygon
         style="fill:none;stroke:#efeeee;stroke-width:1.35880005;stroke-miterlimit:10"
         points="737.7,573.7 777.7,533.7 773.1,527.1 725,575.2 729.5,575 736.1,572.7 "
         stroke-miterlimit="10"
         id="XMLID_2168_" />
      <polygon
         style="fill:none;stroke:#efeeee;stroke-width:1.35880005;stroke-miterlimit:10"
         points="713.2,575.7 770.6,518.4 769.8,515.5 772.9,505.3 772.4,505.3 702.5,575.3 706.7,577 711,575.8 "
         stroke-miterlimit="10"
         id="XMLID_2169_" />
      <polygon
         style="fill:none;stroke:#efeeee;stroke-miterlimit:10"
         points="760.1,506.6 687.2,579.5 689.1,579.5 694.6,575.9 700.9,574.7 702.5,575.3 772.4,505.4 "
         stroke-miterlimit="10"
         id="XMLID_2170_" />
      <path
         style="fill:none;stroke:#efeeee;stroke-miterlimit:10"
         inkscape:connector-curvature="0"
         d="m 636.8,478.3 -3.4,4.5 -4.5,-0.6 -3.1,1.5 -0.4,0.3 v 2.6 l 2,5.3 -0.5,1.8 30.7,-30.7 -3.2,0.4 c -1,-0.7 -2.2,-1.7 -2.5,-1.7 -0.2,0 -0.2,0.3 0.3,1.2 l -3.6,1.1 -2,2 -4.7,2.5 -1.1,0.2 -3.2,3.2 z"
         stroke-miterlimit="10"
         id="XMLID_2171_" />
      <polygon
         style="fill:none;stroke:#efeeee;stroke-width:1.35880005;stroke-miterlimit:10"
         points="774.5,583.2 775.7,584.4 778,584.8 781.2,583.6 780.4,578.5 778.9,577.3 773.2,583 "
         stroke-miterlimit="10"
         id="XMLID_2172_" />
      <polygon
         style="fill:none;stroke:#efeeee;stroke-width:1.35880005;stroke-miterlimit:10"
         points="787.2,557.8 789,557.8 789,556 "
         stroke-miterlimit="10"
         id="XMLID_2173_" />
      <polygon
         style="fill:none;stroke:#efeeee;stroke-width:1.35880005;stroke-miterlimit:10"
         points="815.4,484.8 817.2,485.7 817.4,482.8 "
         stroke-miterlimit="10"
         id="XMLID_2191_" />
      <polygon
         style="fill:none;stroke:#efeeee;stroke-width:1.35880005;stroke-miterlimit:10"
         points="697,438.1 696.4,438.4 696.1,438.3 694,438.7 692.5,443.3 693.8,444.6 693.9,449.3 710.4,432.8 703.9,434.3 703.1,434.6 697.1,438.1 "
         stroke-miterlimit="10"
         id="XMLID_2192_" />
      <polygon
         style="fill:none;stroke:#efeeee;stroke-miterlimit:10"
         points="711.2,432.5 710.4,432.8 693.9,449.3 694,452.7 694.3,456 700.4,453.5 700.8,453.5 718.2,436 711.3,432.5 "
         stroke-miterlimit="10"
         id="XMLID_2193_" />
      <polygon
         style="fill:none;stroke:#efeeee;stroke-width:1.35880005;stroke-miterlimit:10"
         points="752.2,574.2 754.9,578.1 755.3,578.5 786.5,547.3 786.6,546.8 782.2,540.4 748.1,574.5 "
         stroke-miterlimit="10"
         id="XMLID_2194_" />
      <path
         style="fill:none;stroke:#efeeee;stroke-miterlimit:10"
         inkscape:connector-curvature="0"
         d="m 769,580.5 3.5,2.4 0.7,0.1 5.5,-5.7 -2.3,-1.9 c 0,0 0,-3.9 0,-5.9 0,-2 3.7,-2 3.7,-2 l 4,-2.7 -2.3,-1.6 -0.1,-0.1 -17.7,17.7 z"
         stroke-miterlimit="10"
         id="XMLID_2195_" />
      <polygon
         style="fill:none;stroke:#efeeee;stroke-width:1.35880005;stroke-miterlimit:10"
         points="737.7,573.7 739.6,575 748.1,574.5 782.2,540.4 777.7,533.7 "
         stroke-miterlimit="10"
         id="XMLID_2196_" />
      <polygon
         style="fill:none;stroke:#efeeee;stroke-miterlimit:10"
         points="780.4,561.2 783.1,557.5 787.2,557.5 788.5,556 788.5,553.5 784.8,551.9 786.4,547.3 755.2,578.5 758.1,581.3 764.1,580.8 781.8,563.1 "
         stroke-miterlimit="10"
         id="XMLID_2197_" />
      <polygon
         style="fill:none;stroke:#efeeee;stroke-miterlimit:10"
         points="809,468.7 796.6,481.2 800.4,485.5 803.6,485.5 814.2,474.5 808.6,474.5 809.4,471.1 809.6,468.8 "
         stroke-miterlimit="10"
         id="XMLID_2198_" />
      <polygon
         style="fill:none;stroke:#efeeee;stroke-miterlimit:10"
         points="631.2,523.1 634.7,526.2 635.4,530 704.7,460.5 697.3,460.5 694.6,459.6 "
         stroke-miterlimit="10"
         id="XMLID_2199_" />
      <polygon
         style="fill:none;stroke:#efeeee;stroke-width:1.35880005;stroke-miterlimit:10"
         points="682.2,461.1 625.5,517.7 626.4,519.1 631.2,523.2 694.6,459.9 694.5,459.8 689.5,460.7 685.3,462.1 "
         stroke-miterlimit="10"
         id="XMLID_2200_" />
      <polygon
         style="fill:none;stroke:#efeeee;stroke-miterlimit:10"
         points="670.9,461.2 668.3,461 663.8,462.5 658.8,462.5 657.8,462.8 627.1,493.7 626.4,496.1 623.9,500.3 624.2,506.2 624.3,507.7 "
         stroke-miterlimit="10"
         id="XMLID_2201_" />
      <polygon
         style="fill:none;stroke:#efeeee;stroke-width:1.35880005;stroke-miterlimit:10"
         points="670.9,461.2 624.3,507.7 625,516 622.3,510.6 623.2,514.1 625.5,517.7 682.2,461.1 681.7,461 "
         stroke-miterlimit="10"
         id="XMLID_2202_" />
      <polygon
         style="fill:none;stroke:#efeeee;stroke-miterlimit:10"
         points="729.5,436.1 727.8,434.6 725.6,436 725.1,436.5 724.8,436.5 720.7,436.9 719.9,436.5 719.3,436.5 718.2,436 700.8,453.5 708.2,453.5 710.9,454.7 "
         stroke-miterlimit="10"
         id="XMLID_2203_" />
      <polygon
         style="fill:none;stroke:#efeeee;stroke-miterlimit:10"
         points="715.2,455.9 716.6,450.1 722.2,447.8 725.8,448.7 724.1,445.8 729.1,445.5 731.8,445.5 736.2,440.9 735.7,440.5 734.1,440.5 729.5,436.1 710.9,454.8 711.6,455.1 "
         stroke-miterlimit="10"
         id="XMLID_2204_" />
      <polygon
         style="fill:none;stroke:#efeeee;stroke-miterlimit:10"
         points="745.1,438.1 742.1,438.7 740.3,440.3 739.5,441.1 736.2,440.9 731.8,445.5 732.8,445.5 735,449.5 731.4,450.2 730.5,456.3 727.8,459 720.5,459.6 717.6,459.3 641.3,535.6 648.8,539.2 753,435.1 752.6,434.8 750.7,434.5 748.2,434.5 747.3,435.5 "
         stroke-miterlimit="10"
         id="XMLID_2205_" />
      <polygon
         style="fill:none;stroke:#efeeee;stroke-miterlimit:10"
         points="635.4,530 635.9,532.8 641.3,535.5 717.6,459.3 717.4,459.4 711.3,462.5 707.1,462.5 705.7,460.5 704.7,460.5 "
         stroke-miterlimit="10"
         id="XMLID_2206_" />
      <polygon
         style="fill:none;stroke:#efeeee;stroke-miterlimit:10"
         points="790.6,453.5 666,578.1 665.9,583.5 669.1,583.5 671.1,579.5 676,579.5 796.8,458.6 790.9,454.1 "
         stroke-miterlimit="10"
         id="XMLID_2207_" />
      <polygon
         style="fill:none;stroke:#efeeee;stroke-miterlimit:10"
         points="759.2,506.1 758.8,503.4 761.6,497.9 776.7,489.9 802.5,464 801.9,462.3 796.8,458.6 676,579.5 687.2,579.5 760.1,506.6 760,506.5 "
         stroke-miterlimit="10"
         id="XMLID_2208_" />
      <polygon
         style="fill:none;stroke:#efeeee;stroke-width:1.35880005;stroke-miterlimit:10"
         points="663.7,570.4 666.1,574.6 666,578.1 790.6,453.5 789.5,450.8 787.5,445.4 663.3,569.7 "
         stroke-miterlimit="10"
         id="XMLID_2209_" />
      <polygon
         style="fill:none;stroke:#efeeee;stroke-miterlimit:10"
         points="808.5,468.7 808.5,468.8 808,468.7 804.1,468.4 802.5,464 776.7,489.9 788.2,483.7 796.4,481 796.6,481.2 809,468.8 "
         stroke-miterlimit="10"
         id="XMLID_2210_" />
      <polygon
         style="fill:none;stroke:#efeeee;stroke-width:1.35880005;stroke-miterlimit:10"
         points="785,438.7 783.7,438.6 783.2,438.5 659.4,562.3 663.3,569.7 787.5,445.4 "
         stroke-miterlimit="10"
         id="XMLID_2211_" />
      <polygon
         style="fill:none;stroke:#efeeee;stroke-miterlimit:10"
         points="758.6,440.5 654.1,545 656,554.3 769.6,440.5 758.8,440.5 "
         stroke-miterlimit="10"
         id="XMLID_2212_" />
      <polygon
         style="fill:none;stroke:#efeeee;stroke-width:1.35880005;stroke-miterlimit:10"
         points="648.8,539.2 653.3,541.4 654.1,545.2 758.6,440.7 753,435.1 "
         stroke-miterlimit="10"
         id="XMLID_2213_" />
      <polygon
         style="fill:none;stroke:#efeeee;stroke-miterlimit:10"
         points="769.6,440.5 656,554.3 656.5,557 659.4,562.3 783.2,438.5 781.3,438.4 779.8,439 777.8,440.5 "
         stroke-miterlimit="10"
         id="XMLID_2214_" />
    </g>
  </g>
</svg>
