<?xml version="1.0" encoding="UTF-8" standalone="no"?>
<!-- Created with Inkscape (http://www.inkscape.org/) -->

<svg
   xmlns:dc="http://purl.org/dc/elements/1.1/"
   xmlns:cc="http://creativecommons.org/ns#"
   xmlns:rdf="http://www.w3.org/1999/02/22-rdf-syntax-ns#"
   xmlns:svg="http://www.w3.org/2000/svg"
   xmlns="http://www.w3.org/2000/svg"
   xmlns:sodipodi="http://sodipodi.sourceforge.net/DTD/sodipodi-0.dtd"
   xmlns:inkscape="http://www.inkscape.org/namespaces/inkscape"
   width="191.75999"
   height="114.792"
   viewBox="0 0 50.736497 30.372051"
   version="1.1"
   id="svg8"
   inkscape:version="0.92.2 (5c3e80d, 2017-08-06)"
   sodipodi:docname="2.svg">
  <defs
     id="defs2" />
  <sodipodi:namedview
     id="base"
     pagecolor="#ffffff"
     bordercolor="#666666"
     borderopacity="1.0"
     inkscape:pageopacity="0.0"
     inkscape:pageshadow="2"
     inkscape:zoom="2.8"
     inkscape:cx="186.63294"
     inkscape:cy="72.219001"
     inkscape:document-units="px"
     inkscape:current-layer="layer1"
     showgrid="false"
     units="px"
     inkscape:window-width="1920"
     inkscape:window-height="1027"
     inkscape:window-x="-8"
     inkscape:window-y="-8"
     inkscape:window-maximized="1" />
  <metadata
     id="metadata5">
    <rdf:RDF>
      <cc:Work
         rdf:about="">
        <dc:format>image/svg+xml</dc:format>
        <dc:type
           rdf:resource="http://purl.org/dc/dcmitype/StillImage" />
        <dc:title></dc:title>
      </cc:Work>
    </rdf:RDF>
  </metadata>
  <g
     inkscape:label="Layer 1"
     inkscape:groupmode="layer"
     id="layer1"
     transform="translate(0,-266.62795)">
    <g
       style="opacity:0.1"
       id="XMLID_2651_"
       transform="matrix(0.26458333,0,0,0.26458333,-8.9958332,171.05316)">
      <polygon
         style="fill:none"
         points="200,457.7 199.6,457.3 198.7,459.1 "
         id="XMLID_3012_" />
      <polygon
         style="fill:none"
         points="155.9,378.5 161.7,373.5 162,372.5 "
         id="XMLID_3013_" />
      <polygon
         style="fill:none"
         points="58.9,419.6 61.3,422.3 64,422.7 67.2,421.1 65.6,418 63.8,414.7 "
         id="XMLID_3014_" />
      <polygon
         style="fill:none;stroke:#efeeee;stroke-width:1.35880005;stroke-miterlimit:10"
         points="205.2,415.7 207.4,411.6 205,407.9 160.1,452.9 160.2,457.2 159.1,458.3 157.9,462 162.4,461.8 202.2,421.9 203.1,420.1 "
         stroke-miterlimit="10"
         id="XMLID_3015_" />
      <polygon
         style="fill:none;stroke:#efeeee;stroke-width:1.35880005;stroke-miterlimit:10"
         points="160.1,452.9 205,407.9 204.4,406.9 204.1,397.6 158.5,443.3 158.4,444.9 159.9,445.5 "
         stroke-miterlimit="10"
         id="XMLID_3016_" />
      <polygon
         style="fill:none;stroke:#efeeee;stroke-miterlimit:10"
         points="131.9,429.2 136.2,431.9 188.5,379.5 188.5,371.6 191.5,369.2 191.5,367.4 190.3,366.8 129.9,427.1 "
         stroke-miterlimit="10"
         id="XMLID_3017_" />
      <polygon
         style="fill:none;stroke:#efeeee;stroke-width:1.35880005;stroke-miterlimit:10"
         points="156.6,434 206.4,384.1 199.6,380.7 196.7,382.6 149.2,430.1 150.3,430.7 154.3,432.1 "
         stroke-miterlimit="10"
         id="XMLID_3018_" />
      <polygon
         style="fill:none;stroke:#efeeee;stroke-width:1.35880005;stroke-miterlimit:10"
         points="204.1,397.6 204,390.2 206.8,384.3 206.4,384.1 156.6,434 158.8,435.7 158.5,443.3 "
         stroke-miterlimit="10"
         id="XMLID_3019_" />
      <polygon
         style="fill:none;stroke:#efeeee;stroke-miterlimit:10"
         points="202.2,421.9 162.4,461.8 164.1,461.7 168,459.2 172.1,461.5 174.1,461.5 200.9,434.6 199.2,431.8 200.5,425.8 "
         stroke-miterlimit="10"
         id="XMLID_3020_" />
      <polygon
         style="fill:none;stroke:#efeeee;stroke-miterlimit:10"
         points="149.2,430.1 196.7,382.6 196.3,382.8 188.5,379.6 188.5,379.5 136.2,431.9 137.5,432.7 139.7,434.3 141.6,432.8 144.7,431 147.2,429 "
         stroke-miterlimit="10"
         id="XMLID_3021_" />
      <polygon
         style="fill:none;stroke:#efeeee;stroke-width:1.35880005;stroke-miterlimit:10"
         points="221.9,475.3 225,474.7 224,467.4 218.4,473 "
         stroke-miterlimit="10"
         id="XMLID_3022_" />
      <polygon
         style="fill:none;stroke:#efeeee;stroke-width:1.35880005;stroke-miterlimit:10"
         points="167.8,363.8 162.8,369.8 162,372.5 169.5,365 "
         stroke-miterlimit="10"
         id="XMLID_3023_" />
      <polygon
         style="fill:none;stroke:#efeeee;stroke-width:1.35880005;stroke-miterlimit:10"
         points="218.4,473 224,467.4 222.8,457.8 222.5,457.6 211.6,468.5 212.4,469.3 216.7,471.9 "
         stroke-miterlimit="10"
         id="XMLID_3024_" />
      <polygon
         style="fill:none;stroke:#efeeee;stroke-width:1.35880005;stroke-miterlimit:10"
         points="194.4,463.9 197.9,460.6 198.7,459.1 194,463.7 "
         stroke-miterlimit="10"
         id="XMLID_3025_" />
      <polygon
         style="fill:none;stroke:#efeeee;stroke-miterlimit:10"
         points="178,461.5 179,459 187.3,458.3 187.9,458.8 202.5,444.3 202.5,436.6 201,434.6 174.1,461.5 "
         stroke-miterlimit="10"
         id="XMLID_3026_" />
      <polygon
         style="fill:none;stroke:#efeeee;stroke-width:1.35880005;stroke-miterlimit:10"
         points="205.9,463.1 215,454 208.1,450.8 207.5,450.3 200,457.7 201.8,459.3 205.2,462.5 "
         stroke-miterlimit="10"
         id="XMLID_3027_" />
      <polygon
         style="fill:none;stroke:#efeeee;stroke-width:1.35880005;stroke-miterlimit:10"
         points="222.5,457.6 217.2,455 215,454 205.9,463.1 211.6,468.5 "
         stroke-miterlimit="10"
         id="XMLID_3028_" />
      <polygon
         style="fill:none;stroke:#efeeee;stroke-miterlimit:10"
         points="207.6,450.3 202.5,445 202.5,444.3 187.9,458.8 189.6,460.8 192,463 194,463.7 198.7,459.1 199.6,457.3 200,457.7 "
         stroke-miterlimit="10"
         id="XMLID_3029_" />
      <polygon
         style="fill:none;stroke:#efeeee;stroke-miterlimit:10"
         points="71.8,373 56.9,388 57.5,388.6 57.5,394.5 59.4,396.7 78.7,377.3 "
         stroke-miterlimit="10"
         id="XMLID_3030_" />
      <polygon
         style="fill:none;stroke:#efeeee;stroke-width:1.35880005;stroke-miterlimit:10"
         points="62.5,409.3 63.6,414.4 63.8,414.7 102.9,375.6 95.2,380.4 89.8,378.9 86.1,381.1 61.9,405.3 "
         stroke-miterlimit="10"
         id="XMLID_3031_" />
      <polygon
         style="fill:none;stroke:#efeeee;stroke-width:1.35880005;stroke-miterlimit:10"
         points="78.7,377.3 59.4,396.7 60.9,398.4 61.9,405.3 86.1,381.1 85.4,381.5 "
         stroke-miterlimit="10"
         id="XMLID_3032_" />
      <polygon
         style="fill:none;stroke:#efeeee;stroke-miterlimit:10"
         points="56.8,388.1 71.8,373.1 66.6,369.8 63.9,369.9 50.5,383.5 51.5,383.5 54.2,385.3 "
         stroke-miterlimit="10"
         id="XMLID_3033_" />
      <polygon
         style="fill:none;stroke:#efeeee;stroke-miterlimit:10"
         points="34.5,376.9 34.5,380 38.3,382.7 39.8,380.7 41.7,378 43,379.5 53.1,369.3 42.4,368.9 "
         stroke-miterlimit="10"
         id="XMLID_3034_" />
      <polygon
         style="fill:none;stroke:#efeeee;stroke-width:1.35880005;stroke-miterlimit:10"
         points="183.5,362.2 123.8,421.9 124.3,422 128.3,425.6 129.8,427.1 190.1,366.8 "
         stroke-miterlimit="10"
         id="XMLID_3035_" />
      <polygon
         style="fill:none;stroke:#efeeee;stroke-miterlimit:10"
         points="50.5,383.5 63.9,369.9 53.1,369.4 42.9,379.7 46,383.5 "
         stroke-miterlimit="10"
         id="XMLID_3036_" />
      <polygon
         style="fill:none;stroke:#efeeee;stroke-miterlimit:10"
         points="34.5,376.9 42.6,368.9 37.5,368.7 37.5,369.8 34.5,371.7 34.5,374.5 "
         stroke-miterlimit="10"
         id="XMLID_3037_" />
      <polygon
         style="fill:none;stroke:#efeeee;stroke-width:1.35880005;stroke-miterlimit:10"
         points="147.1,376.2 95.7,427.6 103.4,424.9 107.2,423.5 111,422 112.9,421.6 155.9,378.5 153,381.1 147.6,376.8 "
         stroke-miterlimit="10"
         id="XMLID_3038_" />
      <polygon
         style="fill:none;stroke:#efeeee;stroke-width:1.35880005;stroke-miterlimit:10"
         points="141.9,370.2 80.9,431.1 86.5,431.7 89.3,429.8 95.7,427.6 147.1,376.2 "
         stroke-miterlimit="10"
         id="XMLID_3039_" />
      <polygon
         style="fill:none;stroke:#efeeee;stroke-width:1.35880005;stroke-miterlimit:10"
         points="183.5,362.2 183.1,362 177.5,365.3 170.4,365.7 169.5,365 162,372.5 161.7,373.5 155.9,378.5 112.9,421.6 118.7,420.2 121.4,421.3 123.8,421.9 "
         stroke-miterlimit="10"
         id="XMLID_3040_" />
      <polygon
         style="fill:none;stroke:#efeeee;stroke-width:1.35880005;stroke-miterlimit:10"
         points="54.6,418.3 53.1,421.1 54.5,424 58.9,419.6 58.2,418.7 "
         stroke-miterlimit="10"
         id="XMLID_3041_" />
      <polygon
         style="fill:none;stroke:#efeeee;stroke-width:1.35880005;stroke-miterlimit:10"
         points="58.9,419.6 54.5,424 54.6,424.2 60.4,429.2 116.5,373.2 107.5,372.6 102.9,375.6 63.8,414.7 65.6,418 67.2,421.1 64,422.7 61.3,422.3 "
         stroke-miterlimit="10"
         id="XMLID_3042_" />
      <polygon
         style="fill:none;stroke:#efeeee;stroke-width:1.35880005;stroke-miterlimit:10"
         points="68.7,436.5 73.1,431.4 78.2,430.8 80.9,431.1 141.9,370.2 139.4,367.4 133.9,367 66.4,434.5 "
         stroke-miterlimit="10"
         id="XMLID_3043_" />
      <polygon
         style="fill:none;stroke:#efeeee;stroke-width:1.35880005;stroke-miterlimit:10"
         points="133.9,367 129.2,366.6 121.2,373.5 116.5,373.2 60.4,429.2 63.6,432.1 66.4,434.5 "
         stroke-miterlimit="10"
         id="XMLID_3044_" />
    </g>
  </g>
</svg>
