<?xml version="1.0" encoding="UTF-8" standalone="no"?>
<!-- Created with Inkscape (http://www.inkscape.org/) -->

<svg
   xmlns:dc="http://purl.org/dc/elements/1.1/"
   xmlns:cc="http://creativecommons.org/ns#"
   xmlns:rdf="http://www.w3.org/1999/02/22-rdf-syntax-ns#"
   xmlns:svg="http://www.w3.org/2000/svg"
   xmlns="http://www.w3.org/2000/svg"
   xmlns:sodipodi="http://sodipodi.sourceforge.net/DTD/sodipodi-0.dtd"
   xmlns:inkscape="http://www.inkscape.org/namespaces/inkscape"
   width="149.64999"
   height="169.508"
   viewBox="0 0 39.594893 44.848992"
   version="1.1"
   id="svg8"
   inkscape:version="0.92.2 (5c3e80d, 2017-08-06)"
   sodipodi:docname="3.svg">
  <defs
     id="defs2" />
  <sodipodi:namedview
     id="base"
     pagecolor="#ffffff"
     bordercolor="#666666"
     borderopacity="1.0"
     inkscape:pageopacity="0.0"
     inkscape:pageshadow="2"
     inkscape:zoom="2.8"
     inkscape:cx="186.63294"
     inkscape:cy="72.219001"
     inkscape:document-units="px"
     inkscape:current-layer="layer1"
     showgrid="false"
     units="px"
     inkscape:window-width="1920"
     inkscape:window-height="1027"
     inkscape:window-x="-8"
     inkscape:window-y="-8"
     inkscape:window-maximized="1" />
  <metadata
     id="metadata5">
    <rdf:RDF>
      <cc:Work
         rdf:about="">
        <dc:format>image/svg+xml</dc:format>
        <dc:type
           rdf:resource="http://purl.org/dc/dcmitype/StillImage" />
        <dc:title></dc:title>
      </cc:Work>
    </rdf:RDF>
  </metadata>
  <g
     inkscape:label="Layer 1"
     inkscape:groupmode="layer"
     id="layer1"
     transform="translate(0,-252.15101)">
    <g
       style="opacity:0.1"
       id="XMLID_2660_"
       transform="matrix(0.26458333,0,0,0.26458333,-20.925501,131.37084)">
      <polygon
         style="fill:none"
         points="103.4,495 99.6,490.2 100.1,487.2 90.9,496.4 92.1,496.8 96,497 98.5,500 "
         id="XMLID_3045_" />
      <polygon
         style="fill:none"
         points="108.3,504.4 111.5,503.9 108.6,501.1 106.6,503.1 "
         id="XMLID_3046_" />
      <polygon
         style="fill:none"
         points="164.7,497 164.9,498.8 165.8,499.9 170.2,495.5 169,496.1 "
         id="XMLID_3047_" />
      <polygon
         style="fill:none"
         points="215.9,505.9 209,507.3 208.1,513.7 "
         id="XMLID_3048_" />
      <polygon
         style="fill:none"
         points="156.2,484 153,484 151.9,480.4 145.8,486.4 153,489.3 154.2,489.1 157.6,485.8 "
         id="XMLID_3049_" />
      <polygon
         style="fill:none"
         points="100.7,503 103.2,503 104.5,501.7 106.6,503.2 108.6,501.1 106.7,499.2 103.4,495.1 98.5,500.2 "
         id="XMLID_3051_" />
      <polygon
         style="fill:none"
         points="168.5,501 173.4,499.9 175.4,501.2 177.5,499.4 175.6,495 174,492.5 174,491.4 171.5,494.1 171.7,494.7 170.2,495.5 165.8,499.9 166.2,500.4 "
         id="XMLID_3052_" />
      <polygon
         style="fill:none"
         points="168.7,485.8 172.2,482.3 172.1,482.2 "
         id="XMLID_3053_" />
      <polygon
         style="fill:none"
         points="174,487.6 175.9,486.6 175.3,484.4 172.2,482.3 168.7,485.8 168.3,486.2 164.1,490.4 171.2,490.5 171.5,492.9 171.5,494.1 174,491.4 "
         id="XMLID_3054_" />
      <polygon
         style="fill:none"
         points="157.6,485.7 154.2,489.1 158.1,488.7 159.7,491.4 163.5,490.3 164.1,490.4 168.3,486.2 162.7,487.5 158.8,487.3 "
         id="XMLID_3055_" />
      <polygon
         style="fill:none;stroke:#efeeee;stroke-width:1.35880005;stroke-miterlimit:10"
         points="227.1,494.6 226.5,487.9 226.1,484.5 120.2,590.4 127.9,586 134.5,585.2 136.5,585.2 208.1,513.7 209,507.3 215.9,505.9 "
         stroke-miterlimit="10"
         id="XMLID_3056_" />
      <polygon
         style="fill:none;stroke:#efeeee;stroke-width:1.35880005;stroke-miterlimit:10"
         points="118.7,580.3 114.6,584.3 114.7,584.7 224.6,474.8 221.9,475.3 216.7,471.9 216.4,471.7 123.6,564.5 124,564.8 125.2,567.9 124.7,572.4 121.8,575.8 "
         stroke-miterlimit="10"
         id="XMLID_3057_" />
      <polygon
         style="fill:none;stroke:#efeeee;stroke-width:1.35880005;stroke-miterlimit:10"
         points="226.1,484.5 225,474.7 224.6,474.8 114.7,584.7 116,591 115.5,593.3 114.2,594.7 115.3,594.2 119.7,590.7 120.2,590.4 "
         stroke-miterlimit="10"
         id="XMLID_3058_" />
      <polygon
         style="fill:none;stroke:#efeeee;stroke-width:1.35880005;stroke-miterlimit:10"
         points="123.6,564.5 216.4,471.7 212.4,469.3 210,467 116.2,560.7 120.4,561 121.3,562.7 "
         stroke-miterlimit="10"
         id="XMLID_3059_" />
      <polygon
         style="fill:none;stroke:#efeeee;stroke-width:1.35880005;stroke-miterlimit:10"
         points="147.5,585.4 206.3,526.7 208.1,513.7 136.5,585.2 143.9,585.4 "
         stroke-miterlimit="10"
         id="XMLID_3060_" />
      <polygon
         style="fill:none;stroke:#efeeee;stroke-width:1.35880005;stroke-miterlimit:10"
         points="156.7,587.5 204.5,539.6 206.3,526.7 147.5,585.4 154.5,585.6 "
         stroke-miterlimit="10"
         id="XMLID_3061_" />
      <polygon
         style="fill:none;stroke:#efeeee;stroke-width:1.35880005;stroke-miterlimit:10"
         points="178.3,621.9 195.7,604.5 197.5,591.5 174.6,614.4 175.7,616.5 "
         stroke-miterlimit="10"
         id="XMLID_3062_" />
      <polygon
         style="fill:none;stroke:#efeeee;stroke-miterlimit:10"
         points="193.9,617.8 186.3,625.5 192.9,625.5 "
         stroke-miterlimit="10"
         id="XMLID_3063_" />
      <polygon
         style="fill:none;stroke:#efeeee;stroke-width:1.35880005;stroke-miterlimit:10"
         points="227.1,494.6 215.9,505.9 228,503.5 "
         stroke-miterlimit="10"
         id="XMLID_3064_" />
      <polygon
         style="fill:none;stroke:#efeeee;stroke-width:1.35880005;stroke-miterlimit:10"
         points="157.4,463.5 158.9,462 157.9,462 "
         stroke-miterlimit="10"
         id="XMLID_3065_" />
      <polygon
         style="fill:none;stroke:#efeeee;stroke-miterlimit:10"
         points="186.3,625.5 193.9,617.7 195.7,604.6 178.3,622.1 180,625.5 "
         stroke-miterlimit="10"
         id="XMLID_3066_" />
      <polygon
         style="fill:none;stroke:#efeeee;stroke-width:1.35880005;stroke-miterlimit:10"
         points="162.5,592.8 202.8,552.6 204.5,539.6 156.7,587.5 "
         stroke-miterlimit="10"
         id="XMLID_3067_" />
      <polygon
         style="fill:none;stroke:#efeeee;stroke-width:1.35880005;stroke-miterlimit:10"
         points="174.6,614.4 197.5,591.5 199.2,578.6 170.7,607 "
         stroke-miterlimit="10"
         id="XMLID_3068_" />
      <polygon
         style="fill:none;stroke:#efeeee;stroke-width:1.35880005;stroke-miterlimit:10"
         points="168.4,598.2 201,565.6 202.8,552.6 162.5,592.8 "
         stroke-miterlimit="10"
         id="XMLID_3069_" />
      <polygon
         style="fill:none;stroke:#efeeee;stroke-width:1.35880005;stroke-miterlimit:10"
         points="201,565.6 168.4,598.2 170.6,600.1 170.2,605.9 170.7,607 199.2,578.6 "
         stroke-miterlimit="10"
         id="XMLID_3070_" />
      <polygon
         style="fill:none;stroke:#efeeee;stroke-width:1.35880005;stroke-miterlimit:10"
         points="90.9,496.4 82.5,504.8 85.6,506.2 90,508.5 98.5,500 96,497 92.1,496.8 "
         stroke-miterlimit="10"
         id="XMLID_3071_" />
      <polygon
         style="fill:none;stroke:#efeeee;stroke-width:1.35880005;stroke-miterlimit:10"
         points="82.5,504.8 90.9,496.4 88.1,495.2 83,493.8 80.3,496.7 79.8,503.5 "
         stroke-miterlimit="10"
         id="XMLID_3072_" />
      <polygon
         style="fill:none;stroke:#efeeee;stroke-miterlimit:10"
         points="92.4,517.5 106.7,503.1 104.5,501.5 103.2,502.5 100.7,502.5 98.5,499.9 90.2,508.5 91.5,509.1 91.5,514.9 "
         stroke-miterlimit="10"
         id="XMLID_3073_" />
      <polygon
         style="fill:none;stroke:#efeeee;stroke-width:1.35880005;stroke-miterlimit:10"
         points="137.8,483.1 94.2,526.7 94.2,528.2 96.9,533.4 97,535.1 145.8,486.3 "
         stroke-miterlimit="10"
         id="XMLID_3074_" />
      <polygon
         style="fill:none;stroke:#efeeee;stroke-width:1.35880005;stroke-miterlimit:10"
         points="171.3,460.8 168,459.1 164.1,461.7 158.9,462 157.4,463.5 157.3,463.7 151.9,470.5 152.1,472.3 150.1,474.8 151.2,478.3 151.9,480.2 "
         stroke-miterlimit="10"
         id="XMLID_3075_" />
      <polygon
         style="fill:none;stroke:#efeeee;stroke-width:1.35880005;stroke-miterlimit:10"
         points="94.2,526.7 137.8,483.1 129.9,479.8 108.6,501.1 111.5,503.9 108.3,504.4 106.6,503.1 92.2,517.5 92.6,518.5 94,522.4 "
         stroke-miterlimit="10"
         id="XMLID_3076_" />
      <polygon
         style="fill:none;stroke:#efeeee;stroke-width:1.35880005;stroke-miterlimit:10"
         points="100.8,486.5 100.2,486.7 100.1,487.2 "
         stroke-miterlimit="10"
         id="XMLID_3077_" />
      <polygon
         style="fill:none;stroke:#efeeee;stroke-miterlimit:10"
         points="117.5,477.5 113.3,477.5 112.1,476.4 109.9,479 106.8,485.3 102.9,485.7 100.8,486.5 100.1,487.2 99.6,490.2 103.4,495 122.1,476.4 120.5,475.5 "
         stroke-miterlimit="10"
         id="XMLID_3078_" />
      <polygon
         style="fill:none;stroke:#efeeee;stroke-width:1.35880005;stroke-miterlimit:10"
         points="122.1,476.4 103.4,495 106.7,499.2 108.6,501.1 129.9,479.8 123.4,477.2 "
         stroke-miterlimit="10"
         id="XMLID_3079_" />
      <polygon
         style="fill:none;stroke:#efeeee;stroke-miterlimit:10"
         points="171.3,460.9 151.9,480.2 153,483.5 156.2,483.5 157.6,485.6 184.9,458.4 179,459 178,461.5 172.1,461.5 "
         stroke-miterlimit="10"
         id="XMLID_3080_" />
      <polygon
         style="fill:none;stroke:#efeeee;stroke-width:1.35880005;stroke-miterlimit:10"
         points="153,489.3 145.8,486.3 97,535.1 97.3,541 96,543.4 94.2,546.6 96.5,546.8 154.2,489.1 "
         stroke-miterlimit="10"
         id="XMLID_3081_" />
      <polygon
         style="fill:none;stroke:#efeeee;stroke-width:1.35880005;stroke-miterlimit:10"
         points="170.2,495.5 171.7,494.7 171.7,494.1 "
         stroke-miterlimit="10"
         id="XMLID_3082_" />
      <polygon
         style="fill:none;stroke:#efeeee;stroke-width:1.35880005;stroke-miterlimit:10"
         points="170.2,495.5 171.7,494.1 171.5,492.9 171.2,490.5 164.1,490.4 105.1,549.5 105.8,552.2 107.4,558.1 107.6,558.2 165.8,499.9 164.9,498.8 164.7,497 169,496.1 "
         stroke-miterlimit="10"
         id="XMLID_3083_" />
      <polygon
         style="fill:none;stroke:#efeeee;stroke-width:1.35880005;stroke-miterlimit:10"
         points="168.3,486.2 168.7,485.8 "
         stroke-miterlimit="10"
         id="XMLID_3084_" />
      <polygon
         style="fill:none;stroke:#efeeee;stroke-width:1.35880005;stroke-miterlimit:10"
         points="163.5,490.3 159.7,491.4 158.1,488.7 154.2,489.1 96.5,546.8 104.5,547.3 105.1,549.5 164.1,490.4 "
         stroke-miterlimit="10"
         id="XMLID_3085_" />
      <polygon
         style="fill:none;stroke:#efeeee;stroke-width:1.35880005;stroke-miterlimit:10"
         points="172.2,482.3 191.8,462.7 189.6,460.8 187.3,458.2 184.9,458.4 157.6,485.7 158.8,487.3 162.7,487.5 168.3,486.2 168.7,485.8 172.1,482.2 "
         stroke-miterlimit="10"
         id="XMLID_3086_" />
      <polygon
         style="fill:none;stroke:#efeeee;stroke-miterlimit:10"
         points="174.5,492.5 175.8,495 177.6,499.4 175.4,501.2 173.4,499.9 168.5,501 166.2,500.4 165.8,499.9 107.6,558.2 113.9,558.9 116,560.7 116.2,560.7 210,467 205.2,462.5 204.3,461.5 174.5,491.4 "
         stroke-miterlimit="10"
         id="XMLID_3087_" />
      <polygon
         style="fill:none;stroke:#efeeee;stroke-miterlimit:10"
         points="204.3,461.5 201.8,459.3 199.6,457.3 197.9,460.6 194.4,463.9 192,463 191.8,462.7 172.2,482.3 175.4,484.4 176.2,486.6 174.5,487.6 174.5,491.4 "
         stroke-miterlimit="10"
         id="XMLID_3088_" />
    </g>
  </g>
</svg>
