<?xml version="1.0" encoding="UTF-8" standalone="no"?>
<!-- Created with Inkscape (http://www.inkscape.org/) -->

<svg
   xmlns:dc="http://purl.org/dc/elements/1.1/"
   xmlns:cc="http://creativecommons.org/ns#"
   xmlns:rdf="http://www.w3.org/1999/02/22-rdf-syntax-ns#"
   xmlns:svg="http://www.w3.org/2000/svg"
   xmlns="http://www.w3.org/2000/svg"
   xmlns:sodipodi="http://sodipodi.sourceforge.net/DTD/sodipodi-0.dtd"
   xmlns:inkscape="http://www.inkscape.org/namespaces/inkscape"
   width="221.99899"
   height="196.97301"
   viewBox="0 0 58.737232 52.115777"
   version="1.1"
   id="svg8"
   inkscape:version="0.92.2 (5c3e80d, 2017-08-06)"
   sodipodi:docname="4.svg">
  <defs
     id="defs2" />
  <sodipodi:namedview
     id="base"
     pagecolor="#ffffff"
     bordercolor="#666666"
     borderopacity="1.0"
     inkscape:pageopacity="0.0"
     inkscape:pageshadow="2"
     inkscape:zoom="2.8"
     inkscape:cx="186.63294"
     inkscape:cy="72.219001"
     inkscape:document-units="px"
     inkscape:current-layer="layer1"
     showgrid="false"
     units="px"
     inkscape:window-width="1920"
     inkscape:window-height="1027"
     inkscape:window-x="-8"
     inkscape:window-y="-8"
     inkscape:window-maximized="1" />
  <metadata
     id="metadata5">
    <rdf:RDF>
      <cc:Work
         rdf:about="">
        <dc:format>image/svg+xml</dc:format>
        <dc:type
           rdf:resource="http://purl.org/dc/dcmitype/StillImage" />
        <dc:title></dc:title>
      </cc:Work>
    </rdf:RDF>
  </metadata>
  <g
     inkscape:label="Layer 1"
     inkscape:groupmode="layer"
     id="layer1"
     transform="translate(0,-244.88423)">
    <g
       style="opacity:0.1"
       id="XMLID_2412_"
       transform="matrix(0.26458333,0,0,0.26458333,-48.371283,163.56728)">
      <polygon
         style="fill:none"
         points="234.8,325.4 239.1,323.6 240.9,319.3 "
         id="XMLID_2418_" />
      <polygon
         style="fill:none"
         points="296.5,476.6 297.3,478.8 299,482.2 299,483.7 296.7,486.6 296.4,487.8 352,432.2 350.2,430.3 343.1,430 332.2,440.9 327.2,450 323.2,449.9 "
         id="XMLID_2487_" />
      <polygon
         style="fill:none"
         points="188.9,371.1 191,369.2 191,369 "
         id="XMLID_2488_" />
      <polygon
         style="fill:none"
         points="309.2,456.7 293.1,471.9 295.4,474.2 296.5,476.6 323.2,449.9 314.4,449.8 312.7,457.8 "
         id="XMLID_2489_" />
      <polygon
         style="fill:none"
         points="289.5,485.4 288.8,484.5 284.4,489 287,489 288.3,487.2 "
         id="XMLID_2491_" />
      <polygon
         style="fill:none"
         points="317.4,335.3 318.3,331.5 311.5,338.3 313.9,339.6 "
         id="XMLID_2492_" />
      <polygon
         style="fill:none"
         points="332.2,440.9 343.1,430 338.3,429.8 "
         id="XMLID_2493_" />
      <polygon
         style="fill:none"
         points="373.1,366.4 371.2,367.4 369.7,369.8 "
         id="XMLID_2494_" />
      <polygon
         style="fill:none"
         points="208.6,342 208.4,340.5 196.8,352.2 200.4,352.1 "
         id="XMLID_2495_" />
      <polygon
         style="fill:none;stroke:#efeeee;stroke-miterlimit:10"
         points="251.9,498.8 366.2,384.4 366.5,383.5 366.5,379.6 364,376.3 366.8,374.2 369.6,369.8 238,501.5 "
         stroke-miterlimit="10"
         id="XMLID_2496_" />
      <polygon
         style="fill:none;stroke:#efeeee;stroke-width:1.35880005;stroke-miterlimit:10"
         points="323.2,449.9 327.2,450 332.2,440.9 "
         stroke-miterlimit="10"
         id="XMLID_2497_" />
      <polygon
         style="fill:none;stroke:#efeeee;stroke-width:1.35880005;stroke-miterlimit:10"
         points="380.8,403.5 377.9,401.2 379.7,396.9 377.8,395.4 343.1,430 350.2,430.3 352.1,432.2 "
         stroke-miterlimit="10"
         id="XMLID_2498_" />
      <polygon
         style="fill:none;stroke:#efeeee;stroke-miterlimit:10"
         points="323.2,449.9 332.2,440.9 338.3,429.8 343.1,430 377.8,395.4 377.3,395 375.5,395.2 374.2,398 371.6,396.7 368.6,393.3 265.9,496 270.4,495.1 271.4,495.9 273.3,493.6 273.5,493.3 273.5,489.3 276.2,486.4 276.9,485.5 287,484.9 288.7,484.1 288.8,484.3 296.5,476.6 295.4,474.2 293.1,471.9 309.2,456.7 312.7,457.8 314.4,449.8 "
         stroke-miterlimit="10"
         id="XMLID_2499_" />
      <polygon
         style="fill:none;stroke:#efeeee;stroke-width:1.35880005;stroke-miterlimit:10"
         points="368.6,393.3 364.5,388.9 366.3,384.4 251.9,498.8 265.9,496 "
         stroke-miterlimit="10"
         id="XMLID_2500_" />
      <polygon
         style="fill:none;stroke:#efeeee;stroke-width:1.35880005;stroke-miterlimit:10"
         points="393.1,441.3 404.1,433.1 403.7,429.6 401.8,427.3 379.6,449.5 383.6,447.8 389.6,443.5 "
         stroke-miterlimit="10"
         id="XMLID_2501_" />
      <polygon
         style="fill:none;stroke:#efeeee;stroke-width:1.35880005;stroke-miterlimit:10"
         points="376.6,364.4 378.6,362.7 378.4,361.1 373.1,366.4 "
         stroke-miterlimit="10"
         id="XMLID_2502_" />
      <polygon
         style="fill:none;stroke:#efeeee;stroke-width:1.35880005;stroke-miterlimit:10"
         points="352.5,317 352.3,318.9 351.9,320.3 355.2,317 "
         stroke-miterlimit="10"
         id="XMLID_2503_" />
      <polygon
         style="fill:none;stroke:#efeeee;stroke-width:1.35880005;stroke-miterlimit:10"
         points="240.9,319.3 241.3,318.8 241.1,318.9 "
         stroke-miterlimit="10"
         id="XMLID_2504_" />
      <polygon
         style="fill:none;stroke:#efeeee;stroke-miterlimit:10"
         points="400.5,420.1 400.5,419.6 399.6,418.6 367.2,450.8 369.9,452.8 371.9,455.5 378.6,450 379.6,449.5 402.1,427.3 400.5,425.1 "
         stroke-miterlimit="10"
         id="XMLID_2505_" />
      <polygon
         style="fill:none;stroke:#efeeee;stroke-width:1.35880005;stroke-miterlimit:10"
         points="318.3,331.5 319.8,330 318.6,330.2 "
         stroke-miterlimit="10"
         id="XMLID_2506_" />
      <polygon
         style="fill:none;stroke:#efeeee;stroke-width:1.35880005;stroke-miterlimit:10"
         points="395.1,411.7 394.4,410.6 387.5,408 357.5,438 362.9,443.8 "
         stroke-miterlimit="10"
         id="XMLID_2507_" />
      <polygon
         style="fill:none;stroke:#efeeee;stroke-width:1.35880005;stroke-miterlimit:10"
         points="296.5,487.8 291.6,492.8 295.6,491 "
         stroke-miterlimit="10"
         id="XMLID_2508_" />
      <polygon
         style="fill:none;stroke:#efeeee;stroke-width:1.35880005;stroke-miterlimit:10"
         points="395.1,411.7 362.9,443.8 364.7,445.6 365.4,449.5 367.1,450.8 399.4,418.6 "
         stroke-miterlimit="10"
         id="XMLID_2509_" />
      <polygon
         style="fill:none;stroke:#efeeee;stroke-width:1.35880005;stroke-miterlimit:10"
         points="380.8,403.5 352.1,432.2 357.5,438 387.5,408 387.5,407.9 382.7,404.9 "
         stroke-miterlimit="10"
         id="XMLID_2510_" />
      <polygon
         style="fill:none;stroke:#efeeee;stroke-width:1.35880005;stroke-miterlimit:10"
         points="284,489.1 284.4,488.7 283.3,488.7 "
         stroke-miterlimit="10"
         id="XMLID_2511_" />
      <polygon
         style="fill:none;stroke:#efeeee;stroke-miterlimit:10"
         points="296.9,486.6 299.5,483.7 299.5,482.2 297.5,478.8 296.5,476.6 288.8,484.3 289.5,485.3 288.3,486.9 287,488.5 284.4,488.5 284,489 284.4,489.2 286.6,490.4 286.8,493.5 290.4,493.5 291.6,492.9 296.5,487.9 "
         stroke-miterlimit="10"
         id="XMLID_2512_" />
      <polygon
         style="fill:none;stroke:#efeeee;stroke-width:1.35880005;stroke-miterlimit:10"
         points="189.1,371.1 188.6,371.6 "
         stroke-miterlimit="10"
         id="XMLID_2516_" />
      <polygon
         style="fill:none;stroke:#efeeee;stroke-miterlimit:10"
         points="188.5,379.6 190.8,380.5 256.5,314.8 249.7,314.2 246.5,318.1 241.3,318.8 240.9,319.3 239.1,323.6 234.9,325.4 191.5,369 191.5,369.2 189.2,371.1 188.5,371.6 "
         stroke-miterlimit="10"
         id="XMLID_2517_" />
      <polygon
         style="fill:none;stroke:#efeeee;stroke-width:1.35880005;stroke-miterlimit:10"
         points="201.1,381.4 264,318.6 262.2,315.3 256.6,314.8 190.9,380.5 196.4,382.8 199.6,380.7 "
         stroke-miterlimit="10"
         id="XMLID_2519_" />
      <polygon
         style="fill:none;stroke:#efeeee;stroke-miterlimit:10"
         points="206.8,384.3 204.3,389.5 277.5,316.3 275.5,316.1 271.6,321.5 265.7,321.5 264,318.5 201.1,381.4 "
         stroke-miterlimit="10"
         id="XMLID_2520_" />
      <polygon
         style="fill:none;stroke:#efeeee;stroke-width:1.35880005;stroke-miterlimit:10"
         points="287.1,317.9 204.2,400.8 204.4,406.9 206.3,409.9 290.7,325.5 290.4,318.9 "
         stroke-miterlimit="10"
         id="XMLID_2526_" />
      <polygon
         style="fill:none;stroke:#efeeee;stroke-width:1.35880005;stroke-miterlimit:10"
         points="277.5,316.3 204.3,389.5 204,390.2 204.2,400.8 287.1,317.9 283.8,316.9 "
         stroke-miterlimit="10"
         id="XMLID_2527_" />
      <polygon
         style="fill:none;stroke:#efeeee;stroke-width:1.35880005;stroke-miterlimit:10"
         points="214.8,311.7 214,311 210.5,308.3 207,313 207.2,313.3 210.1,316.5 "
         stroke-miterlimit="10"
         id="XMLID_2542_" />
      <polygon
         style="fill:none;stroke:#efeeee;stroke-miterlimit:10"
         points="220.4,317.3 219.1,315.7 214.8,311.7 210.3,316.5 210.5,316.5 210.5,321.2 209.1,324.7 209.1,324.8 205.9,329.4 206.5,331.2 "
         stroke-miterlimit="10"
         id="XMLID_2543_" />
      <polygon
         style="fill:none;stroke:#efeeee;stroke-width:1.35880005;stroke-miterlimit:10"
         points="208.4,340.5 225.4,323.5 220.4,317.3 206.5,331.2 207.6,334.3 "
         stroke-miterlimit="10"
         id="XMLID_2544_" />
      <polygon
         style="fill:none;stroke:#efeeee;stroke-width:1.35880005;stroke-miterlimit:10"
         points="183.5,362.1 183.5,362.2 185.4,363.5 196.8,352.2 186.8,352.3 "
         stroke-miterlimit="10"
         id="XMLID_2545_" />
      <polygon
         style="fill:none;stroke:#efeeee;stroke-miterlimit:10"
         points="234.9,325.4 229,327.9 225.5,323.5 208.4,340.5 208.6,342 200.4,352.1 196.8,352.2 185.6,363.5 191.5,367.4 191.5,369 "
         stroke-miterlimit="10"
         id="XMLID_2546_" />
      <polygon
         style="fill:none;stroke:#efeeee;stroke-width:1.35880005;stroke-miterlimit:10"
         points="355.2,317 351.9,320.3 349.2,330.6 343.3,333.7 337.9,334.3 217.2,455 222.8,457.8 223.1,460.3 360.4,323 360.2,322.6 361,317.2 "
         stroke-miterlimit="10"
         id="XMLID_2547_" />
      <polygon
         style="fill:none;stroke:#efeeee;stroke-miterlimit:10"
         points="367.9,326.8 224.4,470.3 225,474.7 225.6,480.3 368.5,337.5 368.5,337.3 368.5,332.8 370.9,330.4 368,327.1 "
         stroke-miterlimit="10"
         id="XMLID_2555_" />
      <polygon
         style="fill:none;stroke:#efeeee;stroke-width:1.35880005;stroke-miterlimit:10"
         points="290.7,325.5 206.3,409.9 207.4,411.6 205.2,415.7 203.1,420.1 200.5,425.7 200.2,427.3 295.6,331.8 290.8,326.7 "
         stroke-miterlimit="10"
         id="XMLID_2556_" />
      <polygon
         style="fill:none;stroke:#efeeee;stroke-width:1.35880005;stroke-miterlimit:10"
         points="368.3,337.5 225.6,480.3 226.5,487.9 226.7,490.4 373.5,343.6 371.2,340.8 "
         stroke-miterlimit="10"
         id="XMLID_2557_" />
      <polygon
         style="fill:none;stroke:#efeeee;stroke-width:1.35880005;stroke-miterlimit:10"
         points="377.7,354.7 375.5,352.9 375.6,352.7 227.7,500.6 228,503.5 238,501.5 369.7,369.8 371.2,367.4 373.1,366.4 378.4,361.1 "
         stroke-miterlimit="10"
         id="XMLID_2558_" />
      <polygon
         style="fill:none;stroke:#efeeee;stroke-width:1.35880005;stroke-miterlimit:10"
         points="373.5,343.6 226.7,490.4 227.7,500.6 375.6,352.7 375.8,350.1 374,344.3 "
         stroke-miterlimit="10"
         id="XMLID_2559_" />
      <polygon
         style="fill:none;stroke:#efeeee;stroke-width:1.35880005;stroke-miterlimit:10"
         points="367.1,323.9 364.9,321.9 361.7,325.4 360.4,323 223.1,460.3 224.4,470.3 367.9,326.8 "
         stroke-miterlimit="10"
         id="XMLID_2560_" />
      <polygon
         style="fill:none;stroke:#efeeee;stroke-width:1.35880005;stroke-miterlimit:10"
         points="217.2,455 337.9,334.3 332.7,334.9 326.7,334.3 209.5,451.5 "
         stroke-miterlimit="10"
         id="XMLID_2569_" />
      <polygon
         style="fill:none;stroke:#efeeee;stroke-miterlimit:10"
         points="202.5,436.6 202.5,445 203.7,446.3 311.6,338.3 309.6,337.3 305.3,333.7 304.9,333.8 202.3,436.5 "
         stroke-miterlimit="10"
         id="XMLID_2570_" />
      <polygon
         style="fill:none;stroke:#efeeee;stroke-width:1.35880005;stroke-miterlimit:10"
         points="295.6,331.8 200.2,427.3 199.2,431.8 202.2,436.5 304.9,333.8 297.8,334.1 "
         stroke-miterlimit="10"
         id="XMLID_2571_" />
      <polygon
         style="fill:none;stroke:#efeeee;stroke-width:1.35880005;stroke-miterlimit:10"
         points="319.8,330 318.3,331.5 317.4,335.3 313.9,339.6 311.5,338.3 203.5,446.3 208.1,450.8 209.5,451.5 326.7,334.3 324.5,334.1 322.9,329.4 "
         stroke-miterlimit="10"
         id="XMLID_2572_" />
    </g>
  </g>
</svg>
