<?xml version="1.0" encoding="UTF-8" standalone="no"?>
<!-- Created with Inkscape (http://www.inkscape.org/) -->

<svg
   xmlns:dc="http://purl.org/dc/elements/1.1/"
   xmlns:cc="http://creativecommons.org/ns#"
   xmlns:rdf="http://www.w3.org/1999/02/22-rdf-syntax-ns#"
   xmlns:svg="http://www.w3.org/2000/svg"
   xmlns="http://www.w3.org/2000/svg"
   xmlns:sodipodi="http://sodipodi.sourceforge.net/DTD/sodipodi-0.dtd"
   xmlns:inkscape="http://www.inkscape.org/namespaces/inkscape"
   width="160"
   height="210.42"
   viewBox="0 0 42.333332 55.673627"
   version="1.1"
   id="svg8"
   inkscape:version="0.92.2 (5c3e80d, 2017-08-06)"
   sodipodi:docname="5.svg">
  <defs
     id="defs2" />
  <sodipodi:namedview
     id="base"
     pagecolor="#ffffff"
     bordercolor="#666666"
     borderopacity="1.0"
     inkscape:pageopacity="0.0"
     inkscape:pageshadow="2"
     inkscape:zoom="2.8"
     inkscape:cx="186.63294"
     inkscape:cy="72.219001"
     inkscape:document-units="px"
     inkscape:current-layer="layer1"
     showgrid="false"
     units="px"
     inkscape:window-width="1920"
     inkscape:window-height="1027"
     inkscape:window-x="-8"
     inkscape:window-y="-8"
     inkscape:window-maximized="1" />
  <metadata
     id="metadata5">
    <rdf:RDF>
      <cc:Work
         rdf:about="">
        <dc:format>image/svg+xml</dc:format>
        <dc:type
           rdf:resource="http://purl.org/dc/dcmitype/StillImage" />
        <dc:title></dc:title>
      </cc:Work>
    </rdf:RDF>
  </metadata>
  <g
     inkscape:label="Layer 1"
     inkscape:groupmode="layer"
     id="layer1"
     transform="translate(0,-241.32638)">
    <g
       style="opacity:0.1"
       id="XMLID_2419_"
       transform="matrix(0.26458334,0,0,0.26458334,-85.989586,185.68888)">
      <polygon
         style="fill:none"
         points="344.5,282.4 343.8,283.1 "
         id="XMLID_2573_" />
      <polygon
         style="fill:none"
         points="367.6,257.7 362.9,255.4 361,254.7 353.6,261.9 357.4,263 363.6,263 367.4,259.4 "
         id="XMLID_2583_" />
      <polygon
         style="fill:none"
         points="364,263 367.2,260.8 367.4,259.3 363.6,263 "
         id="XMLID_2584_" />
      <polygon
         style="fill:none"
         points="429,221.7 429,220.2 426.4,222.9 426.7,222.9 "
         id="XMLID_2585_" />
      <polygon
         style="fill:none"
         points="414.1,400.6 413.8,403.5 419.6,397.5 419.3,397 415.8,397 "
         id="XMLID_2586_" />
      <polygon
         style="fill:none"
         points="448.8,245.3 448.9,245.1 "
         id="XMLID_2587_" />
      <polygon
         style="fill:none"
         points="378.6,362.7 378.3,360.6 371.8,367.1 376.6,364.4 "
         id="XMLID_2588_" />
      <polygon
         style="fill:none;stroke:#efeeee;stroke-miterlimit:10"
         points="366.9,374.2 364,376.3 366.5,379.6 366.5,383.5 433.5,316.3 433.5,309.8 431.4,307.4 378.3,360.6 378.6,362.7 376.6,364.4 371.8,367.1 370.7,368.2 "
         stroke-miterlimit="10"
         id="XMLID_2597_" />
      <polygon
         style="fill:none;stroke:#efeeee;stroke-miterlimit:10"
         points="433.5,325.5 433.5,316.3 366.5,383.5 364.4,388.9 368.3,392.9 435.5,325.5 "
         stroke-miterlimit="10"
         id="XMLID_2598_" />
      <polygon
         style="fill:none;stroke:#efeeee;stroke-width:1.35880005;stroke-miterlimit:10"
         points="444.6,283.1 375.6,352.1 375.5,352.9 377.7,354.7 378.3,360.6 431.5,307.4 429.5,305.3 439.5,293.8 444.6,283.2 "
         stroke-miterlimit="10"
         id="XMLID_2599_" />
      <polygon
         style="fill:none;stroke:#efeeee;stroke-miterlimit:10"
         points="435.5,325.5 368.3,392.9 371.6,396.7 374.2,398 375.5,395.2 377.3,395 377.4,395.1 445.3,327 444.4,325.5 "
         stroke-miterlimit="10"
         id="XMLID_2600_" />
      <polygon
         style="fill:none;stroke:#efeeee;stroke-width:1.35880005;stroke-miterlimit:10"
         points="370.7,368.2 371.8,367.1 371.2,367.4 "
         stroke-miterlimit="10"
         id="XMLID_2601_" />
      <polygon
         style="fill:none;stroke:#efeeee;stroke-miterlimit:10"
         points="380.5,403.3 450.3,333.5 449.6,333.5 445.3,327.2 377.4,395.1 379.7,396.9 377.9,401.2 "
         stroke-miterlimit="10"
         id="XMLID_2602_" />
      <polygon
         style="fill:none;stroke:#efeeee;stroke-width:1.35880005;stroke-miterlimit:10"
         points="452.5,241.5 448.9,245.1 451.1,243.7 "
         stroke-miterlimit="10"
         id="XMLID_2621_" />
      <polygon
         style="fill:none;stroke:#efeeee;stroke-width:1.35880005;stroke-miterlimit:10"
         points="444.2,395.6 441.9,397.9 442.9,398 "
         stroke-miterlimit="10"
         id="XMLID_2622_" />
      <polygon
         style="fill:none;stroke:#efeeee;stroke-miterlimit:10"
         points="435.5,213.1 429.5,216.2 429.5,220.2 436.8,212.7 "
         stroke-miterlimit="10"
         id="XMLID_2623_" />
      <polygon
         style="fill:none;stroke:#efeeee;stroke-miterlimit:10"
         points="450.3,333.5 380.5,403.3 382.7,404.9 387.2,407.8 460.2,334.8 459.6,333.5 "
         stroke-miterlimit="10"
         id="XMLID_2624_" />
      <polygon
         style="fill:none;stroke:#efeeee;stroke-miterlimit:10"
         points="441.9,397.9 444.2,395.6 446.2,391.9 451.6,387.4 452.2,380.7 459.6,374.4 467.4,367.7 473.5,356 481,350.3 484.5,348.2 484.5,344.1 427.6,400.9 434,401.9 438.6,397.6 "
         stroke-miterlimit="10"
         id="XMLID_2625_" />
      <polygon
         style="fill:none;stroke:#efeeee;stroke-miterlimit:10"
         points="484.5,344.1 484.5,342.5 483.9,342.6 474.2,343.1 419.6,397.7 421.2,399.9 427.6,400.9 "
         stroke-miterlimit="10"
         id="XMLID_2626_" />
      <polygon
         style="fill:none;stroke:#efeeee;stroke-miterlimit:10"
         points="474.2,343.2 470,343.4 465.6,340.6 394.8,411.3 399.1,418.2 413.8,403.5 414.1,400.9 415.8,397.5 419.3,397.5 419.6,397.8 "
         stroke-miterlimit="10"
         id="XMLID_2634_" />
      <polygon
         style="fill:none;stroke:#efeeee;stroke-miterlimit:10"
         points="410.9,406.9 413.7,405.1 413.8,403.5 399.4,418.2 400.5,419.6 400.5,420.1 404.2,419.4 404.7,416.6 405.5,412.9 409.1,411 "
         stroke-miterlimit="10"
         id="XMLID_2635_" />
      <polygon
         style="fill:none;stroke:#efeeee;stroke-width:1.35880005;stroke-miterlimit:10"
         points="394.8,411.3 465.6,340.6 461.6,338 460.2,334.8 387.2,407.8 387.5,407.9 394.4,410.6 "
         stroke-miterlimit="10"
         id="XMLID_2636_" />
      <polygon
         style="fill:none;stroke:#efeeee;stroke-miterlimit:10"
         points="367.2,261 364,263.5 363.6,263.5 344.5,282.5 343.8,283.1 328.7,298.1 331.5,300.1 330,302.6 331.1,305.5 332.1,305.5 416.1,221.7 409.1,221.2 403.6,224.4 402.1,224.7 367.4,259.5 "
         stroke-miterlimit="10"
         id="XMLID_2652_" />
      <polygon
         style="fill:none;stroke:#efeeee;stroke-width:1.35880005;stroke-miterlimit:10"
         points="362.9,255.4 367.6,257.8 367.4,259.5 402.1,224.7 393,226 388.3,228.4 387.1,228.5 361,254.7 "
         stroke-miterlimit="10"
         id="XMLID_2661_" />
      <polygon
         style="fill:none;stroke:#efeeee;stroke-miterlimit:10"
         points="374.9,229.5 352.1,252.3 355.8,252.7 361,254.7 387.1,228.5 375.4,229.5 "
         stroke-miterlimit="10"
         id="XMLID_2662_" />
      <polygon
         style="fill:none;stroke:#efeeee;stroke-miterlimit:10"
         points="341.6,274.1 353.6,262.1 351.5,261.5 347.6,261.5 343.3,265.7 338.6,270.4 "
         stroke-miterlimit="10"
         id="XMLID_2663_" />
      <polygon
         style="fill:none;stroke:#efeeee;stroke-miterlimit:10"
         points="344.5,282.5 363.6,263.5 357.4,263.5 353.6,262.1 341.6,274.1 343.3,276.2 "
         stroke-miterlimit="10"
         id="XMLID_2665_" />
      <polygon
         style="fill:none;stroke:#efeeee;stroke-miterlimit:10"
         points="352.2,252.3 374.9,229.5 373,229.5 364.8,229.5 363.7,229.7 351.1,242.5 356.6,242.5 359,244.3 352.8,247.3 348.5,248 348.5,251.9 "
         stroke-miterlimit="10"
         id="XMLID_2674_" />
      <polygon
         style="fill:none;stroke:#efeeee;stroke-miterlimit:10"
         points="350.7,242.5 351.1,242.5 363.7,229.7 359,229.3 355.8,226.8 355.1,226.9 349.6,232.4 351.1,233.5 349.6,236.6 346,240.3 "
         stroke-miterlimit="10"
         id="XMLID_2675_" />
      <polygon
         style="fill:none;stroke:#efeeee;stroke-width:1.35880005;stroke-miterlimit:10"
         points="350.7,227.2 347.6,231.1 349.6,232.4 355.1,226.9 "
         stroke-miterlimit="10"
         id="XMLID_2676_" />
      <polygon
         style="fill:none;stroke:#efeeee;stroke-miterlimit:10"
         points="445.9,234.8 452.5,229.9 452.5,227.5 447.5,226 447.5,224 451.1,221.4 450.7,220.9 354.6,317 361,317.2 360.2,322.6 360.2,322.7 446.9,236 "
         stroke-miterlimit="10"
         id="XMLID_2687_" />
      <polygon
         style="fill:none;stroke:#efeeee;stroke-miterlimit:10"
         points="448.6,254.8 449.5,252.4 451.9,250.4 448.5,248.1 448.5,245.3 367.6,326.3 368,327.1 370.9,330.4 368.5,332.8 368.5,337.1 449.7,255.8 "
         stroke-miterlimit="10"
         id="XMLID_2688_" />
      <polygon
         style="fill:none;stroke:#efeeee;stroke-miterlimit:10"
         points="328.8,298.1 343.8,283.1 339.4,287.1 331.3,289.5 325.5,293.4 325.5,295.7 "
         stroke-miterlimit="10"
         id="XMLID_2689_" />
      <polygon
         style="fill:none;stroke:#efeeee;stroke-width:1.35880005;stroke-miterlimit:10"
         points="444.9,271.6 373.2,343.3 374,344.3 375.8,350.1 375.6,352.1 444.6,283.1 "
         stroke-miterlimit="10"
         id="XMLID_2690_" />
      <polygon
         style="fill:none;stroke:#efeeee;stroke-miterlimit:10"
         points="450.3,258.5 451.1,257.4 449.7,255.8 368.5,337.1 368.5,337.3 371.4,340.8 373.3,343.3 444.9,271.6 445.1,262.8 446.8,259.3 "
         stroke-miterlimit="10"
         id="XMLID_2744_" />
      <polygon
         style="fill:none;stroke:#efeeee;stroke-miterlimit:10"
         points="367.6,326.3 448.5,245.3 448.8,245.1 452.5,241.5 452.6,241.4 450.7,239.2 447.2,236.4 446.9,236 360.2,322.7 361.7,325.4 364.9,321.9 367.1,323.9 "
         stroke-miterlimit="10"
         id="XMLID_2843_" />
      <polygon
         style="fill:none;stroke:#efeeee;stroke-width:1.35880005;stroke-miterlimit:10"
         points="354.6,317 450.8,220.9 449.6,219.5 448.2,212.3 349,311.4 352.7,314.6 352.5,317 "
         stroke-miterlimit="10"
         id="XMLID_2844_" />
      <polygon
         style="fill:none;stroke:#efeeee;stroke-miterlimit:10"
         points="340.8,308.2 426.4,222.8 416.1,221.7 332.1,305.5 340.2,305.5 "
         stroke-miterlimit="10"
         id="XMLID_2845_" />
      <polygon
         style="fill:none;stroke:#efeeee;stroke-miterlimit:10"
         points="448.1,211.9 442.8,210.8 436.7,212.8 429.5,220.2 429.5,221.7 426.9,222.9 426.5,222.9 340.9,308.5 341.3,310.5 347.6,310.5 349,311.6 448.2,212.3 "
         stroke-miterlimit="10"
         id="XMLID_2846_" />
    </g>
  </g>
</svg>
