<?xml version="1.0" encoding="UTF-8" standalone="no"?>
<!-- Created with Inkscape (http://www.inkscape.org/) -->

<svg
   xmlns:dc="http://purl.org/dc/elements/1.1/"
   xmlns:cc="http://creativecommons.org/ns#"
   xmlns:rdf="http://www.w3.org/1999/02/22-rdf-syntax-ns#"
   xmlns:svg="http://www.w3.org/2000/svg"
   xmlns="http://www.w3.org/2000/svg"
   xmlns:sodipodi="http://sodipodi.sourceforge.net/DTD/sodipodi-0.dtd"
   xmlns:inkscape="http://www.inkscape.org/namespaces/inkscape"
   width="195.037"
   height="183.978"
   viewBox="0 0 51.603539 48.677514"
   version="1.1"
   id="svg8"
   inkscape:version="0.92.2 (5c3e80d, 2017-08-06)"
   sodipodi:docname="6.svg">
  <defs
     id="defs2" />
  <sodipodi:namedview
     id="base"
     pagecolor="#ffffff"
     bordercolor="#666666"
     borderopacity="1.0"
     inkscape:pageopacity="0.0"
     inkscape:pageshadow="2"
     inkscape:zoom="2.8"
     inkscape:cx="186.63294"
     inkscape:cy="72.219001"
     inkscape:document-units="px"
     inkscape:current-layer="layer1"
     showgrid="false"
     units="px"
     inkscape:window-width="1920"
     inkscape:window-height="1027"
     inkscape:window-x="-8"
     inkscape:window-y="-8"
     inkscape:window-maximized="1" />
  <metadata
     id="metadata5">
    <rdf:RDF>
      <cc:Work
         rdf:about="">
        <dc:format>image/svg+xml</dc:format>
        <dc:type
           rdf:resource="http://purl.org/dc/dcmitype/StillImage" />
        <dc:title></dc:title>
      </cc:Work>
    </rdf:RDF>
  </metadata>
  <g
     inkscape:label="Layer 1"
     inkscape:groupmode="layer"
     id="layer1"
     transform="translate(0,-248.32249)">
    <g
       style="opacity:0.1"
       id="XMLID_2359_"
       transform="matrix(0.26458334,0,0,0.26458334,-77.291453,134.78796)">
      <polygon
         style="fill:none"
         points="320,462.4 320,463.8 321.1,464.6 322.2,463.4 321.9,462.5 "
         id="XMLID_2388_" />
      <polygon
         style="fill:none"
         points="306.6,467.6 305.5,468.2 305.4,468.8 "
         id="XMLID_2389_" />
      <polygon
         style="fill:none"
         points="306.6,467.6 305.4,468.8 305.2,470 306.8,472.9 311.7,473.8 316.8,468.7 315.4,466.3 311.7,464.3 308.4,466.7 "
         id="XMLID_2411_" />
      <polygon
         style="fill:none"
         points="314,490.3 315.9,488.1 319,485.7 315.9,484.9 314,484.1 312.3,484.4 308.2,488.4 309.6,488.9 "
         id="XMLID_2420_" />
      <polygon
         style="fill:none"
         points="324.3,449.9 327.2,450 330.9,443.4 "
         id="XMLID_2423_" />
      <polygon
         style="fill:none"
         points="316.8,468.7 311.7,473.8 312.4,473.9 314.8,472.1 315.1,474.5 318.5,477 321,475.5 322,474.1 322.1,474.5 325.4,471.2 323.3,469.5 323.5,466.5 322.8,465.1 322.1,463.4 320.9,464.6 322.2,465.4 321.1,469 316.9,469 "
         id="XMLID_2424_" />
      <polygon
         style="fill:none"
         points="327.7,482.9 328.1,483.1 330.1,480 332.3,478.9 333.6,477.6 334.2,475.5 335,472.8 326,481.8 "
         id="XMLID_2425_" />
      <polygon
         style="fill:none"
         points="333.2,473.5 331.2,473.8 328.9,472.5 326.2,472 325.4,471.2 322.1,474.5 323.4,478 324.9,481.2 326,481.8 335,472.8 335.7,470.2 "
         id="XMLID_2428_" />
      <polygon
         style="fill:none;stroke:#efeeee;stroke-width:1.35880005;stroke-miterlimit:10"
         points="350.1,569.8 430.5,489.4 424.3,484.4 341.5,567.2 344.1,570.7 "
         stroke-miterlimit="10"
         id="XMLID_2429_" />
      <polygon
         style="fill:none;stroke:#efeeee;stroke-width:1.35880005;stroke-miterlimit:10"
         points="440.4,490.7 431.9,490.5 430.5,489.4 350.1,569.8 363.3,567.8 "
         stroke-miterlimit="10"
         id="XMLID_2430_" />
      <polygon
         style="fill:none;stroke:#efeeee;stroke-width:1.35880005;stroke-miterlimit:10"
         points="336.8,560.7 417.6,479.9 410,476.3 332,554.3 "
         stroke-miterlimit="10"
         id="XMLID_2432_" />
      <polygon
         style="fill:none;stroke:#efeeee;stroke-width:1.35880005;stroke-miterlimit:10"
         points="374.9,567.4 451.4,490.9 440.4,490.7 363.3,567.8 372.7,566.4 "
         stroke-miterlimit="10"
         id="XMLID_2433_" />
      <polygon
         style="fill:none;stroke:#efeeee;stroke-miterlimit:10"
         points="464.5,489 455.7,489.2 453.8,490.9 451.4,490.9 374.9,567.4 379.3,569.5 384,569.5 "
         stroke-miterlimit="10"
         id="XMLID_2434_" />
      <polygon
         style="fill:none;stroke:#efeeee;stroke-miterlimit:10"
         points="464.5,489 384,569.5 387.5,569.5 394.3,570.4 470.5,494.3 464.8,489 "
         stroke-miterlimit="10"
         id="XMLID_2435_" />
      <polygon
         style="fill:none;stroke:#efeeee;stroke-width:1.35880005;stroke-miterlimit:10"
         points="424.3,484.4 420,481 417.6,479.9 336.8,560.7 341.5,567.2 "
         stroke-miterlimit="10"
         id="XMLID_2436_" />
      <polygon
         style="fill:none;stroke:#efeeee;stroke-width:1.35880005;stroke-miterlimit:10"
         points="484.7,569.1 484.5,562 485.8,557.4 440.6,602.6 439.9,612.2 440.1,612.3 445.3,608.8 448.3,606 448.8,605.6 479.1,575.3 "
         stroke-miterlimit="10"
         id="XMLID_2445_" />
      <polygon
         style="fill:none;stroke:#efeeee;stroke-width:1.35880005;stroke-miterlimit:10"
         points="469.8,506.1 471,495.1 471.1,494.8 470.5,494.3 394.3,570.4 402.4,571.5 408.3,567.6 "
         stroke-miterlimit="10"
         id="XMLID_2446_" />
      <polygon
         style="fill:none;stroke:#efeeee;stroke-width:1.35880005;stroke-miterlimit:10"
         points="479.1,575.3 448.8,605.6 456.1,599.7 462.6,595.4 469.4,593 474.8,588.6 481.4,584.2 481.8,583.8 477.8,576.7 "
         stroke-miterlimit="10"
         id="XMLID_2447_" />
      <polygon
         style="fill:none;stroke:#efeeee;stroke-width:1.35880005;stroke-miterlimit:10"
         points="481.8,583.9 481.9,583.9 481.8,583.8 481.4,584.2 "
         stroke-miterlimit="10"
         id="XMLID_2448_" />
      <polygon
         style="fill:none;stroke:#efeeee;stroke-width:1.35880005;stroke-miterlimit:10"
         points="485.8,557.4 486.2,555.9 480.8,551.2 441.5,590.5 440.6,602.6 "
         stroke-miterlimit="10"
         id="XMLID_2449_" />
      <polygon
         style="fill:none;stroke:#efeeee;stroke-width:1.35880005;stroke-miterlimit:10"
         points="474.6,523.7 422.2,576.2 427.1,578.5 428.5,581.1 475.1,534.5 474.8,523.9 "
         stroke-miterlimit="10"
         id="XMLID_2450_" />
      <polygon
         style="fill:none;stroke:#efeeee;stroke-width:1.35880005;stroke-miterlimit:10"
         points="433.4,594.2 437.3,591.8 441.6,589.1 441.5,590.5 480.8,551.2 475.4,546.6 475.4,545.4 431.6,589.1 "
         stroke-miterlimit="10"
         id="XMLID_2453_" />
      <polygon
         style="fill:none;stroke:#efeeee;stroke-width:1.35880005;stroke-miterlimit:10"
         points="469.9,517.2 467.6,514.1 469.4,510.4 469.8,506.1 408.3,567.6 412.6,564.8 416.7,570.4 "
         stroke-miterlimit="10"
         id="XMLID_2454_" />
      <polygon
         style="fill:none;stroke:#efeeee;stroke-width:1.35880005;stroke-miterlimit:10"
         points="431.6,589.1 475.4,545.4 475.1,534.5 428.5,581.1 429.5,582.8 "
         stroke-miterlimit="10"
         id="XMLID_2456_" />
      <polygon
         style="fill:none;stroke:#efeeee;stroke-width:1.35880005;stroke-miterlimit:10"
         points="422.2,576.2 474.6,523.7 469.9,517.2 416.7,570.4 420.4,575.4 "
         stroke-miterlimit="10"
         id="XMLID_2457_" />
      <polygon
         style="fill:none;stroke:#efeeee;stroke-width:1.35880005;stroke-miterlimit:10"
         points="358,438.6 325.4,471.2 326.2,472 328.9,472.5 331.2,473.8 333.2,473.5 335.7,470.2 335,472.8 363.5,444.4 "
         stroke-miterlimit="10"
         id="XMLID_2459_" />
      <polygon
         style="fill:none;stroke:#efeeee;stroke-miterlimit:10"
         points="334.2,475.5 333.6,477.6 332.3,478.9 330.1,480 328.1,483.1 327.7,482.9 326,481.8 305.5,502.4 305.5,510.4 304.4,511.5 304.3,514.8 367.8,451.3 365.4,449.5 364.7,445.6 363.5,444.4 335,472.8 "
         stroke-miterlimit="10"
         id="XMLID_2460_" />
      <polygon
         style="fill:none;stroke:#efeeee;stroke-miterlimit:10"
         points="302.2,483.5 311.7,473.9 306.8,472.9 305.2,470 305.4,468.8 299.7,474.7 301.5,474.9 301.5,480.1 301.5,483.5 "
         stroke-miterlimit="10"
         id="XMLID_2462_" />
      <polygon
         style="fill:none;stroke:#efeeee;stroke-miterlimit:10"
         points="314.8,472.1 312.4,473.9 311.7,473.9 302.2,483.5 305.9,483.5 309,485 312.3,484.4 322.1,474.5 322,474.1 321,475.5 318.5,477 315.1,474.5 "
         stroke-miterlimit="10"
         id="XMLID_2463_" />
      <polygon
         style="fill:none;stroke:#efeeee;stroke-miterlimit:10"
         points="326,481.8 324.9,481.2 323.4,478 322.1,474.5 312.3,484.4 314,484.1 315.9,484.9 319,485.7 315.9,488.1 314,490.3 309.6,488.9 308.2,488.4 297.9,498.7 300.8,499.1 302.1,497.9 305.5,499.8 305.5,502.4 "
         stroke-miterlimit="10"
         id="XMLID_2465_" />
      <polygon
         style="fill:none;stroke:#efeeee;stroke-width:1.35880005;stroke-miterlimit:10"
         points="344.2,430 338.3,429.8 330.9,443.4 "
         stroke-miterlimit="10"
         id="XMLID_2466_" />
      <polygon
         style="fill:none;stroke:#efeeee;stroke-width:1.35880005;stroke-miterlimit:10"
         points="323.3,469.5 325.4,471.2 358,438.6 352.6,432.8 322.1,463.4 322.8,465.1 323.5,466.5 "
         stroke-miterlimit="10"
         id="XMLID_2468_" />
      <polygon
         style="fill:none;stroke:#efeeee;stroke-miterlimit:10"
         points="327.2,450 324.3,449.9 306.6,467.6 308.4,466.7 311.7,464.3 315.4,466.3 316.8,468.7 320.8,464.6 319.5,463.8 319.5,462.4 321.6,462.5 322,463.4 352.6,432.8 350.2,430.3 344.2,430 330.9,443.4 "
         stroke-miterlimit="10"
         id="XMLID_2469_" />
      <polygon
         style="fill:none;stroke:#efeeee;stroke-width:1.35880005;stroke-miterlimit:10"
         points="304,522.4 306.1,524.1 373.3,457 372.9,456.9 371.9,455.5 369.9,452.8 367.8,451.3 304.3,514.8 "
         stroke-miterlimit="10"
         id="XMLID_2471_" />
      <polygon
         style="fill:none;stroke:#efeeee;stroke-width:1.35880005;stroke-miterlimit:10"
         points="293.1,471.9 295.4,474.2 299.5,474.7 305.4,468.8 305.5,468.2 306.6,467.6 324.3,449.9 314.4,449.8 312.7,457.8 309.2,456.7 "
         stroke-miterlimit="10"
         id="XMLID_2472_" />
      <polygon
         style="fill:none;stroke:#efeeee;stroke-width:1.35880005;stroke-miterlimit:10"
         points="324.7,539.2 394.7,469.1 387.1,465.6 318.5,534.2 "
         stroke-miterlimit="10"
         id="XMLID_2480_" />
      <polygon
         style="fill:none;stroke:#efeeee;stroke-width:1.35880005;stroke-miterlimit:10"
         points="394.7,469.1 324.7,539.2 324.9,539.4 325.7,545.6 327.3,547.8 402.4,472.7 "
         stroke-miterlimit="10"
         id="XMLID_2481_" />
      <polygon
         style="fill:none;stroke:#efeeee;stroke-width:1.35880005;stroke-miterlimit:10"
         points="380.8,460.7 377.7,457.6 373.3,457 306.1,524.1 312.3,529.1 "
         stroke-miterlimit="10"
         id="XMLID_2482_" />
      <polygon
         style="fill:none;stroke:#efeeee;stroke-width:1.35880005;stroke-miterlimit:10"
         points="387.1,465.6 384.4,464.3 380.8,460.7 312.3,529.1 318.5,534.2 "
         stroke-miterlimit="10"
         id="XMLID_2483_" />
      <polygon
         style="fill:none;stroke:#efeeee;stroke-miterlimit:10"
         points="322.2,465.1 320.9,464.5 316.8,468.4 316.9,468.5 321.1,468.5 "
         stroke-miterlimit="10"
         id="XMLID_2484_" />
      <polygon
         style="fill:none;stroke:#efeeee;stroke-miterlimit:10"
         points="308.2,488.3 307.9,488.3 305.2,487.5 301.5,487.5 299.8,490.6 299.6,493.1 297.5,494 297.9,498.5 "
         stroke-miterlimit="10"
         id="XMLID_2485_" />
      <polygon
         style="fill:none;stroke:#efeeee;stroke-width:1.35880005;stroke-miterlimit:10"
         points="332,554.3 410,476.3 402.4,472.7 327.3,547.8 "
         stroke-miterlimit="10"
         id="XMLID_2486_" />
    </g>
  </g>
</svg>
