<?xml version="1.0" encoding="UTF-8" standalone="no"?>
<!-- Created with Inkscape (http://www.inkscape.org/) -->

<svg
   xmlns:dc="http://purl.org/dc/elements/1.1/"
   xmlns:cc="http://creativecommons.org/ns#"
   xmlns:rdf="http://www.w3.org/1999/02/22-rdf-syntax-ns#"
   xmlns:svg="http://www.w3.org/2000/svg"
   xmlns="http://www.w3.org/2000/svg"
   xmlns:sodipodi="http://sodipodi.sourceforge.net/DTD/sodipodi-0.dtd"
   xmlns:inkscape="http://www.inkscape.org/namespaces/inkscape"
   width="154.687"
   height="100.771"
   viewBox="0 0 40.9276 26.662329"
   version="1.1"
   id="svg8"
   inkscape:version="0.92.2 (5c3e80d, 2017-08-06)"
   sodipodi:docname="7.svg">
  <defs
     id="defs2" />
  <sodipodi:namedview
     id="base"
     pagecolor="#ffffff"
     bordercolor="#666666"
     borderopacity="1.0"
     inkscape:pageopacity="0.0"
     inkscape:pageshadow="2"
     inkscape:zoom="2.8"
     inkscape:cx="186.63294"
     inkscape:cy="72.219001"
     inkscape:document-units="px"
     inkscape:current-layer="layer1"
     showgrid="false"
     units="px"
     inkscape:window-width="1920"
     inkscape:window-height="1027"
     inkscape:window-x="-8"
     inkscape:window-y="-8"
     inkscape:window-maximized="1" />
  <metadata
     id="metadata5">
    <rdf:RDF>
      <cc:Work
         rdf:about="">
        <dc:format>image/svg+xml</dc:format>
        <dc:type
           rdf:resource="http://purl.org/dc/dcmitype/StillImage" />
        <dc:title></dc:title>
      </cc:Work>
    </rdf:RDF>
  </metadata>
  <g
     inkscape:label="Layer 1"
     inkscape:groupmode="layer"
     id="layer1"
     transform="translate(0,-270.33767)">
    <g
       style="opacity:0.1"
       id="XMLID_2574_"
       transform="matrix(0.26458334,0,0,0.26458334,-117.0305,221.23899)">
      <polygon
         style="fill:none"
         points="511.9,240.8 507.7,244.3 506.3,243.8 493.7,256.5 496.2,261.7 496.2,265.1 518.1,243.2 518,242 "
         id="XMLID_2847_" />
      <polygon
         style="fill:none"
         points="448.9,245.1 451.1,243.7 452.5,241.5 "
         id="XMLID_2848_" />
      <polygon
         style="fill:none"
         points="496.1,244.3 490.8,250.5 493.7,256.5 506.3,243.8 502.8,242.6 "
         id="XMLID_2849_" />
      <polygon
         style="fill:none"
         points="470.9,279.2 470,278.6 468.1,282 "
         id="XMLID_2850_" />
      <polygon
         style="fill:none;stroke:#efeeee;stroke-width:1.35880005;stroke-miterlimit:10"
         points="496.2,265.1 483,278.3 496.2,267.8 "
         stroke-miterlimit="10"
         id="XMLID_2851_" />
      <path
         style="fill:none;stroke:#efeeee;stroke-width:1.35880005;stroke-miterlimit:10"
         inkscape:connector-curvature="0"
         d="m 586.3,267.8 c 0,0 0.3,0.1 7.4,0.7 l 1.3,-1.3 -0.5,-1.1 -1.9,-3 3.5,-0.7 0.2,-3 -2.4,-1.3 -1,0.1 -9,9 z"
         stroke-miterlimit="10"
         id="XMLID_2852_" />
      <polygon
         style="fill:none;stroke:#efeeee;stroke-width:1.35880005;stroke-miterlimit:10"
         points="518.5,246.6 522.7,248.4 523.4,249.2 548.2,224.4 547.7,223.7 543.4,228 538.9,222.4 518.1,243.2 "
         stroke-miterlimit="10"
         id="XMLID_2853_" />
      <path
         style="fill:none;stroke:#efeeee;stroke-width:1.35880005;stroke-miterlimit:10"
         inkscape:connector-curvature="0"
         d="m 595.7,268.6 -0.6,-1.5 -1.3,1.3 c 0.5,0.1 1.2,0.2 1.9,0.2 z"
         stroke-miterlimit="10"
         id="XMLID_2854_" />
      <polygon
         style="fill:none;stroke:#efeeee;stroke-width:1.35880005;stroke-miterlimit:10"
         points="468.1,282 465.6,284.5 467,284 "
         stroke-miterlimit="10"
         id="XMLID_2855_" />
      <polygon
         style="fill:none;stroke:#efeeee;stroke-width:1.35880005;stroke-miterlimit:10"
         points="574.2,259.4 576.2,263.6 590.7,249.1 590,248.3 586.3,248.7 585.5,250 584.7,243.9 567.9,260.7 "
         stroke-miterlimit="10"
         id="XMLID_2856_" />
      <polygon
         style="fill:none;stroke:#efeeee;stroke-width:1.35880005;stroke-miterlimit:10"
         points="588.1,256.1 587.4,254.8 589.2,252.6 591.8,250.4 590.7,249.1 576.2,263.6 577.2,265.8 580.3,266 583.9,267.1 592.9,258.1 590.9,258.2 "
         stroke-miterlimit="10"
         id="XMLID_2857_" />
      <polygon
         style="fill:none;stroke:#efeeee;stroke-miterlimit:10"
         points="584.7,243.9 584.6,243.5 584.6,243.4 583.4,242.9 585.3,237.3 588.9,232.5 593.2,232.5 594.3,229.1 591.1,226.2 556.6,260.7 558.1,262.9 566.6,260.9 567.9,260.7 "
         stroke-miterlimit="10"
         id="XMLID_2858_" />
      <polygon
         style="fill:none;stroke:#efeeee;stroke-width:1.35880005;stroke-miterlimit:10"
         points="553.7,256.6 556.6,260.8 591.1,226.2 590,225.3 586.5,229.2 580.6,228.4 579.4,226.8 551.7,254.5 "
         stroke-miterlimit="10"
         id="XMLID_2859_" />
      <path
         style="fill:none;stroke:#efeeee;stroke-miterlimit:10"
         inkscape:connector-curvature="0"
         d="m 549,251.7 2.7,2.8 27.7,-27.8 -2.3,-3.2 H 572 l -0.8,4 -1.2,3.2 -3.5,0.8 v -3.1 l -23.9,23.9 c 2.3,0.1 6.4,-0.6 6.4,-0.6 z"
         stroke-miterlimit="10"
         id="XMLID_2860_" />
      <path
         style="fill:none;stroke:#efeeee;stroke-width:1.35880005;stroke-miterlimit:10"
         inkscape:connector-curvature="0"
         d="m 527.5,254.3 3.7,-4.4 c 0,0 1.1,-0.1 2.6,0 l 29.2,-29.2 -2,-2.1 -6.3,3.9 -4.7,4.7 -1.9,-2.9 -24.8,24.8 z"
         stroke-miterlimit="10"
         id="XMLID_2861_" />
      <path
         style="fill:none;stroke:#efeeee;stroke-miterlimit:10"
         inkscape:connector-curvature="0"
         d="m 541.2,251.9 c 0.1,0.3 0.6,0.4 1.4,0.4 l 23.9,-23.9 v -3.9 l -3.5,-3.8 -29.2,29.2 c 2.8,0 6.8,0.4 7.4,2 z"
         stroke-miterlimit="10"
         id="XMLID_2862_" />
      <polygon
         style="fill:none;stroke:#efeeee;stroke-width:1.35880005;stroke-miterlimit:10"
         points="463.9,285.1 465.6,284.5 468.1,282 470,278.6 470.9,279.2 493.7,256.5 490.8,250.5 496.1,244.3 502.8,242.6 506.3,243.8 542,208.1 538.3,204.1 538,200.9 455.1,283.8 456.3,283.8 "
         stroke-miterlimit="10"
         id="XMLID_2863_" />
      <polygon
         style="fill:none;stroke:#efeeee;stroke-miterlimit:10"
         points="445.9,234.8 446.9,235.7 481.9,200.5 479.2,200.5 464.9,206.5 450.7,220.8 451.1,221.4 447.5,224 447.5,226 452.5,227.5 452.5,229.9 "
         stroke-miterlimit="10"
         id="XMLID_2864_" />
      <polygon
         style="fill:none;stroke:#efeeee;stroke-miterlimit:10"
         points="506.6,187.5 501.5,186.1 498,187.7 491.7,191.6 486.2,196.4 485.5,200.5 481.9,200.5 446.9,235.7 447.2,236.4 450.7,239.2 452.7,241.4 452.5,241.5 "
         stroke-miterlimit="10"
         id="XMLID_2865_" />
      <polygon
         style="fill:none;stroke:#efeeee;stroke-miterlimit:10"
         points="451.9,250.4 449.3,252.4 448.5,254.8 449.5,255.8 514.7,190.5 510.1,188.4 506.6,187.5 452.5,241.5 451.1,243.7 448.8,245.1 448.5,245.3 448.5,248.1 "
         stroke-miterlimit="10"
         id="XMLID_2866_" />
      <polygon
         style="fill:none;stroke:#efeeee;stroke-width:1.35880005;stroke-miterlimit:10"
         points="448.6,211.8 448.2,212.3 449.6,219.5 450.8,220.9 464.9,206.7 462.7,207.6 "
         stroke-miterlimit="10"
         id="XMLID_2867_" />
      <polygon
         style="fill:none;stroke:#efeeee;stroke-width:1.35880005;stroke-miterlimit:10"
         points="448.9,245.1 448.8,245.3 "
         stroke-miterlimit="10"
         id="XMLID_2868_" />
      <polygon
         style="fill:none;stroke:#efeeee;stroke-width:1.35880005;stroke-miterlimit:10"
         points="448.1,211.9 448.2,212.3 448.6,211.8 448.2,211.9 "
         stroke-miterlimit="10"
         id="XMLID_2869_" />
      <polygon
         style="fill:none;stroke:#efeeee;stroke-miterlimit:10"
         points="538.2,221.7 541.5,219 541.5,215.1 542.8,209.2 541.9,208.1 506.3,243.8 507.7,244.3 511.9,240.8 518,242 518.1,243.2 538.9,222.4 "
         stroke-miterlimit="10"
         id="XMLID_2870_" />
      <polygon
         style="fill:none;stroke:#efeeee;stroke-width:1.35880005;stroke-miterlimit:10"
         points="496.2,265.1 496.2,261.7 493.7,256.5 470.9,279.2 476.9,283.2 483,278.3 "
         stroke-miterlimit="10"
         id="XMLID_2871_" />
      <polygon
         style="fill:none;stroke:#efeeee;stroke-width:1.35880005;stroke-miterlimit:10"
         points="444.6,283.2 444.8,282.9 444.6,283.1 "
         stroke-miterlimit="10"
         id="XMLID_2872_" />
      <polygon
         style="fill:none;stroke:#efeeee;stroke-miterlimit:10"
         points="455.1,283.8 538,200.9 537.5,195.5 535.7,192 444.7,282.9 444.5,283.2 444.5,283.4 "
         stroke-miterlimit="10"
         id="XMLID_2873_" />
      <polygon
         style="fill:none;stroke:#efeeee;stroke-width:1.35880005;stroke-miterlimit:10"
         points="527.4,189.2 523.1,194.3 522.5,194 444.9,271.6 444.6,283.1 444.8,282.9 444.9,282.7 444.8,282.9 535.7,192 533.6,188 "
         stroke-miterlimit="10"
         id="XMLID_2874_" />
      <polygon
         style="fill:none;stroke:#efeeee;stroke-width:1.35880005;stroke-miterlimit:10"
         points="451.1,257.4 450.3,258.5 446.8,259.3 445.1,262.8 444.9,271.6 522.5,194 514.7,190.5 449.5,255.8 "
         stroke-miterlimit="10"
         id="XMLID_2875_" />
    </g>
  </g>
</svg>
