<?xml version="1.0" encoding="UTF-8" standalone="no"?>
<!-- Created with Inkscape (http://www.inkscape.org/) -->

<svg
   xmlns:dc="http://purl.org/dc/elements/1.1/"
   xmlns:cc="http://creativecommons.org/ns#"
   xmlns:rdf="http://www.w3.org/1999/02/22-rdf-syntax-ns#"
   xmlns:svg="http://www.w3.org/2000/svg"
   xmlns="http://www.w3.org/2000/svg"
   xmlns:sodipodi="http://sodipodi.sourceforge.net/DTD/sodipodi-0.dtd"
   xmlns:inkscape="http://www.inkscape.org/namespaces/inkscape"
   width="173.819"
   height="114.929"
   viewBox="0 0 45.989609 30.408299"
   version="1.1"
   id="svg8"
   inkscape:version="0.92.2 (5c3e80d, 2017-08-06)"
   sodipodi:docname="8.svg">
  <defs
     id="defs2" />
  <sodipodi:namedview
     id="base"
     pagecolor="#ffffff"
     bordercolor="#666666"
     borderopacity="1.0"
     inkscape:pageopacity="0.0"
     inkscape:pageshadow="2"
     inkscape:zoom="2.8"
     inkscape:cx="186.63294"
     inkscape:cy="72.219001"
     inkscape:document-units="px"
     inkscape:current-layer="layer1"
     showgrid="false"
     units="px"
     inkscape:window-width="1920"
     inkscape:window-height="1027"
     inkscape:window-x="-8"
     inkscape:window-y="-8"
     inkscape:window-maximized="1" />
  <metadata
     id="metadata5">
    <rdf:RDF>
      <cc:Work
         rdf:about="">
        <dc:format>image/svg+xml</dc:format>
        <dc:type
           rdf:resource="http://purl.org/dc/dcmitype/StillImage" />
        <dc:title></dc:title>
      </cc:Work>
    </rdf:RDF>
  </metadata>
  <g
     inkscape:label="Layer 1"
     inkscape:groupmode="layer"
     id="layer1"
     transform="translate(0,-266.5917)">
    <g
       style="opacity:0.1"
       id="XMLID_2678_"
       transform="matrix(0.26458333,0,0,0.26458333,-113.43129,203.07292)">
      <polygon
         style="fill:none"
         points="491.2,337.3 491.1,337.3 493.4,335 492.1,335 "
         id="XMLID_2904_" />
      <polygon
         style="fill:none"
         points="579.1,327.9 577.9,328 577.3,329.7 "
         id="XMLID_2905_" />
      <polygon
         style="fill:none"
         points="483,278.3 496.2,267.8 496.2,265.1 "
         id="XMLID_2906_" />
      <polygon
         style="fill:none"
         points="541,343.1 538,345.8 538,346.1 "
         id="XMLID_2907_" />
      <polygon
         style="fill:none"
         points="470.9,279.2 476.9,283.2 483,278.3 496.2,265.1 496.2,261.7 493.7,256.5 "
         id="XMLID_2908_" />
      <polygon
         style="fill:none"
         points="465.6,284.5 467,284 468.1,282 "
         id="XMLID_2909_" />
      <polygon
         style="fill:none;stroke:#efeeee;stroke-miterlimit:10"
         points="599.9,284.7 600,278.8 598.4,275 521.9,351.4 524.4,351.9 527.8,354.5 529.7,354.5 538.5,346.1 538.5,345.8 541.5,343.1 "
         stroke-miterlimit="10"
         id="XMLID_2910_" />
      <path
         style="fill:none;stroke:#efeeee;stroke-width:1.35880005;stroke-miterlimit:10"
         inkscape:connector-curvature="0"
         d="m 514.2,345.6 0.5,2 79.1,-79.1 c -7.1,-0.6 -7.4,-0.7 -7.4,-0.7 l -2.4,-0.7 -77.5,77.5 z"
         stroke-miterlimit="10"
         id="XMLID_2911_" />
      <polygon
         style="fill:none;stroke:#efeeee;stroke-miterlimit:10"
         points="534.1,354.5 538.5,351.6 538.5,346.1 529.7,354.5 "
         stroke-miterlimit="10"
         id="XMLID_2912_" />
      <path
         style="fill:none;stroke:#efeeee;stroke-miterlimit:10"
         inkscape:connector-curvature="0"
         d="m 515.9,352.5 h 3.7 l 0.2,-1.6 2.1,0.6 76.5,-76.4 -1.9,-4.4 -0.9,-2 c -0.7,-0.1 -1.3,-0.1 -1.9,-0.2 l -79.1,79 z"
         stroke-miterlimit="10"
         id="XMLID_2913_" />
      <polygon
         style="fill:none;stroke:#efeeee;stroke-width:1.35880005;stroke-miterlimit:10"
         points="594.3,312.7 579.1,327.9 584.4,327.4 586.8,322.8 591.5,320.2 595.9,319.6 599.2,317.1 598.3,316.1 597.4,313.1 "
         stroke-miterlimit="10"
         id="XMLID_2914_" />
      <polygon
         style="fill:none;stroke:#efeeee;stroke-width:1.35880005;stroke-miterlimit:10"
         points="583.9,267.1 580.3,266 577.2,265.8 576.2,263.6 500.7,339.1 504.4,344.3 506.5,344.5 "
         stroke-miterlimit="10"
         id="XMLID_2915_" />
      <polygon
         style="fill:none;stroke:#efeeee;stroke-width:1.35880005;stroke-miterlimit:10"
         points="468.1,282 470.9,279.2 470,278.6 "
         stroke-miterlimit="10"
         id="XMLID_2916_" />
      <polygon
         style="fill:none;stroke:#efeeee;stroke-width:1.35880005;stroke-miterlimit:10"
         points="597.2,294.6 599.8,290.1 599.9,284.7 541.5,343.1 545.4,339.7 554.5,333 558.6,334.1 558.9,336.9 597.7,298.1 597.6,297.9 "
         stroke-miterlimit="10"
         id="XMLID_2917_" />
      <polygon
         style="fill:none;stroke:#efeeee;stroke-width:1.35880005;stroke-miterlimit:10"
         points="594.3,312.7 593.9,312.6 598.9,304.2 601.5,302.7 597.7,298.1 558.9,336.9 559.5,342.7 563.8,343.2 577.3,329.7 577.9,328 579.1,327.9 "
         stroke-miterlimit="10"
         id="XMLID_2918_" />
      <polygon
         style="fill:none;stroke:#efeeee;stroke-width:1.35880005;stroke-miterlimit:10"
         points="569.9,337.5 575.9,333.9 577.3,329.7 563.8,343.2 565.5,343.4 "
         stroke-miterlimit="10"
         id="XMLID_2919_" />
      <polygon
         style="fill:none;stroke:#efeeee;stroke-width:1.35880005;stroke-miterlimit:10"
         points="496.1,244.3 490.8,250.5 493.7,256.5 506.3,243.8 502.8,242.6 "
         stroke-miterlimit="10"
         id="XMLID_2920_" />
      <polygon
         style="fill:none;stroke:#efeeee;stroke-width:1.35880005;stroke-miterlimit:10"
         points="496.2,265.1 518.1,243.2 518,242 511.9,240.8 507.7,244.3 506.3,243.8 493.7,256.5 496.2,261.7 "
         stroke-miterlimit="10"
         id="XMLID_2921_" />
      <polygon
         style="fill:none;stroke:#efeeee;stroke-miterlimit:10"
         points="465.5,284.5 433.5,316.3 433.5,325.5 435.5,325.5 483,278.2 476.9,283.1 470.9,279.2 468.1,282 467,284 "
         stroke-miterlimit="10"
         id="XMLID_2922_" />
      <polygon
         style="fill:none;stroke:#efeeee;stroke-miterlimit:10"
         points="522.7,248.3 518.5,246.6 518.1,243.2 496.2,265.1 496.2,267.8 483,278.2 435.5,325.5 444.4,325.5 445.3,327 523.4,249.1 "
         stroke-miterlimit="10"
         id="XMLID_2923_" />
      <polygon
         style="fill:none;stroke:#efeeee;stroke-miterlimit:10"
         points="455.1,283.8 444.5,283.4 444.5,283.2 439.4,293.8 429.4,305.3 431.5,307.4 "
         stroke-miterlimit="10"
         id="XMLID_2924_" />
      <polygon
         style="fill:none;stroke:#efeeee;stroke-miterlimit:10"
         points="465.5,284.5 463.8,285.1 456.3,283.8 455.1,283.8 431.3,307.4 433.5,309.8 433.5,316.3 "
         stroke-miterlimit="10"
         id="XMLID_2925_" />
      <path
         style="fill:none;stroke:#efeeee;stroke-miterlimit:10"
         inkscape:connector-curvature="0"
         d="m 449.6,333.5 h 0.7 l 83.5,-83.6 c -1.5,0 -2.6,0 -2.6,0 l -3.7,4.4 -4.2,-5.2 -78,78.1 z"
         stroke-miterlimit="10"
         id="XMLID_2926_" />
      <polygon
         style="fill:none;stroke:#efeeee;stroke-miterlimit:10"
         points="567.9,260.9 493.4,335.5 497.9,335.5 500.7,339.2 576.2,263.7 574.2,259.5 "
         stroke-miterlimit="10"
         id="XMLID_2927_" />
      <polygon
         style="fill:none;stroke:#efeeee;stroke-miterlimit:10"
         points="491.2,337.5 492.1,335.5 493.4,335.5 567.9,260.9 566.6,261 558.1,263 556.6,260.8 474,343.1 483.5,342.6 483.5,342.5 487.1,341.3 491.1,337.4 "
         stroke-miterlimit="10"
         id="XMLID_2928_" />
      <polygon
         style="fill:none;stroke:#efeeee;stroke-width:1.35880005;stroke-miterlimit:10"
         points="491.1,337.4 487.3,341.3 488,341 "
         stroke-miterlimit="10"
         id="XMLID_2929_" />
      <polygon
         style="fill:none;stroke:#efeeee;stroke-width:1.35880005;stroke-miterlimit:10"
         points="551.7,254.5 465.6,340.6 470,343.4 474.2,343.1 556.6,260.8 553.7,256.6 "
         stroke-miterlimit="10"
         id="XMLID_2930_" />
      <path
         style="fill:none;stroke:#efeeee;stroke-width:1.35880005;stroke-miterlimit:10"
         inkscape:connector-curvature="0"
         d="m 461.6,338 4,2.6 86.1,-86.1 -2.7,-2.8 c 0,0 -4.1,0.7 -6.3,0.7 l -82.5,82.5 z"
         stroke-miterlimit="10"
         id="XMLID_2931_" />
      <path
         style="fill:none;stroke:#efeeee;stroke-miterlimit:10"
         inkscape:connector-curvature="0"
         d="m 459.6,333.5 0.6,1.3 82.5,-82.5 c -0.8,0 -1.3,-0.1 -1.4,-0.4 -0.7,-1.6 -4.6,-2 -7.4,-2 l -83.5,83.6 z"
         stroke-miterlimit="10"
         id="XMLID_2932_" />
    </g>
  </g>
</svg>
