<svg width="80" height="80" viewBox="0 0 80 80" fill="none"
  xmlns="http://www.w3.org/2000/svg">
  <rect width="80" height="80" rx="25" fill="white"/>
  <path fill-rule="evenodd" clip-rule="evenodd" d="M40 58C49.9411 58 58 49.9411 58 40C58 30.0589 49.9411 22 40 22C30.0589 22 22 30.0589 22 40C22 49.9411 30.0589 58 40 58ZM40 60C51.0457 60 60 51.0457 60 40C60 28.9543 51.0457 20 40 20C28.9543 20 20 28.9543 20 40C20 51.0457 28.9543 60 40 60ZM40 54C47.732 54 54 47.732 54 40C54 32.268 47.732 26 40 26C32.268 26 26 32.268 26 40C26 47.732 32.268 54 40 54ZM40 56C48.8366 56 56 48.8366 56 40C56 31.1634 48.8366 24 40 24C31.1634 24 24 31.1634 24 40C24 48.8366 31.1634 56 40 56ZM52 40C52 46.6274 46.6274 52 40 52C33.3726 52 28 46.6274 28 40C28 33.3726 33.3726 28 40 28C46.6274 28 52 33.3726 52 40ZM43 40C43 41.6569 41.6569 43 40 43C38.3431 43 37 41.6569 37 40C37 38.3431 38.3431 37 40 37C41.6569 37 43 38.3431 43 40Z" fill="#FF5E78"/>
</svg>
