<svg width="80" height="80" viewBox="0 0 80 80" fill="none"
  xmlns="http://www.w3.org/2000/svg">
  <rect width="80" height="80" rx="25" fill="white"/>
  <path fill-rule="evenodd" clip-rule="evenodd" d="M23.684 27.4693C23.3063 26.4314 23.8414 25.2837 24.8794 24.9059L38.0351 20.1176C39.0731 19.7398 40.2207 20.275 40.5985 21.313L45.3868 34.4687C45.7646 35.5066 45.2294 36.6543 44.1915 37.0321L31.0358 41.8204C29.9978 42.1982 28.8501 41.663 28.4724 40.625L23.684 27.4693ZM45.5294 37.6841C44.4915 37.3062 43.3438 37.8414 42.9659 38.8794L38.1777 52.0351C37.7999 53.073 38.3351 54.2207 39.373 54.5985L52.5287 59.3868C53.5667 59.7646 54.7144 59.2294 55.0922 58.1914L59.8804 45.0357C60.2582 43.9978 59.723 42.8501 58.6851 42.4723L45.5294 37.6841ZM22 42C20.8954 42 20 42.8955 20 44V58C20 59.1046 20.8954 60 22 60H36C37.1046 60 38 59.1046 38 58V44C38 42.8955 37.1046 42 36 42H22ZM25.3487 55.9913C25.3595 55.9938 25.3705 55.9957 25.3818 55.9971C25.3968 55.999 25.4122 55.9999 25.428 55.9999H29.614C30.6686 55.9999 31.49 55.734 32.078 55.202C32.666 54.67 32.96 53.9699 32.96 53.102C32.96 52.5886 32.8246 52.1313 32.554 51.73C32.2833 51.3286 31.952 51.0393 31.56 50.8619C31.8773 50.7126 32.1526 50.4699 32.386 50.1339C32.6287 49.7886 32.75 49.3733 32.75 48.8879C32.75 48.0573 32.4793 47.404 31.938 46.9279C31.3967 46.4426 30.58 46.2 29.488 46.2H25.428C25.3253 46.2 25.2413 46.2326 25.176 46.2979C25.12 46.3633 25.092 46.4473 25.092 46.55V55.6639C25.092 55.7573 25.1246 55.8366 25.19 55.902C25.236 55.9479 25.2889 55.9777 25.3487 55.9913ZM30.328 49.868C30.076 50.1013 29.712 50.218 29.236 50.218H27.066V47.6979H29.236C29.7213 47.6979 30.09 47.8053 30.342 48.02C30.594 48.2346 30.72 48.538 30.72 48.93C30.72 49.322 30.5893 49.6346 30.328 49.868ZM30.51 54.11C30.2393 54.3713 29.8613 54.502 29.376 54.502H27.066V51.674H29.376C29.852 51.674 30.2253 51.8093 30.496 52.08C30.776 52.3413 30.916 52.6773 30.916 53.088C30.916 53.4986 30.7806 53.8393 30.51 54.11ZM31.9067 36.4685C31.8278 36.4973 31.7524 36.4949 31.6806 36.4614C31.6088 36.4279 31.5586 36.3718 31.5298 36.2928L31.5131 36.1649L31.582 26.5302C31.5899 26.2791 31.7079 26.112 31.9359 26.029L33.3831 25.5023C33.6111 25.4193 33.8088 25.4714 33.9763 25.6588L40.2222 32.995L40.2916 33.1038C40.3203 33.1828 40.3135 33.2597 40.2713 33.3347C40.2379 33.4065 40.186 33.4551 40.1158 33.4807L38.945 33.9068C38.7608 33.9738 38.6033 33.9368 38.4725 33.7957L37.288 32.4241L33.3939 33.8415L33.3681 35.6536C33.3586 35.8457 33.2617 35.9753 33.0776 36.0424L31.9067 36.4685ZM33.2989 32.1478L36.272 31.0657L33.3107 27.5548L33.2989 32.1478ZM45.1039 51.0683C45.547 51.9249 46.3737 52.5734 47.584 53.0139C48.3646 53.298 49.0922 53.4139 49.7668 53.3614C50.4446 53.3002 51.026 53.0947 51.5109 52.7448C52.0046 52.398 52.3656 51.9384 52.5938 51.366C52.6313 51.2902 52.629 51.2149 52.5867 51.1399C52.5532 51.0681 52.497 51.0179 52.4181 50.9891L51.142 50.5247C51.0367 50.4864 50.9482 50.4839 50.8765 50.5174C50.8079 50.5421 50.7337 50.6095 50.6539 50.7195C50.3245 51.2154 49.9516 51.5167 49.5353 51.6234C49.131 51.7246 48.6657 51.6794 48.1395 51.4879C46.8853 51.0314 46.4873 50.0919 46.9454 48.6695C47.0292 48.412 47.1605 48.0376 47.3393 47.5465C47.5181 47.0553 47.6549 46.6929 47.7499 46.4593C48.3132 45.0752 49.222 44.6114 50.4762 45.0679C51.0112 45.2626 51.3994 45.533 51.6409 45.8792C51.8857 46.2166 51.9748 46.6811 51.9084 47.2727C51.8989 47.4083 51.9108 47.5119 51.9443 47.5837C51.9809 47.6467 52.0519 47.6974 52.1571 47.7357L53.4332 48.2001C53.5034 48.2257 53.5728 48.2261 53.6414 48.2014C53.7219 48.1711 53.7749 48.1209 53.8005 48.0508L53.8101 48.0244C54.0032 47.4392 54.0221 46.8551 53.8668 46.2722C53.7202 45.6924 53.4054 45.1656 52.9223 44.6918C52.4424 44.2093 51.8122 43.8259 51.0316 43.5418C49.8301 43.1045 48.7811 43.0803 47.8847 43.4691C46.9915 43.8492 46.3187 44.5926 45.8662 45.6993C45.7681 45.9417 45.6201 46.3347 45.4221 46.8785C45.2274 47.4135 45.0913 47.801 45.0139 48.041C44.6428 49.1971 44.6728 50.2062 45.1039 51.0683Z" fill="#FF5E78"/>
</svg>
