<svg width="80" height="80" viewBox="0 0 80 80" fill="none"
  xmlns="http://www.w3.org/2000/svg">
  <rect width="80" height="80" rx="25" fill="white"/>
  <path fill-rule="evenodd" clip-rule="evenodd" d="M20 30C20 24.4772 24.4772 20 30 20H50C55.5228 20 60 24.4772 60 30V41C60 46.5228 55.5228 51 50 51H39.9931L26.1799 59.3474C23.5189 61.0765 20 59.1674 20 55.9945V41V36V30ZM30 38C31.3807 38 32.5 36.8807 32.5 35.5C32.5 34.1193 31.3807 33 30 33C28.6193 33 27.5 34.1193 27.5 35.5C27.5 36.8807 28.6193 38 30 38ZM40 38C41.3807 38 42.5 36.8807 42.5 35.5C42.5 34.1193 41.3807 33 40 33C38.6193 33 37.5 34.1193 37.5 35.5C37.5 36.8807 38.6193 38 40 38ZM52.5 35.5C52.5 36.8807 51.3807 38 50 38C48.6193 38 47.5 36.8807 47.5 35.5C47.5 34.1193 48.6193 33 50 33C51.3807 33 52.5 34.1193 52.5 35.5Z" fill="#FF5E78"/>
</svg>
