<svg width="920" height="656" viewBox="0 0 920 656" fill="none"
  xmlns="http://www.w3.org/2000/svg">
  <path fill-rule="evenodd" clip-rule="evenodd" d="M506.406 44.4838C506.406 52.1828 498.07 56.9939 491.404 53.1429L461.832 36.0606C455.167 32.2109 455.168 22.5909 461.832 18.7418L491.405 1.66338C498.071 -2.18673 506.406 2.62444 506.406 10.323V44.4838ZM272.146 63.7528C272.146 71.4519 280.481 76.263 287.148 72.4118L332.766 46.0597C339.429 42.2103 339.43 32.5918 332.767 28.742L287.149 2.38509C280.482 -1.46674 272.146 3.34432 272.146 11.0437V63.7528ZM227.281 62.6065C227.281 70.3055 218.945 75.1167 212.279 71.2656L168.646 46.0609C161.982 42.2114 161.982 32.5922 168.646 28.7426L212.279 3.53788C218.945 -0.313142 227.281 4.498 227.281 12.197V62.6065ZM15.0016 48.4248C8.33496 52.2753 0.00012207 47.4642 0.00012207 39.7654V15.0413C0.00012207 7.34301 8.33392 2.5318 15.0006 6.38132L36.4066 18.7418C43.0722 22.5906 43.0728 32.2115 36.4077 36.0611L15.0016 48.4248ZM14.9999 165.727C8.33319 161.878 0 166.689 0 174.387V208.302C0 216.001 8.33575 220.812 15.0024 216.96L44.3641 199.998C51.0287 196.147 51.0272 186.527 44.3616 182.678L14.9999 165.727ZM24.744 264.652C18.0795 268.502 18.0795 278.121 24.744 281.971L71.3735 308.904C78.0401 312.755 86.3751 307.944 86.3751 300.245V246.378C86.3751 238.679 78.0401 233.868 71.3735 237.719L24.744 264.652ZM0 372.239C0 379.938 8.3349 384.749 15.0016 380.899L44.3649 363.939C51.0295 360.089 51.0295 350.469 44.3649 346.62L15.0016 329.66C8.3349 325.809 0 330.62 0 338.319V372.239ZM29.9811 100.709C23.3162 104.559 23.3162 114.179 29.9811 118.028L68.7394 140.413C75.4061 144.264 83.7408 139.453 83.7408 131.754V86.9834C83.7408 79.2847 75.4061 74.4735 68.7394 78.3239L29.9811 100.709ZM124.609 309.412C124.609 317.111 132.944 321.922 139.61 318.071L202.111 281.97C208.776 278.121 208.776 268.501 202.111 264.651L139.61 228.55C132.944 224.699 124.609 229.511 124.609 237.209V309.412ZM30.5519 428.586C23.8878 432.436 23.8882 442.056 30.5526 445.905L68.4529 467.795C75.1196 471.645 83.4543 466.834 83.4543 459.136V415.351C83.4543 407.652 75.1188 402.841 68.4521 406.692L30.5519 428.586ZM15.0027 497.821C8.33606 493.969 0.000183105 498.781 0.000183105 506.48V531.959C0.000183105 539.657 8.33508 544.469 15.0018 540.618L37.0549 527.88C43.719 524.031 43.7195 514.412 37.0558 510.562L15.0027 497.821ZM194.95 100.709C201.613 104.559 201.613 114.177 194.95 118.027L143.197 147.927C136.531 151.778 128.195 146.967 128.195 139.268V79.4683C128.195 71.769 136.531 66.9579 143.197 70.8095L194.95 100.709ZM235.05 230.03C235.05 237.73 226.714 242.541 220.047 238.688L153.089 199.996C146.426 196.146 146.427 186.528 153.091 182.679L220.049 144.003C226.715 140.152 235.05 144.963 235.05 152.662V230.03ZM235.693 395.075C235.693 402.775 227.358 407.586 220.691 403.734L151.805 363.938C145.141 360.088 145.141 350.47 151.805 346.62L220.691 306.824C227.358 302.972 235.693 307.783 235.693 315.483V395.075ZM194.819 428.588C201.484 432.437 201.485 442.057 194.82 445.907L143.243 475.699C136.576 479.55 128.241 474.739 128.241 467.04V407.466C128.241 399.768 136.575 394.957 143.242 398.806L194.819 428.588ZM78.5441 614.56C78.5441 622.259 70.2086 627.07 63.5419 623.219L40.3982 609.849C33.7339 605.999 33.7345 596.38 40.3992 592.531L63.5429 579.164C70.2095 575.314 78.5441 580.125 78.5441 587.824V614.56ZM261.944 235.364C261.944 243.063 270.28 247.874 276.947 244.023L353.152 199.996C359.815 196.146 359.815 186.527 353.151 182.678L276.946 138.663C270.279 134.812 261.944 139.624 261.944 147.322V235.364ZM280.747 264.653C274.082 268.502 274.082 278.121 280.746 281.971L369.072 332.996C375.739 336.847 384.074 332.036 384.074 324.337V222.299C384.074 214.6 375.74 209.789 369.073 213.639L280.747 264.653ZM259.086 404.244C259.086 411.943 267.421 416.754 274.088 412.903L358.852 363.938C365.516 360.089 365.516 350.47 358.852 346.62L274.088 297.655C267.421 293.804 259.086 298.615 259.086 306.314V404.244ZM164.896 510.562C158.233 514.412 158.232 524.031 164.896 527.88L214.146 556.331C220.813 560.183 229.148 555.372 229.148 547.672V490.77C229.148 483.071 220.813 478.26 214.146 482.111L164.896 510.562ZM135.499 618.404C135.499 626.103 143.835 630.914 150.501 627.063L180.299 609.849C186.963 606 186.963 596.38 180.298 592.531L150.5 575.321C143.834 571.471 135.499 576.282 135.499 583.981V618.404ZM375.477 145.47C375.477 153.169 367.142 157.98 360.475 154.129L297.975 118.028C291.31 114.179 291.311 104.559 297.976 100.709L360.475 64.614C367.142 60.7638 375.477 65.575 375.477 73.2736V145.47ZM502.405 264.652C509.07 268.502 509.07 278.122 502.406 281.971L415.18 332.354C408.514 336.205 400.179 331.394 400.179 323.695V222.934C400.179 215.236 408.513 210.425 415.18 214.275L502.405 264.652ZM382.742 485.955C382.742 493.654 374.407 498.465 367.74 494.614L283.427 445.907C276.763 442.057 276.763 432.437 283.428 428.588L367.741 379.898C374.408 376.048 382.742 380.859 382.742 388.558V485.955ZM346.52 510.562C353.185 514.412 353.185 524.031 346.52 527.881L280.254 566.159C273.587 570.01 265.252 565.199 265.252 557.5V480.943C265.252 473.244 273.587 468.433 280.254 472.284L346.52 510.562ZM482.288 100.709C488.953 104.558 488.953 114.179 482.288 118.028L425.226 150.984C418.559 154.834 410.225 150.023 410.225 142.325V76.4127C410.225 68.714 418.559 63.9029 425.226 67.7532L482.288 100.709ZM519.636 231.342C519.636 239.041 511.301 243.852 504.634 240.001L435.379 199.996C428.715 196.146 428.715 186.526 435.38 182.677L504.635 142.683C511.302 138.833 519.636 143.644 519.636 151.342V231.342ZM527.158 408.329C527.158 416.028 518.823 420.839 512.156 416.988L420.314 363.939C413.65 360.089 413.65 350.469 420.314 346.62L512.156 293.577C518.823 289.726 527.158 294.538 527.158 302.236V408.329ZM505.169 428.587C511.834 432.436 511.834 442.057 505.17 445.906L413.793 498.684C407.126 502.535 398.792 497.724 398.792 490.025V384.474C398.792 376.776 407.126 371.964 413.793 375.815L505.169 428.587ZM374.33 635.307C374.33 643.006 365.995 647.817 359.328 643.966L300.259 609.849C293.594 605.999 293.594 596.379 300.259 592.53L359.328 558.412C365.995 554.561 374.33 559.373 374.33 567.071V635.307ZM620.678 182.677C627.343 186.526 627.343 196.146 620.679 199.996L568.914 229.902C562.247 233.754 553.911 228.943 553.911 221.243V161.441C553.911 153.742 562.246 148.931 568.913 152.781L620.678 182.677ZM657.723 306.701C657.723 314.4 649.388 319.211 642.721 315.36L584.913 281.97C578.249 278.121 578.249 268.502 584.913 264.652L642.721 231.257C649.387 227.406 657.723 232.217 657.723 239.916V306.701ZM640.803 346.62C647.467 350.469 647.467 360.089 640.803 363.938L558.836 411.284C552.169 415.135 543.834 410.324 543.834 402.625V307.933C543.834 300.234 552.169 295.423 558.836 299.274L640.803 346.62ZM525.337 569.102C525.337 576.8 517.002 581.612 510.335 577.761L423.976 527.88C417.312 524.031 417.311 514.411 423.976 510.562L510.335 460.675C517.001 456.824 525.337 461.635 525.337 469.334V569.102ZM490.346 592.53C497.011 596.38 497.011 605.999 490.346 609.849L421.207 649.786C414.54 653.637 406.205 648.826 406.205 641.127V561.252C406.205 553.553 414.54 548.742 421.207 552.593L490.346 592.53ZM595.234 18.7429C601.899 22.5919 601.899 32.2111 595.236 36.0611L581.634 43.9196C574.967 47.7712 566.631 42.9601 566.631 35.2608V19.5463C566.631 11.8475 574.966 7.03636 581.632 10.8868L595.234 18.7429ZM645.677 121.886C645.677 129.585 637.342 134.396 630.675 130.545L609.012 118.029C602.347 114.179 602.348 104.559 609.014 100.71L630.677 88.2014C637.344 84.3519 645.677 89.1631 645.677 96.8614V121.886ZM752.629 264.653C759.294 268.502 759.294 278.122 752.63 281.971L715.784 303.254C709.118 307.105 700.782 302.294 700.782 294.595V252.034C700.782 244.335 709.117 239.524 715.783 243.374L752.629 264.653ZM665.802 484.623C665.802 492.322 657.467 497.133 650.8 493.282L568.781 445.907C562.116 442.057 562.117 432.437 568.782 428.588L650.801 381.223C657.467 377.373 665.802 382.184 665.802 389.883V484.623ZM644.554 510.563C651.217 514.412 651.217 524.031 644.554 527.881L556.962 578.481C550.295 582.332 541.96 577.521 541.96 569.822V468.622C541.96 460.923 550.295 456.112 556.962 459.963L644.554 510.563ZM730.66 100.714C737.321 104.563 737.323 114.178 730.663 118.029L726.78 120.274C720.113 124.13 711.774 119.319 711.774 111.618V107.128C711.774 99.4289 720.11 94.6178 726.777 98.4699L730.66 100.714ZM783.881 197.437C783.881 205.136 775.545 209.947 768.878 206.095L758.323 199.997C751.659 196.147 751.66 186.527 758.326 182.678L768.881 176.585C775.547 172.736 783.881 177.547 783.881 185.245V197.437ZM795.267 381.125C795.267 388.824 786.931 393.635 780.264 389.784L735.529 363.937C728.866 360.088 728.866 350.469 735.529 346.62L780.264 320.773C786.931 316.922 795.267 321.733 795.267 329.432V381.125ZM772.52 428.587C779.185 432.436 779.185 442.056 772.52 445.906L705.83 484.425C699.164 488.276 690.829 483.464 690.829 475.766V398.733C690.829 391.034 699.163 386.223 705.83 390.073L772.52 428.587ZM664.12 645.675C664.12 653.374 655.785 658.185 649.118 654.334L572.108 609.848C565.444 605.999 565.444 596.38 572.108 592.53L649.118 548.044C655.785 544.193 664.12 549.004 664.12 556.703V645.675ZM869.467 183.566C875.448 187.02 875.449 195.653 869.468 199.109C863.485 202.566 856.003 198.248 856.003 191.338C856.003 184.428 863.483 180.11 869.467 183.566ZM903.148 281.969C896.484 278.12 896.483 268.5 903.147 264.65L904.997 263.581C911.664 259.729 920 264.54 920 272.24V274.378C920 282.076 911.666 286.888 904.999 283.038L903.148 281.969ZM844.81 372.887C844.81 380.587 853.146 385.398 859.813 381.546L890.287 363.939C896.951 360.089 896.95 350.47 890.286 346.621L859.812 329.018C853.146 325.167 844.81 329.978 844.81 337.677V372.887ZM721.924 510.562C715.26 514.412 715.26 524.031 721.924 527.881L787.082 565.517C793.748 569.367 802.083 564.556 802.083 556.857V481.586C802.083 473.887 793.748 469.076 787.082 472.927L721.924 510.562ZM690.728 639.902C690.728 647.601 699.063 652.412 705.73 648.562L772.755 609.848C779.42 605.999 779.42 596.379 772.756 592.53L705.731 553.811C699.064 549.959 690.728 554.77 690.728 562.47V639.902ZM920 423.594C920 415.896 911.665 411.084 904.999 414.935L881.359 428.588C874.694 432.437 874.694 442.056 881.358 445.906L904.998 459.562C911.664 463.414 920 458.603 920 450.903V423.594ZM904.108 510.562C910.773 514.412 910.773 524.032 904.108 527.881L852.91 557.451C846.243 561.301 837.909 556.49 837.909 548.791V489.652C837.909 481.954 846.243 477.143 852.91 480.993L904.108 510.562ZM882.284 609.848C875.621 605.998 875.621 596.38 882.284 592.53L904.998 579.408C911.664 575.557 920 580.368 920 588.067V614.311C920 622.01 911.664 626.821 904.998 622.97L882.284 609.848Z" fill="#E2F4FF"/>
</svg>
