<svg width="80" height="80" viewBox="0 0 80 80" fill="none"
  xmlns="http://www.w3.org/2000/svg">
  <path d="M78.6858 72.3767L63.5795 57.3149C68.4534 51.1056 71.098 43.4378 71.0882 35.5441C71.0882 28.5142 69.0036 21.6421 65.0979 15.7969C61.1923 9.95167 55.6411 5.3959 49.1463 2.70565C42.6514 0.0154006 35.5047 -0.688491 28.6098 0.682986C21.7149 2.05446 15.3816 5.43971 10.4106 10.4106C5.43971 15.3816 2.05446 21.7149 0.682986 28.6098C-0.688491 35.5047 0.0154006 42.6514 2.70565 49.1463C5.3959 55.6411 9.95167 61.1923 15.7969 65.0979C21.6421 69.0036 28.5142 71.0882 35.5441 71.0882C43.4378 71.098 51.1056 68.4534 57.3149 63.5795L72.3767 78.6858C72.7897 79.1022 73.2811 79.4327 73.8225 79.6583C74.364 79.8839 74.9447 80 75.5312 80C76.1178 80 76.6985 79.8839 77.2399 79.6583C77.7813 79.4327 78.2727 79.1022 78.6858 78.6858C79.1022 78.2727 79.4327 77.7813 79.6583 77.2399C79.8839 76.6985 80 76.1178 80 75.5312C80 74.9447 79.8839 74.364 79.6583 73.8225C79.4327 73.2811 79.1022 72.7897 78.6858 72.3767ZM8.88604 35.5441C8.88604 30.2716 10.4495 25.1176 13.3787 20.7337C16.308 16.3498 20.4714 12.933 25.3425 10.9153C30.2136 8.89758 35.5737 8.36966 40.7448 9.39827C45.916 10.4269 50.666 12.9658 54.3942 16.694C58.1224 20.4222 60.6614 25.1722 61.69 30.3434C62.7186 35.5145 62.1907 40.8746 60.173 45.7457C58.1553 50.6168 54.7384 54.7803 50.3545 57.7095C45.9706 60.6387 40.8166 62.2022 35.5441 62.2022C28.474 62.2022 21.6934 59.3936 16.694 54.3942C11.6947 49.3949 8.88604 42.6143 8.88604 35.5441Z" fill="white"/>
</svg>
