<?xml version="1.0" encoding="UTF-8" standalone="no"?>
<svg
   xmlns:dc="http://purl.org/dc/elements/1.1/"
   xmlns:cc="http://creativecommons.org/ns#"
   xmlns:rdf="http://www.w3.org/1999/02/22-rdf-syntax-ns#"
   xmlns:svg="http://www.w3.org/2000/svg"
   xmlns="http://www.w3.org/2000/svg"
   xmlns:sodipodi="http://sodipodi.sourceforge.net/DTD/sodipodi-0.dtd"
   xmlns:inkscape="http://www.inkscape.org/namespaces/inkscape"
   viewBox="0 0 380.06 127.82"
   version="1.1"
   id="svg564"
   sodipodi:docname="aside.svg"
   inkscape:version="0.92.3 (2405546, 2018-03-11)">
  <metadata
     id="metadata568">
    <rdf:RDF>
      <cc:Work
         rdf:about="">
        <dc:format>image/svg+xml</dc:format>
        <dc:type
           rdf:resource="http://purl.org/dc/dcmitype/StillImage" />
      </cc:Work>
    </rdf:RDF>
  </metadata>
  <sodipodi:namedview
     pagecolor="#ffffff"
     bordercolor="#666666"
     borderopacity="1"
     objecttolerance="10"
     gridtolerance="10"
     guidetolerance="10"
     inkscape:pageopacity="0"
     inkscape:pageshadow="2"
     inkscape:window-width="3840"
     inkscape:window-height="2080"
     id="namedview566"
     showgrid="false"
     inkscape:zoom="8.6354787"
     inkscape:cx="190.03"
     inkscape:cy="63.91"
     inkscape:window-x="-11"
     inkscape:window-y="-11"
     inkscape:window-maximized="1"
     inkscape:current-layer="svg564" />
  <defs
     id="defs292">
    <style
       id="style290">.cls-1{opacity:0.1;}.cls-2,.cls-5{fill:#fff;}.cls-2,.cls-3,.cls-4,.cls-5,.cls-6{stroke:#13293d;stroke-miterlimit:10;stroke-width:0.25px;}.cls-3,.cls-6{fill:#f6f9fb;}.cls-4{fill:#ecf2f6;}.cls-5,.cls-6{opacity:0.9;}</style>
  </defs>
  <title
     id="title294">Asset 8</title>
  <g
     class="cls-1"
     id="g560"
     style="opacity:0.1">
    <polygon
       class="cls-2"
       points="218.05,25.89 232.76,51.31 247.47,25.89 "
       id="polygon296"
       style="fill:#ffffff;stroke:#13293d;stroke-width:0.25px;stroke-miterlimit:10" />
    <polygon
       class="cls-3"
       points="218.05,25.89 247.47,25.89 232.76,0.47 "
       id="polygon298"
       style="fill:#f6f9fb;stroke:#13293d;stroke-width:0.25px;stroke-miterlimit:10" />
    <polygon
       class="cls-4"
       points="203.35,51.31 232.76,51.31 218.05,25.89 "
       id="polygon300"
       style="fill:#ecf2f6;stroke:#13293d;stroke-width:0.25px;stroke-miterlimit:10" />
    <polygon
       class="cls-2"
       points="232.76,0.47 247.47,25.89 262.18,0.47 "
       id="polygon302"
       style="fill:#ffffff;stroke:#13293d;stroke-width:0.25px;stroke-miterlimit:10" />
    <polygon
       class="cls-2"
       points="247.47,25.89 262.18,51.31 276.89,25.89 "
       id="polygon304"
       style="fill:#ffffff;stroke:#13293d;stroke-width:0.25px;stroke-miterlimit:10" />
    <polygon
       class="cls-3"
       points="262.18,0.47 247.47,25.89 276.89,25.89 "
       id="polygon306"
       style="fill:#f6f9fb;stroke:#13293d;stroke-width:0.25px;stroke-miterlimit:10" />
    <polygon
       class="cls-2"
       points="232.76,51.31 262.18,51.31 247.47,25.89 "
       id="polygon308"
       style="fill:#ffffff;stroke:#13293d;stroke-width:0.25px;stroke-miterlimit:10" />
    <polygon
       class="cls-2"
       points="262.18,0.47 276.89,25.89 291.59,0.47 "
       id="polygon310"
       style="fill:#ffffff;stroke:#13293d;stroke-width:0.25px;stroke-miterlimit:10" />
    <polygon
       class="cls-2"
       points="276.89,25.89 291.59,51.31 306.3,25.89 "
       id="polygon312"
       style="fill:#ffffff;stroke:#13293d;stroke-width:0.25px;stroke-miterlimit:10" />
    <polygon
       class="cls-3"
       points="291.59,0.47 276.89,25.89 306.3,25.89 "
       id="polygon314"
       style="fill:#f6f9fb;stroke:#13293d;stroke-width:0.25px;stroke-miterlimit:10" />
    <polygon
       class="cls-4"
       points="276.89,25.89 262.18,51.31 291.59,51.31 "
       id="polygon316"
       style="fill:#ecf2f6;stroke:#13293d;stroke-width:0.25px;stroke-miterlimit:10" />
    <polygon
       class="cls-2"
       points="291.59,0.47 306.3,25.89 321.01,0.47 "
       id="polygon318"
       style="fill:#ffffff;stroke:#13293d;stroke-width:0.25px;stroke-miterlimit:10" />
    <polygon
       class="cls-2"
       points="306.3,25.89 321.01,51.31 335.72,25.89 "
       id="polygon320"
       style="fill:#ffffff;stroke:#13293d;stroke-width:0.25px;stroke-miterlimit:10" />
    <polygon
       class="cls-4"
       points="321.01,0.47 306.3,25.89 335.72,25.89 "
       id="polygon322"
       style="fill:#ecf2f6;stroke:#13293d;stroke-width:0.25px;stroke-miterlimit:10" />
    <polygon
       class="cls-3"
       points="306.3,25.89 291.59,51.31 321.01,51.31 "
       id="polygon324"
       style="fill:#f6f9fb;stroke:#13293d;stroke-width:0.25px;stroke-miterlimit:10" />
    <polygon
       class="cls-4"
       points="321.01,0.47 335.72,25.89 350.43,0.47 "
       id="polygon326"
       style="fill:#ecf2f6;stroke:#13293d;stroke-width:0.25px;stroke-miterlimit:10" />
    <polygon
       class="cls-2"
       points="335.72,25.89 350.43,51.31 365.13,25.89 "
       id="polygon328"
       style="fill:#ffffff;stroke:#13293d;stroke-width:0.25px;stroke-miterlimit:10" />
    <polygon
       class="cls-3"
       points="350.43,0.47 335.72,25.89 365.13,25.89 "
       id="polygon330"
       style="fill:#f6f9fb;stroke:#13293d;stroke-width:0.25px;stroke-miterlimit:10" />
    <polygon
       class="cls-3"
       points="335.72,25.89 321.01,51.31 350.43,51.31 "
       id="polygon332"
       style="fill:#f6f9fb;stroke:#13293d;stroke-width:0.25px;stroke-miterlimit:10" />
    <polygon
       class="cls-2"
       points="350.43,0.47 365.13,25.89 379.84,0.47 "
       id="polygon334"
       style="fill:#ffffff;stroke:#13293d;stroke-width:0.25px;stroke-miterlimit:10" />
    <polygon
       class="cls-2"
       points="379.84,51.31 379.84,25.89 365.13,25.89 "
       id="polygon336"
       style="fill:#ffffff;stroke:#13293d;stroke-width:0.25px;stroke-miterlimit:10" />
    <polygon
       class="cls-3"
       points="379.84,0.47 365.13,25.89 379.84,25.89 "
       id="polygon338"
       style="fill:#f6f9fb;stroke:#13293d;stroke-width:0.25px;stroke-miterlimit:10" />
    <polygon
       class="cls-3"
       points="379.84,51.31 365.13,25.89 350.43,51.31 "
       id="polygon340"
       style="fill:#f6f9fb;stroke:#13293d;stroke-width:0.25px;stroke-miterlimit:10" />
    <polygon
       class="cls-5"
       points="203.35,102.15 218.05,76.73 188.64,76.73 "
       id="polygon342"
       style="opacity:0.9;fill:#ffffff;stroke:#13293d;stroke-width:0.25px;stroke-miterlimit:10" />
    <polygon
       class="cls-6"
       points="188.64,76.73 218.05,76.73 203.35,51.31 "
       id="polygon344"
       style="opacity:0.9;fill:#f6f9fb;stroke:#13293d;stroke-width:0.25px;stroke-miterlimit:10" />
    <polygon
       class="cls-2"
       points="203.35,51.31 218.05,76.73 232.76,51.31 "
       id="polygon346"
       style="fill:#ffffff;stroke:#13293d;stroke-width:0.25px;stroke-miterlimit:10" />
    <polygon
       class="cls-2"
       points="232.76,102.15 247.47,76.73 218.05,76.73 "
       id="polygon348"
       style="fill:#ffffff;stroke:#13293d;stroke-width:0.25px;stroke-miterlimit:10" />
    <polygon
       class="cls-4"
       points="218.05,76.73 247.47,76.73 232.76,51.31 "
       id="polygon350"
       style="fill:#ecf2f6;stroke:#13293d;stroke-width:0.25px;stroke-miterlimit:10" />
    <polygon
       class="cls-6"
       points="203.35,102.15 232.76,102.15 218.05,76.73 "
       id="polygon352"
       style="opacity:0.9;fill:#f6f9fb;stroke:#13293d;stroke-width:0.25px;stroke-miterlimit:10" />
    <polygon
       class="cls-2"
       points="232.76,51.31 247.47,76.73 262.18,51.31 "
       id="polygon354"
       style="fill:#ffffff;stroke:#13293d;stroke-width:0.25px;stroke-miterlimit:10" />
    <polygon
       class="cls-2"
       points="262.18,102.15 276.89,76.73 247.47,76.73 "
       id="polygon356"
       style="fill:#ffffff;stroke:#13293d;stroke-width:0.25px;stroke-miterlimit:10" />
    <polygon
       class="cls-3"
       points="276.89,76.73 262.18,51.31 247.47,76.73 "
       id="polygon358"
       style="fill:#f6f9fb;stroke:#13293d;stroke-width:0.25px;stroke-miterlimit:10" />
    <polygon
       class="cls-4"
       points="262.18,102.15 247.47,76.73 232.76,102.15 "
       id="polygon360"
       style="fill:#ecf2f6;stroke:#13293d;stroke-width:0.25px;stroke-miterlimit:10" />
    <polygon
       class="cls-2"
       points="276.89,76.73 291.59,51.31 262.18,51.31 "
       id="polygon362"
       style="fill:#ffffff;stroke:#13293d;stroke-width:0.25px;stroke-miterlimit:10" />
    <polygon
       class="cls-2"
       points="291.59,102.15 306.3,76.73 276.89,76.73 "
       id="polygon364"
       style="fill:#ffffff;stroke:#13293d;stroke-width:0.25px;stroke-miterlimit:10" />
    <polygon
       class="cls-3"
       points="306.3,76.73 291.59,51.31 276.89,76.73 "
       id="polygon366"
       style="fill:#f6f9fb;stroke:#13293d;stroke-width:0.25px;stroke-miterlimit:10" />
    <polygon
       class="cls-3"
       points="291.59,102.15 276.89,76.73 262.18,102.15 "
       id="polygon368"
       style="fill:#f6f9fb;stroke:#13293d;stroke-width:0.25px;stroke-miterlimit:10" />
    <polygon
       class="cls-2"
       points="306.3,76.73 321.01,51.31 291.59,51.31 "
       id="polygon370"
       style="fill:#ffffff;stroke:#13293d;stroke-width:0.25px;stroke-miterlimit:10" />
    <polygon
       class="cls-2"
       points="321.01,102.15 335.72,76.73 306.3,76.73 "
       id="polygon372"
       style="fill:#ffffff;stroke:#13293d;stroke-width:0.25px;stroke-miterlimit:10" />
    <polygon
       class="cls-3"
       points="335.72,76.73 321.01,51.31 306.3,76.73 "
       id="polygon374"
       style="fill:#f6f9fb;stroke:#13293d;stroke-width:0.25px;stroke-miterlimit:10" />
    <polygon
       class="cls-3"
       points="321.01,102.15 306.3,76.73 291.59,102.15 "
       id="polygon376"
       style="fill:#f6f9fb;stroke:#13293d;stroke-width:0.25px;stroke-miterlimit:10" />
    <polygon
       class="cls-2"
       points="350.43,51.31 321.01,51.31 335.72,76.73 "
       id="polygon378"
       style="fill:#ffffff;stroke:#13293d;stroke-width:0.25px;stroke-miterlimit:10" />
    <polygon
       class="cls-2"
       points="365.13,76.73 335.72,76.73 350.43,102.15 "
       id="polygon380"
       style="fill:#ffffff;stroke:#13293d;stroke-width:0.25px;stroke-miterlimit:10" />
    <polygon
       class="cls-3"
       points="365.13,76.73 350.43,51.31 335.72,76.73 "
       id="polygon382"
       style="fill:#f6f9fb;stroke:#13293d;stroke-width:0.25px;stroke-miterlimit:10" />
    <polygon
       class="cls-4"
       points="350.43,102.15 335.72,76.73 321.01,102.15 "
       id="polygon384"
       style="fill:#ecf2f6;stroke:#13293d;stroke-width:0.25px;stroke-miterlimit:10" />
    <polygon
       class="cls-2"
       points="379.84,51.31 350.43,51.31 365.13,76.73 "
       id="polygon386"
       style="fill:#ffffff;stroke:#13293d;stroke-width:0.25px;stroke-miterlimit:10" />
    <polygon
       class="cls-2"
       points="379.84,102.15 379.84,76.73 365.13,76.73 "
       id="polygon388"
       style="fill:#ffffff;stroke:#13293d;stroke-width:0.25px;stroke-miterlimit:10" />
    <polygon
       class="cls-3"
       points="379.84,51.31 365.13,76.73 379.84,76.73 "
       id="polygon390"
       style="fill:#f6f9fb;stroke:#13293d;stroke-width:0.25px;stroke-miterlimit:10" />
    <polygon
       class="cls-3"
       points="379.84,102.15 365.13,76.73 350.43,102.15 "
       id="polygon392"
       style="fill:#f6f9fb;stroke:#13293d;stroke-width:0.25px;stroke-miterlimit:10" />
    <polygon
       class="cls-5"
       points="218.05,127.57 232.76,102.15 203.35,102.15 "
       id="polygon394"
       style="opacity:0.9;fill:#ffffff;stroke:#13293d;stroke-width:0.25px;stroke-miterlimit:10" />
    <polygon
       class="cls-3"
       points="247.47,127.57 232.76,102.15 218.05,127.57 "
       id="polygon396"
       style="fill:#f6f9fb;stroke:#13293d;stroke-width:0.25px;stroke-miterlimit:10" />
    <polygon
       class="cls-2"
       points="247.47,127.57 262.18,102.15 232.76,102.15 "
       id="polygon398"
       style="fill:#ffffff;stroke:#13293d;stroke-width:0.25px;stroke-miterlimit:10" />
    <polygon
       class="cls-3"
       points="276.89,127.57 262.18,102.15 247.47,127.57 "
       id="polygon400"
       style="fill:#f6f9fb;stroke:#13293d;stroke-width:0.25px;stroke-miterlimit:10" />
    <polygon
       class="cls-2"
       points="276.89,127.57 291.59,102.15 262.18,102.15 "
       id="polygon402"
       style="fill:#ffffff;stroke:#13293d;stroke-width:0.25px;stroke-miterlimit:10" />
    <polygon
       class="cls-3"
       points="306.3,127.57 291.59,102.15 276.89,127.57 "
       id="polygon404"
       style="fill:#f6f9fb;stroke:#13293d;stroke-width:0.25px;stroke-miterlimit:10" />
    <polygon
       class="cls-2"
       points="306.3,127.57 321.01,102.15 291.59,102.15 "
       id="polygon406"
       style="fill:#ffffff;stroke:#13293d;stroke-width:0.25px;stroke-miterlimit:10" />
    <polygon
       class="cls-4"
       points="335.72,127.57 321.01,102.15 306.3,127.57 "
       id="polygon408"
       style="fill:#ecf2f6;stroke:#13293d;stroke-width:0.25px;stroke-miterlimit:10" />
    <polygon
       class="cls-4"
       points="335.72,127.57 350.43,102.15 321.01,102.15 "
       id="polygon410"
       style="fill:#ecf2f6;stroke:#13293d;stroke-width:0.25px;stroke-miterlimit:10" />
    <polygon
       class="cls-3"
       points="365.13,127.57 350.43,102.15 335.72,127.57 "
       id="polygon412"
       style="fill:#f6f9fb;stroke:#13293d;stroke-width:0.25px;stroke-miterlimit:10" />
    <polygon
       class="cls-2"
       points="379.84,102.15 350.43,102.15 365.13,127.57 "
       id="polygon414"
       style="fill:#ffffff;stroke:#13293d;stroke-width:0.25px;stroke-miterlimit:10" />
    <polygon
       class="cls-3"
       points="379.84,102.15 365.13,127.57 379.84,127.57 "
       id="polygon416"
       style="fill:#f6f9fb;stroke:#13293d;stroke-width:0.25px;stroke-miterlimit:10" />
    <polygon
       class="cls-2"
       points="70.78,25.89 85.49,51.31 100.19,25.89 "
       id="polygon418"
       style="fill:#ffffff;stroke:#13293d;stroke-width:0.25px;stroke-miterlimit:10" />
    <polygon
       class="cls-3"
       points="70.78,25.89 100.19,25.89 85.49,0.47 "
       id="polygon420"
       style="fill:#f6f9fb;stroke:#13293d;stroke-width:0.25px;stroke-miterlimit:10" />
    <polygon
       class="cls-4"
       points="56.07,51.31 85.49,51.31 70.78,25.89 "
       id="polygon422"
       style="fill:#ecf2f6;stroke:#13293d;stroke-width:0.25px;stroke-miterlimit:10" />
    <polygon
       class="cls-2"
       points="85.49,0.47 100.19,25.89 114.9,0.47 "
       id="polygon424"
       style="fill:#ffffff;stroke:#13293d;stroke-width:0.25px;stroke-miterlimit:10" />
    <polygon
       class="cls-2"
       points="100.19,25.89 114.9,51.31 129.61,25.89 "
       id="polygon426"
       style="fill:#ffffff;stroke:#13293d;stroke-width:0.25px;stroke-miterlimit:10" />
    <polygon
       class="cls-3"
       points="114.9,0.47 100.19,25.89 129.61,25.89 "
       id="polygon428"
       style="fill:#f6f9fb;stroke:#13293d;stroke-width:0.25px;stroke-miterlimit:10" />
    <polygon
       class="cls-2"
       points="85.49,51.31 114.9,51.31 100.19,25.89 "
       id="polygon430"
       style="fill:#ffffff;stroke:#13293d;stroke-width:0.25px;stroke-miterlimit:10" />
    <polygon
       class="cls-2"
       points="114.9,0.47 129.61,25.89 144.32,0.47 "
       id="polygon432"
       style="fill:#ffffff;stroke:#13293d;stroke-width:0.25px;stroke-miterlimit:10" />
    <polygon
       class="cls-2"
       points="129.61,25.89 144.32,51.31 159.03,25.89 "
       id="polygon434"
       style="fill:#ffffff;stroke:#13293d;stroke-width:0.25px;stroke-miterlimit:10" />
    <polygon
       class="cls-3"
       points="144.32,0.47 129.61,25.89 159.03,25.89 "
       id="polygon436"
       style="fill:#f6f9fb;stroke:#13293d;stroke-width:0.25px;stroke-miterlimit:10" />
    <polygon
       class="cls-4"
       points="129.61,25.89 114.9,51.31 144.32,51.31 "
       id="polygon438"
       style="fill:#ecf2f6;stroke:#13293d;stroke-width:0.25px;stroke-miterlimit:10" />
    <polygon
       class="cls-2"
       points="144.32,0.47 159.03,25.89 173.74,0.47 "
       id="polygon440"
       style="fill:#ffffff;stroke:#13293d;stroke-width:0.25px;stroke-miterlimit:10" />
    <polygon
       class="cls-2"
       points="159.03,25.89 173.74,51.31 188.44,25.89 "
       id="polygon442"
       style="fill:#ffffff;stroke:#13293d;stroke-width:0.25px;stroke-miterlimit:10" />
    <polygon
       class="cls-4"
       points="173.74,0.47 159.03,25.89 188.44,25.89 "
       id="polygon444"
       style="fill:#ecf2f6;stroke:#13293d;stroke-width:0.25px;stroke-miterlimit:10" />
    <polygon
       class="cls-3"
       points="159.03,25.89 144.32,51.31 173.74,51.31 "
       id="polygon446"
       style="fill:#f6f9fb;stroke:#13293d;stroke-width:0.25px;stroke-miterlimit:10" />
    <polygon
       class="cls-4"
       points="173.74,0.47 188.44,25.89 203.15,0.47 "
       id="polygon448"
       style="fill:#ecf2f6;stroke:#13293d;stroke-width:0.25px;stroke-miterlimit:10" />
    <polygon
       class="cls-2"
       points="217.86,25.89 188.44,25.89 203.15,51.31 "
       id="polygon450"
       style="fill:#ffffff;stroke:#13293d;stroke-width:0.25px;stroke-miterlimit:10" />
    <polygon
       class="cls-3"
       points="203.15,0.47 188.44,25.89 217.86,25.89 "
       id="polygon452"
       style="fill:#f6f9fb;stroke:#13293d;stroke-width:0.25px;stroke-miterlimit:10" />
    <polygon
       class="cls-3"
       points="203.15,51.31 188.44,25.89 173.74,51.31 "
       id="polygon454"
       style="fill:#f6f9fb;stroke:#13293d;stroke-width:0.25px;stroke-miterlimit:10" />
    <polygon
       class="cls-2"
       points="203.15,0.47 217.86,25.89 232.57,0.47 "
       id="polygon456"
       style="fill:#ffffff;stroke:#13293d;stroke-width:0.25px;stroke-miterlimit:10" />
    <polygon
       class="cls-5"
       points="56.07,102.15 70.78,76.73 41.36,76.73 "
       id="polygon458"
       style="opacity:0.9;fill:#ffffff;stroke:#13293d;stroke-width:0.25px;stroke-miterlimit:10" />
    <polygon
       class="cls-6"
       points="41.36,76.73 70.78,76.73 56.07,51.31 "
       id="polygon460"
       style="opacity:0.9;fill:#f6f9fb;stroke:#13293d;stroke-width:0.25px;stroke-miterlimit:10" />
    <polygon
       class="cls-2"
       points="56.07,51.31 70.78,76.73 85.49,51.31 "
       id="polygon462"
       style="fill:#ffffff;stroke:#13293d;stroke-width:0.25px;stroke-miterlimit:10" />
    <polygon
       class="cls-2"
       points="85.49,102.15 100.19,76.73 70.78,76.73 "
       id="polygon464"
       style="fill:#ffffff;stroke:#13293d;stroke-width:0.25px;stroke-miterlimit:10" />
    <polygon
       class="cls-4"
       points="70.78,76.73 100.19,76.73 85.49,51.31 "
       id="polygon466"
       style="fill:#ecf2f6;stroke:#13293d;stroke-width:0.25px;stroke-miterlimit:10" />
    <polygon
       class="cls-6"
       points="56.07,102.15 85.49,102.15 70.78,76.73 "
       id="polygon468"
       style="opacity:0.9;fill:#f6f9fb;stroke:#13293d;stroke-width:0.25px;stroke-miterlimit:10" />
    <polygon
       class="cls-2"
       points="85.49,51.31 100.19,76.73 114.9,51.31 "
       id="polygon470"
       style="fill:#ffffff;stroke:#13293d;stroke-width:0.25px;stroke-miterlimit:10" />
    <polygon
       class="cls-2"
       points="114.9,102.15 129.61,76.73 100.19,76.73 "
       id="polygon472"
       style="fill:#ffffff;stroke:#13293d;stroke-width:0.25px;stroke-miterlimit:10" />
    <polygon
       class="cls-3"
       points="129.61,76.73 114.9,51.31 100.19,76.73 "
       id="polygon474"
       style="fill:#f6f9fb;stroke:#13293d;stroke-width:0.25px;stroke-miterlimit:10" />
    <polygon
       class="cls-4"
       points="114.9,102.15 100.19,76.73 85.49,102.15 "
       id="polygon476"
       style="fill:#ecf2f6;stroke:#13293d;stroke-width:0.25px;stroke-miterlimit:10" />
    <polygon
       class="cls-2"
       points="129.61,76.73 144.32,51.31 114.9,51.31 "
       id="polygon478"
       style="fill:#ffffff;stroke:#13293d;stroke-width:0.25px;stroke-miterlimit:10" />
    <polygon
       class="cls-2"
       points="144.32,102.15 159.03,76.73 129.61,76.73 "
       id="polygon480"
       style="fill:#ffffff;stroke:#13293d;stroke-width:0.25px;stroke-miterlimit:10" />
    <polygon
       class="cls-3"
       points="159.03,76.73 144.32,51.31 129.61,76.73 "
       id="polygon482"
       style="fill:#f6f9fb;stroke:#13293d;stroke-width:0.25px;stroke-miterlimit:10" />
    <polygon
       class="cls-3"
       points="144.32,102.15 129.61,76.73 114.9,102.15 "
       id="polygon484"
       style="fill:#f6f9fb;stroke:#13293d;stroke-width:0.25px;stroke-miterlimit:10" />
    <polygon
       class="cls-2"
       points="173.74,51.31 144.32,51.31 159.03,76.73 "
       id="polygon486"
       style="fill:#ffffff;stroke:#13293d;stroke-width:0.25px;stroke-miterlimit:10" />
    <polygon
       class="cls-2"
       points="188.44,76.73 159.03,76.73 173.74,102.15 "
       id="polygon488"
       style="fill:#ffffff;stroke:#13293d;stroke-width:0.25px;stroke-miterlimit:10" />
    <polygon
       class="cls-3"
       points="188.44,76.73 173.74,51.31 159.03,76.73 "
       id="polygon490"
       style="fill:#f6f9fb;stroke:#13293d;stroke-width:0.25px;stroke-miterlimit:10" />
    <polygon
       class="cls-3"
       points="173.74,102.15 159.03,76.73 144.32,102.15 "
       id="polygon492"
       style="fill:#f6f9fb;stroke:#13293d;stroke-width:0.25px;stroke-miterlimit:10" />
    <polygon
       class="cls-2"
       points="203.15,51.31 173.74,51.31 188.44,76.73 "
       id="polygon494"
       style="fill:#ffffff;stroke:#13293d;stroke-width:0.25px;stroke-miterlimit:10" />
    <polygon
       class="cls-4"
       points="188.44,76.73 173.74,102.15 203.15,102.15 "
       id="polygon496"
       style="fill:#ecf2f6;stroke:#13293d;stroke-width:0.25px;stroke-miterlimit:10" />
    <polygon
       class="cls-5"
       points="70.78,127.57 85.49,102.15 56.07,102.15 "
       id="polygon498"
       style="opacity:0.9;fill:#ffffff;stroke:#13293d;stroke-width:0.25px;stroke-miterlimit:10" />
    <polygon
       class="cls-3"
       points="100.19,127.57 85.49,102.15 70.78,127.57 "
       id="polygon500"
       style="fill:#f6f9fb;stroke:#13293d;stroke-width:0.25px;stroke-miterlimit:10" />
    <polygon
       class="cls-2"
       points="100.19,127.57 114.9,102.15 85.49,102.15 "
       id="polygon502"
       style="fill:#ffffff;stroke:#13293d;stroke-width:0.25px;stroke-miterlimit:10" />
    <polygon
       class="cls-3"
       points="129.61,127.57 114.9,102.15 100.19,127.57 "
       id="polygon504"
       style="fill:#f6f9fb;stroke:#13293d;stroke-width:0.25px;stroke-miterlimit:10" />
    <polygon
       class="cls-2"
       points="129.61,127.57 144.32,102.15 114.9,102.15 "
       id="polygon506"
       style="fill:#ffffff;stroke:#13293d;stroke-width:0.25px;stroke-miterlimit:10" />
    <polygon
       class="cls-3"
       points="159.03,127.57 144.32,102.15 129.61,127.57 "
       id="polygon508"
       style="fill:#f6f9fb;stroke:#13293d;stroke-width:0.25px;stroke-miterlimit:10" />
    <polygon
       class="cls-2"
       points="159.03,127.57 173.74,102.15 144.32,102.15 "
       id="polygon510"
       style="fill:#ffffff;stroke:#13293d;stroke-width:0.25px;stroke-miterlimit:10" />
    <polygon
       class="cls-4"
       points="188.44,127.57 173.74,102.15 159.03,127.57 "
       id="polygon512"
       style="fill:#ecf2f6;stroke:#13293d;stroke-width:0.25px;stroke-miterlimit:10" />
    <polygon
       class="cls-4"
       points="188.44,127.57 203.15,102.15 173.74,102.15 "
       id="polygon514"
       style="fill:#ecf2f6;stroke:#13293d;stroke-width:0.25px;stroke-miterlimit:10" />
    <polygon
       class="cls-3"
       points="217.86,127.57 203.15,102.15 188.44,127.57 "
       id="polygon516"
       style="fill:#f6f9fb;stroke:#13293d;stroke-width:0.25px;stroke-miterlimit:10" />
    <path
       class="cls-2"
       d="M 41.17,25.89 H 15 c -0.64,0.79 -1.26,1.59 -1.86,2.42 l 13.31,23 z"
       id="path518"
       inkscape:connector-curvature="0"
       style="fill:#ffffff;stroke:#13293d;stroke-width:0.25px;stroke-miterlimit:10" />
    <path
       class="cls-4"
       d="M 32.31,10.58 A 67.86,67.86 0 0 0 15,25.89 h 26.17 z"
       id="path520"
       inkscape:connector-curvature="0"
       style="fill:#ecf2f6;stroke:#13293d;stroke-width:0.25px;stroke-miterlimit:10" />
    <path
       class="cls-3"
       d="m 13.15,28.31 a 67.2,67.2 0 0 0 -10.9,23 h 24.21 z"
       id="path522"
       inkscape:connector-curvature="0"
       style="fill:#f6f9fb;stroke:#13293d;stroke-width:0.25px;stroke-miterlimit:10" />
    <path
       class="cls-4"
       d="m 55.17,1.68 a 67.71,67.71 0 0 0 -22.86,8.9 l 8.86,15.31 z"
       id="path524"
       inkscape:connector-curvature="0"
       style="fill:#ecf2f6;stroke:#13293d;stroke-width:0.25px;stroke-miterlimit:10" />
    <polygon
       class="cls-2"
       points="70.58,25.89 41.17,25.89 55.88,51.31 "
       id="polygon526"
       style="fill:#ffffff;stroke:#13293d;stroke-width:0.25px;stroke-miterlimit:10" />
    <path
       class="cls-3"
       d="M 70.58,25.89 56.45,1.46 l -1.28,0.22 -14,24.21 z"
       id="path528"
       inkscape:connector-curvature="0"
       style="fill:#f6f9fb;stroke:#13293d;stroke-width:0.25px;stroke-miterlimit:10" />
    <polygon
       class="cls-3"
       points="55.88,51.31 41.17,25.89 26.46,51.31 "
       id="polygon530"
       style="fill:#f6f9fb;stroke:#13293d;stroke-width:0.25px;stroke-miterlimit:10" />
    <path
       class="cls-2"
       d="M 85.29,0.47 H 67.76 a 68,68 0 0 0 -11.31,1 l 14.13,24.42 z"
       id="path532"
       inkscape:connector-curvature="0"
       style="fill:#ffffff;stroke:#13293d;stroke-width:0.25px;stroke-miterlimit:10" />
    <polygon
       class="cls-2"
       points="0.13,96.83 11.75,76.73 0.13,76.73 "
       id="polygon534"
       style="fill:#ffffff;stroke:#13293d;stroke-width:0.25px;stroke-miterlimit:10" />
    <path
       class="cls-3"
       d="M 0.89,58 A 68.74,68.74 0 0 0 0.13,68.18 v 8.55 h 11.62 z"
       id="path536"
       inkscape:connector-curvature="0"
       style="fill:#f6f9fb;stroke:#13293d;stroke-width:0.25px;stroke-miterlimit:10" />
    <path
       class="cls-2"
       d="M 26.46,51.31 H 2.25 Q 1.41,54.58 0.89,58 l 10.86,18.73 z"
       id="path538"
       inkscape:connector-curvature="0"
       style="fill:#ffffff;stroke:#13293d;stroke-width:0.25px;stroke-miterlimit:10" />
    <polygon
       class="cls-2"
       points="41.17,76.73 11.75,76.73 26.46,102.15 "
       id="polygon540"
       style="fill:#ffffff;stroke:#13293d;stroke-width:0.25px;stroke-miterlimit:10" />
    <polygon
       class="cls-3"
       points="41.17,76.73 26.46,51.31 11.75,76.73 "
       id="polygon542"
       style="fill:#f6f9fb;stroke:#13293d;stroke-width:0.25px;stroke-miterlimit:10" />
    <polygon
       class="cls-3"
       points="11.75,76.73 0.13,96.83 0.13,102.15 26.46,102.15 "
       id="polygon544"
       style="fill:#f6f9fb;stroke:#13293d;stroke-width:0.25px;stroke-miterlimit:10" />
    <polygon
       class="cls-2"
       points="55.88,51.31 26.46,51.31 41.17,76.73 "
       id="polygon546"
       style="fill:#ffffff;stroke:#13293d;stroke-width:0.25px;stroke-miterlimit:10" />
    <polygon
       class="cls-4"
       points="41.17,76.73 26.46,102.15 55.88,102.15 "
       id="polygon548"
       style="fill:#ecf2f6;stroke:#13293d;stroke-width:0.25px;stroke-miterlimit:10" />
    <polygon
       class="cls-3"
       points="11.75,127.57 0.13,107.48 0.13,127.57 "
       id="polygon550"
       style="fill:#f6f9fb;stroke:#13293d;stroke-width:0.25px;stroke-miterlimit:10" />
    <polygon
       class="cls-2"
       points="0.13,102.15 0.13,107.48 11.75,127.57 26.46,102.15 "
       id="polygon552"
       style="fill:#ffffff;stroke:#13293d;stroke-width:0.25px;stroke-miterlimit:10" />
    <polygon
       class="cls-4"
       points="41.17,127.57 26.46,102.15 11.75,127.57 "
       id="polygon554"
       style="fill:#ecf2f6;stroke:#13293d;stroke-width:0.25px;stroke-miterlimit:10" />
    <polygon
       class="cls-4"
       points="41.17,127.57 55.88,102.15 26.46,102.15 "
       id="polygon556"
       style="fill:#ecf2f6;stroke:#13293d;stroke-width:0.25px;stroke-miterlimit:10" />
    <polygon
       class="cls-3"
       points="70.58,127.57 55.88,102.15 41.17,127.57 "
       id="polygon558"
       style="fill:#f6f9fb;stroke:#13293d;stroke-width:0.25px;stroke-miterlimit:10" />
  </g>
</svg>
