<?xml version="1.0" encoding="UTF-8" standalone="no"?>
<svg
   xmlns:dc="http://purl.org/dc/elements/1.1/"
   xmlns:cc="http://creativecommons.org/ns#"
   xmlns:rdf="http://www.w3.org/1999/02/22-rdf-syntax-ns#"
   xmlns:svg="http://www.w3.org/2000/svg"
   xmlns="http://www.w3.org/2000/svg"
   xmlns:sodipodi="http://sodipodi.sourceforge.net/DTD/sodipodi-0.dtd"
   xmlns:inkscape="http://www.inkscape.org/namespaces/inkscape"
   viewBox="0 0 146.28399 127.602"
   version="1.1"
   id="svg1369"
   sodipodi:docname="aside.svg"
   width="146.284"
   height="127.602"
   inkscape:version="0.92.3 (2405546, 2018-03-11)">
  <metadata
     id="metadata1373">
    <rdf:RDF>
      <cc:Work
         rdf:about="">
        <dc:format>image/svg+xml</dc:format>
        <dc:type
           rdf:resource="http://purl.org/dc/dcmitype/StillImage" />
        <dc:title>Asset 7</dc:title>
      </cc:Work>
    </rdf:RDF>
  </metadata>
  <sodipodi:namedview
     pagecolor="#ffffff"
     bordercolor="#666666"
     borderopacity="1"
     objecttolerance="10"
     gridtolerance="10"
     guidetolerance="10"
     inkscape:pageopacity="0"
     inkscape:pageshadow="2"
     inkscape:window-width="3840"
     inkscape:window-height="2080"
     id="namedview1371"
     showgrid="false"
     inkscape:zoom="11.313709"
     inkscape:cx="57.627923"
     inkscape:cy="61.350034"
     inkscape:window-x="-11"
     inkscape:window-y="-11"
     inkscape:window-maximized="1"
     inkscape:current-layer="svg1369"
     showguides="false" />
  <defs
     id="defs1097">
    <style
       id="style1095">.cls-1{opacity:0.1;}.cls-2,.cls-5{fill:#fff;}.cls-2,.cls-3,.cls-4,.cls-5,.cls-6{stroke:#13293d;stroke-miterlimit:10;stroke-width:0.25px;}.cls-3,.cls-6{fill:#f6f9fb;}.cls-4{fill:#ecf2f6;}.cls-5,.cls-6{opacity:0.9;}</style>
  </defs>
  <title
     id="title1099">Asset 7</title>
  <path
     style="fill:#ffffff;stroke:none;stroke-width:0.24879843px;stroke-miterlimit:10"
     inkscape:connector-curvature="0"
     id="path1337-5"
     d="m 131.715,1.9215498e-4 h 14.56893 c 7e-5,25.42080484502 0,0 7e-5,25.42080484502 z"
     class="cls-2"
     sodipodi:nodetypes="cccc" />
  <path
     style="opacity:0.9;fill:#f6f9fb;fill-opacity:1;stroke:none;stroke-width:0.24776401px;stroke-miterlimit:10"
     inkscape:connector-curvature="0"
     id="path1337-3-16-5"
     d="m 131.715,101.93317 h 14.57033 c 8e-5,-25.207416 0,0 8e-5,-25.207416 z"
     class="cls-2"
     sodipodi:nodetypes="cccc" />
  <path
     style="opacity:0.9;fill:#ffffff;fill-opacity:1;stroke:none;stroke-width:0.24666962px;stroke-miterlimit:10"
     inkscape:connector-curvature="0"
     id="path1337-3-16-1-1"
     d="m 131.84454,101.93025 h 14.44134 c 7e-5,25.2084 0,0 7e-5,25.2084 z"
     class="cls-2"
     sodipodi:nodetypes="cccc" />
  <path
     style="fill:#ffffff;fill-opacity:1;stroke:none;stroke-width:0.24776891px;stroke-miterlimit:10"
     inkscape:connector-curvature="0"
     id="path1337-3-5"
     d="m 131.71593,51.092881 h 14.57153 c 8e-5,25.206342 0,0 8e-5,25.206342 z"
     class="cls-2"
     sodipodi:nodetypes="cccc" />
  <path
     style="fill:#ecf2f6;fill-opacity:1;stroke:none;stroke-width:0.25762528;stroke-miterlimit:10;stroke-dasharray:none"
     inkscape:connector-curvature="0"
     id="path1337-3-1-7"
     d="m 131,51.09133 h 15.28718 c 8e-5,-25.840649 0,0 8e-5,-25.840649 z"
     class="cls-2"
     sodipodi:nodetypes="cccc" />
  <polygon
     style="fill:#f6f9fb;stroke:none;stroke-width:0.25px;stroke-miterlimit:10"
     id="polygon1305"
     points="100.19,127.57 85.49,102.15 70.78,127.57 "
     class="cls-3"
     transform="matrix(0.99039131,0,0,1.0000194,-70.099897,0.02952252)" />
  <polygon
     style="fill:#f6f9fb;stroke:none;stroke-width:0.25px;stroke-miterlimit:10"
     id="polygon1309"
     points="100.19,127.57 129.61,127.57 114.9,102.15 "
     class="cls-3"
     transform="matrix(0.99039131,0,0,1.0000194,-69.885224,0.02952252)" />
  <polygon
     style="fill:#f6f9fb;stroke:none;stroke-width:0.25px;stroke-miterlimit:10"
     id="polygon1313"
     points="129.61,127.57 159.03,127.57 144.32,102.15 "
     class="cls-3"
     transform="matrix(0.99039131,0,0,1.0000194,-69.885224,0.02952252)" />
  <polygon
     style="fill:#ecf2f6;stroke:none;stroke-width:0.25px;stroke-miterlimit:10"
     id="polygon1317"
     points="159.03,127.57 188.44,127.57 173.74,102.15 "
     class="cls-4"
     transform="matrix(0.99039131,0,0,1.0000194,-69.885224,0.02952252)" />
  <polygon
     style="fill:#f6f9fb;stroke:none;stroke-width:0.25px;stroke-miterlimit:10"
     id="polygon1321"
     points="188.44,127.57 217.86,127.57 203.15,102.15 "
     class="cls-3"
     transform="matrix(0.99039131,0,0,1.0000194,-69.885224,0.02952252)" />
  <polygon
     style="fill:#ffffff;stroke:none;stroke-width:0.25px;stroke-miterlimit:10"
     id="polygon1229"
     points="114.9,0.47 85.49,0.47 100.19,25.89 "
     class="cls-2"
     transform="matrix(0.99039131,0,0,1.0000194,-69.885224,-0.46950489)" />
  <polygon
     style="fill:#ffffff;stroke:none;stroke-width:0.25px;stroke-miterlimit:10"
     id="polygon1237"
     points="144.32,0.47 114.9,0.47 129.61,25.89 "
     class="cls-2"
     transform="matrix(0.99039131,0,0,1.0000194,-69.885224,-0.46950489)" />
  <polygon
     style="fill:#ffffff;stroke:none;stroke-width:0.25px;stroke-miterlimit:10"
     id="polygon1245"
     points="173.74,0.47 144.32,0.47 159.03,25.89 "
     class="cls-2"
     transform="matrix(0.99039131,0,0,1.0000194,-69.885224,-0.46950489)" />
  <polygon
     style="fill:#ecf2f6;stroke:none;stroke-width:0.25px;stroke-miterlimit:10"
     id="polygon1253"
     points="203.15,0.47 173.74,0.47 188.44,25.89 "
     class="cls-4"
     transform="matrix(0.99039131,0,0,1.0000194,-69.885224,-0.46950489)" />
  <polygon
     style="fill:#ecf2f6;stroke:#13293d;stroke-width:0.25px;stroke-miterlimit:10"
     id="polygon1319"
     points="173.74,102.15 188.44,127.57 203.15,102.15 "
     class="cls-4"
     transform="matrix(0.99039131,0,0,1.0000194,-69.885224,-0.34406266)" />
  <polygon
     style="fill:#ffffff;stroke:#13293d;stroke-width:0.25020254;stroke-miterlimit:10;stroke-dasharray:none"
     id="polygon1307"
     points="85.49,102.15 100.19,127.57 114.9,102.15 "
     class="cls-2"
     transform="matrix(0.99039131,0,0,1.0000194,-69.885224,-0.34426491)" />
  <polygon
     style="fill:#ffffff;stroke:#13293d;stroke-width:0.25px;stroke-miterlimit:10"
     id="polygon1311"
     points="114.9,102.15 129.61,127.57 144.32,102.15 "
     class="cls-2"
     transform="matrix(0.99039131,0,0,1.0000194,-69.885224,-0.34399909)" />
  <polygon
     style="opacity:0.9;fill:#ffffff;stroke:#13293d;stroke-width:0.25px;stroke-miterlimit:10"
     id="polygon1147"
     points="218.05,76.73 188.64,76.73 203.35,102.15 "
     class="cls-5"
     transform="matrix(0.99039131,0,0,1.0000194,-69.885224,-0.22005218)" />
  <polygon
     style="opacity:0.9;fill:#f6f9fb;stroke:#13293d;stroke-width:0.25px;stroke-miterlimit:10"
     id="polygon1149"
     points="218.05,76.73 203.35,51.31 188.64,76.73 "
     class="cls-6"
     transform="matrix(0.99039131,0,0,1.0000194,-69.885224,-0.22005218)" />
  <polygon
     style="fill:#ffffff;stroke:#13293d;stroke-width:0.25px;stroke-miterlimit:10"
     id="polygon1223"
     points="100.19,25.89 70.78,25.89 85.49,51.31 "
     class="cls-2"
     transform="matrix(0.99039131,0,0,1.0000194,-69.86888,-0.22005218)" />
  <polygon
     style="fill:#f6f9fb;stroke:#13293d;stroke-width:0.25px;stroke-miterlimit:10"
     id="polygon1225"
     points="100.19,25.89 85.49,0.47 70.78,25.89 "
     class="cls-3"
     transform="matrix(0.99039131,0,0,1.0000194,-69.885224,-0.22005218)" />
  <polygon
     style="fill:#ffffff;stroke:#13293d;stroke-width:0.25px;stroke-miterlimit:10"
     id="polygon1231"
     points="114.9,51.31 129.61,25.89 100.19,25.89 "
     class="cls-2"
     transform="matrix(0.99039131,0,0,1.0000194,-69.885224,-0.22005218)" />
  <polygon
     style="fill:#f6f9fb;stroke:#13293d;stroke-width:0.25px;stroke-miterlimit:10"
     id="polygon1233"
     points="100.19,25.89 129.61,25.89 114.9,0.47 "
     class="cls-3"
     transform="matrix(0.99039131,0,0,1.0000194,-69.885224,-0.22005218)" />
  <polygon
     style="fill:#ffffff;stroke:#13293d;stroke-width:0.25px;stroke-miterlimit:10"
     id="polygon1235"
     points="114.9,51.31 100.19,25.89 85.49,51.31 "
     class="cls-2"
     transform="matrix(0.99039131,0,0,1.0000194,-69.885224,-0.22005218)" />
  <polygon
     style="fill:#ffffff;stroke:#13293d;stroke-width:0.25px;stroke-miterlimit:10"
     id="polygon1239"
     points="144.32,51.31 159.03,25.89 129.61,25.89 "
     class="cls-2"
     transform="matrix(0.99039131,0,0,1.0000194,-69.885224,-0.22005218)" />
  <polygon
     style="fill:#f6f9fb;stroke:#13293d;stroke-width:0.25px;stroke-miterlimit:10"
     id="polygon1241"
     points="129.61,25.89 159.03,25.89 144.32,0.47 "
     class="cls-3"
     transform="matrix(0.99039131,0,0,1.0000194,-69.885224,-0.22005218)" />
  <polygon
     style="fill:#ecf2f6;stroke:#13293d;stroke-width:0.25px;stroke-miterlimit:10"
     id="polygon1243"
     points="114.9,51.31 144.32,51.31 129.61,25.89 "
     class="cls-4"
     transform="matrix(0.99039131,0,0,1.0000194,-69.885224,-0.22005218)" />
  <polygon
     style="fill:#ffffff;stroke:#13293d;stroke-width:0.25px;stroke-miterlimit:10"
     id="polygon1247"
     points="173.74,51.31 188.44,25.89 159.03,25.89 "
     class="cls-2"
     transform="matrix(0.99039131,0,0,1.0000194,-69.885224,-0.22005218)" />
  <polygon
     style="fill:#ecf2f6;stroke:#13293d;stroke-width:0.25px;stroke-miterlimit:10"
     id="polygon1249"
     points="159.03,25.89 188.44,25.89 173.74,0.47 "
     class="cls-4"
     transform="matrix(0.99039131,0,0,1.0000194,-69.885224,-0.22005218)" />
  <polygon
     style="fill:#f6f9fb;stroke:#13293d;stroke-width:0.25px;stroke-miterlimit:10"
     id="polygon1251"
     points="144.32,51.31 173.74,51.31 159.03,25.89 "
     class="cls-3"
     transform="matrix(0.99039131,0,0,1.0000194,-69.885224,-0.22005218)" />
  <polygon
     style="fill:#ffffff;stroke:#13293d;stroke-width:0.25px;stroke-miterlimit:10"
     id="polygon1255"
     points="188.44,25.89 203.15,51.31 217.86,25.89 "
     class="cls-2"
     transform="matrix(0.99039131,0,0,1.0000194,-69.885224,-0.22005218)" />
  <polygon
     style="fill:#f6f9fb;stroke:#13293d;stroke-width:0.25px;stroke-miterlimit:10"
     id="polygon1257"
     points="217.86,25.89 203.15,0.47 188.44,25.89 "
     class="cls-3"
     transform="matrix(0.99039131,0,0,1.0000194,-69.885224,-0.09545423)" />
  <polygon
     style="fill:#f6f9fb;stroke:#13293d;stroke-width:0.25px;stroke-miterlimit:10"
     id="polygon1259"
     points="188.44,25.89 173.74,51.31 203.15,51.31 "
     class="cls-3"
     transform="matrix(0.99039131,0,0,1.0000194,-69.885224,-0.22005218)" />
  <polygon
     style="fill:#ffffff;stroke:#13293d;stroke-width:0.25px;stroke-miterlimit:10"
     id="polygon1269"
     points="70.78,76.73 85.49,102.15 100.19,76.73 "
     class="cls-2"
     transform="matrix(0.99039135,0,0,1.0000142,-69.885227,-0.2190323)" />
  <polygon
     style="fill:#ffffff;stroke:#13293d;stroke-width:0.25px;stroke-miterlimit:10"
     id="polygon1275"
     points="100.19,76.73 114.9,51.31 85.49,51.31 "
     class="cls-2"
     transform="matrix(0.99039131,0,0,1.0000194,-69.885224,-0.22005218)" />
  <polygon
     style="fill:#ffffff;stroke:#13293d;stroke-width:0.25px;stroke-miterlimit:10"
     id="polygon1277"
     points="129.61,76.73 100.19,76.73 114.9,102.15 "
     class="cls-2"
     transform="matrix(0.99039131,0,0,1.0000194,-69.885224,-0.22005218)" />
  <polygon
     style="fill:#f6f9fb;stroke:#13293d;stroke-width:0.25px;stroke-miterlimit:10"
     id="polygon1279"
     points="114.9,51.31 100.19,76.73 129.61,76.73 "
     class="cls-3"
     transform="matrix(0.99039131,0,0,1.0000194,-69.885224,-0.22005218)" />
  <polygon
     style="fill:#ecf2f6;stroke:#13293d;stroke-width:0.25px;stroke-miterlimit:10"
     id="polygon1281"
     points="100.19,76.73 85.49,102.15 114.9,102.15 "
     class="cls-4"
     transform="matrix(0.99039131,0,0,1.0000194,-69.885224,-0.22005218)" />
  <polygon
     style="fill:#ffffff;stroke:#13293d;stroke-width:0.25px;stroke-miterlimit:10"
     id="polygon1283"
     points="144.32,51.31 114.9,51.31 129.61,76.73 "
     class="cls-2"
     transform="matrix(0.99039131,0,0,1.0000194,-69.885224,-0.22005218)" />
  <polygon
     style="fill:#ffffff;stroke:#13293d;stroke-width:0.25px;stroke-miterlimit:10"
     id="polygon1285"
     points="159.03,76.73 129.61,76.73 144.32,102.15 "
     class="cls-2"
     transform="matrix(0.99039131,0,0,1.0000194,-69.885224,-0.22005218)" />
  <polygon
     style="fill:#f6f9fb;stroke:#13293d;stroke-width:0.25px;stroke-miterlimit:10"
     id="polygon1287"
     points="144.32,51.31 129.61,76.73 159.03,76.73 "
     class="cls-3"
     transform="matrix(0.99039131,0,0,1.0000194,-69.885224,-0.22005218)" />
  <polygon
     style="fill:#f6f9fb;stroke:#13293d;stroke-width:0.25px;stroke-miterlimit:10"
     id="polygon1289"
     points="129.61,76.73 114.9,102.15 144.32,102.15 "
     class="cls-3"
     transform="matrix(0.99039131,0,0,1.0000194,-69.885224,-0.22005218)" />
  <polygon
     style="fill:#ffffff;stroke:#13293d;stroke-width:0.25px;stroke-miterlimit:10"
     id="polygon1291"
     points="144.32,51.31 159.03,76.73 173.74,51.31 "
     class="cls-2"
     transform="matrix(0.99039131,0,0,1.0000194,-69.885224,-0.22005218)" />
  <polygon
     style="fill:#ffffff;stroke:#13293d;stroke-width:0.25px;stroke-miterlimit:10"
     id="polygon1293"
     points="159.03,76.73 173.74,102.15 188.44,76.73 "
     class="cls-2"
     transform="matrix(0.99039131,0,0,1.0000194,-69.885224,-0.22005218)" />
  <polygon
     style="fill:#f6f9fb;stroke:#13293d;stroke-width:0.25px;stroke-miterlimit:10"
     id="polygon1295"
     points="173.74,51.31 159.03,76.73 188.44,76.73 "
     class="cls-3"
     transform="matrix(0.99039131,0,0,1.0000194,-69.885224,-0.22005218)" />
  <polygon
     style="fill:#f6f9fb;stroke:#13293d;stroke-width:0.25px;stroke-miterlimit:10"
     id="polygon1297"
     points="159.03,76.73 144.32,102.15 173.74,102.15 "
     class="cls-3"
     transform="matrix(0.99039131,0,0,1.0000194,-69.885224,-0.22005218)" />
  <polygon
     style="fill:#ffffff;stroke:#13293d;stroke-width:0.25px;stroke-miterlimit:10"
     id="polygon1299"
     points="173.74,51.31 188.44,76.73 203.15,51.31 "
     class="cls-2"
     transform="matrix(0.99039131,0,0,1.0000194,-69.885224,-0.22005218)" />
  <polygon
     style="fill:#ecf2f6;stroke:#13293d;stroke-width:0.25px;stroke-miterlimit:10"
     id="polygon1301"
     points="173.74,102.15 203.15,102.15 188.44,76.73 "
     class="cls-4"
     transform="matrix(0.99039131,0,0,1.0000194,-69.885224,-0.22005218)" />
  <polygon
     style="fill:#ffffff;stroke:#13293d;stroke-width:0.25px;stroke-miterlimit:10"
     id="polygon1315"
     points="173.74,102.15 144.32,102.15 159.03,127.57 "
     class="cls-2"
     transform="matrix(0.99039131,0,0,1.0000194,-69.885224,-0.22005218)" />
  <path
     style="fill:#ffffff;stroke:none;stroke-width:0.24879938px;stroke-miterlimit:10"
     inkscape:connector-curvature="0"
     id="path1337"
     d="M 14.570065,-2.6245117e-6 H 0.00113848 c -7.408e-5,25.4209996245117 0,0 -7.408e-5,25.4209996245117 z"
     class="cls-2"
     sodipodi:nodetypes="cccc" />
  <path
     style="fill:#ecf2f6;fill-opacity:1;stroke:none;stroke-width:0.24944882;stroke-miterlimit:10;stroke-dasharray:none"
     inkscape:connector-curvature="0"
     id="path1337-3-1"
     d="M 14.570064,51.216655 H 0.00113941 c -7.5e-5,-25.420804 0,0 -7.5e-5,-25.420804 z"
     class="cls-2"
     sodipodi:nodetypes="cccc" />
  <path
     style="fill:#ffffff;fill-opacity:1;stroke:none;stroke-width:0.24776891px;stroke-miterlimit:10"
     inkscape:connector-curvature="0"
     id="path1337-3"
     d="M 14.571717,51.092881 H 1.8224e-4 c -7.5e-5,25.206342 0,0 -7.5e-5,25.206342 z"
     class="cls-2"
     sodipodi:nodetypes="cccc" />
  <path
     style="opacity:0.9;fill:#f6f9fb;fill-opacity:1;stroke:none;stroke-width:0.24775633px;stroke-miterlimit:10"
     inkscape:connector-curvature="0"
     id="path1337-3-16"
     d="M 14.570964,102.05817 H 6.1837e-4 c -7.501e-5,-25.205831 0,0 -7.501e-5,-25.205831 z"
     class="cls-2"
     sodipodi:nodetypes="cccc" />
  <path
     style="opacity:0.9;fill:#ffffff;fill-opacity:1;stroke:none;stroke-width:0.24666962px;stroke-miterlimit:10"
     inkscape:connector-curvature="0"
     id="path1337-3-16-1"
     d="M 14.441411,101.9304 H 7.434e-5 c -7.434e-5,25.20841 0,0 -7.434e-5,25.20841 z"
     class="cls-2"
     sodipodi:nodetypes="cccc" />
  <polygon
     style="fill:#ecf2f6;stroke:#13293d;stroke-width:0.25px;stroke-miterlimit:10"
     id="polygon1271"
     points="100.19,76.73 85.49,51.31 70.78,76.73 "
     class="cls-4"
     transform="matrix(0.99039131,0,0,1.0000194,-69.885224,-0.22005218)" />
  <rect
     style="opacity:1;fill:#13293d;fill-opacity:1;stroke:none;stroke-width:0.23696041;stroke-miterlimit:10;stroke-dasharray:none;stroke-opacity:1"
     id="rect2454"
     width="146.284"
     height="0.249"
     x="0"
     y="101.80804" />
  <rect
     style="opacity:1;fill:#13293d;fill-opacity:1;stroke:none;stroke-width:0.23696041;stroke-miterlimit:10;stroke-dasharray:none;stroke-opacity:1"
     id="rect2454-0"
     width="146.284"
     height="0.249"
     x="0"
     y="76.387039" />
  <rect
     style="opacity:1;fill:#13293d;fill-opacity:1;stroke:none;stroke-width:0.23696041;stroke-miterlimit:10;stroke-dasharray:none;stroke-opacity:1"
     id="rect2454-8"
     width="146.284"
     height="0.249"
     x="0"
     y="50.967056" />
  <rect
     style="opacity:1;fill:#13293d;fill-opacity:1;stroke:none;stroke-width:0.23696041;stroke-miterlimit:10;stroke-dasharray:none;stroke-opacity:1"
     id="rect2454-8-3"
     width="146.284"
     height="0.249"
     x="0"
     y="25.546051" />
</svg>
