<svg xmlns="http://www.w3.org/2000/svg" viewBox="0 0 2561.68 57.19"><defs><style>.cls-1{opacity:0.1;}.cls-2,.cls-3{fill:#fff;}.cls-2,.cls-3,.cls-4,.cls-5,.cls-6{stroke:#13293d;stroke-miterlimit:10;stroke-width:0.25px;}.cls-2,.cls-4{opacity:0.9;}.cls-4,.cls-6{fill:#f6f9fb;}.cls-5{fill:#ecf2f6;}</style></defs><title>Asset 7</title><g id="Layer_2" data-name="Layer 2"><g id="Слой_1" data-name="Слой 1"><g class="cls-1"><polygon class="cls-2" points="181.05 0.25 197.45 28.6 213.85 0.25 181.05 0.25"/><polygon class="cls-3" points="213.85 0.25 230.25 28.6 246.65 0.25 213.85 0.25"/><polygon class="cls-4" points="213.85 0.25 197.45 28.6 230.25 28.6 213.85 0.25"/><polygon class="cls-3" points="246.65 0.25 263.05 28.6 279.45 0.25 246.65 0.25"/><polygon class="cls-5" points="230.25 28.6 263.05 28.6 246.65 0.25 230.25 28.6"/><polygon class="cls-3" points="279.45 0.25 295.85 28.6 312.25 0.25 279.45 0.25"/><polygon class="cls-6" points="263.05 28.6 295.85 28.6 279.45 0.25 263.05 28.6"/><polygon class="cls-3" points="312.25 0.25 328.65 28.6 345.06 0.25 312.25 0.25"/><polygon class="cls-6" points="295.85 28.6 328.65 28.6 312.25 0.25 295.85 28.6"/><polygon class="cls-3" points="361.45 28.6 377.86 0.25 345.06 0.25 361.45 28.6"/><polygon class="cls-5" points="328.65 28.6 361.45 28.6 345.06 0.25 328.65 28.6"/><polygon class="cls-6" points="361.45 28.6 394.25 28.6 377.86 0.25 361.45 28.6"/><polygon class="cls-2" points="197.45 28.6 213.85 56.94 230.25 28.6 197.45 28.6"/><polygon class="cls-6" points="213.85 56.94 246.65 56.94 230.25 28.6 213.85 56.94"/><polygon class="cls-3" points="230.25 28.6 246.65 56.94 263.05 28.6 230.25 28.6"/><polygon class="cls-6" points="246.65 56.94 279.45 56.94 263.05 28.6 246.65 56.94"/><polygon class="cls-3" points="263.05 28.6 279.45 56.94 295.85 28.6 263.05 28.6"/><polygon class="cls-6" points="279.45 56.94 312.25 56.94 295.85 28.6 279.45 56.94"/><polygon class="cls-3" points="295.85 28.6 312.25 56.94 328.65 28.6 295.85 28.6"/><polygon class="cls-5" points="312.25 56.94 345.06 56.94 328.65 28.6 312.25 56.94"/><polygon class="cls-5" points="328.65 28.6 345.06 56.94 361.45 28.6 328.65 28.6"/><polygon class="cls-6" points="345.06 56.94 377.86 56.94 361.45 28.6 345.06 56.94"/><polygon class="cls-3" points="377.86 56.94 394.25 28.6 361.45 28.6 377.86 56.94"/><polygon class="cls-2" points="16.84 0.25 33.23 28.6 49.63 0.25 16.84 0.25"/><polygon class="cls-3" points="49.63 0.25 66.03 28.6 82.44 0.25 49.63 0.25"/><polygon class="cls-4" points="49.63 0.25 33.23 28.6 66.03 28.6 49.63 0.25"/><polygon class="cls-3" points="82.44 0.25 98.83 28.6 115.24 0.25 82.44 0.25"/><polygon class="cls-5" points="66.03 28.6 98.83 28.6 82.44 0.25 66.03 28.6"/><polygon class="cls-3" points="115.24 0.25 131.64 28.6 148.04 0.25 115.24 0.25"/><polygon class="cls-6" points="98.83 28.6 131.64 28.6 115.24 0.25 98.83 28.6"/><polygon class="cls-3" points="164.44 28.6 180.84 0.25 148.04 0.25 164.44 28.6"/><polygon class="cls-6" points="131.64 28.6 164.44 28.6 148.04 0.25 131.64 28.6"/><polygon class="cls-5" points="197.24 28.6 180.84 0.25 164.44 28.6 197.24 28.6"/><polygon class="cls-2" points="33.23 28.6 49.63 56.94 66.03 28.6 33.23 28.6"/><polygon class="cls-6" points="49.63 56.94 82.44 56.94 66.03 28.6 49.63 56.94"/><polygon class="cls-3" points="66.03 28.6 82.44 56.94 98.83 28.6 66.03 28.6"/><polygon class="cls-6" points="82.44 56.94 115.24 56.94 98.83 28.6 82.44 56.94"/><polygon class="cls-3" points="98.83 28.6 115.24 56.94 131.64 28.6 98.83 28.6"/><polygon class="cls-6" points="115.24 56.94 148.04 56.94 131.64 28.6 115.24 56.94"/><polygon class="cls-3" points="131.64 28.6 148.04 56.94 164.44 28.6 131.64 28.6"/><polygon class="cls-5" points="148.04 56.94 180.84 56.94 164.44 28.6 148.04 56.94"/><polygon class="cls-5" points="164.44 28.6 180.84 56.94 197.24 28.6 164.44 28.6"/><polygon class="cls-6" points="180.84 56.94 213.64 56.94 197.24 28.6 180.84 56.94"/><polygon class="cls-5" points="33.02 28.6 16.62 0.25 0.22 28.6 33.02 28.6"/><polygon class="cls-3" points="0.22 0.25 0.22 28.6 16.62 0.25 0.22 0.25"/><polygon class="cls-5" points="0.22 28.6 0.22 56.94 16.62 56.94 0.22 28.6"/><polygon class="cls-5" points="0.22 28.6 16.62 56.94 33.02 28.6 0.22 28.6"/><polygon class="cls-6" points="16.62 56.94 49.42 56.94 33.02 28.6 16.62 56.94"/></g><g class="cls-1"><polygon class="cls-2" points="575.09 0.25 591.49 28.6 607.89 0.25 575.09 0.25"/><polygon class="cls-3" points="607.89 0.25 624.29 28.6 640.69 0.25 607.89 0.25"/><polygon class="cls-4" points="607.89 0.25 591.49 28.6 624.29 28.6 607.89 0.25"/><polygon class="cls-3" points="640.69 0.25 657.09 28.6 673.49 0.25 640.69 0.25"/><polygon class="cls-5" points="624.29 28.6 657.09 28.6 640.69 0.25 624.29 28.6"/><polygon class="cls-3" points="673.49 0.25 689.89 28.6 706.29 0.25 673.49 0.25"/><polygon class="cls-6" points="657.09 28.6 689.89 28.6 673.49 0.25 657.09 28.6"/><polygon class="cls-3" points="706.29 0.25 722.69 28.6 739.09 0.25 706.29 0.25"/><polygon class="cls-6" points="689.89 28.6 722.69 28.6 706.29 0.25 689.89 28.6"/><polygon class="cls-3" points="755.49 28.6 771.89 0.25 739.09 0.25 755.49 28.6"/><polygon class="cls-5" points="722.69 28.6 755.49 28.6 739.09 0.25 722.69 28.6"/><polygon class="cls-6" points="755.49 28.6 788.29 28.6 771.89 0.25 755.49 28.6"/><polygon class="cls-2" points="591.49 28.6 607.89 56.94 624.29 28.6 591.49 28.6"/><polygon class="cls-6" points="607.89 56.94 640.69 56.94 624.29 28.6 607.89 56.94"/><polygon class="cls-3" points="624.29 28.6 640.69 56.94 657.09 28.6 624.29 28.6"/><polygon class="cls-6" points="640.69 56.94 673.49 56.94 657.09 28.6 640.69 56.94"/><polygon class="cls-3" points="657.09 28.6 673.49 56.94 689.89 28.6 657.09 28.6"/><polygon class="cls-6" points="673.49 56.94 706.29 56.94 689.89 28.6 673.49 56.94"/><polygon class="cls-3" points="689.89 28.6 706.29 56.94 722.69 28.6 689.89 28.6"/><polygon class="cls-5" points="706.29 56.94 739.09 56.94 722.69 28.6 706.29 56.94"/><polygon class="cls-5" points="722.69 28.6 739.09 56.94 755.49 28.6 722.69 28.6"/><polygon class="cls-6" points="739.09 56.94 771.89 56.94 755.49 28.6 739.09 56.94"/><polygon class="cls-3" points="771.89 56.94 788.29 28.6 755.49 28.6 771.89 56.94"/><polygon class="cls-2" points="410.87 0.25 427.27 28.6 443.67 0.25 410.87 0.25"/><polygon class="cls-3" points="443.67 0.25 460.07 28.6 476.47 0.25 443.67 0.25"/><polygon class="cls-4" points="443.67 0.25 427.27 28.6 460.07 28.6 443.67 0.25"/><polygon class="cls-3" points="476.47 0.25 492.87 28.6 509.27 0.25 476.47 0.25"/><polygon class="cls-5" points="460.07 28.6 492.87 28.6 476.47 0.25 460.07 28.6"/><polygon class="cls-3" points="509.27 0.25 525.67 28.6 542.07 0.25 509.27 0.25"/><polygon class="cls-6" points="492.87 28.6 525.67 28.6 509.27 0.25 492.87 28.6"/><polygon class="cls-3" points="558.48 28.6 574.88 0.25 542.07 0.25 558.48 28.6"/><polygon class="cls-6" points="525.67 28.6 558.48 28.6 542.07 0.25 525.67 28.6"/><polygon class="cls-5" points="591.27 28.6 574.88 0.25 558.48 28.6 591.27 28.6"/><polygon class="cls-2" points="427.27 28.6 443.67 56.94 460.07 28.6 427.27 28.6"/><polygon class="cls-6" points="443.67 56.94 476.47 56.94 460.07 28.6 443.67 56.94"/><polygon class="cls-3" points="460.07 28.6 476.47 56.94 492.87 28.6 460.07 28.6"/><polygon class="cls-6" points="476.47 56.94 509.27 56.94 492.87 28.6 476.47 56.94"/><polygon class="cls-3" points="492.87 28.6 509.27 56.94 525.67 28.6 492.87 28.6"/><polygon class="cls-6" points="509.27 56.94 542.07 56.94 525.67 28.6 509.27 56.94"/><polygon class="cls-3" points="525.67 28.6 542.07 56.94 558.48 28.6 525.67 28.6"/><polygon class="cls-5" points="542.07 56.94 574.88 56.94 558.48 28.6 542.07 56.94"/><polygon class="cls-5" points="558.48 28.6 574.88 56.94 591.27 28.6 558.48 28.6"/><polygon class="cls-6" points="574.88 56.94 607.67 56.94 591.27 28.6 574.88 56.94"/><polygon class="cls-3" points="394.25 28.6 410.65 0.25 377.86 0.25 394.25 28.6"/><polygon class="cls-5" points="427.06 28.6 410.65 0.25 394.25 28.6 427.06 28.6"/><polygon class="cls-5" points="377.86 56.94 410.65 56.94 394.25 28.6 377.86 56.94"/><polygon class="cls-5" points="394.25 28.6 410.65 56.94 427.06 28.6 394.25 28.6"/><polygon class="cls-6" points="410.65 56.94 443.46 56.94 427.06 28.6 410.65 56.94"/></g><g class="cls-1"><polygon class="cls-2" points="969.13 0.25 985.53 28.6 1001.93 0.25 969.13 0.25"/><polygon class="cls-3" points="1001.93 0.25 1018.33 28.6 1034.73 0.25 1001.93 0.25"/><polygon class="cls-4" points="1001.93 0.25 985.53 28.6 1018.33 28.6 1001.93 0.25"/><polygon class="cls-3" points="1034.73 0.25 1051.13 28.6 1067.53 0.25 1034.73 0.25"/><polygon class="cls-5" points="1018.33 28.6 1051.13 28.6 1034.73 0.25 1018.33 28.6"/><polygon class="cls-3" points="1067.53 0.25 1083.93 28.6 1100.33 0.25 1067.53 0.25"/><polygon class="cls-6" points="1051.13 28.6 1083.93 28.6 1067.53 0.25 1051.13 28.6"/><polygon class="cls-3" points="1100.33 0.25 1116.73 28.6 1133.13 0.25 1100.33 0.25"/><polygon class="cls-6" points="1083.93 28.6 1116.73 28.6 1100.33 0.25 1083.93 28.6"/><polygon class="cls-3" points="1149.53 28.6 1165.93 0.25 1133.13 0.25 1149.53 28.6"/><polygon class="cls-5" points="1116.73 28.6 1149.53 28.6 1133.13 0.25 1116.73 28.6"/><polygon class="cls-6" points="1149.53 28.6 1182.33 28.6 1165.93 0.25 1149.53 28.6"/><polygon class="cls-2" points="985.53 28.6 1001.93 56.94 1018.33 28.6 985.53 28.6"/><polygon class="cls-6" points="1001.93 56.94 1034.73 56.94 1018.33 28.6 1001.93 56.94"/><polygon class="cls-3" points="1018.33 28.6 1034.73 56.94 1051.13 28.6 1018.33 28.6"/><polygon class="cls-6" points="1034.73 56.94 1067.53 56.94 1051.13 28.6 1034.73 56.94"/><polygon class="cls-3" points="1051.13 28.6 1067.53 56.94 1083.93 28.6 1051.13 28.6"/><polygon class="cls-6" points="1067.53 56.94 1100.33 56.94 1083.93 28.6 1067.53 56.94"/><polygon class="cls-3" points="1083.93 28.6 1100.33 56.94 1116.73 28.6 1083.93 28.6"/><polygon class="cls-5" points="1100.33 56.94 1133.13 56.94 1116.73 28.6 1100.33 56.94"/><polygon class="cls-5" points="1116.73 28.6 1133.13 56.94 1149.53 28.6 1116.73 28.6"/><polygon class="cls-6" points="1133.13 56.94 1165.93 56.94 1149.53 28.6 1133.13 56.94"/><polygon class="cls-3" points="1165.93 56.94 1182.33 28.6 1149.53 28.6 1165.93 56.94"/><polygon class="cls-2" points="804.91 0.25 821.31 28.6 837.71 0.25 804.91 0.25"/><polygon class="cls-3" points="837.71 0.25 854.11 28.6 870.51 0.25 837.71 0.25"/><polygon class="cls-4" points="837.71 0.25 821.31 28.6 854.11 28.6 837.71 0.25"/><polygon class="cls-3" points="870.51 0.25 886.91 28.6 903.31 0.25 870.51 0.25"/><polygon class="cls-5" points="854.11 28.6 886.91 28.6 870.51 0.25 854.11 28.6"/><polygon class="cls-3" points="903.31 0.25 919.71 28.6 936.11 0.25 903.31 0.25"/><polygon class="cls-6" points="886.91 28.6 919.71 28.6 903.31 0.25 886.91 28.6"/><polygon class="cls-3" points="952.51 28.6 968.91 0.25 936.11 0.25 952.51 28.6"/><polygon class="cls-6" points="919.71 28.6 952.51 28.6 936.11 0.25 919.71 28.6"/><polygon class="cls-5" points="985.31 28.6 968.91 0.25 952.51 28.6 985.31 28.6"/><polygon class="cls-2" points="821.31 28.6 837.71 56.94 854.11 28.6 821.31 28.6"/><polygon class="cls-6" points="837.71 56.94 870.51 56.94 854.11 28.6 837.71 56.94"/><polygon class="cls-3" points="854.11 28.6 870.51 56.94 886.91 28.6 854.11 28.6"/><polygon class="cls-6" points="870.51 56.94 903.31 56.94 886.91 28.6 870.51 56.94"/><polygon class="cls-3" points="886.91 28.6 903.31 56.94 919.71 28.6 886.91 28.6"/><polygon class="cls-6" points="903.31 56.94 936.11 56.94 919.71 28.6 903.31 56.94"/><polygon class="cls-3" points="919.71 28.6 936.11 56.94 952.51 28.6 919.71 28.6"/><polygon class="cls-5" points="936.11 56.94 968.91 56.94 952.51 28.6 936.11 56.94"/><polygon class="cls-5" points="952.51 28.6 968.91 56.94 985.31 28.6 952.51 28.6"/><polygon class="cls-6" points="968.91 56.94 1001.71 56.94 985.31 28.6 968.91 56.94"/><polygon class="cls-3" points="788.29 28.6 804.69 0.25 771.89 0.25 788.29 28.6"/><polygon class="cls-5" points="821.09 28.6 804.69 0.25 788.29 28.6 821.09 28.6"/><polygon class="cls-5" points="771.89 56.94 804.69 56.94 788.29 28.6 771.89 56.94"/><polygon class="cls-5" points="788.29 28.6 804.69 56.94 821.09 28.6 788.29 28.6"/><polygon class="cls-6" points="804.69 56.94 837.49 56.94 821.09 28.6 804.69 56.94"/></g><g class="cls-1"><polygon class="cls-2" points="1363.17 0.25 1379.57 28.6 1395.97 0.25 1363.17 0.25"/><polygon class="cls-3" points="1395.97 0.25 1412.37 28.6 1428.77 0.25 1395.97 0.25"/><polygon class="cls-4" points="1395.97 0.25 1379.57 28.6 1412.37 28.6 1395.97 0.25"/><polygon class="cls-3" points="1428.77 0.25 1445.17 28.6 1461.57 0.25 1428.77 0.25"/><polygon class="cls-5" points="1412.37 28.6 1445.17 28.6 1428.77 0.25 1412.37 28.6"/><polygon class="cls-3" points="1461.57 0.25 1477.97 28.6 1494.37 0.25 1461.57 0.25"/><polygon class="cls-6" points="1445.17 28.6 1477.97 28.6 1461.57 0.25 1445.17 28.6"/><polygon class="cls-3" points="1494.37 0.25 1510.77 28.6 1527.17 0.25 1494.37 0.25"/><polygon class="cls-6" points="1477.97 28.6 1510.77 28.6 1494.37 0.25 1477.97 28.6"/><polygon class="cls-3" points="1543.57 28.6 1559.97 0.25 1527.17 0.25 1543.57 28.6"/><polygon class="cls-5" points="1510.77 28.6 1543.57 28.6 1527.17 0.25 1510.77 28.6"/><polygon class="cls-6" points="1543.57 28.6 1576.37 28.6 1559.97 0.25 1543.57 28.6"/><polygon class="cls-2" points="1379.57 28.6 1395.97 56.94 1412.37 28.6 1379.57 28.6"/><polygon class="cls-6" points="1395.97 56.94 1428.77 56.94 1412.37 28.6 1395.97 56.94"/><polygon class="cls-3" points="1412.37 28.6 1428.77 56.94 1445.17 28.6 1412.37 28.6"/><polygon class="cls-6" points="1428.77 56.94 1461.57 56.94 1445.17 28.6 1428.77 56.94"/><polygon class="cls-3" points="1445.17 28.6 1461.57 56.94 1477.97 28.6 1445.17 28.6"/><polygon class="cls-6" points="1461.57 56.94 1494.37 56.94 1477.97 28.6 1461.57 56.94"/><polygon class="cls-3" points="1477.97 28.6 1494.37 56.94 1510.77 28.6 1477.97 28.6"/><polygon class="cls-5" points="1494.37 56.94 1527.17 56.94 1510.77 28.6 1494.37 56.94"/><polygon class="cls-5" points="1510.77 28.6 1527.17 56.94 1543.57 28.6 1510.77 28.6"/><polygon class="cls-6" points="1527.17 56.94 1559.97 56.94 1543.57 28.6 1527.17 56.94"/><polygon class="cls-3" points="1559.97 56.94 1576.37 28.6 1543.57 28.6 1559.97 56.94"/><polygon class="cls-2" points="1198.95 0.25 1215.35 28.6 1231.75 0.25 1198.95 0.25"/><polygon class="cls-3" points="1231.75 0.25 1248.15 28.6 1264.55 0.25 1231.75 0.25"/><polygon class="cls-4" points="1231.75 0.25 1215.35 28.6 1248.15 28.6 1231.75 0.25"/><polygon class="cls-3" points="1264.55 0.25 1280.95 28.6 1297.35 0.25 1264.55 0.25"/><polygon class="cls-5" points="1248.15 28.6 1280.95 28.6 1264.55 0.25 1248.15 28.6"/><polygon class="cls-3" points="1297.35 0.25 1313.75 28.6 1330.15 0.25 1297.35 0.25"/><polygon class="cls-6" points="1280.95 28.6 1313.75 28.6 1297.35 0.25 1280.95 28.6"/><polygon class="cls-3" points="1346.55 28.6 1362.95 0.25 1330.15 0.25 1346.55 28.6"/><polygon class="cls-6" points="1313.75 28.6 1346.55 28.6 1330.15 0.25 1313.75 28.6"/><polygon class="cls-5" points="1379.35 28.6 1362.95 0.25 1346.55 28.6 1379.35 28.6"/><polygon class="cls-2" points="1215.35 28.6 1231.75 56.94 1248.15 28.6 1215.35 28.6"/><polygon class="cls-6" points="1231.75 56.94 1264.55 56.94 1248.15 28.6 1231.75 56.94"/><polygon class="cls-3" points="1248.15 28.6 1264.55 56.94 1280.95 28.6 1248.15 28.6"/><polygon class="cls-6" points="1264.55 56.94 1297.35 56.94 1280.95 28.6 1264.55 56.94"/><polygon class="cls-3" points="1280.95 28.6 1297.35 56.94 1313.75 28.6 1280.95 28.6"/><polygon class="cls-6" points="1297.35 56.94 1330.15 56.94 1313.75 28.6 1297.35 56.94"/><polygon class="cls-3" points="1313.75 28.6 1330.15 56.94 1346.55 28.6 1313.75 28.6"/><polygon class="cls-5" points="1330.15 56.94 1362.95 56.94 1346.55 28.6 1330.15 56.94"/><polygon class="cls-5" points="1346.55 28.6 1362.95 56.94 1379.35 28.6 1346.55 28.6"/><polygon class="cls-6" points="1362.95 56.94 1395.75 56.94 1379.35 28.6 1362.95 56.94"/><polygon class="cls-3" points="1182.33 28.6 1198.73 0.25 1165.93 0.25 1182.33 28.6"/><polygon class="cls-5" points="1215.13 28.6 1198.73 0.25 1182.33 28.6 1215.13 28.6"/><polygon class="cls-5" points="1165.93 56.94 1198.73 56.94 1182.33 28.6 1165.93 56.94"/><polygon class="cls-5" points="1182.33 28.6 1198.73 56.94 1215.13 28.6 1182.33 28.6"/><polygon class="cls-6" points="1198.73 56.94 1231.53 56.94 1215.13 28.6 1198.73 56.94"/></g><g class="cls-1"><polygon class="cls-2" points="1757.21 0.25 1773.61 28.6 1790.01 0.25 1757.21 0.25"/><polygon class="cls-3" points="1790.01 0.25 1806.41 28.6 1822.81 0.25 1790.01 0.25"/><polygon class="cls-4" points="1790.01 0.25 1773.61 28.6 1806.41 28.6 1790.01 0.25"/><polygon class="cls-3" points="1822.81 0.25 1839.21 28.6 1855.61 0.25 1822.81 0.25"/><polygon class="cls-5" points="1806.41 28.6 1839.21 28.6 1822.81 0.25 1806.41 28.6"/><polygon class="cls-3" points="1855.61 0.25 1872.01 28.6 1888.41 0.25 1855.61 0.25"/><polygon class="cls-6" points="1839.21 28.6 1872.01 28.6 1855.61 0.25 1839.21 28.6"/><polygon class="cls-3" points="1888.41 0.25 1904.81 28.6 1921.21 0.25 1888.41 0.25"/><polygon class="cls-6" points="1872.01 28.6 1904.81 28.6 1888.41 0.25 1872.01 28.6"/><polygon class="cls-3" points="1937.61 28.6 1954.01 0.25 1921.21 0.25 1937.61 28.6"/><polygon class="cls-5" points="1904.81 28.6 1937.61 28.6 1921.21 0.25 1904.81 28.6"/><polygon class="cls-6" points="1937.61 28.6 1970.41 28.6 1954.01 0.25 1937.61 28.6"/><polygon class="cls-2" points="1773.61 28.6 1790.01 56.94 1806.41 28.6 1773.61 28.6"/><polygon class="cls-6" points="1790.01 56.94 1822.81 56.94 1806.41 28.6 1790.01 56.94"/><polygon class="cls-3" points="1806.41 28.6 1822.81 56.94 1839.21 28.6 1806.41 28.6"/><polygon class="cls-6" points="1822.81 56.94 1855.61 56.94 1839.21 28.6 1822.81 56.94"/><polygon class="cls-3" points="1839.21 28.6 1855.61 56.94 1872.01 28.6 1839.21 28.6"/><polygon class="cls-6" points="1855.61 56.94 1888.41 56.94 1872.01 28.6 1855.61 56.94"/><polygon class="cls-3" points="1872.01 28.6 1888.41 56.94 1904.81 28.6 1872.01 28.6"/><polygon class="cls-5" points="1888.41 56.94 1921.21 56.94 1904.81 28.6 1888.41 56.94"/><polygon class="cls-5" points="1904.81 28.6 1921.21 56.94 1937.61 28.6 1904.81 28.6"/><polygon class="cls-6" points="1921.21 56.94 1954.01 56.94 1937.61 28.6 1921.21 56.94"/><polygon class="cls-3" points="1954.01 56.94 1970.41 28.6 1937.61 28.6 1954.01 56.94"/><polygon class="cls-2" points="1592.99 0.25 1609.39 28.6 1625.79 0.25 1592.99 0.25"/><polygon class="cls-3" points="1625.79 0.25 1642.19 28.6 1658.59 0.25 1625.79 0.25"/><polygon class="cls-4" points="1625.79 0.25 1609.39 28.6 1642.19 28.6 1625.79 0.25"/><polygon class="cls-3" points="1658.59 0.25 1674.99 28.6 1691.39 0.25 1658.59 0.25"/><polygon class="cls-5" points="1642.19 28.6 1674.99 28.6 1658.59 0.25 1642.19 28.6"/><polygon class="cls-3" points="1691.39 0.25 1707.79 28.6 1724.19 0.25 1691.39 0.25"/><polygon class="cls-6" points="1674.99 28.6 1707.79 28.6 1691.39 0.25 1674.99 28.6"/><polygon class="cls-3" points="1740.59 28.6 1756.99 0.25 1724.19 0.25 1740.59 28.6"/><polygon class="cls-6" points="1707.79 28.6 1740.59 28.6 1724.19 0.25 1707.79 28.6"/><polygon class="cls-5" points="1773.39 28.6 1756.99 0.25 1740.59 28.6 1773.39 28.6"/><polygon class="cls-2" points="1609.39 28.6 1625.79 56.94 1642.19 28.6 1609.39 28.6"/><polygon class="cls-6" points="1625.79 56.94 1658.59 56.94 1642.19 28.6 1625.79 56.94"/><polygon class="cls-3" points="1642.19 28.6 1658.59 56.94 1674.99 28.6 1642.19 28.6"/><polygon class="cls-6" points="1658.59 56.94 1691.39 56.94 1674.99 28.6 1658.59 56.94"/><polygon class="cls-3" points="1674.99 28.6 1691.39 56.94 1707.79 28.6 1674.99 28.6"/><polygon class="cls-6" points="1691.39 56.94 1724.19 56.94 1707.79 28.6 1691.39 56.94"/><polygon class="cls-3" points="1707.79 28.6 1724.19 56.94 1740.59 28.6 1707.79 28.6"/><polygon class="cls-5" points="1724.19 56.94 1756.99 56.94 1740.59 28.6 1724.19 56.94"/><polygon class="cls-5" points="1740.59 28.6 1756.99 56.94 1773.39 28.6 1740.59 28.6"/><polygon class="cls-6" points="1756.99 56.94 1789.79 56.94 1773.39 28.6 1756.99 56.94"/><polygon class="cls-3" points="1576.37 28.6 1592.77 0.25 1559.97 0.25 1576.37 28.6"/><polygon class="cls-5" points="1609.17 28.6 1592.77 0.25 1576.37 28.6 1609.17 28.6"/><polygon class="cls-5" points="1559.97 56.94 1592.77 56.94 1576.37 28.6 1559.97 56.94"/><polygon class="cls-5" points="1576.37 28.6 1592.77 56.94 1609.17 28.6 1576.37 28.6"/><polygon class="cls-6" points="1592.77 56.94 1625.57 56.94 1609.17 28.6 1592.77 56.94"/></g><g class="cls-1"><polygon class="cls-2" points="2151.25 0.25 2167.65 28.6 2184.05 0.25 2151.25 0.25"/><polygon class="cls-3" points="2184.05 0.25 2200.45 28.6 2216.85 0.25 2184.05 0.25"/><polygon class="cls-4" points="2184.05 0.25 2167.65 28.6 2200.45 28.6 2184.05 0.25"/><polygon class="cls-3" points="2216.85 0.25 2233.25 28.6 2249.65 0.25 2216.85 0.25"/><polygon class="cls-5" points="2200.45 28.6 2233.25 28.6 2216.85 0.25 2200.45 28.6"/><polygon class="cls-3" points="2249.65 0.25 2266.05 28.6 2282.45 0.25 2249.65 0.25"/><polygon class="cls-6" points="2233.25 28.6 2266.05 28.6 2249.65 0.25 2233.25 28.6"/><polygon class="cls-3" points="2282.45 0.25 2298.85 28.6 2315.25 0.25 2282.45 0.25"/><polygon class="cls-6" points="2266.05 28.6 2298.85 28.6 2282.45 0.25 2266.05 28.6"/><polygon class="cls-3" points="2331.65 28.6 2348.05 0.25 2315.25 0.25 2331.65 28.6"/><polygon class="cls-5" points="2298.85 28.6 2331.65 28.6 2315.25 0.25 2298.85 28.6"/><polygon class="cls-6" points="2331.65 28.6 2364.45 28.6 2348.05 0.25 2331.65 28.6"/><polygon class="cls-2" points="2167.65 28.6 2184.05 56.94 2200.45 28.6 2167.65 28.6"/><polygon class="cls-6" points="2184.05 56.94 2216.85 56.94 2200.45 28.6 2184.05 56.94"/><polygon class="cls-3" points="2200.45 28.6 2216.85 56.94 2233.25 28.6 2200.45 28.6"/><polygon class="cls-6" points="2216.85 56.94 2249.65 56.94 2233.25 28.6 2216.85 56.94"/><polygon class="cls-3" points="2233.25 28.6 2249.65 56.94 2266.05 28.6 2233.25 28.6"/><polygon class="cls-6" points="2249.65 56.94 2282.45 56.94 2266.05 28.6 2249.65 56.94"/><polygon class="cls-3" points="2266.05 28.6 2282.45 56.94 2298.85 28.6 2266.05 28.6"/><polygon class="cls-5" points="2282.45 56.94 2315.25 56.94 2298.85 28.6 2282.45 56.94"/><polygon class="cls-5" points="2298.85 28.6 2315.25 56.94 2331.65 28.6 2298.85 28.6"/><polygon class="cls-6" points="2315.25 56.94 2348.05 56.94 2331.65 28.6 2315.25 56.94"/><polygon class="cls-3" points="2348.05 56.94 2364.45 28.6 2331.65 28.6 2348.05 56.94"/><polygon class="cls-2" points="1987.03 0.25 2003.43 28.6 2019.83 0.25 1987.03 0.25"/><polygon class="cls-3" points="2019.83 0.25 2036.23 28.6 2052.63 0.25 2019.83 0.25"/><polygon class="cls-4" points="2019.83 0.25 2003.43 28.6 2036.23 28.6 2019.83 0.25"/><polygon class="cls-3" points="2052.63 0.25 2069.03 28.6 2085.43 0.25 2052.63 0.25"/><polygon class="cls-5" points="2036.23 28.6 2069.03 28.6 2052.63 0.25 2036.23 28.6"/><polygon class="cls-3" points="2085.43 0.25 2101.83 28.6 2118.23 0.25 2085.43 0.25"/><polygon class="cls-6" points="2069.03 28.6 2101.83 28.6 2085.43 0.25 2069.03 28.6"/><polygon class="cls-3" points="2134.63 28.6 2151.03 0.25 2118.23 0.25 2134.63 28.6"/><polygon class="cls-6" points="2101.83 28.6 2134.63 28.6 2118.23 0.25 2101.83 28.6"/><polygon class="cls-5" points="2167.43 28.6 2151.03 0.25 2134.63 28.6 2167.43 28.6"/><polygon class="cls-2" points="2003.43 28.6 2019.83 56.94 2036.23 28.6 2003.43 28.6"/><polygon class="cls-6" points="2019.83 56.94 2052.63 56.94 2036.23 28.6 2019.83 56.94"/><polygon class="cls-3" points="2036.23 28.6 2052.63 56.94 2069.03 28.6 2036.23 28.6"/><polygon class="cls-6" points="2052.63 56.94 2085.43 56.94 2069.03 28.6 2052.63 56.94"/><polygon class="cls-3" points="2069.03 28.6 2085.43 56.94 2101.83 28.6 2069.03 28.6"/><polygon class="cls-6" points="2085.43 56.94 2118.23 56.94 2101.83 28.6 2085.43 56.94"/><polygon class="cls-3" points="2101.83 28.6 2118.23 56.94 2134.63 28.6 2101.83 28.6"/><polygon class="cls-5" points="2118.23 56.94 2151.03 56.94 2134.63 28.6 2118.23 56.94"/><polygon class="cls-5" points="2134.63 28.6 2151.03 56.94 2167.43 28.6 2134.63 28.6"/><polygon class="cls-6" points="2151.03 56.94 2183.83 56.94 2167.43 28.6 2151.03 56.94"/><polygon class="cls-3" points="1970.41 28.6 1986.81 0.25 1954.01 0.25 1970.41 28.6"/><polygon class="cls-5" points="2003.21 28.6 1986.81 0.25 1970.41 28.6 2003.21 28.6"/><polygon class="cls-5" points="1954.01 56.94 1986.81 56.94 1970.41 28.6 1954.01 56.94"/><polygon class="cls-5" points="1970.41 28.6 1986.81 56.94 2003.21 28.6 1970.41 28.6"/><polygon class="cls-6" points="1986.81 56.94 2019.61 56.94 2003.21 28.6 1986.81 56.94"/></g><g class="cls-1"><polygon class="cls-2" points="2381.07 0.25 2397.47 28.6 2413.87 0.25 2381.07 0.25"/><polygon class="cls-3" points="2413.87 0.25 2430.27 28.6 2446.67 0.25 2413.87 0.25"/><polygon class="cls-4" points="2413.87 0.25 2397.47 28.6 2430.27 28.6 2413.87 0.25"/><polygon class="cls-3" points="2446.67 0.25 2463.07 28.6 2479.47 0.25 2446.67 0.25"/><polygon class="cls-5" points="2430.27 28.6 2463.07 28.6 2446.67 0.25 2430.27 28.6"/><polygon class="cls-3" points="2479.47 0.25 2495.87 28.6 2512.27 0.25 2479.47 0.25"/><polygon class="cls-6" points="2463.07 28.6 2495.87 28.6 2479.47 0.25 2463.07 28.6"/><polygon class="cls-3" points="2528.67 28.6 2545.07 0.25 2512.27 0.25 2528.67 28.6"/><polygon class="cls-6" points="2495.87 28.6 2528.67 28.6 2512.27 0.25 2495.87 28.6"/><polygon class="cls-5" points="2561.47 28.6 2545.07 0.25 2528.67 28.6 2561.47 28.6"/><polygon class="cls-2" points="2397.47 28.6 2413.87 56.94 2430.27 28.6 2397.47 28.6"/><polygon class="cls-6" points="2413.87 56.94 2446.67 56.94 2430.27 28.6 2413.87 56.94"/><polygon class="cls-3" points="2430.27 28.6 2446.67 56.94 2463.07 28.6 2430.27 28.6"/><polygon class="cls-6" points="2446.67 56.94 2479.47 56.94 2463.07 28.6 2446.67 56.94"/><polygon class="cls-3" points="2463.07 28.6 2479.47 56.94 2495.87 28.6 2463.07 28.6"/><polygon class="cls-6" points="2479.47 56.94 2512.27 56.94 2495.87 28.6 2479.47 56.94"/><polygon class="cls-3" points="2495.87 28.6 2512.27 56.94 2528.67 28.6 2495.87 28.6"/><polygon class="cls-5" points="2512.27 56.94 2545.07 56.94 2528.67 28.6 2512.27 56.94"/><polygon class="cls-5" points="2528.67 28.6 2545.07 56.94 2561.47 28.6 2528.67 28.6"/><polygon class="cls-3" points="2364.45 28.6 2380.85 0.25 2348.05 0.25 2364.45 28.6"/><polygon class="cls-5" points="2397.25 28.6 2380.85 0.25 2364.45 28.6 2397.25 28.6"/><polygon class="cls-5" points="2348.05 56.94 2380.85 56.94 2364.45 28.6 2348.05 56.94"/><polygon class="cls-5" points="2364.45 28.6 2380.85 56.94 2397.25 28.6 2364.45 28.6"/><polygon class="cls-6" points="2380.85 56.94 2413.65 56.94 2397.25 28.6 2380.85 56.94"/><polygon class="cls-2" points="2545.28 0.25 2561.22 27.79 2561.22 0.25 2545.28 0.25"/><polygon class="cls-6" points="2545.07 56.94 2561.22 56.94 2561.22 29.02 2545.07 56.94"/></g></g></g></svg>