<svg xmlns="http://www.w3.org/2000/svg" viewBox="0 0 1864.35 96.39"><defs><style>.cls-1,.cls-13,.cls-4,.cls-6,.cls-9{fill:#fff;}.cls-1,.cls-2,.cls-3{opacity:0.8;}.cls-10,.cls-14,.cls-2,.cls-5,.cls-7{fill:#f6f9fb;}.cls-11,.cls-12,.cls-15,.cls-3,.cls-8{fill:#ecf2f6;}.cls-15,.cls-4,.cls-5{opacity:0.9;}.cls-10,.cls-11,.cls-9{opacity:0.4;}.cls-12,.cls-13,.cls-14{opacity:0.6;}</style></defs><title>Asset 4</title><g id="Layer_2" data-name="Layer 2"><g id="Слой_1" data-name="Слой 1"><polygon class="cls-1" points="222.61 48.2 208.7 24.1 236.52 24.1 222.61 48.2"/><polygon class="cls-2" points="236.52 24.1 208.7 24.1 222.61 0 236.52 24.1"/><polygon class="cls-2" points="222.61 48.2 194.78 48.2 208.7 24.1 222.61 48.2"/><polygon class="cls-1" points="236.52 24.1 222.61 0 250.44 0 236.52 24.1"/><polygon class="cls-1" points="250.44 48.2 236.52 24.1 264.35 24.1 250.44 48.2"/><polygon class="cls-3" points="264.35 24.1 236.52 24.1 250.44 0 264.35 24.1"/><polygon class="cls-2" points="250.44 48.2 222.61 48.2 236.52 24.1 250.44 48.2"/><polygon class="cls-1" points="264.35 24.1 250.44 0 278.26 0 264.35 24.1"/><polygon class="cls-4" points="278.26 48.2 264.35 24.1 292.17 24.1 278.26 48.2"/><polygon class="cls-5" points="292.17 24.1 264.35 24.1 278.26 0 292.17 24.1"/><polygon class="cls-5" points="278.26 48.2 250.44 48.2 264.35 24.1 278.26 48.2"/><polygon class="cls-4" points="292.17 24.1 278.26 0 306.09 0 292.17 24.1"/><polygon class="cls-6" points="306.09 48.2 292.17 24.1 320 24.1 306.09 48.2"/><polygon class="cls-7" points="320 24.1 292.17 24.1 306.09 0 320 24.1"/><polygon class="cls-8" points="306.09 48.2 278.26 48.2 292.17 24.1 306.09 48.2"/><polygon class="cls-6" points="320 24.1 306.09 0 333.91 0 320 24.1"/><polygon class="cls-6" points="333.91 48.2 320 24.1 347.83 24.1 333.91 48.2"/><polygon class="cls-7" points="347.83 24.1 320 24.1 333.91 0 347.83 24.1"/><polygon class="cls-6" points="333.91 48.2 306.09 48.2 320 24.1 333.91 48.2"/><polygon class="cls-6" points="347.83 24.1 333.91 0 361.74 0 347.83 24.1"/><polygon class="cls-6" points="361.74 48.2 347.83 24.1 375.65 24.1 361.74 48.2"/><polygon class="cls-7" points="375.65 24.1 347.83 24.1 361.74 0 375.65 24.1"/><polygon class="cls-8" points="361.74 48.2 333.91 48.2 347.83 24.1 361.74 48.2"/><polygon class="cls-6" points="375.65 24.1 361.74 0 389.56 0 375.65 24.1"/><polygon class="cls-6" points="389.56 48.2 375.65 24.1 403.48 24.1 389.56 48.2"/><polygon class="cls-8" points="403.48 24.1 375.65 24.1 389.56 0 403.48 24.1"/><polygon class="cls-7" points="389.56 48.2 361.74 48.2 375.65 24.1 389.56 48.2"/><polygon class="cls-8" points="403.48 24.1 389.56 0 417.39 0 403.48 24.1"/><polygon class="cls-6" points="417.39 48.2 403.48 24.1 431.31 24.1 417.39 48.2"/><polygon class="cls-7" points="431.31 24.1 403.48 24.1 417.39 0 431.31 24.1"/><polygon class="cls-7" points="417.39 48.2 389.56 48.2 403.48 24.1 417.39 48.2"/><polygon class="cls-6" points="431.31 24.1 417.39 0 445.22 0 431.31 24.1"/><polygon class="cls-6" points="445.22 48.2 431.31 24.1 459.13 24.1 445.22 48.2"/><polygon class="cls-7" points="459.13 24.1 431.31 24.1 445.22 0 459.13 24.1"/><polygon class="cls-7" points="445.22 48.2 417.39 48.2 431.31 24.1 445.22 48.2"/><polygon class="cls-6" points="459.13 24.1 445.22 0 473.04 0 459.13 24.1"/><polygon class="cls-8" points="473.04 48.2 459.13 24.1 486.96 24.1 473.04 48.2"/><polygon class="cls-7" points="486.96 24.1 459.13 24.1 473.04 0 486.96 24.1"/><polygon class="cls-8" points="473.04 48.2 445.22 48.2 459.13 24.1 473.04 48.2"/><polygon class="cls-6" points="486.96 24.1 473.04 0 500.87 0 486.96 24.1"/><polygon class="cls-6" points="500.87 48.2 486.96 24.1 514.78 24.1 500.87 48.2"/><polygon class="cls-7" points="514.78 24.1 486.96 24.1 500.87 0 514.78 24.1"/><polygon class="cls-7" points="500.87 48.2 473.04 48.2 486.96 24.1 500.87 48.2"/><polygon class="cls-8" points="514.78 24.1 500.87 0 528.7 0 514.78 24.1"/><polygon class="cls-6" points="528.7 48.2 514.78 24.1 542.61 24.1 528.7 48.2"/><polygon class="cls-7" points="542.61 24.1 514.78 24.1 528.7 0 542.61 24.1"/><polygon class="cls-7" points="528.7 48.2 500.87 48.2 514.78 24.1 528.7 48.2"/><polygon class="cls-7" points="556.52 48.2 528.7 48.2 542.61 24.1 556.52 48.2"/><polygon class="cls-1" points="208.7 72.29 194.78 48.2 222.61 48.2 208.7 72.29"/><polygon class="cls-1" points="222.61 96.39 208.7 72.29 236.52 72.29 222.61 96.39"/><polygon class="cls-3" points="236.52 72.29 208.7 72.29 222.61 48.2 236.52 72.29"/><polygon class="cls-1" points="236.52 72.29 222.61 48.2 250.44 48.2 236.52 72.29"/><polygon class="cls-1" points="250.44 96.39 236.52 72.29 264.35 72.29 250.44 96.39"/><polygon class="cls-2" points="264.35 72.29 236.52 72.29 250.44 48.2 264.35 72.29"/><polygon class="cls-2" points="250.44 96.39 222.61 96.39 236.52 72.29 250.44 96.39"/><polygon class="cls-4" points="264.35 72.29 250.44 48.2 278.26 48.2 264.35 72.29"/><polygon class="cls-4" points="278.26 96.39 264.35 72.29 292.17 72.29 278.26 96.39"/><polygon class="cls-5" points="292.17 72.29 264.35 72.29 278.26 48.2 292.17 72.29"/><polygon class="cls-3" points="278.26 96.39 250.44 96.39 264.35 72.29 278.26 96.39"/><polygon class="cls-6" points="292.17 72.29 278.26 48.2 306.09 48.2 292.17 72.29"/><polygon class="cls-6" points="306.09 96.39 292.17 72.29 320 72.29 306.09 96.39"/><polygon class="cls-8" points="320 72.29 292.17 72.29 306.09 48.2 320 72.29"/><polygon class="cls-5" points="306.09 96.39 278.26 96.39 292.17 72.29 306.09 96.39"/><polygon class="cls-6" points="320 72.29 306.09 48.2 333.91 48.2 320 72.29"/><polygon class="cls-6" points="333.91 96.39 320 72.29 347.83 72.29 333.91 96.39"/><polygon class="cls-7" points="347.83 72.29 320 72.29 333.91 48.2 347.83 72.29"/><polygon class="cls-8" points="333.91 96.39 306.09 96.39 320 72.29 333.91 96.39"/><polygon class="cls-6" points="347.83 72.29 333.91 48.2 361.74 48.2 347.83 72.29"/><polygon class="cls-6" points="361.74 96.39 347.83 72.29 375.65 72.29 361.74 96.39"/><polygon class="cls-7" points="375.65 72.29 347.83 72.29 361.74 48.2 375.65 72.29"/><polygon class="cls-7" points="361.74 96.39 333.91 96.39 347.83 72.29 361.74 96.39"/><polygon class="cls-6" points="375.65 72.29 361.74 48.2 389.56 48.2 375.65 72.29"/><polygon class="cls-6" points="389.56 96.39 375.65 72.29 403.48 72.29 389.56 96.39"/><polygon class="cls-7" points="403.48 72.29 375.65 72.29 389.56 48.2 403.48 72.29"/><polygon class="cls-7" points="389.56 96.39 361.74 96.39 375.65 72.29 389.56 96.39"/><polygon class="cls-6" points="403.48 72.29 389.56 48.2 417.39 48.2 403.48 72.29"/><polygon class="cls-6" points="417.39 96.39 403.48 72.29 431.31 72.29 417.39 96.39"/><polygon class="cls-7" points="431.31 72.29 403.48 72.29 417.39 48.2 431.31 72.29"/><polygon class="cls-8" points="417.39 96.39 389.56 96.39 403.48 72.29 417.39 96.39"/><polygon class="cls-6" points="431.31 72.29 417.39 48.2 445.22 48.2 431.31 72.29"/><polygon class="cls-6" points="445.22 96.39 431.31 72.29 459.13 72.29 445.22 96.39"/><polygon class="cls-7" points="459.13 72.29 431.31 72.29 445.22 48.2 459.13 72.29"/><polygon class="cls-7" points="445.22 96.39 417.39 96.39 431.31 72.29 445.22 96.39"/><polygon class="cls-6" points="459.13 72.29 445.22 48.2 473.04 48.2 459.13 72.29"/><polygon class="cls-6" points="473.04 96.39 459.13 72.29 486.96 72.29 473.04 96.39"/><polygon class="cls-7" points="486.96 72.29 459.13 72.29 473.04 48.2 486.96 72.29"/><polygon class="cls-7" points="473.04 96.39 445.22 96.39 459.13 72.29 473.04 96.39"/><polygon class="cls-6" points="486.96 72.29 473.04 48.2 500.87 48.2 486.96 72.29"/><polygon class="cls-8" points="500.87 96.39 486.96 72.29 514.78 72.29 500.87 96.39"/><polygon class="cls-7" points="514.78 72.29 486.96 72.29 500.87 48.2 514.78 72.29"/><polygon class="cls-7" points="500.87 96.39 473.04 96.39 486.96 72.29 500.87 96.39"/><polygon class="cls-6" points="514.78 72.29 500.87 48.2 528.7 48.2 514.78 72.29"/><polygon class="cls-6" points="528.7 96.39 514.78 72.29 542.61 72.29 528.7 96.39"/><polygon class="cls-7" points="542.61 72.29 514.78 72.29 528.7 48.2 542.61 72.29"/><polygon class="cls-7" points="528.7 96.39 500.87 96.39 514.78 72.29 528.7 96.39"/><polygon class="cls-9" points="13.91 24.1 0 0 27.83 0 13.91 24.1"/><polygon class="cls-9" points="27.83 48.2 13.91 24.1 41.74 24.1 27.83 48.2"/><polygon class="cls-10" points="41.74 24.1 13.91 24.1 27.83 0 41.74 24.1"/><polygon class="cls-9" points="41.74 24.1 27.83 0 55.65 0 41.74 24.1"/><polygon class="cls-9" points="55.65 48.2 41.74 24.1 69.56 24.1 55.65 48.2"/><polygon class="cls-11" points="69.56 24.1 41.74 24.1 55.65 0 69.56 24.1"/><polygon class="cls-10" points="55.65 48.2 27.83 48.2 41.74 24.1 55.65 48.2"/><polygon class="cls-12" points="69.56 24.1 55.65 0 83.48 0 69.56 24.1"/><polygon class="cls-13" points="83.48 48.2 69.56 24.1 97.39 24.1 83.48 48.2"/><polygon class="cls-14" points="97.39 24.1 69.56 24.1 83.48 0 97.39 24.1"/><polygon class="cls-10" points="83.48 48.2 55.65 48.2 69.56 24.1 83.48 48.2"/><polygon class="cls-13" points="97.39 24.1 83.48 0 111.3 0 97.39 24.1"/><polygon class="cls-13" points="111.3 48.2 97.39 24.1 125.22 24.1 111.3 48.2"/><polygon class="cls-14" points="125.22 24.1 97.39 24.1 111.3 0 125.22 24.1"/><polygon class="cls-14" points="111.3 48.2 83.48 48.2 97.39 24.1 111.3 48.2"/><polygon class="cls-1" points="125.22 24.1 111.3 0 139.13 0 125.22 24.1"/><polygon class="cls-3" points="139.13 48.2 125.22 24.1 153.04 24.1 139.13 48.2"/><polygon class="cls-2" points="153.04 24.1 125.22 24.1 139.13 0 153.04 24.1"/><polygon class="cls-12" points="139.13 48.2 111.3 48.2 125.22 24.1 139.13 48.2"/><polygon class="cls-1" points="153.04 24.1 139.13 0 166.96 0 153.04 24.1"/><polygon class="cls-1" points="166.96 48.2 153.04 24.1 180.87 24.1 166.96 48.2"/><polygon class="cls-2" points="180.87 24.1 153.04 24.1 166.96 0 180.87 24.1"/><polygon class="cls-2" points="166.96 48.2 139.13 48.2 153.04 24.1 166.96 48.2"/><polygon class="cls-3" points="180.87 24.1 166.96 0 194.78 0 180.87 24.1"/><polygon class="cls-9" points="69.56 72.29 55.65 48.2 83.48 48.2 69.56 72.29"/><polygon class="cls-10" points="97.39 72.29 69.56 72.29 83.48 48.2 97.39 72.29"/><polygon class="cls-13" points="97.39 72.29 83.48 48.2 111.3 48.2 97.39 72.29"/><polygon class="cls-14" points="125.22 72.29 97.39 72.29 111.3 48.2 125.22 72.29"/><polygon class="cls-13" points="125.22 72.29 111.3 48.2 139.13 48.2 125.22 72.29"/><polygon class="cls-13" points="139.13 96.39 125.22 72.29 153.04 72.29 139.13 96.39"/><polygon class="cls-14" points="153.04 72.29 125.22 72.29 139.13 48.2 153.04 72.29"/><polygon class="cls-1" points="153.04 72.29 139.13 48.2 166.96 48.2 153.04 72.29"/><polygon class="cls-3" points="166.96 96.39 153.04 72.29 180.87 72.29 166.96 96.39"/><polygon class="cls-2" points="180.87 72.29 153.04 72.29 166.96 48.2 180.87 72.29"/><polygon class="cls-14" points="166.96 96.39 139.13 96.39 153.04 72.29 166.96 96.39"/><polygon class="cls-2" points="194.78 96.39 166.96 96.39 180.87 72.29 194.78 96.39"/><polygon class="cls-6" points="542.61 72.29 528.7 48.2 556.52 48.2 542.61 72.29"/><polygon class="cls-6" points="542.61 24.1 528.7 0 556.52 0 542.61 24.1"/><polygon class="cls-6" points="556.52 48.2 542.61 24.1 570.43 24.1 556.52 48.2"/><polygon class="cls-8" points="570.43 24.1 542.61 24.1 556.52 0 570.43 24.1"/><polygon class="cls-6" points="570.43 24.1 556.52 0 584.35 0 570.43 24.1"/><polygon class="cls-6" points="584.35 48.2 570.43 24.1 598.26 24.1 584.35 48.2"/><polygon class="cls-7" points="598.26 24.1 570.43 24.1 584.35 0 598.26 24.1"/><polygon class="cls-7" points="584.35 48.2 556.52 48.2 570.43 24.1 584.35 48.2"/><polygon class="cls-6" points="598.26 24.1 584.35 0 612.17 0 598.26 24.1"/><polygon class="cls-6" points="612.17 48.2 598.26 24.1 626.09 24.1 612.17 48.2"/><polygon class="cls-7" points="626.09 24.1 598.26 24.1 612.17 0 626.09 24.1"/><polygon class="cls-8" points="612.17 48.2 584.35 48.2 598.26 24.1 612.17 48.2"/><polygon class="cls-6" points="626.09 24.1 612.17 0 640 0 626.09 24.1"/><polygon class="cls-6" points="640 48.2 626.09 24.1 653.91 24.1 640 48.2"/><polygon class="cls-7" points="653.91 24.1 626.09 24.1 640 0 653.91 24.1"/><polygon class="cls-6" points="640 48.2 612.17 48.2 626.09 24.1 640 48.2"/><polygon class="cls-6" points="653.91 24.1 640 0 667.83 0 653.91 24.1"/><polygon class="cls-6" points="667.83 48.2 653.91 24.1 681.74 24.1 667.83 48.2"/><polygon class="cls-7" points="681.74 24.1 653.91 24.1 667.83 0 681.74 24.1"/><polygon class="cls-8" points="667.83 48.2 640 48.2 653.91 24.1 667.83 48.2"/><polygon class="cls-6" points="681.74 24.1 667.83 0 695.65 0 681.74 24.1"/><polygon class="cls-6" points="695.65 48.2 681.74 24.1 709.57 24.1 695.65 48.2"/><polygon class="cls-8" points="709.57 24.1 681.74 24.1 695.65 0 709.57 24.1"/><polygon class="cls-7" points="695.65 48.2 667.83 48.2 681.74 24.1 695.65 48.2"/><polygon class="cls-8" points="709.57 24.1 695.65 0 723.48 0 709.57 24.1"/><polygon class="cls-6" points="723.48 48.2 709.57 24.1 737.39 24.1 723.48 48.2"/><polygon class="cls-7" points="737.39 24.1 709.57 24.1 723.48 0 737.39 24.1"/><polygon class="cls-7" points="723.48 48.2 695.65 48.2 709.57 24.1 723.48 48.2"/><polygon class="cls-6" points="737.39 24.1 723.48 0 751.3 0 737.39 24.1"/><polygon class="cls-6" points="751.3 48.2 737.39 24.1 765.22 24.1 751.3 48.2"/><polygon class="cls-7" points="765.22 24.1 737.39 24.1 751.3 0 765.22 24.1"/><polygon class="cls-7" points="751.3 48.2 723.48 48.2 737.39 24.1 751.3 48.2"/><polygon class="cls-6" points="765.22 24.1 751.3 0 779.13 0 765.22 24.1"/><polygon class="cls-8" points="779.13 48.2 765.22 24.1 793.04 24.1 779.13 48.2"/><polygon class="cls-7" points="793.04 24.1 765.22 24.1 779.13 0 793.04 24.1"/><polygon class="cls-8" points="779.13 48.2 751.3 48.2 765.22 24.1 779.13 48.2"/><polygon class="cls-6" points="793.04 24.1 779.13 0 806.96 0 793.04 24.1"/><polygon class="cls-6" points="806.96 48.2 793.04 24.1 820.87 24.1 806.96 48.2"/><polygon class="cls-7" points="820.87 24.1 793.04 24.1 806.96 0 820.87 24.1"/><polygon class="cls-7" points="806.96 48.2 779.13 48.2 793.04 24.1 806.96 48.2"/><polygon class="cls-8" points="820.87 24.1 806.96 0 834.78 0 820.87 24.1"/><polygon class="cls-6" points="834.78 48.2 820.87 24.1 848.7 24.1 834.78 48.2"/><polygon class="cls-7" points="848.7 24.1 820.87 24.1 834.78 0 848.7 24.1"/><polygon class="cls-7" points="834.78 48.2 806.96 48.2 820.87 24.1 834.78 48.2"/><polygon class="cls-7" points="862.61 48.2 834.78 48.2 848.7 24.1 862.61 48.2"/><polygon class="cls-6" points="556.52 96.39 542.61 72.29 570.43 72.29 556.52 96.39"/><polygon class="cls-7" points="570.43 72.29 542.61 72.29 556.52 48.2 570.43 72.29"/><polygon class="cls-7" points="556.52 96.39 528.7 96.39 542.61 72.29 556.52 96.39"/><polygon class="cls-6" points="570.43 72.29 556.52 48.2 584.35 48.2 570.43 72.29"/><polygon class="cls-6" points="584.35 96.39 570.43 72.29 598.26 72.29 584.35 96.39"/><polygon class="cls-7" points="598.26 72.29 570.43 72.29 584.35 48.2 598.26 72.29"/><polygon class="cls-8" points="584.35 96.39 556.52 96.39 570.43 72.29 584.35 96.39"/><polygon class="cls-6" points="598.26 72.29 584.35 48.2 612.17 48.2 598.26 72.29"/><polygon class="cls-6" points="612.17 96.39 598.26 72.29 626.09 72.29 612.17 96.39"/><polygon class="cls-8" points="626.09 72.29 598.26 72.29 612.17 48.2 626.09 72.29"/><polygon class="cls-7" points="612.17 96.39 584.35 96.39 598.26 72.29 612.17 96.39"/><polygon class="cls-6" points="626.09 72.29 612.17 48.2 640 48.2 626.09 72.29"/><polygon class="cls-6" points="640 96.39 626.09 72.29 653.91 72.29 640 96.39"/><polygon class="cls-7" points="653.91 72.29 626.09 72.29 640 48.2 653.91 72.29"/><polygon class="cls-8" points="640 96.39 612.17 96.39 626.09 72.29 640 96.39"/><polygon class="cls-6" points="653.91 72.29 640 48.2 667.83 48.2 653.91 72.29"/><polygon class="cls-6" points="667.83 96.39 653.91 72.29 681.74 72.29 667.83 96.39"/><polygon class="cls-7" points="681.74 72.29 653.91 72.29 667.83 48.2 681.74 72.29"/><polygon class="cls-7" points="667.83 96.39 640 96.39 653.91 72.29 667.83 96.39"/><polygon class="cls-6" points="681.74 72.29 667.83 48.2 695.65 48.2 681.74 72.29"/><polygon class="cls-6" points="695.65 96.39 681.74 72.29 709.57 72.29 695.65 96.39"/><polygon class="cls-7" points="709.57 72.29 681.74 72.29 695.65 48.2 709.57 72.29"/><polygon class="cls-7" points="695.65 96.39 667.83 96.39 681.74 72.29 695.65 96.39"/><polygon class="cls-6" points="709.57 72.29 695.65 48.2 723.48 48.2 709.57 72.29"/><polygon class="cls-6" points="723.48 96.39 709.57 72.29 737.39 72.29 723.48 96.39"/><polygon class="cls-7" points="737.39 72.29 709.57 72.29 723.48 48.2 737.39 72.29"/><polygon class="cls-8" points="723.48 96.39 695.65 96.39 709.57 72.29 723.48 96.39"/><polygon class="cls-6" points="737.39 72.29 723.48 48.2 751.3 48.2 737.39 72.29"/><polygon class="cls-6" points="751.3 96.39 737.39 72.29 765.22 72.29 751.3 96.39"/><polygon class="cls-7" points="765.22 72.29 737.39 72.29 751.3 48.2 765.22 72.29"/><polygon class="cls-7" points="751.3 96.39 723.48 96.39 737.39 72.29 751.3 96.39"/><polygon class="cls-6" points="765.22 72.29 751.3 48.2 779.13 48.2 765.22 72.29"/><polygon class="cls-6" points="779.13 96.39 765.22 72.29 793.04 72.29 779.13 96.39"/><polygon class="cls-7" points="793.04 72.29 765.22 72.29 779.13 48.2 793.04 72.29"/><polygon class="cls-7" points="779.13 96.39 751.3 96.39 765.22 72.29 779.13 96.39"/><polygon class="cls-6" points="793.04 72.29 779.13 48.2 806.96 48.2 793.04 72.29"/><polygon class="cls-8" points="806.96 96.39 793.04 72.29 820.87 72.29 806.96 96.39"/><polygon class="cls-7" points="820.87 72.29 793.04 72.29 806.96 48.2 820.87 72.29"/><polygon class="cls-7" points="806.96 96.39 779.13 96.39 793.04 72.29 806.96 96.39"/><polygon class="cls-6" points="820.87 72.29 806.96 48.2 834.78 48.2 820.87 72.29"/><polygon class="cls-6" points="834.78 96.39 820.87 72.29 848.7 72.29 834.78 96.39"/><polygon class="cls-7" points="848.7 72.29 820.87 72.29 834.78 48.2 848.7 72.29"/><polygon class="cls-7" points="834.78 96.39 806.96 96.39 820.87 72.29 834.78 96.39"/><polygon class="cls-6" points="848.7 72.29 834.78 48.2 862.61 48.2 848.7 72.29"/><polygon class="cls-6" points="848.7 24.1 834.78 0 862.61 0 848.7 24.1"/><polygon class="cls-6" points="862.61 48.2 848.7 24.1 876.52 24.1 862.61 48.2"/><polygon class="cls-8" points="876.52 24.1 848.7 24.1 862.61 0 876.52 24.1"/><polygon class="cls-6" points="876.52 24.1 862.61 0 890.43 0 876.52 24.1"/><polygon class="cls-6" points="890.43 48.2 876.52 24.1 904.35 24.1 890.43 48.2"/><polygon class="cls-7" points="904.35 24.1 876.52 24.1 890.43 0 904.35 24.1"/><polygon class="cls-7" points="890.43 48.2 862.61 48.2 876.52 24.1 890.43 48.2"/><polygon class="cls-6" points="904.35 24.1 890.43 0 918.26 0 904.35 24.1"/><polygon class="cls-6" points="918.26 48.2 904.35 24.1 932.17 24.1 918.26 48.2"/><polygon class="cls-7" points="932.17 24.1 904.35 24.1 918.26 0 932.17 24.1"/><polygon class="cls-8" points="918.26 48.2 890.43 48.2 904.35 24.1 918.26 48.2"/><polygon class="cls-6" points="932.17 24.1 918.26 0 946.09 0 932.17 24.1"/><polygon class="cls-6" points="946.09 48.2 932.17 24.1 960 24.1 946.09 48.2"/><polygon class="cls-7" points="960 24.1 932.17 24.1 946.09 0 960 24.1"/><polygon class="cls-6" points="946.09 48.2 918.26 48.2 932.17 24.1 946.09 48.2"/><polygon class="cls-6" points="960 24.1 946.09 0 973.91 0 960 24.1"/><polygon class="cls-6" points="973.91 48.2 960 24.1 987.83 24.1 973.91 48.2"/><polygon class="cls-7" points="987.83 24.1 960 24.1 973.91 0 987.83 24.1"/><polygon class="cls-8" points="973.91 48.2 946.09 48.2 960 24.1 973.91 48.2"/><polygon class="cls-6" points="987.83 24.1 973.91 0 1001.74 0 987.83 24.1"/><polygon class="cls-6" points="1001.74 48.2 987.83 24.1 1015.65 24.1 1001.74 48.2"/><polygon class="cls-8" points="1015.65 24.1 987.83 24.1 1001.74 0 1015.65 24.1"/><polygon class="cls-7" points="1001.74 48.2 973.91 48.2 987.83 24.1 1001.74 48.2"/><polygon class="cls-8" points="1015.65 24.1 1001.74 0 1029.57 0 1015.65 24.1"/><polygon class="cls-6" points="1029.57 48.2 1015.65 24.1 1043.48 24.1 1029.57 48.2"/><polygon class="cls-7" points="1043.48 24.1 1015.65 24.1 1029.57 0 1043.48 24.1"/><polygon class="cls-7" points="1029.57 48.2 1001.74 48.2 1015.65 24.1 1029.57 48.2"/><polygon class="cls-6" points="1043.48 24.1 1029.57 0 1057.39 0 1043.48 24.1"/><polygon class="cls-6" points="1057.39 48.2 1043.48 24.1 1071.31 24.1 1057.39 48.2"/><polygon class="cls-7" points="1071.31 24.1 1043.48 24.1 1057.39 0 1071.31 24.1"/><polygon class="cls-7" points="1057.39 48.2 1029.57 48.2 1043.48 24.1 1057.39 48.2"/><polygon class="cls-6" points="1071.31 24.1 1057.39 0 1085.22 0 1071.31 24.1"/><polygon class="cls-8" points="1085.22 48.2 1071.31 24.1 1099.13 24.1 1085.22 48.2"/><polygon class="cls-7" points="1099.13 24.1 1071.31 24.1 1085.22 0 1099.13 24.1"/><polygon class="cls-8" points="1085.22 48.2 1057.39 48.2 1071.31 24.1 1085.22 48.2"/><polygon class="cls-6" points="1099.13 24.1 1085.22 0 1113.04 0 1099.13 24.1"/><polygon class="cls-6" points="1113.04 48.2 1099.13 24.1 1126.96 24.1 1113.04 48.2"/><polygon class="cls-7" points="1126.96 24.1 1099.13 24.1 1113.04 0 1126.96 24.1"/><polygon class="cls-7" points="1113.04 48.2 1085.22 48.2 1099.13 24.1 1113.04 48.2"/><polygon class="cls-8" points="1126.96 24.1 1113.04 0 1140.87 0 1126.96 24.1"/><polygon class="cls-6" points="1140.87 48.2 1126.96 24.1 1154.78 24.1 1140.87 48.2"/><polygon class="cls-7" points="1154.78 24.1 1126.96 24.1 1140.87 0 1154.78 24.1"/><polygon class="cls-7" points="1140.87 48.2 1113.04 48.2 1126.96 24.1 1140.87 48.2"/><polygon class="cls-7" points="1168.7 48.2 1140.87 48.2 1154.78 24.1 1168.7 48.2"/><polygon class="cls-6" points="862.61 96.39 848.7 72.29 876.52 72.29 862.61 96.39"/><polygon class="cls-7" points="876.52 72.29 848.7 72.29 862.61 48.2 876.52 72.29"/><polygon class="cls-7" points="862.61 96.39 834.78 96.39 848.7 72.29 862.61 96.39"/><polygon class="cls-6" points="876.52 72.29 862.61 48.2 890.43 48.2 876.52 72.29"/><polygon class="cls-6" points="890.43 96.39 876.52 72.29 904.35 72.29 890.43 96.39"/><polygon class="cls-7" points="904.35 72.29 876.52 72.29 890.43 48.2 904.35 72.29"/><polygon class="cls-8" points="890.43 96.39 862.61 96.39 876.52 72.29 890.43 96.39"/><polygon class="cls-6" points="904.35 72.29 890.43 48.2 918.26 48.2 904.35 72.29"/><polygon class="cls-6" points="918.26 96.39 904.35 72.29 932.17 72.29 918.26 96.39"/><polygon class="cls-8" points="932.17 72.29 904.35 72.29 918.26 48.2 932.17 72.29"/><polygon class="cls-7" points="918.26 96.39 890.43 96.39 904.35 72.29 918.26 96.39"/><polygon class="cls-6" points="932.17 72.29 918.26 48.2 946.09 48.2 932.17 72.29"/><polygon class="cls-6" points="946.09 96.39 932.17 72.29 960 72.29 946.09 96.39"/><polygon class="cls-7" points="960 72.29 932.17 72.29 946.09 48.2 960 72.29"/><polygon class="cls-8" points="946.09 96.39 918.26 96.39 932.17 72.29 946.09 96.39"/><polygon class="cls-6" points="960 72.29 946.09 48.2 973.91 48.2 960 72.29"/><polygon class="cls-6" points="973.91 96.39 960 72.29 987.83 72.29 973.91 96.39"/><polygon class="cls-7" points="987.83 72.29 960 72.29 973.91 48.2 987.83 72.29"/><polygon class="cls-7" points="973.91 96.39 946.09 96.39 960 72.29 973.91 96.39"/><polygon class="cls-6" points="987.83 72.29 973.91 48.2 1001.74 48.2 987.83 72.29"/><polygon class="cls-6" points="1001.74 96.39 987.83 72.29 1015.65 72.29 1001.74 96.39"/><polygon class="cls-7" points="1015.65 72.29 987.83 72.29 1001.74 48.2 1015.65 72.29"/><polygon class="cls-7" points="1001.74 96.39 973.91 96.39 987.83 72.29 1001.74 96.39"/><polygon class="cls-6" points="1015.65 72.29 1001.74 48.2 1029.57 48.2 1015.65 72.29"/><polygon class="cls-6" points="1029.57 96.39 1015.65 72.29 1043.48 72.29 1029.57 96.39"/><polygon class="cls-7" points="1043.48 72.29 1015.65 72.29 1029.57 48.2 1043.48 72.29"/><polygon class="cls-8" points="1029.57 96.39 1001.74 96.39 1015.65 72.29 1029.57 96.39"/><polygon class="cls-6" points="1043.48 72.29 1029.57 48.2 1057.39 48.2 1043.48 72.29"/><polygon class="cls-6" points="1057.39 96.39 1043.48 72.29 1071.31 72.29 1057.39 96.39"/><polygon class="cls-7" points="1071.31 72.29 1043.48 72.29 1057.39 48.2 1071.31 72.29"/><polygon class="cls-7" points="1057.39 96.39 1029.57 96.39 1043.48 72.29 1057.39 96.39"/><polygon class="cls-6" points="1071.31 72.29 1057.39 48.2 1085.22 48.2 1071.31 72.29"/><polygon class="cls-6" points="1085.22 96.39 1071.31 72.29 1099.13 72.29 1085.22 96.39"/><polygon class="cls-7" points="1099.13 72.29 1071.31 72.29 1085.22 48.2 1099.13 72.29"/><polygon class="cls-7" points="1085.22 96.39 1057.39 96.39 1071.31 72.29 1085.22 96.39"/><polygon class="cls-6" points="1099.13 72.29 1085.22 48.2 1113.04 48.2 1099.13 72.29"/><polygon class="cls-8" points="1113.04 96.39 1099.13 72.29 1126.96 72.29 1113.04 96.39"/><polygon class="cls-7" points="1126.96 72.29 1099.13 72.29 1113.04 48.2 1126.96 72.29"/><polygon class="cls-7" points="1113.04 96.39 1085.22 96.39 1099.13 72.29 1113.04 96.39"/><polygon class="cls-6" points="1126.96 72.29 1113.04 48.2 1140.87 48.2 1126.96 72.29"/><polygon class="cls-6" points="1140.87 96.39 1126.96 72.29 1154.78 72.29 1140.87 96.39"/><polygon class="cls-7" points="1154.78 72.29 1126.96 72.29 1140.87 48.2 1154.78 72.29"/><polygon class="cls-7" points="1140.87 96.39 1113.04 96.39 1126.96 72.29 1140.87 96.39"/><polygon class="cls-6" points="1154.78 72.29 1140.87 48.2 1168.7 48.2 1154.78 72.29"/><polygon class="cls-6" points="1154.78 24.1 1140.87 0 1168.7 0 1154.78 24.1"/><polygon class="cls-6" points="1168.7 48.2 1154.78 24.1 1182.61 24.1 1168.7 48.2"/><polygon class="cls-8" points="1182.61 24.1 1154.78 24.1 1168.7 0 1182.61 24.1"/><polygon class="cls-6" points="1182.61 24.1 1168.7 0 1196.52 0 1182.61 24.1"/><polygon class="cls-6" points="1196.52 48.2 1182.61 24.1 1210.43 24.1 1196.52 48.2"/><polygon class="cls-7" points="1210.43 24.1 1182.61 24.1 1196.52 0 1210.43 24.1"/><polygon class="cls-7" points="1196.52 48.2 1168.7 48.2 1182.61 24.1 1196.52 48.2"/><polygon class="cls-6" points="1210.43 24.1 1196.52 0 1224.35 0 1210.43 24.1"/><polygon class="cls-6" points="1224.35 48.2 1210.43 24.1 1238.26 24.1 1224.35 48.2"/><polygon class="cls-7" points="1238.26 24.1 1210.43 24.1 1224.35 0 1238.26 24.1"/><polygon class="cls-8" points="1224.35 48.2 1196.52 48.2 1210.43 24.1 1224.35 48.2"/><polygon class="cls-6" points="1238.26 24.1 1224.35 0 1252.17 0 1238.26 24.1"/><polygon class="cls-6" points="1252.17 48.2 1238.26 24.1 1266.09 24.1 1252.17 48.2"/><polygon class="cls-7" points="1266.09 24.1 1238.26 24.1 1252.17 0 1266.09 24.1"/><polygon class="cls-6" points="1252.17 48.2 1224.35 48.2 1238.26 24.1 1252.17 48.2"/><polygon class="cls-6" points="1266.09 24.1 1252.17 0 1280 0 1266.09 24.1"/><polygon class="cls-6" points="1280 48.2 1266.09 24.1 1293.91 24.1 1280 48.2"/><polygon class="cls-7" points="1293.91 24.1 1266.09 24.1 1280 0 1293.91 24.1"/><polygon class="cls-8" points="1280 48.2 1252.17 48.2 1266.09 24.1 1280 48.2"/><polygon class="cls-6" points="1293.91 24.1 1280 0 1307.83 0 1293.91 24.1"/><polygon class="cls-6" points="1307.83 48.2 1293.91 24.1 1321.74 24.1 1307.83 48.2"/><polygon class="cls-8" points="1321.74 24.1 1293.91 24.1 1307.83 0 1321.74 24.1"/><polygon class="cls-7" points="1307.83 48.2 1280 48.2 1293.91 24.1 1307.83 48.2"/><polygon class="cls-8" points="1321.74 24.1 1307.83 0 1335.65 0 1321.74 24.1"/><polygon class="cls-6" points="1335.65 48.2 1321.74 24.1 1349.57 24.1 1335.65 48.2"/><polygon class="cls-7" points="1349.57 24.1 1321.74 24.1 1335.65 0 1349.57 24.1"/><polygon class="cls-7" points="1335.65 48.2 1307.83 48.2 1321.74 24.1 1335.65 48.2"/><polygon class="cls-6" points="1349.57 24.1 1335.65 0 1363.48 0 1349.57 24.1"/><polygon class="cls-6" points="1363.48 48.2 1349.57 24.1 1377.39 24.1 1363.48 48.2"/><polygon class="cls-7" points="1377.39 24.1 1349.57 24.1 1363.48 0 1377.39 24.1"/><polygon class="cls-7" points="1363.48 48.2 1335.65 48.2 1349.57 24.1 1363.48 48.2"/><polygon class="cls-6" points="1377.39 24.1 1363.48 0 1391.31 0 1377.39 24.1"/><polygon class="cls-8" points="1391.31 48.2 1377.39 24.1 1405.22 24.1 1391.31 48.2"/><polygon class="cls-7" points="1405.22 24.1 1377.39 24.1 1391.31 0 1405.22 24.1"/><polygon class="cls-8" points="1391.31 48.2 1363.48 48.2 1377.39 24.1 1391.31 48.2"/><polygon class="cls-6" points="1405.22 24.1 1391.31 0 1419.13 0 1405.22 24.1"/><polygon class="cls-6" points="1419.13 48.2 1405.22 24.1 1433.04 24.1 1419.13 48.2"/><polygon class="cls-7" points="1433.04 24.1 1405.22 24.1 1419.13 0 1433.04 24.1"/><polygon class="cls-7" points="1419.13 48.2 1391.31 48.2 1405.22 24.1 1419.13 48.2"/><polygon class="cls-8" points="1433.04 24.1 1419.13 0 1446.96 0 1433.04 24.1"/><polygon class="cls-6" points="1446.96 48.2 1433.04 24.1 1460.87 24.1 1446.96 48.2"/><polygon class="cls-7" points="1460.87 24.1 1433.04 24.1 1446.96 0 1460.87 24.1"/><polygon class="cls-7" points="1446.96 48.2 1419.13 48.2 1433.04 24.1 1446.96 48.2"/><polygon class="cls-7" points="1474.78 48.2 1446.96 48.2 1460.87 24.1 1474.78 48.2"/><polygon class="cls-6" points="1168.7 96.39 1154.78 72.29 1182.61 72.29 1168.7 96.39"/><polygon class="cls-7" points="1182.61 72.29 1154.78 72.29 1168.7 48.2 1182.61 72.29"/><polygon class="cls-7" points="1168.7 96.39 1140.87 96.39 1154.78 72.29 1168.7 96.39"/><polygon class="cls-6" points="1182.61 72.29 1168.7 48.2 1196.52 48.2 1182.61 72.29"/><polygon class="cls-6" points="1196.52 96.39 1182.61 72.29 1210.43 72.29 1196.52 96.39"/><polygon class="cls-7" points="1210.43 72.29 1182.61 72.29 1196.52 48.2 1210.43 72.29"/><polygon class="cls-8" points="1196.52 96.39 1168.7 96.39 1182.61 72.29 1196.52 96.39"/><polygon class="cls-6" points="1210.43 72.29 1196.52 48.2 1224.35 48.2 1210.43 72.29"/><polygon class="cls-6" points="1224.35 96.39 1210.43 72.29 1238.26 72.29 1224.35 96.39"/><polygon class="cls-8" points="1238.26 72.29 1210.43 72.29 1224.35 48.2 1238.26 72.29"/><polygon class="cls-7" points="1224.35 96.39 1196.52 96.39 1210.43 72.29 1224.35 96.39"/><polygon class="cls-6" points="1238.26 72.29 1224.35 48.2 1252.17 48.2 1238.26 72.29"/><polygon class="cls-6" points="1252.17 96.39 1238.26 72.29 1266.09 72.29 1252.17 96.39"/><polygon class="cls-7" points="1266.09 72.29 1238.26 72.29 1252.17 48.2 1266.09 72.29"/><polygon class="cls-8" points="1252.17 96.39 1224.35 96.39 1238.26 72.29 1252.17 96.39"/><polygon class="cls-6" points="1266.09 72.29 1252.17 48.2 1280 48.2 1266.09 72.29"/><polygon class="cls-6" points="1280 96.39 1266.09 72.29 1293.91 72.29 1280 96.39"/><polygon class="cls-7" points="1293.91 72.29 1266.09 72.29 1280 48.2 1293.91 72.29"/><polygon class="cls-7" points="1280 96.39 1252.17 96.39 1266.09 72.29 1280 96.39"/><polygon class="cls-6" points="1293.91 72.29 1280 48.2 1307.83 48.2 1293.91 72.29"/><polygon class="cls-6" points="1307.83 96.39 1293.91 72.29 1321.74 72.29 1307.83 96.39"/><polygon class="cls-7" points="1321.74 72.29 1293.91 72.29 1307.83 48.2 1321.74 72.29"/><polygon class="cls-7" points="1307.83 96.39 1280 96.39 1293.91 72.29 1307.83 96.39"/><polygon class="cls-6" points="1321.74 72.29 1307.83 48.2 1335.65 48.2 1321.74 72.29"/><polygon class="cls-6" points="1335.65 96.39 1321.74 72.29 1349.57 72.29 1335.65 96.39"/><polygon class="cls-7" points="1349.57 72.29 1321.74 72.29 1335.65 48.2 1349.57 72.29"/><polygon class="cls-8" points="1335.65 96.39 1307.83 96.39 1321.74 72.29 1335.65 96.39"/><polygon class="cls-6" points="1349.57 72.29 1335.65 48.2 1363.48 48.2 1349.57 72.29"/><polygon class="cls-6" points="1363.48 96.39 1349.57 72.29 1377.39 72.29 1363.48 96.39"/><polygon class="cls-7" points="1377.39 72.29 1349.57 72.29 1363.48 48.2 1377.39 72.29"/><polygon class="cls-7" points="1363.48 96.39 1335.65 96.39 1349.57 72.29 1363.48 96.39"/><polygon class="cls-6" points="1377.39 72.29 1363.48 48.2 1391.31 48.2 1377.39 72.29"/><polygon class="cls-6" points="1391.31 96.39 1377.39 72.29 1405.22 72.29 1391.31 96.39"/><polygon class="cls-7" points="1405.22 72.29 1377.39 72.29 1391.31 48.2 1405.22 72.29"/><polygon class="cls-7" points="1391.31 96.39 1363.48 96.39 1377.39 72.29 1391.31 96.39"/><polygon class="cls-6" points="1405.22 72.29 1391.31 48.2 1419.13 48.2 1405.22 72.29"/><polygon class="cls-8" points="1419.13 96.39 1405.22 72.29 1433.04 72.29 1419.13 96.39"/><polygon class="cls-7" points="1433.04 72.29 1405.22 72.29 1419.13 48.2 1433.04 72.29"/><polygon class="cls-7" points="1419.13 96.39 1391.31 96.39 1405.22 72.29 1419.13 96.39"/><polygon class="cls-6" points="1433.04 72.29 1419.13 48.2 1446.96 48.2 1433.04 72.29"/><polygon class="cls-6" points="1446.96 96.39 1433.04 72.29 1460.87 72.29 1446.96 96.39"/><polygon class="cls-7" points="1460.87 72.29 1433.04 72.29 1446.96 48.2 1460.87 72.29"/><polygon class="cls-7" points="1446.96 96.39 1419.13 96.39 1433.04 72.29 1446.96 96.39"/><polygon class="cls-6" points="1460.87 72.29 1446.96 48.2 1474.78 48.2 1460.87 72.29"/><polygon class="cls-6" points="1460.87 24.1 1446.96 0 1474.78 0 1460.87 24.1"/><polygon class="cls-6" points="1474.78 48.2 1460.87 24.1 1488.7 24.1 1474.78 48.2"/><polygon class="cls-7" points="1488.7 24.1 1460.87 24.1 1474.78 0 1488.7 24.1"/><polygon class="cls-8" points="1488.7 24.1 1474.78 0 1502.61 0 1488.7 24.1"/><polygon class="cls-6" points="1502.61 48.2 1488.7 24.1 1516.52 24.1 1502.61 48.2"/><polygon class="cls-7" points="1516.52 24.1 1488.7 24.1 1502.61 0 1516.52 24.1"/><polygon class="cls-7" points="1502.61 48.2 1474.78 48.2 1488.7 24.1 1502.61 48.2"/><polygon class="cls-7" points="1530.43 48.2 1502.61 48.2 1516.52 24.1 1530.43 48.2"/><polygon class="cls-8" points="1474.78 96.39 1460.87 72.29 1488.7 72.29 1474.78 96.39"/><polygon class="cls-7" points="1488.7 72.29 1460.87 72.29 1474.78 48.2 1488.7 72.29"/><polygon class="cls-7" points="1474.78 96.39 1446.96 96.39 1460.87 72.29 1474.78 96.39"/><polygon class="cls-6" points="1488.7 72.29 1474.78 48.2 1502.61 48.2 1488.7 72.29"/><polygon class="cls-6" points="1502.61 96.39 1488.7 72.29 1516.52 72.29 1502.61 96.39"/><polygon class="cls-7" points="1516.52 72.29 1488.7 72.29 1502.61 48.2 1516.52 72.29"/><polygon class="cls-7" points="1502.61 96.39 1474.78 96.39 1488.7 72.29 1502.61 96.39"/><polygon class="cls-6" points="1516.52 72.29 1502.61 48.2 1530.43 48.2 1516.52 72.29"/><polygon class="cls-6" points="1516.52 24.1 1502.61 0 1530.43 0 1516.52 24.1"/><polygon class="cls-6" points="1530.43 48.2 1516.52 24.1 1544.35 24.1 1530.43 48.2"/><polygon class="cls-8" points="1544.35 24.1 1516.52 24.1 1530.43 0 1544.35 24.1"/><polygon class="cls-6" points="1544.35 24.1 1530.43 0 1558.26 0 1544.35 24.1"/><polygon class="cls-6" points="1558.26 48.2 1544.35 24.1 1572.17 24.1 1558.26 48.2"/><polygon class="cls-7" points="1572.17 24.1 1544.35 24.1 1558.26 0 1572.17 24.1"/><polygon class="cls-7" points="1558.26 48.2 1530.43 48.2 1544.35 24.1 1558.26 48.2"/><polygon class="cls-4" points="1572.17 24.1 1558.26 0 1586.09 0 1572.17 24.1"/><polygon class="cls-4" points="1586.09 48.2 1572.17 24.1 1600 24.1 1586.09 48.2"/><polygon class="cls-5" points="1600 24.1 1572.17 24.1 1586.09 0 1600 24.1"/><polygon class="cls-8" points="1586.09 48.2 1558.26 48.2 1572.17 24.1 1586.09 48.2"/><polygon class="cls-1" points="1600 24.1 1586.09 0 1613.91 0 1600 24.1"/><polygon class="cls-1" points="1613.91 48.2 1600 24.1 1627.83 24.1 1613.91 48.2"/><polygon class="cls-2" points="1627.83 24.1 1600 24.1 1613.91 0 1627.83 24.1"/><polygon class="cls-4" points="1613.91 48.2 1586.09 48.2 1600 24.1 1613.91 48.2"/><polygon class="cls-1" points="1627.83 24.1 1613.91 0 1641.74 0 1627.83 24.1"/><polygon class="cls-1" points="1641.74 48.2 1627.83 24.1 1655.65 24.1 1641.74 48.2"/><polygon class="cls-2" points="1655.65 24.1 1627.83 24.1 1641.74 0 1655.65 24.1"/><polygon class="cls-3" points="1641.74 48.2 1613.91 48.2 1627.83 24.1 1641.74 48.2"/><polygon class="cls-2" points="1669.57 48.2 1641.74 48.2 1655.65 24.1 1669.57 48.2"/><polygon class="cls-1" points="1697.39 48.2 1683.48 24.1 1711.31 24.1 1697.39 48.2"/><polygon class="cls-2" points="1711.31 24.1 1683.48 24.1 1697.39 0 1711.31 24.1"/><polygon class="cls-1" points="1711.31 24.1 1697.39 0 1725.22 0 1711.31 24.1"/><polygon class="cls-1" points="1683.48 24.1 1669.57 0 1697.39 0 1683.48 24.1"/><polygon class="cls-1" points="1725.22 48.2 1711.31 24.1 1739.13 24.1 1725.22 48.2"/><polygon class="cls-2" points="1739.13 24.1 1711.31 24.1 1725.22 0 1739.13 24.1"/><polygon class="cls-2" points="1725.22 48.2 1697.39 48.2 1711.31 24.1 1725.22 48.2"/><polygon class="cls-1" points="1739.13 24.1 1725.22 0 1753.04 0 1739.13 24.1"/><polygon class="cls-12" points="1753.04 48.2 1739.13 24.1 1766.96 24.1 1753.04 48.2"/><polygon class="cls-14" points="1766.96 24.1 1739.13 24.1 1753.04 0 1766.96 24.1"/><polygon class="cls-12" points="1753.04 48.2 1725.22 48.2 1739.13 24.1 1753.04 48.2"/><polygon class="cls-13" points="1766.96 24.1 1753.04 0 1780.87 0 1766.96 24.1"/><polygon class="cls-13" points="1780.87 48.2 1766.96 24.1 1794.78 24.1 1780.87 48.2"/><polygon class="cls-14" points="1794.78 24.1 1766.96 24.1 1780.87 0 1794.78 24.1"/><polygon class="cls-14" points="1780.87 48.2 1753.04 48.2 1766.96 24.1 1780.87 48.2"/><polygon class="cls-12" points="1794.78 24.1 1780.87 0 1808.7 0 1794.78 24.1"/><polygon class="cls-9" points="1808.7 48.2 1794.78 24.1 1822.61 24.1 1808.7 48.2"/><polygon class="cls-10" points="1822.61 24.1 1794.78 24.1 1808.7 0 1822.61 24.1"/><polygon class="cls-10" points="1808.7 48.2 1780.87 48.2 1794.78 24.1 1808.7 48.2"/><polygon class="cls-10" points="1836.52 48.2 1808.7 48.2 1822.61 24.1 1836.52 48.2"/><polygon class="cls-6" points="1530.43 96.39 1516.52 72.29 1544.35 72.29 1530.43 96.39"/><polygon class="cls-7" points="1544.35 72.29 1516.52 72.29 1530.43 48.2 1544.35 72.29"/><polygon class="cls-7" points="1530.43 96.39 1502.61 96.39 1516.52 72.29 1530.43 96.39"/><polygon class="cls-6" points="1544.35 72.29 1530.43 48.2 1558.26 48.2 1544.35 72.29"/><polygon class="cls-6" points="1558.26 96.39 1544.35 72.29 1572.17 72.29 1558.26 96.39"/><polygon class="cls-7" points="1572.17 72.29 1544.35 72.29 1558.26 48.2 1572.17 72.29"/><polygon class="cls-8" points="1558.26 96.39 1530.43 96.39 1544.35 72.29 1558.26 96.39"/><polygon class="cls-6" points="1572.17 72.29 1558.26 48.2 1586.09 48.2 1572.17 72.29"/><polygon class="cls-4" points="1586.09 96.39 1572.17 72.29 1600 72.29 1586.09 96.39"/><polygon class="cls-15" points="1600 72.29 1572.17 72.29 1586.09 48.2 1600 72.29"/><polygon class="cls-5" points="1586.09 96.39 1558.26 96.39 1572.17 72.29 1586.09 96.39"/><polygon class="cls-4" points="1600 72.29 1586.09 48.2 1613.91 48.2 1600 72.29"/><polygon class="cls-1" points="1613.91 96.39 1600 72.29 1627.83 72.29 1613.91 96.39"/><polygon class="cls-2" points="1627.83 72.29 1600 72.29 1613.91 48.2 1627.83 72.29"/><polygon class="cls-3" points="1613.91 96.39 1586.09 96.39 1600 72.29 1613.91 96.39"/><polygon class="cls-1" points="1627.83 72.29 1613.91 48.2 1641.74 48.2 1627.83 72.29"/><polygon class="cls-1" points="1641.74 96.39 1627.83 72.29 1655.65 72.29 1641.74 96.39"/><polygon class="cls-2" points="1655.65 72.29 1627.83 72.29 1641.74 48.2 1655.65 72.29"/><polygon class="cls-2" points="1641.74 96.39 1613.91 96.39 1627.83 72.29 1641.74 96.39"/><polygon class="cls-1" points="1655.65 72.29 1641.74 48.2 1669.57 48.2 1655.65 72.29"/><polygon class="cls-1" points="1697.39 96.39 1683.48 72.29 1711.31 72.29 1697.39 96.39"/><polygon class="cls-2" points="1711.31 72.29 1683.48 72.29 1697.39 48.2 1711.31 72.29"/><polygon class="cls-3" points="1697.39 96.39 1669.57 96.39 1683.48 72.29 1697.39 96.39"/><polygon class="cls-1" points="1711.31 72.29 1697.39 48.2 1725.22 48.2 1711.31 72.29"/><polygon class="cls-13" points="1725.22 96.39 1711.31 72.29 1739.13 72.29 1725.22 96.39"/><polygon class="cls-14" points="1739.13 72.29 1711.31 72.29 1725.22 48.2 1739.13 72.29"/><polygon class="cls-14" points="1725.22 96.39 1697.39 96.39 1711.31 72.29 1725.22 96.39"/><polygon class="cls-13" points="1739.13 72.29 1725.22 48.2 1753.04 48.2 1739.13 72.29"/><polygon class="cls-14" points="1766.96 72.29 1739.13 72.29 1753.04 48.2 1766.96 72.29"/><polygon class="cls-13" points="1766.96 72.29 1753.04 48.2 1780.87 48.2 1766.96 72.29"/><polygon class="cls-10" points="1794.78 72.29 1766.96 72.29 1780.87 48.2 1794.78 72.29"/><polygon class="cls-9" points="1794.78 72.29 1780.87 48.2 1808.7 48.2 1794.78 72.29"/><polygon class="cls-9" points="1822.61 24.1 1808.7 0 1836.52 0 1822.61 24.1"/><polygon class="cls-9" points="1836.52 48.2 1822.61 24.1 1850.44 24.1 1836.52 48.2"/><polygon class="cls-10" points="1850.44 24.1 1822.61 24.1 1836.52 0 1850.44 24.1"/><polygon class="cls-11" points="1850.44 24.1 1836.52 0 1864.35 0 1850.44 24.1"/></g></g></svg>