<svg xmlns="http://www.w3.org/2000/svg" viewBox="0 0 1069.43 926.03"><defs><style>.cls-1{opacity:0.3;}.cls-2{fill:#e6ebf4;}</style></defs><title>Asset 13</title><g id="Layer_2" data-name="Layer 2"><g id="Слой_1" data-name="Слой 1"><g class="cls-1"><path class="cls-2" d="M73.73,798.33,147.46,926H0l73.73-127.7"/><path class="cls-2" d="M239.64,787.67l-73.73,127.7L92.18,787.67H239.64"/><path class="cls-2" d="M165.91,638.66l73.73,127.7H92.18l73.73-127.7"/><path class="cls-2" d="M258.09,798.33,331.82,926H184.37l73.72-127.7"/><path class="cls-2" d="M424,787.67l-73.72,127.7-73.73-127.7H424"/><path class="cls-2" d="M350.28,638.66,424,766.36H276.55l73.73-127.7"/><path class="cls-2" d="M442.46,798.33,516.19,926H368.73l73.73-127.7"/><path class="cls-2" d="M608.37,787.67l-73.73,127.7-73.72-127.7H608.37"/><path class="cls-2" d="M626.83,798.33,700.55,926H553.1l73.73-127.7"/><path class="cls-2" d="M792.74,787.67,719,915.37l-73.73-127.7H792.74"/><path class="cls-2" d="M719,638.66l73.73,127.7H645.28L719,638.66"/><path class="cls-2" d="M995.7,798.33,1069.43,926H922l73.73-127.7"/><path class="cls-2" d="M165.91,319.33,239.64,447H92.18l73.73-127.7"/><path class="cls-2" d="M331.82,628l-73.73,127.7L184.37,628H331.82"/><path class="cls-2" d="M258.09,479l73.73,127.7H184.37L258.09,479"/><path class="cls-2" d="M424,468.34,350.28,596l-73.73-127.7H424"/><path class="cls-2" d="M516.19,628l-73.73,127.7L368.73,628H516.19"/><path class="cls-2" d="M442.46,479l73.73,127.7H368.73L442.46,479"/><path class="cls-2" d="M608.37,468.34,534.64,596l-73.72-127.7H608.37"/><path class="cls-2" d="M719,319.33,792.74,447H645.28L719,319.33"/><path class="cls-2" d="M884.92,628l-73.73,127.7L737.46,628H884.92"/><path class="cls-2" d="M165.91,319.33,239.64,447H92.18l73.73-127.7"/><path class="cls-2" d="M719,319.33,792.74,447H645.28L719,319.33"/><path class="cls-2" d="M331.82,308.68l-73.73,127.7-73.72-127.7H331.82"/><path class="cls-2" d="M884.92,308.68l-73.73,127.7-73.73-127.7H884.92"/><path class="cls-2" d="M165.91,319.33,239.64,447H92.18l73.73-127.7"/><path class="cls-2" d="M719,319.33,792.74,447H645.28L719,319.33"/><path class="cls-2" d="M516.19,308.68l-73.73,127.7-73.73-127.7H516.19"/><path class="cls-2" d="M424,787.67l-73.72,127.7-73.73-127.7H424"/><path class="cls-2" d="M516.19,628l-73.73,127.7L368.73,628H516.19"/><path class="cls-2" d="M608.37,468.34,534.64,596l-73.72-127.7H608.37"/><path class="cls-2" d="M165.91,319.33,239.64,447H92.18l73.73-127.7"/><path class="cls-2" d="M350.28,319.33,424,447H276.55l73.73-127.7"/><path class="cls-2" d="M331.82,308.68l-73.73,127.7-73.72-127.7H331.82"/><path class="cls-2" d="M442.46,159.67l73.73,127.7H368.73l73.73-127.7"/><path class="cls-2" d="M700.55,308.68l-73.72,127.7L553.1,308.68H700.55"/><path class="cls-2" d="M73.73,798.33,147.46,926H0l73.73-127.7"/><path class="cls-2" d="M239.64,787.67l-73.73,127.7L92.18,787.67H239.64"/><path class="cls-2" d="M165.91,638.66l73.73,127.7H92.18l73.73-127.7"/><path class="cls-2" d="M995.7,798.33,1069.43,926H922l73.73-127.7"/><path class="cls-2" d="M331.82,628l-73.73,127.7L184.37,628H331.82"/><path class="cls-2" d="M258.09,479l73.73,127.7H184.37L258.09,479"/><path class="cls-2" d="M424,468.34,350.28,596l-73.73-127.7H424"/><path class="cls-2" d="M719,319.33,792.74,447H645.28L719,319.33"/><path class="cls-2" d="M608.37,149l-73.73,127.7L460.92,149H608.37"/><path class="cls-2" d="M534.64,0l73.73,127.7H460.92L534.64,0"/><path class="cls-2" d="M626.83,159.67l73.72,127.7H553.1l73.73-127.7"/><path class="cls-2" d="M258.09,798.33,331.82,926H184.37l73.72-127.7"/><path class="cls-2" d="M350.28,638.66,424,766.36H276.55l73.73-127.7"/><path class="cls-2" d="M442.46,798.33,516.19,926H368.73l73.73-127.7"/><path class="cls-2" d="M608.37,787.67l-73.73,127.7-73.72-127.7H608.37"/><path class="cls-2" d="M626.83,798.33,700.55,926H553.1l73.73-127.7"/><path class="cls-2" d="M792.74,787.67,719,915.37l-73.73-127.7H792.74"/><path class="cls-2" d="M719,638.66l73.73,127.7H645.28L719,638.66"/><path class="cls-2" d="M442.46,479l73.73,127.7H368.73L442.46,479"/><path class="cls-2" d="M534.64,319.33,608.37,447H460.92l73.72-127.7"/><path class="cls-2" d="M884.92,628l-73.73,127.7L737.46,628H884.92"/><path class="cls-2" d="M884.92,308.68l-73.73,127.7-73.73-127.7H884.92"/></g></g></g></svg>