<svg xmlns="http://www.w3.org/2000/svg" viewBox="0 0 558.55 561.48"><defs><style>.cls-2{fill:#fff;}</style></defs><title>Asset 12</title><g id="Layer_2" data-name="Layer 2"><g id="Слой_1" data-name="Слой 1"><g class="cls-1"><path class="cls-2" d="M38.51,417,77,483.65H0L38.51,417"/><path class="cls-2" d="M125.16,411.39l-38.51,66.7-38.5-66.7h77"/><path class="cls-2" d="M86.65,333.57l38.51,66.69h-77l38.5-66.69"/><path class="cls-2" d="M173.31,494.78l-38.51,66.7-38.51-66.7h77"/><path class="cls-2" d="M134.8,417l38.51,66.69h-77L134.8,417"/><path class="cls-2" d="M221.45,411.39,183,478.09l-38.51-66.7h77"/><path class="cls-2" d="M183,333.57l38.5,66.69h-77L183,333.57"/><path class="cls-2" d="M231.09,417l38.51,66.69h-77L231.09,417"/><path class="cls-2" d="M317.75,411.39l-38.51,66.7-38.51-66.7h77"/><path class="cls-2" d="M327.38,417l38.51,66.69h-77L327.38,417"/><path class="cls-2" d="M414,411.39l-38.51,66.7L337,411.39h77"/><path class="cls-2" d="M375.53,333.57,414,400.26H337l38.51-66.69"/><path class="cls-2" d="M520,417l38.51,66.69h-77L520,417"/><path class="cls-2" d="M86.65,166.78l38.51,66.7h-77l38.5-66.7"/><path class="cls-2" d="M173.31,328,134.8,394.7,96.29,328h77"/><path class="cls-2" d="M134.8,250.17l38.51,66.7h-77l38.51-66.7"/><path class="cls-2" d="M221.45,244.61,183,311.31l-38.51-66.7h77"/><path class="cls-2" d="M269.6,328l-38.51,66.7L192.58,328h77"/><path class="cls-2" d="M231.09,250.17l38.51,66.7h-77l38.51-66.7"/><path class="cls-2" d="M317.75,244.61l-38.51,66.7-38.51-66.7h77"/><path class="cls-2" d="M375.53,166.78,414,233.48H337l38.51-66.7"/><path class="cls-2" d="M462.18,328l-38.5,66.7L385.17,328h77"/><path class="cls-2" d="M86.65,166.78l38.51,66.7h-77l38.5-66.7"/><path class="cls-2" d="M375.53,166.78,414,233.48H337l38.51-66.7"/><path class="cls-2" d="M173.31,161.22,134.8,227.91,96.29,161.22h77"/><path class="cls-2" d="M462.18,161.22l-38.5,66.69-38.51-66.69h77"/><path class="cls-2" d="M86.65,166.78l38.51,66.7h-77l38.5-66.7"/><path class="cls-2" d="M375.53,166.78,414,233.48H337l38.51-66.7"/><path class="cls-2" d="M269.6,161.22l-38.51,66.69-38.51-66.69h77"/><path class="cls-2" d="M173.31,494.78l-38.51,66.7-38.51-66.7h77"/><path class="cls-2" d="M221.45,411.39,183,478.09l-38.51-66.7h77"/><path class="cls-2" d="M269.6,328l-38.51,66.7L192.58,328h77"/><path class="cls-2" d="M317.75,244.61l-38.51,66.7-38.51-66.7h77"/><path class="cls-2" d="M86.65,166.78l38.51,66.7h-77l38.5-66.7"/><path class="cls-2" d="M183,166.78l38.5,66.7h-77L183,166.78"/><path class="cls-2" d="M173.31,161.22,134.8,227.91,96.29,161.22h77"/><path class="cls-2" d="M231.09,83.39l38.51,66.7h-77l38.51-66.7"/><path class="cls-2" d="M365.89,161.22l-38.51,66.69-38.5-66.69h77"/><path class="cls-2" d="M38.51,417,77,483.65H0L38.51,417"/><path class="cls-2" d="M125.16,411.39l-38.51,66.7-38.5-66.7h77"/><path class="cls-2" d="M86.65,333.57l38.51,66.69h-77l38.5-66.69"/><path class="cls-2" d="M520,417l38.51,66.69h-77L520,417"/><path class="cls-2" d="M173.31,328,134.8,394.7,96.29,328h77"/><path class="cls-2" d="M134.8,250.17l38.51,66.7h-77l38.51-66.7"/><path class="cls-2" d="M221.45,244.61,183,311.31l-38.51-66.7h77"/><path class="cls-2" d="M375.53,166.78,414,233.48H337l38.51-66.7"/><path class="cls-2" d="M317.75,77.83l-38.51,66.69L240.73,77.83h77"/><path class="cls-2" d="M279.24,0l38.51,66.7h-77L279.24,0"/><path class="cls-2" d="M327.38,83.39l38.51,66.7h-77l38.5-66.7"/><path class="cls-2" d="M134.8,417l38.51,66.69h-77L134.8,417"/><path class="cls-2" d="M183,333.57l38.5,66.69h-77L183,333.57"/><path class="cls-2" d="M231.09,417l38.51,66.69h-77L231.09,417"/><path class="cls-2" d="M317.75,411.39l-38.51,66.7-38.51-66.7h77"/><path class="cls-2" d="M327.38,417l38.51,66.69h-77L327.38,417"/><path class="cls-2" d="M414,411.39l-38.51,66.7L337,411.39h77"/><path class="cls-2" d="M375.53,333.57,414,400.26H337l38.51-66.69"/><path class="cls-2" d="M231.09,250.17l38.51,66.7h-77l38.51-66.7"/><path class="cls-2" d="M279.24,166.78l38.51,66.7h-77l38.51-66.7"/><path class="cls-2" d="M462.18,328l-38.5,66.7L385.17,328h77"/><path class="cls-2" d="M462.18,161.22l-38.5,66.69-38.51-66.69h77"/></g></g></g></svg>