<?xml version="1.0" encoding="UTF-8" standalone="no"?>
<svg
   xmlns:dc="http://purl.org/dc/elements/1.1/"
   xmlns:cc="http://creativecommons.org/ns#"
   xmlns:rdf="http://www.w3.org/1999/02/22-rdf-syntax-ns#"
   xmlns:svg="http://www.w3.org/2000/svg"
   xmlns="http://www.w3.org/2000/svg"
   xmlns:sodipodi="http://sodipodi.sourceforge.net/DTD/sodipodi-0.dtd"
   xmlns:inkscape="http://www.inkscape.org/namespaces/inkscape"
   viewBox="0 0 230.99999 64.91"
   version="1.1"
   id="svg146"
   sodipodi:docname="logo-vector.svg"
   width="231"
   height="64.910004"
   inkscape:version="0.92.3 (2405546, 2018-03-11)">
  <metadata
     id="metadata150">
    <rdf:RDF>
      <cc:Work
         rdf:about="">
        <dc:format>image/svg+xml</dc:format>
        <dc:type
           rdf:resource="http://purl.org/dc/dcmitype/StillImage" />
        <dc:title>Asset 3</dc:title>
      </cc:Work>
    </rdf:RDF>
  </metadata>
  <sodipodi:namedview
     pagecolor="#ffffff"
     bordercolor="#666666"
     borderopacity="1"
     objecttolerance="10"
     gridtolerance="10"
     guidetolerance="10"
     inkscape:pageopacity="0"
     inkscape:pageshadow="2"
     inkscape:window-width="3840"
     inkscape:window-height="2080"
     id="namedview148"
     showgrid="false"
     inkscape:zoom="10.425536"
     inkscape:cx="149.81123"
     inkscape:cy="22.832479"
     inkscape:window-x="-11"
     inkscape:window-y="-11"
     inkscape:window-maximized="1"
     inkscape:current-layer="svg146" />
  <defs
     id="defs12">
    <style
       id="style10">.cls-1{fill:#969594;}.cls-2{fill:#3b926f;}.cls-3{fill:#94b1b6;}.cls-4{fill:#4d73e7;}.cls-5{font-size:24px;fill:#286ab1;font-family:ProximaNova-Extrabld, Proxima Nova;font-weight:700;letter-spacing:0.05em;}.cls-6{fill:#235b83;letter-spacing:0.05em;}.cls-7{fill:#032e72;}.cls-8{font-size:6.75px;fill:#94adc0;font-family:ProximaNova-Regular, Proxima Nova;letter-spacing:0.2em;}</style>
  </defs>
  <title
     id="title14">Asset 3</title>
  <path
     class="cls-1"
     d="m 4.45,48.199996 4.45,7.71 H 0 l 4.45,-7.71"
     id="path16"
     inkscape:connector-curvature="0"
     style="fill:#969594" />
  <path
     class="cls-1"
     d="m 14.47,47.559996 -4.47,7.71 -4.43,-7.71 h 8.9"
     id="path18"
     inkscape:connector-curvature="0"
     style="fill:#969594" />
  <path
     class="cls-1"
     d="m 10,38.559996 4.45,7.71 H 5.57 l 4.43,-7.71"
     id="path20"
     inkscape:connector-curvature="0"
     style="fill:#969594" />
  <path
     class="cls-1"
     d="m 20,57.199996 -4.45,7.71 -4.42,-7.71 H 20"
     id="path22"
     inkscape:connector-curvature="0"
     style="fill:#969594" />
  <path
     class="cls-1"
     d="m 15.58,48.199996 4.42,7.71 h -8.9 l 4.45,-7.71"
     id="path24"
     inkscape:connector-curvature="0"
     style="fill:#969594" />
  <path
     class="cls-1"
     d="m 25.6,47.559996 -4.45,7.71 -4.45,-7.71 h 8.9"
     id="path26"
     inkscape:connector-curvature="0"
     style="fill:#969594" />
  <path
     class="cls-1"
     d="m 21.15,38.559996 4.45,7.71 h -8.9 l 4.45,-7.71"
     id="path28"
     inkscape:connector-curvature="0"
     style="fill:#969594" />
  <path
     class="cls-1"
     d="m 26.71,48.199996 4.45,7.71 h -8.9 l 4.45,-7.71"
     id="path30"
     inkscape:connector-curvature="0"
     style="fill:#969594" />
  <path
     class="cls-1"
     d="m 36.73,47.559996 -4.45,7.71 -4.45,-7.71 h 8.9"
     id="path32"
     inkscape:connector-curvature="0"
     style="fill:#969594" />
  <path
     class="cls-1"
     d="m 37.84,48.199996 4.46,7.71 h -8.91 l 4.45,-7.71"
     id="path34"
     inkscape:connector-curvature="0"
     style="fill:#969594" />
  <path
     class="cls-1"
     d="m 47.86,47.559996 -4.45,7.71 -4.41,-7.71 h 8.9"
     id="path36"
     inkscape:connector-curvature="0"
     style="fill:#969594" />
  <path
     class="cls-1"
     d="m 43.41,38.559996 4.45,7.71 H 39 l 4.45,-7.71"
     id="path38"
     inkscape:connector-curvature="0"
     style="fill:#969594" />
  <path
     class="cls-1"
     d="m 60.12,48.199996 4.45,7.71 h -8.91 l 4.46,-7.71"
     id="path40"
     inkscape:connector-curvature="0"
     style="fill:#969594" />
  <path
     class="cls-1"
     d="m 10,19.279996 4.47,7.72 h -8.9 l 4.43,-7.72"
     id="path42"
     inkscape:connector-curvature="0"
     style="fill:#969594" />
  <path
     class="cls-1"
     d="m 20,37.919996 -4.45,7.71 -4.45,-7.71 H 20"
     id="path44"
     inkscape:connector-curvature="0"
     style="fill:#969594" />
  <path
     class="cls-1"
     d="m 15.58,28.919996 4.42,7.71 h -8.9 l 4.45,-7.71"
     id="path46"
     inkscape:connector-curvature="0"
     style="fill:#969594" />
  <path
     class="cls-1"
     d="m 25.6,28.279996 -4.45,7.72 -4.45,-7.72 h 8.9"
     id="path48"
     inkscape:connector-curvature="0"
     style="fill:#969594" />
  <path
     class="cls-1"
     d="m 31.16,37.919996 -4.45,7.71 -4.45,-7.71 h 8.9"
     id="path50"
     inkscape:connector-curvature="0"
     style="fill:#969594" />
  <path
     class="cls-1"
     d="m 26.71,28.919996 4.45,7.71 h -8.9 l 4.45,-7.71"
     id="path52"
     inkscape:connector-curvature="0"
     style="fill:#969594" />
  <path
     class="cls-1"
     d="m 36.73,28.279996 -4.45,7.72 -4.45,-7.71 h 8.9"
     id="path54"
     inkscape:connector-curvature="0"
     style="fill:#969594" />
  <path
     class="cls-1"
     d="m 43.41,19.279996 4.45,7.72 H 39 l 4.45,-7.71"
     id="path56"
     inkscape:connector-curvature="0"
     style="fill:#969594" />
  <path
     class="cls-1"
     d="m 53.43,37.919996 -4.43,7.71 -4.46,-7.71 h 8.91"
     id="path58"
     inkscape:connector-curvature="0"
     style="fill:#969594" />
  <path
     class="cls-1"
     d="m 10,19.279996 4.47,7.72 h -8.9 l 4.43,-7.72"
     id="path60"
     inkscape:connector-curvature="0"
     style="fill:#969594" />
  <path
     class="cls-1"
     d="m 43.41,19.279996 4.45,7.72 H 39 l 4.45,-7.71"
     id="path62"
     inkscape:connector-curvature="0"
     style="fill:#969594" />
  <path
     class="cls-1"
     d="m 20,18.639996 -4.45,7.71 -4.45,-7.71 H 20"
     id="path64"
     inkscape:connector-curvature="0"
     style="fill:#969594" />
  <path
     class="cls-1"
     d="m 53.43,18.639996 -4.43,7.71 -4.46,-7.71 h 8.91"
     id="path66"
     inkscape:connector-curvature="0"
     style="fill:#969594" />
  <path
     class="cls-1"
     d="m 10,19.279996 4.47,7.72 h -8.9 l 4.43,-7.72"
     id="path68"
     inkscape:connector-curvature="0"
     style="fill:#969594" />
  <path
     class="cls-1"
     d="m 43.41,19.279996 4.45,7.72 H 39 l 4.45,-7.71"
     id="path70"
     inkscape:connector-curvature="0"
     style="fill:#969594" />
  <path
     class="cls-2"
     d="m 31.16,18.639996 -4.45,7.71 -4.45,-7.71 h 8.9"
     id="path72"
     inkscape:connector-curvature="0"
     style="fill:#3b926f" />
  <path
     class="cls-2"
     d="m 20,57.199996 -4.45,7.71 -4.42,-7.71 H 20"
     id="path74"
     inkscape:connector-curvature="0"
     style="fill:#3b926f" />
  <path
     class="cls-2"
     d="m 25.6,47.559996 -4.45,7.71 -4.45,-7.71 h 8.9"
     id="path76"
     inkscape:connector-curvature="0"
     style="fill:#3b926f" />
  <path
     class="cls-2"
     d="m 31.16,37.919996 -4.45,7.71 -4.45,-7.71 h 8.9"
     id="path78"
     inkscape:connector-curvature="0"
     style="fill:#3b926f" />
  <path
     class="cls-2"
     d="m 36.73,28.279996 -4.45,7.72 -4.45,-7.71 h 8.9"
     id="path80"
     inkscape:connector-curvature="0"
     style="fill:#3b926f" />
  <path
     class="cls-2"
     d="m 10,19.279996 4.47,7.72 h -8.9 l 4.43,-7.72"
     id="path82"
     inkscape:connector-curvature="0"
     style="fill:#3b926f" />
  <path
     class="cls-2"
     d="m 21.15,19.279996 4.45,7.72 h -8.9 l 4.45,-7.71"
     id="path84"
     inkscape:connector-curvature="0"
     style="fill:#3b926f" />
  <path
     class="cls-2"
     d="m 20,18.639996 -4.45,7.71 -4.45,-7.71 H 20"
     id="path86"
     inkscape:connector-curvature="0"
     style="fill:#3b926f" />
  <path
     class="cls-3"
     d="m 26.71,9.6399963 4.45,7.7099997 h -8.9 l 4.45,-7.7099997"
     id="path88"
     inkscape:connector-curvature="0"
     style="fill:#94b1b6" />
  <path
     class="cls-3"
     d="m 42.3,18.639996 -4.46,7.71 -4.45,-7.71 h 8.91"
     id="path90"
     inkscape:connector-curvature="0"
     style="fill:#94b1b6" />
  <path
     class="cls-3"
     d="m 4.45,48.199996 4.45,7.71 H 0 l 4.45,-7.71"
     id="path92"
     inkscape:connector-curvature="0"
     style="fill:#94b1b6" />
  <path
     class="cls-3"
     d="m 14.47,47.559996 -4.47,7.71 -4.43,-7.71 h 8.9"
     id="path94"
     inkscape:connector-curvature="0"
     style="fill:#94b1b6" />
  <path
     class="cls-3"
     d="m 10,38.559996 4.45,7.71 H 5.57 l 4.43,-7.71"
     id="path96"
     inkscape:connector-curvature="0"
     style="fill:#94b1b6" />
  <path
     class="cls-3"
     d="m 60.12,48.199996 4.45,7.71 h -8.91 l 4.46,-7.71"
     id="path98"
     inkscape:connector-curvature="0"
     style="fill:#94b1b6" />
  <path
     class="cls-3"
     d="m 20,37.919996 -4.45,7.71 -4.45,-7.71 H 20"
     id="path100"
     inkscape:connector-curvature="0"
     style="fill:#94b1b6" />
  <path
     class="cls-3"
     d="m 15.58,28.919996 4.42,7.71 h -8.9 l 4.45,-7.71"
     id="path102"
     inkscape:connector-curvature="0"
     style="fill:#94b1b6" />
  <path
     class="cls-3"
     d="m 25.6,28.279996 -4.45,7.72 -4.45,-7.72 h 8.9"
     id="path104"
     inkscape:connector-curvature="0"
     style="fill:#94b1b6" />
  <path
     class="cls-3"
     d="m 43.41,19.279996 4.45,7.72 H 39 l 4.45,-7.71"
     id="path106"
     inkscape:connector-curvature="0"
     style="fill:#94b1b6" />
  <path
     class="cls-3"
     d="M 36.73,8.9999963 32.28,16.709996 27.83,8.9999963 h 8.9"
     id="path108"
     inkscape:connector-curvature="0"
     style="fill:#94b1b6" />
  <path
     class="cls-3"
     d="M 32.28,-3.6621094e-6 36.73,7.7099963 h -8.9 L 32.28,-3.6621094e-6"
     id="path110"
     inkscape:connector-curvature="0"
     style="fill:#94b1b6" />
  <path
     class="cls-3"
     d="M 37.84,9.6399963 42.3,17.349996 H 33.39 L 37.84,9.6399963"
     id="path112"
     inkscape:connector-curvature="0"
     style="fill:#94b1b6" />
  <path
     class="cls-4"
     d="m 15.58,48.199996 4.42,7.71 h -8.9 l 4.45,-7.71"
     id="path114"
     inkscape:connector-curvature="0"
     style="fill:#4d73e7" />
  <path
     class="cls-4"
     d="m 21.15,38.559996 4.45,7.71 h -8.9 l 4.45,-7.71"
     id="path116"
     inkscape:connector-curvature="0"
     style="fill:#4d73e7" />
  <path
     class="cls-4"
     d="m 26.71,48.199996 4.45,7.71 h -8.9 l 4.45,-7.71"
     id="path118"
     inkscape:connector-curvature="0"
     style="fill:#4d73e7" />
  <path
     class="cls-4"
     d="m 36.73,47.559996 -4.45,7.71 -4.45,-7.71 h 8.9"
     id="path120"
     inkscape:connector-curvature="0"
     style="fill:#4d73e7" />
  <path
     class="cls-4"
     d="m 37.84,48.199996 4.46,7.71 h -8.91 l 4.45,-7.71"
     id="path122"
     inkscape:connector-curvature="0"
     style="fill:#4d73e7" />
  <path
     class="cls-4"
     d="m 47.86,47.559996 -4.45,7.71 -4.41,-7.71 h 8.9"
     id="path124"
     inkscape:connector-curvature="0"
     style="fill:#4d73e7" />
  <path
     class="cls-4"
     d="m 43.41,38.559996 4.45,7.71 H 39 l 4.45,-7.71"
     id="path126"
     inkscape:connector-curvature="0"
     style="fill:#4d73e7" />
  <path
     class="cls-4"
     d="m 26.71,28.919996 4.45,7.71 h -8.9 l 4.45,-7.71"
     id="path128"
     inkscape:connector-curvature="0"
     style="fill:#4d73e7" />
  <path
     class="cls-4"
     d="m 32.28,19.279996 4.45,7.72 h -8.9 l 4.45,-7.71"
     id="path130"
     inkscape:connector-curvature="0"
     style="fill:#4d73e7" />
  <path
     class="cls-4"
     d="m 53.43,37.919996 -4.43,7.71 -4.46,-7.71 h 8.91"
     id="path132"
     inkscape:connector-curvature="0"
     style="fill:#4d73e7" />
  <path
     class="cls-4"
     d="m 53.43,18.639996 -4.43,7.71 -4.46,-7.71 h 8.91"
     id="path134"
     inkscape:connector-curvature="0"
     style="fill:#4d73e7" />
  <g
     aria-label="ICORE"
     style="font-weight:700;font-size:24px;font-family:ProximaNova-Extrabld, 'Proxima Nova';letter-spacing:0.05em;fill:#286ab1"
     id="text140">
    <path
       d="M 93.21875,38.559998 H 83 v -3.09375 h 2.859375 V 24.204529 H 83 v -3.09375 h 10.21875 v 3.09375 h -2.859375 v 11.261719 h 2.859375 z"
       style="font-weight:700;font-size:24px;font-family:ProximaNova-Extrabld, 'Proxima Nova';letter-spacing:0.05em;fill:#286ab1"
       id="path460" />
    <path
       d="m 105.99687,38.899841 q -1.94531,0 -3.59765,-0.574218 -1.64063,-0.574219 -2.82422,-1.710938 -1.183594,-1.136719 -1.839844,-2.835937 -0.644531,-1.699219 -0.644531,-3.925782 0,-2.074218 0.621094,-3.761718 0.621093,-1.6875 1.804687,-2.894532 1.136714,-1.160156 2.812504,-1.792968 1.6875,-0.632813 3.67968,-0.632813 1.10157,0 1.98047,0.128906 0.89063,0.117188 1.64063,0.316407 0.78515,0.222656 1.41797,0.503906 0.64453,0.269531 1.125,0.503906 v 4.230469 h -0.51563 q -0.32812,-0.28125 -0.83203,-0.667969 -0.49219,-0.386719 -1.125,-0.761719 -0.64453,-0.375 -1.39453,-0.632812 -0.75,-0.257813 -1.60547,-0.257813 -0.94922,0 -1.80469,0.304688 -0.85547,0.292969 -1.58203,0.984375 -0.69141,0.667969 -1.125,1.769531 -0.42187,1.101563 -0.42187,2.671875 0,1.640625 0.45703,2.742188 0.46875,1.101562 1.17187,1.734375 0.71485,0.644531 1.59375,0.925781 0.87891,0.269531 1.73438,0.269531 0.82031,0 1.61718,-0.246094 0.8086,-0.246093 1.48829,-0.667968 0.57421,-0.339844 1.0664,-0.726563 0.49219,-0.386719 0.8086,-0.667969 h 0.46875 v 4.171875 q -0.65625,0.292969 -1.25391,0.550782 -0.59766,0.257812 -1.25391,0.445312 -0.85547,0.246094 -1.60547,0.375 -0.75,0.128906 -2.0625,0.128906 z"
       style="font-weight:700;font-size:24px;font-family:ProximaNova-Extrabld, 'Proxima Nova';letter-spacing:0.05em;fill:#286ab1"
       id="path462" />
    <path
       d="m 133.66953,29.841248 q 0,4.171875 -2.39062,6.632812 -2.39063,2.449219 -6.60938,2.449219 -4.20703,0 -6.59765,-2.449219 -2.39063,-2.460937 -2.39063,-6.632812 0,-4.207032 2.39063,-6.644532 2.39062,-2.449218 6.59765,-2.449218 4.19532,0 6.59766,2.449218 2.40234,2.4375 2.40234,6.644532 z m -5.96484,4.417968 q 0.65625,-0.796875 0.97266,-1.875 0.3164,-1.089843 0.3164,-2.554687 0,-1.570313 -0.36328,-2.671875 -0.36328,-1.101563 -0.94922,-1.78125 -0.59765,-0.703125 -1.38281,-1.019531 -0.77344,-0.316407 -1.61719,-0.316407 -0.85547,0 -1.61719,0.304688 -0.75,0.304687 -1.38281,1.007812 -0.58594,0.65625 -0.96094,1.816407 -0.36328,1.148437 -0.36328,2.671875 0,1.558593 0.35157,2.660156 0.36328,1.089844 0.94921,1.78125 0.58594,0.691406 1.3711,1.019531 0.78515,0.328125 1.65234,0.328125 0.86719,0 1.65235,-0.328125 0.78515,-0.339844 1.37109,-1.042969 z"
       style="font-weight:700;font-size:24px;font-family:ProximaNova-Extrabld, 'Proxima Nova';letter-spacing:0.05em;fill:#286ab1"
       id="path464" />
    <path
       d="m 148.07656,26.454529 q 0,-0.65625 -0.26953,-1.125 -0.26953,-0.46875 -0.92578,-0.738281 -0.45703,-0.1875 -1.06641,-0.222657 -0.60937,-0.04687 -1.41797,-0.04687 h -1.6289 v 4.699219 h 1.38281 q 1.07812,0 1.80469,-0.105469 0.72656,-0.105468 1.21875,-0.480468 0.46875,-0.363282 0.67968,-0.796875 0.22266,-0.445313 0.22266,-1.183594 z m 7.01953,12.105469 H 149.6 l -4.75781,-6.398438 h -2.07422 v 6.398438 H 138.2914 V 21.110779 h 7.54688 q 1.54687,0 2.66016,0.175781 1.11328,0.175781 2.08593,0.761719 0.98438,0.585937 1.5586,1.523437 0.58593,0.925782 0.58593,2.332032 0,1.933593 -0.90234,3.152343 -0.89062,1.21875 -2.55469,2.027344 z"
       style="font-weight:700;font-size:24px;font-family:ProximaNova-Extrabld, 'Proxima Nova';letter-spacing:0.05em;fill:#286ab1"
       id="path466" />
    <path
       d="m 170.90938,38.559998 h -12.6211 V 21.110779 h 12.6211 v 3.375 h -8.14453 v 3.011719 h 7.55859 v 3.375 h -7.55859 v 4.3125 h 8.14453 z"
       style="font-weight:700;font-size:24px;font-family:ProximaNova-Extrabld, 'Proxima Nova';letter-spacing:0.05em;fill:#286ab1"
       id="path468" />
  </g>
  <g
     aria-label="TECHNICAL ASSITANCE CENTER"
     style="font-size:6.75px;font-family:ProximaNova-Regular, 'Proxima Nova';letter-spacing:0.2em;fill:#94adc0"
     id="text142">
    <path
       d="m 87.159424,45.802483 h -1.753418 v 4.327514 H 84.753418 V 45.802483 H 83 v -0.580079 h 4.159424 z"
       style="font-size:6.75px;font-family:ProximaNova-Regular, 'Proxima Nova';letter-spacing:0.2em;fill:#94adc0"
       id="path471" />
    <path
       d="m 92.408472,50.129997 h -3.233277 v -4.907593 h 3.233277 v 0.580079 h -2.580689 v 1.344726 h 2.580689 v 0.580078 h -2.580689 v 1.822632 h 2.580689 z"
       style="font-size:6.75px;font-family:ProximaNova-Regular, 'Proxima Nova';letter-spacing:0.2em;fill:#94adc0"
       id="path473" />
    <path
       d="m 98.586963,49.77404 q -0.181275,0.0791 -0.32959,0.148316 -0.14502,0.06921 -0.382324,0.145019 -0.20105,0.06262 -0.438355,0.105469 -0.234009,0.04614 -0.517456,0.04614 -0.533935,0 -0.97229,-0.148316 -0.435059,-0.151611 -0.758057,-0.471313 -0.316406,-0.313111 -0.494384,-0.794312 -0.177979,-0.484497 -0.177979,-1.123901 0,-0.606446 0.171387,-1.084351 0.171387,-0.477905 0.494385,-0.807495 0.31311,-0.319702 0.75476,-0.487793 0.444947,-0.168091 0.985474,-0.168091 0.395508,0 0.78772,0.09558 0.395508,0.09558 0.876709,0.336182 v 0.774536 h -0.04944 q -0.405395,-0.339477 -0.804199,-0.494385 -0.398804,-0.154907 -0.853638,-0.154907 -0.372436,0 -0.672363,0.121948 -0.296631,0.118653 -0.53064,0.372437 -0.227417,0.247192 -0.355957,0.626221 -0.125244,0.375732 -0.125244,0.870117 0,0.517456 0.138428,0.889892 0.141724,0.372437 0.362549,0.606446 0.230713,0.243896 0.537231,0.362548 0.309815,0.115357 0.652588,0.115357 0.471314,0 0.883301,-0.161499 0.411987,-0.161499 0.77124,-0.484497 h 0.04614 z"
       style="font-size:6.75px;font-family:ProximaNova-Regular, 'Proxima Nova';letter-spacing:0.2em;fill:#94adc0"
       id="path475" />
    <path
       d="m 104.62043,50.129997 h -0.65258 v -2.40271 h -2.44886 v 2.40271 h -0.65258 v -4.907593 h 0.65258 v 1.924805 h 2.44886 v -1.924805 h 0.65258 z"
       style="font-size:6.75px;font-family:ProximaNova-Regular, 'Proxima Nova';letter-spacing:0.2em;fill:#94adc0"
       id="path477" />
    <path
       d="m 111.03623,50.129997 h -0.8075 l -2.3269,-4.390136 v 4.390136 h -0.60974 v -4.907593 h 1.01184 l 2.12256,4.007813 v -4.007813 h 0.60974 z"
       style="font-size:6.75px;font-family:ProximaNova-Regular, 'Proxima Nova';letter-spacing:0.2em;fill:#94adc0"
       id="path479" />
    <path
       d="m 115.42175,50.129997 h -1.93799 v -0.500976 h 0.6427 v -3.90564 h -0.6427 v -0.500977 h 1.93799 v 0.500977 h -0.6427 v 3.90564 h 0.6427 z"
       style="font-size:6.75px;font-family:ProximaNova-Regular, 'Proxima Nova';letter-spacing:0.2em;fill:#94adc0"
       id="path481" />
    <path
       d="m 121.67934,49.77404 q -0.18127,0.0791 -0.32959,0.148316 -0.14502,0.06921 -0.38232,0.145019 -0.20105,0.06262 -0.43835,0.105469 -0.23401,0.04614 -0.51746,0.04614 -0.53394,0 -0.97229,-0.148316 -0.43506,-0.151611 -0.75806,-0.471313 -0.3164,-0.313111 -0.49438,-0.794312 -0.17798,-0.484497 -0.17798,-1.123901 0,-0.606446 0.17139,-1.084351 0.17138,-0.477905 0.49438,-0.807495 0.31311,-0.319702 0.75476,-0.487793 0.44495,-0.168091 0.98548,-0.168091 0.3955,0 0.78772,0.09558 0.3955,0.09558 0.8767,0.336182 v 0.774536 h -0.0494 q -0.4054,-0.339477 -0.8042,-0.494385 -0.39881,-0.154907 -0.85364,-0.154907 -0.37244,0 -0.67236,0.121948 -0.29664,0.118653 -0.53064,0.372437 -0.22742,0.247192 -0.35596,0.626221 -0.12525,0.375732 -0.12525,0.870117 0,0.517456 0.13843,0.889892 0.14173,0.372437 0.36255,0.606446 0.23071,0.243896 0.53723,0.362548 0.30982,0.115357 0.65259,0.115357 0.47131,0 0.8833,-0.161499 0.41199,-0.161499 0.77124,-0.484497 h 0.0461 z"
       style="font-size:6.75px;font-family:ProximaNova-Regular, 'Proxima Nova';letter-spacing:0.2em;fill:#94adc0"
       id="path483" />
    <path
       d="m 127.82817,50.129997 h -0.69543 l -0.4812,-1.367798 h -2.12256 l -0.4812,1.367798 h -0.66248 l 1.78638,-4.907593 h 0.87012 z m -1.37768,-1.9281 -0.86023,-2.409302 -0.86353,2.409302 z"
       style="font-size:6.75px;font-family:ProximaNova-Regular, 'Proxima Nova';letter-spacing:0.2em;fill:#94adc0"
       id="path485" />
    <path
       d="m 133.02778,50.129997 h -3.10473 v -4.907593 h 0.65258 v 4.327515 h 2.45215 z"
       style="font-size:6.75px;font-family:ProximaNova-Regular, 'Proxima Nova';letter-spacing:0.2em;fill:#94adc0"
       id="path487" />
    <path
       d="m 142.6228,50.129997 h -0.69543 l -0.4812,-1.367798 h -2.12256 l -0.4812,1.367798 h -0.66248 l 1.78638,-4.907593 h 0.87012 z m -1.37768,-1.9281 -0.86023,-2.409302 -0.86353,2.409302 z"
       style="font-size:6.75px;font-family:ProximaNova-Regular, 'Proxima Nova';letter-spacing:0.2em;fill:#94adc0"
       id="path489" />
    <path
       d="m 148.25747,48.72924 q 0,0.286744 -0.13513,0.566895 -0.13184,0.280151 -0.37244,0.474609 -0.26367,0.210938 -0.61633,0.32959 -0.34937,0.118653 -0.84375,0.118653 -0.53064,0 -0.95581,-0.09888 -0.42188,-0.09888 -0.86023,-0.293335 v -0.817383 h 0.0461 q 0.37244,0.309814 0.86023,0.477905 0.48779,0.168091 0.91626,0.168091 0.60644,0 0.94263,-0.227417 0.33947,-0.227417 0.33947,-0.606445 0,-0.326294 -0.16149,-0.481202 -0.15821,-0.154907 -0.4845,-0.2406 -0.24719,-0.06592 -0.53723,-0.108765 -0.28675,-0.04285 -0.60974,-0.108764 -0.65259,-0.138428 -0.969,-0.471314 -0.31311,-0.336182 -0.31311,-0.873413 0,-0.616333 0.52075,-1.008545 0.52075,-0.395508 1.32166,-0.395508 0.51745,0 0.94922,0.09888 0.43176,0.09888 0.76465,0.243897 v 0.77124 h -0.0462 q -0.28015,-0.237305 -0.73828,-0.392212 -0.45483,-0.158203 -0.93274,-0.158203 -0.52405,0 -0.84375,0.217529 -0.3164,0.217529 -0.3164,0.560303 0,0.306518 0.1582,0.481201 0.1582,0.174683 0.55701,0.266968 0.21093,0.04614 0.59985,0.11206 0.38892,0.06592 0.65918,0.135132 0.54712,0.14502 0.82397,0.438355 0.27686,0.293335 0.27686,0.820678 z"
       style="font-size:6.75px;font-family:ProximaNova-Regular, 'Proxima Nova';letter-spacing:0.2em;fill:#94adc0"
       id="path491" />
    <path
       d="m 154.15581,48.72924 q 0,0.286744 -0.13513,0.566895 -0.13184,0.280151 -0.37244,0.474609 -0.26367,0.210938 -0.61633,0.32959 -0.34937,0.118653 -0.84375,0.118653 -0.53064,0 -0.95581,-0.09888 -0.42188,-0.09888 -0.86023,-0.293335 v -0.817383 h 0.0461 q 0.37244,0.309814 0.86023,0.477905 0.48779,0.168091 0.91626,0.168091 0.60644,0 0.94262,-0.227417 0.33948,-0.227417 0.33948,-0.606445 0,-0.326294 -0.1615,-0.481202 -0.1582,-0.154907 -0.48449,-0.2406 -0.2472,-0.06592 -0.53724,-0.108765 -0.28674,-0.04285 -0.60974,-0.108764 -0.65258,-0.138428 -0.96899,-0.471314 -0.31311,-0.336182 -0.31311,-0.873413 0,-0.616333 0.52075,-1.008545 0.52075,-0.395508 1.32166,-0.395508 0.51745,0 0.94922,0.09888 0.43176,0.09888 0.76464,0.243897 v 0.77124 h -0.0461 q -0.28015,-0.237305 -0.73828,-0.392212 -0.45483,-0.158203 -0.93274,-0.158203 -0.52405,0 -0.84375,0.217529 -0.31641,0.217529 -0.31641,0.560303 0,0.306518 0.15821,0.481201 0.1582,0.174683 0.557,0.266968 0.21094,0.04614 0.59986,0.11206 0.38891,0.06592 0.65918,0.135132 0.54712,0.14502 0.82397,0.438355 0.27686,0.293335 0.27686,0.820678 z"
       style="font-size:6.75px;font-family:ProximaNova-Regular, 'Proxima Nova';letter-spacing:0.2em;fill:#94adc0"
       id="path493" />
    <path
       d="m 158.28426,50.129997 h -1.93799 v -0.500976 h 0.6427 v -3.90564 h -0.6427 v -0.500977 h 1.93799 v 0.500977 h -0.6427 v 3.90564 h 0.6427 z"
       style="font-size:6.75px;font-family:ProximaNova-Regular, 'Proxima Nova';letter-spacing:0.2em;fill:#94adc0"
       id="path495" />
    <path
       d="m 164.25181,45.802483 h -1.75342 v 4.327514 h -0.65259 v -4.327514 h -1.75342 v -0.580079 h 4.15943 z"
       style="font-size:6.75px;font-family:ProximaNova-Regular, 'Proxima Nova';letter-spacing:0.2em;fill:#94adc0"
       id="path497" />
    <path
       d="m 169.74146,50.129997 h -0.69544 l -0.4812,-1.367798 h -2.12256 l -0.4812,1.367798 h -0.66248 l 1.78638,-4.907593 h 0.87012 z m -1.37769,-1.9281 -0.86023,-2.409302 -0.86353,2.409302 z"
       style="font-size:6.75px;font-family:ProximaNova-Regular, 'Proxima Nova';letter-spacing:0.2em;fill:#94adc0"
       id="path499" />
    <path
       d="m 175.58047,50.129997 h -0.8075 l -2.3269,-4.390136 v 4.390136 h -0.60974 v -4.907593 h 1.01184 l 2.12256,4.007813 v -4.007813 h 0.60974 z"
       style="font-size:6.75px;font-family:ProximaNova-Regular, 'Proxima Nova';letter-spacing:0.2em;fill:#94adc0"
       id="path501" />
    <path
       d="m 182.02592,49.77404 q -0.18127,0.0791 -0.32959,0.148316 -0.14501,0.06921 -0.38232,0.145019 -0.20105,0.06262 -0.43835,0.105469 -0.23401,0.04614 -0.51746,0.04614 -0.53394,0 -0.97229,-0.148316 -0.43506,-0.151611 -0.75806,-0.471313 -0.3164,-0.313111 -0.49438,-0.794312 -0.17798,-0.484497 -0.17798,-1.123901 0,-0.606446 0.17139,-1.084351 0.17138,-0.477905 0.49438,-0.807495 0.31311,-0.319702 0.75476,-0.487793 0.44495,-0.168091 0.98548,-0.168091 0.3955,0 0.78772,0.09558 0.3955,0.09558 0.8767,0.336182 v 0.774536 h -0.0494 q -0.4054,-0.339477 -0.8042,-0.494385 -0.39881,-0.154907 -0.85364,-0.154907 -0.37244,0 -0.67236,0.121948 -0.29663,0.118653 -0.53064,0.372437 -0.22742,0.247192 -0.35596,0.626221 -0.12524,0.375732 -0.12524,0.870117 0,0.517456 0.13842,0.889892 0.14173,0.372437 0.36255,0.606446 0.23071,0.243896 0.53723,0.362548 0.30982,0.115357 0.65259,0.115357 0.47131,0 0.8833,-0.161499 0.41199,-0.161499 0.77124,-0.484497 h 0.0461 z"
       style="font-size:6.75px;font-family:ProximaNova-Regular, 'Proxima Nova';letter-spacing:0.2em;fill:#94adc0"
       id="path503" />
    <path
       d="m 187.53865,50.129997 h -3.23328 v -4.907593 h 3.23328 v 0.580079 h -2.58069 v 1.344726 h 2.58069 v 0.580078 h -2.58069 v 1.822632 h 2.58069 z"
       style="font-size:6.75px;font-family:ProximaNova-Regular, 'Proxima Nova';letter-spacing:0.2em;fill:#94adc0"
       id="path505" />
    <path
       d="m 197.44019,49.77404 q -0.18128,0.0791 -0.32959,0.148316 -0.14502,0.06921 -0.38233,0.145019 -0.20105,0.06262 -0.43835,0.105469 -0.23401,0.04614 -0.51746,0.04614 -0.53393,0 -0.97229,-0.148316 -0.43506,-0.151611 -0.75806,-0.471313 -0.3164,-0.313111 -0.49438,-0.794312 -0.17798,-0.484497 -0.17798,-1.123901 0,-0.606446 0.17139,-1.084351 0.17138,-0.477905 0.49438,-0.807495 0.31311,-0.319702 0.75476,-0.487793 0.44495,-0.168091 0.98548,-0.168091 0.3955,0 0.78772,0.09558 0.3955,0.09558 0.87671,0.336182 v 0.774536 h -0.0494 q -0.4054,-0.339477 -0.8042,-0.494385 -0.39881,-0.154907 -0.85364,-0.154907 -0.37244,0 -0.67236,0.121948 -0.29663,0.118653 -0.53064,0.372437 -0.22742,0.247192 -0.35596,0.626221 -0.12524,0.375732 -0.12524,0.870117 0,0.517456 0.13842,0.889892 0.14173,0.372437 0.36255,0.606446 0.23072,0.243896 0.53723,0.362548 0.30982,0.115357 0.65259,0.115357 0.47132,0 0.8833,-0.161499 0.41199,-0.161499 0.77124,-0.484497 h 0.0462 z"
       style="font-size:6.75px;font-family:ProximaNova-Regular, 'Proxima Nova';letter-spacing:0.2em;fill:#94adc0"
       id="path507" />
    <path
       d="m 202.9529,50.129997 h -3.23327 v -4.907593 h 3.23327 v 0.580079 h -2.58068 v 1.344726 h 2.58068 v 0.580078 h -2.58068 v 1.822632 h 2.58068 z"
       style="font-size:6.75px;font-family:ProximaNova-Regular, 'Proxima Nova';letter-spacing:0.2em;fill:#94adc0"
       id="path509" />
    <path
       d="m 209.08525,50.129997 h -0.80749 l -2.32691,-4.390136 v 4.390136 h -0.60974 v -4.907593 h 1.01184 l 2.12256,4.007813 v -4.007813 h 0.60974 z"
       style="font-size:6.75px;font-family:ProximaNova-Regular, 'Proxima Nova';letter-spacing:0.2em;fill:#94adc0"
       id="path511" />
    <path
       d="m 215.24068,45.802483 h -1.75342 v 4.327514 h -0.65259 v -4.327514 h -1.75342 v -0.580079 h 4.15943 z"
       style="font-size:6.75px;font-family:ProximaNova-Regular, 'Proxima Nova';letter-spacing:0.2em;fill:#94adc0"
       id="path513" />
    <path
       d="m 220.48972,50.129997 h -3.23328 v -4.907593 h 3.23328 v 0.580079 h -2.58069 v 1.344726 h 2.58069 v 0.580078 h -2.58069 v 1.822632 h 2.58069 z"
       style="font-size:6.75px;font-family:ProximaNova-Regular, 'Proxima Nova';letter-spacing:0.2em;fill:#94adc0"
       id="path515" />
    <path
       d="m 226.93848,50.129997 h -0.84705 l -1.64136,-1.951172 h -0.91955 v 1.951172 h -0.65259 v -4.907593 h 1.37439 q 0.44495,0 0.74158,0.05933 0.29663,0.05603 0.53393,0.204345 0.26697,0.168091 0.41529,0.425171 0.15161,0.253784 0.15161,0.645996 0,0.53064 -0.26697,0.889893 -0.26697,0.355957 -0.73499,0.537231 z m -1.526,-3.526611 q 0,-0.210938 -0.0758,-0.372437 -0.0725,-0.164795 -0.2439,-0.276855 -0.14172,-0.09558 -0.33618,-0.131836 -0.19446,-0.03955 -0.45813,-0.03955 h -0.76794 v 1.852295 h 0.65918 q 0.30981,0 0.54052,-0.05273 0.23072,-0.05603 0.39222,-0.204346 0.14831,-0.138428 0.21753,-0.316406 0.0725,-0.181275 0.0725,-0.45813 z"
       style="font-size:6.75px;font-family:ProximaNova-Regular, 'Proxima Nova';letter-spacing:0.2em;fill:#94adc0"
       id="path517" />
  </g>
  <g
     aria-label="TAC"
     style="font-weight:700;font-size:24px;font-family:ProximaNova-Extrabld, 'Proxima Nova';letter-spacing:0.05em;fill:#286ab1"
     id="text140-2">
    <path
       d="m 193.17444,24.485504 h -5.44922 v 14.074219 h -4.5 V 24.485504 H 177.776 v -3.375 h 15.39844 z"
       style="fill:#032e72"
       id="path453" />
    <path
       d="m 213.20647,38.559723 h -4.65234 l -1.20703,-3.527344 h -6.46875 l -1.20704,3.527344 h -4.53515 l 6.44531,-17.449219 h 5.17969 z m -6.94922,-6.726563 -2.14453,-6.257812 -2.14453,6.257812 z"
       style="fill:#032e72"
       id="path455" />
    <path
       d="m 224.82444,38.899567 q -1.94531,0 -3.59766,-0.574219 -1.64062,-0.574219 -2.82421,-1.710938 -1.1836,-1.136718 -1.83985,-2.835937 -0.64453,-1.699219 -0.64453,-3.925781 0,-2.074219 0.62109,-3.761719 0.6211,-1.6875 1.80469,-2.894531 1.13672,-1.160157 2.8125,-1.792969 1.6875,-0.632813 3.67969,-0.632813 1.10156,0 1.98047,0.128907 0.89062,0.117187 1.64062,0.316406 0.78516,0.222656 1.41797,0.503906 0.64453,0.269531 1.125,0.503906 v 4.230469 h -0.51562 q -0.32813,-0.28125 -0.83203,-0.667969 -0.49219,-0.386718 -1.125,-0.761718 -0.64454,-0.375 -1.39454,-0.632813 -0.75,-0.257812 -1.60546,-0.257812 -0.94922,0 -1.80469,0.304687 -0.85547,0.292969 -1.58203,0.984375 -0.69141,0.667969 -1.125,1.769531 -0.42188,1.101563 -0.42188,2.671875 0,1.640625 0.45703,2.742188 0.46875,1.101562 1.17188,1.734375 0.71484,0.644531 1.59375,0.925781 0.8789,0.269531 1.73437,0.269531 0.82032,0 1.61719,-0.246093 0.80859,-0.246094 1.48828,-0.667969 0.57422,-0.339844 1.06641,-0.726563 0.49219,-0.386718 0.80859,-0.667968 h 0.46875 v 4.171875 q -0.65625,0.292968 -1.2539,0.550781 -0.59766,0.257812 -1.25391,0.445312 -0.85547,0.246094 -1.60547,0.375 -0.75,0.128907 -2.0625,0.128907 z"
       style="fill:#032e72"
       id="path457" />
  </g>
</svg>
