<?xml version="1.0" encoding="UTF-8" standalone="no"?>
<svg
   xmlns:dc="http://purl.org/dc/elements/1.1/"
   xmlns:cc="http://creativecommons.org/ns#"
   xmlns:rdf="http://www.w3.org/1999/02/22-rdf-syntax-ns#"
   xmlns:svg="http://www.w3.org/2000/svg"
   xmlns="http://www.w3.org/2000/svg"
   xmlns:sodipodi="http://sodipodi.sourceforge.net/DTD/sodipodi-0.dtd"
   xmlns:inkscape="http://www.inkscape.org/namespaces/inkscape"
   viewBox="0 0 194.39 56.52"
   version="1.1"
   id="svg798"
   sodipodi:docname="logo-white.svg"
   inkscape:version="0.92.3 (2405546, 2018-03-11)">
  <metadata
     id="metadata802">
    <rdf:RDF>
      <cc:Work
         rdf:about="">
        <dc:format>image/svg+xml</dc:format>
        <dc:type
           rdf:resource="http://purl.org/dc/dcmitype/StillImage" />
      </cc:Work>
    </rdf:RDF>
  </metadata>
  <sodipodi:namedview
     pagecolor="#ffffff"
     bordercolor="#666666"
     borderopacity="1"
     objecttolerance="10"
     gridtolerance="10"
     guidetolerance="10"
     inkscape:pageopacity="0"
     inkscape:pageshadow="2"
     inkscape:window-width="3840"
     inkscape:window-height="2080"
     id="namedview800"
     showgrid="false"
     inkscape:zoom="11.938497"
     inkscape:cx="74.841184"
     inkscape:cy="32.448743"
     inkscape:window-x="-11"
     inkscape:window-y="-11"
     inkscape:window-maximized="1"
     inkscape:current-layer="svg798" />
  <defs
     id="defs668">
    <style
       id="style666">.cls-1,.cls-2,.cls-3{fill:#fff;}.cls-2{font-size:19.9px;font-family:ProximaNova-Extrabld, Proxima Nova;font-weight:700;letter-spacing:0.05em;}.cls-3{font-size:5.6px;font-family:ProximaNova-Regular, Proxima Nova;letter-spacing:0.2em;}</style>
  </defs>
  <title
     id="title670">Asset 6</title>
  <path
     class="cls-1"
     d="m 142,42 3.88,6.72 h -7.75 L 142,42"
     id="path672"
     style="fill:#ffffff"
     inkscape:connector-curvature="0" />
  <path
     class="cls-1"
     d="m 150.76,41.41 -3.88,6.72 -3.88,-6.72 h 7.76"
     id="path674"
     style="fill:#ffffff"
     inkscape:connector-curvature="0" />
  <path
     class="cls-1"
     d="m 146.88,33.58 3.88,6.71 H 143 l 3.88,-6.71"
     id="path676"
     style="fill:#ffffff"
     inkscape:connector-curvature="0" />
  <path
     class="cls-1"
     d="m 155.6,49.81 -3.87,6.71 -3.88,-6.71 h 7.75"
     id="path678"
     style="fill:#ffffff"
     inkscape:connector-curvature="0" />
  <path
     class="cls-1"
     d="m 151.73,42 3.87,6.72 h -7.75 L 151.73,42"
     id="path680"
     style="fill:#ffffff"
     inkscape:connector-curvature="0" />
  <path
     class="cls-1"
     d="m 160.45,41.41 -3.88,6.72 -3.87,-6.72 h 7.75"
     id="path682"
     style="fill:#ffffff"
     inkscape:connector-curvature="0" />
  <path
     class="cls-1"
     d="m 156.57,33.58 3.88,6.71 h -7.75 l 3.87,-6.71"
     id="path684"
     style="fill:#ffffff"
     inkscape:connector-curvature="0" />
  <path
     class="cls-1"
     d="m 161.42,42 3.88,6.72 h -7.75 L 161.42,42"
     id="path686"
     style="fill:#ffffff"
     inkscape:connector-curvature="0" />
  <path
     class="cls-1"
     d="m 170.14,41.41 -3.87,6.72 -3.88,-6.72 h 7.75"
     id="path688"
     style="fill:#ffffff"
     inkscape:connector-curvature="0" />
  <path
     class="cls-1"
     d="m 171.12,42 3.88,6.69 h -7.75 L 171.12,42"
     id="path690"
     style="fill:#ffffff"
     inkscape:connector-curvature="0" />
  <path
     class="cls-1"
     d="m 179.84,41.41 -3.84,6.72 -3.87,-6.72 h 7.75"
     id="path692"
     style="fill:#ffffff"
     inkscape:connector-curvature="0" />
  <path
     class="cls-1"
     d="m 176,33.58 3.88,6.71 h -7.75 L 176,33.58"
     id="path694"
     style="fill:#ffffff"
     inkscape:connector-curvature="0" />
  <path
     class="cls-1"
     d="m 190.51,42 3.88,6.72 h -7.76 L 190.51,42"
     id="path696"
     style="fill:#ffffff"
     inkscape:connector-curvature="0" />
  <path
     class="cls-1"
     d="m 146.88,16.79 3.88,6.71 H 143 l 3.88,-6.71"
     id="path698"
     style="fill:#ffffff"
     inkscape:connector-curvature="0" />
  <path
     class="cls-1"
     d="m 155.6,33 -3.87,6.71 -3.88,-6.71 h 7.75"
     id="path700"
     style="fill:#ffffff"
     inkscape:connector-curvature="0" />
  <path
     class="cls-1"
     d="m 151.73,25.18 3.87,6.72 h -7.75 l 3.88,-6.72"
     id="path702"
     style="fill:#ffffff"
     inkscape:connector-curvature="0" />
  <path
     class="cls-1"
     d="m 160.45,24.62 -3.88,6.72 -3.87,-6.72 h 7.75"
     id="path704"
     style="fill:#ffffff"
     inkscape:connector-curvature="0" />
  <path
     class="cls-1"
     d="m 165.3,33 -3.88,6.71 -3.87,-6.71 h 7.75"
     id="path706"
     style="fill:#ffffff"
     inkscape:connector-curvature="0" />
  <path
     class="cls-1"
     d="m 161.42,25.18 3.88,6.72 h -7.75 l 3.87,-6.72"
     id="path708"
     style="fill:#ffffff"
     inkscape:connector-curvature="0" />
  <path
     class="cls-1"
     d="m 170.14,24.62 -3.87,6.72 -3.88,-6.72 h 7.75"
     id="path710"
     style="fill:#ffffff"
     inkscape:connector-curvature="0" />
  <path
     class="cls-1"
     d="m 176,16.79 3.88,6.71 h -7.75 L 176,16.79"
     id="path712"
     style="fill:#ffffff"
     inkscape:connector-curvature="0" />
  <path
     class="cls-1"
     d="m 184.69,33 -3.88,6.71 -3.88,-6.71 h 7.76"
     id="path714"
     style="fill:#ffffff"
     inkscape:connector-curvature="0" />
  <path
     class="cls-1"
     d="m 146.88,16.79 3.88,6.71 H 143 l 3.88,-6.71"
     id="path716"
     style="fill:#ffffff"
     inkscape:connector-curvature="0" />
  <path
     class="cls-1"
     d="m 176,16.79 3.88,6.71 h -7.75 L 176,16.79"
     id="path718"
     style="fill:#ffffff"
     inkscape:connector-curvature="0" />
  <path
     class="cls-1"
     d="m 155.6,16.23 -3.87,6.71 -3.88,-6.71 h 7.75"
     id="path720"
     style="fill:#ffffff"
     inkscape:connector-curvature="0" />
  <path
     class="cls-1"
     d="m 184.69,16.23 -3.88,6.71 -3.88,-6.71 h 7.76"
     id="path722"
     style="fill:#ffffff"
     inkscape:connector-curvature="0" />
  <path
     class="cls-1"
     d="m 146.88,16.79 3.88,6.71 H 143 l 3.88,-6.71"
     id="path724"
     style="fill:#ffffff"
     inkscape:connector-curvature="0" />
  <path
     class="cls-1"
     d="m 176,16.79 3.88,6.71 h -7.75 L 176,16.79"
     id="path726"
     style="fill:#ffffff"
     inkscape:connector-curvature="0" />
  <path
     class="cls-1"
     d="m 165.3,16.23 -3.88,6.71 -3.87,-6.71 h 7.75"
     id="path728"
     style="fill:#ffffff"
     inkscape:connector-curvature="0" />
  <path
     class="cls-1"
     d="m 155.6,49.81 -3.87,6.71 -3.88,-6.71 h 7.75"
     id="path730"
     style="fill:#ffffff"
     inkscape:connector-curvature="0" />
  <path
     class="cls-1"
     d="m 160.45,41.41 -3.88,6.72 -3.87,-6.72 h 7.75"
     id="path732"
     style="fill:#ffffff"
     inkscape:connector-curvature="0" />
  <path
     class="cls-1"
     d="m 165.3,33 -3.88,6.71 -3.87,-6.71 h 7.75"
     id="path734"
     style="fill:#ffffff"
     inkscape:connector-curvature="0" />
  <path
     class="cls-1"
     d="m 170.14,24.62 -3.87,6.72 -3.88,-6.72 h 7.75"
     id="path736"
     style="fill:#ffffff"
     inkscape:connector-curvature="0" />
  <path
     class="cls-1"
     d="m 146.88,16.79 3.88,6.71 H 143 l 3.88,-6.71"
     id="path738"
     style="fill:#ffffff"
     inkscape:connector-curvature="0" />
  <path
     class="cls-1"
     d="m 156.57,16.79 3.88,6.71 h -7.75 l 3.87,-6.71"
     id="path740"
     style="fill:#ffffff"
     inkscape:connector-curvature="0" />
  <path
     class="cls-1"
     d="m 155.6,16.23 -3.87,6.71 -3.88,-6.71 h 7.75"
     id="path742"
     style="fill:#ffffff"
     inkscape:connector-curvature="0" />
  <path
     class="cls-1"
     d="m 161.42,8.39 3.88,6.72 h -7.75 l 3.87,-6.72"
     id="path744"
     style="fill:#ffffff"
     inkscape:connector-curvature="0" />
  <path
     class="cls-1"
     d="m 175,16.23 -3.87,6.71 -3.88,-6.71 H 175"
     id="path746"
     style="fill:#ffffff"
     inkscape:connector-curvature="0" />
  <path
     class="cls-1"
     d="m 142,42 3.88,6.72 h -7.75 L 142,42"
     id="path748"
     style="fill:#ffffff"
     inkscape:connector-curvature="0" />
  <path
     class="cls-1"
     d="m 150.76,41.41 -3.88,6.72 -3.88,-6.72 h 7.76"
     id="path750"
     style="fill:#ffffff"
     inkscape:connector-curvature="0" />
  <path
     class="cls-1"
     d="m 146.88,33.58 3.88,6.71 H 143 l 3.88,-6.71"
     id="path752"
     style="fill:#ffffff"
     inkscape:connector-curvature="0" />
  <path
     class="cls-1"
     d="m 190.51,42 3.88,6.72 h -7.76 L 190.51,42"
     id="path754"
     style="fill:#ffffff"
     inkscape:connector-curvature="0" />
  <path
     class="cls-1"
     d="m 155.6,33 -3.87,6.71 -3.88,-6.71 h 7.75"
     id="path756"
     style="fill:#ffffff"
     inkscape:connector-curvature="0" />
  <path
     class="cls-1"
     d="m 151.73,25.18 3.87,6.72 h -7.75 l 3.88,-6.72"
     id="path758"
     style="fill:#ffffff"
     inkscape:connector-curvature="0" />
  <path
     class="cls-1"
     d="m 160.45,24.62 -3.88,6.72 -3.87,-6.72 h 7.75"
     id="path760"
     style="fill:#ffffff"
     inkscape:connector-curvature="0" />
  <path
     class="cls-1"
     d="m 176,16.79 3.88,6.71 h -7.75 L 176,16.79"
     id="path762"
     style="fill:#ffffff"
     inkscape:connector-curvature="0" />
  <path
     class="cls-1"
     d="m 170.14,7.83 -3.87,6.72 -3.88,-6.72 h 7.75"
     id="path764"
     style="fill:#ffffff"
     inkscape:connector-curvature="0" />
  <path
     class="cls-1"
     d="m 166.27,0 3.87,6.71 h -7.75 L 166.27,0"
     id="path766"
     style="fill:#ffffff"
     inkscape:connector-curvature="0" />
  <path
     class="cls-1"
     d="m 171.12,8.39 3.88,6.72 h -7.75 l 3.88,-6.72"
     id="path768"
     style="fill:#ffffff"
     inkscape:connector-curvature="0" />
  <path
     class="cls-1"
     d="m 151.73,42 3.87,6.72 h -7.75 L 151.73,42"
     id="path770"
     style="fill:#ffffff"
     inkscape:connector-curvature="0" />
  <path
     class="cls-1"
     d="m 156.57,33.58 3.88,6.71 h -7.75 l 3.87,-6.71"
     id="path772"
     style="fill:#ffffff"
     inkscape:connector-curvature="0" />
  <path
     class="cls-1"
     d="m 161.42,42 3.88,6.72 h -7.75 L 161.42,42"
     id="path774"
     style="fill:#ffffff"
     inkscape:connector-curvature="0" />
  <path
     class="cls-1"
     d="m 170.14,41.41 -3.87,6.72 -3.88,-6.72 h 7.75"
     id="path776"
     style="fill:#ffffff"
     inkscape:connector-curvature="0" />
  <path
     class="cls-1"
     d="m 171.12,42 3.88,6.69 h -7.75 L 171.12,42"
     id="path778"
     style="fill:#ffffff"
     inkscape:connector-curvature="0" />
  <path
     class="cls-1"
     d="m 179.84,41.41 -3.84,6.72 -3.87,-6.72 h 7.75"
     id="path780"
     style="fill:#ffffff"
     inkscape:connector-curvature="0" />
  <path
     class="cls-1"
     d="m 176,33.58 3.88,6.71 h -7.75 L 176,33.58"
     id="path782"
     style="fill:#ffffff"
     inkscape:connector-curvature="0" />
  <path
     class="cls-1"
     d="m 161.42,25.18 3.88,6.72 h -7.75 l 3.87,-6.72"
     id="path784"
     style="fill:#ffffff"
     inkscape:connector-curvature="0" />
  <path
     class="cls-1"
     d="m 166.27,16.79 3.87,6.71 h -7.75 l 3.88,-6.71"
     id="path786"
     style="fill:#ffffff"
     inkscape:connector-curvature="0" />
  <path
     class="cls-1"
     d="m 184.69,33 -3.88,6.71 -3.88,-6.71 h 7.76"
     id="path788"
     style="fill:#ffffff"
     inkscape:connector-curvature="0" />
  <path
     class="cls-1"
     d="m 184.69,16.23 -3.88,6.71 -3.88,-6.71 h 7.76"
     id="path790"
     style="fill:#ffffff"
     inkscape:connector-curvature="0" />
  <g
     aria-label="ICORE TAC"
     style="font-weight:700;font-size:19.89999962px;font-family:ProximaNova-Extrabld, 'Proxima Nova';letter-spacing:0.05em;fill:#ffffff"
     id="text792">
    <path
       d="M 8.6682127,35.630001 H 0.19516599 V 33.064767 H 2.5660644 V 23.726925 H 0.19516599 V 21.161691 H 8.6682127 v 2.565234 H 6.2973143 v 9.337842 h 2.3708984 z"
       style="font-weight:700;font-size:19.89999962px;font-family:ProximaNova-Extrabld, 'Proxima Nova';letter-spacing:0.05em;fill:#ffffff"
       id="path978" />
    <path
       d="m 19.263408,35.911788 q -1.612988,0 -2.983057,-0.476123 -1.360351,-0.476123 -2.341748,-1.418652 -0.981396,-0.942529 -1.525537,-2.351465 -0.534424,-1.408936 -0.534424,-3.255127 0,-1.719873 0.514991,-3.119092 0.51499,-1.399218 1.496386,-2.400048 0.94253,-0.961963 2.332032,-1.48667 1.399218,-0.524707 3.051074,-0.524707 0.913379,0 1.642138,0.106884 0.738477,0.09717 1.360352,0.262354 0.651025,0.184619 1.175732,0.417822 0.534424,0.223487 0.932813,0.417822 v 3.507764 h -0.427539 q -0.272071,-0.233203 -0.689893,-0.553857 -0.408105,-0.320655 -0.932812,-0.631592 -0.534424,-0.310938 -1.156299,-0.524707 -0.621875,-0.21377 -1.331201,-0.21377 -0.787061,0 -1.496387,0.252637 -0.709326,0.24292 -1.311768,0.816211 -0.573291,0.553857 -0.932812,1.467236 -0.349805,0.913379 -0.349805,2.21543 0,1.360351 0.378955,2.27373 0.388672,0.913379 0.97168,1.438086 0.592725,0.534424 1.321484,0.767627 0.72876,0.223487 1.438086,0.223487 0.680176,0 1.340918,-0.204053 0.670459,-0.204053 1.234033,-0.553858 0.476123,-0.281787 0.884229,-0.602441 0.408105,-0.320654 0.670459,-0.553857 h 0.388672 v 3.459179 q -0.544141,0.24292 -1.039697,0.45669 -0.495557,0.213769 -1.039698,0.369238 -0.709326,0.204053 -1.331201,0.310937 -0.621875,0.106885 -1.710156,0.106885 z"
       style="font-weight:700;font-size:19.89999962px;font-family:ProximaNova-Extrabld, 'Proxima Nova';letter-spacing:0.05em;fill:#ffffff"
       id="path980" />
    <path
       d="m 42.208653,28.400704 q 0,3.45918 -1.982227,5.499707 -1.982226,2.030811 -5.480273,2.030811 -3.48833,0 -5.470557,-2.030811 -1.982226,-2.040527 -1.982226,-5.499707 0,-3.48833 1.982226,-5.509423 1.982227,-2.030811 5.470557,-2.030811 3.478613,0 5.470556,2.030811 1.991944,2.021093 1.991944,5.509423 z m -4.94585,3.663233 q 0.544141,-0.660742 0.806494,-1.554688 0.262354,-0.903662 0.262354,-2.118261 0,-1.302051 -0.301221,-2.21543 -0.301221,-0.913379 -0.787061,-1.476953 -0.495556,-0.583008 -1.146582,-0.845362 -0.641308,-0.262353 -1.340917,-0.262353 -0.709327,0 -1.340918,0.252637 -0.621875,0.252636 -1.146582,0.835644 -0.48584,0.544141 -0.796778,1.506104 -0.30122,0.952246 -0.30122,2.215429 0,1.292334 0.291503,2.205713 0.301221,0.903662 0.787061,1.476953 0.48584,0.573291 1.136865,0.845362 0.651026,0.27207 1.370069,0.27207 0.719042,0 1.370068,-0.27207 0.651025,-0.281788 1.136865,-0.864795 z"
       style="font-weight:700;font-size:19.89999962px;font-family:ProximaNova-Extrabld, 'Proxima Nova';letter-spacing:0.05em;fill:#ffffff"
       id="path982" />
    <path
       d="m 54.154484,25.59255 q 0,-0.544141 -0.223487,-0.932812 -0.223486,-0.388672 -0.767627,-0.612159 -0.378955,-0.155468 -0.884228,-0.184619 -0.505274,-0.03887 -1.175733,-0.03887 h -1.350634 v 3.896436 h 1.146582 q 0.893945,0 1.496386,-0.08745 0.602442,-0.08745 1.010547,-0.398388 0.388672,-0.301221 0.563574,-0.660742 0.18462,-0.369239 0.18462,-0.981397 z m 5.820361,10.037451 H 55.417667 L 51.472648,30.32463 h -1.719873 v 5.305371 h -3.711817 v -14.46831 h 6.257617 q 1.282618,0 2.205713,0.145752 0.923096,0.145752 1.72959,0.631592 0.816211,0.485839 1.292334,1.263183 0.48584,0.767627 0.48584,1.933643 0,1.603271 -0.748193,2.613818 -0.738477,1.010547 -2.118262,1.681006 z"
       style="font-weight:700;font-size:19.89999962px;font-family:ProximaNova-Extrabld, 'Proxima Nova';letter-spacing:0.05em;fill:#ffffff"
       id="path984" />
    <path
       d="M 73.08669,35.630001 H 62.6217 v -14.46831 h 10.46499 v 2.798437 h -6.753173 v 2.497217 h 6.267333 v 2.798437 h -6.267333 v 3.575782 h 6.753173 z"
       style="font-weight:700;font-size:19.89999962px;font-family:ProximaNova-Extrabld, 'Proxima Nova';letter-spacing:0.05em;fill:#ffffff"
       id="path986" />
    <path
       d="m 96.337044,23.960128 h -4.518311 v 11.669873 h -3.73125 V 23.960128 h -4.51831 v -2.798437 h 12.767871 z"
       style="font-weight:700;font-size:19.89999962px;font-family:ProximaNova-Extrabld, 'Proxima Nova';letter-spacing:0.05em;fill:#ffffff"
       id="path988" />
    <path
       d="m 112.94693,35.630001 h -3.85756 l -1.00083,-2.924756 h -5.36368 l -1.00083,2.924756 h -3.760396 l 5.344236,-14.46831 h 4.29483 z m -5.76206,-5.577441 -1.77817,-5.18877 -1.77817,5.18877 z"
       style="font-weight:700;font-size:19.89999962px;font-family:ProximaNova-Extrabld, 'Proxima Nova';letter-spacing:0.05em;fill:#ffffff"
       id="path990" />
    <path
       d="m 122.58017,35.911788 q -1.61299,0 -2.98306,-0.476123 -1.36035,-0.476123 -2.34175,-1.418652 -0.98139,-0.942529 -1.52553,-2.351465 -0.53443,-1.408936 -0.53443,-3.255127 0,-1.719873 0.51499,-3.119092 0.51499,-1.399218 1.49639,-2.400048 0.94253,-0.961963 2.33203,-1.48667 1.39922,-0.524707 3.05107,-0.524707 0.91338,0 1.64214,0.106884 0.73848,0.09717 1.36035,0.262354 0.65103,0.184619 1.17574,0.417822 0.53442,0.223487 0.93281,0.417822 v 3.507764 h -0.42754 q -0.27207,-0.233203 -0.68989,-0.553857 -0.40811,-0.320655 -0.93281,-0.631592 -0.53443,-0.310938 -1.1563,-0.524707 -0.62188,-0.21377 -1.3312,-0.21377 -0.78706,0 -1.49639,0.252637 -0.70933,0.24292 -1.31177,0.816211 -0.57329,0.553857 -0.93281,1.467236 -0.34981,0.913379 -0.34981,2.21543 0,1.360351 0.37896,2.27373 0.38867,0.913379 0.97168,1.438086 0.59272,0.534424 1.32148,0.767627 0.72876,0.223487 1.43809,0.223487 0.68018,0 1.34092,-0.204053 0.67046,-0.204053 1.23403,-0.553858 0.47612,-0.281787 0.88423,-0.602441 0.4081,-0.320654 0.67046,-0.553857 h 0.38867 v 3.459179 q -0.54414,0.24292 -1.0397,0.45669 -0.49555,0.213769 -1.03969,0.369238 -0.70933,0.204053 -1.33121,0.310937 -0.62187,0.106885 -1.71015,0.106885 z"
       style="font-weight:700;font-size:19.89999962px;font-family:ProximaNova-Extrabld, 'Proxima Nova';letter-spacing:0.05em;fill:#ffffff"
       id="path992" />
  </g>
  <g
     aria-label="TECHNICAL ASSITANCE CENTER"
     style="font-size:5.5999999px;font-family:ProximaNova-Regular, 'Proxima Nova';letter-spacing:0.2em;fill:#ffffff"
     id="text794">
    <path
       d="M 3.4507812,41.629767 H 1.9960937 v 3.590234 H 1.4546875 V 41.629767 H 0 v -0.48125 h 3.4507812 z"
       style="font-size:5.5999999px;font-family:ProximaNova-Regular, 'Proxima Nova';letter-spacing:0.2em;fill:#ffffff"
       id="path929" />
    <path
       d="M 7.8055469,45.220001 H 5.1231251 v -4.071484 h 2.6824218 v 0.48125 H 5.6645313 v 1.115625 h 2.1410156 v 0.48125 H 5.6645313 v 1.512109 h 2.1410156 z"
       style="font-size:5.5999999px;font-family:ProximaNova-Regular, 'Proxima Nova';letter-spacing:0.2em;fill:#ffffff"
       id="path931" />
    <path
       d="m 12.931406,44.924689 q -0.150391,0.06562 -0.273438,0.123047 -0.120312,0.05742 -0.317187,0.120312 -0.166797,0.05195 -0.363672,0.0875 -0.194141,0.03828 -0.429297,0.03828 -0.442969,0 -0.80664,-0.123047 -0.360938,-0.125781 -0.628907,-0.391015 -0.2624996,-0.259766 -0.4101559,-0.658985 -0.1476562,-0.401953 -0.1476562,-0.932421 0,-0.503125 0.1421875,-0.89961 0.1421875,-0.396484 0.4101566,-0.669922 0.259765,-0.265234 0.626171,-0.404687 0.369141,-0.139453 0.817579,-0.139453 0.328125,0 0.653515,0.0793 0.328125,0.0793 0.727344,0.278906 v 0.642578 h -0.04102 q -0.336328,-0.281641 -0.667187,-0.410156 -0.33086,-0.128516 -0.708203,-0.128516 -0.308985,0 -0.557813,0.101172 -0.246094,0.09844 -0.440234,0.308984 -0.188672,0.205079 -0.295313,0.519532 -0.103906,0.311718 -0.103906,0.721875 0,0.429296 0.114844,0.738281 0.117578,0.308984 0.300781,0.503125 0.191406,0.202344 0.445703,0.300781 0.257031,0.0957 0.541406,0.0957 0.391016,0 0.732813,-0.133984 0.341797,-0.133985 0.639844,-0.401953 h 0.03828 z"
       style="font-size:5.5999999px;font-family:ProximaNova-Regular, 'Proxima Nova';letter-spacing:0.2em;fill:#ffffff"
       id="path933" />
    <path
       d="m 17.936953,45.220001 h -0.541406 v -1.993359 h -2.031641 v 1.993359 H 14.8225 v -4.071484 h 0.541406 v 1.596875 h 2.031641 v -1.596875 h 0.541406 z"
       style="font-size:5.5999999px;font-family:ProximaNova-Regular, 'Proxima Nova';letter-spacing:0.2em;fill:#ffffff"
       id="path935" />
    <path
       d="m 23.259687,45.220001 h -0.669922 l -1.930469,-3.642187 v 3.642187 h -0.505859 v -4.071484 h 0.839453 l 1.760937,3.325 v -3.325 h 0.50586 z"
       style="font-size:5.5999999px;font-family:ProximaNova-Regular, 'Proxima Nova';letter-spacing:0.2em;fill:#ffffff"
       id="path937" />
    <path
       d="m 26.898046,45.220001 h -1.607812 v -0.415625 h 0.533203 v -3.240234 h -0.533203 v -0.415625 h 1.607812 v 0.415625 h -0.533203 v 3.240234 h 0.533203 z"
       style="font-size:5.5999999px;font-family:ProximaNova-Regular, 'Proxima Nova';letter-spacing:0.2em;fill:#ffffff"
       id="path939" />
    <path
       d="m 32.089531,44.924689 q -0.150391,0.06562 -0.273438,0.123047 -0.120312,0.05742 -0.317187,0.120312 -0.166797,0.05195 -0.363672,0.0875 -0.194141,0.03828 -0.429297,0.03828 -0.442969,0 -0.80664,-0.123047 -0.360938,-0.125781 -0.628907,-0.391015 -0.2625,-0.259766 -0.410156,-0.658985 -0.147656,-0.401953 -0.147656,-0.932421 0,-0.503125 0.142187,-0.89961 0.142188,-0.396484 0.410157,-0.669922 0.259765,-0.265234 0.626171,-0.404687 0.369141,-0.139453 0.817579,-0.139453 0.328125,0 0.653515,0.0793 0.328125,0.0793 0.727344,0.278906 v 0.642578 h -0.04102 q -0.336328,-0.281641 -0.667187,-0.410156 -0.33086,-0.128516 -0.708203,-0.128516 -0.308985,0 -0.557813,0.101172 -0.246094,0.09844 -0.440234,0.308984 -0.188672,0.205079 -0.295313,0.519532 -0.103906,0.311718 -0.103906,0.721875 0,0.429296 0.114844,0.738281 0.117578,0.308984 0.300781,0.503125 0.191406,0.202344 0.445703,0.300781 0.257031,0.0957 0.541406,0.0957 0.391016,0 0.732813,-0.133984 0.341797,-0.133985 0.639844,-0.401953 h 0.03828 z"
       style="font-size:5.5999999px;font-family:ProximaNova-Regular, 'Proxima Nova';letter-spacing:0.2em;fill:#ffffff"
       id="path941" />
    <path
       d="m 37.190781,45.220001 h -0.576953 l -0.399219,-1.134765 h -1.760937 l -0.399219,1.134765 h -0.549609 l 1.482031,-4.071484 h 0.721875 z m -1.142968,-1.599609 -0.713672,-1.998828 -0.716406,1.998828 z"
       style="font-size:5.5999999px;font-family:ProximaNova-Regular, 'Proxima Nova';letter-spacing:0.2em;fill:#ffffff"
       id="path943" />
    <path
       d="m 41.50453,45.220001 h -2.575781 v -4.071484 h 0.541406 v 3.590234 h 2.034375 z"
       style="font-size:5.5999999px;font-family:ProximaNova-Regular, 'Proxima Nova';letter-spacing:0.2em;fill:#ffffff"
       id="path945" />
    <path
       d="m 49.464844,45.220001 h -0.576953 l -0.399218,-1.134765 h -1.760938 l -0.399219,1.134765 h -0.549609 l 1.482031,-4.071484 h 0.721875 z m -1.142968,-1.599609 -0.713672,-1.998828 -0.716406,1.998828 z"
       style="font-size:5.5999999px;font-family:ProximaNova-Regular, 'Proxima Nova';letter-spacing:0.2em;fill:#ffffff"
       id="path947" />
    <path
       d="m 54.139532,44.057892 q 0,0.23789 -0.112109,0.470312 -0.109375,0.232422 -0.308984,0.39375 -0.21875,0.175 -0.511328,0.273438 -0.289844,0.09844 -0.7,0.09844 -0.440235,0 -0.792969,-0.08203 -0.35,-0.08203 -0.713672,-0.243359 v -0.678125 h 0.03828 q 0.308985,0.257031 0.713672,0.396484 0.404688,0.139453 0.760156,0.139453 0.503125,0 0.782032,-0.188672 0.28164,-0.188672 0.28164,-0.503125 0,-0.270703 -0.133984,-0.399218 -0.13125,-0.128516 -0.401953,-0.19961 -0.205078,-0.05469 -0.445703,-0.09023 -0.237891,-0.03555 -0.50586,-0.09023 -0.541406,-0.114844 -0.803906,-0.391016 -0.259766,-0.278906 -0.259766,-0.724609 0,-0.511329 0.432032,-0.836719 0.432031,-0.328125 1.096484,-0.328125 0.429297,0 0.7875,0.08203 0.358203,0.08203 0.634375,0.202344 v 0.639844 h -0.03828 q -0.232422,-0.196875 -0.6125,-0.325391 -0.377344,-0.13125 -0.773828,-0.13125 -0.434766,0 -0.7,0.180469 -0.2625,0.180468 -0.2625,0.464843 0,0.254297 0.13125,0.399219 0.13125,0.144922 0.462109,0.221485 0.175,0.03828 0.497656,0.09297 0.322656,0.05469 0.546875,0.11211 0.453906,0.120312 0.683594,0.363672 0.229687,0.243359 0.229687,0.680859 z"
       style="font-size:5.5999999px;font-family:ProximaNova-Regular, 'Proxima Nova';letter-spacing:0.2em;fill:#ffffff"
       id="path949" />
    <path
       d="m 59.032969,44.057892 q 0,0.23789 -0.11211,0.470312 -0.109375,0.232422 -0.308984,0.39375 -0.21875,0.175 -0.511328,0.273438 -0.289844,0.09844 -0.7,0.09844 -0.440234,0 -0.792969,-0.08203 -0.35,-0.08203 -0.713672,-0.243359 v -0.678125 h 0.03828 q 0.308984,0.257031 0.713672,0.396484 0.404687,0.139453 0.760156,0.139453 0.503125,0 0.782031,-0.188672 0.281641,-0.188672 0.281641,-0.503125 0,-0.270703 -0.133985,-0.399218 -0.13125,-0.128516 -0.401953,-0.19961 -0.205078,-0.05469 -0.445703,-0.09023 -0.237891,-0.03555 -0.505859,-0.09023 -0.541407,-0.114844 -0.803907,-0.391016 -0.259765,-0.278906 -0.259765,-0.724609 0,-0.511329 0.432031,-0.836719 0.432031,-0.328125 1.096484,-0.328125 0.429297,0 0.7875,0.08203 0.358203,0.08203 0.634375,0.202344 v 0.639844 h -0.03828 q -0.232422,-0.196875 -0.6125,-0.325391 -0.377344,-0.13125 -0.773828,-0.13125 -0.434766,0 -0.7,0.180469 -0.2625,0.180468 -0.2625,0.464843 0,0.254297 0.13125,0.399219 0.13125,0.144922 0.462109,0.221485 0.175,0.03828 0.497657,0.09297 0.322656,0.05469 0.546875,0.11211 0.453906,0.120312 0.683593,0.363672 0.229688,0.243359 0.229688,0.680859 z"
       style="font-size:5.5999999px;font-family:ProximaNova-Regular, 'Proxima Nova';letter-spacing:0.2em;fill:#ffffff"
       id="path951" />
    <path
       d="m 62.458046,45.220001 h -1.607813 v -0.415625 h 0.533204 v -3.240234 h -0.533204 v -0.415625 h 1.607813 v 0.415625 h -0.533203 v 3.240234 h 0.533203 z"
       style="font-size:5.5999999px;font-family:ProximaNova-Regular, 'Proxima Nova';letter-spacing:0.2em;fill:#ffffff"
       id="path953" />
    <path
       d="M 67.408907,41.629767 H 65.95422 v 3.590234 h -0.541406 v -3.590234 h -1.454688 v -0.48125 h 3.450781 z"
       style="font-size:5.5999999px;font-family:ProximaNova-Regular, 'Proxima Nova';letter-spacing:0.2em;fill:#ffffff"
       id="path955" />
    <path
       d="m 71.963284,45.220001 h -0.576953 l -0.399219,-1.134765 h -1.760937 l -0.399219,1.134765 h -0.549609 l 1.482031,-4.071484 h 0.721875 z m -1.142968,-1.599609 -0.713672,-1.998828 -0.716407,1.998828 z"
       style="font-size:5.5999999px;font-family:ProximaNova-Regular, 'Proxima Nova';letter-spacing:0.2em;fill:#ffffff"
       id="path957" />
    <path
       d="m 76.807498,45.220001 h -0.669922 l -1.930468,-3.642187 v 3.642187 h -0.50586 v -4.071484 h 0.839453 l 1.760938,3.325 v -3.325 h 0.505859 z"
       style="font-size:5.5999999px;font-family:ProximaNova-Regular, 'Proxima Nova';letter-spacing:0.2em;fill:#ffffff"
       id="path959" />
    <path
       d="m 82.154846,44.924689 q -0.15039,0.06562 -0.273437,0.123047 -0.120313,0.05742 -0.317188,0.120312 -0.166797,0.05195 -0.363672,0.0875 -0.19414,0.03828 -0.429297,0.03828 -0.442968,0 -0.80664,-0.123047 -0.360938,-0.125781 -0.628906,-0.391015 -0.2625,-0.259766 -0.410157,-0.658985 -0.147656,-0.401953 -0.147656,-0.932421 0,-0.503125 0.142188,-0.89961 0.142187,-0.396484 0.410156,-0.669922 0.259765,-0.265234 0.626172,-0.404687 0.36914,-0.139453 0.817578,-0.139453 0.328125,0 0.653515,0.0793 0.328125,0.0793 0.727344,0.278906 v 0.642578 h -0.04102 q -0.336329,-0.281641 -0.667188,-0.410156 -0.330859,-0.128516 -0.708203,-0.128516 -0.308984,0 -0.557813,0.101172 -0.246093,0.09844 -0.440234,0.308984 -0.188672,0.205079 -0.295312,0.519532 -0.103907,0.311718 -0.103907,0.721875 0,0.429296 0.114844,0.738281 0.117578,0.308984 0.300781,0.503125 0.191407,0.202344 0.445703,0.300781 0.257032,0.0957 0.541407,0.0957 0.391015,0 0.732812,-0.133984 0.341797,-0.133985 0.639844,-0.401953 h 0.03828 z"
       style="font-size:5.5999999px;font-family:ProximaNova-Regular, 'Proxima Nova';letter-spacing:0.2em;fill:#ffffff"
       id="path961" />
    <path
       d="m 86.728358,45.220001 h -2.682421 v -4.071484 h 2.682421 v 0.48125 h -2.141015 v 1.115625 h 2.141015 v 0.48125 h -2.141015 v 1.512109 h 2.141015 z"
       style="font-size:5.5999999px;font-family:ProximaNova-Regular, 'Proxima Nova';letter-spacing:0.2em;fill:#ffffff"
       id="path963" />
    <path
       d="m 94.94297,44.924689 q -0.15039,0.06562 -0.273437,0.123047 -0.120313,0.05742 -0.317188,0.120312 -0.166797,0.05195 -0.363672,0.0875 -0.19414,0.03828 -0.429297,0.03828 -0.442968,0 -0.80664,-0.123047 -0.360938,-0.125781 -0.628906,-0.391015 -0.2625,-0.259766 -0.410157,-0.658985 -0.147656,-0.401953 -0.147656,-0.932421 0,-0.503125 0.142188,-0.89961 0.142187,-0.396484 0.410156,-0.669922 0.259766,-0.265234 0.626172,-0.404687 0.36914,-0.139453 0.817578,-0.139453 0.328125,0 0.653515,0.0793 0.328125,0.0793 0.727344,0.278906 v 0.642578 h -0.04102 q -0.336329,-0.281641 -0.667188,-0.410156 -0.330859,-0.128516 -0.708203,-0.128516 -0.308984,0 -0.557813,0.101172 -0.246093,0.09844 -0.440234,0.308984 -0.188672,0.205079 -0.295312,0.519532 -0.103907,0.311718 -0.103907,0.721875 0,0.429296 0.114844,0.738281 0.117578,0.308984 0.300781,0.503125 0.191407,0.202344 0.445703,0.300781 0.257032,0.0957 0.541407,0.0957 0.391015,0 0.732812,-0.133984 0.341797,-0.133985 0.639844,-0.401953 h 0.03828 z"
       style="font-size:5.5999999px;font-family:ProximaNova-Regular, 'Proxima Nova';letter-spacing:0.2em;fill:#ffffff"
       id="path965" />
    <path
       d="m 99.516482,45.220001 h -2.682421 v -4.071484 h 2.682421 v 0.48125 h -2.141015 v 1.115625 h 2.141015 v 0.48125 h -2.141015 v 1.512109 h 2.141015 z"
       style="font-size:5.5999999px;font-family:ProximaNova-Regular, 'Proxima Nova';letter-spacing:0.2em;fill:#ffffff"
       id="path967" />
    <path
       d="m 104.60406,45.220001 h -0.66992 l -1.93047,-3.642187 v 3.642187 h -0.50586 v -4.071484 h 0.83945 l 1.76094,3.325 v -3.325 h 0.50586 z"
       style="font-size:5.5999999px;font-family:ProximaNova-Regular, 'Proxima Nova';letter-spacing:0.2em;fill:#ffffff"
       id="path969" />
    <path
       d="m 109.71078,41.629767 h -1.45468 v 3.590234 h -0.54141 V 41.629767 H 106.26 v -0.48125 h 3.45078 z"
       style="font-size:5.5999999px;font-family:ProximaNova-Regular, 'Proxima Nova';letter-spacing:0.2em;fill:#ffffff"
       id="path971" />
    <path
       d="m 114.06555,45.220001 h -2.68242 v -4.071484 h 2.68242 v 0.48125 h -2.14102 v 1.115625 h 2.14102 v 0.48125 h -2.14102 v 1.512109 h 2.14102 z"
       style="font-size:5.5999999px;font-family:ProximaNova-Regular, 'Proxima Nova';letter-spacing:0.2em;fill:#ffffff"
       id="path973" />
    <path
       d="m 119.41562,45.220001 h -0.70273 l -1.36172,-1.61875 h -0.76289 v 1.61875 h -0.54141 v -4.071484 h 1.14024 q 0.36914,0 0.61523,0.04922 0.2461,0.04648 0.44297,0.169531 0.22149,0.139453 0.34453,0.352734 0.12578,0.210547 0.12578,0.535938 0,0.440234 -0.22148,0.738281 -0.22148,0.295313 -0.60977,0.445703 z m -1.26601,-2.925781 q 0,-0.175 -0.0629,-0.308984 -0.0602,-0.136719 -0.20235,-0.229688 -0.11757,-0.0793 -0.2789,-0.109375 -0.16133,-0.03281 -0.38008,-0.03281 h -0.63711 v 1.536718 h 0.54688 q 0.25703,0 0.44843,-0.04375 0.19141,-0.04648 0.32539,-0.169531 0.12305,-0.114844 0.18047,-0.2625 0.0602,-0.15039 0.0602,-0.380078 z"
       style="font-size:5.5999999px;font-family:ProximaNova-Regular, 'Proxima Nova';letter-spacing:0.2em;fill:#ffffff"
       id="path975" />
  </g>
</svg>
