<svg xmlns="http://www.w3.org/2000/svg" viewBox="0 0 73.56 73.56"><defs><style>.cls-1{fill:#2bb104;}</style></defs><title>Asset 10</title><g id="Layer_2" data-name="Layer 2"><g id="Слой_1" data-name="Слой 1"><path class="cls-1" d="M36.78,4.6A32.18,32.18,0,1,1,4.6,36.78,32.22,32.22,0,0,1,36.78,4.6m0-4.6A36.78,36.78,0,1,0,73.56,36.78,36.78,36.78,0,0,0,36.78,0Zm20.5,49.08-.2-.63a5.83,5.83,0,0,0-3.56-3.36L48.08,43.6a5.3,5.3,0,0,0-4.65,1.23l-2,2A20.86,20.86,0,0,1,26.78,32.1l2-2A5.33,5.33,0,0,0,30,25.48L28.48,20a5.82,5.82,0,0,0-3.36-3.55l-.62-.21a4.89,4.89,0,0,0-4.6,1.09L17,20.31a5.59,5.59,0,0,0-.86,2A34.73,34.73,0,0,0,51.14,57.46a5.37,5.37,0,0,0,2.12-.85l2.94-2.94a4.93,4.93,0,0,0,1.08-4.59Z"/></g></g></svg>