<svg xmlns="http://www.w3.org/2000/svg" viewBox="0 0 69.96 69.96"><defs><style>.cls-1{fill:#e7eced;}.cls-2{fill:#556080;}</style></defs><title>Asset 9</title><g id="Layer_2" data-name="Layer 2"><g id="Слой_1" data-name="Слой 1"><circle class="cls-1" cx="34.98" cy="34.98" r="34.98"/><path class="cls-1" d="M25.34,53.39l-9.67,5.27a9,9,0,0,0-1.55,1.1,32.38,32.38,0,0,0,41.6.11A8.28,8.28,0,0,0,54,58.73L43.67,53.55A3.94,3.94,0,0,1,41.48,50V46a14.81,14.81,0,0,0,1-1.26,23.65,23.65,0,0,0,3.22-6.48A3.27,3.27,0,0,0,48,35.12V30.79a3.21,3.21,0,0,0-1.09-2.41V22.11S48.19,12.36,35,12.36s-11.92,9.75-11.92,9.75v6.27A3.24,3.24,0,0,0,22,30.79v4.33a3.25,3.25,0,0,0,1.5,2.73A21.42,21.42,0,0,0,27.4,46v4a4,4,0,0,1-2.06,3.47Z"/><path class="cls-2" d="M35.53,2.59a32.38,32.38,0,0,0-21.4,57.16,8.9,8.9,0,0,1,1.54-1.09l9.67-5.27a4,4,0,0,0,2.05-3.47V46a21.58,21.58,0,0,1-3.91-8.11A3.23,3.23,0,0,1,22,35.12V30.78a3.24,3.24,0,0,1,1.08-2.4V22.11S21.77,12.36,35,12.36,46.9,22.11,46.9,22.11v6.27A3.24,3.24,0,0,1,48,30.78v4.34a3.27,3.27,0,0,1-2.3,3.1,23.93,23.93,0,0,1-3.22,6.48c-.36.5-.69.92-1,1.26V50a3.94,3.94,0,0,0,2.18,3.53L54,58.73a8.59,8.59,0,0,1,1.69,1.13A32.39,32.39,0,0,0,35.53,2.59Z"/></g></g></svg>