<svg xmlns="http://www.w3.org/2000/svg" viewBox="0 0 2560.76 57.17"><defs><style>.cls-1{opacity:0.1;}.cls-2,.cls-3{fill:#fff;}.cls-2,.cls-3,.cls-4,.cls-5,.cls-6{stroke:#13293d;stroke-miterlimit:10;stroke-width:0.25px;}.cls-2,.cls-4{opacity:0.9;}.cls-4,.cls-6{fill:#f6f9fb;}.cls-5{fill:#ecf2f6;}</style></defs><title>Asset 5</title><g id="Layer_2" data-name="Layer 2"><g id="Слой_1" data-name="Слой 1"><g class="cls-1"><polygon class="cls-2" points="180.99 0.25 197.38 28.59 213.78 0.25 180.99 0.25"/><polygon class="cls-3" points="213.78 0.25 230.17 28.59 246.56 0.25 213.78 0.25"/><polygon class="cls-4" points="213.78 0.25 197.38 28.59 230.17 28.59 213.78 0.25"/><polygon class="cls-3" points="246.56 0.25 262.96 28.59 279.35 0.25 246.56 0.25"/><polygon class="cls-5" points="230.17 28.59 262.96 28.59 246.56 0.25 230.17 28.59"/><polygon class="cls-3" points="279.35 0.25 295.75 28.59 312.14 0.25 279.35 0.25"/><polygon class="cls-6" points="262.96 28.59 295.75 28.59 279.35 0.25 262.96 28.59"/><polygon class="cls-3" points="312.14 0.25 328.54 28.59 344.93 0.25 312.14 0.25"/><polygon class="cls-6" points="295.75 28.59 328.54 28.59 312.14 0.25 295.75 28.59"/><polygon class="cls-3" points="361.32 28.59 377.72 0.25 344.93 0.25 361.32 28.59"/><polygon class="cls-5" points="328.54 28.59 361.32 28.59 344.93 0.25 328.54 28.59"/><polygon class="cls-6" points="361.32 28.59 394.11 28.59 377.72 0.25 361.32 28.59"/><polygon class="cls-2" points="197.38 28.59 213.78 56.92 230.17 28.59 197.38 28.59"/><polygon class="cls-6" points="213.78 56.92 246.56 56.92 230.17 28.59 213.78 56.92"/><polygon class="cls-3" points="230.17 28.59 246.56 56.92 262.96 28.59 230.17 28.59"/><polygon class="cls-6" points="246.56 56.92 279.35 56.92 262.96 28.59 246.56 56.92"/><polygon class="cls-3" points="262.96 28.59 279.35 56.92 295.75 28.59 262.96 28.59"/><polygon class="cls-6" points="279.35 56.92 312.14 56.92 295.75 28.59 279.35 56.92"/><polygon class="cls-3" points="295.75 28.59 312.14 56.92 328.54 28.59 295.75 28.59"/><polygon class="cls-5" points="312.14 56.92 344.93 56.92 328.54 28.59 312.14 56.92"/><polygon class="cls-5" points="328.54 28.59 344.93 56.92 361.32 28.59 328.54 28.59"/><polygon class="cls-6" points="344.93 56.92 377.72 56.92 361.32 28.59 344.93 56.92"/><polygon class="cls-3" points="377.72 56.92 394.11 28.59 361.32 28.59 377.72 56.92"/><polygon class="cls-2" points="16.83 0.25 33.22 28.59 49.62 0.25 16.83 0.25"/><polygon class="cls-3" points="49.62 0.25 66.01 28.59 82.41 0.25 49.62 0.25"/><polygon class="cls-4" points="49.62 0.25 33.22 28.59 66.01 28.59 49.62 0.25"/><polygon class="cls-3" points="82.41 0.25 98.8 28.59 115.19 0.25 82.41 0.25"/><polygon class="cls-5" points="66.01 28.59 98.8 28.59 82.41 0.25 66.01 28.59"/><polygon class="cls-3" points="115.19 0.25 131.59 28.59 147.98 0.25 115.19 0.25"/><polygon class="cls-6" points="98.8 28.59 131.59 28.59 115.19 0.25 98.8 28.59"/><polygon class="cls-3" points="164.38 28.59 180.77 0.25 147.98 0.25 164.38 28.59"/><polygon class="cls-6" points="131.59 28.59 164.38 28.59 147.98 0.25 131.59 28.59"/><polygon class="cls-5" points="197.16 28.59 180.77 0.25 164.38 28.59 197.16 28.59"/><polygon class="cls-2" points="33.22 28.59 49.62 56.92 66.01 28.59 33.22 28.59"/><polygon class="cls-6" points="49.62 56.92 82.41 56.92 66.01 28.59 49.62 56.92"/><polygon class="cls-3" points="66.01 28.59 82.41 56.92 98.8 28.59 66.01 28.59"/><polygon class="cls-6" points="82.41 56.92 115.19 56.92 98.8 28.59 82.41 56.92"/><polygon class="cls-3" points="98.8 28.59 115.19 56.92 131.59 28.59 98.8 28.59"/><polygon class="cls-6" points="115.19 56.92 147.98 56.92 131.59 28.59 115.19 56.92"/><polygon class="cls-3" points="131.59 28.59 147.98 56.92 164.38 28.59 131.59 28.59"/><polygon class="cls-5" points="147.98 56.92 180.77 56.92 164.38 28.59 147.98 56.92"/><polygon class="cls-5" points="164.38 28.59 180.77 56.92 197.16 28.59 164.38 28.59"/><polygon class="cls-6" points="180.77 56.92 213.56 56.92 197.16 28.59 180.77 56.92"/><polygon class="cls-5" points="33.01 28.59 16.61 0.25 0.22 28.59 33.01 28.59"/><polygon class="cls-3" points="0.22 0.25 0.22 28.59 16.61 0.25 0.22 0.25"/><polygon class="cls-5" points="0.22 28.59 0.22 56.92 16.61 56.92 0.22 28.59"/><polygon class="cls-5" points="0.22 28.59 16.61 56.92 33.01 28.59 0.22 28.59"/><polygon class="cls-6" points="16.61 56.92 49.4 56.92 33.01 28.59 16.61 56.92"/></g><g class="cls-1"><polygon class="cls-2" points="574.88 0.25 591.28 28.59 607.67 0.25 574.88 0.25"/><polygon class="cls-3" points="607.67 0.25 624.07 28.59 640.46 0.25 607.67 0.25"/><polygon class="cls-4" points="607.67 0.25 591.28 28.59 624.07 28.59 607.67 0.25"/><polygon class="cls-3" points="640.46 0.25 656.86 28.59 673.25 0.25 640.46 0.25"/><polygon class="cls-5" points="624.07 28.59 656.86 28.59 640.46 0.25 624.07 28.59"/><polygon class="cls-3" points="673.25 0.25 689.64 28.59 706.04 0.25 673.25 0.25"/><polygon class="cls-6" points="656.86 28.59 689.64 28.59 673.25 0.25 656.86 28.59"/><polygon class="cls-3" points="706.04 0.25 722.43 28.59 738.83 0.25 706.04 0.25"/><polygon class="cls-6" points="689.64 28.59 722.43 28.59 706.04 0.25 689.64 28.59"/><polygon class="cls-3" points="755.22 28.59 771.62 0.25 738.83 0.25 755.22 28.59"/><polygon class="cls-5" points="722.43 28.59 755.22 28.59 738.83 0.25 722.43 28.59"/><polygon class="cls-6" points="755.22 28.59 788.01 28.59 771.62 0.25 755.22 28.59"/><polygon class="cls-2" points="591.28 28.59 607.67 56.92 624.07 28.59 591.28 28.59"/><polygon class="cls-6" points="607.67 56.92 640.46 56.92 624.07 28.59 607.67 56.92"/><polygon class="cls-3" points="624.07 28.59 640.46 56.92 656.86 28.59 624.07 28.59"/><polygon class="cls-6" points="640.46 56.92 673.25 56.92 656.86 28.59 640.46 56.92"/><polygon class="cls-3" points="656.86 28.59 673.25 56.92 689.64 28.59 656.86 28.59"/><polygon class="cls-6" points="673.25 56.92 706.04 56.92 689.64 28.59 673.25 56.92"/><polygon class="cls-3" points="689.64 28.59 706.04 56.92 722.43 28.59 689.64 28.59"/><polygon class="cls-5" points="706.04 56.92 738.83 56.92 722.43 28.59 706.04 56.92"/><polygon class="cls-5" points="722.43 28.59 738.83 56.92 755.22 28.59 722.43 28.59"/><polygon class="cls-6" points="738.83 56.92 771.62 56.92 755.22 28.59 738.83 56.92"/><polygon class="cls-3" points="771.62 56.92 788.01 28.59 755.22 28.59 771.62 56.92"/><polygon class="cls-2" points="410.73 0.25 427.12 28.59 443.51 0.25 410.73 0.25"/><polygon class="cls-3" points="443.51 0.25 459.91 28.59 476.3 0.25 443.51 0.25"/><polygon class="cls-4" points="443.51 0.25 427.12 28.59 459.91 28.59 443.51 0.25"/><polygon class="cls-3" points="476.3 0.25 492.7 28.59 509.09 0.25 476.3 0.25"/><polygon class="cls-5" points="459.91 28.59 492.7 28.59 476.3 0.25 459.91 28.59"/><polygon class="cls-3" points="509.09 0.25 525.49 28.59 541.88 0.25 509.09 0.25"/><polygon class="cls-6" points="492.7 28.59 525.49 28.59 509.09 0.25 492.7 28.59"/><polygon class="cls-3" points="558.27 28.59 574.67 0.25 541.88 0.25 558.27 28.59"/><polygon class="cls-6" points="525.49 28.59 558.27 28.59 541.88 0.25 525.49 28.59"/><polygon class="cls-5" points="591.06 28.59 574.67 0.25 558.27 28.59 591.06 28.59"/><polygon class="cls-2" points="427.12 28.59 443.51 56.92 459.91 28.59 427.12 28.59"/><polygon class="cls-6" points="443.51 56.92 476.3 56.92 459.91 28.59 443.51 56.92"/><polygon class="cls-3" points="459.91 28.59 476.3 56.92 492.7 28.59 459.91 28.59"/><polygon class="cls-6" points="476.3 56.92 509.09 56.92 492.7 28.59 476.3 56.92"/><polygon class="cls-3" points="492.7 28.59 509.09 56.92 525.49 28.59 492.7 28.59"/><polygon class="cls-6" points="509.09 56.92 541.88 56.92 525.49 28.59 509.09 56.92"/><polygon class="cls-3" points="525.49 28.59 541.88 56.92 558.27 28.59 525.49 28.59"/><polygon class="cls-5" points="541.88 56.92 574.67 56.92 558.27 28.59 541.88 56.92"/><polygon class="cls-5" points="558.27 28.59 574.67 56.92 591.06 28.59 558.27 28.59"/><polygon class="cls-6" points="574.67 56.92 607.46 56.92 591.06 28.59 574.67 56.92"/><polygon class="cls-3" points="394.11 28.59 410.51 0.25 377.72 0.25 394.11 28.59"/><polygon class="cls-5" points="426.9 28.59 410.51 0.25 394.11 28.59 426.9 28.59"/><polygon class="cls-5" points="377.72 56.92 410.51 56.92 394.11 28.59 377.72 56.92"/><polygon class="cls-5" points="394.11 28.59 410.51 56.92 426.9 28.59 394.11 28.59"/><polygon class="cls-6" points="410.51 56.92 443.3 56.92 426.9 28.59 410.51 56.92"/></g><g class="cls-1"><polygon class="cls-2" points="968.78 0.25 985.17 28.59 1001.57 0.25 968.78 0.25"/><polygon class="cls-3" points="1001.57 0.25 1017.96 28.59 1034.36 0.25 1001.57 0.25"/><polygon class="cls-4" points="1001.57 0.25 985.17 28.59 1017.96 28.59 1001.57 0.25"/><polygon class="cls-3" points="1034.36 0.25 1050.75 28.59 1067.15 0.25 1034.36 0.25"/><polygon class="cls-5" points="1017.96 28.59 1050.75 28.59 1034.36 0.25 1017.96 28.59"/><polygon class="cls-3" points="1067.15 0.25 1083.54 28.59 1099.93 0.25 1067.15 0.25"/><polygon class="cls-6" points="1050.75 28.59 1083.54 28.59 1067.15 0.25 1050.75 28.59"/><polygon class="cls-3" points="1099.93 0.25 1116.33 28.59 1132.72 0.25 1099.93 0.25"/><polygon class="cls-6" points="1083.54 28.59 1116.33 28.59 1099.93 0.25 1083.54 28.59"/><polygon class="cls-3" points="1149.12 28.59 1165.51 0.25 1132.72 0.25 1149.12 28.59"/><polygon class="cls-5" points="1116.33 28.59 1149.12 28.59 1132.72 0.25 1116.33 28.59"/><polygon class="cls-6" points="1149.12 28.59 1181.91 28.59 1165.51 0.25 1149.12 28.59"/><polygon class="cls-2" points="985.17 28.59 1001.57 56.92 1017.96 28.59 985.17 28.59"/><polygon class="cls-6" points="1001.57 56.92 1034.36 56.92 1017.96 28.59 1001.57 56.92"/><polygon class="cls-3" points="1017.96 28.59 1034.36 56.92 1050.75 28.59 1017.96 28.59"/><polygon class="cls-6" points="1034.36 56.92 1067.15 56.92 1050.75 28.59 1034.36 56.92"/><polygon class="cls-3" points="1050.75 28.59 1067.15 56.92 1083.54 28.59 1050.75 28.59"/><polygon class="cls-6" points="1067.15 56.92 1099.93 56.92 1083.54 28.59 1067.15 56.92"/><polygon class="cls-3" points="1083.54 28.59 1099.93 56.92 1116.33 28.59 1083.54 28.59"/><polygon class="cls-5" points="1099.93 56.92 1132.72 56.92 1116.33 28.59 1099.93 56.92"/><polygon class="cls-5" points="1116.33 28.59 1132.72 56.92 1149.12 28.59 1116.33 28.59"/><polygon class="cls-6" points="1132.72 56.92 1165.51 56.92 1149.12 28.59 1132.72 56.92"/><polygon class="cls-3" points="1165.51 56.92 1181.91 28.59 1149.12 28.59 1165.51 56.92"/><polygon class="cls-2" points="804.62 0.25 821.02 28.59 837.41 0.25 804.62 0.25"/><polygon class="cls-3" points="837.41 0.25 853.8 28.59 870.2 0.25 837.41 0.25"/><polygon class="cls-4" points="837.41 0.25 821.02 28.59 853.8 28.59 837.41 0.25"/><polygon class="cls-3" points="870.2 0.25 886.59 28.59 902.99 0.25 870.2 0.25"/><polygon class="cls-5" points="853.8 28.59 886.59 28.59 870.2 0.25 853.8 28.59"/><polygon class="cls-3" points="902.99 0.25 919.38 28.59 935.78 0.25 902.99 0.25"/><polygon class="cls-6" points="886.59 28.59 919.38 28.59 902.99 0.25 886.59 28.59"/><polygon class="cls-3" points="952.17 28.59 968.56 0.25 935.78 0.25 952.17 28.59"/><polygon class="cls-6" points="919.38 28.59 952.17 28.59 935.78 0.25 919.38 28.59"/><polygon class="cls-5" points="984.96 28.59 968.56 0.25 952.17 28.59 984.96 28.59"/><polygon class="cls-2" points="821.02 28.59 837.41 56.92 853.8 28.59 821.02 28.59"/><polygon class="cls-6" points="837.41 56.92 870.2 56.92 853.8 28.59 837.41 56.92"/><polygon class="cls-3" points="853.8 28.59 870.2 56.92 886.59 28.59 853.8 28.59"/><polygon class="cls-6" points="870.2 56.92 902.99 56.92 886.59 28.59 870.2 56.92"/><polygon class="cls-3" points="886.59 28.59 902.99 56.92 919.38 28.59 886.59 28.59"/><polygon class="cls-6" points="902.99 56.92 935.78 56.92 919.38 28.59 902.99 56.92"/><polygon class="cls-3" points="919.38 28.59 935.78 56.92 952.17 28.59 919.38 28.59"/><polygon class="cls-5" points="935.78 56.92 968.56 56.92 952.17 28.59 935.78 56.92"/><polygon class="cls-5" points="952.17 28.59 968.56 56.92 984.96 28.59 952.17 28.59"/><polygon class="cls-6" points="968.56 56.92 1001.35 56.92 984.96 28.59 968.56 56.92"/><polygon class="cls-3" points="788.01 28.59 804.4 0.25 771.62 0.25 788.01 28.59"/><polygon class="cls-5" points="820.8 28.59 804.4 0.25 788.01 28.59 820.8 28.59"/><polygon class="cls-5" points="771.62 56.92 804.4 56.92 788.01 28.59 771.62 56.92"/><polygon class="cls-5" points="788.01 28.59 804.4 56.92 820.8 28.59 788.01 28.59"/><polygon class="cls-6" points="804.4 56.92 837.19 56.92 820.8 28.59 804.4 56.92"/></g><g class="cls-1"><polygon class="cls-2" points="1362.68 0.25 1379.07 28.59 1395.47 0.25 1362.68 0.25"/><polygon class="cls-3" points="1395.47 0.25 1411.86 28.59 1428.26 0.25 1395.47 0.25"/><polygon class="cls-4" points="1395.47 0.25 1379.07 28.59 1411.86 28.59 1395.47 0.25"/><polygon class="cls-3" points="1428.26 0.25 1444.65 28.59 1461.04 0.25 1428.26 0.25"/><polygon class="cls-5" points="1411.86 28.59 1444.65 28.59 1428.26 0.25 1411.86 28.59"/><polygon class="cls-3" points="1461.04 0.25 1477.44 28.59 1493.83 0.25 1461.04 0.25"/><polygon class="cls-6" points="1444.65 28.59 1477.44 28.59 1461.04 0.25 1444.65 28.59"/><polygon class="cls-3" points="1493.83 0.25 1510.23 28.59 1526.62 0.25 1493.83 0.25"/><polygon class="cls-6" points="1477.44 28.59 1510.23 28.59 1493.83 0.25 1477.44 28.59"/><polygon class="cls-3" points="1543.01 28.59 1559.41 0.25 1526.62 0.25 1543.01 28.59"/><polygon class="cls-5" points="1510.23 28.59 1543.01 28.59 1526.62 0.25 1510.23 28.59"/><polygon class="cls-6" points="1543.01 28.59 1575.8 28.59 1559.41 0.25 1543.01 28.59"/><polygon class="cls-2" points="1379.07 28.59 1395.47 56.92 1411.86 28.59 1379.07 28.59"/><polygon class="cls-6" points="1395.47 56.92 1428.26 56.92 1411.86 28.59 1395.47 56.92"/><polygon class="cls-3" points="1411.86 28.59 1428.26 56.92 1444.65 28.59 1411.86 28.59"/><polygon class="cls-6" points="1428.26 56.92 1461.04 56.92 1444.65 28.59 1428.26 56.92"/><polygon class="cls-3" points="1444.65 28.59 1461.04 56.92 1477.44 28.59 1444.65 28.59"/><polygon class="cls-6" points="1461.04 56.92 1493.83 56.92 1477.44 28.59 1461.04 56.92"/><polygon class="cls-3" points="1477.44 28.59 1493.83 56.92 1510.23 28.59 1477.44 28.59"/><polygon class="cls-5" points="1493.83 56.92 1526.62 56.92 1510.23 28.59 1493.83 56.92"/><polygon class="cls-5" points="1510.23 28.59 1526.62 56.92 1543.01 28.59 1510.23 28.59"/><polygon class="cls-6" points="1526.62 56.92 1559.41 56.92 1543.01 28.59 1526.62 56.92"/><polygon class="cls-3" points="1559.41 56.92 1575.8 28.59 1543.01 28.59 1559.41 56.92"/><polygon class="cls-2" points="1198.52 0.25 1214.91 28.59 1231.31 0.25 1198.52 0.25"/><polygon class="cls-3" points="1231.31 0.25 1247.7 28.59 1264.1 0.25 1231.31 0.25"/><polygon class="cls-4" points="1231.31 0.25 1214.91 28.59 1247.7 28.59 1231.31 0.25"/><polygon class="cls-3" points="1264.1 0.25 1280.49 28.59 1296.88 0.25 1264.1 0.25"/><polygon class="cls-5" points="1247.7 28.59 1280.49 28.59 1264.1 0.25 1247.7 28.59"/><polygon class="cls-3" points="1296.88 0.25 1313.28 28.59 1329.67 0.25 1296.88 0.25"/><polygon class="cls-6" points="1280.49 28.59 1313.28 28.59 1296.88 0.25 1280.49 28.59"/><polygon class="cls-3" points="1346.07 28.59 1362.46 0.25 1329.67 0.25 1346.07 28.59"/><polygon class="cls-6" points="1313.28 28.59 1346.07 28.59 1329.67 0.25 1313.28 28.59"/><polygon class="cls-5" points="1378.86 28.59 1362.46 0.25 1346.07 28.59 1378.86 28.59"/><polygon class="cls-2" points="1214.91 28.59 1231.31 56.92 1247.7 28.59 1214.91 28.59"/><polygon class="cls-6" points="1231.31 56.92 1264.1 56.92 1247.7 28.59 1231.31 56.92"/><polygon class="cls-3" points="1247.7 28.59 1264.1 56.92 1280.49 28.59 1247.7 28.59"/><polygon class="cls-6" points="1264.1 56.92 1296.88 56.92 1280.49 28.59 1264.1 56.92"/><polygon class="cls-3" points="1280.49 28.59 1296.88 56.92 1313.28 28.59 1280.49 28.59"/><polygon class="cls-6" points="1296.88 56.92 1329.67 56.92 1313.28 28.59 1296.88 56.92"/><polygon class="cls-3" points="1313.28 28.59 1329.67 56.92 1346.07 28.59 1313.28 28.59"/><polygon class="cls-5" points="1329.67 56.92 1362.46 56.92 1346.07 28.59 1329.67 56.92"/><polygon class="cls-5" points="1346.07 28.59 1362.46 56.92 1378.86 28.59 1346.07 28.59"/><polygon class="cls-6" points="1362.46 56.92 1395.25 56.92 1378.86 28.59 1362.46 56.92"/><polygon class="cls-3" points="1181.91 28.59 1198.3 0.25 1165.51 0.25 1181.91 28.59"/><polygon class="cls-5" points="1214.69 28.59 1198.3 0.25 1181.91 28.59 1214.69 28.59"/><polygon class="cls-5" points="1165.51 56.92 1198.3 56.92 1181.91 28.59 1165.51 56.92"/><polygon class="cls-5" points="1181.91 28.59 1198.3 56.92 1214.69 28.59 1181.91 28.59"/><polygon class="cls-6" points="1198.3 56.92 1231.09 56.92 1214.69 28.59 1198.3 56.92"/></g><g class="cls-1"><polygon class="cls-2" points="1756.57 0.25 1772.97 28.59 1789.36 0.25 1756.57 0.25"/><polygon class="cls-3" points="1789.36 0.25 1805.76 28.59 1822.15 0.25 1789.36 0.25"/><polygon class="cls-4" points="1789.36 0.25 1772.97 28.59 1805.76 28.59 1789.36 0.25"/><polygon class="cls-3" points="1822.15 0.25 1838.55 28.59 1854.94 0.25 1822.15 0.25"/><polygon class="cls-5" points="1805.76 28.59 1838.55 28.59 1822.15 0.25 1805.76 28.59"/><polygon class="cls-3" points="1854.94 0.25 1871.33 28.59 1887.73 0.25 1854.94 0.25"/><polygon class="cls-6" points="1838.55 28.59 1871.33 28.59 1854.94 0.25 1838.55 28.59"/><polygon class="cls-3" points="1887.73 0.25 1904.12 28.59 1920.52 0.25 1887.73 0.25"/><polygon class="cls-6" points="1871.33 28.59 1904.12 28.59 1887.73 0.25 1871.33 28.59"/><polygon class="cls-3" points="1936.91 28.59 1953.31 0.25 1920.52 0.25 1936.91 28.59"/><polygon class="cls-5" points="1904.12 28.59 1936.91 28.59 1920.52 0.25 1904.12 28.59"/><polygon class="cls-6" points="1936.91 28.59 1969.7 28.59 1953.31 0.25 1936.91 28.59"/><polygon class="cls-2" points="1772.97 28.59 1789.36 56.92 1805.76 28.59 1772.97 28.59"/><polygon class="cls-6" points="1789.36 56.92 1822.15 56.92 1805.76 28.59 1789.36 56.92"/><polygon class="cls-3" points="1805.76 28.59 1822.15 56.92 1838.55 28.59 1805.76 28.59"/><polygon class="cls-6" points="1822.15 56.92 1854.94 56.92 1838.55 28.59 1822.15 56.92"/><polygon class="cls-3" points="1838.55 28.59 1854.94 56.92 1871.33 28.59 1838.55 28.59"/><polygon class="cls-6" points="1854.94 56.92 1887.73 56.92 1871.33 28.59 1854.94 56.92"/><polygon class="cls-3" points="1871.33 28.59 1887.73 56.92 1904.12 28.59 1871.33 28.59"/><polygon class="cls-5" points="1887.73 56.92 1920.52 56.92 1904.12 28.59 1887.73 56.92"/><polygon class="cls-5" points="1904.12 28.59 1920.52 56.92 1936.91 28.59 1904.12 28.59"/><polygon class="cls-6" points="1920.52 56.92 1953.31 56.92 1936.91 28.59 1920.52 56.92"/><polygon class="cls-3" points="1953.31 56.92 1969.7 28.59 1936.91 28.59 1953.31 56.92"/><polygon class="cls-2" points="1592.41 0.25 1608.81 28.59 1625.2 0.25 1592.41 0.25"/><polygon class="cls-3" points="1625.2 0.25 1641.6 28.59 1657.99 0.25 1625.2 0.25"/><polygon class="cls-4" points="1625.2 0.25 1608.81 28.59 1641.6 28.59 1625.2 0.25"/><polygon class="cls-3" points="1657.99 0.25 1674.39 28.59 1690.78 0.25 1657.99 0.25"/><polygon class="cls-5" points="1641.6 28.59 1674.39 28.59 1657.99 0.25 1641.6 28.59"/><polygon class="cls-3" points="1690.78 0.25 1707.17 28.59 1723.57 0.25 1690.78 0.25"/><polygon class="cls-6" points="1674.39 28.59 1707.17 28.59 1690.78 0.25 1674.39 28.59"/><polygon class="cls-3" points="1739.96 28.59 1756.36 0.25 1723.57 0.25 1739.96 28.59"/><polygon class="cls-6" points="1707.17 28.59 1739.96 28.59 1723.57 0.25 1707.17 28.59"/><polygon class="cls-5" points="1772.75 28.59 1756.36 0.25 1739.96 28.59 1772.75 28.59"/><polygon class="cls-2" points="1608.81 28.59 1625.2 56.92 1641.6 28.59 1608.81 28.59"/><polygon class="cls-6" points="1625.2 56.92 1657.99 56.92 1641.6 28.59 1625.2 56.92"/><polygon class="cls-3" points="1641.6 28.59 1657.99 56.92 1674.39 28.59 1641.6 28.59"/><polygon class="cls-6" points="1657.99 56.92 1690.78 56.92 1674.39 28.59 1657.99 56.92"/><polygon class="cls-3" points="1674.39 28.59 1690.78 56.92 1707.17 28.59 1674.39 28.59"/><polygon class="cls-6" points="1690.78 56.92 1723.57 56.92 1707.17 28.59 1690.78 56.92"/><polygon class="cls-3" points="1707.17 28.59 1723.57 56.92 1739.96 28.59 1707.17 28.59"/><polygon class="cls-5" points="1723.57 56.92 1756.36 56.92 1739.96 28.59 1723.57 56.92"/><polygon class="cls-5" points="1739.96 28.59 1756.36 56.92 1772.75 28.59 1739.96 28.59"/><polygon class="cls-6" points="1756.36 56.92 1789.15 56.92 1772.75 28.59 1756.36 56.92"/><polygon class="cls-3" points="1575.8 28.59 1592.2 0.25 1559.41 0.25 1575.8 28.59"/><polygon class="cls-5" points="1608.59 28.59 1592.2 0.25 1575.8 28.59 1608.59 28.59"/><polygon class="cls-5" points="1559.41 56.92 1592.2 56.92 1575.8 28.59 1559.41 56.92"/><polygon class="cls-5" points="1575.8 28.59 1592.2 56.92 1608.59 28.59 1575.8 28.59"/><polygon class="cls-6" points="1592.2 56.92 1624.99 56.92 1608.59 28.59 1592.2 56.92"/></g><g class="cls-1"><polygon class="cls-2" points="2150.47 0.25 2166.86 28.59 2183.26 0.25 2150.47 0.25"/><polygon class="cls-3" points="2183.26 0.25 2199.65 28.59 2216.05 0.25 2183.26 0.25"/><polygon class="cls-4" points="2183.26 0.25 2166.86 28.59 2199.65 28.59 2183.26 0.25"/><polygon class="cls-3" points="2216.05 0.25 2232.44 28.59 2248.84 0.25 2216.05 0.25"/><polygon class="cls-5" points="2199.65 28.59 2232.44 28.59 2216.05 0.25 2199.65 28.59"/><polygon class="cls-3" points="2248.84 0.25 2265.23 28.59 2281.63 0.25 2248.84 0.25"/><polygon class="cls-6" points="2232.44 28.59 2265.23 28.59 2248.84 0.25 2232.44 28.59"/><polygon class="cls-3" points="2281.63 0.25 2298.02 28.59 2314.41 0.25 2281.63 0.25"/><polygon class="cls-6" points="2265.23 28.59 2298.02 28.59 2281.63 0.25 2265.23 28.59"/><polygon class="cls-3" points="2330.81 28.59 2347.2 0.25 2314.41 0.25 2330.81 28.59"/><polygon class="cls-5" points="2298.02 28.59 2330.81 28.59 2314.41 0.25 2298.02 28.59"/><polygon class="cls-6" points="2330.81 28.59 2363.6 28.59 2347.2 0.25 2330.81 28.59"/><polygon class="cls-2" points="2166.86 28.59 2183.26 56.92 2199.65 28.59 2166.86 28.59"/><polygon class="cls-6" points="2183.26 56.92 2216.05 56.92 2199.65 28.59 2183.26 56.92"/><polygon class="cls-3" points="2199.65 28.59 2216.05 56.92 2232.44 28.59 2199.65 28.59"/><polygon class="cls-6" points="2216.05 56.92 2248.84 56.92 2232.44 28.59 2216.05 56.92"/><polygon class="cls-3" points="2232.44 28.59 2248.84 56.92 2265.23 28.59 2232.44 28.59"/><polygon class="cls-6" points="2248.84 56.92 2281.63 56.92 2265.23 28.59 2248.84 56.92"/><polygon class="cls-3" points="2265.23 28.59 2281.63 56.92 2298.02 28.59 2265.23 28.59"/><polygon class="cls-5" points="2281.63 56.92 2314.41 56.92 2298.02 28.59 2281.63 56.92"/><polygon class="cls-5" points="2298.02 28.59 2314.41 56.92 2330.81 28.59 2298.02 28.59"/><polygon class="cls-6" points="2314.41 56.92 2347.2 56.92 2330.81 28.59 2314.41 56.92"/><polygon class="cls-3" points="2347.2 56.92 2363.6 28.59 2330.81 28.59 2347.2 56.92"/><polygon class="cls-2" points="1986.31 0.25 2002.71 28.59 2019.1 0.25 1986.31 0.25"/><polygon class="cls-3" points="2019.1 0.25 2035.49 28.59 2051.89 0.25 2019.1 0.25"/><polygon class="cls-4" points="2019.1 0.25 2002.71 28.59 2035.49 28.59 2019.1 0.25"/><polygon class="cls-3" points="2051.89 0.25 2068.28 28.59 2084.68 0.25 2051.89 0.25"/><polygon class="cls-5" points="2035.49 28.59 2068.28 28.59 2051.89 0.25 2035.49 28.59"/><polygon class="cls-3" points="2084.68 0.25 2101.07 28.59 2117.47 0.25 2084.68 0.25"/><polygon class="cls-6" points="2068.28 28.59 2101.07 28.59 2084.68 0.25 2068.28 28.59"/><polygon class="cls-3" points="2133.86 28.59 2150.25 0.25 2117.47 0.25 2133.86 28.59"/><polygon class="cls-6" points="2101.07 28.59 2133.86 28.59 2117.47 0.25 2101.07 28.59"/><polygon class="cls-5" points="2166.65 28.59 2150.25 0.25 2133.86 28.59 2166.65 28.59"/><polygon class="cls-2" points="2002.71 28.59 2019.1 56.92 2035.49 28.59 2002.71 28.59"/><polygon class="cls-6" points="2019.1 56.92 2051.89 56.92 2035.49 28.59 2019.1 56.92"/><polygon class="cls-3" points="2035.49 28.59 2051.89 56.92 2068.28 28.59 2035.49 28.59"/><polygon class="cls-6" points="2051.89 56.92 2084.68 56.92 2068.28 28.59 2051.89 56.92"/><polygon class="cls-3" points="2068.28 28.59 2084.68 56.92 2101.07 28.59 2068.28 28.59"/><polygon class="cls-6" points="2084.68 56.92 2117.47 56.92 2101.07 28.59 2084.68 56.92"/><polygon class="cls-3" points="2101.07 28.59 2117.47 56.92 2133.86 28.59 2101.07 28.59"/><polygon class="cls-5" points="2117.47 56.92 2150.25 56.92 2133.86 28.59 2117.47 56.92"/><polygon class="cls-5" points="2133.86 28.59 2150.25 56.92 2166.65 28.59 2133.86 28.59"/><polygon class="cls-6" points="2150.25 56.92 2183.04 56.92 2166.65 28.59 2150.25 56.92"/><polygon class="cls-3" points="1969.7 28.59 1986.09 0.25 1953.31 0.25 1969.7 28.59"/><polygon class="cls-5" points="2002.49 28.59 1986.09 0.25 1969.7 28.59 2002.49 28.59"/><polygon class="cls-5" points="1953.31 56.92 1986.09 56.92 1969.7 28.59 1953.31 56.92"/><polygon class="cls-5" points="1969.7 28.59 1986.09 56.92 2002.49 28.59 1969.7 28.59"/><polygon class="cls-6" points="1986.09 56.92 2018.88 56.92 2002.49 28.59 1986.09 56.92"/></g><g class="cls-1"><polygon class="cls-2" points="2380.21 0.25 2396.6 28.59 2413 0.25 2380.21 0.25"/><polygon class="cls-3" points="2413 0.25 2429.39 28.59 2445.78 0.25 2413 0.25"/><polygon class="cls-4" points="2413 0.25 2396.6 28.59 2429.39 28.59 2413 0.25"/><polygon class="cls-3" points="2445.78 0.25 2462.18 28.59 2478.57 0.25 2445.78 0.25"/><polygon class="cls-5" points="2429.39 28.59 2462.18 28.59 2445.78 0.25 2429.39 28.59"/><polygon class="cls-3" points="2478.57 0.25 2494.97 28.59 2511.36 0.25 2478.57 0.25"/><polygon class="cls-6" points="2462.18 28.59 2494.97 28.59 2478.57 0.25 2462.18 28.59"/><polygon class="cls-3" points="2527.76 28.59 2544.15 0.25 2511.36 0.25 2527.76 28.59"/><polygon class="cls-6" points="2494.97 28.59 2527.76 28.59 2511.36 0.25 2494.97 28.59"/><polygon class="cls-5" points="2560.55 28.59 2544.15 0.25 2527.76 28.59 2560.55 28.59"/><polygon class="cls-2" points="2396.6 28.59 2413 56.92 2429.39 28.59 2396.6 28.59"/><polygon class="cls-6" points="2413 56.92 2445.78 56.92 2429.39 28.59 2413 56.92"/><polygon class="cls-3" points="2429.39 28.59 2445.78 56.92 2462.18 28.59 2429.39 28.59"/><polygon class="cls-6" points="2445.78 56.92 2478.57 56.92 2462.18 28.59 2445.78 56.92"/><polygon class="cls-3" points="2462.18 28.59 2478.57 56.92 2494.97 28.59 2462.18 28.59"/><polygon class="cls-6" points="2478.57 56.92 2511.36 56.92 2494.97 28.59 2478.57 56.92"/><polygon class="cls-3" points="2494.97 28.59 2511.36 56.92 2527.76 28.59 2494.97 28.59"/><polygon class="cls-5" points="2511.36 56.92 2544.15 56.92 2527.76 28.59 2511.36 56.92"/><polygon class="cls-5" points="2527.76 28.59 2544.15 56.92 2560.55 28.59 2527.76 28.59"/><polygon class="cls-3" points="2363.6 28.59 2379.99 0.25 2347.2 0.25 2363.6 28.59"/><polygon class="cls-5" points="2396.38 28.59 2379.99 0.25 2363.6 28.59 2396.38 28.59"/><polygon class="cls-5" points="2347.2 56.92 2379.99 56.92 2363.6 28.59 2347.2 56.92"/><polygon class="cls-5" points="2363.6 28.59 2379.99 56.92 2396.38 28.59 2363.6 28.59"/><polygon class="cls-6" points="2379.99 56.92 2412.78 56.92 2396.38 28.59 2379.99 56.92"/><polygon class="cls-2" points="2544.37 0.25 2560.3 27.78 2560.3 0.25 2544.37 0.25"/><polygon class="cls-6" points="2544.15 56.92 2560.3 56.92 2560.3 29.01 2544.15 56.92"/></g></g></g></svg>