<?xml version="1.0" encoding="UTF-8" standalone="no"?>
<!-- Generator: Adobe Illustrator 22.0.1, SVG Export Plug-In . SVG Version: 6.00 Build 0)  -->

<svg
   xmlns:dc="http://purl.org/dc/elements/1.1/"
   xmlns:cc="http://creativecommons.org/ns#"
   xmlns:rdf="http://www.w3.org/1999/02/22-rdf-syntax-ns#"
   xmlns:svg="http://www.w3.org/2000/svg"
   xmlns="http://www.w3.org/2000/svg"
   xmlns:sodipodi="http://sodipodi.sourceforge.net/DTD/sodipodi-0.dtd"
   xmlns:inkscape="http://www.inkscape.org/namespaces/inkscape"
   version="1.1"
   id="Layer_1"
   x="0px"
   y="0px"
   viewBox="0 0 188.60001 411.008"
   xml:space="preserve"
   sodipodi:docname="ico.svg"
   width="188.60001"
   height="411.008"
   inkscape:version="0.92.3 (2405546, 2018-03-11)"><metadata
   id="metadata2233"><rdf:RDF><cc:Work
       rdf:about=""><dc:format>image/svg+xml</dc:format><dc:type
         rdf:resource="http://purl.org/dc/dcmitype/StillImage" /><dc:title></dc:title></cc:Work></rdf:RDF></metadata><defs
   id="defs2231" /><sodipodi:namedview
   pagecolor="#ffffff"
   bordercolor="#666666"
   borderopacity="1"
   objecttolerance="10"
   gridtolerance="10"
   guidetolerance="10"
   inkscape:pageopacity="0"
   inkscape:pageshadow="2"
   inkscape:window-width="1920"
   inkscape:window-height="1027"
   id="namedview2229"
   showgrid="false"
   inkscape:zoom="1.0909091"
   inkscape:cx="170.5"
   inkscape:cy="217.58333"
   inkscape:window-x="-8"
   inkscape:window-y="-8"
   inkscape:window-maximized="1"
   inkscape:current-layer="Layer_1" />
<style
   type="text/css"
   id="style1542">
	.st0{opacity:0.4;}
	.st1{opacity:0.4;fill:#FFFFFF;}
	.st2{fill:#FFFFFF;}
	.st3{opacity:0.5;fill:#FFFFFF;}
</style>
<g
   class="st0"
   id="g2226"
   style="opacity:0.4"
   transform="translate(-566.7,-46.491834)">
	<path
   class="st1"
   d="m 687.9,196 c 0.5,-0.4 1.1,-0.8 1.7,-1.2 0.4,-0.3 0.9,-0.6 1.3,-0.9 0,0 0,0 0,0 0.7,-0.3 1.4,-0.5 2.1,-0.8 0.2,-0.1 0.5,-0.1 0.7,-0.2 0.5,-0.2 1,-0.3 1.5,-0.4 0.2,-0.1 0.5,-0.1 0.7,-0.2 0.6,-0.2 1.3,-0.3 1.9,-0.4 0.1,0 0.2,0 0.2,-0.1 0.7,-0.1 1.4,-0.3 2.2,-0.4 0.2,0 0.5,-0.1 0.7,-0.1 0.5,-0.1 1,-0.1 1.6,-0.2 0.3,0 0.5,0 0.8,-0.1 0.6,0 1.3,-0.1 1.9,-0.1 0.1,0 0.2,0 0.3,0 0.7,0 1.4,0 2.2,0 0.3,0 0.5,0 0.8,0 0.5,0 1,0.1 1.5,0.1 0.3,0 0.5,0 0.8,0.1 0.6,0.1 1.2,0.1 1.8,0.2 0.1,0 0.3,0 0.4,0.1 0.7,0.1 1.4,0.3 2.1,0.4 0.3,0.1 0.5,0.1 0.8,0.2 0.5,0.1 1,0.2 1.5,0.4 0.3,0.1 0.5,0.1 0.8,0.2 0.6,0.2 1.2,0.4 1.7,0.6 0.1,0 0.3,0.1 0.4,0.1 0,0 0,0 0,0 -0.5,2.6 -0.8,5.2 -0.8,7.9 v 30.4 l -27,15.6 c -0.7,0.4 -1.4,0.8 -2.1,1.3 -0.2,0.1 -0.4,0.3 -0.7,0.5 -0.4,0.3 -0.9,0.6 -1.3,0.9 -0.3,0.2 -0.5,0.4 -0.8,0.6 -0.4,0.3 -0.7,0.6 -1.1,0.9 -0.3,0.2 -0.5,0.5 -0.8,0.7 -0.1,0.1 -0.2,0.1 -0.2,0.2 -1,-0.9 -1.9,-1.8 -2.8,-2.8 -5.4,-5.9 -9,-13.4 -10.3,-21.4 0.1,-12.5 5.8,-24.3 15.5,-32.1 z"
   id="path1544"
   inkscape:connector-curvature="0"
   style="opacity:0.4;fill:#ffffff" />
	<polygon
   class="st2"
   points="628,327.1 619.6,322.2 "
   id="polygon1546"
   style="fill:#ffffff" />
	<polygon
   class="st2"
   points="755.2,106.3 754.1,105.7 755.2,105.1 "
   id="polygon1548"
   style="fill:#ffffff" />
	<path
   class="st2"
   d="m 754.1,105.7 v 0 l -42.5,24.5 c -37.6,21.7 -83.8,21.7 -121.4,0 l -0.6,-0.4 126.7,-73.2 c 12,-6.9 25.4,-10.3 38.8,-10.1 V 105 Z"
   id="path1550"
   inkscape:connector-curvature="0"
   style="fill:#ffffff" />
	<polygon
   class="st2"
   points="755.2,105.1 754.1,105.7 "
   id="polygon1552"
   style="fill:#ffffff" />
	<polygon
   class="st2"
   points="755.2,105.1 754.1,105.7 "
   id="polygon1554"
   style="fill:#ffffff" />
	<path
   class="st3"
   d="M 567.3,176.2 C 604.9,197.9 628,238 628,281.3 V 327 l -8.5,-4.9 c -32.7,-18.9 -52.8,-53.8 -52.8,-91.5 v -54.8 z"
   id="path1556"
   inkscape:connector-curvature="0"
   style="opacity:0.5;fill:#ffffff" />
	<path
   class="st2"
   d="m 619.6,322.2 v 0 0 l 8.5,4.9 v 0.1 l 42.4,24.5 c 37.6,21.7 60.7,61.8 60.7,105.1 v 0.7 L 604.5,384.3 c -23.4,-13.5 -37.8,-38.4 -37.8,-65.4 v -26.2 -62.1 c 0,37.8 20.2,72.7 52.9,91.6 z"
   id="path1558"
   inkscape:connector-curvature="0"
   style="fill:#ffffff" />
	<path
   class="st2"
   d="m 753.7,163.8 c -4.7,0 -9.3,0.7 -13.8,2.2 2.1,-0.8 4.3,-1.4 6.4,-1.8 2.9,-0.6 5.9,-0.8 8.9,-0.8 v 0.4 c -0.5,0.1 -1,0 -1.5,0 z"
   id="path1560"
   inkscape:connector-curvature="0"
   style="fill:#ffffff" />
	<path
   class="st2"
   d="m 739.8,166 c -0.1,0 -0.2,0.1 -0.3,0.1 0.2,0 0.2,0 0.3,-0.1 z"
   id="path1562"
   inkscape:connector-curvature="0"
   style="fill:#ffffff" />
	<path
   class="st2"
   d="m 687.9,196 v 0 c -0.1,0.1 -0.2,0.2 -0.3,0.2 -0.6,0.5 -1.2,0.9 -1.7,1.4 -0.2,0.2 -0.5,0.4 -0.7,0.6 -0.4,0.4 -0.8,0.7 -1.2,1.1 -0.3,0.2 -0.5,0.5 -0.7,0.8 -0.4,0.4 -0.7,0.7 -1,1.1 -0.2,0.3 -0.5,0.5 -0.7,0.8 -0.3,0.4 -0.6,0.8 -1,1.2 -0.2,0.3 -0.4,0.6 -0.7,0.9 -0.1,0.1 -0.2,0.3 -0.3,0.4 2.8,-3.9 6.3,-7.4 10.3,-10.2 0.1,-0.1 0.3,-0.1 0.4,-0.2 -0.8,0.7 -1.7,1.3 -2.4,1.9 z"
   id="path1564"
   inkscape:connector-curvature="0"
   style="fill:#ffffff" />
	<path
   class="st2"
   d="m 746,163.9 c 3,-0.7 6.1,-1 9.1,-0.9 v 0.2 c -3,-0.1 -6.1,0.1 -9.1,0.7 z"
   id="path1566"
   inkscape:connector-curvature="0"
   style="fill:#ffffff" />
	<path
   class="st2"
   d="m 677.5,207.7 c -0.2,0.3 -0.3,0.5 -0.5,0.8 0.2,-0.3 0.3,-0.6 0.5,-0.8 z"
   id="path1568"
   inkscape:connector-curvature="0"
   style="fill:#ffffff" />
	<path
   class="st2"
   d="m 675.8,210.7 c 0,0.1 -0.1,0.1 -0.1,0.2 0.1,-0.1 0.1,-0.2 0.1,-0.2 z"
   id="path1570"
   inkscape:connector-curvature="0"
   style="fill:#ffffff" />
	<path
   class="st2"
   d="m 672.5,220.4 c -0.1,0.3 -0.1,0.7 -0.2,1 0,-0.3 0.1,-0.7 0.2,-1 z"
   id="path1572"
   inkscape:connector-curvature="0"
   style="fill:#ffffff" />
	<path
   class="st2"
   d="m 674.8,213 c -0.1,0.3 -0.2,0.5 -0.3,0.8 0.1,-0.3 0.2,-0.5 0.3,-0.8 z"
   id="path1574"
   inkscape:connector-curvature="0"
   style="fill:#ffffff" />
	<path
   class="st2"
   d="m 679,205.4 c -0.2,0.3 -0.4,0.6 -0.6,0.8 0.2,-0.3 0.4,-0.5 0.6,-0.8 z"
   id="path1576"
   inkscape:connector-curvature="0"
   style="fill:#ffffff" />
	<path
   class="st2"
   d="m 673.9,215.4 c -0.1,0.3 -0.2,0.6 -0.3,1 0.1,-0.4 0.2,-0.7 0.3,-1 z"
   id="path1578"
   inkscape:connector-curvature="0"
   style="fill:#ffffff" />
	<path
   class="st2"
   d="m 672,223 c 0,0.3 -0.1,0.7 -0.1,1 0,-0.3 0,-0.7 0.1,-1 z"
   id="path1580"
   inkscape:connector-curvature="0"
   style="fill:#ffffff" />
	<path
   class="st2"
   d="m 673.1,217.8 c -0.1,0.3 -0.2,0.7 -0.3,1 0.1,-0.3 0.2,-0.6 0.3,-1 z"
   id="path1582"
   inkscape:connector-curvature="0"
   style="fill:#ffffff" />
	<path
   class="st2"
   d="m 671.7,279.6 v 0 c 0,0.1 0,0.2 0,0.3 -0.1,-1.2 -0.2,-2.5 -0.2,-3.7 v 0 c 0,1.2 0.1,2.5 0.2,3.7 0,-0.1 0,-0.2 0,-0.3 z"
   id="path1584"
   inkscape:connector-curvature="0"
   style="fill:#ffffff" />
	<path
   class="st2"
   d="m 684,199.4 c -0.3,0.2 -0.5,0.5 -0.7,0.8 0.2,-0.3 0.4,-0.5 0.7,-0.8 z"
   id="path1586"
   inkscape:connector-curvature="0"
   style="fill:#ffffff" />
	<path
   class="st2"
   d="m 684,199.4 c -0.3,0.2 -0.5,0.5 -0.7,0.8 0.2,-0.3 0.4,-0.5 0.7,-0.8 z"
   id="path1588"
   inkscape:connector-curvature="0"
   style="fill:#ffffff" />
	<path
   class="st2"
   d="m 682.2,201.3 c -0.2,0.3 -0.5,0.5 -0.7,0.8 0.2,-0.3 0.4,-0.5 0.7,-0.8 z"
   id="path1590"
   inkscape:connector-curvature="0"
   style="fill:#ffffff" />
	<path
   class="st2"
   d="m 682.2,201.3 c -0.2,0.3 -0.5,0.5 -0.7,0.8 0.2,-0.3 0.4,-0.5 0.7,-0.8 z"
   id="path1592"
   inkscape:connector-curvature="0"
   style="fill:#ffffff" />
	<path
   class="st2"
   d="m 687.9,196 c -0.1,0.1 -0.2,0.2 -0.3,0.2 0.1,0 0.2,-0.1 0.3,-0.2 z"
   id="path1594"
   inkscape:connector-curvature="0"
   style="fill:#ffffff" />
	<path
   class="st2"
   d="m 687.9,196 c -0.1,0.1 -0.2,0.2 -0.3,0.2 0.1,0 0.2,-0.1 0.3,-0.2 z"
   id="path1596"
   inkscape:connector-curvature="0"
   style="fill:#ffffff" />
	<polygon
   class="st2"
   points="755.2,212.9 742,205.2 "
   id="polygon1598"
   style="fill:#ffffff" />
	<polygon
   class="st2"
   points="755.2,212.9 742,205.2 "
   id="polygon1600"
   style="fill:#ffffff" />
	<path
   class="st2"
   d="m 685.9,197.7 c -0.2,0.2 -0.5,0.4 -0.7,0.6 0.2,-0.2 0.4,-0.4 0.7,-0.6 z"
   id="path1602"
   inkscape:connector-curvature="0"
   style="fill:#ffffff" />
	<path
   class="st2"
   d="m 685.9,197.7 c -0.2,0.2 -0.5,0.4 -0.7,0.6 0.2,-0.2 0.4,-0.4 0.7,-0.6 z"
   id="path1604"
   inkscape:connector-curvature="0"
   style="fill:#ffffff" />
	<path
   class="st2"
   d="m 680.5,203.3 c -0.2,0.3 -0.4,0.6 -0.7,0.9 0.3,-0.4 0.5,-0.6 0.7,-0.9 z"
   id="path1606"
   inkscape:connector-curvature="0"
   style="fill:#ffffff" />
	<path
   class="st2"
   d="m 680.5,203.3 c -0.2,0.3 -0.4,0.6 -0.7,0.9 0.3,-0.4 0.5,-0.6 0.7,-0.9 z"
   id="path1608"
   inkscape:connector-curvature="0"
   style="fill:#ffffff" />
	<path
   class="st2"
   d="m 722.9,194.6 c -0.2,-0.1 -0.5,-0.2 -0.7,-0.3 0.3,0.1 0.5,0.2 0.7,0.3 z"
   id="path1610"
   inkscape:connector-curvature="0"
   style="fill:#ffffff" />
	<path
   class="st2"
   d="m 722.9,194.6 c -0.2,-0.1 -0.5,-0.2 -0.7,-0.3 0.3,0.1 0.5,0.2 0.7,0.3 z"
   id="path1612"
   inkscape:connector-curvature="0"
   style="fill:#ffffff" />
	<path
   class="st2"
   d="m 725.1,195.6 c -0.2,-0.1 -0.4,-0.2 -0.6,-0.3 0.1,0 0.4,0.2 0.6,0.3 z"
   id="path1614"
   inkscape:connector-curvature="0"
   style="fill:#ffffff" />
	<path
   class="st2"
   d="m 725.1,195.6 c -0.2,-0.1 -0.4,-0.2 -0.6,-0.3 0.1,0 0.4,0.2 0.6,0.3 z"
   id="path1616"
   inkscape:connector-curvature="0"
   style="fill:#ffffff" />
	<path
   class="st2"
   d="m 753.7,163.8 c 0.5,0 1,0 1.5,0 v 0 c -0.5,0.1 -1,0.1 -1.5,0 z"
   id="path1618"
   inkscape:connector-curvature="0"
   style="fill:#ffffff" />
	<path
   class="st2"
   d="m 753.7,163.8 c 0.5,0 1,0 1.5,0 v 0 c -0.5,0.1 -1,0.1 -1.5,0 z"
   id="path1620"
   inkscape:connector-curvature="0"
   style="fill:#ffffff" />
	<path
   class="st2"
   d="m 737.3,167 c -0.2,0.1 -0.4,0.2 -0.6,0.3 -0.3,0.1 -0.6,0.3 -0.9,0.4 -0.1,0 -0.2,0.1 -0.3,0.1 -0.7,0.4 -1.5,0.7 -2.2,1.2 l -40.7,23.5 c -1,0.6 -1.9,1.2 -2.8,1.8 -0.5,0.2 -0.9,0.4 -1.4,0.6 1,-0.7 2,-1.4 3.1,-2 l 40.7,-23.5 c 2.3,-1.3 4.8,-2.4 7.3,-3.3 -0.7,0.3 -1.5,0.7 -2.2,0.9 -0.1,0.1 0,0.1 0,0 z"
   id="path1622"
   inkscape:connector-curvature="0"
   style="fill:#ffffff" />
	<path
   class="st2"
   d="m 739.9,166 c 0,0 -0.1,0 0,0 -0.1,0 0,0 0,0 z"
   id="path1624"
   inkscape:connector-curvature="0"
   style="fill:#ffffff" />
	<path
   class="st2"
   d="m 733.4,169 c 0.7,-0.4 1.4,-0.8 2.2,-1.2 -0.5,0.3 -1.1,0.6 -1.6,0.9 l -40.7,23.5 c -1,0.6 -2,1.3 -3,1.9 v 0 c -0.1,0.1 -0.3,0.1 -0.4,0.2 0.9,-0.6 1.9,-1.2 2.8,-1.8 z"
   id="path1626"
   inkscape:connector-curvature="0"
   style="fill:#ffffff" />
	<path
   class="st2"
   d="m 733.4,169 c 0.7,-0.4 1.4,-0.8 2.2,-1.2 -0.5,0.3 -1.1,0.6 -1.6,0.9 l -40.7,23.5 c -1,0.6 -2,1.3 -3,1.9 v 0 c -0.1,0.1 -0.3,0.1 -0.4,0.2 0.9,-0.6 1.9,-1.2 2.8,-1.8 z"
   id="path1628"
   inkscape:connector-curvature="0"
   style="fill:#ffffff" />
	<path
   class="st2"
   d="m 753.7,163.8 c -6,0.1 -11.9,1.4 -17.4,4 v 0 c 0.3,-0.2 0.7,-0.5 1,-0.7 0.8,-0.3 1.5,-0.7 2.3,-1 0.1,0 0.2,-0.1 0.3,-0.1 0,0 0,0 0,0 4.4,-1.5 9.1,-2.2 13.8,-2.2 z"
   id="path1630"
   inkscape:connector-curvature="0"
   style="fill:#ffffff" />
	<path
   class="st2"
   d="m 753.7,163.8 c -6,0.1 -11.9,1.4 -17.4,4 v 0 c 0.3,-0.2 0.7,-0.5 1,-0.7 0.8,-0.3 1.5,-0.7 2.3,-1 0.1,0 0.2,-0.1 0.3,-0.1 0,0 0,0 0,0 4.4,-1.5 9.1,-2.2 13.8,-2.2 z"
   id="path1632"
   inkscape:connector-curvature="0"
   style="fill:#ffffff" />
	<path
   class="st2"
   d="m 736.7,167.3 c -0.3,0.1 -0.6,0.3 -0.9,0.4 0.3,-0.1 0.6,-0.2 0.9,-0.4 z"
   id="path1634"
   inkscape:connector-curvature="0"
   style="fill:#ffffff" />
	<path
   class="st2"
   d="m 736.7,167.3 c -0.3,0.1 -0.6,0.3 -0.9,0.4 0.3,-0.1 0.6,-0.2 0.9,-0.4 z"
   id="path1636"
   inkscape:connector-curvature="0"
   style="fill:#ffffff" />
	<path
   class="st2"
   d="m 755.2,212.9 -13.2,-7.6 -14.9,-8.6 c -0.7,-0.4 -1.3,-0.7 -2,-1.1 -0.2,-0.1 -0.4,-0.2 -0.6,-0.3 -0.5,-0.2 -1,-0.5 -1.5,-0.7 -0.2,-0.1 -0.5,-0.2 -0.7,-0.3 -0.7,-0.3 -1.4,-0.6 -2,-0.8 2,-10.2 7.6,-19.4 16,-25.6 5.5,-2.6 11.5,-3.9 17.4,-4 0.5,0 1,0 1.5,0 z"
   id="path1638"
   inkscape:connector-curvature="0"
   style="fill:#ffffff" />
	<path
   class="st2"
   d="m 755.2,212.9 -13.2,-7.6 -14.9,-8.6 c -0.7,-0.4 -1.3,-0.7 -2,-1.1 -0.2,-0.1 -0.4,-0.2 -0.6,-0.3 -0.5,-0.2 -1,-0.5 -1.5,-0.7 -0.2,-0.1 -0.5,-0.2 -0.7,-0.3 -0.7,-0.3 -1.4,-0.6 -2,-0.8 2,-10.2 7.6,-19.4 16,-25.6 5.5,-2.6 11.5,-3.9 17.4,-4 0.5,0 1,0 1.5,0 z"
   id="path1640"
   inkscape:connector-curvature="0"
   style="fill:#ffffff" />
	<path
   class="st2"
   d="m 755.2,212.9 -13.2,-7.6 -14.9,-8.6 c -0.7,-0.4 -1.3,-0.7 -2,-1.1 -0.2,-0.1 -0.4,-0.2 -0.6,-0.3 -0.5,-0.2 -1,-0.5 -1.5,-0.7 -0.2,-0.1 -0.5,-0.2 -0.7,-0.3 -0.7,-0.3 -1.4,-0.6 -2,-0.8 2,-10.2 7.6,-19.4 16,-25.6 5.5,-2.6 11.5,-3.9 17.4,-4 0.5,0 1,0 1.5,0 z"
   id="path1642"
   inkscape:connector-curvature="0"
   style="fill:#ffffff" />
	<path
   class="st2"
   d="m 671.7,279.6 c 0.1,-0.7 0.1,-1.3 0.2,-2 0.1,-0.8 0.2,-1.5 0.4,-2.2 0,0 0,0 0,0 v 0.1 c 0,15 8,28.8 21,36.3 l 40.7,23.5 c 6.4,3.7 13.4,5.5 20.5,5.6 -7.4,0.1 -14.8,-1.8 -21.4,-5.6 L 692.4,311.8 C 680.7,305 673,293 671.7,279.6 Z"
   id="path1644"
   inkscape:connector-curvature="0"
   style="fill:#ffffff" />
	<path
   class="st2"
   d="m 671.6,226.6 c -0.1,0.9 -0.1,1.8 -0.1,2.6 v -0.7 c 0,-1.2 0.1,-2.5 0.2,-3.7 0,0.1 0,0.2 0,0.3 0,0.2 0,0.4 -0.1,0.6 0,0.3 0,0.6 0,0.9 z"
   id="path1646"
   inkscape:connector-curvature="0"
   style="fill:#ffffff" />
	<polygon
   class="st2"
   points=""
   id="polygon1648"
   style="fill:#ffffff" />
	<polygon
   class="st2"
   points=""
   id="polygon1650"
   style="fill:#ffffff" />
	<path
   class="st2"
   d="m 671.7,225.7 c 0,0.3 -0.1,0.6 -0.1,0.9 0,-0.3 0,-0.6 0.1,-0.9 z"
   id="path1652"
   inkscape:connector-curvature="0"
   style="fill:#ffffff" />
	<path
   class="st2"
   d="m 671.7,225.7 c 0,0.3 -0.1,0.6 -0.1,0.9 0,-0.3 0,-0.6 0.1,-0.9 z"
   id="path1654"
   inkscape:connector-curvature="0"
   style="fill:#ffffff" />
	<path
   class="st2"
   d="m 672,277.6 c -0.1,0.7 -0.2,1.3 -0.2,2 v 0 c 0,-0.7 0.1,-1.3 0.2,-2 z"
   id="path1656"
   inkscape:connector-curvature="0"
   style="fill:#ffffff" />
	<path
   class="st2"
   d="m 672,277.6 c -0.1,0.7 -0.2,1.3 -0.2,2 v 0 c 0,-0.7 0.1,-1.3 0.2,-2 z"
   id="path1658"
   inkscape:connector-curvature="0"
   style="fill:#ffffff" />
	<path
   class="st2"
   d="m 741.2,220.3 c -1.4,0.6 -2.7,1.2 -4,2 l -0.3,0.2 c -1.4,0.8 -2.7,1.7 -4,2.7 -8.2,6.4 -13.2,16.4 -13.2,27 v 0.4 c 0,0.2 0,0.5 0,0.7 -0.2,-1.6 -0.3,-3.2 -0.3,-4.9 v -16.6 l 13.7,-7.9 c 2.6,-1.6 5.3,-2.7 8.1,-3.6 z"
   id="path1660"
   inkscape:connector-curvature="0"
   style="fill:#ffffff" />
	<path
   class="st2"
   d="m 736.9,282.2 0.3,0.2 c 1.8,1 3.6,1.9 5.5,2.5 -1.3,-0.4 -2.7,-0.8 -4,-1.3 -0.9,-0.6 -1.9,-1.2 -2.8,-1.9 0.4,0.1 0.7,0.3 1,0.5 z"
   id="path1662"
   inkscape:connector-curvature="0"
   style="fill:#ffffff" />
	<path
   class="st2"
   d="m 755.2,286.5 v 0.2 c -3.1,0.1 -6.1,-0.2 -9.1,-0.9 2.9,0.5 6,0.7 9.1,0.7 z"
   id="path1664"
   inkscape:connector-curvature="0"
   style="fill:#ffffff" />
	<path
   class="st2"
   d="m 755.2,217.7 v 0.4 c -3.1,-0.1 -6.1,0.2 -9.1,0.9 -1.6,0.3 -3.2,0.7 -4.8,1.2 4.4,-1.8 9.1,-2.7 13.9,-2.5 z"
   id="path1666"
   inkscape:connector-curvature="0"
   style="fill:#ffffff" />
	<path
   class="st2"
   d="m 755.2,217.7 c -4.7,-0.1 -9.5,0.7 -14,2.6 -2.8,0.9 -5.5,2.1 -8.1,3.6 l -13.7,7.9 v 0 -30.4 c 0,-2.7 0.3,-5.3 0.8,-7.9 0.7,0.2 1.4,0.5 2,0.8 0.2,0.1 0.5,0.2 0.7,0.3 0.5,0.2 1,0.4 1.5,0.7 0.2,0.1 0.4,0.2 0.6,0.3 0.7,0.3 1.4,0.7 2,1.1 l 14.9,8.6 13.2,7.6 v 4.8 z"
   id="path1668"
   inkscape:connector-curvature="0"
   style="fill:#ffffff" />
	<path
   class="st2"
   d="m 755.2,217.7 c -4.7,-0.1 -9.5,0.7 -14,2.6 -2.8,0.9 -5.5,2.1 -8.1,3.6 l -13.7,7.9 v 0 -30.4 c 0,-2.7 0.3,-5.3 0.8,-7.9 0.7,0.2 1.4,0.5 2,0.8 0.2,0.1 0.5,0.2 0.7,0.3 0.5,0.2 1,0.4 1.5,0.7 0.2,0.1 0.4,0.2 0.6,0.3 0.7,0.3 1.4,0.7 2,1.1 l 14.9,8.6 13.2,7.6 v 4.8 z"
   id="path1670"
   inkscape:connector-curvature="0"
   style="fill:#ffffff" />
	<path
   class="st2"
   d="m 725.1,195.6 c 0.7,0.3 1.4,0.7 2,1.1 l 14.9,8.6 -14.9,-8.6 c -0.7,-0.4 -1.4,-0.8 -2,-1.1 z"
   id="path1672"
   inkscape:connector-curvature="0"
   style="fill:#ffffff" />
	<path
   class="st2"
   d="m 725.1,195.6 c 0.7,0.3 1.4,0.7 2,1.1 l 14.9,8.6 -14.9,-8.6 c -0.7,-0.4 -1.4,-0.8 -2,-1.1 z"
   id="path1674"
   inkscape:connector-curvature="0"
   style="fill:#ffffff" />
	<path
   class="st2"
   d="m 725.1,195.6 c 0.7,0.3 1.4,0.7 2,1.1 l 14.9,8.6 -14.9,-8.6 c -0.7,-0.4 -1.4,-0.8 -2,-1.1 z"
   id="path1676"
   inkscape:connector-curvature="0"
   style="fill:#ffffff" />
	<path
   class="st2"
   d="m 720.2,193.5 c 0.7,0.2 1.4,0.5 2,0.8 -0.6,-0.3 -1.3,-0.6 -2,-0.8 z"
   id="path1678"
   inkscape:connector-curvature="0"
   style="fill:#ffffff" />
	<path
   class="st2"
   d="m 720.2,193.5 c 0.7,0.2 1.4,0.5 2,0.8 -0.6,-0.3 -1.3,-0.6 -2,-0.8 z"
   id="path1680"
   inkscape:connector-curvature="0"
   style="fill:#ffffff" />
	<path
   class="st2"
   d="m 720.2,193.5 c 0.7,0.2 1.4,0.5 2,0.8 -0.6,-0.3 -1.3,-0.6 -2,-0.8 z"
   id="path1682"
   inkscape:connector-curvature="0"
   style="fill:#ffffff" />
	<path
   class="st2"
   d="m 724.4,195.2 c -0.5,-0.2 -1,-0.5 -1.5,-0.7 0.5,0.3 1,0.5 1.5,0.7 z"
   id="path1684"
   inkscape:connector-curvature="0"
   style="fill:#ffffff" />
	<path
   class="st2"
   d="m 724.4,195.2 c -0.5,-0.2 -1,-0.5 -1.5,-0.7 0.5,0.3 1,0.5 1.5,0.7 z"
   id="path1686"
   inkscape:connector-curvature="0"
   style="fill:#ffffff" />
	<path
   class="st2"
   d="m 724.4,195.2 c -0.5,-0.2 -1,-0.5 -1.5,-0.7 0.5,0.3 1,0.5 1.5,0.7 z"
   id="path1688"
   inkscape:connector-curvature="0"
   style="fill:#ffffff" />
	<path
   class="st2"
   d="m 742.7,284.9 c 1.1,0.3 2.2,0.6 3.3,0.8 3,0.7 6.1,1 9.1,0.9 v 6.5 l -14.8,-8.5 c -0.3,-0.1 -0.5,-0.3 -0.8,-0.5 2.2,0.8 4.4,1.4 6.6,1.9 -1,-0.3 -2.2,-0.7 -3.4,-1.1 z"
   id="path1690"
   inkscape:connector-curvature="0"
   style="fill:#ffffff" />
	<path
   class="st2"
   d="m 742.7,284.9 c 1.2,0.4 2.4,0.8 3.6,1.1 -2.2,-0.4 -4.5,-1.1 -6.6,-1.9 -0.3,-0.2 -0.6,-0.4 -0.9,-0.5 1.3,0.5 2.6,1 3.9,1.3 z"
   id="path1692"
   inkscape:connector-curvature="0"
   style="fill:#ffffff" />
	<path
   class="st2"
   d="m 742.7,284.9 c 1.2,0.4 2.4,0.8 3.6,1.1 -2.2,-0.4 -4.5,-1.1 -6.6,-1.9 -0.3,-0.2 -0.6,-0.4 -0.9,-0.5 1.3,0.5 2.6,1 3.9,1.3 z"
   id="path1694"
   inkscape:connector-curvature="0"
   style="fill:#ffffff" />
	<path
   class="st2"
   d="m 677,208.4 c -0.4,0.7 -0.8,1.5 -1.2,2.2 0.4,-0.7 0.8,-1.5 1.2,-2.2 z"
   id="path1696"
   inkscape:connector-curvature="0"
   style="fill:#ffffff" />
	<path
   class="st2"
   d="m 673.6,216.3 c -0.2,0.5 -0.3,1 -0.5,1.5 0.1,-0.5 0.3,-1 0.5,-1.5 z"
   id="path1698"
   inkscape:connector-curvature="0"
   style="fill:#ffffff" />
	<path
   class="st2"
   d="m 674.5,213.8 c -0.2,0.5 -0.4,1.1 -0.6,1.6 0.2,-0.6 0.4,-1.1 0.6,-1.6 z"
   id="path1700"
   inkscape:connector-curvature="0"
   style="fill:#ffffff" />
	<path
   class="st2"
   d="m 672.8,218.9 c -0.1,0.5 -0.2,1 -0.4,1.5 0.2,-0.5 0.3,-1 0.4,-1.5 z"
   id="path1702"
   inkscape:connector-curvature="0"
   style="fill:#ffffff" />
	<path
   class="st2"
   d="m 675.8,210.8 c -0.3,0.7 -0.7,1.4 -1,2.2 0.3,-0.7 0.6,-1.5 1,-2.2 z"
   id="path1704"
   inkscape:connector-curvature="0"
   style="fill:#ffffff" />
	<path
   class="st2"
   d="m 678.4,206.2 c -0.3,0.5 -0.6,0.9 -0.9,1.4 0.3,-0.4 0.6,-0.9 0.9,-1.4 z"
   id="path1706"
   inkscape:connector-curvature="0"
   style="fill:#ffffff" />
	<path
   class="st2"
   d="m 672.3,221.4 c -0.1,0.5 -0.2,1.1 -0.3,1.6 0.1,-0.5 0.2,-1.1 0.3,-1.6 z"
   id="path1708"
   inkscape:connector-curvature="0"
   style="fill:#ffffff" />
	<path
   class="st2"
   d="m 679,205.4 c 0.2,-0.3 0.4,-0.6 0.6,-0.9 -0.1,0.2 -0.3,0.4 -0.4,0.6 -0.1,0.1 -0.2,0.2 -0.2,0.3 z"
   id="path1710"
   inkscape:connector-curvature="0"
   style="fill:#ffffff" />
	<path
   class="st2"
   d="m 671.7,225.1 c 0,-0.4 0.1,-0.7 0.1,-1.1 0,0.4 0,0.8 -0.1,1.1 0,0 0,0 0,0 z"
   id="path1712"
   inkscape:connector-curvature="0"
   style="fill:#ffffff" />
	<path
   class="st2"
   d="m 681.5,202.1 c -0.3,0.4 -0.6,0.8 -1,1.2 0.3,-0.4 0.6,-0.8 1,-1.2 z"
   id="path1714"
   inkscape:connector-curvature="0"
   style="fill:#ffffff" />
	<path
   class="st2"
   d="m 681.5,202.1 c -0.3,0.4 -0.6,0.8 -1,1.2 0.3,-0.4 0.6,-0.8 1,-1.2 z"
   id="path1716"
   inkscape:connector-curvature="0"
   style="fill:#ffffff" />
	<path
   class="st2"
   d="m 683.2,200.2 c -0.4,0.4 -0.7,0.7 -1,1.1 0.3,-0.4 0.7,-0.8 1,-1.1 z"
   id="path1718"
   inkscape:connector-curvature="0"
   style="fill:#ffffff" />
	<path
   class="st2"
   d="m 683.2,200.2 c -0.4,0.4 -0.7,0.7 -1,1.1 0.3,-0.4 0.7,-0.8 1,-1.1 z"
   id="path1720"
   inkscape:connector-curvature="0"
   style="fill:#ffffff" />
	<path
   class="st2"
   d="m 685.2,198.3 c -0.4,0.4 -0.8,0.7 -1.2,1.1 0.3,-0.4 0.8,-0.7 1.2,-1.1 z"
   id="path1722"
   inkscape:connector-curvature="0"
   style="fill:#ffffff" />
	<path
   class="st2"
   d="m 685.2,198.3 c -0.4,0.4 -0.8,0.7 -1.2,1.1 0.3,-0.4 0.8,-0.7 1.2,-1.1 z"
   id="path1724"
   inkscape:connector-curvature="0"
   style="fill:#ffffff" />
	<polygon
   class="st2"
   points=""
   id="polygon1726"
   style="fill:#ffffff" />
	<polygon
   class="st2"
   points=""
   id="polygon1728"
   style="fill:#ffffff" />
	<path
   class="st2"
   d="m 687.6,196.2 c -0.6,0.5 -1.2,0.9 -1.7,1.4 0.5,-0.4 1.1,-0.9 1.7,-1.4 z"
   id="path1730"
   inkscape:connector-curvature="0"
   style="fill:#ffffff" />
	<path
   class="st2"
   d="m 687.6,196.2 c -0.6,0.5 -1.2,0.9 -1.7,1.4 0.5,-0.4 1.1,-0.9 1.7,-1.4 z"
   id="path1732"
   inkscape:connector-curvature="0"
   style="fill:#ffffff" />
	<path
   class="st2"
   d="m 679.1,205.2 c 0.1,-0.2 0.3,-0.4 0.4,-0.6 0.1,-0.1 0.2,-0.3 0.3,-0.4 -0.2,0.3 -0.4,0.6 -0.7,1 z"
   id="path1734"
   inkscape:connector-curvature="0"
   style="fill:#ffffff" />
	<path
   class="st2"
   d="m 679.1,205.2 c 0.1,-0.2 0.3,-0.4 0.4,-0.6 0.1,-0.1 0.2,-0.3 0.3,-0.4 -0.2,0.3 -0.4,0.6 -0.7,1 z"
   id="path1736"
   inkscape:connector-curvature="0"
   style="fill:#ffffff" />
	<path
   class="st2"
   d="m 671.7,279.9 c -0.1,-1.2 -0.2,-2.5 -0.2,-3.7 v -0.7 c 0,1.4 0.1,2.7 0.2,4.1 0,0.1 0,0.2 0,0.3 z"
   id="path1738"
   inkscape:connector-curvature="0"
   style="fill:#ffffff" />
	<path
   class="st2"
   d="m 671.7,279.9 c -0.1,-1.2 -0.2,-2.5 -0.2,-3.7 v -0.7 c 0,1.4 0.1,2.7 0.2,4.1 0,0.1 0,0.2 0,0.3 z"
   id="path1740"
   inkscape:connector-curvature="0"
   style="fill:#ffffff" />
	<path
   class="st2"
   d="m 672,225.1 c 0.1,1 0.2,2.1 0.4,3.1 0,0.1 0,0.2 0,0.3 v 0.8 c -0.3,-1.4 -0.5,-2.8 -0.6,-4.2 0,-0.4 0.1,-0.8 0.1,-1.1 0,-0.3 0.1,-0.7 0.1,-1 0.1,-0.5 0.2,-1.1 0.3,-1.6 0.1,-0.3 0.1,-0.7 0.2,-1 0.1,-0.5 0.2,-1 0.4,-1.5 0.1,-0.3 0.2,-0.7 0.3,-1 0.1,-0.5 0.3,-1 0.5,-1.5 0.1,-0.3 0.2,-0.6 0.3,-1 0.2,-0.5 0.4,-1.1 0.6,-1.6 0.1,-0.3 0.2,-0.5 0.3,-0.8 0.3,-0.7 0.6,-1.4 1,-2.2 0,-0.1 0.1,-0.1 0.1,-0.2 0.4,-0.8 0.8,-1.5 1.2,-2.2 0.1,-0.3 0.3,-0.5 0.5,-0.8 0.3,-0.5 0.6,-1 0.9,-1.4 0.2,-0.3 0.4,-0.6 0.6,-0.8 0.1,-0.1 0.1,-0.2 0.2,-0.2 -4.3,5.8 -6.8,12.7 -7.4,19.9 z"
   id="path1742"
   inkscape:connector-curvature="0"
   style="fill:#ffffff" />
	<path
   class="st2"
   d="m 672,225.1 c 0.1,1 0.2,2.1 0.4,3.1 0,0.1 0,0.2 0,0.3 v 0.8 c -0.3,-1.4 -0.5,-2.8 -0.6,-4.2 0,-0.4 0.1,-0.8 0.1,-1.1 0,-0.3 0.1,-0.7 0.1,-1 0.1,-0.5 0.2,-1.1 0.3,-1.6 0.1,-0.3 0.1,-0.7 0.2,-1 0.1,-0.5 0.2,-1 0.4,-1.5 0.1,-0.3 0.2,-0.7 0.3,-1 0.1,-0.5 0.3,-1 0.5,-1.5 0.1,-0.3 0.2,-0.6 0.3,-1 0.2,-0.5 0.4,-1.1 0.6,-1.6 0.1,-0.3 0.2,-0.5 0.3,-0.8 0.3,-0.7 0.6,-1.4 1,-2.2 0,-0.1 0.1,-0.1 0.1,-0.2 0.4,-0.8 0.8,-1.5 1.2,-2.2 0.1,-0.3 0.3,-0.5 0.5,-0.8 0.3,-0.5 0.6,-1 0.9,-1.4 0.2,-0.3 0.4,-0.6 0.6,-0.8 0.1,-0.1 0.1,-0.2 0.2,-0.2 -4.3,5.8 -6.8,12.7 -7.4,19.9 z"
   id="path1744"
   inkscape:connector-curvature="0"
   style="fill:#ffffff" />
	<path
   class="st2"
   d="m 672.4,228.2 c -0.2,-1 -0.3,-2.1 -0.4,-3.1 0.6,-7.2 3.2,-14.1 7.2,-20 0.2,-0.3 0.5,-0.7 0.7,-1 0.2,-0.3 0.4,-0.6 0.7,-0.9 0.3,-0.4 0.6,-0.8 1,-1.2 0.2,-0.3 0.5,-0.6 0.7,-0.8 0.3,-0.4 0.7,-0.7 1,-1.1 0.2,-0.3 0.5,-0.5 0.7,-0.8 0.4,-0.4 0.8,-0.8 1.2,-1.1 0.2,-0.2 0.5,-0.4 0.7,-0.6 0.6,-0.5 1.1,-1 1.7,-1.4 0.1,-0.1 0.2,-0.2 0.3,-0.2 v 0 c -9.7,7.8 -15.4,19.6 -15.5,32.2 z"
   id="path1746"
   inkscape:connector-curvature="0"
   style="fill:#ffffff" />
	<path
   class="st2"
   d="m 672.4,228.2 c -0.2,-1 -0.3,-2.1 -0.4,-3.1 0.6,-7.2 3.2,-14.1 7.2,-20 0.2,-0.3 0.5,-0.7 0.7,-1 0.2,-0.3 0.4,-0.6 0.7,-0.9 0.3,-0.4 0.6,-0.8 1,-1.2 0.2,-0.3 0.5,-0.6 0.7,-0.8 0.3,-0.4 0.7,-0.7 1,-1.1 0.2,-0.3 0.5,-0.5 0.7,-0.8 0.4,-0.4 0.8,-0.8 1.2,-1.1 0.2,-0.2 0.5,-0.4 0.7,-0.6 0.6,-0.5 1.1,-1 1.7,-1.4 0.1,-0.1 0.2,-0.2 0.3,-0.2 v 0 c -9.7,7.8 -15.4,19.6 -15.5,32.2 z"
   id="path1748"
   inkscape:connector-curvature="0"
   style="fill:#ffffff" />
	<path
   class="st2"
   d="m 672.4,228.2 c -0.2,-1 -0.3,-2.1 -0.4,-3.1 0.6,-7.2 3.2,-14.1 7.2,-20 0.2,-0.3 0.5,-0.7 0.7,-1 0.2,-0.3 0.4,-0.6 0.7,-0.9 0.3,-0.4 0.6,-0.8 1,-1.2 0.2,-0.3 0.5,-0.6 0.7,-0.8 0.3,-0.4 0.7,-0.7 1,-1.1 0.2,-0.3 0.5,-0.5 0.7,-0.8 0.4,-0.4 0.8,-0.8 1.2,-1.1 0.2,-0.2 0.5,-0.4 0.7,-0.6 0.6,-0.5 1.1,-1 1.7,-1.4 0.1,-0.1 0.2,-0.2 0.3,-0.2 v 0 c -9.7,7.8 -15.4,19.6 -15.5,32.2 z"
   id="path1750"
   inkscape:connector-curvature="0"
   style="fill:#ffffff" />
	<path
   class="st2"
   d="m 672,277.6 c 0.1,-0.8 0.2,-1.5 0.4,-2.2 -0.2,0.7 -0.3,1.5 -0.4,2.2 z"
   id="path1752"
   inkscape:connector-curvature="0"
   style="fill:#ffffff" />
	<path
   class="st2"
   d="m 672,277.6 c 0.1,-0.8 0.2,-1.5 0.4,-2.2 -0.2,0.7 -0.3,1.5 -0.4,2.2 z"
   id="path1754"
   inkscape:connector-curvature="0"
   style="fill:#ffffff" />
	<path
   class="st2"
   d="m 671.7,225.7 c 0,-0.2 0,-0.4 0.1,-0.6 0,0 0,0 0,0 -0.1,0.2 -0.1,0.4 -0.1,0.6 z"
   id="path1756"
   inkscape:connector-curvature="0"
   style="fill:#ffffff" />
	<path
   class="st2"
   d="m 671.7,225.7 c 0,-0.2 0,-0.4 0.1,-0.6 0,0 0,0 0,0 -0.1,0.2 -0.1,0.4 -0.1,0.6 z"
   id="path1758"
   inkscape:connector-curvature="0"
   style="fill:#ffffff" />
	<path
   class="st2"
   d="m 671.5,229.2 v 0 c 0,-0.9 0,-1.8 0.1,-2.6 -0.1,0.9 -0.1,1.7 -0.1,2.6 z"
   id="path1760"
   inkscape:connector-curvature="0"
   style="fill:#ffffff" />
	<path
   class="st2"
   d="m 671.5,229.2 v 0 c 0,-0.9 0,-1.8 0.1,-2.6 -0.1,0.9 -0.1,1.7 -0.1,2.6 z"
   id="path1762"
   inkscape:connector-curvature="0"
   style="fill:#ffffff" />
	<path
   class="st2"
   d="m 671.7,225.7 c 0,-0.2 0,-0.4 0.1,-0.6 0.1,1.4 0.4,2.8 0.6,4.2 v 46 c 0,0 0,0 0,0 -0.1,0.7 -0.3,1.5 -0.4,2.2 -0.1,0.7 -0.2,1.3 -0.2,2 -0.1,-1.4 -0.2,-2.7 -0.2,-4.1 v -46.3 c 0,-0.9 0,-1.8 0.1,-2.6 -0.1,-0.2 -0.1,-0.5 0,-0.8 z"
   id="path1764"
   inkscape:connector-curvature="0"
   style="fill:#ffffff" />
	<path
   class="st2"
   d="m 671.7,225.7 c 0,-0.2 0,-0.4 0.1,-0.6 0.1,1.4 0.4,2.8 0.6,4.2 v 46 c 0,0 0,0 0,0 -0.1,0.7 -0.3,1.5 -0.4,2.2 -0.1,0.7 -0.2,1.3 -0.2,2 -0.1,-1.4 -0.2,-2.7 -0.2,-4.1 v -46.3 c 0,-0.9 0,-1.8 0.1,-2.6 -0.1,-0.2 -0.1,-0.5 0,-0.8 z"
   id="path1766"
   inkscape:connector-curvature="0"
   style="fill:#ffffff" />
	<path
   class="st2"
   d="m 671.7,225.7 c 0,-0.2 0,-0.4 0.1,-0.6 0.1,1.4 0.4,2.8 0.6,4.2 v 46 c 0,0 0,0 0,0 -0.1,0.7 -0.3,1.5 -0.4,2.2 -0.1,0.7 -0.2,1.3 -0.2,2 -0.1,-1.4 -0.2,-2.7 -0.2,-4.1 v -46.3 c 0,-0.9 0,-1.8 0.1,-2.6 -0.1,-0.2 -0.1,-0.5 0,-0.8 z"
   id="path1768"
   inkscape:connector-curvature="0"
   style="fill:#ffffff" />
	<path
   class="st2"
   d="m 755.2,340.9 c -0.2,0 -0.4,0 -0.7,0 0.2,0 0.5,0 0.7,0 z"
   id="path1770"
   inkscape:connector-curvature="0"
   style="fill:#ffffff" />
	<path
   class="st2"
   d="m 729.8,275.8 c 1.9,2.1 3.9,4.1 6.2,5.8 -9.9,-6.1 -16,-16.8 -16.3,-28.5 0.4,3 1,5.9 2,8.7 1.6,5.3 4.3,10.1 8.1,14 z"
   id="path1772"
   inkscape:connector-curvature="0"
   style="fill:#ffffff" />
	<path
   class="st1"
   d="m 686.6,251.5 c 0.4,-0.3 0.7,-0.6 1.1,-0.9 0.3,-0.2 0.5,-0.4 0.8,-0.6 0.4,-0.3 0.9,-0.6 1.3,-0.9 0.2,-0.2 0.4,-0.3 0.7,-0.5 0.7,-0.4 1.4,-0.9 2.1,-1.3 l 27,-15.6 v 16.6 c 0,1.6 0.1,3.3 0.3,4.9 0.2,11.6 6.4,22.4 16.3,28.5 0.9,0.7 1.8,1.3 2.8,1.9 -1.9,-0.8 -3.8,-1.7 -5.6,-2.7 l -40.7,-23.5 c -2.5,-1.4 -4.8,-3.1 -6.9,-5 0.1,-0.1 0.2,-0.1 0.2,-0.2 0,-0.3 0.3,-0.5 0.6,-0.7 z"
   id="path1774"
   inkscape:connector-curvature="0"
   style="opacity:0.4;fill:#ffffff" />
	<path
   class="st2"
   d="m 687.7,250.6 c -0.4,0.3 -0.7,0.6 -1.1,0.9 0.3,-0.3 0.7,-0.6 1.1,-0.9 z"
   id="path1776"
   inkscape:connector-curvature="0"
   style="fill:#ffffff" />
	<path
   class="st2"
   d="m 687.7,250.6 c -0.4,0.3 -0.7,0.6 -1.1,0.9 0.3,-0.3 0.7,-0.6 1.1,-0.9 z"
   id="path1778"
   inkscape:connector-curvature="0"
   style="fill:#ffffff" />
	<path
   class="st2"
   d="m 687.7,250.6 c -0.4,0.3 -0.7,0.6 -1.1,0.9 0.3,-0.3 0.7,-0.6 1.1,-0.9 z"
   id="path1780"
   inkscape:connector-curvature="0"
   style="fill:#ffffff" />
	<path
   class="st2"
   d="m 692.5,247.3 c -0.7,0.4 -1.4,0.8 -2.1,1.3 0.7,-0.4 1.4,-0.9 2.1,-1.3 l 27,-15.6 v 0 z"
   id="path1782"
   inkscape:connector-curvature="0"
   style="fill:#ffffff" />
	<path
   class="st2"
   d="m 692.5,247.3 c -0.7,0.4 -1.4,0.8 -2.1,1.3 0.7,-0.4 1.4,-0.9 2.1,-1.3 l 27,-15.6 v 0 z"
   id="path1784"
   inkscape:connector-curvature="0"
   style="fill:#ffffff" />
	<path
   class="st2"
   d="m 692.5,247.3 c -0.7,0.4 -1.4,0.8 -2.1,1.3 0.7,-0.4 1.4,-0.9 2.1,-1.3 l 27,-15.6 v 0 z"
   id="path1786"
   inkscape:connector-curvature="0"
   style="fill:#ffffff" />
	<path
   class="st2"
   d="m 689.7,249.1 c -0.4,0.3 -0.9,0.6 -1.3,0.9 0.5,-0.3 0.9,-0.6 1.3,-0.9 z"
   id="path1788"
   inkscape:connector-curvature="0"
   style="fill:#ffffff" />
	<path
   class="st2"
   d="m 689.7,249.1 c -0.4,0.3 -0.9,0.6 -1.3,0.9 0.5,-0.3 0.9,-0.6 1.3,-0.9 z"
   id="path1790"
   inkscape:connector-curvature="0"
   style="fill:#ffffff" />
	<path
   class="st2"
   d="m 689.7,249.1 c -0.4,0.3 -0.9,0.6 -1.3,0.9 0.5,-0.3 0.9,-0.6 1.3,-0.9 z"
   id="path1792"
   inkscape:connector-curvature="0"
   style="fill:#ffffff" />
	<path
   class="st2"
   d="m 685.5,252.4 c 0,0 0,0 0,0 0.1,-0.1 0.2,-0.1 0.2,-0.2 0,0 -0.1,0.1 -0.2,0.2 z"
   id="path1794"
   inkscape:connector-curvature="0"
   style="fill:#ffffff" />
	<path
   class="st2"
   d="m 685.5,252.4 c 0,0 0,0 0,0 0.1,-0.1 0.2,-0.1 0.2,-0.2 0,0 -0.1,0.1 -0.2,0.2 z"
   id="path1796"
   inkscape:connector-curvature="0"
   style="fill:#ffffff" />
	<path
   class="st2"
   d="m 685.5,252.4 c 0,0 0,0 0,0 0.1,-0.1 0.2,-0.1 0.2,-0.2 0,0 -0.1,0.1 -0.2,0.2 z"
   id="path1798"
   inkscape:connector-curvature="0"
   style="fill:#ffffff" />
	<path
   class="st2"
   d="m 693.3,311.8 c -13,-7.5 -21,-21.3 -21,-36.3 v -0.1 c 0,0 0,0 0,0 0.1,-0.6 0.3,-1.2 0.4,-1.8 0,-0.1 0.1,-0.3 0.1,-0.4 0.1,-0.6 0.3,-1.1 0.5,-1.7 0.1,-0.2 0.1,-0.4 0.2,-0.6 0.2,-0.5 0.4,-1.1 0.5,-1.6 0.1,-0.2 0.2,-0.4 0.2,-0.6 0.2,-0.5 0.4,-1 0.6,-1.5 0.1,-0.2 0.2,-0.4 0.3,-0.6 0.2,-0.5 0.4,-1 0.7,-1.5 0.1,-0.2 0.2,-0.4 0.3,-0.6 0.3,-0.5 0.5,-1 0.8,-1.5 0.1,-0.1 0.1,-0.2 0.2,-0.3 0.6,-1.1 1.3,-2.1 2,-3.1 0.1,-0.1 0.1,-0.2 0.2,-0.3 0.3,-0.4 0.5,-0.7 0.8,-1.1 0.2,-0.3 0.4,-0.6 0.6,-0.8 0.3,-0.3 0.5,-0.6 0.8,-0.9 0.3,-0.3 0.5,-0.6 0.8,-0.9 0.3,-0.3 0.5,-0.6 0.8,-0.8 0.3,-0.3 0.6,-0.6 0.9,-0.9 0.3,-0.3 0.5,-0.5 0.8,-0.8 0.2,-0.2 0.5,-0.4 0.7,-0.6 2.2,2 4.6,3.8 7.2,5.3 l 40.7,23.5 c 2,1.2 4.1,2.1 6.3,3 0.3,0.2 0.5,0.3 0.8,0.5 l 14.8,8.5 V 341 c -0.2,0 -0.4,0 -0.7,0 -7.1,-0.1 -14.2,-1.9 -20.5,-5.6 z"
   id="path1800"
   inkscape:connector-curvature="0"
   style="fill:#ffffff" />
	<path
   class="st2"
   d="m 693.3,311.8 c -13,-7.5 -21,-21.3 -21,-36.3 v -0.1 c 0,0 0,0 0,0 0.1,-0.6 0.3,-1.2 0.4,-1.8 0,-0.1 0.1,-0.3 0.1,-0.4 0.1,-0.6 0.3,-1.1 0.5,-1.7 0.1,-0.2 0.1,-0.4 0.2,-0.6 0.2,-0.5 0.4,-1.1 0.5,-1.6 0.1,-0.2 0.2,-0.4 0.2,-0.6 0.2,-0.5 0.4,-1 0.6,-1.5 0.1,-0.2 0.2,-0.4 0.3,-0.6 0.2,-0.5 0.4,-1 0.7,-1.5 0.1,-0.2 0.2,-0.4 0.3,-0.6 0.3,-0.5 0.5,-1 0.8,-1.5 0.1,-0.1 0.1,-0.2 0.2,-0.3 0.6,-1.1 1.3,-2.1 2,-3.1 0.1,-0.1 0.1,-0.2 0.2,-0.3 0.3,-0.4 0.5,-0.7 0.8,-1.1 0.2,-0.3 0.4,-0.6 0.6,-0.8 0.3,-0.3 0.5,-0.6 0.8,-0.9 0.3,-0.3 0.5,-0.6 0.8,-0.9 0.3,-0.3 0.5,-0.6 0.8,-0.8 0.3,-0.3 0.6,-0.6 0.9,-0.9 0.3,-0.3 0.5,-0.5 0.8,-0.8 0.2,-0.2 0.5,-0.4 0.7,-0.6 2.2,2 4.6,3.8 7.2,5.3 l 40.7,23.5 c 2,1.2 4.1,2.1 6.3,3 0.3,0.2 0.5,0.3 0.8,0.5 l 14.8,8.5 V 341 c -0.2,0 -0.4,0 -0.7,0 -7.1,-0.1 -14.2,-1.9 -20.5,-5.6 z"
   id="path1802"
   inkscape:connector-curvature="0"
   style="fill:#ffffff" />
	<path
   class="st2"
   d="m 692.5,257.4 40.7,23.5 c 1.8,1.1 3.7,1.9 5.6,2.7 0.3,0.2 0.6,0.4 0.9,0.5 -2.1,-0.8 -4.2,-1.8 -6.3,-3 l -40.7,-23.5 c -2.6,-1.5 -5,-3.3 -7.2,-5.3 0,0 0,0 0,0 2.1,1.9 4.4,3.6 7,5.1 z"
   id="path1804"
   inkscape:connector-curvature="0"
   style="fill:#ffffff" />
	<path
   class="st2"
   d="m 692.5,257.4 40.7,23.5 c 1.8,1.1 3.7,1.9 5.6,2.7 0.3,0.2 0.6,0.4 0.9,0.5 -2.1,-0.8 -4.2,-1.8 -6.3,-3 l -40.7,-23.5 c -2.6,-1.5 -5,-3.3 -7.2,-5.3 0,0 0,0 0,0 2.1,1.9 4.4,3.6 7,5.1 z"
   id="path1806"
   inkscape:connector-curvature="0"
   style="fill:#ffffff" />
	<path
   class="st2"
   d="m 692.5,257.4 40.7,23.5 c 1.8,1.1 3.7,1.9 5.6,2.7 0.3,0.2 0.6,0.4 0.9,0.5 -2.1,-0.8 -4.2,-1.8 -6.3,-3 l -40.7,-23.5 c -2.6,-1.5 -5,-3.3 -7.2,-5.3 0,0 0,0 0,0 2.1,1.9 4.4,3.6 7,5.1 z"
   id="path1808"
   inkscape:connector-curvature="0"
   style="fill:#ffffff" />
	<polygon
   class="st2"
   points="672.4,275.4 672.4,275.3 "
   id="polygon1810"
   style="fill:#ffffff" />
	<polygon
   class="st2"
   points="672.4,275.4 672.4,275.3 "
   id="polygon1812"
   style="fill:#ffffff" />
	<polygon
   class="st2"
   points="672.4,275.4 672.4,275.3 "
   id="polygon1814"
   style="fill:#ffffff" />
	<path
   class="st2"
   d="m 673.4,271.4 c 0.1,-0.2 0.1,-0.4 0.2,-0.6 -0.1,0.2 -0.2,0.4 -0.2,0.6 z"
   id="path1816"
   inkscape:connector-curvature="0"
   style="fill:#ffffff" />
	<path
   class="st2"
   d="m 673.4,271.4 c 0.1,-0.2 0.1,-0.4 0.2,-0.6 -0.1,0.2 -0.2,0.4 -0.2,0.6 z"
   id="path1818"
   inkscape:connector-curvature="0"
   style="fill:#ffffff" />
	<path
   class="st2"
   d="m 673.4,271.4 c 0.1,-0.2 0.1,-0.4 0.2,-0.6 -0.1,0.2 -0.2,0.4 -0.2,0.6 z"
   id="path1820"
   inkscape:connector-curvature="0"
   style="fill:#ffffff" />
	<path
   class="st2"
   d="m 672.8,273.5 c 0,-0.1 0.1,-0.3 0.1,-0.4 0,0.1 -0.1,0.3 -0.1,0.4 z"
   id="path1822"
   inkscape:connector-curvature="0"
   style="fill:#ffffff" />
	<path
   class="st2"
   d="m 672.8,273.5 c 0,-0.1 0.1,-0.3 0.1,-0.4 0,0.1 -0.1,0.3 -0.1,0.4 z"
   id="path1824"
   inkscape:connector-curvature="0"
   style="fill:#ffffff" />
	<path
   class="st2"
   d="m 672.8,273.5 c 0,-0.1 0.1,-0.3 0.1,-0.4 0,0.1 -0.1,0.3 -0.1,0.4 z"
   id="path1826"
   inkscape:connector-curvature="0"
   style="fill:#ffffff" />
	<path
   class="st2"
   d="m 684,253.8 c -0.3,0.3 -0.6,0.6 -0.9,0.9 0.3,-0.3 0.6,-0.6 0.9,-0.9 z"
   id="path1828"
   inkscape:connector-curvature="0"
   style="fill:#ffffff" />
	<path
   class="st2"
   d="m 684,253.8 c -0.3,0.3 -0.6,0.6 -0.9,0.9 0.3,-0.3 0.6,-0.6 0.9,-0.9 z"
   id="path1830"
   inkscape:connector-curvature="0"
   style="fill:#ffffff" />
	<path
   class="st2"
   d="m 684,253.8 c -0.3,0.3 -0.6,0.6 -0.9,0.9 0.3,-0.3 0.6,-0.6 0.9,-0.9 z"
   id="path1832"
   inkscape:connector-curvature="0"
   style="fill:#ffffff" />
	<path
   class="st2"
   d="m 681.6,256.4 c 0.3,-0.3 0.5,-0.6 0.8,-0.9 -0.3,0.3 -0.6,0.6 -0.8,0.9 z"
   id="path1834"
   inkscape:connector-curvature="0"
   style="fill:#ffffff" />
	<path
   class="st2"
   d="m 681.6,256.4 c 0.3,-0.3 0.5,-0.6 0.8,-0.9 -0.3,0.3 -0.6,0.6 -0.8,0.9 z"
   id="path1836"
   inkscape:connector-curvature="0"
   style="fill:#ffffff" />
	<path
   class="st2"
   d="m 681.6,256.4 c 0.3,-0.3 0.5,-0.6 0.8,-0.9 -0.3,0.3 -0.6,0.6 -0.8,0.9 z"
   id="path1838"
   inkscape:connector-curvature="0"
   style="fill:#ffffff" />
	<path
   class="st2"
   d="m 685.5,252.4 c -0.2,0.2 -0.5,0.4 -0.7,0.6 0.2,-0.2 0.5,-0.4 0.7,-0.6 0,0 0,0 0,0 z"
   id="path1840"
   inkscape:connector-curvature="0"
   style="fill:#ffffff" />
	<path
   class="st2"
   d="m 685.5,252.4 c -0.2,0.2 -0.5,0.4 -0.7,0.6 0.2,-0.2 0.5,-0.4 0.7,-0.6 0,0 0,0 0,0 z"
   id="path1842"
   inkscape:connector-curvature="0"
   style="fill:#ffffff" />
	<path
   class="st2"
   d="m 685.5,252.4 c -0.2,0.2 -0.5,0.4 -0.7,0.6 0.2,-0.2 0.5,-0.4 0.7,-0.6 0,0 0,0 0,0 z"
   id="path1844"
   inkscape:connector-curvature="0"
   style="fill:#ffffff" />
	<path
   class="st2"
   d="m 677,263 c 0.1,-0.1 0.1,-0.2 0.2,-0.3 -0.1,0.1 -0.2,0.2 -0.2,0.3 z"
   id="path1846"
   inkscape:connector-curvature="0"
   style="fill:#ffffff" />
	<path
   class="st2"
   d="m 677,263 c 0.1,-0.1 0.1,-0.2 0.2,-0.3 -0.1,0.1 -0.2,0.2 -0.2,0.3 z"
   id="path1848"
   inkscape:connector-curvature="0"
   style="fill:#ffffff" />
	<path
   class="st2"
   d="m 677,263 c 0.1,-0.1 0.1,-0.2 0.2,-0.3 -0.1,0.1 -0.2,0.2 -0.2,0.3 z"
   id="path1850"
   inkscape:connector-curvature="0"
   style="fill:#ffffff" />
	<path
   class="st2"
   d="m 675.9,265 c 0.1,-0.2 0.2,-0.4 0.3,-0.6 -0.1,0.3 -0.2,0.4 -0.3,0.6 z"
   id="path1852"
   inkscape:connector-curvature="0"
   style="fill:#ffffff" />
	<path
   class="st2"
   d="m 675.9,265 c 0.1,-0.2 0.2,-0.4 0.3,-0.6 -0.1,0.3 -0.2,0.4 -0.3,0.6 z"
   id="path1854"
   inkscape:connector-curvature="0"
   style="fill:#ffffff" />
	<path
   class="st2"
   d="m 675.9,265 c 0.1,-0.2 0.2,-0.4 0.3,-0.6 -0.1,0.3 -0.2,0.4 -0.3,0.6 z"
   id="path1856"
   inkscape:connector-curvature="0"
   style="fill:#ffffff" />
	<path
   class="st2"
   d="m 680.1,258.2 c 0.2,-0.3 0.4,-0.6 0.6,-0.8 -0.1,0.2 -0.3,0.5 -0.6,0.8 z"
   id="path1858"
   inkscape:connector-curvature="0"
   style="fill:#ffffff" />
	<path
   class="st2"
   d="m 680.1,258.2 c 0.2,-0.3 0.4,-0.6 0.6,-0.8 -0.1,0.2 -0.3,0.5 -0.6,0.8 z"
   id="path1860"
   inkscape:connector-curvature="0"
   style="fill:#ffffff" />
	<path
   class="st2"
   d="m 680.1,258.2 c 0.2,-0.3 0.4,-0.6 0.6,-0.8 -0.1,0.2 -0.3,0.5 -0.6,0.8 z"
   id="path1862"
   inkscape:connector-curvature="0"
   style="fill:#ffffff" />
	<path
   class="st2"
   d="m 679.2,259.5 c 0.1,-0.1 0.1,-0.2 0.2,-0.3 -0.1,0.1 -0.2,0.2 -0.2,0.3 z"
   id="path1864"
   inkscape:connector-curvature="0"
   style="fill:#ffffff" />
	<path
   class="st2"
   d="m 679.2,259.5 c 0.1,-0.1 0.1,-0.2 0.2,-0.3 -0.1,0.1 -0.2,0.2 -0.2,0.3 z"
   id="path1866"
   inkscape:connector-curvature="0"
   style="fill:#ffffff" />
	<path
   class="st2"
   d="m 679.2,259.5 c 0.1,-0.1 0.1,-0.2 0.2,-0.3 -0.1,0.1 -0.2,0.2 -0.2,0.3 z"
   id="path1868"
   inkscape:connector-curvature="0"
   style="fill:#ffffff" />
	<path
   class="st2"
   d="m 674.9,267.1 c 0.1,-0.2 0.2,-0.4 0.3,-0.6 -0.1,0.2 -0.2,0.4 -0.3,0.6 z"
   id="path1870"
   inkscape:connector-curvature="0"
   style="fill:#ffffff" />
	<path
   class="st2"
   d="m 674.9,267.1 c 0.1,-0.2 0.2,-0.4 0.3,-0.6 -0.1,0.2 -0.2,0.4 -0.3,0.6 z"
   id="path1872"
   inkscape:connector-curvature="0"
   style="fill:#ffffff" />
	<path
   class="st2"
   d="m 674.9,267.1 c 0.1,-0.2 0.2,-0.4 0.3,-0.6 -0.1,0.2 -0.2,0.4 -0.3,0.6 z"
   id="path1874"
   inkscape:connector-curvature="0"
   style="fill:#ffffff" />
	<path
   class="st2"
   d="m 674.1,269.2 c 0.1,-0.2 0.2,-0.4 0.2,-0.6 -0.1,0.2 -0.1,0.4 -0.2,0.6 z"
   id="path1876"
   inkscape:connector-curvature="0"
   style="fill:#ffffff" />
	<path
   class="st2"
   d="m 674.1,269.2 c 0.1,-0.2 0.2,-0.4 0.2,-0.6 -0.1,0.2 -0.1,0.4 -0.2,0.6 z"
   id="path1878"
   inkscape:connector-curvature="0"
   style="fill:#ffffff" />
	<path
   class="st2"
   d="m 674.1,269.2 c 0.1,-0.2 0.2,-0.4 0.2,-0.6 -0.1,0.2 -0.1,0.4 -0.2,0.6 z"
   id="path1880"
   inkscape:connector-curvature="0"
   style="fill:#ffffff" />
	<path
   class="st2"
   d="m 685.5,252.4 c 0,0 0,0 0,0 0,0 0,0 0,0 0,0 0,0 0,0 0,0 0,0 0,0 z"
   id="path1882"
   inkscape:connector-curvature="0"
   style="fill:#ffffff" />
	<path
   class="st2"
   d="m 685.5,252.4 c 0,0 0,0 0,0 0,0 0,0 0,0 0,0 0,0 0,0 0,0 0,0 0,0 z"
   id="path1884"
   inkscape:connector-curvature="0"
   style="fill:#ffffff" />
	<path
   class="st2"
   d="m 685.5,252.4 c 0,0 0,0 0,0 0,0 0,0 0,0 0,0 0,0 0,0 0,0 0,0 0,0 z"
   id="path1886"
   inkscape:connector-curvature="0"
   style="fill:#ffffff" />
	<path
   class="st2"
   d="m 685.5,252.4 c 0,0 0,0 0,0 0,0 0,0 0,0 0,0 0,0 0,0 0,0 0,0 0,0 z"
   id="path1888"
   inkscape:connector-curvature="0"
   style="fill:#ffffff" />
	<path
   class="st2"
   d="m 690.8,193.9 v 0 c 0,0 0,0 0,0 -0.4,0.3 -0.9,0.6 -1.3,0.9 -0.6,0.4 -1.1,0.8 -1.7,1.2 0.8,-0.6 1.6,-1.3 2.4,-1.8 0,0 0,0 0,0 0.3,-0.1 0.5,-0.2 0.6,-0.3 z"
   id="path1890"
   inkscape:connector-curvature="0"
   style="fill:#ffffff" />
	<path
   class="st2"
   d="m 690.8,193.9 v 0 c 0,0 0,0 0,0 -0.4,0.3 -0.9,0.6 -1.3,0.9 -0.6,0.4 -1.1,0.8 -1.7,1.2 0.8,-0.6 1.6,-1.3 2.4,-1.8 0,0 0,0 0,0 0.3,-0.1 0.5,-0.2 0.6,-0.3 z"
   id="path1892"
   inkscape:connector-curvature="0"
   style="fill:#ffffff" />
	<path
   class="st2"
   d="m 690.8,193.9 c -0.4,0.3 -0.9,0.6 -1.3,0.9 0.5,-0.3 0.9,-0.6 1.3,-0.9 z"
   id="path1894"
   inkscape:connector-curvature="0"
   style="fill:#ffffff" />
	<path
   class="st2"
   d="m 690.8,193.9 c -0.4,0.3 -0.9,0.6 -1.3,0.9 0.5,-0.3 0.9,-0.6 1.3,-0.9 z"
   id="path1896"
   inkscape:connector-curvature="0"
   style="fill:#ffffff" />
	<path
   class="st2"
   d="m 690.8,193.9 c -0.4,0.3 -0.9,0.6 -1.3,0.9 0.5,-0.3 0.9,-0.6 1.3,-0.9 z"
   id="path1898"
   inkscape:connector-curvature="0"
   style="fill:#ffffff" />
	<polygon
   class="st2"
   points=""
   id="polygon1900"
   style="fill:#ffffff" />
	<polygon
   class="st2"
   points=""
   id="polygon1902"
   style="fill:#ffffff" />
	<polygon
   class="st2"
   points=""
   id="polygon1904"
   style="fill:#ffffff" />
	<polygon
   class="st2"
   points=""
   id="polygon1906"
   style="fill:#ffffff" />
	<polygon
   class="st2"
   points=""
   id="polygon1908"
   style="fill:#ffffff" />
	<polygon
   class="st2"
   points=""
   id="polygon1910"
   style="fill:#ffffff" />
	<path
   class="st2"
   d="m 690.8,193.9 c -0.2,0.1 -0.4,0.2 -0.5,0.2 0.2,0 0.4,-0.1 0.5,-0.2 z"
   id="path1912"
   inkscape:connector-curvature="0"
   style="fill:#ffffff" />
	<path
   class="st2"
   d="m 690.8,193.9 c -0.2,0.1 -0.4,0.2 -0.5,0.2 0.2,0 0.4,-0.1 0.5,-0.2 z"
   id="path1914"
   inkscape:connector-curvature="0"
   style="fill:#ffffff" />
	<path
   class="st2"
   d="m 690.8,193.9 c -0.2,0.1 -0.4,0.2 -0.5,0.2 0.2,0 0.4,-0.1 0.5,-0.2 z"
   id="path1916"
   inkscape:connector-curvature="0"
   style="fill:#ffffff" />
	<path
   class="st2"
   d="m 735.8,167.8 c -0.1,0 -0.2,0.1 -0.3,0.1 0.2,-0.1 0.2,-0.1 0.3,-0.1 z"
   id="path1918"
   inkscape:connector-curvature="0"
   style="fill:#ffffff" />
	<path
   class="st2"
   d="m 735.8,167.8 c -0.1,0 -0.2,0.1 -0.3,0.1 0.2,-0.1 0.2,-0.1 0.3,-0.1 z"
   id="path1920"
   inkscape:connector-curvature="0"
   style="fill:#ffffff" />
	<path
   class="st2"
   d="m 735.8,167.8 c -0.1,0 -0.2,0.1 -0.3,0.1 0.2,-0.1 0.2,-0.1 0.3,-0.1 z"
   id="path1922"
   inkscape:connector-curvature="0"
   style="fill:#ffffff" />
	<path
   class="st2"
   d="m 737.3,167 c 0,0.1 -0.1,0.1 0,0 -0.2,0.1 -0.4,0.2 -0.6,0.3 0.2,-0.1 0.4,-0.2 0.6,-0.3 z"
   id="path1924"
   inkscape:connector-curvature="0"
   style="fill:#ffffff" />
	<path
   class="st2"
   d="m 737.3,167 c 0,0.1 -0.1,0.1 0,0 -0.2,0.1 -0.4,0.2 -0.6,0.3 0.2,-0.1 0.4,-0.2 0.6,-0.3 z"
   id="path1926"
   inkscape:connector-curvature="0"
   style="fill:#ffffff" />
	<path
   class="st2"
   d="m 737.3,167 c 0,0.1 -0.1,0.1 0,0 -0.2,0.1 -0.4,0.2 -0.6,0.3 0.2,-0.1 0.4,-0.2 0.6,-0.3 z"
   id="path1928"
   inkscape:connector-curvature="0"
   style="fill:#ffffff" />
	<path
   class="st2"
   d="m 735,168.4 c -0.6,0.3 -1.3,0.6 -1.9,1 l -40.7,23.5 c -0.6,0.3 -1.1,0.7 -1.6,1 0,0 0,0 0,0 -0.2,0.1 -0.4,0.2 -0.5,0.2 0,0 0,0 0,0 1,-0.7 2,-1.3 3,-1.9 L 734,168.7 c 0.5,-0.3 1.1,-0.6 1.6,-0.9 0.1,0 0.2,-0.1 0.3,-0.1 0.3,-0.1 0.6,-0.3 0.9,-0.4 0.2,-0.1 0.3,-0.2 0.5,-0.2 -0.3,0.2 -0.7,0.5 -1,0.7 0,0 0,0 0,0 -0.5,0.2 -0.9,0.4 -1.3,0.6 z"
   id="path1930"
   inkscape:connector-curvature="0"
   style="fill:#ffffff" />
	<path
   class="st2"
   d="m 735,168.4 c -0.6,0.3 -1.3,0.6 -1.9,1 l -40.7,23.5 c -0.6,0.3 -1.1,0.7 -1.6,1 0,0 0,0 0,0 -0.2,0.1 -0.4,0.2 -0.5,0.2 0,0 0,0 0,0 1,-0.7 2,-1.3 3,-1.9 L 734,168.7 c 0.5,-0.3 1.1,-0.6 1.6,-0.9 0.1,0 0.2,-0.1 0.3,-0.1 0.3,-0.1 0.6,-0.3 0.9,-0.4 0.2,-0.1 0.3,-0.2 0.5,-0.2 -0.3,0.2 -0.7,0.5 -1,0.7 0,0 0,0 0,0 -0.5,0.2 -0.9,0.4 -1.3,0.6 z"
   id="path1932"
   inkscape:connector-curvature="0"
   style="fill:#ffffff" />
	<path
   class="st2"
   d="m 735,168.4 c -0.6,0.3 -1.3,0.6 -1.9,1 l -40.7,23.5 c -0.6,0.3 -1.1,0.7 -1.6,1 0,0 0,0 0,0 -0.2,0.1 -0.4,0.2 -0.5,0.2 0,0 0,0 0,0 1,-0.7 2,-1.3 3,-1.9 L 734,168.7 c 0.5,-0.3 1.1,-0.6 1.6,-0.9 0.1,0 0.2,-0.1 0.3,-0.1 0.3,-0.1 0.6,-0.3 0.9,-0.4 0.2,-0.1 0.3,-0.2 0.5,-0.2 -0.3,0.2 -0.7,0.5 -1,0.7 0,0 0,0 0,0 -0.5,0.2 -0.9,0.4 -1.3,0.6 z"
   id="path1934"
   inkscape:connector-curvature="0"
   style="fill:#ffffff" />
	<path
   class="st2"
   d="m 735,168.4 c -0.6,0.3 -1.3,0.6 -1.9,1 l -40.7,23.5 c -0.6,0.3 -1.1,0.7 -1.6,1 0,0 0,0 0,0 -0.2,0.1 -0.4,0.2 -0.5,0.2 0,0 0,0 0,0 1,-0.7 2,-1.3 3,-1.9 L 734,168.7 c 0.5,-0.3 1.1,-0.6 1.6,-0.9 0.1,0 0.2,-0.1 0.3,-0.1 0.3,-0.1 0.6,-0.3 0.9,-0.4 0.2,-0.1 0.3,-0.2 0.5,-0.2 -0.3,0.2 -0.7,0.5 -1,0.7 0,0 0,0 0,0 -0.5,0.2 -0.9,0.4 -1.3,0.6 z"
   id="path1936"
   inkscape:connector-curvature="0"
   style="fill:#ffffff" />
	<path
   class="st2"
   d="m 735,168.4 c 0.4,-0.2 0.8,-0.4 1.2,-0.6 -0.4,0.2 -0.8,0.4 -1.2,0.6 z"
   id="path1938"
   inkscape:connector-curvature="0"
   style="fill:#ffffff" />
	<path
   class="st2"
   d="m 735,168.4 c 0.4,-0.2 0.8,-0.4 1.2,-0.6 -0.4,0.2 -0.8,0.4 -1.2,0.6 z"
   id="path1940"
   inkscape:connector-curvature="0"
   style="fill:#ffffff" />
	<path
   class="st2"
   d="m 735,168.4 c 0.4,-0.2 0.8,-0.4 1.2,-0.6 -0.4,0.2 -0.8,0.4 -1.2,0.6 z"
   id="path1942"
   inkscape:connector-curvature="0"
   style="fill:#ffffff" />
	<path
   class="st2"
   d="m 735,168.4 c 0.4,-0.2 0.8,-0.4 1.2,-0.6 -0.4,0.2 -0.8,0.4 -1.2,0.6 z"
   id="path1944"
   inkscape:connector-curvature="0"
   style="fill:#ffffff" />
	<path
   class="st2"
   d="m 735,168.4 c 0.4,-0.2 0.8,-0.4 1.2,-0.6 -0.4,0.2 -0.8,0.4 -1.2,0.6 z"
   id="path1946"
   inkscape:connector-curvature="0"
   style="fill:#ffffff" />
	<path
   class="st2"
   d="m 688.4,250 c -0.3,0.2 -0.5,0.4 -0.8,0.6 0.3,-0.2 0.6,-0.4 0.8,-0.6 z"
   id="path1948"
   inkscape:connector-curvature="0"
   style="fill:#ffffff" />
	<path
   class="st2"
   d="m 688.4,250 c -0.3,0.2 -0.5,0.4 -0.8,0.6 0.3,-0.2 0.6,-0.4 0.8,-0.6 z"
   id="path1950"
   inkscape:connector-curvature="0"
   style="fill:#ffffff" />
	<path
   class="st2"
   d="m 686.6,251.5 c -0.3,0.2 -0.5,0.5 -0.8,0.7 0.2,-0.3 0.5,-0.5 0.8,-0.7 z"
   id="path1952"
   inkscape:connector-curvature="0"
   style="fill:#ffffff" />
	<path
   class="st2"
   d="m 686.6,251.5 c -0.3,0.2 -0.5,0.5 -0.8,0.7 0.2,-0.3 0.5,-0.5 0.8,-0.7 z"
   id="path1954"
   inkscape:connector-curvature="0"
   style="fill:#ffffff" />
	<path
   class="st2"
   d="m 690.4,248.6 c -0.2,0.1 -0.4,0.3 -0.7,0.5 0.3,-0.2 0.5,-0.3 0.7,-0.5 z"
   id="path1956"
   inkscape:connector-curvature="0"
   style="fill:#ffffff" />
	<path
   class="st2"
   d="m 690.4,248.6 c -0.2,0.1 -0.4,0.3 -0.7,0.5 0.3,-0.2 0.5,-0.3 0.7,-0.5 z"
   id="path1958"
   inkscape:connector-curvature="0"
   style="fill:#ffffff" />
	<polygon
   class="st2"
   points=""
   id="polygon1960"
   style="fill:#ffffff" />
	<polygon
   class="st2"
   points=""
   id="polygon1962"
   style="fill:#ffffff" />
	<path
   class="st2"
   d="m 687.9,196 v 0 c 0.5,-0.4 1.1,-0.8 1.7,-1.2 -0.6,0.4 -1.2,0.8 -1.7,1.2 z"
   id="path1964"
   inkscape:connector-curvature="0"
   style="fill:#ffffff" />
	<path
   class="st2"
   d="m 687.9,196 v 0 c 0.5,-0.4 1.1,-0.8 1.7,-1.2 -0.6,0.4 -1.2,0.8 -1.7,1.2 z"
   id="path1966"
   inkscape:connector-curvature="0"
   style="fill:#ffffff" />
	<path
   class="st2"
   d="m 672.4,229.4 v -0.8 c 0,-0.1 0,-0.2 0,-0.3 1.3,8 4.9,15.4 10.3,21.4 -5.2,-5.7 -8.8,-12.7 -10.3,-20.3 z"
   id="path1968"
   inkscape:connector-curvature="0"
   style="fill:#ffffff" />
	<path
   class="st2"
   d="m 672.4,229.4 v -0.8 c 0,-0.1 0,-0.2 0,-0.3 1.3,8 4.9,15.4 10.3,21.4 -5.2,-5.7 -8.8,-12.7 -10.3,-20.3 z"
   id="path1970"
   inkscape:connector-curvature="0"
   style="fill:#ffffff" />
	<polygon
   class="st2"
   points=""
   id="polygon1972"
   style="fill:#ffffff" />
	<polygon
   class="st2"
   points=""
   id="polygon1974"
   style="fill:#ffffff" />
	<polygon
   class="st2"
   points=""
   id="polygon1976"
   style="fill:#ffffff" />
	<path
   class="st2"
   d="m 715.1,192 c -0.7,-0.2 -1.4,-0.3 -2.1,-0.4 0.7,0.1 1.4,0.3 2.1,0.4 z"
   id="path1978"
   inkscape:connector-curvature="0"
   style="fill:#ffffff" />
	<path
   class="st2"
   d="m 715.1,192 c -0.7,-0.2 -1.4,-0.3 -2.1,-0.4 0.7,0.1 1.4,0.3 2.1,0.4 z"
   id="path1980"
   inkscape:connector-curvature="0"
   style="fill:#ffffff" />
	<path
   class="st2"
   d="m 715.1,192 c -0.7,-0.2 -1.4,-0.3 -2.1,-0.4 0.7,0.1 1.4,0.3 2.1,0.4 z"
   id="path1982"
   inkscape:connector-curvature="0"
   style="fill:#ffffff" />
	<path
   class="st2"
   d="m 715.1,192 c -0.7,-0.2 -1.4,-0.3 -2.1,-0.4 0.7,0.1 1.4,0.3 2.1,0.4 z"
   id="path1984"
   inkscape:connector-curvature="0"
   style="fill:#ffffff" />
	<path
   class="st2"
   d="m 705.2,191.1 c -0.6,0 -1.3,0 -1.9,0.1 0.6,-0.1 1.2,-0.1 1.9,-0.1 z"
   id="path1986"
   inkscape:connector-curvature="0"
   style="fill:#ffffff" />
	<path
   class="st2"
   d="m 705.2,191.1 c -0.6,0 -1.3,0 -1.9,0.1 0.6,-0.1 1.2,-0.1 1.9,-0.1 z"
   id="path1988"
   inkscape:connector-curvature="0"
   style="fill:#ffffff" />
	<path
   class="st2"
   d="m 705.2,191.1 c -0.6,0 -1.3,0 -1.9,0.1 0.6,-0.1 1.2,-0.1 1.9,-0.1 z"
   id="path1990"
   inkscape:connector-curvature="0"
   style="fill:#ffffff" />
	<path
   class="st2"
   d="m 705.2,191.1 c -0.6,0 -1.3,0 -1.9,0.1 0.6,-0.1 1.2,-0.1 1.9,-0.1 z"
   id="path1992"
   inkscape:connector-curvature="0"
   style="fill:#ffffff" />
	<path
   class="st2"
   d="m 712.6,191.5 c -0.6,-0.1 -1.2,-0.2 -1.8,-0.2 0.5,0.1 1.2,0.1 1.8,0.2 z"
   id="path1994"
   inkscape:connector-curvature="0"
   style="fill:#ffffff" />
	<path
   class="st2"
   d="m 712.6,191.5 c -0.6,-0.1 -1.2,-0.2 -1.8,-0.2 0.5,0.1 1.2,0.1 1.8,0.2 z"
   id="path1996"
   inkscape:connector-curvature="0"
   style="fill:#ffffff" />
	<path
   class="st2"
   d="m 712.6,191.5 c -0.6,-0.1 -1.2,-0.2 -1.8,-0.2 0.5,0.1 1.2,0.1 1.8,0.2 z"
   id="path1998"
   inkscape:connector-curvature="0"
   style="fill:#ffffff" />
	<path
   class="st2"
   d="m 712.6,191.5 c -0.6,-0.1 -1.2,-0.2 -1.8,-0.2 0.5,0.1 1.2,0.1 1.8,0.2 z"
   id="path2000"
   inkscape:connector-curvature="0"
   style="fill:#ffffff" />
	<path
   class="st2"
   d="m 707.7,191.1 c -0.7,0 -1.4,0 -2.2,0 0.7,-0.1 1.4,-0.1 2.2,0 z"
   id="path2002"
   inkscape:connector-curvature="0"
   style="fill:#ffffff" />
	<path
   class="st2"
   d="m 707.7,191.1 c -0.7,0 -1.4,0 -2.2,0 0.7,-0.1 1.4,-0.1 2.2,0 z"
   id="path2004"
   inkscape:connector-curvature="0"
   style="fill:#ffffff" />
	<path
   class="st2"
   d="m 707.7,191.1 c -0.7,0 -1.4,0 -2.2,0 0.7,-0.1 1.4,-0.1 2.2,0 z"
   id="path2006"
   inkscape:connector-curvature="0"
   style="fill:#ffffff" />
	<path
   class="st2"
   d="m 707.7,191.1 c -0.7,0 -1.4,0 -2.2,0 0.7,-0.1 1.4,-0.1 2.2,0 z"
   id="path2008"
   inkscape:connector-curvature="0"
   style="fill:#ffffff" />
	<path
   class="st2"
   d="m 700.2,191.5 c -0.7,0.1 -1.4,0.2 -2.2,0.4 0.8,-0.2 1.5,-0.3 2.2,-0.4 z"
   id="path2010"
   inkscape:connector-curvature="0"
   style="fill:#ffffff" />
	<path
   class="st2"
   d="m 700.2,191.5 c -0.7,0.1 -1.4,0.2 -2.2,0.4 0.8,-0.2 1.5,-0.3 2.2,-0.4 z"
   id="path2012"
   inkscape:connector-curvature="0"
   style="fill:#ffffff" />
	<path
   class="st2"
   d="m 700.2,191.5 c -0.7,0.1 -1.4,0.2 -2.2,0.4 0.8,-0.2 1.5,-0.3 2.2,-0.4 z"
   id="path2014"
   inkscape:connector-curvature="0"
   style="fill:#ffffff" />
	<path
   class="st2"
   d="m 700.2,191.5 c -0.7,0.1 -1.4,0.2 -2.2,0.4 0.8,-0.2 1.5,-0.3 2.2,-0.4 z"
   id="path2016"
   inkscape:connector-curvature="0"
   style="fill:#ffffff" />
	<path
   class="st2"
   d="m 719.8,193.3 c -0.6,-0.2 -1.2,-0.4 -1.7,-0.6 0.6,0.3 1.1,0.4 1.7,0.6 z"
   id="path2018"
   inkscape:connector-curvature="0"
   style="fill:#ffffff" />
	<path
   class="st2"
   d="m 719.8,193.3 c -0.6,-0.2 -1.2,-0.4 -1.7,-0.6 0.6,0.3 1.1,0.4 1.7,0.6 z"
   id="path2020"
   inkscape:connector-curvature="0"
   style="fill:#ffffff" />
	<path
   class="st2"
   d="m 719.8,193.3 c -0.6,-0.2 -1.2,-0.4 -1.7,-0.6 0.6,0.3 1.1,0.4 1.7,0.6 z"
   id="path2022"
   inkscape:connector-curvature="0"
   style="fill:#ffffff" />
	<path
   class="st2"
   d="m 719.8,193.3 c -0.6,-0.2 -1.2,-0.4 -1.7,-0.6 0.6,0.3 1.1,0.4 1.7,0.6 z"
   id="path2024"
   inkscape:connector-curvature="0"
   style="fill:#ffffff" />
	<path
   class="st2"
   d="m 697.8,191.9 c -0.7,0.1 -1.3,0.3 -1.9,0.4 0.6,-0.1 1.3,-0.3 1.9,-0.4 z"
   id="path2026"
   inkscape:connector-curvature="0"
   style="fill:#ffffff" />
	<path
   class="st2"
   d="m 697.8,191.9 c -0.7,0.1 -1.3,0.3 -1.9,0.4 0.6,-0.1 1.3,-0.3 1.9,-0.4 z"
   id="path2028"
   inkscape:connector-curvature="0"
   style="fill:#ffffff" />
	<path
   class="st2"
   d="m 697.8,191.9 c -0.7,0.1 -1.3,0.3 -1.9,0.4 0.6,-0.1 1.3,-0.3 1.9,-0.4 z"
   id="path2030"
   inkscape:connector-curvature="0"
   style="fill:#ffffff" />
	<path
   class="st2"
   d="m 697.8,191.9 c -0.7,0.1 -1.3,0.3 -1.9,0.4 0.6,-0.1 1.3,-0.3 1.9,-0.4 z"
   id="path2032"
   inkscape:connector-curvature="0"
   style="fill:#ffffff" />
	<path
   class="st2"
   d="m 695.2,192.5 c -0.5,0.1 -1,0.3 -1.5,0.4 0.4,-0.1 0.9,-0.2 1.5,-0.4 z"
   id="path2034"
   inkscape:connector-curvature="0"
   style="fill:#ffffff" />
	<path
   class="st2"
   d="m 695.2,192.5 c -0.5,0.1 -1,0.3 -1.5,0.4 0.4,-0.1 0.9,-0.2 1.5,-0.4 z"
   id="path2036"
   inkscape:connector-curvature="0"
   style="fill:#ffffff" />
	<path
   class="st2"
   d="m 695.2,192.5 c -0.5,0.1 -1,0.3 -1.5,0.4 0.4,-0.1 0.9,-0.2 1.5,-0.4 z"
   id="path2038"
   inkscape:connector-curvature="0"
   style="fill:#ffffff" />
	<path
   class="st2"
   d="m 695.2,192.5 c -0.5,0.1 -1,0.3 -1.5,0.4 0.4,-0.1 0.9,-0.2 1.5,-0.4 z"
   id="path2040"
   inkscape:connector-curvature="0"
   style="fill:#ffffff" />
	<path
   class="st2"
   d="m 702.5,191.2 c -0.5,0 -1,0.1 -1.6,0.2 0.6,-0.1 1.1,-0.1 1.6,-0.2 z"
   id="path2042"
   inkscape:connector-curvature="0"
   style="fill:#ffffff" />
	<path
   class="st2"
   d="m 702.5,191.2 c -0.5,0 -1,0.1 -1.6,0.2 0.6,-0.1 1.1,-0.1 1.6,-0.2 z"
   id="path2044"
   inkscape:connector-curvature="0"
   style="fill:#ffffff" />
	<path
   class="st2"
   d="m 702.5,191.2 c -0.5,0 -1,0.1 -1.6,0.2 0.6,-0.1 1.1,-0.1 1.6,-0.2 z"
   id="path2046"
   inkscape:connector-curvature="0"
   style="fill:#ffffff" />
	<path
   class="st2"
   d="m 702.5,191.2 c -0.5,0 -1,0.1 -1.6,0.2 0.6,-0.1 1.1,-0.1 1.6,-0.2 z"
   id="path2048"
   inkscape:connector-curvature="0"
   style="fill:#ffffff" />
	<path
   class="st2"
   d="m 717.3,192.6 c -0.5,-0.1 -1,-0.3 -1.5,-0.4 0.5,0.1 1,0.2 1.5,0.4 z"
   id="path2050"
   inkscape:connector-curvature="0"
   style="fill:#ffffff" />
	<path
   class="st2"
   d="m 717.3,192.6 c -0.5,-0.1 -1,-0.3 -1.5,-0.4 0.5,0.1 1,0.2 1.5,0.4 z"
   id="path2052"
   inkscape:connector-curvature="0"
   style="fill:#ffffff" />
	<path
   class="st2"
   d="m 717.3,192.6 c -0.5,-0.1 -1,-0.3 -1.5,-0.4 0.5,0.1 1,0.2 1.5,0.4 z"
   id="path2054"
   inkscape:connector-curvature="0"
   style="fill:#ffffff" />
	<path
   class="st2"
   d="m 717.3,192.6 c -0.5,-0.1 -1,-0.3 -1.5,-0.4 0.5,0.1 1,0.2 1.5,0.4 z"
   id="path2056"
   inkscape:connector-curvature="0"
   style="fill:#ffffff" />
	<path
   class="st2"
   d="m 709.9,191.2 c -0.5,0 -1,-0.1 -1.5,-0.1 0.5,0 1,0.1 1.5,0.1 z"
   id="path2058"
   inkscape:connector-curvature="0"
   style="fill:#ffffff" />
	<path
   class="st2"
   d="m 709.9,191.2 c -0.5,0 -1,-0.1 -1.5,-0.1 0.5,0 1,0.1 1.5,0.1 z"
   id="path2060"
   inkscape:connector-curvature="0"
   style="fill:#ffffff" />
	<path
   class="st2"
   d="m 709.9,191.2 c -0.5,0 -1,-0.1 -1.5,-0.1 0.5,0 1,0.1 1.5,0.1 z"
   id="path2062"
   inkscape:connector-curvature="0"
   style="fill:#ffffff" />
	<path
   class="st2"
   d="m 709.9,191.2 c -0.5,0 -1,-0.1 -1.5,-0.1 0.5,0 1,0.1 1.5,0.1 z"
   id="path2064"
   inkscape:connector-curvature="0"
   style="fill:#ffffff" />
	<polygon
   class="st2"
   points=""
   id="polygon2066"
   style="fill:#ffffff" />
	<polygon
   class="st2"
   points=""
   id="polygon2068"
   style="fill:#ffffff" />
	<polygon
   class="st2"
   points=""
   id="polygon2070"
   style="fill:#ffffff" />
	<polygon
   class="st2"
   points=""
   id="polygon2072"
   style="fill:#ffffff" />
	<path
   class="st2"
   d="m 690.8,193.9 c 0.7,-0.3 1.4,-0.5 2.1,-0.8 -0.7,0.3 -1.4,0.6 -2.1,0.8 z"
   id="path2074"
   inkscape:connector-curvature="0"
   style="fill:#ffffff" />
	<path
   class="st2"
   d="m 690.8,193.9 c 0.7,-0.3 1.4,-0.5 2.1,-0.8 -0.7,0.3 -1.4,0.6 -2.1,0.8 z"
   id="path2076"
   inkscape:connector-curvature="0"
   style="fill:#ffffff" />
	<path
   class="st2"
   d="m 690.8,193.9 c 0.7,-0.3 1.4,-0.5 2.1,-0.8 -0.7,0.3 -1.4,0.6 -2.1,0.8 z"
   id="path2078"
   inkscape:connector-curvature="0"
   style="fill:#ffffff" />
	<path
   class="st2"
   d="m 690.8,193.9 c 0.7,-0.3 1.4,-0.5 2.1,-0.8 -0.7,0.3 -1.4,0.6 -2.1,0.8 z"
   id="path2080"
   inkscape:connector-curvature="0"
   style="fill:#ffffff" />
	<path
   class="st2"
   d="m 679.3,259.2 c 0.3,-0.4 0.5,-0.7 0.8,-1.1 -0.2,0.4 -0.5,0.8 -0.8,1.1 z"
   id="path2082"
   inkscape:connector-curvature="0"
   style="fill:#ffffff" />
	<path
   class="st2"
   d="m 679.3,259.2 c 0.3,-0.4 0.5,-0.7 0.8,-1.1 -0.2,0.4 -0.5,0.8 -0.8,1.1 z"
   id="path2084"
   inkscape:connector-curvature="0"
   style="fill:#ffffff" />
	<path
   class="st2"
   d="m 680.8,257.3 c 0.3,-0.3 0.5,-0.6 0.8,-0.9 -0.3,0.3 -0.6,0.6 -0.8,0.9 z"
   id="path2086"
   inkscape:connector-curvature="0"
   style="fill:#ffffff" />
	<path
   class="st2"
   d="m 680.8,257.3 c 0.3,-0.3 0.5,-0.6 0.8,-0.9 -0.3,0.3 -0.6,0.6 -0.8,0.9 z"
   id="path2088"
   inkscape:connector-curvature="0"
   style="fill:#ffffff" />
	<path
   class="st2"
   d="m 682.3,255.5 c 0.3,-0.3 0.5,-0.6 0.8,-0.8 -0.2,0.3 -0.5,0.5 -0.8,0.8 z"
   id="path2090"
   inkscape:connector-curvature="0"
   style="fill:#ffffff" />
	<path
   class="st2"
   d="m 682.3,255.5 c 0.3,-0.3 0.5,-0.6 0.8,-0.8 -0.2,0.3 -0.5,0.5 -0.8,0.8 z"
   id="path2092"
   inkscape:connector-curvature="0"
   style="fill:#ffffff" />
	<path
   class="st2"
   d="m 677.2,262.7 c 0.6,-1.1 1.3,-2.1 2,-3.1 -0.8,0.9 -1.4,2 -2,3.1 z"
   id="path2094"
   inkscape:connector-curvature="0"
   style="fill:#ffffff" />
	<path
   class="st2"
   d="m 677.2,262.7 c 0.6,-1.1 1.3,-2.1 2,-3.1 -0.8,0.9 -1.4,2 -2,3.1 z"
   id="path2096"
   inkscape:connector-curvature="0"
   style="fill:#ffffff" />
	<path
   class="st2"
   d="m 672.9,273.1 c 0.1,-0.6 0.3,-1.1 0.5,-1.7 -0.2,0.5 -0.4,1.1 -0.5,1.7 z"
   id="path2098"
   inkscape:connector-curvature="0"
   style="fill:#ffffff" />
	<path
   class="st2"
   d="m 672.9,273.1 c 0.1,-0.6 0.3,-1.1 0.5,-1.7 -0.2,0.5 -0.4,1.1 -0.5,1.7 z"
   id="path2100"
   inkscape:connector-curvature="0"
   style="fill:#ffffff" />
	<path
   class="st2"
   d="m 673.5,270.8 c 0.2,-0.5 0.4,-1.1 0.5,-1.6 -0.1,0.6 -0.3,1.1 -0.5,1.6 z"
   id="path2102"
   inkscape:connector-curvature="0"
   style="fill:#ffffff" />
	<path
   class="st2"
   d="m 673.5,270.8 c 0.2,-0.5 0.4,-1.1 0.5,-1.6 -0.1,0.6 -0.3,1.1 -0.5,1.6 z"
   id="path2104"
   inkscape:connector-curvature="0"
   style="fill:#ffffff" />
	<path
   class="st2"
   d="m 676.2,264.5 c 0.3,-0.5 0.5,-1 0.8,-1.5 -0.3,0.5 -0.6,1 -0.8,1.5 z"
   id="path2106"
   inkscape:connector-curvature="0"
   style="fill:#ffffff" />
	<path
   class="st2"
   d="m 676.2,264.5 c 0.3,-0.5 0.5,-1 0.8,-1.5 -0.3,0.5 -0.6,1 -0.8,1.5 z"
   id="path2108"
   inkscape:connector-curvature="0"
   style="fill:#ffffff" />
	<path
   class="st2"
   d="m 674.3,268.6 c 0.2,-0.5 0.4,-1 0.6,-1.5 -0.2,0.5 -0.4,1 -0.6,1.5 z"
   id="path2110"
   inkscape:connector-curvature="0"
   style="fill:#ffffff" />
	<path
   class="st2"
   d="m 674.3,268.6 c 0.2,-0.5 0.4,-1 0.6,-1.5 -0.2,0.5 -0.4,1 -0.6,1.5 z"
   id="path2112"
   inkscape:connector-curvature="0"
   style="fill:#ffffff" />
	<path
   class="st2"
   d="m 672.4,275.3 c 0.1,-0.6 0.3,-1.2 0.4,-1.8 -0.2,0.6 -0.3,1.2 -0.4,1.8 z"
   id="path2114"
   inkscape:connector-curvature="0"
   style="fill:#ffffff" />
	<path
   class="st2"
   d="m 672.4,275.3 c 0.1,-0.6 0.3,-1.2 0.4,-1.8 -0.2,0.6 -0.3,1.2 -0.4,1.8 z"
   id="path2116"
   inkscape:connector-curvature="0"
   style="fill:#ffffff" />
	<path
   class="st2"
   d="m 675.2,266.5 c 0.2,-0.5 0.4,-1 0.7,-1.5 -0.3,0.5 -0.5,1 -0.7,1.5 z"
   id="path2118"
   inkscape:connector-curvature="0"
   style="fill:#ffffff" />
	<path
   class="st2"
   d="m 675.2,266.5 c 0.2,-0.5 0.4,-1 0.7,-1.5 -0.3,0.5 -0.5,1 -0.7,1.5 z"
   id="path2120"
   inkscape:connector-curvature="0"
   style="fill:#ffffff" />
	<path
   class="st2"
   d="m 684.8,253 c -0.3,0.3 -0.5,0.5 -0.8,0.8 0.2,-0.3 0.5,-0.5 0.8,-0.8 z"
   id="path2122"
   inkscape:connector-curvature="0"
   style="fill:#ffffff" />
	<path
   class="st2"
   d="m 684.8,253 c -0.3,0.3 -0.5,0.5 -0.8,0.8 0.2,-0.3 0.5,-0.5 0.8,-0.8 z"
   id="path2124"
   inkscape:connector-curvature="0"
   style="fill:#ffffff" />
	<path
   class="st2"
   d="m 672.4,229.4 c 1.5,7.6 5.1,14.6 10.3,20.2 0.9,1 1.8,1.9 2.8,2.8 -0.2,0.2 -0.5,0.4 -0.7,0.7 -0.3,0.3 -0.5,0.5 -0.8,0.8 -0.3,0.3 -0.6,0.6 -0.9,0.9 -0.3,0.3 -0.5,0.6 -0.8,0.8 -0.3,0.3 -0.5,0.6 -0.8,0.9 -0.3,0.3 -0.5,0.6 -0.8,0.9 -0.2,0.3 -0.4,0.6 -0.6,0.8 -0.3,0.4 -0.5,0.7 -0.8,1.1 -0.1,0.1 -0.1,0.2 -0.2,0.3 -0.7,1 -1.4,2.1 -2,3.1 -0.1,0.1 -0.1,0.2 -0.2,0.3 -0.3,0.5 -0.5,1 -0.8,1.5 -0.1,0.2 -0.2,0.4 -0.3,0.6 -0.2,0.5 -0.5,1 -0.7,1.5 -0.1,0.2 -0.2,0.4 -0.3,0.6 -0.2,0.5 -0.4,1 -0.6,1.5 -0.1,0.2 -0.2,0.4 -0.2,0.6 -0.2,0.5 -0.4,1 -0.5,1.6 -0.1,0.2 -0.1,0.4 -0.2,0.6 -0.2,0.6 -0.3,1.1 -0.5,1.7 0,0.1 -0.1,0.3 -0.1,0.4 -0.2,0.6 -0.3,1.2 -0.4,1.8 v 0 -46 z"
   id="path2126"
   inkscape:connector-curvature="0"
   style="fill:#ffffff" />
	<path
   class="st2"
   d="m 672.4,229.4 c 1.5,7.6 5.1,14.6 10.3,20.2 0.9,1 1.8,1.9 2.8,2.8 -0.2,0.2 -0.5,0.4 -0.7,0.7 -0.3,0.3 -0.5,0.5 -0.8,0.8 -0.3,0.3 -0.6,0.6 -0.9,0.9 -0.3,0.3 -0.5,0.6 -0.8,0.8 -0.3,0.3 -0.5,0.6 -0.8,0.9 -0.3,0.3 -0.5,0.6 -0.8,0.9 -0.2,0.3 -0.4,0.6 -0.6,0.8 -0.3,0.4 -0.5,0.7 -0.8,1.1 -0.1,0.1 -0.1,0.2 -0.2,0.3 -0.7,1 -1.4,2.1 -2,3.1 -0.1,0.1 -0.1,0.2 -0.2,0.3 -0.3,0.5 -0.5,1 -0.8,1.5 -0.1,0.2 -0.2,0.4 -0.3,0.6 -0.2,0.5 -0.5,1 -0.7,1.5 -0.1,0.2 -0.2,0.4 -0.3,0.6 -0.2,0.5 -0.4,1 -0.6,1.5 -0.1,0.2 -0.2,0.4 -0.2,0.6 -0.2,0.5 -0.4,1 -0.5,1.6 -0.1,0.2 -0.1,0.4 -0.2,0.6 -0.2,0.6 -0.3,1.1 -0.5,1.7 0,0.1 -0.1,0.3 -0.1,0.4 -0.2,0.6 -0.3,1.2 -0.4,1.8 v 0 -46 z"
   id="path2128"
   inkscape:connector-curvature="0"
   style="fill:#ffffff" />
	<path
   class="st2"
   d="m 672.4,229.4 c 1.5,7.6 5.1,14.6 10.3,20.2 0.9,1 1.8,1.9 2.8,2.8 -0.2,0.2 -0.5,0.4 -0.7,0.7 -0.3,0.3 -0.5,0.5 -0.8,0.8 -0.3,0.3 -0.6,0.6 -0.9,0.9 -0.3,0.3 -0.5,0.6 -0.8,0.8 -0.3,0.3 -0.5,0.6 -0.8,0.9 -0.3,0.3 -0.5,0.6 -0.8,0.9 -0.2,0.3 -0.4,0.6 -0.6,0.8 -0.3,0.4 -0.5,0.7 -0.8,1.1 -0.1,0.1 -0.1,0.2 -0.2,0.3 -0.7,1 -1.4,2.1 -2,3.1 -0.1,0.1 -0.1,0.2 -0.2,0.3 -0.3,0.5 -0.5,1 -0.8,1.5 -0.1,0.2 -0.2,0.4 -0.3,0.6 -0.2,0.5 -0.5,1 -0.7,1.5 -0.1,0.2 -0.2,0.4 -0.3,0.6 -0.2,0.5 -0.4,1 -0.6,1.5 -0.1,0.2 -0.2,0.4 -0.2,0.6 -0.2,0.5 -0.4,1 -0.5,1.6 -0.1,0.2 -0.1,0.4 -0.2,0.6 -0.2,0.6 -0.3,1.1 -0.5,1.7 0,0.1 -0.1,0.3 -0.1,0.4 -0.2,0.6 -0.3,1.2 -0.4,1.8 v 0 -46 z"
   id="path2130"
   inkscape:connector-curvature="0"
   style="fill:#ffffff" />
	<path
   class="st2"
   d="m 685.5,252.4 c 0,0 0,0 0,0 -1,-0.9 -1.9,-1.8 -2.8,-2.8 0.9,1 1.8,1.9 2.8,2.8 z"
   id="path2132"
   inkscape:connector-curvature="0"
   style="fill:#ffffff" />
	<path
   class="st2"
   d="m 685.5,252.4 c 0,0 0,0 0,0 -1,-0.9 -1.9,-1.8 -2.8,-2.8 0.9,1 1.8,1.9 2.8,2.8 z"
   id="path2134"
   inkscape:connector-curvature="0"
   style="fill:#ffffff" />
	<path
   class="st2"
   d="m 685.5,252.4 c 0,0 0,0 0,0 -1,-0.9 -1.9,-1.8 -2.8,-2.8 0.9,1 1.8,1.9 2.8,2.8 z"
   id="path2136"
   inkscape:connector-curvature="0"
   style="fill:#ffffff" />
	<path
   class="st2"
   d="m 685.5,252.4 c 0,0 0,0 0,0 -1,-0.9 -1.9,-1.8 -2.8,-2.8 0.9,1 1.8,1.9 2.8,2.8 z"
   id="path2138"
   inkscape:connector-curvature="0"
   style="fill:#ffffff" />
	<path
   class="st2"
   d="m 695.9,192.3 c -0.2,0.1 -0.5,0.1 -0.7,0.2 0.2,0 0.4,-0.1 0.7,-0.2 z"
   id="path2140"
   inkscape:connector-curvature="0"
   style="fill:#ffffff" />
	<path
   class="st2"
   d="m 695.9,192.3 c -0.2,0.1 -0.5,0.1 -0.7,0.2 0.2,0 0.4,-0.1 0.7,-0.2 z"
   id="path2142"
   inkscape:connector-curvature="0"
   style="fill:#ffffff" />
	<path
   class="st2"
   d="m 695.9,192.3 c -0.2,0.1 -0.5,0.1 -0.7,0.2 0.2,0 0.4,-0.1 0.7,-0.2 z"
   id="path2144"
   inkscape:connector-curvature="0"
   style="fill:#ffffff" />
	<path
   class="st2"
   d="m 720.2,193.5 c -0.1,0 -0.3,-0.1 -0.4,-0.1 0.1,0 0.3,0 0.4,0.1 z"
   id="path2146"
   inkscape:connector-curvature="0"
   style="fill:#ffffff" />
	<path
   class="st2"
   d="m 720.2,193.5 c -0.1,0 -0.3,-0.1 -0.4,-0.1 0.1,0 0.3,0 0.4,0.1 z"
   id="path2148"
   inkscape:connector-curvature="0"
   style="fill:#ffffff" />
	<path
   class="st2"
   d="m 720.2,193.5 c -0.1,0 -0.3,-0.1 -0.4,-0.1 0.1,0 0.3,0 0.4,0.1 z"
   id="path2150"
   inkscape:connector-curvature="0"
   style="fill:#ffffff" />
	<path
   class="st2"
   d="m 693.6,193 c -0.2,0.1 -0.5,0.1 -0.7,0.2 0.3,-0.1 0.5,-0.2 0.7,-0.2 z"
   id="path2152"
   inkscape:connector-curvature="0"
   style="fill:#ffffff" />
	<path
   class="st2"
   d="m 693.6,193 c -0.2,0.1 -0.5,0.1 -0.7,0.2 0.3,-0.1 0.5,-0.2 0.7,-0.2 z"
   id="path2154"
   inkscape:connector-curvature="0"
   style="fill:#ffffff" />
	<path
   class="st2"
   d="m 693.6,193 c -0.2,0.1 -0.5,0.1 -0.7,0.2 0.3,-0.1 0.5,-0.2 0.7,-0.2 z"
   id="path2156"
   inkscape:connector-curvature="0"
   style="fill:#ffffff" />
	<path
   class="st2"
   d="m 698.1,191.8 c -0.1,0 -0.2,0 -0.2,0.1 0,0 0.1,-0.1 0.2,-0.1 z"
   id="path2158"
   inkscape:connector-curvature="0"
   style="fill:#ffffff" />
	<path
   class="st2"
   d="m 698.1,191.8 c -0.1,0 -0.2,0 -0.2,0.1 0,0 0.1,-0.1 0.2,-0.1 z"
   id="path2160"
   inkscape:connector-curvature="0"
   style="fill:#ffffff" />
	<path
   class="st2"
   d="m 698.1,191.8 c -0.1,0 -0.2,0 -0.2,0.1 0,0 0.1,-0.1 0.2,-0.1 z"
   id="path2162"
   inkscape:connector-curvature="0"
   style="fill:#ffffff" />
	<path
   class="st2"
   d="m 708.4,191.1 c -0.3,0 -0.5,0 -0.8,0 0.3,0 0.6,0 0.8,0 z"
   id="path2164"
   inkscape:connector-curvature="0"
   style="fill:#ffffff" />
	<path
   class="st2"
   d="m 708.4,191.1 c -0.3,0 -0.5,0 -0.8,0 0.3,0 0.6,0 0.8,0 z"
   id="path2166"
   inkscape:connector-curvature="0"
   style="fill:#ffffff" />
	<path
   class="st2"
   d="m 708.4,191.1 c -0.3,0 -0.5,0 -0.8,0 0.3,0 0.6,0 0.8,0 z"
   id="path2168"
   inkscape:connector-curvature="0"
   style="fill:#ffffff" />
	<path
   class="st2"
   d="m 715.8,192.2 c -0.3,-0.1 -0.5,-0.1 -0.8,-0.2 0.3,0.1 0.6,0.1 0.8,0.2 z"
   id="path2170"
   inkscape:connector-curvature="0"
   style="fill:#ffffff" />
	<path
   class="st2"
   d="m 715.8,192.2 c -0.3,-0.1 -0.5,-0.1 -0.8,-0.2 0.3,0.1 0.6,0.1 0.8,0.2 z"
   id="path2172"
   inkscape:connector-curvature="0"
   style="fill:#ffffff" />
	<path
   class="st2"
   d="m 715.8,192.2 c -0.3,-0.1 -0.5,-0.1 -0.8,-0.2 0.3,0.1 0.6,0.1 0.8,0.2 z"
   id="path2174"
   inkscape:connector-curvature="0"
   style="fill:#ffffff" />
	<path
   class="st2"
   d="m 718.1,192.8 c -0.3,-0.1 -0.5,-0.1 -0.8,-0.2 0.3,0 0.5,0.1 0.8,0.2 z"
   id="path2176"
   inkscape:connector-curvature="0"
   style="fill:#ffffff" />
	<path
   class="st2"
   d="m 718.1,192.8 c -0.3,-0.1 -0.5,-0.1 -0.8,-0.2 0.3,0 0.5,0.1 0.8,0.2 z"
   id="path2178"
   inkscape:connector-curvature="0"
   style="fill:#ffffff" />
	<path
   class="st2"
   d="m 718.1,192.8 c -0.3,-0.1 -0.5,-0.1 -0.8,-0.2 0.3,0 0.5,0.1 0.8,0.2 z"
   id="path2180"
   inkscape:connector-curvature="0"
   style="fill:#ffffff" />
	<path
   class="st2"
   d="m 703.3,191.1 c -0.3,0 -0.5,0 -0.8,0.1 0.3,0 0.5,0 0.8,-0.1 z"
   id="path2182"
   inkscape:connector-curvature="0"
   style="fill:#ffffff" />
	<path
   class="st2"
   d="m 703.3,191.1 c -0.3,0 -0.5,0 -0.8,0.1 0.3,0 0.5,0 0.8,-0.1 z"
   id="path2184"
   inkscape:connector-curvature="0"
   style="fill:#ffffff" />
	<path
   class="st2"
   d="m 703.3,191.1 c -0.3,0 -0.5,0 -0.8,0.1 0.3,0 0.5,0 0.8,-0.1 z"
   id="path2186"
   inkscape:connector-curvature="0"
   style="fill:#ffffff" />
	<path
   class="st2"
   d="m 705.5,191 c -0.1,0 -0.2,0 -0.3,0 0.1,0.1 0.2,0 0.3,0 z"
   id="path2188"
   inkscape:connector-curvature="0"
   style="fill:#ffffff" />
	<path
   class="st2"
   d="m 705.5,191 c -0.1,0 -0.2,0 -0.3,0 0.1,0.1 0.2,0 0.3,0 z"
   id="path2190"
   inkscape:connector-curvature="0"
   style="fill:#ffffff" />
	<path
   class="st2"
   d="m 705.5,191 c -0.1,0 -0.2,0 -0.3,0 0.1,0.1 0.2,0 0.3,0 z"
   id="path2192"
   inkscape:connector-curvature="0"
   style="fill:#ffffff" />
	<path
   class="st2"
   d="m 713,191.6 c -0.1,0 -0.3,0 -0.4,-0.1 0.1,0.1 0.2,0.1 0.4,0.1 z"
   id="path2194"
   inkscape:connector-curvature="0"
   style="fill:#ffffff" />
	<path
   class="st2"
   d="m 713,191.6 c -0.1,0 -0.3,0 -0.4,-0.1 0.1,0.1 0.2,0.1 0.4,0.1 z"
   id="path2196"
   inkscape:connector-curvature="0"
   style="fill:#ffffff" />
	<path
   class="st2"
   d="m 713,191.6 c -0.1,0 -0.3,0 -0.4,-0.1 0.1,0.1 0.2,0.1 0.4,0.1 z"
   id="path2198"
   inkscape:connector-curvature="0"
   style="fill:#ffffff" />
	<path
   class="st2"
   d="m 701,191.4 c -0.2,0 -0.5,0.1 -0.7,0.1 0.2,-0.1 0.4,-0.1 0.7,-0.1 z"
   id="path2200"
   inkscape:connector-curvature="0"
   style="fill:#ffffff" />
	<path
   class="st2"
   d="m 701,191.4 c -0.2,0 -0.5,0.1 -0.7,0.1 0.2,-0.1 0.4,-0.1 0.7,-0.1 z"
   id="path2202"
   inkscape:connector-curvature="0"
   style="fill:#ffffff" />
	<path
   class="st2"
   d="m 701,191.4 c -0.2,0 -0.5,0.1 -0.7,0.1 0.2,-0.1 0.4,-0.1 0.7,-0.1 z"
   id="path2204"
   inkscape:connector-curvature="0"
   style="fill:#ffffff" />
	<path
   class="st2"
   d="m 710.7,191.3 c -0.3,0 -0.5,-0.1 -0.8,-0.1 0.3,0 0.6,0.1 0.8,0.1 z"
   id="path2206"
   inkscape:connector-curvature="0"
   style="fill:#ffffff" />
	<path
   class="st2"
   d="m 710.7,191.3 c -0.3,0 -0.5,-0.1 -0.8,-0.1 0.3,0 0.6,0.1 0.8,0.1 z"
   id="path2208"
   inkscape:connector-curvature="0"
   style="fill:#ffffff" />
	<path
   class="st2"
   d="m 710.7,191.3 c -0.3,0 -0.5,-0.1 -0.8,-0.1 0.3,0 0.6,0.1 0.8,0.1 z"
   id="path2210"
   inkscape:connector-curvature="0"
   style="fill:#ffffff" />
	<polygon
   class="st2"
   points=""
   id="polygon2212"
   style="fill:#ffffff" />
	<polygon
   class="st2"
   points=""
   id="polygon2214"
   style="fill:#ffffff" />
	<polygon
   class="st2"
   points=""
   id="polygon2216"
   style="fill:#ffffff" />
	<path
   class="st2"
   d="m 692.5,192.9 40.7,-23.5 c 0.6,-0.4 1.3,-0.7 1.9,-1 -0.6,0.3 -1.3,0.6 -1.9,1 l -40.7,23.5 c -0.6,0.3 -1.1,0.7 -1.6,1 v 0 c 0.5,-0.3 1,-0.6 1.6,-1 z"
   id="path2218"
   inkscape:connector-curvature="0"
   style="fill:#ffffff" />
	<path
   class="st2"
   d="m 692.5,192.9 40.7,-23.5 c 0.6,-0.4 1.3,-0.7 1.9,-1 -0.6,0.3 -1.3,0.6 -1.9,1 l -40.7,23.5 c -0.6,0.3 -1.1,0.7 -1.6,1 v 0 c 0.5,-0.3 1,-0.6 1.6,-1 z"
   id="path2220"
   inkscape:connector-curvature="0"
   style="fill:#ffffff" />
	<path
   class="st2"
   d="m 692.5,192.9 40.7,-23.5 c 0.6,-0.4 1.3,-0.7 1.9,-1 -0.6,0.3 -1.3,0.6 -1.9,1 l -40.7,23.5 c -0.6,0.3 -1.1,0.7 -1.6,1 v 0 c 0.5,-0.3 1,-0.6 1.6,-1 z"
   id="path2222"
   inkscape:connector-curvature="0"
   style="fill:#ffffff" />
	<path
   class="st1"
   d="m 720.2,193.5 v 0 c -0.1,0 -0.3,-0.1 -0.4,-0.1 -0.6,-0.2 -1.2,-0.4 -1.7,-0.6 -0.3,-0.1 -0.5,-0.1 -0.8,-0.2 -0.5,-0.1 -1,-0.3 -1.5,-0.4 -0.3,-0.1 -0.5,-0.1 -0.8,-0.2 -0.7,-0.2 -1.4,-0.3 -2.1,-0.4 -0.1,0 -0.3,0 -0.4,-0.1 -0.6,-0.1 -1.2,-0.2 -1.8,-0.2 -0.3,0 -0.5,-0.1 -0.8,-0.1 -0.5,0 -1,-0.1 -1.5,-0.1 -0.3,0 -0.5,0 -0.8,0 -0.7,0 -1.4,0 -2.2,0 -0.1,0 -0.2,0 -0.3,0 -0.6,0 -1.3,0 -1.9,0.1 -0.3,0 -0.5,0 -0.8,0.1 -0.5,0 -1,0.1 -1.6,0.2 -0.2,0 -0.5,0.1 -0.7,0.1 -0.7,0.1 -1.4,0.2 -2.2,0.4 -0.1,0 -0.2,0 -0.2,0.1 -0.7,0.1 -1.3,0.3 -1.9,0.4 -0.2,0.1 -0.5,0.1 -0.7,0.2 -0.5,0.1 -1,0.3 -1.5,0.4 -0.2,0.1 -0.5,0.1 -0.7,0.2 -0.7,0.2 -1.4,0.5 -2.1,0.8 0.5,-0.3 1.1,-0.7 1.6,-1 l 40.7,-23.5 c 0.6,-0.4 1.3,-0.7 1.9,-1 0.4,-0.2 0.8,-0.4 1.2,-0.6 0,0 0,0 0,0 -8.3,6.1 -14,15.3 -16,25.5 z"
   id="path2224"
   inkscape:connector-curvature="0"
   style="opacity:0.4;fill:#ffffff" />
</g>
</svg>