<?xml version="1.0" encoding="utf-8"?>
<!-- Generator: Adobe Illustrator 22.0.1, SVG Export Plug-In . SVG Version: 6.00 Build 0)  -->
<svg version="1.1" id="Layer_1" xmlns="http://www.w3.org/2000/svg" xmlns:xlink="http://www.w3.org/1999/xlink" x="0px" y="0px"
	 viewBox="0 0 53.4 53.4" style="enable-background:new 0 0 53.4 53.4;" xml:space="preserve">
<style type="text/css">
	.st0{fill:#FFFFFF;}
</style>
<g>
	<g>
		<path class="st0" d="M50.7,21.1l-3.7-0.6c-0.4-1.3-0.9-2.5-1.5-3.6l2.2-3.1c0.9-1.3,0.8-3.1-0.4-4.2l-3.3-3.3
			c-0.6-0.6-1.5-1-2.3-1c-0.7,0-1.3,0.2-1.9,0.6L36.6,8c-1.2-0.6-2.5-1.2-3.8-1.6l-0.6-3.7C31.9,1.2,30.6,0,28.9,0h-4.7
			c-1.6,0-3,1.2-3.3,2.8l-0.6,3.8c-1.2,0.4-2.5,0.9-3.6,1.5l-3.1-2.2c-0.6-0.4-1.2-0.6-1.9-0.6c-0.9,0-1.7,0.3-2.3,1L6.1,9.5
			c-1.1,1.1-1.3,2.9-0.4,4.2l2.2,3.1c-0.6,1.2-1.1,2.4-1.5,3.6l-3.7,0.6C1.2,21.5,0,22.8,0,24.5v4.7c0,1.6,1.2,3,2.8,3.3l3.8,0.6
			c0.4,1.2,0.9,2.5,1.5,3.6l-2.2,3.1c-0.9,1.3-0.8,3.1,0.4,4.2l3.3,3.3c0.6,0.6,1.5,1,2.3,1c0.7,0,1.3-0.2,1.9-0.6l3.1-2.2
			c1.1,0.6,2.3,1.1,3.5,1.5l0.6,3.7c0.3,1.6,1.6,2.8,3.3,2.8H29c1.6,0,3-1.2,3.3-2.8l0.6-3.7c1.3-0.4,2.5-0.9,3.6-1.5l3.1,2.2
			c0.6,0.4,1.2,0.6,1.9,0.6l0,0c0.9,0,1.7-0.3,2.3-1l3.3-3.3c1.1-1.1,1.3-2.9,0.4-4.2l-2.2-3.1c0.6-1.2,1.1-2.4,1.5-3.6l3.7-0.6
			c1.6-0.3,2.8-1.6,2.8-3.3v-4.7C53.4,22.7,52.3,21.4,50.7,21.1z M50.4,29c0,0.1-0.1,0.3-0.2,0.3l-4.7,0.8c-0.6,0.1-1.1,0.5-1.2,1.1
			c-0.4,1.6-1.1,3.2-1.9,4.7c-0.3,0.5-0.3,1.1,0.1,1.6l2.8,3.9c0.1,0.1,0.1,0.3,0,0.4l-3.3,3.3c-0.1,0.1-0.2,0.1-0.2,0.1
			c-0.1,0-0.1,0-0.2-0.1l-3.9-2.8c-0.5-0.3-1.1-0.4-1.6-0.1c-1.5,0.9-3,1.5-4.7,1.9c-0.6,0.1-1,0.6-1.1,1.2l-0.8,4.7
			c0,0.1-0.1,0.2-0.3,0.2h-4.7c-0.1,0-0.3-0.1-0.3-0.2l-0.8-4.7c-0.1-0.6-0.5-1.1-1.1-1.2c-1.6-0.4-3.1-1-4.6-1.9
			c-0.2-0.1-0.5-0.2-0.8-0.2c-0.3,0-0.6,0.1-0.9,0.3l-3.9,2.8c-0.1,0-0.1,0.1-0.2,0.1c0,0-0.1,0-0.2-0.1l-3.3-3.3
			c-0.1-0.1-0.1-0.3,0-0.4l2.7-3.8c0.3-0.5,0.4-1.1,0.1-1.7c-0.9-1.5-1.5-3-2-4.7c-0.2-0.6-0.6-1-1.2-1.1l-4.7-0.8
			c-0.1,0-0.2-0.1-0.2-0.3v-4.7c0-0.1,0.1-0.3,0.2-0.3l4.7-0.8c0.6-0.1,1.1-0.5,1.2-1.1c0.4-1.6,1-3.2,1.9-4.7
			c0.3-0.5,0.3-1.1-0.1-1.6l-2.8-3.9c-0.1-0.1-0.1-0.3,0-0.4l3.3-3.3c0.1-0.1,0.2-0.1,0.2-0.1c0.1,0,0.1,0,0.2,0.1l3.8,2.7
			c0.5,0.3,1.1,0.4,1.7,0.1c1.5-0.9,3-1.5,4.7-2c0.6-0.2,1-0.6,1.1-1.2L24,3.2C24,3.1,24.1,3,24.3,3H29c0.1,0,0.3,0.1,0.3,0.2
			L30,7.9c0.1,0.6,0.5,1.1,1.1,1.2c1.7,0.4,3.3,1.1,4.8,2c0.5,0.3,1.1,0.3,1.6-0.1l3.8-2.8c0.1,0,0.1-0.1,0.2-0.1c0,0,0.1,0,0.2,0.1
			l3.3,3.3c0.1,0.1,0.1,0.3,0,0.4l-2.8,3.9c-0.3,0.5-0.4,1.1-0.1,1.6c0.9,1.5,1.5,3,1.9,4.7c0.1,0.6,0.6,1,1.2,1.1l4.7,0.8
			c0.1,0,0.2,0.1,0.2,0.3L50.4,29L50.4,29z"/>
		<path class="st0" d="M26.7,15.2c-6.4,0-11.5,5.2-11.5,11.5s5.2,11.5,11.5,11.5S38.2,33,38.2,26.7S33.1,15.2,26.7,15.2z M26.7,35.2
			c-4.7,0-8.5-3.8-8.5-8.5s3.8-8.5,8.5-8.5s8.5,3.8,8.5,8.5S31.4,35.2,26.7,35.2z"/>
	</g>
</g>
</svg>
