<?xml version="1.0" encoding="utf-8"?>
<!-- Generator: Adobe Illustrator 22.0.1, SVG Export Plug-In . SVG Version: 6.00 Build 0)  -->
<svg version="1.1" id="Layer_1" xmlns="http://www.w3.org/2000/svg" xmlns:xlink="http://www.w3.org/1999/xlink" x="0px" y="0px"
	 viewBox="0 0 42 56.9" style="enable-background:new 0 0 42 56.9;" xml:space="preserve">
<style type="text/css">
	.st0{fill:#FFFFFF;}
</style>
<g>
	<path class="st0" d="M32.1,0H3.5C1.6,0,0,1.6,0,3.5v49.9c0,1.9,1.6,3.5,3.5,3.5h35.1c1.9,0,3.5-1.6,3.5-3.5V10.8L32.1,0z M32.9,5.2
		l4.3,4.7h-4.3V5.2z M39.1,53.4c0,0.3-0.3,0.6-0.6,0.6H3.5c-0.3,0-0.6-0.3-0.6-0.6V3.5c0-0.3,0.3-0.6,0.6-0.6H30v8.5
		c0,0.8,0.7,1.5,1.5,1.5h7.6V53.4z M8.1,15.6H33c0.6,0,1.1,0.5,1.1,1.1c0,0.6-0.5,1.1-1.1,1.1H8.1c-0.6,0-1.1-0.5-1.1-1.1
		C7,16.1,7.5,15.6,8.1,15.6z M34.1,24c0,0.6-0.5,1.1-1.1,1.1H8.1C7.5,25.1,7,24.6,7,24s0.5-1.1,1.1-1.1H33
		C33.6,22.9,34.1,23.4,34.1,24z M34.1,31.2c0,0.6-0.5,1.1-1.1,1.1H8.1c-0.6,0-1.1-0.5-1.1-1.1c0-0.6,0.5-1.1,1.1-1.1H33
		C33.6,30.1,34.1,30.6,34.1,31.2z M34.1,38.4c0,0.6-0.5,1.1-1.1,1.1H8.1C7.5,39.5,7,39,7,38.4s0.5-1.1,1.1-1.1H33
		C33.6,37.3,34.1,37.8,34.1,38.4z"/>
</g>
</svg>
