<?xml version="1.0" encoding="UTF-8" standalone="no"?>
<!-- Generator: Adobe Illustrator 22.0.1, SVG Export Plug-In . SVG Version: 6.00 Build 0)  -->

<svg
   xmlns:dc="http://purl.org/dc/elements/1.1/"
   xmlns:cc="http://creativecommons.org/ns#"
   xmlns:rdf="http://www.w3.org/1999/02/22-rdf-syntax-ns#"
   xmlns:svg="http://www.w3.org/2000/svg"
   xmlns="http://www.w3.org/2000/svg"
   xmlns:sodipodi="http://sodipodi.sourceforge.net/DTD/sodipodi-0.dtd"
   xmlns:inkscape="http://www.inkscape.org/namespaces/inkscape"
   version="1.1"
   id="Layer_1"
   x="0px"
   y="0px"
   viewBox="0 0 18 18"
   xml:space="preserve"
   sodipodi:docname="phone.svg"
   width="18"
   height="18"
   inkscape:version="0.92.3 (2405546, 2018-03-11)"><metadata
   id="metadata835"><rdf:RDF><cc:Work
       rdf:about=""><dc:format>image/svg+xml</dc:format><dc:type
         rdf:resource="http://purl.org/dc/dcmitype/StillImage" /><dc:title /></cc:Work></rdf:RDF></metadata><defs
   id="defs833" /><sodipodi:namedview
   pagecolor="#ffffff"
   bordercolor="#666666"
   borderopacity="1"
   objecttolerance="10"
   gridtolerance="10"
   guidetolerance="10"
   inkscape:pageopacity="0"
   inkscape:pageshadow="2"
   inkscape:window-width="1920"
   inkscape:window-height="1027"
   id="namedview831"
   showgrid="false"
   inkscape:zoom="22.884848"
   inkscape:cx="16.142892"
   inkscape:cy="13.041985"
   inkscape:window-x="-8"
   inkscape:window-y="-8"
   inkscape:window-maximized="1"
   inkscape:current-layer="Layer_1" />
<style
   type="text/css"
   id="style826">
	.st0{fill:#979594;}
</style>
<path
   class="st0"
   d="M 9,0 C 4.0813953,0 0,3.9767442 0,9 c 0,4.918605 3.9767442,9 9,9 4.918605,0 9,-3.976744 9,-9 C 18,4.0813953 14.023256,0 9,0 Z m 4.813953,13.186047 -0.732558,0.732558 c -0.104651,0.104651 -0.523255,0.209302 -0.523255,0.209302 -2.302326,0 -4.5000005,-0.837209 -6.0697679,-2.511628 C 4.9186047,10.046512 3.9767442,7.8488372 3.9767442,5.5465116 c 0,0 0.1046511,-0.4186046 0.2093023,-0.5232558 L 4.9186047,4.2906977 C 5.2325581,3.9767442 5.6511628,3.872093 6.0697674,3.9767442 H 6.1744186 C 6.4883721,4.0813953 6.9069767,4.5 7.0116279,4.8139535 l 0.3139535,1.3604651 c 0.1046512,0.3139535 0,0.8372093 -0.3139535,1.1511628 L 6.4883721,7.8488372 C 7.0116279,9.627907 8.372093,10.988372 10.046512,11.406977 l 0.523255,-0.523256 c 0.313954,-0.313954 0.732559,-0.418605 1.151163,-0.313954 l 1.360465,0.313954 c 0.313954,0.104651 0.732558,0.418605 0.83721,0.837209 v 0.104651 c 0.209302,0.523256 0.104651,1.046512 -0.104652,1.360466 z m 0,0"
   id="path828"
   inkscape:connector-curvature="0"
   style="fill:#979594;stroke-width:1.04651165" />
</svg>