<?xml version="1.0" encoding="utf-8"?>
<!-- Generator: Adobe Illustrator 22.0.1, SVG Export Plug-In . SVG Version: 6.00 Build 0)  -->
<svg version="1.1" id="Layer_1" xmlns="http://www.w3.org/2000/svg" xmlns:xlink="http://www.w3.org/1999/xlink" x="0px" y="0px"
	 viewBox="0 0 15.5 15.5" style="enable-background:new 0 0 15.5 15.5;" xml:space="preserve">
<style type="text/css">
	.st0{fill:#808385;}
</style>
<g>
	<g>
		<g>
			<path class="st0" d="M15.3,14.4l-3.7-3.7c0.9-1.1,1.5-2.6,1.5-4.1c0-3.6-2.9-6.5-6.5-6.5C2.9,0,0,2.9,0,6.5s2.9,6.5,6.5,6.5
				c1.6,0,3-0.6,4.1-1.5l3.7,3.7c0.3,0.3,0.7,0.3,0.9,0C15.6,15.1,15.6,14.7,15.3,14.4L15.3,14.4z M6.5,11.8c-2.9,0-5.2-2.4-5.2-5.2
				s2.4-5.2,5.2-5.2c2.9,0,5.2,2.4,5.2,5.2S9.4,11.8,6.5,11.8L6.5,11.8z M6.5,11.8"/>
		</g>
	</g>
</g>
</svg>
