<?xml version="1.0" encoding="utf-8"?>
<!-- Generator: Adobe Illustrator 22.0.1, SVG Export Plug-In . SVG Version: 6.00 Build 0)  -->
<svg version="1.1" id="Layer_1" xmlns="http://www.w3.org/2000/svg" xmlns:xlink="http://www.w3.org/1999/xlink" x="0px" y="0px"
	 viewBox="0 0 230 230" style="enable-background:new 0 0 230 230;" xml:space="preserve">
<style type="text/css">
	.st0{fill:none;stroke:#FFFFFF;stroke-miterlimit:10;}
	.st1{fill:none;}
	.st2{fill:#FFFFFF;}
</style>
<g>
	<line class="st0" x1="127.4" y1="105.3" x2="167.4" y2="224.1"/>
	<line class="st0" x1="210.3" y1="11.3" x2="127.4" y2="105.3"/>
	<line class="st0" x1="4.5" y1="80.5" x2="127.4" y2="105.3"/>
	<g>
		<path class="st1" d="M116.8,157.8c9.6,1.9,19,1.2,27.7-1.8l-5.9-17.6c-5.6,1.9-11.8,2.4-18.1,1.2c-18.9-3.8-31.2-22.3-27.4-41.3
			l-18.2-3.7C69.1,123.7,87.9,152,116.8,157.8z"/>
		<path class="st1" d="M161.8,112.2c-2.6,12.7-11.7,22.4-23.2,26.3l5.9,17.6c17.5-5.9,31.5-20.8,35.4-40.2s-3.3-38.5-17.1-50.8
			L150.6,79C159.7,87,164.3,99.5,161.8,112.2z"/>
		<path class="st1" d="M134.4,71c6.3,1.3,11.8,4.1,16.2,8.1l12.3-13.9c-6.8-6-15.3-10.4-24.8-12.4c-29-5.8-57.3,13-63.1,41.9
			l18.2,3.7C96.9,79.4,115.4,67.1,134.4,71z"/>
		<path class="st1" d="M99.2,99.6l18.4,3.7c1.1-5.4,6.4-8.9,11.8-7.8c1.8,0.4,3.4,1.2,4.6,2.3l12.4-14.1c-3.7-3.2-8.2-5.6-13.3-6.6
			C117.6,73.9,102.4,84.1,99.2,99.6z"/>
		<path class="st1" d="M125.5,115.1c-5.4-1.1-8.9-6.4-7.8-11.8l-18.4-3.7c-3.1,15.6,7,30.8,22.5,33.9c5.1,1,10.2,0.6,14.9-0.9
			l-6-17.8C129,115.3,127.2,115.5,125.5,115.1z"/>
		<path class="st1" d="M137.2,107.3c-0.7,3.6-3.3,6.4-6.6,7.5l6,17.8c9.4-3.2,16.9-11.2,19-21.6c2.1-10.4-1.7-20.7-9.2-27.3
			L134,97.8C136.6,100.1,138,103.6,137.2,107.3z"/>
		<path class="st1" d="M138.3,51.4c9.8,2,18.5,6.5,25.5,12.7l12.6-14.3c-9.4-8.3-21.1-14.4-34.3-17c-40-8.1-79.1,17.9-87.2,57.9
			l18.6,3.8C79.5,64.7,108.6,45.4,138.3,51.4z"/>
		<path class="st1" d="M116.6,159.2c-29.7-6-49-35-43-64.8l-18.6-3.8c-8.1,40,17.9,79.1,57.9,87.2c13.2,2.7,26.3,1.6,38.2-2.4
			l-6.1-18C136.1,160.4,126.4,161.2,116.6,159.2z"/>
		<path class="st1" d="M200,119.9c5.4-26.8-4.5-53.2-23.6-70.1l-12.6,14.3c14.2,12.6,21.6,32.2,17.6,52.1s-18.4,35.1-36.4,41.2
			l6.1,18C175.2,167.2,194.6,146.7,200,119.9z"/>
		<path class="st1" d="M206.1,121.2c-5.9,29.1-26.8,51.3-53.1,60.2l5.7,16.8c32.1-10.8,57.7-38,64.8-73.5s-5.9-70.5-31.3-92.9
			l-11.7,13.3C201.2,63.5,212,92.1,206.1,121.2z"/>
		<path class="st1" d="M31.4,85.9l17.4,3.5c8.7-43.4,51.2-71.6,94.5-62.8c14.3,2.9,27,9.4,37.2,18.5l11.7-13.3
			c-12.5-11-27.9-19.1-45.4-22.6C93.8-1.5,42,32.9,31.4,85.9z"/>
		<path class="st1" d="M111.6,184c-43.4-8.7-71.6-51.2-62.8-94.5l-17.4-3.5c-10.7,53,23.7,104.8,76.7,115.5
			c17.5,3.5,34.8,2.1,50.6-3.2l-5.7-16.8C140.1,185.7,125.9,186.9,111.6,184z"/>
		<path class="st2" d="M108.1,201.4c-53-10.7-87.4-62.5-76.7-115.5L30,85.7c-10.8,53.7,24.1,106.3,77.8,117.1
			c17.7,3.6,35.3,2.2,51.3-3.3l-0.4-1.3C142.9,203.5,125.5,204.9,108.1,201.4z"/>
		<path class="st2" d="M146.8,9.2c17.5,3.5,32.9,11.5,45.4,22.6l0.9-1c-12.7-11.2-28.3-19.3-46.1-22.9C93.4-3,40.8,31.9,30,85.7
			l1.4,0.3C42,32.9,93.8-1.5,146.8,9.2z"/>
		<path class="st2" d="M111.6,184c14.3,2.9,28.5,1.7,41.5-2.6l-2-5.9c-11.9,4-25,5.1-38.2,2.4c-40-8.1-66-47.2-57.9-87.2l-6.1-1.2
			C40,132.8,68.2,175.2,111.6,184z"/>
		<path class="st2" d="M200,119.9c-5.4,26.8-24.7,47.3-48.9,55.5l2,5.9c26.2-8.9,47.2-31.1,53.1-60.2c5.9-29.1-4.9-57.7-25.6-76
			l-4.1,4.7C195.5,66.7,205.4,93.1,200,119.9z"/>
		<path class="st2" d="M73.5,94.4l1.4,0.3c5.8-29,34.2-47.8,63.1-41.9c9.6,1.9,18,6.3,24.8,12.4l0.9-1c-7-6.2-15.7-10.7-25.5-12.7
			C108.6,45.4,79.5,64.7,73.5,94.4z"/>
		<path class="st2" d="M180,115.9c-3.9,19.4-17.9,34.2-35.4,40.2l0.4,1.3c18-6.1,32.4-21.3,36.4-41.2s-3.3-39.5-17.6-52.1l-0.9,1
			C176.7,77.4,183.9,96.5,180,115.9z"/>
		<path class="st2" d="M133.1,77.1c5.1,1,9.7,3.4,13.3,6.6l4.1-4.7c-4.5-3.9-10-6.8-16.2-8.1c-18.9-3.8-37.5,8.5-41.3,27.4l6.1,1.2
			C102.4,84.1,117.6,73.9,133.1,77.1z"/>
		<path class="st2" d="M121.7,133.5c-15.6-3.1-25.7-18.3-22.5-33.9l-6.1-1.2c-3.8,18.9,8.5,37.5,27.4,41.3
			c6.3,1.3,12.5,0.8,18.1-1.2l-2-5.9C132,134.1,126.9,134.5,121.7,133.5z"/>
		<path class="st0" d="M130.6,114.8c3.3-1.1,5.9-3.9,6.6-7.5s-0.6-7.2-3.2-9.5l-6.6,7.5L130.6,114.8z"/>
		<path class="st0" d="M125.5,115.1c1.8,0.4,3.6,0.2,5.2-0.3l-3.2-9.5l-9.8-2C116.5,108.7,120,114,125.5,115.1z"/>
	</g>
</g>
</svg>
