<?xml version="1.0" encoding="utf-8"?>
<!-- Generator: Adobe Illustrator 22.0.1, SVG Export Plug-In . SVG Version: 6.00 Build 0)  -->
<svg version="1.1" id="Layer_1" xmlns="http://www.w3.org/2000/svg" xmlns:xlink="http://www.w3.org/1999/xlink" x="0px" y="0px"
	 viewBox="0 0 73.7 58.9" style="enable-background:new 0 0 73.7 58.9;" xml:space="preserve">
<style type="text/css">
	.st0{fill:#FFFFFF;}
</style>
<g>
	<g>
		<g>
			<path class="st0" d="M36.9,14.6c-8.2,0-13.2,4.2-13.2,10.9c0,0.8,0.6,1.4,1.4,1.4h23.7c0.8,0,1.4-0.6,1.4-1.4
				C50.1,18.8,45,14.6,36.9,14.6z M26.5,24.2c0.9-6.2,8.1-6.8,10.3-6.8s9.4,0.5,10.3,6.8H26.5z"/>
		</g>
	</g>
	<g>
		<g>
			<path class="st0" d="M36.9,0c-3.6,0-6.6,3-6.6,6.6c0,3.6,3,6.6,6.6,6.6c3.6,0,6.6-3,6.6-6.6S40.5,0,36.9,0z M36.9,10.4
				c-2.1,0-3.8-1.7-3.8-3.8s1.7-3.8,3.8-3.8s3.8,1.7,3.8,3.8S39,10.4,36.9,10.4z"/>
		</g>
	</g>
	<g>
		<g>
			<path class="st0" d="M13.2,46.6C5.1,46.6,0,50.8,0,57.5c0,0.8,0.6,1.4,1.4,1.4H25c0.8,0,1.4-0.6,1.4-1.4
				C26.4,50.8,21.4,46.6,13.2,46.6z M2.9,56.2c0.9-6.2,8-6.8,10.3-6.8s9.4,0.5,10.3,6.8H2.9z"/>
		</g>
	</g>
	<g>
		<g>
			<path class="st0" d="M13.2,32c-3.6,0-6.6,3-6.6,6.6c0,3.6,3,6.6,6.6,6.6c3.6,0,6.6-3,6.6-6.6S16.9,32,13.2,32z M13.2,42.4
				c-2.1,0-3.8-1.7-3.8-3.8s1.7-3.8,3.8-3.8s3.8,1.7,3.8,3.8S15.3,42.4,13.2,42.4z"/>
		</g>
	</g>
	<g>
		<g>
			<path class="st0" d="M60.5,46.6c-8.2,0-13.2,4.2-13.2,10.9c0,0.8,0.6,1.4,1.4,1.4h23.7c0.8,0,1.4-0.6,1.4-1.4
				C73.7,50.8,68.7,46.6,60.5,46.6z M50.2,56.2c0.9-6.2,8-6.8,10.3-6.8s9.4,0.5,10.3,6.8H50.2z"/>
		</g>
	</g>
	<g>
		<g>
			<path class="st0" d="M60.5,32c-3.6,0-6.6,3-6.6,6.6c0,3.6,3,6.6,6.6,6.6c3.6,0,6.6-3,6.6-6.6S64.2,32,60.5,32z M60.5,42.4
				c-2.1,0-3.8-1.7-3.8-3.8s1.7-3.8,3.8-3.8s3.8,1.7,3.8,3.8S62.6,42.4,60.5,42.4z"/>
		</g>
	</g>
	<g>
		<g>
			<path class="st0" d="M44.1,44.2l-5.8-5.8v-8.2c0-0.8-0.6-1.4-1.4-1.4c-0.8,0-1.4,0.6-1.4,1.4v8.2l-5.8,5.8c-0.5,0.5-0.6,1.4,0,2
				c0.5,0.5,1.4,0.6,2,0l5.2-5.2l5.2,5.2c0.6,0.5,1.5,0.4,2-0.2C44.5,45.5,44.5,44.7,44.1,44.2z"/>
		</g>
	</g>
</g>
</svg>
