<svg xmlns:dc="http://purl.org/dc/elements/1.1/" xmlns:cc="http://creativecommons.org/ns#" xmlns:rdf="http://www.w3.org/1999/02/22-rdf-syntax-ns#" xmlns:svg="http://www.w3.org/2000/svg" xmlns="http://www.w3.org/2000/svg" xmlns:sodipodi="http://sodipodi.sourceforge.net/DTD/sodipodi-0.dtd" xmlns:inkscape="http://www.inkscape.org/namespaces/inkscape" version="1.1" id="Layer_1" x="0px" y="0px" viewBox="0 0 98 106" xml:space="preserve" sodipodi:docname="value.svg" width="98" height="106" inkscape:version="0.92.3 (2405546, 2018-03-11)"><metadata id="metadata895"><rdf:RDF><cc:Work rdf:about=""><dc:format>image/svg+xml</dc:format><dc:type rdf:resource="http://purl.org/dc/dcmitype/StillImage" /><dc:title></dc:title></cc:Work></rdf:RDF></metadata><defs id="defs893"> </defs><sodipodi:namedview pagecolor="#ffffff" bordercolor="#666666" borderopacity="1" objecttolerance="10" gridtolerance="10" guidetolerance="10" inkscape:pageopacity="0" inkscape:pageshadow="2" inkscape:window-width="1920" inkscape:window-height="1027" id="namedview891" showgrid="false" inkscape:zoom="4.3636364" inkscape:cx="73.857853" inkscape:cy="66.575678" inkscape:window-x="-8" inkscape:window-y="-8" inkscape:window-maximized="1" inkscape:current-layer="Layer_1" /> <style type="text/css" id="style856"> .st0{fill:#4D8181;} .st1{opacity:0.42;fill:#122630;} .st2{fill:#0D323F;} .st3{fill:#FFFFFF;} .st4{font-family:'ProximaNova-Semibold';} .st5{font-size:7.2202px;} </style> <g id="g877" transform="translate(-8.6539,9.0880088)"><path class="st0" d="m 98.0039,11.1039 c -1.2,-0.4 -2.4,-1 -3.5,-1.6 l -18.2,-10.5 -8.7,-5 c -0.9,-0.5 -1.7,-1.1 -2.5,-1.7 -6,-2.2 -12.8,-1.6 -18.4,1.6 l -26.9,15.5 c -6.8,3.9 -11,11.2 -11,19 v 31 c 0,7.9 4.2,15.1 11,19 l 26.9,15.5 c 6.8,3.9 15.2,3.9 22,0 l 7.7,-4.4 19.1,-11 c 6.8,-3.9 11,-11.2 11,-19 v -31 c 0,-6.9 -3.2,-13.3 -8.5,-17.4 z" id="path860" inkscape:connector-curvature="0" style="fill:#4d8181" /><path style="opacity:0.42000002;fill:#122630" inkscape:connector-curvature="0" id="path866" d="m 43.5039,74.0039 c -5.9,-3.4 -9.5,-9.7 -9.5,-16.5 v -27 c 0,-6.8 3.6,-13.1 9.5,-16.5 l 23.2,-13.4 h -0.1 c -0.8,-0.4 -1.5,-0.9 -2.2,-1.5 -5.2,-1.9 -11.1,-1.4 -16,1.4 l -23.3,13.5 c -5.9,3.4 -9.5,9.7 -9.5,16.5 v 26.9 c 0,6.8 3.6,13.1 9.5,16.5 l 23.3,13.5 c 5.8,3.3 12.9,3.4 18.7,0.2 -0.1,-0.1 -0.2,-0.1 -0.3,-0.2 z" class="st1" /><path style="opacity:0.42000002;fill:#122630" inkscape:connector-curvature="0" id="path868" d="m 74.1039,83.6039 3.3,-1.9 -13.3,-7.7 c -5.9,-3.4 -9.5,-9.7 -9.5,-16.5 v -27 c 0,-6.8 3.6,-13.1 9.5,-16.5 l 12.8,-7.4 -2.8,-1.6 -7.5,-4.3 -23.1,13.3 c -5.9,3.4 -9.5,9.7 -9.5,16.5 v 26.9 c 0,6.8 3.6,13.1 9.5,16.5 l 23.3,13.5 c 0.1,0.1 0.2,0.1 0.3,0.2 0.1,-0.1 0.2,-0.1 0.3,-0.2 z" class="st1" /><path style="opacity:0.42000002;fill:#122630" inkscape:connector-curvature="0" id="path870" d="m 74.1039,83.6039 3.3,-1.9 -13.3,-7.7 c -5.9,-3.4 -9.5,-9.7 -9.5,-16.5 v -27 c 0,-6.8 3.6,-13.1 9.5,-16.5 l 12.8,-7.4 -2.8,-1.6 -7.5,-4.3 -23.1,13.3 c -5.9,3.4 -9.5,9.7 -9.5,16.5 v 26.9 c 0,6.8 3.6,13.1 9.5,16.5 l 23.3,13.5 c 0.1,0.1 0.2,0.1 0.3,0.2 0.1,-0.1 0.2,-0.1 0.3,-0.2 z" class="st1" /><path style="opacity:0.42000002;fill:#122630" inkscape:connector-curvature="0" id="path872" d="m 54.6039,30.5039 v 26.9 c 0,6.8 3.6,13.1 9.5,16.5 l 13.3,7.7 13.3,-7.7 c 5.9,-3.4 9.5,-9.7 9.5,-16.5 v -26.9 c 0,-5.9 -2.8,-11.5 -7.4,-15.1 -1.1,-0.4 -2.1,-0.8 -3.1,-1.4 l -12.9,-7.5 -12.8,7.4 c -5.8,3.5 -9.4,9.8 -9.4,16.6 z" class="st1" /><path style="opacity:0.42000002;fill:#122630" inkscape:connector-curvature="0" id="path874" d="m 54.6039,30.5039 v 26.9 c 0,6.8 3.6,13.1 9.5,16.5 l 13.3,7.7 13.3,-7.7 c 5.9,-3.4 9.5,-9.7 9.5,-16.5 v -26.9 c 0,-5.9 -2.8,-11.5 -7.4,-15.1 -1.1,-0.4 -2.1,-0.8 -3.1,-1.4 l -12.9,-7.5 -12.8,7.4 c -5.8,3.5 -9.4,9.8 -9.4,16.6 z" class="st1" /><path style="fill:#0d323f" inkscape:connector-curvature="0" id="path876" d="m 54.6039,30.5039 v 26.9 c 0,6.8 3.6,13.1 9.5,16.5 l 13.3,7.7 13.3,-7.7 c 5.9,-3.4 9.5,-9.7 9.5,-16.5 v -26.9 c 0,-5.9 -2.8,-11.5 -7.4,-15.1 -1.1,-0.4 -2.1,-0.8 -3.1,-1.4 l -12.9,-7.5 -12.8,7.4 c -5.8,3.5 -9.4,9.8 -9.4,16.6 z" class="st2" /></g> </svg>