<?xml version="1.0" encoding="UTF-8"?>
<svg width="60px" height="60px" viewBox="0 0 60 60" version="1.1" xmlns="http://www.w3.org/2000/svg" xmlns:xlink="http://www.w3.org/1999/xlink">
    <!-- Generator: Sketch 41.2 (35397) - http://www.bohemiancoding.com/sketch -->
    <title>x</title>
    <desc>Created with Sketch.</desc>
    <defs></defs>
    <g id="Page-1" stroke="none" stroke-width="1" fill="none" fill-rule="evenodd">
        <g id="gravity" transform="translate(-884.000000, -979.000000)">
            <g id="x" transform="translate(884.000000, 979.000000)">
                <g id="Layer_1">
                    <rect id="Rectangle-path" fill="#D7DEED" transform="translate(24.050699, 35.948446) rotate(45.000000) translate(-24.050699, -35.948446) " x="22.179291" y="31.1937845" width="3.74281567" height="9.50932287"></rect>
                    <path d="M23.7234375,33.6298828 C24.5283984,34.58625 25.4136328,35.4716016 26.37,36.2765625 L28.7371875,33.909375 L26.090625,31.2626953 L23.7234375,33.6298828 Z" id="Shape" fill="#C7CFE2"></path>
                    <path d="M40.3448437,0 C29.4896484,0 20.6896875,8.79996094 20.6896875,19.6551562 C20.6896875,30.5103516 29.4896484,39.3103125 40.3448437,39.3103125 C51.2000391,39.3103125 60,30.5103516 60,19.6551562 C60,8.79996094 51.2000391,0 40.3448437,0 Z M40.3448437,36.2069531 C31.2036328,36.2069531 23.7931641,28.7964844 23.7931641,19.6552734 C23.7931641,10.5139453 31.2036328,3.10359375 40.3448437,3.10359375 C49.4861719,3.10359375 56.8965234,10.5139453 56.8965234,19.6552734 C56.8966406,28.7963672 49.4861719,36.2069531 40.3448437,36.2069531 Z" id="Shape" fill="#D7DEED"></path>
                    <path d="M2.80078125,59.3941406 L0.60609375,57.1999219 C-0.201914063,56.3920313 -0.202148438,55.081875 0.605976562,54.27375 L18.0667969,36.8129297 C18.8746875,36.0050391 20.1846094,36.0050391 20.9926172,36.8128125 L23.1873047,39.0070313 C23.9953125,39.8149219 23.9955469,41.1250781 23.1874219,41.9332031 L5.72660156,59.3940234 C4.91871094,60.2020313 3.60878906,60.2020313 2.80078125,59.3941406 Z" id="Shape" fill="#707487"></path>
                    <path d="M2.67492188,56.3426953 L20.1357422,38.881875 C20.9436328,38.0739844 22.2534375,38.0738672 23.0615625,38.8817578 L23.1895313,39.0096094 C23.1895313,39.0096094 23.1882422,39.0078516 23.1873047,39.0070312 L20.9926172,36.8128125 C20.1846094,36.0050391 18.8748047,36.0050391 18.0667969,36.8129297 L0.605976563,54.2738672 C-0.20203125,55.081875 -0.20203125,56.3919141 0.60609375,57.1999219 L2.67339844,59.266875 C1.86714844,58.45875 1.86738281,57.1501172 2.67492188,56.3426953 Z" id="Shape" fill="#5B5D6E"></path>
                    <path d="M21.9125391,43.2079687 L23.1873047,41.9332031 C23.9953125,41.1251953 23.9951953,39.8151562 23.1871875,39.0071484 L20.9925,36.8129297 C20.1844922,36.0051562 18.8746875,36.0051562 18.0666797,36.8130469 L16.7921484,38.0876953 L21.9125391,43.2079687 Z" id="Shape" fill="#C7CFE2"></path>
                    <g id="businessman" transform="translate(31.000000, 7.000000)">
                        <g id="Layer_1">
                            <path d="M17.9699516,8.96995161 C17.9699516,3.67780645 13.3869919,-0.543846774 7.97349194,0.0571209677 C3.94708065,0.504072581 0.651846774,3.71496774 0.113370968,7.73012903 C-0.400862903,11.5647823 1.51265323,15.0005323 4.53012097,16.7378226 C5.31733065,17.1910161 5.79650806,18.0349113 5.79650806,18.9433306 L5.79650806,19.2213871 L12.2036371,19.2213871 L12.2036371,18.9434032 C12.2036371,18.0357823 12.6814355,17.1915968 13.4681371,16.7389839 C16.1571048,15.1914194 17.9699516,12.2954516 17.9699516,8.96995161 Z" id="Shape" fill="#FFF5C8"></path>
                            <path d="M10.2814113,24.3470323 L7.71858871,24.3470323 C7.47595161,24.3470323 7.25407258,24.2099274 7.14556452,23.9929113 L6.68191935,23.065621 L11.3182258,23.065621 L10.8545806,23.9929113 C10.7459274,24.2099274 10.524121,24.3470323 10.2814113,24.3470323 Z" id="Shape" fill="#707487"></path>
                            <ellipse id="Oval" fill="#FFFAE1" cx="9" cy="8.96995161" rx="7.04779839" ry="7.04779839"></ellipse>
                            <path d="M11.5628226,10.8921048 L6.43717742,10.8921048 C6.08305645,10.8921048 5.79643548,10.6051935 5.79643548,10.2513629 C5.79643548,9.89753226 6.08298387,9.61062097 6.43717742,9.61062097 L11.5628952,9.61062097 C11.9170161,9.61062097 12.2036371,9.89753226 12.2036371,10.2513629 C12.2035645,10.6051935 11.9170161,10.8921048 11.5628226,10.8921048 Z" id="Shape" fill="#FFFFFF"></path>
                            <path d="M12.1841855,10.4068306 C12.2705565,10.0633065 12.0615968,9.71542742 11.7180726,9.62970968 C11.3738952,9.54123387 11.0273226,9.75266129 10.9416048,10.0958226 L9.66019355,15.2215403 C9.64698387,15.2725645 9.64074194,15.32475 9.64074194,15.3770806 L9.64074194,20.5027984 L8.35933065,20.5027984 L8.35933065,15.3770806 C8.35933065,15.3248952 8.35308871,15.2725645 8.33995161,15.2216129 L7.05846774,10.0959677 C6.97275,9.75309677 6.62291129,9.54159677 6.282,9.62985484 C5.93847581,9.71557258 5.72951613,10.0634516 5.8158871,10.4069758 L7.07784677,15.4559758 L7.07784677,20.502871 L6.75747581,20.502871 C6.40364516,20.502871 6.11673387,20.7897823 6.11673387,21.1436129 C6.11673387,21.4974435 6.40364516,21.7843548 6.75747581,21.7843548 C6.40364516,21.7843548 6.11673387,22.0712661 6.11673387,22.4250968 C6.11673387,22.7789274 6.40364516,23.0658387 6.75747581,23.0658387 L11.2424516,23.0658387 C11.5962823,23.0658387 11.8831935,22.7789274 11.8831935,22.4250968 C11.8831935,22.0712661 11.5962823,21.7843548 11.2424516,21.7843548 C11.5962823,21.7843548 11.8831935,21.4974435 11.8831935,21.1436129 C11.8831935,20.7897823 11.5962823,20.502871 11.2424516,20.502871 L10.9220806,20.502871 L10.9220806,15.4559758 L12.1841855,10.4068306 Z" id="Shape" fill="#C7CFE2"></path>
                            <path d="M9.64074194,19.2213871 L8.35933065,19.2213871 L8.35933065,15.3770806 C8.35933065,15.02325 8.64624194,14.7363387 9.00007258,14.7363387 L9.00007258,14.7363387 C9.35390323,14.7363387 9.64081452,15.02325 9.64081452,15.3770806 L9.64081452,19.2213871 L9.64074194,19.2213871 Z" id="Shape" fill="#FAEBAA"></path>
                            <path d="M11.1668952,20.5027984 L6.83317742,20.5027984 C6.59054032,20.5027984 6.36866129,20.3656935 6.26015323,20.1486774 L5.79643548,19.2213871 L12.2035645,19.2213871 L11.7399194,20.1486774 C11.6314113,20.3656935 11.4095323,20.5027984 11.1668952,20.5027984 Z" id="Shape" fill="#AFB9D2"></path>
                        </g>
                    </g>
                    <g id="Group" opacity="0.97" transform="translate(16.757812, 36.093750)" fill="#AFB9D2">
                        <path d="M2.10316406,4.06277344 L3.3778125,2.788125 C4.18570313,1.98023437 5.49550781,1.98011719 6.30363281,2.78800781 L6.43136719,2.91574219 C6.43054687,2.91492187 6.43019531,2.91410156 6.429375,2.91328125 L4.2346875,0.7190625 C3.42667969,-0.0887109375 2.116875,-0.0887109375 1.30886719,0.719179687 L0.0343359375,1.99382812 L2.10316406,4.06277344 Z" id="Shape"></path>
                    </g>
                </g>
            </g>
        </g>
    </g>
</svg>