<?xml version="1.0" encoding="UTF-8" standalone="no"?>
<!-- Generator: Adobe Illustrator 19.2.1, SVG Export Plug-In . SVG Version: 6.00 Build 0)  -->

<svg
   xmlns:dc="http://purl.org/dc/elements/1.1/"
   xmlns:cc="http://creativecommons.org/ns#"
   xmlns:rdf="http://www.w3.org/1999/02/22-rdf-syntax-ns#"
   xmlns:svg="http://www.w3.org/2000/svg"
   xmlns="http://www.w3.org/2000/svg"
   xmlns:sodipodi="http://sodipodi.sourceforge.net/DTD/sodipodi-0.dtd"
   xmlns:inkscape="http://www.inkscape.org/namespaces/inkscape"
   version="1.1"
   id="Слой_1"
   x="0px"
   y="0px"
   viewBox="0 0 127 21"
   xml:space="preserve"
   inkscape:version="0.91 r13725"
   sodipodi:docname="logo.svg"
   width="127"
   height="21"><metadata
     id="metadata4267"><rdf:RDF><cc:Work
         rdf:about=""><dc:format>image/svg+xml</dc:format><dc:type
           rdf:resource="http://purl.org/dc/dcmitype/StillImage" /><dc:title></dc:title></cc:Work></rdf:RDF></metadata><defs
     id="defs4265" /><sodipodi:namedview
     pagecolor="#ffffff"
     bordercolor="#666666"
     borderopacity="1"
     objecttolerance="10"
     gridtolerance="10"
     guidetolerance="10"
     inkscape:pageopacity="0"
     inkscape:pageshadow="2"
     inkscape:window-width="1920"
     inkscape:window-height="1062"
     id="namedview4263"
     showgrid="false"
     inkscape:zoom="1.5706367"
     inkscape:cx="89.874084"
     inkscape:cy="-58.893315"
     inkscape:window-x="0"
     inkscape:window-y="18"
     inkscape:window-maximized="1"
     inkscape:current-layer="Слой_1" /><style
     type="text/css"
     id="style4251">
	.st0{fill:#2A2D33;}
</style><g
     id="g4253"
     style="fill:#000912;fill-opacity:1"
     transform="matrix(0.17087062,0,0,0.17087062,-8.3596382,-40.359641)"><path
       class="st0"
       d="m 173.7,297.6 c 0,-33.9 -27.5,-61.4 -61.4,-61.4 -33.9,0 -61.4,27.5 -61.4,61.4 0,33.9 27.5,61.4 61.4,61.4 13.2,0 25.4,-4.2 35.4,-11.2 l 11.2,11.2 14.8,0 0,-14.8 -11.2,-11.2 c 7.1,-10 11.2,-22.2 11.2,-35.4 z m -101.8,0 c 0,-22.3 18.2,-40.5 40.5,-40.5 22.3,0 40.5,18.2 40.5,40.5 0,22.3 -18.2,40.5 -40.5,40.5 -22.3,0 -40.5,-18.1 -40.5,-40.5 z"
       id="path4255"
       style="fill:#000912;fill-opacity:1"
       inkscape:connector-curvature="0" /><polygon
       class="st0"
       points="621.6,338.1 564.4,338.1 564.4,236.3 543.5,236.3 543.5,359 564.4,359 564.4,359 621.6,359 "
       id="polygon4257"
       style="fill:#000912;fill-opacity:1" /><rect
       x="769.29999"
       y="236.3"
       class="st0"
       width="20.9"
       height="122.8"
       id="rect4259"
       style="fill:#000912;fill-opacity:1" /><path
       class="st0"
       d="m 357.9,236.3 0,0 0,0 0,0 0,0 -11.7,23.4 -49.7,99.3 0,0 23.4,0 6.3,-12.6 63.4,0 6.3,12.6 23.4,0 0,0 -49.7,-99.4 -11.7,-23.3 z m -21.3,89.2 21.2,-42.5 21.2,42.5 -42.4,0 z"
       id="path4261"
       style="fill:#000912;fill-opacity:1"
       inkscape:connector-curvature="0" /></g></svg>