<svg width="102" height="102" viewBox="0 0 102 102" fill="none" xmlns="http://www.w3.org/2000/svg">
<path fill-rule="evenodd" clip-rule="evenodd" d="M102 42.7742H98.3032L92.7934 45.6733C92.1732 45.3311 91.5282 45.0411 90.8325 44.8668L83.9016 43.1325V42.3444C86.9678 40.2044 88.8387 36.6691 88.8387 32.9032V30.0274C88.8387 23.6363 83.8309 18.288 77.676 18.1016C77.3635 18.0936 77.0559 18.1048 76.7466 18.1201L78.5436 13.9132L69.8318 5.20379L64.6963 8.54632C62.7451 7.44741 60.6814 6.59189 58.5382 5.99183L57.2698 0H44.7318L43.4634 5.99343C41.3202 6.5935 39.2549 7.44901 37.3053 8.54793L32.1698 5.20539L23.4652 13.91L25.2317 18.1201C25.2007 18.1186 25.1704 18.1153 25.1401 18.1119L25.14 18.1119H25.14H25.14H25.14H25.14H25.14H25.1399H25.1399C25.1044 18.108 25.0689 18.1041 25.0325 18.1032C21.8819 18.0116 18.9145 19.1611 16.6605 21.3493C14.4032 23.5359 13.1613 26.4704 13.1613 29.6129V32.9032C13.1613 36.6691 15.0306 40.2028 18.0968 42.3428V43.1325L13.5758 44.2627L5.38132 39.4839H0V73.5736L16.1849 78.9677H19.3371L19.7307 77.5893L24.6919 80.5671C24.773 83.2646 26.9363 85.4351 29.6314 85.5299C29.7262 88.2137 31.883 90.3706 34.5669 90.4654C34.6617 93.1492 36.8185 95.3061 39.5023 95.4009C39.6003 98.1474 41.8496 100.355 44.6186 100.355C45.6468 100.355 46.6549 100.034 47.5024 99.4632L48.9596 100.75C49.873 101.554 51.049 102 52.27 102H52.5745C55.3121 102 57.5397 99.7869 57.5742 97.0581C60.2821 97.0236 62.4752 94.8305 62.5097 92.1226C65.2192 92.0881 67.4139 89.8918 67.4452 87.1823C70.1796 87.118 72.3871 84.8841 72.3871 82.1344C72.3871 81.9689 72.3791 81.8058 72.3622 81.6411L102 66.8234V42.7742ZM85.5484 30.0274V32.9032C85.5484 35.8232 83.9707 38.5512 81.4307 40.0221L80.6081 40.4976L80.6145 45.7038L88.8339 47.7571L70.7419 57.2794V52.8476C70.7419 50.6361 69.8487 48.611 68.3858 47.1144L74.0323 45.7038V40.4936L73.2113 40.0189C70.6729 38.5512 69.0968 35.8232 69.0968 32.9032V29.6129C69.0968 27.3693 69.9836 25.2711 71.5958 23.7086C73.2065 22.147 75.3432 21.3052 77.5772 21.3919C81.9721 21.5237 85.5484 25.398 85.5484 30.0274ZM46.0332 53.6059L53.4806 55.9861C54.3048 56.0174 55.1258 56.1098 55.9226 56.3355L66.037 59.2258H67.0451L67.4516 59.0121V52.8476C67.4516 50.5791 65.9133 48.6094 63.7139 48.0583L54.2919 45.7038L54.2855 40.4976L55.1081 40.0221C57.6481 38.5512 59.2258 35.8232 59.2258 32.9032V30.0274C59.2258 25.398 55.6495 21.5237 51.2546 21.3919C49.0343 21.3052 46.8839 22.147 45.2733 23.7086C43.661 25.2711 42.7742 27.3693 42.7742 29.6129V32.9032C42.7742 35.8232 44.3503 38.5512 46.8887 40.0189L47.7097 40.4936V45.7038L38.2861 48.0583C36.0867 48.6094 34.5484 50.5791 34.5484 52.8476V53.3344L35.4915 53.1255C38.9657 52.356 42.6392 52.5182 46.0332 53.6059ZM34.9171 24.6228C38.0066 18.6366 44.225 14.8065 51 14.8065C57.7108 14.8065 63.9026 18.5852 67.0154 24.4902C66.2322 26.0607 65.8065 27.7999 65.8065 29.6129V32.9032C65.8065 36.6691 67.6757 40.2028 70.7419 42.3428V43.1325L64.1613 44.78L57.579 43.1325V42.3444C60.6452 40.2044 62.5161 36.6691 62.5161 32.9032V30.0274C62.5161 23.6363 57.5083 18.288 51.3535 18.1016C48.2045 18.0092 45.2355 19.1595 42.9814 21.3477C40.7258 23.5359 39.4839 26.4704 39.4839 29.6129V32.9032C39.4839 36.6691 41.3532 40.2028 44.4194 42.3428V43.1325L37.8387 44.78L31.2565 43.1325V42.3444C34.3227 40.2044 36.1936 36.6691 36.1936 32.9032V30.0274C36.1936 28.0914 35.7276 26.2535 34.9171 24.6228ZM32.6068 9.4171L27.3508 14.6731L29.1968 19.0744C30.5608 19.6873 31.7915 20.5645 32.8261 21.6474C36.6924 15.4234 43.5638 11.5161 51 11.5161C58.3831 11.5161 65.2353 15.3872 69.1112 21.5486C69.1401 21.519 69.1675 21.4888 69.1947 21.4586L69.1948 21.4586L69.1948 21.4585L69.1949 21.4585C69.2298 21.4199 69.2646 21.3815 69.3024 21.3445C70.3274 20.3508 71.5051 19.5821 72.7751 19.0358L74.6412 14.6667L69.3916 9.4155L64.7654 12.4263L63.8801 11.8832C61.6622 10.5241 59.2652 9.52876 56.7565 8.92789L55.7443 8.6861L54.6028 3.29032H47.3988L46.2541 8.68771L45.2419 8.9303C42.7332 9.53037 40.3362 10.5257 38.1183 11.8848L37.233 12.4279L32.6068 9.4171ZM21.3871 45.7038V40.4936L20.5661 40.0189C18.0277 38.5512 16.4516 35.8232 16.4516 32.9032V29.6129C16.4516 27.3693 17.3385 25.2711 18.9507 23.7086C20.5613 22.147 22.7029 21.3052 24.9321 21.3919C29.3269 21.5237 32.9032 25.398 32.9032 30.0274V32.9032C32.9032 35.8232 31.3255 38.5512 28.7855 40.0221L27.9629 40.4976L27.9693 45.7038L33.6141 47.1144C32.1513 48.611 31.2581 50.6361 31.2581 52.8476V54.0662L26.1266 55.2069L26.2599 54.741L26.3226 51.7005L17.6461 46.6389L21.3871 45.7038ZM4.48965 42.7742H3.29032V71.2006L10.3513 73.5551L16.3215 49.6754L4.48965 42.7742ZM16.7183 75.6774L13.4802 74.5986L19.28 51.4016L23.0323 53.5898V54.0598L16.8565 75.6774H16.7183ZM28.5076 79.1091C28.1637 79.4529 27.9677 79.9285 27.9677 80.4137C27.9677 81.4307 28.7951 82.2581 29.8121 82.2581C30.2973 82.2581 30.7729 82.0621 31.1167 81.7182L34.0086 78.8264C34.3524 78.4826 34.5484 78.007 34.5484 77.5218C34.5484 76.5048 33.721 75.6774 32.704 75.6774C32.2188 75.6774 31.7433 75.8734 31.3994 76.2172L28.5076 79.1091ZM32.9032 85.3492C32.9032 84.864 33.0992 84.3884 33.443 84.0446L36.3349 81.1527C36.6787 80.8089 37.1543 80.6129 37.6395 80.6129C38.6565 80.6129 39.4839 81.4403 39.4839 82.4573C39.4839 82.9425 39.2879 83.418 38.9441 83.7618L36.0522 86.6537C35.7084 86.9975 35.2328 87.1935 34.7476 87.1935C33.7306 87.1935 32.9032 86.3661 32.9032 85.3492ZM38.3785 88.9801C38.0347 89.3239 37.8387 89.7995 37.8387 90.2847C37.8387 91.3016 38.6661 92.129 39.6831 92.129C40.1683 92.129 40.6438 91.933 40.9877 91.5892L43.8795 88.6973C44.2234 88.3535 44.4194 87.878 44.4194 87.3928C44.4194 86.3758 43.592 85.5484 42.575 85.5484C42.0898 85.5484 41.6142 85.7444 41.2704 86.0882L38.3785 88.9801ZM44.6186 97.0645C43.6016 97.0645 42.7742 96.2371 42.7742 95.2201C42.7742 94.7349 42.9702 94.2594 43.314 93.9156L46.2059 91.0237C46.5497 90.6799 47.0253 90.4839 47.5105 90.4839C48.5274 90.4839 49.3548 91.3113 49.3548 92.3283C49.3548 92.8134 49.1588 93.289 48.815 93.6328L45.9231 96.5247C45.5793 96.8685 45.1038 97.0645 44.6186 97.0645ZM52.27 98.7097H52.5745C53.5208 98.7097 54.2903 97.9401 54.2903 96.9938C54.2903 96.4821 54.0646 96.0017 53.6734 95.6756L52.1776 94.4305C51.9246 94.9936 51.5824 95.5182 51.1414 95.9592L49.9059 97.1946L51.1366 98.2799C51.449 98.557 51.8507 98.7097 52.27 98.7097ZM67.3279 83.9032H67.0435C66.6306 83.9032 66.2274 83.757 65.9117 83.4919L56.9902 76.0574L54.8824 78.5862L63.546 85.8046C63.9356 86.1308 64.1613 86.6112 64.1613 87.1229C64.1613 88.0691 63.3917 88.8387 62.4454 88.8387H62.0864C61.6871 88.8387 61.2967 88.6973 60.9891 88.4403L52.0531 80.9945L49.9453 83.5233L58.6089 90.7425C59.0001 91.0663 59.2258 91.5466 59.2258 92.0583C59.2258 93.0046 58.4562 93.7742 57.51 93.7742C56.8786 93.7742 56.2632 93.5501 55.7788 93.1476L52.1069 90.087C51.298 88.4338 49.636 87.2811 47.6896 87.212C47.5948 84.5282 45.4379 82.3713 42.7541 82.2765C42.6593 79.5927 40.5025 77.4358 37.8186 77.3411C37.7222 74.5946 35.473 72.3871 32.704 72.3871C31.3521 72.3871 30.029 72.935 29.0731 73.8909L26.1812 76.7828C26.0208 76.9432 25.886 77.1237 25.7511 77.3043L25.7201 77.3459L20.6665 74.3134L25.0967 58.8081L36.2032 56.3387C39.1168 55.6873 42.1886 55.8286 45.0299 56.738L47.4534 57.5132L39.2373 61.6213C37.3599 62.5619 36.1936 64.4505 36.1936 66.5503V66.8756C36.1936 69.9145 38.6661 72.3871 41.705 72.3871C42.7035 72.3871 43.6859 72.1156 44.5398 71.6007L50.6658 67.9272C51.8965 67.1897 53.5481 67.3512 54.6108 68.3071L68.5112 80.8169C68.8831 81.1543 69.0968 81.6331 69.0968 82.1344C69.0968 83.1104 68.3039 83.9032 67.3279 83.9032ZM70.9934 78.6488L98.7097 64.7895V46.2782L67.8581 62.5161L65.3542 62.4535L55.0157 59.5005C53.3231 59.0137 51.4587 59.1897 49.8882 59.9761L40.7113 64.5645C39.9546 64.9429 39.4839 65.7028 39.4839 66.5503V66.8756C39.4839 68.1015 40.4792 69.0968 41.705 69.0968C42.1067 69.0968 42.4995 68.9883 42.8433 68.7811L48.9717 65.106C50.0031 64.4874 51.1807 64.1613 52.3801 64.1613C54.0204 64.1613 55.5949 64.7654 56.8127 65.8643L70.7106 78.3741C70.8094 78.4625 70.9034 78.5532 70.9934 78.6488Z" fill="white"/>
</svg>
