<svg width="109" height="102" viewBox="0 0 109 102" fill="none" xmlns="http://www.w3.org/2000/svg">
<path fill-rule="evenodd" clip-rule="evenodd" d="M11.495 43.8898H1.75559C0.785902 43.8898 0 43.1039 0 42.1343V31.6007C0 30.6317 0.785902 29.8451 1.75559 29.8451H11.495C12.0711 27.7686 12.9009 25.7702 13.9679 23.8973L7.07312 17.0066C6.74395 16.6775 6.55879 16.231 6.55879 15.7647C6.55879 15.2984 6.74395 14.8519 7.07312 14.5227L14.5221 7.07312C15.2181 6.41478 16.3078 6.41478 17.0046 7.07312L23.8987 13.9679C25.7716 12.9022 27.7686 12.0718 29.8451 11.4957V1.75559C29.8451 0.786588 30.631 0 31.6007 0H42.1343C43.1039 0 43.8898 0.786588 43.8898 1.75559V11.4957C45.9664 12.0718 47.9634 12.9022 49.8362 13.9679L56.7304 7.07312C57.4161 6.38803 58.5271 6.38803 59.2129 7.07312L66.6604 14.5227C66.9896 14.8519 67.1748 15.2984 67.1748 15.7647C67.1748 16.231 66.9896 16.6775 66.6604 17.0066L59.767 23.8973C60.8341 25.7702 61.6639 27.7686 62.2399 29.8451H71.9793C72.949 29.8451 73.7349 30.6317 73.7349 31.6007V42.1343C73.7349 43.1039 72.949 43.8898 71.9793 43.8898H62.2399C61.6639 45.9671 60.8341 47.9654 59.767 49.8383L66.6618 56.729C66.991 57.0582 67.1761 57.5046 67.1761 57.9709C67.1761 58.4373 66.991 58.8837 66.6618 59.2129L59.2129 66.6625C58.5168 67.3209 57.4271 67.3209 56.7304 66.6625L49.8362 59.7677C47.9634 60.8341 45.9671 61.6645 43.8898 62.2399V71.9793C43.8898 72.949 43.1039 73.7349 42.1343 73.7349H31.6007C30.631 73.7349 29.8451 72.949 29.8451 71.9793V62.2399C27.7679 61.6645 25.7716 60.8341 23.8987 59.7677L17.0046 66.6625C16.3188 67.3469 15.2078 67.3469 14.5221 66.6625L7.07449 59.2129C6.74532 58.8837 6.56016 58.4373 6.56016 57.9709C6.56016 57.5046 6.74532 57.0582 7.07449 56.729L13.9679 49.8383C12.9009 47.9654 12.0711 45.9671 11.495 43.8898ZM12.8686 33.3563H3.51119V40.3787H12.8686C13.6936 40.3787 14.4068 40.9513 14.5838 41.7571C15.1598 44.387 16.2015 46.8929 17.6595 49.1566C18.1052 49.852 18.0072 50.7641 17.4222 51.3477L10.7983 57.9716L15.7633 62.9387L22.3872 56.3127C22.9708 55.7284 23.8829 55.6297 24.5783 56.0755C26.8407 57.5334 29.3452 58.5751 31.9744 59.1512C32.7809 59.3267 33.3563 60.0413 33.3563 60.8663V70.2237H40.3787V60.8663C40.3787 60.0413 40.954 59.3267 41.7605 59.1512C44.3898 58.5751 46.8942 57.5334 49.1566 56.0755C49.852 55.6297 50.7641 55.7284 51.3477 56.3127L57.9716 62.9387L62.938 57.9703L56.3127 51.3463C55.7291 50.7627 55.6304 49.8513 56.0755 49.1566C57.5327 46.8949 58.5737 44.3898 59.1491 41.7605C59.326 40.9547 60.0399 40.3807 60.8642 40.3807H70.2237V33.3583H60.8642C60.0399 33.3583 59.326 32.7837 59.1491 31.9779C58.5737 29.3479 57.5334 26.8428 56.0755 24.5783C55.6297 23.8836 55.7278 22.9715 56.3127 22.3872L62.9367 15.764L57.9716 10.7969L51.3477 17.4222C50.7641 18.0072 49.852 18.1059 49.1566 17.6602C46.8929 16.2029 44.3877 15.1612 41.7584 14.5845C40.9533 14.4075 40.3787 13.6936 40.3787 12.8686V3.51119H33.3563V12.8686C33.3563 13.6936 32.7816 14.4075 31.9765 14.5845C29.3472 15.1612 26.8421 16.2029 24.5783 17.6602C23.8829 18.1059 22.9708 18.0072 22.3872 17.4222L15.7633 10.7969L10.7969 15.764L17.4222 22.3893C18.0058 22.9729 18.1046 23.8843 17.6595 24.5783C16.2015 26.8414 15.1598 29.3472 14.5838 31.9765C14.4075 32.7823 13.6936 33.3563 12.8686 33.3563ZM50.9122 36.8675C50.9122 44.625 44.6243 50.9122 36.8675 50.9122C29.1147 50.904 22.8309 44.6202 22.8227 36.8675C22.8227 29.1106 29.1106 22.8227 36.8675 22.8227C44.6243 22.8227 50.9122 29.1106 50.9122 36.8675ZM47.401 36.8675C47.401 31.0507 42.6842 26.3339 36.8675 26.3339C31.0521 26.3401 26.3401 31.0521 26.3339 36.8675C26.3339 42.6849 31.0507 47.401 36.8675 47.401C42.6842 47.401 47.401 42.6849 47.401 36.8675ZM36.8675 56.179C47.5327 56.179 56.179 47.5334 56.179 36.8675C56.179 26.2022 47.5327 17.5559 36.8675 17.5559C26.2022 17.5559 17.5559 26.2022 17.5559 36.8675C17.569 47.5279 26.207 56.1667 36.8675 56.179ZM36.8675 21.0671C45.594 21.0671 52.6678 28.1409 52.6678 36.8675C52.6678 45.594 45.594 52.6678 36.8675 52.6678C28.1409 52.6678 21.0671 45.594 21.0671 36.8675C21.0767 28.1457 28.1451 21.0767 36.8675 21.0671ZM100.069 66.7126C100.069 65.7436 99.2829 64.957 98.3133 64.957H94.8021V50.9122C94.8021 49.9432 94.0162 49.1566 93.0465 49.1566H77.2461C76.2764 49.1566 75.4905 49.9432 75.4905 50.9122V64.957H66.7126C65.7429 64.957 64.957 65.7436 64.957 66.7126V80.7573H8.77797C3.93226 80.7635 0.006172 84.6896 0 89.5353V93.0465C0.006172 97.8929 3.93226 101.819 8.77797 101.824H100.069C104.915 101.819 108.841 97.8929 108.847 93.0465V89.5353C108.841 84.6896 104.915 80.7635 100.069 80.7573V66.7126ZM96.5577 80.7573H84.2685V68.4682H96.5577V80.7573ZM91.2909 52.6678H79.0017V64.957H91.2909V52.6678ZM68.4682 68.4682H80.7573V80.7573H68.4682V68.4682ZM100.069 98.3133C102.977 98.3133 105.336 95.9556 105.336 93.0465V89.5353C105.336 86.6269 102.977 84.2685 100.069 84.2685H8.77797C5.86958 84.2685 3.51119 86.6269 3.51119 89.5353V93.0465C3.51119 95.9556 5.86958 98.3133 8.77797 98.3133H100.069ZM54.4234 86.0241C51.515 86.0241 49.1566 88.3825 49.1566 91.2909C49.1566 94.2 51.515 96.5577 54.4234 96.5577C57.3318 96.5577 59.6902 94.2 59.6902 91.2909C59.6902 88.3825 57.3318 86.0241 54.4234 86.0241ZM54.4234 93.0465C53.4537 93.0465 52.6678 92.2606 52.6678 91.2909C52.6678 90.3219 53.4537 89.5353 54.4234 89.5353C55.3931 89.5353 56.179 90.3219 56.179 91.2909C56.179 92.2606 55.3931 93.0465 54.4234 93.0465ZM31.6007 91.2909C31.6007 88.3825 33.9591 86.0241 36.8675 86.0241C39.7759 86.0241 42.1343 88.3825 42.1343 91.2909C42.1343 94.2 39.7759 96.5577 36.8675 96.5577C33.9591 96.5577 31.6007 94.2 31.6007 91.2909ZM35.1119 91.2909C35.1119 92.2606 35.8978 93.0465 36.8675 93.0465C37.8372 93.0465 38.6231 92.2606 38.6231 91.2909C38.6231 90.3219 37.8372 89.5353 36.8675 89.5353C35.8978 89.5353 35.1119 90.3219 35.1119 91.2909ZM71.9793 86.0241C69.071 86.0241 66.7126 88.3825 66.7126 91.2909C66.7126 94.2 69.071 96.5577 71.9793 96.5577C74.8877 96.5577 77.2461 94.2 77.2461 91.2909C77.2461 88.3825 74.8877 86.0241 71.9793 86.0241ZM71.9793 93.0465C71.0097 93.0465 70.2237 92.2606 70.2237 91.2909C70.2237 90.3219 71.0097 89.5353 71.9793 89.5353C72.949 89.5353 73.7349 90.3219 73.7349 91.2909C73.7349 92.2606 72.949 93.0465 71.9793 93.0465ZM14.0448 91.2909C14.0448 88.3825 16.4031 86.0241 19.3115 86.0241C22.2199 86.0241 24.5783 88.3825 24.5783 91.2909C24.5783 94.2 22.2199 96.5577 19.3115 96.5577C16.4031 96.5577 14.0448 94.2 14.0448 91.2909ZM17.5559 91.2909C17.5559 92.2606 18.3418 93.0465 19.3115 93.0465C20.2812 93.0465 21.0671 92.2606 21.0671 91.2909C21.0671 90.3219 20.2812 89.5353 19.3115 89.5353C18.3418 89.5353 17.5559 90.3219 17.5559 91.2909ZM89.5353 86.0241C86.6269 86.0241 84.2685 88.3825 84.2685 91.2909C84.2685 94.2 86.6269 96.5577 89.5353 96.5577C92.4437 96.5577 94.8021 94.2 94.8021 91.2909C94.8021 88.3825 92.4437 86.0241 89.5353 86.0241ZM89.5353 93.0465C88.5656 93.0465 87.7797 92.2606 87.7797 91.2909C87.7797 90.3219 88.5656 89.5353 89.5353 89.5353C90.505 89.5353 91.2909 90.3219 91.2909 91.2909C91.2909 92.2606 90.505 93.0465 89.5353 93.0465Z" fill="white"/>
</svg>
