<?xml version="1.0" encoding="UTF-8" standalone="no"?>
<!-- Generator: Adobe Illustrator 19.0.0, SVG Export Plug-In . SVG Version: 6.00 Build 0)  -->

<svg
   xmlns:dc="http://purl.org/dc/elements/1.1/"
   xmlns:cc="http://creativecommons.org/ns#"
   xmlns:rdf="http://www.w3.org/1999/02/22-rdf-syntax-ns#"
   xmlns:svg="http://www.w3.org/2000/svg"
   xmlns="http://www.w3.org/2000/svg"
   xmlns:sodipodi="http://sodipodi.sourceforge.net/DTD/sodipodi-0.dtd"
   xmlns:inkscape="http://www.inkscape.org/namespaces/inkscape"
   version="1.1"
   id="Layer_1"
   x="0px"
   y="0px"
   viewBox="0 0 88.93 92"
   xml:space="preserve"
   sodipodi:docname="building.svg"
   width="88.93"
   height="92"
   inkscape:version="0.92.3 (2405546, 2018-03-11)"><metadata
   id="metadata916"><rdf:RDF><cc:Work
       rdf:about=""><dc:format>image/svg+xml</dc:format><dc:type
         rdf:resource="http://purl.org/dc/dcmitype/StillImage" /><dc:title></dc:title></cc:Work></rdf:RDF></metadata><defs
   id="defs914">
	
















		
	
			
			
			
			
			
			
			
			
			
			
			
			
			
			
			
			
			
			
			
			
			
			
			
			
			
			
			
			
			
			
		</defs><sodipodi:namedview
   pagecolor="#ffffff"
   bordercolor="#666666"
   borderopacity="1"
   objecttolerance="10"
   gridtolerance="10"
   guidetolerance="10"
   inkscape:pageopacity="0"
   inkscape:pageshadow="2"
   inkscape:window-width="3840"
   inkscape:window-height="2093"
   id="namedview912"
   showgrid="false"
   inkscape:zoom="10.496116"
   inkscape:cx="119.47006"
   inkscape:cy="50.086088"
   inkscape:window-x="-9"
   inkscape:window-y="-9"
   inkscape:window-maximized="1"
   inkscape:current-layer="Layer_1" />
<path
   style="fill:#ffffff;stroke-width:0.1796875"
   inkscape:connector-curvature="0"
   id="path815"
   d="M 84.779688,88.898953 H 82.195422 V 7.7527969 c 0,-0.8565703 -0.694312,-1.5505235 -1.550523,-1.5505235 H 51.701016 c -0.856391,0 -1.550524,0.6939532 -1.550524,1.5505235 V 14.471852 H 47.049446 V 7.7527969 c 0,-0.8565703 -0.694313,-1.5505235 -1.550524,-1.5505235 h -6.719234 v -4.65175 C 38.779688,0.69395313 38.085375,0 37.229164,0 36.372953,0 35.678641,0.69395313 35.678641,1.5505234 v 4.65175 h -6.719055 c -0.85639,0 -1.550523,0.6939532 -1.550523,1.5505235 v 6.7190551 h -4.65175 c -0.856391,0 -1.550524,0.693953 -1.550524,1.550523 V 28.943703 H 8.2854611 c -0.8563906,0 -1.5505234,0.693953 -1.5505234,1.550524 v 58.404546 h -2.584625 c -0.8563906,0 -1.5505234,0.693954 -1.5505234,1.550524 C 2.5997893,91.305867 3.2941018,92 4.1503127,92 H 84.779688 c 0.85639,0 1.550523,-0.693953 1.550523,-1.550523 0,-0.856571 -0.694312,-1.550524 -1.550523,-1.550524 z M 30.50993,9.3033203 H 43.948039 V 14.471852 H 30.50993 Z M 25.341399,88.898953 h -1.033743 v -2.584265 c 0,-0.856571 -0.694312,-1.550524 -1.550523,-1.550524 -0.856211,0 -1.550523,0.693953 -1.550523,1.550524 v 2.584265 h -1.033743 v -5.168531 h 5.168532 z M 35.678461,49.101047 v 2.667461 37.130445 h -7.236015 v -6.719055 c 0,-0.85657 -0.694313,-1.550523 -1.550524,-1.550523 h -8.269578 c -0.856391,0 -1.550523,0.693953 -1.550523,1.550523 v 6.719055 H 9.8358049 V 32.04493 H 35.678461 Z M 37.228985,28.943883 H 24.307656 V 17.573078 H 50.150313 V 47.550523 H 38.779688 v -5.168531 h 4.65175 c 0.85639,0 1.550523,-0.693953 1.550523,-1.550523 0,-0.856571 -0.694312,-1.550524 -1.550523,-1.550524 h -4.65175 v -5.168531 h 4.65175 c 0.85639,0 1.550523,-0.693953 1.550523,-1.550523 0,-0.856571 -0.694312,-1.550524 -1.550523,-1.550524 h -4.65175 v -0.516781 c 0,-0.85675 -0.694313,-1.550703 -1.550703,-1.550703 z m 27.393359,59.95507 H 38.779688 V 51.768508 50.65175 h 25.842656 z m 14.471852,0 H 67.723391 V 49.101047 47.033563 c 0,-0.856571 -0.694313,-1.550524 -1.550524,-1.550524 -0.856211,0 -1.550523,0.693953 -1.550523,1.550524 v 0.516781 h -3.101047 v -0.516781 c 0,-0.856571 -0.694312,-1.550524 -1.550523,-1.550524 -0.856211,0 -1.550524,0.693953 -1.550524,1.550524 v 0.516781 H 53.251719 V 16.022555 9.3033203 H 79.094375 V 88.898953 Z" /><path
   style="fill:#ffffff;stroke-width:0.1796875"
   inkscape:connector-curvature="0"
   id="path817"
   d="m 45.498742,85.798086 c 0.856391,0 1.550524,-0.694313 1.550524,-1.550524 V 55.303859 c 0,-0.85657 -0.694313,-1.550523 -1.550524,-1.550523 -0.856211,0 -1.550523,0.693953 -1.550523,1.550523 v 28.943883 c 0,0.856211 0.694133,1.550344 1.550523,1.550344 z" /><path
   style="fill:#ffffff;stroke-width:0.1796875"
   inkscape:connector-curvature="0"
   id="path819"
   d="m 51.701016,85.798086 c 0.85639,0 1.550523,-0.694313 1.550523,-1.550524 V 55.303859 c 0,-0.85657 -0.694312,-1.550523 -1.550523,-1.550523 -0.856211,0 -1.550524,0.693953 -1.550524,1.550523 v 28.943883 c -1.79e-4,0.856211 0.694133,1.550344 1.550524,1.550344 z" /><path
   style="fill:#ffffff;stroke-width:0.1796875"
   inkscape:connector-curvature="0"
   id="path821"
   d="m 57.90311,85.798086 c 0.85639,0 1.550523,-0.694313 1.550523,-1.550524 V 55.303859 c 0,-0.85657 -0.694312,-1.550523 -1.550523,-1.550523 -0.856211,0 -1.550524,0.693953 -1.550524,1.550523 v 28.943883 c 0,0.856211 0.694313,1.550344 1.550524,1.550344 z" /><path
   style="fill:#ffffff;stroke-width:0.1796875"
   inkscape:connector-curvature="0"
   id="path823"
   d="m 59.970594,19.640383 c 0.856391,0 1.550523,-0.693953 1.550523,-1.550524 v -2.067304 c 0,-0.856571 -0.694312,-1.550524 -1.550523,-1.550524 -0.856211,0 -1.550523,0.693953 -1.550523,1.550524 v 2.067484 c 0,0.856391 0.694132,1.550344 1.550523,1.550344 z" /><path
   style="fill:#ffffff;stroke-width:0.1796875"
   inkscape:connector-curvature="0"
   id="path825"
   d="m 66.172867,19.640383 c 0.856391,0 1.550524,-0.693953 1.550524,-1.550524 v -2.067304 c 0,-0.856571 -0.694313,-1.550524 -1.550524,-1.550524 -0.856211,0 -1.550523,0.693953 -1.550523,1.550524 v 2.067484 c 0,0.856391 0.694133,1.550344 1.550523,1.550344 z" /><path
   style="fill:#ffffff;stroke-width:0.1796875"
   inkscape:connector-curvature="0"
   id="path827"
   d="m 72.375141,19.640383 c 0.85639,0 1.550523,-0.693953 1.550523,-1.550524 v -2.067304 c 0,-0.856571 -0.694312,-1.550524 -1.550523,-1.550524 -0.856211,0 -1.550524,0.693953 -1.550524,1.550524 v 2.067484 c 0,0.856391 0.694133,1.550344 1.550524,1.550344 z" /><path
   style="fill:#ffffff;stroke-width:0.1796875"
   inkscape:connector-curvature="0"
   id="path829"
   d="m 59.970594,29.977445 c 0.856391,0 1.550523,-0.693953 1.550523,-1.550523 v -2.067485 c 0,-0.85657 -0.694312,-1.550523 -1.550523,-1.550523 -0.856211,0 -1.550523,0.693953 -1.550523,1.550523 v 2.067485 c 0,0.85657 0.694132,1.550523 1.550523,1.550523 z" /><path
   style="fill:#ffffff;stroke-width:0.1796875"
   inkscape:connector-curvature="0"
   id="path831"
   d="m 66.172867,29.977445 c 0.856391,0 1.550524,-0.693953 1.550524,-1.550523 v -2.067485 c 0,-0.85657 -0.694313,-1.550523 -1.550524,-1.550523 -0.856211,0 -1.550523,0.693953 -1.550523,1.550523 v 2.067485 c 0,0.85657 0.694133,1.550523 1.550523,1.550523 z" /><path
   style="fill:#ffffff;stroke-width:0.1796875"
   inkscape:connector-curvature="0"
   id="path833"
   d="m 72.375141,29.977445 c 0.85639,0 1.550523,-0.693953 1.550523,-1.550523 v -2.067485 c 0,-0.85657 -0.694312,-1.550523 -1.550523,-1.550523 -0.856211,0 -1.550524,0.693953 -1.550524,1.550523 v 2.067485 c 0,0.85657 0.694133,1.550523 1.550524,1.550523 z" /><path
   style="fill:#ffffff;stroke-width:0.1796875"
   inkscape:connector-curvature="0"
   id="path835"
   d="m 59.970594,40.314688 c 0.856391,0 1.550523,-0.693954 1.550523,-1.550524 V 36.69668 c 0,-0.856571 -0.694312,-1.550524 -1.550523,-1.550524 -0.856211,0 -1.550523,0.693953 -1.550523,1.550524 v 2.067484 c 0,0.856391 0.694132,1.550524 1.550523,1.550524 z" /><path
   style="fill:#ffffff;stroke-width:0.1796875"
   inkscape:connector-curvature="0"
   id="path837"
   d="m 66.172867,40.314688 c 0.856391,0 1.550524,-0.693954 1.550524,-1.550524 V 36.69668 c 0,-0.856571 -0.694313,-1.550524 -1.550524,-1.550524 -0.856211,0 -1.550523,0.693953 -1.550523,1.550524 v 2.067484 c 0,0.856391 0.694133,1.550524 1.550523,1.550524 z" /><path
   style="fill:#ffffff;stroke-width:0.1796875"
   inkscape:connector-curvature="0"
   id="path839"
   d="m 72.375141,40.314688 c 0.85639,0 1.550523,-0.693954 1.550523,-1.550524 V 36.69668 c 0,-0.856571 -0.694312,-1.550524 -1.550523,-1.550524 -0.856211,0 -1.550524,0.693953 -1.550524,1.550524 v 2.067484 c 0,0.856391 0.694133,1.550524 1.550524,1.550524 z" /><path
   style="fill:#ffffff;stroke-width:0.1796875"
   inkscape:connector-curvature="0"
   id="path841"
   d="m 16.55486,44.449477 c 0.85639,0 1.550523,-0.693954 1.550523,-1.550524 v -2.067484 c 0,-0.856571 -0.694312,-1.550524 -1.550523,-1.550524 -0.856211,0 -1.550524,0.693953 -1.550524,1.550524 v 2.067484 c 0,0.856391 0.694313,1.550524 1.550524,1.550524 z" /><path
   style="fill:#ffffff;stroke-width:0.1796875"
   inkscape:connector-curvature="0"
   id="path843"
   d="m 22.757133,44.449477 c 0.856391,0 1.550523,-0.693954 1.550523,-1.550524 v -2.067484 c 0,-0.856571 -0.694312,-1.550524 -1.550523,-1.550524 -0.856211,0 -1.550523,0.693953 -1.550523,1.550524 v 2.067484 c 0,0.856391 0.694132,1.550524 1.550523,1.550524 z" /><path
   style="fill:#ffffff;stroke-width:0.1796875"
   inkscape:connector-curvature="0"
   id="path845"
   d="m 28.959406,44.449477 c 0.856391,0 1.550524,-0.693954 1.550524,-1.550524 v -2.067484 c 0,-0.856571 -0.694313,-1.550524 -1.550524,-1.550524 -0.85621,0 -1.550523,0.693953 -1.550523,1.550524 v 2.067484 c 0,0.856391 0.694133,1.550524 1.550523,1.550524 z" /><path
   style="fill:#ffffff;stroke-width:0.1796875"
   inkscape:connector-curvature="0"
   id="path847"
   d="m 16.55486,54.786539 c 0.85639,0 1.550523,-0.693953 1.550523,-1.550523 v -2.067485 c 0,-0.85657 -0.694312,-1.550523 -1.550523,-1.550523 -0.856211,0 -1.550524,0.693953 -1.550524,1.550523 v 2.067485 c 0,0.85639 0.694313,1.550523 1.550524,1.550523 z" /><path
   style="fill:#ffffff;stroke-width:0.1796875"
   inkscape:connector-curvature="0"
   id="path849"
   d="m 22.757133,54.786539 c 0.856391,0 1.550523,-0.693953 1.550523,-1.550523 v -2.067485 c 0,-0.85657 -0.694312,-1.550523 -1.550523,-1.550523 -0.856211,0 -1.550523,0.693953 -1.550523,1.550523 v 2.067485 c 0,0.85639 0.694132,1.550523 1.550523,1.550523 z" /><path
   style="fill:#ffffff;stroke-width:0.1796875"
   inkscape:connector-curvature="0"
   id="path851"
   d="m 28.959406,54.786539 c 0.856391,0 1.550524,-0.693953 1.550524,-1.550523 v -2.067485 c 0,-0.85657 -0.694313,-1.550523 -1.550524,-1.550523 -0.85621,0 -1.550523,0.693953 -1.550523,1.550523 v 2.067485 c 0,0.85639 0.694133,1.550523 1.550523,1.550523 z" /><path
   style="fill:#ffffff;stroke-width:0.1796875"
   inkscape:connector-curvature="0"
   id="path853"
   d="m 16.55486,65.123602 c 0.85639,0 1.550523,-0.693954 1.550523,-1.550524 v -2.067484 c 0,-0.856571 -0.694312,-1.550524 -1.550523,-1.550524 -0.856211,0 -1.550524,0.693953 -1.550524,1.550524 v 2.067484 c 0,0.85657 0.694313,1.550524 1.550524,1.550524 z" /><path
   style="fill:#ffffff;stroke-width:0.1796875"
   inkscape:connector-curvature="0"
   id="path855"
   d="m 22.757133,65.123602 c 0.856391,0 1.550523,-0.693954 1.550523,-1.550524 v -2.067484 c 0,-0.856571 -0.694312,-1.550524 -1.550523,-1.550524 -0.856211,0 -1.550523,0.693953 -1.550523,1.550524 v 2.067484 c 0,0.85657 0.694132,1.550524 1.550523,1.550524 z" /><path
   style="fill:#ffffff;stroke-width:0.1796875"
   inkscape:connector-curvature="0"
   id="path857"
   d="m 28.959406,65.123602 c 0.856391,0 1.550524,-0.693954 1.550524,-1.550524 v -2.067484 c 0,-0.856571 -0.694313,-1.550524 -1.550524,-1.550524 -0.85621,0 -1.550523,0.693953 -1.550523,1.550524 v 2.067484 c 0,0.85657 0.694133,1.550524 1.550523,1.550524 z" /><path
   style="fill:#ffffff;stroke-width:0.1796875"
   inkscape:connector-curvature="0"
   id="path859"
   d="m 16.55486,75.460664 c 0.85639,0 1.550523,-0.693953 1.550523,-1.550523 v -2.067485 c 0,-0.85657 -0.694312,-1.550523 -1.550523,-1.550523 -0.856211,0 -1.550524,0.693953 -1.550524,1.550523 v 2.067485 c 0,0.85657 0.694313,1.550523 1.550524,1.550523 z" /><path
   style="fill:#ffffff;stroke-width:0.1796875"
   inkscape:connector-curvature="0"
   id="path861"
   d="m 22.757133,75.460664 c 0.856391,0 1.550523,-0.693953 1.550523,-1.550523 v -2.067485 c 0,-0.85657 -0.694312,-1.550523 -1.550523,-1.550523 -0.856211,0 -1.550523,0.693953 -1.550523,1.550523 v 2.067485 c 0,0.85657 0.694132,1.550523 1.550523,1.550523 z" /><path
   style="fill:#ffffff;stroke-width:0.1796875"
   inkscape:connector-curvature="0"
   id="path863"
   d="m 28.959406,75.460664 c 0.856391,0 1.550524,-0.693953 1.550524,-1.550523 v -2.067485 c 0,-0.85657 -0.694313,-1.550523 -1.550524,-1.550523 -0.85621,0 -1.550523,0.693953 -1.550523,1.550523 v 2.067485 c 0,0.85657 0.694133,1.550523 1.550523,1.550523 z" /><path
   style="fill:#ffffff;stroke-width:0.1796875"
   inkscape:connector-curvature="0"
   id="path865"
   d="m 72.375141,50.65175 c 0.85639,0 1.550523,-0.693953 1.550523,-1.550523 v -2.067485 c 0,-0.85657 -0.694312,-1.550523 -1.550523,-1.550523 -0.856211,0 -1.550524,0.693953 -1.550524,1.550523 v 2.067485 c 0,0.85639 0.694133,1.550523 1.550524,1.550523 z" /><path
   style="fill:#ffffff;stroke-width:0.1796875"
   inkscape:connector-curvature="0"
   id="path867"
   d="m 72.375141,60.988813 c 0.85639,0 1.550523,-0.693954 1.550523,-1.550524 v -2.067484 c 0,-0.856571 -0.694312,-1.550524 -1.550523,-1.550524 -0.856211,0 -1.550524,0.693953 -1.550524,1.550524 v 2.067484 c 0,0.856391 0.694133,1.550523 1.550524,1.550524 z" /><path
   style="fill:#ffffff;stroke-width:0.1796875"
   inkscape:connector-curvature="0"
   id="path869"
   d="m 72.375141,71.325875 c 0.85639,0 1.550523,-0.693953 1.550523,-1.550523 v -2.067485 c 0,-0.85657 -0.694312,-1.550523 -1.550523,-1.550523 -0.856211,0 -1.550524,0.693953 -1.550524,1.550523 v 2.067485 c 0,0.85639 0.694133,1.550523 1.550524,1.550523 z" /><path
   style="fill:#ffffff;stroke-width:0.1796875"
   inkscape:connector-curvature="0"
   id="path871"
   d="m 72.375141,81.662937 c 0.85639,0 1.550523,-0.693953 1.550523,-1.550523 V 78.04493 c 0,-0.856571 -0.694312,-1.550524 -1.550523,-1.550524 -0.856211,0 -1.550524,0.693953 -1.550524,1.550524 v 2.067484 c 0,0.856391 0.694133,1.550523 1.550524,1.550523 z" /><path
   style="fill:#ffffff;stroke-width:0.1796875"
   inkscape:connector-curvature="0"
   id="path873"
   d="m 44.981781,24.292133 c 0,-0.856571 -0.694312,-1.550524 -1.550523,-1.550524 H 31.026711 c -0.85639,0 -1.550523,0.693953 -1.550523,1.550524 0,0.85657 0.694312,1.550523 1.550523,1.550523 h 12.404547 c 0.856391,0 1.550523,-0.693953 1.550523,-1.550523 z" />















</svg>