<svg width="92" height="92" viewBox="0 0 92 92" fill="none" xmlns="http://www.w3.org/2000/svg">
<path fill-rule="evenodd" clip-rule="evenodd" d="M53.6667 0C44.6075 0 37.1925 7.18072 36.8151 16.1489L27.7391 23.9152C25.1678 21.7421 21.9399 20.3229 18.4 20.0024V12.0726C21.0427 11.3901 22.9998 8.98641 22.9998 6.13327C23 2.75084 20.2492 0 16.8667 0C13.4841 0 10.7333 2.75084 10.7333 6.13327C10.7333 8.98667 12.6907 11.3904 15.3335 12.0727V20.0024C6.74939 20.7796 0 28.017 0 36.8C0 46.0793 7.53378 53.6335 16.8054 53.6666L16.8667 53.6667L16.9317 53.6666C25.1999 53.6353 32.0854 47.6227 33.4769 39.74L40.3659 45.1093C40.0447 45.8532 39.8667 46.6728 39.8667 47.5333C39.8667 50.9159 42.6176 53.6665 46 53.6665C49.3826 53.6665 52.1333 50.9157 52.1333 47.5333C52.1333 44.1508 49.3826 41.4 46 41.4C44.5871 41.4 43.2844 41.8799 42.2465 42.6854L33.7164 36.0371C33.5481 32.2766 32.1423 28.8324 29.8976 26.1029L37.0832 19.9542C38.5379 27.7849 45.4212 33.7335 53.6667 33.7335C56.9094 33.7335 59.9414 32.8134 62.5154 31.2208L69.3974 40.3968C62.124 42.2692 56.7333 48.8841 56.7333 56.7335C56.7333 58.642 57.052 60.4777 57.639 62.1899L51.4697 66.8163C48.5658 61.7147 43.0777 58.2667 36.8 58.2667C28.0171 58.2667 20.7797 65.016 20.0024 73.6H12.0726C11.3903 70.9573 8.9866 69 6.13327 69C2.75084 69 0 71.7508 0 75.1333C0 78.5157 2.75084 81.2665 6.13327 81.2665C8.9866 81.2665 11.3903 79.3092 12.0726 76.6665H20.0024C20.7795 85.2507 28.017 92 36.8 92C44.8039 92 51.5243 86.3948 53.2418 78.904L63.2485 83.7351C63.0017 84.3992 62.8667 85.1174 62.8667 85.8665C62.8667 89.249 65.6174 92 69 92C72.3826 92 75.1333 89.2492 75.1333 85.8667C75.1333 82.4843 72.3826 79.7333 69 79.7333C67.4886 79.7333 66.1033 80.2825 65.0332 81.1918L53.6573 75.6998C53.6636 75.5117 53.6667 75.3228 53.6667 75.1333C53.6667 73.2254 53.3483 71.3905 52.7617 69.6789L58.9313 65.0522C61.8355 70.1529 67.3231 73.6002 73.6 73.6002C82.8997 73.6002 90.4667 66.0332 90.4667 56.7335C90.4667 47.4337 82.8997 39.8667 73.6 39.8667C73.3469 39.8667 73.0951 39.8723 72.8446 39.8834L64.966 29.3785C68.1755 26.4772 70.2676 22.3616 70.5098 17.7643L80.1153 22.4016C79.8684 23.0658 79.7335 23.7841 79.7335 24.5333C79.7335 27.9157 82.4843 30.6665 85.8667 30.6665C89.2492 30.6665 92 27.9159 92 24.5333C92 21.1508 89.2492 18.4 85.8667 18.4C84.3554 18.4 82.9701 18.9492 81.9001 19.8585L70.3345 14.2748C69.0837 6.20094 62.0851 0 53.6667 0ZM16.8667 9.2C18.5579 9.2 19.9333 7.82467 19.9335 6.13327C19.9335 4.44187 18.5579 3.06655 16.8667 3.06655C15.1753 3.06655 13.8 4.44205 13.8 6.13327C13.8 7.82467 15.1755 9.2 16.8667 9.2ZM9.2 75.1333C9.2 73.4419 7.82449 72.0665 6.13327 72.0665C4.44187 72.0665 3.06655 73.4419 3.06655 75.1333C3.06655 76.8247 4.44205 78.2 6.13327 78.2C7.82467 78.2 9.2 76.8247 9.2 75.1333ZM39.8669 16.7951C39.869 16.8417 39.869 16.8883 39.8669 16.9348C39.8866 20.9862 41.6606 24.6302 44.4667 27.1447V26.0897C44.4667 23.5414 46.5982 21.4667 49.2186 21.4667H58.1149C60.7353 21.4667 62.8667 23.5412 62.8667 26.0913V27.1447C65.6886 24.6162 67.4667 20.9454 67.4667 16.8667C67.4667 9.25678 61.2767 3.06673 53.6667 3.06673C46.0807 3.06673 39.9056 9.21796 39.8669 16.7951ZM82.8 24.5333C82.8 26.2247 84.1755 27.6 85.8667 27.6C87.5579 27.6 88.9333 26.2247 88.9334 24.5333C88.9334 22.8419 87.5581 21.4665 85.8667 21.4665C84.1753 21.4665 82.8 22.8421 82.8 24.5333ZM46 85.4112V84.3579C46 81.8079 43.8687 79.7333 41.2482 79.7333H32.3518C29.7315 79.7333 27.6 81.8079 27.6 84.3563V85.4112C24.7781 82.8827 23 79.2119 23 75.1333C23 67.5233 29.1901 61.3333 36.8 61.3333C44.4099 61.3333 50.6 67.5233 50.6 75.1333C50.6 79.2119 48.8219 82.8827 46 85.4112ZM65.9333 85.8665C65.9333 87.5579 67.3088 88.9333 69 88.9333C70.6912 88.9333 72.0667 87.5581 72.0667 85.8667C72.0667 84.1753 70.6912 82.8 69 82.8C67.3088 82.8 65.9333 84.1751 65.9333 85.8665ZM30.6667 36.8351C30.6565 40.8997 28.8805 44.5567 26.0667 47.0779V46.0246C26.0667 43.4747 23.9353 41.4 21.3149 41.4H12.4186C9.79818 41.4 7.66673 43.4747 7.66673 46.023V47.0779C4.84486 44.5494 3.06673 40.8787 3.06673 36.8C3.06673 29.1901 9.25678 23 16.8667 23C24.4647 23 30.6472 29.1705 30.6667 36.764C30.6661 36.7877 30.6661 36.8114 30.6667 36.8351ZM43.5641 45.6719L43.5712 45.6629L43.5838 45.6464C44.1455 44.9286 45.0197 44.4665 46 44.4665C47.6912 44.4665 49.0667 45.8419 49.0667 47.5333C49.0667 49.2247 47.6912 50.6 46 50.6C44.3088 50.6 42.9333 49.2247 42.9333 47.5333C42.9333 46.8338 43.1685 46.1884 43.5641 45.6719ZM59.8 56.7333C59.8 60.8119 61.5781 64.4827 64.4 67.0112V65.9563C64.4 63.4079 66.5315 61.3333 69.1518 61.3333H78.0482C80.6687 61.3333 82.8 63.4079 82.8 65.9579V67.0112C85.6219 64.4827 87.4 60.8119 87.4 56.7333C87.4 49.1233 81.2099 42.9333 73.6 42.9333C65.9901 42.9333 59.8 49.1233 59.8 56.7333ZM73.6 46C70.2174 46 67.4667 48.7508 67.4667 52.1333C67.4667 55.5159 70.2176 58.2665 73.6 58.2665C76.9826 58.2665 79.7333 55.5157 79.7333 52.1333C79.7333 48.7508 76.9826 46 73.6 46ZM73.6 55.2C71.9088 55.2 70.5333 53.8247 70.5333 52.1333C70.5333 50.4421 71.9086 49.0665 73.6 49.0665C75.2912 49.0665 76.6667 50.4419 76.6667 52.1333C76.6667 53.8247 75.2912 55.2 73.6 55.2ZM67.4665 69.0843C71.2831 70.9855 75.9169 70.9855 79.7333 69.0843H79.7331V65.9579C79.7331 65.0992 78.9771 64.4 78.048 64.4H69.1517C68.2225 64.4 67.4665 65.0992 67.4665 65.9579V69.0843ZM30.6667 70.5333C30.6667 67.1508 33.4174 64.4 36.8 64.4C40.1826 64.4 42.9333 67.1508 42.9333 70.5333C42.9333 73.9157 40.1824 76.6665 36.8 76.6665C33.4176 76.6665 30.6667 73.9159 30.6667 70.5333ZM33.7333 70.5333C33.7333 72.2247 35.1088 73.6 36.8 73.6C38.4912 73.6 39.8667 72.2247 39.8667 70.5333C39.8667 68.8419 38.4912 67.4665 36.8 67.4665C35.1086 67.4665 33.7333 68.8421 33.7333 70.5333ZM42.9333 87.4843C39.1167 89.3856 34.4831 89.3856 30.6665 87.4843V84.3579C30.6665 83.4992 31.4225 82.8 32.3517 82.8H41.248C42.1771 82.8 42.9331 83.4992 42.9331 84.3579V87.4843H42.9333ZM16.8667 26.0667C13.4841 26.0667 10.7335 28.8176 10.7335 32.2C10.7335 35.5824 13.4843 38.3333 16.8667 38.3333C20.2493 38.3333 23 35.5824 23 32.2C23 28.8176 20.2492 26.0667 16.8667 26.0667ZM16.8667 35.2667C15.1755 35.2667 13.8 33.8914 13.8 32.2C13.8 30.5086 15.1753 29.1333 16.8667 29.1333C18.5579 29.1333 19.9335 30.5086 19.9335 32.2C19.9335 33.8914 18.5579 35.2667 16.8667 35.2667ZM10.7333 49.151C14.5498 51.0523 19.1836 51.0523 23 49.151H22.9998V46.0246C22.9998 45.1659 22.2439 44.4667 21.3147 44.4667H12.4184C11.4892 44.4667 10.7333 45.1659 10.7333 46.0246V49.151ZM47.5335 12.2665C47.5335 8.88411 50.2841 6.13327 53.6667 6.13327C57.0492 6.13327 59.8 8.88429 59.8 12.2667C59.8 15.6492 57.0492 18.3998 53.6667 18.3998C50.2843 18.3998 47.5335 15.649 47.5335 12.2665ZM50.6 12.2665C50.6 13.9579 51.9755 15.3333 53.6667 15.3333C55.3579 15.3333 56.7333 13.9579 56.7335 12.2665C56.7335 10.5751 55.3581 9.19982 53.6667 9.19982C51.9753 9.19982 50.6 10.5753 50.6 12.2665ZM59.8 29.2177C55.9836 31.119 51.3498 31.119 47.5333 29.2177V26.0913C47.5333 25.2326 48.2892 24.5335 49.2184 24.5335H58.1147C59.0439 24.5335 59.7998 25.2326 59.7998 26.0913V29.2177H59.8Z" fill="white"/>
</svg>
