<svg width="102" height="102" viewBox="0 0 102 102" fill="none" xmlns="http://www.w3.org/2000/svg">
<path fill-rule="evenodd" clip-rule="evenodd" d="M101.999 50.9991C101.992 47.7155 99.6293 44.9082 96.3895 44.3342C95.2988 36.85 92.3495 29.7568 87.8098 23.7016C89.7198 21.0119 89.4044 17.3382 87.0636 15.0122C84.6945 12.764 81.0795 12.4567 78.3644 14.2741C72.294 9.7397 65.1827 6.79325 57.6788 5.70396C57.1102 2.46676 54.2929 0.105957 50.9992 0.105957C47.7062 0.105957 44.889 2.46676 44.3204 5.70396C36.8148 6.79242 29.7019 9.73887 23.6298 14.2741C20.9146 12.4567 17.2997 12.764 14.9306 15.0122C12.589 17.3382 12.2735 21.0119 14.1844 23.7016C9.64634 29.7577 6.69873 36.85 5.60967 44.3342C2.36572 44.9016 0 47.713 0 50.9991C0 54.2852 2.36572 57.0966 5.60967 57.6649C6.70039 65.1482 9.64966 72.2414 14.1894 78.2975C12.2785 80.9879 12.5898 84.6625 14.9273 86.9952C17.2648 89.327 20.9462 89.6384 23.6431 87.7307C29.7118 92.2618 36.8198 95.2058 44.3204 96.2951C44.889 99.5314 47.7062 101.893 50.9992 101.893C54.2929 101.893 57.1102 99.5314 57.6788 96.2951C65.1786 95.2066 72.2857 92.2626 78.3544 87.7332C81.0513 89.6401 84.7327 89.3286 87.0702 86.9968C89.4069 84.6642 89.719 80.9904 87.8082 78.2991C92.3487 72.243 95.2988 65.149 96.3895 57.6649C99.6293 57.09 101.992 54.2827 101.999 50.9991ZM98.5992 50.9991C98.5992 52.8728 97.0776 54.392 95.1992 54.392C93.3215 54.392 91.7992 52.8728 91.7992 50.9991C91.7992 49.1254 93.3215 47.6062 95.1992 47.6062C97.0776 47.6062 98.5992 49.1254 98.5992 50.9991ZM85.396 18.5103C84.8697 17.2429 83.6295 16.4162 82.2541 16.417C80.8802 16.4177 79.6408 17.2442 79.1156 18.5111C78.5893 19.7793 78.8798 21.2381 79.8519 22.2089C81.1966 23.4903 83.3149 23.4903 84.6597 22.2089C85.6317 21.2381 85.9222 19.7785 85.396 18.5103ZM50.9992 3.49806C52.8776 3.49806 54.3992 5.01726 54.3992 6.89099C54.3992 8.76472 52.8776 10.2839 50.9992 10.2839C49.1215 10.2839 47.5992 8.76472 47.5992 6.89099C47.5992 5.01726 49.1215 3.49806 50.9992 3.49806ZM20.6457 16.4841C19.457 16.1735 18.1928 16.5272 17.3395 17.4094C16.0122 18.7339 16.0122 20.8819 17.3395 22.2072C18.6842 23.4887 20.8026 23.4887 22.1473 22.2072C23.0313 21.3549 23.3858 20.0933 23.0745 18.9071C22.7632 17.7209 21.8352 16.7948 20.6457 16.4841ZM3.39917 50.9991C3.39917 49.1254 4.92153 47.6062 6.79917 47.6062C8.67764 47.6062 10.1992 49.1254 10.1992 50.9991C10.1992 52.8728 8.67764 54.392 6.79917 54.392C4.92153 54.392 3.39917 52.8728 3.39917 50.9991ZM17.3387 79.791C16.0114 81.1155 16.0114 83.2643 17.3395 84.5896C18.6842 85.8719 20.8026 85.8719 22.1473 84.5896C23.4754 83.2643 23.4754 81.1155 22.1473 79.791C20.82 78.4656 18.6668 78.4656 17.3387 79.791ZM50.9992 98.5001C49.1215 98.5001 47.5992 96.9809 47.5992 95.1072C47.5992 93.2335 49.1215 91.7143 50.9992 91.7143C52.8776 91.7143 54.3992 93.2335 54.3992 95.1072C54.3992 96.9809 52.8776 98.5001 50.9992 98.5001ZM44.5976 92.9021C45.5339 90.1686 48.1047 88.3296 50.9992 88.3213C53.8945 88.3296 56.4652 90.1686 57.4016 92.9021C64.1933 91.8799 70.6297 89.2135 76.1497 85.1355C74.8614 82.5461 75.3819 79.4248 77.4413 77.3912C79.5165 75.4231 82.587 74.9219 85.1834 76.1272C89.2824 70.6128 91.9635 64.1782 92.9895 57.3882C90.2436 56.4629 88.3942 53.8917 88.3942 50.9991C88.3942 48.1065 90.2436 45.5361 92.9895 44.61C91.9677 37.83 89.2948 31.4028 85.2067 25.8917C82.611 27.1666 79.4899 26.6513 77.4438 24.6103C75.3977 22.5684 74.8813 19.4538 76.1597 16.8627C70.6372 12.7831 64.1966 10.1166 57.4016 9.09689C56.4744 11.8371 53.8986 13.6818 50.9992 13.6818C48.1005 13.6818 45.5248 11.8371 44.5976 9.09689C37.8026 10.1166 31.362 12.7831 25.8395 16.8627C27.1178 19.4538 26.6015 22.5684 24.5554 24.6103C22.5092 26.6513 19.3881 27.1666 16.7925 25.8917C12.7043 31.4028 10.0315 37.83 9.00967 44.61C11.7556 45.5361 13.605 48.1065 13.605 50.9991C13.605 53.8917 11.7556 56.4629 9.00967 57.3882C10.0332 64.1774 12.7102 70.6112 16.8058 76.1272C19.4014 74.9219 22.4719 75.4231 24.5479 77.3912C26.6065 79.4248 27.1278 82.5461 25.8395 85.1355C31.362 89.2151 37.8026 91.8816 44.5976 92.9021ZM84.6597 84.5896C83.3149 85.8719 81.1966 85.8719 79.8519 84.5896C78.5237 83.2643 78.5237 81.1155 79.8519 79.791C81.1791 78.4656 83.3324 78.4656 84.6597 79.791C85.9878 81.1155 85.9878 83.2643 84.6597 84.5896ZM56.5615 24.3336C69.192 26.9876 78.2249 38.119 78.1992 50.9991C78.1967 58.5628 75.0266 65.7811 69.4551 70.9094C59.9806 79.656 45.6568 80.5713 35.1422 73.102C24.6268 65.6319 20.8051 51.8258 25.9864 40.0284C31.1678 28.2318 43.9319 21.6804 56.5615 24.3336ZM33.8008 34.6507C29.9899 38.631 27.6864 43.8115 27.288 49.3026H35.7473C35.8552 45.2421 36.5259 41.2154 37.7395 37.3379C36.3491 36.5601 35.031 35.6613 33.8008 34.6507ZM74.7178 52.6956C74.3194 58.1867 72.0159 63.3672 68.205 67.3483C66.9773 66.3377 65.6625 65.4389 64.2746 64.6611C65.484 60.7828 66.1489 56.7561 66.2519 52.6956H74.7178ZM61.1526 63.142L61.1585 63.1444H61.1519L61.1526 63.142ZM62.8552 52.6956C62.7398 56.2359 62.1673 59.7474 61.1526 63.142C58.4549 62.065 55.6007 61.4288 52.6992 61.2574V52.6956H62.8552ZM52.6992 64.6503C55.2052 64.826 57.6664 65.3983 59.9906 66.3468C58.1461 70.6219 55.5712 73.6082 52.6992 74.4729V64.6503ZM52.6992 40.7408V49.3026H62.8519C62.7373 45.7614 62.1662 42.25 61.1519 38.8546C58.4541 39.9315 55.6003 40.5685 52.6992 40.7408ZM49.2992 37.3479C46.794 37.1722 44.3328 36.5998 42.0086 35.6514C43.853 31.3763 46.4279 28.3909 49.2992 27.5252V37.3479ZM52.6992 27.5319V37.3479C55.2043 37.1747 57.6655 36.604 59.9906 35.658C58.1395 31.3829 55.5729 28.3975 52.6992 27.5319ZM60.091 29.0643C62.0965 29.8927 63.9766 30.9944 65.6791 32.338C64.8457 32.994 63.9675 33.5929 63.0527 34.1297C62.2733 32.328 61.2789 30.6274 60.091 29.0643ZM36.3184 32.338C37.1526 32.994 38.0309 33.5921 38.9464 34.1297C39.7267 32.328 40.7211 30.6266 41.9098 29.0627C39.9035 29.8919 38.0217 30.9944 36.3184 32.338ZM40.8473 38.8546C43.5451 39.9315 46.3989 40.5685 49.2992 40.7408V49.3026H39.144C39.2594 45.7614 39.8321 42.25 40.8473 38.8546ZM49.2992 61.2574V52.6956H39.1473C39.2619 56.2368 39.833 59.749 40.8473 63.1444C43.5451 62.0667 46.3989 61.4297 49.2992 61.2574ZM49.2992 64.6503V74.4663C46.4263 73.6015 43.8597 70.6153 42.0086 66.3402C44.3336 65.3942 46.7948 64.8235 49.2992 64.6503ZM36.3201 69.6602C38.0226 71.0038 39.9027 72.1055 41.9082 72.9347C40.7203 71.3708 39.7259 69.6702 38.9464 67.8693C38.0309 68.4061 37.1535 69.0042 36.3201 69.6602ZM63.0527 67.8693C63.9683 68.4061 64.8465 69.005 65.6808 69.6602C63.9774 71.0046 62.0957 72.1072 60.0894 72.9364C61.278 71.3724 62.2725 69.671 63.0527 67.8693ZM66.2519 49.3026H74.7112C74.3136 43.8115 72.0101 38.6301 68.1984 34.6507C66.9707 35.6605 65.655 36.5601 64.268 37.3379C65.479 41.2154 66.1464 45.2421 66.2519 49.3026ZM27.288 52.6956H35.7407C35.8502 56.757 36.5234 60.7836 37.7395 64.6611C36.3524 65.4389 35.0368 66.3377 33.8091 67.3483C29.994 63.3697 27.6881 58.1884 27.288 52.6956Z" fill="white"/>
</svg>
