<svg width="83" height="92" viewBox="0 0 83 92" fill="none" xmlns="http://www.w3.org/2000/svg">
<path fill-rule="evenodd" clip-rule="evenodd" d="M82.1326 12.3676L78.2013 8.90576L82.1326 5.44467C82.744 4.90561 82.9532 4.06543 82.6661 3.30316C82.3776 2.54019 81.6652 2.04745 80.8503 2.04745H64.5815V1.34836C64.5815 0.603638 63.9779 0 63.2332 0C62.4884 0 61.8848 0.603638 61.8848 1.34836V19.5333L50.8109 25.5465C50.7498 25.0594 50.6038 24.5807 50.3729 24.1301L48.8125 21.0838C47.7414 18.9921 45.1682 18.1632 43.078 19.2336L41.8714 19.8513C40.8578 20.3707 40.1075 21.2523 39.758 22.336C39.4084 23.419 39.5018 24.5737 40.0212 25.5865L41.5815 28.6335C41.9458 29.3445 42.4842 29.9074 43.1173 30.3019C42.289 31.4172 41.896 32.7888 41.4917 34.2136L41.2011 35.2426C40.9982 35.9593 41.4152 36.7047 42.1318 36.9068C42.2539 36.9419 42.3775 36.9581 42.4989 36.9581C43.0871 36.9581 43.6276 36.5706 43.796 35.9761L44.0866 34.9492C44.6776 32.8653 45.0405 31.7492 46.1958 31.1217L48.2672 29.9966L48.5226 29.866C48.5951 29.8289 48.6635 29.7877 48.7321 29.7463L48.7321 29.7463L48.7676 29.7249L63.5301 21.7085C63.4367 23.5538 62.4435 25.2973 60.8081 26.2905L51.2081 32.1234L51.1925 32.1323L51.1813 32.139L51.1751 32.143L48.1871 33.9581C47.5512 34.3449 47.3484 35.1745 47.7351 35.8112C48.0994 36.4113 48.8575 36.6247 49.4758 36.3235L47.2087 43.1769L45.5515 43.8564L41.0453 45.7031L42.3438 41.1126C42.5459 40.396 42.1297 39.6506 41.4131 39.4477C40.6957 39.2442 39.951 39.6618 39.7481 40.3784L37.6965 47.634C37.6698 47.7274 37.6523 47.8299 37.648 47.9274L37.1111 57.7906C37.1068 57.8902 37.1093 58.0132 37.112 58.1471V58.1473V58.1474V58.1476V58.1477V58.1479V58.148V58.1482V58.1484V58.1486C37.1195 58.5203 37.1287 58.9754 37.0009 59.2449L31.0375 71.7908H26.7039C24.1652 71.7908 22.1002 73.8558 22.1002 76.3939V80.2859C21.519 80.0199 20.8739 79.8711 20.1938 79.8711H9.18863C6.65054 79.8711 4.58554 81.9354 4.58554 84.4742V89.3033H1.34836C0.603638 89.3033 0 89.9069 0 90.6516C0 91.3964 0.603638 92 1.34836 92H80.8488C81.5936 92 82.1972 91.3964 82.1972 90.6516C82.1972 89.9069 81.5936 89.3033 80.8488 89.3033H77.3421V54.5485C77.3421 52.0104 75.2771 49.9454 72.739 49.9454H64.5815V26.4225C66.0766 24.3961 66.6304 21.7401 65.9362 19.216C65.8274 18.8195 65.5431 18.4938 65.1641 18.333C64.9781 18.2537 64.7787 18.2186 64.5815 18.2263V15.7648H80.8495C81.6652 15.7648 82.3776 15.272 82.6654 14.5098C82.9532 13.7475 82.744 12.9066 82.1326 12.3676ZM42.3248 23.1642C42.4533 22.7663 42.7284 22.442 43.1004 22.2518L44.307 21.6341C44.5344 21.5176 44.7773 21.4621 45.0173 21.4621C45.5859 21.4621 46.1355 21.7731 46.412 22.3128L47.9731 25.3598C48.3373 26.0715 48.1015 26.9342 47.4536 27.3701L47.0143 27.608L46.087 28.0832C45.3199 28.4763 44.3751 28.1716 43.982 27.4037L42.421 24.3575C42.2308 23.9855 42.1964 23.5615 42.3248 23.1642ZM38.1352 71.8111C38.6588 71.8596 39.1571 71.9964 39.6155 72.2056V69.8451L38.1352 71.8111ZM46.0175 61.3408C46.6655 60.5645 46.8448 59.6578 46.9893 58.9268L46.9897 58.9249C47.0262 58.7508 47.6916 55.1163 47.6916 55.1163C47.6916 55.1163 48.3212 55.5087 48.3872 55.5368C48.4328 55.5571 48.4651 55.6021 48.47 55.6547L49.2035 63.111H44.6846L46.0175 61.3408ZM52.8527 63.1047L53.9912 53.8985C54.0642 53.3145 53.7946 52.9046 53.0071 51.8806C52.9187 51.7654 49.1129 47.2445 49.1129 47.2445L48.2096 52.2512L49.5657 53.111C50.4522 53.5399 51.0572 54.4025 51.1541 55.3908L51.9128 63.1047H52.8527ZM39.4267 60.4241C39.699 59.6043 39.8253 58.7697 39.8043 57.9211L40.2942 48.9255L46.5306 46.3699L45.3971 52.6491C45.3936 52.666 45.39 52.6835 45.3879 52.7004L44.4502 57.8924C44.4269 57.9948 44.4042 58.1073 44.3804 58.2253C44.2791 58.7272 44.1575 59.33 43.8859 59.6885L34.7744 71.7908H34.0234L39.4267 60.4241ZM9.18863 82.5678C8.13718 82.5678 7.28226 83.4227 7.28226 84.4735V89.3033H22.1009V84.4735C22.1009 83.4227 21.2452 82.5678 20.1938 82.5678H9.18863ZM24.7969 84.4735V76.3939C24.7969 75.3424 25.6525 74.4875 26.7039 74.4875H37.7091C38.7606 74.4875 39.6155 75.3424 39.6155 76.3939V89.3033H24.7976V84.4735H24.7969ZM74.6454 89.3033V54.5485C74.6454 53.4977 73.7898 52.6421 72.7383 52.6421H63.2465C63.2453 52.6421 63.2441 52.6422 63.2429 52.6423C63.2419 52.6423 63.2408 52.6424 63.2398 52.6425C63.2375 52.6426 63.2353 52.6428 63.2332 52.6428C63.2318 52.6428 63.2305 52.6428 63.2292 52.6427C63.228 52.6426 63.2268 52.6425 63.2256 52.6424C63.2241 52.6423 63.2227 52.6422 63.2213 52.6422C63.2205 52.6421 63.2198 52.6421 63.2191 52.6421H61.7339C60.6824 52.6421 59.8268 53.497 59.8268 54.5485V74.4727C59.8268 75.2175 59.2239 75.8211 58.4785 75.8211C57.7337 75.8211 57.1301 75.2175 57.1301 74.4727V67.7134C57.1301 66.6627 56.2752 65.8077 55.2237 65.8077H44.2186C43.1671 65.8077 42.3122 66.6627 42.3122 67.7134V89.3033H57.1301V81.2188C57.1301 80.474 57.7337 79.8704 58.4792 79.8704C59.2239 79.8704 59.8275 80.474 59.8275 81.2188V89.3033H74.6454ZM61.7339 49.9454C59.1958 49.9454 57.1308 52.0104 57.1308 54.5485V63.5258C56.6479 63.3055 56.1215 63.1658 55.5677 63.1251L56.6675 54.2305C56.8836 52.4978 56.0003 51.3491 55.1459 50.2379L55.1444 50.236C55.0539 50.1181 49.8127 43.895 49.8127 43.895L53.0282 34.1736L61.8848 28.7928V49.9454H61.7339ZM64.5815 4.74487V13.0674V13.0681H78.8463L75.7741 10.3629C75.3557 9.99442 75.1157 9.46378 75.1157 8.90646C75.1157 8.34915 75.3557 7.81851 75.7741 7.45001L78.8463 4.74487H64.5815Z" fill="white"/>
</svg>
