<svg width="83" height="102" viewBox="0 0 83 102" fill="none" xmlns="http://www.w3.org/2000/svg">
<path fill-rule="evenodd" clip-rule="evenodd" d="M62.5407 66.9764C63.4668 67.571 64.6987 67.3017 65.2924 66.3764C72.767 54.7283 74.0643 39.1325 74.3896 28.4151C74.4168 27.5171 73.8394 26.7117 72.9803 26.4494C64.803 23.9506 58.4466 17.5717 55.9774 9.38585C55.7237 8.54462 54.9486 7.96875 54.07 7.96875H28.4829C27.6043 7.96875 26.8292 8.54462 26.5755 9.38585C24.1063 17.5717 17.75 23.9506 9.57267 26.4494C8.71354 26.7117 8.1369 27.5171 8.16413 28.4151C8.48475 38.9924 9.75244 54.3984 17.0278 66.0099C22.2371 74.3249 29.9786 79.9606 40.6936 83.2408C40.8835 83.2991 41.0804 83.3279 41.2765 83.3279C41.4734 83.3279 41.6702 83.2991 41.8601 83.2408C46.1192 81.9373 49.9666 80.2283 53.2973 78.1622C54.2319 77.5817 54.5198 76.3537 53.9393 75.4191C53.3596 74.4845 52.1316 74.1965 51.1962 74.7763C48.309 76.5685 44.9745 78.0712 41.2765 79.2486C31.8206 76.2393 24.9888 71.2121 20.4044 63.8947C13.9656 53.6179 12.5796 39.8017 12.1968 29.7723C20.4768 26.7669 26.9607 20.2503 29.9241 11.9531H52.6296C55.593 20.2495 62.0769 26.7669 70.357 29.7723C69.9686 39.9309 68.5531 53.9182 61.94 64.2239C61.3454 65.15 61.6147 66.3826 62.5407 66.9764Z" fill="white"/>
<path fill-rule="evenodd" clip-rule="evenodd" d="M70.0705 73.4487C72.1592 70.655 73.9732 67.5795 75.4961 64.241C81.6626 50.7144 82.454 34.3396 82.454 21.5849C82.454 20.4845 81.5614 19.5927 80.4618 19.5927C70.7569 19.5927 62.8613 11.6971 62.8613 1.99219C62.8613 0.891815 61.9695 0 60.8691 0H21.6837C20.5841 0 19.6915 0.891815 19.6915 1.99219C19.6915 4.1657 19.2993 6.28862 18.5266 8.30182C18.132 9.32826 18.6448 10.4808 19.6713 10.8753C20.6993 11.2699 21.851 10.7578 22.2456 9.73059C22.9568 7.87926 23.4051 5.95399 23.5856 3.98438H58.968C59.9158 14.2978 68.1499 22.5335 78.4618 23.4845C78.2579 51.7424 73.2347 78.7249 41.2764 87.5598C9.31813 78.7256 4.29564 51.7432 4.09097 23.4852C6.05826 23.3047 7.98197 22.8565 9.83174 22.1452C10.8582 21.7506 11.371 20.5981 10.9765 19.5717C10.5819 18.5445 9.42941 18.0316 8.40219 18.4262C6.38899 19.1997 4.26529 19.5919 2.09178 19.5919C0.991411 19.5919 0.0995956 20.4845 0.0995956 21.5841C0.0995956 34.3396 0.890245 50.7144 7.05747 64.2403C8.57962 67.5795 10.3936 70.655 12.4831 73.4487L0.683244 85.2485C0.150178 85.7816 -0.0365892 86.5691 0.200761 87.2843C0.437334 87.9994 1.05834 88.5193 1.80385 88.6282L11.9827 90.1169L13.4706 100.296C13.5795 101.041 14.1002 101.661 14.8153 101.898C15.0208 101.967 15.2324 101.999 15.4418 101.999C15.9616 101.999 16.4713 101.796 16.8511 101.416L30.4392 87.8275C33.6267 89.3169 37.0726 90.5597 40.7612 91.548C40.9301 91.5932 41.1036 91.6165 41.2764 91.6165C41.4499 91.6165 41.6235 91.5932 41.7923 91.548C45.481 90.5597 48.9269 89.3169 52.1144 87.8275L65.7025 101.416C66.0822 101.796 66.592 101.999 67.1118 101.999C67.3211 101.999 67.5328 101.967 67.7383 101.898C68.4534 101.661 68.9733 101.041 69.083 100.296L70.5709 90.1169L80.7497 88.6282C81.4952 88.5193 82.1155 87.9994 82.3528 87.2843C82.5894 86.5691 82.4034 85.7816 81.8703 85.2485L70.0705 73.4487ZM16.8394 95.7931L15.7103 88.0726C15.5834 87.201 14.8986 86.517 14.0278 86.3893L6.3065 85.2602L15.0192 76.5475C16.4005 78.093 17.8775 79.5358 19.4511 80.8672C21.658 82.7349 24.0876 84.4166 26.7225 85.9092L16.8394 95.7931ZM66.8425 88.0726C66.9702 87.201 67.6542 86.517 68.5258 86.3893L76.2471 85.2602L67.5336 76.5475C66.1523 78.093 64.6753 79.5358 63.1017 80.8672C60.8948 82.7357 58.466 84.4166 55.8303 85.9092L65.7142 95.7931L66.8425 88.0726Z" fill="white"/>
<path fill-rule="evenodd" clip-rule="evenodd" d="M15.9461 17.8385C16.4558 17.8385 16.9656 17.644 17.3547 17.2549L17.3554 17.2541C18.1336 16.4759 18.1329 15.2152 17.3547 14.437C16.5772 13.6588 15.315 13.6596 14.5368 14.4378C13.7594 15.2152 13.7594 16.4767 14.5368 17.2549C14.9259 17.644 15.4356 17.8385 15.9461 17.8385Z" fill="white"/>
<path fill-rule="evenodd" clip-rule="evenodd" d="M57.161 70.1158C56.3828 70.894 56.3828 72.1554 57.161 72.9329C57.5501 73.322 58.0599 73.5165 58.5696 73.5165C59.0793 73.5165 59.589 73.322 59.9781 72.9329L59.9797 72.9321C60.7571 72.1539 60.7571 70.8932 59.9789 70.115C59.2007 69.3368 57.9392 69.3376 57.161 70.1158Z" fill="white"/>
<path fill-rule="evenodd" clip-rule="evenodd" d="M48.6615 30.2549C49.035 29.8814 49.2451 29.3748 49.2451 28.8464V25.7266C49.2451 25.1982 49.035 24.6916 48.6615 24.318L42.6849 18.3415C42.3114 17.9679 41.8048 17.7578 41.2764 17.7578H35.2998C34.2002 17.7578 33.3076 18.6496 33.3076 19.75V48.1597C29.6983 50.6826 27.3311 54.8654 27.3311 59.5938C27.3311 67.2831 33.587 73.5391 41.2764 73.5391C48.9657 73.5391 55.2217 67.2831 55.2217 59.5938C55.2217 54.8662 52.8544 50.6826 49.2451 48.1597V40.8003C49.2451 40.2719 49.035 39.7645 48.6615 39.3909L45.2607 35.9902V33.6556L48.6615 30.2549ZM51.2373 59.5938C51.2373 65.0863 46.7689 69.5547 41.2764 69.5547C35.7838 69.5547 31.3154 65.0863 31.3154 59.5938C31.3154 54.1012 35.7838 49.6328 41.2764 49.6328C46.7689 49.6328 51.2373 54.1012 51.2373 59.5938ZM45.2607 41.6252L41.86 38.2236C41.4865 37.8501 41.2764 37.3435 41.2764 36.8151V32.8307C41.2764 32.3023 41.4865 31.7957 41.86 31.4222L45.2607 28.0215V26.5522L40.4515 21.7422H37.292V46.2313C38.5558 45.8539 39.892 45.6484 41.2764 45.6484C42.6608 45.6484 43.9977 45.8539 45.2607 46.2313V41.6252Z" fill="white"/>
<path fill-rule="evenodd" clip-rule="evenodd" d="M41.2756 61.5859C40.176 61.5859 39.2834 62.4778 39.2834 63.5781C39.2834 64.6785 40.176 65.5703 41.2756 65.5703H41.2772C42.3776 65.5703 43.2686 64.6785 43.2686 63.5781C43.2686 62.4778 42.376 61.5859 41.2756 61.5859Z" fill="white"/>
</svg>
