<svg width="92" height="92" viewBox="0 0 92 92" fill="none" xmlns="http://www.w3.org/2000/svg">
<path fill-rule="evenodd" clip-rule="evenodd" d="M82.3569 17.3083L74.6902 9.6416C74.1769 9.12774 73.3736 9.04456 72.7659 9.44227L64.2467 15.0267L55.0605 11.1933L53.6513 1.3156C53.543 0.560433 52.8962 -0.000191618 52.1333 0H39.8667C39.1038 -0.000191618 38.457 0.560433 38.3487 1.3156L36.938 11.1933L27.761 15.0267L19.2403 9.44533C18.6325 9.04763 17.8292 9.13081 17.3159 9.64467L9.64927 17.3113C9.13483 17.826 9.0528 18.6311 9.453 19.2387L15.1263 27.8561L14.1757 30.0533L16.9909 31.2708L18.2712 28.3145C18.4769 27.8396 18.4289 27.2929 18.1439 26.8609L12.6975 18.5963L18.5993 12.6945L26.7597 18.0397C27.187 18.3162 27.7229 18.3657 28.1934 18.1715L38.9267 13.6773C39.4224 13.4673 39.7716 13.0128 39.8467 12.4798L41.1961 3.06667H50.8039L52.1487 12.4844C52.2238 13.0174 52.573 13.4719 53.0687 13.6819L63.802 18.1731C64.272 18.3672 64.8075 18.3178 65.2341 18.0412L73.3976 12.6991L79.3408 18.6423L75.3541 25.3889C75.1169 25.7889 75.0739 26.2752 75.2376 26.7107L76.9381 31.2018L79.8069 30.1162L78.3671 26.3151L82.5915 19.1728C82.948 18.5706 82.8514 17.8033 82.3569 17.3083ZM57.8174 54.1159L62.4174 58.7159C62.7049 59.0034 62.8667 59.3933 62.8667 59.8V90.4667C62.8667 91.3134 62.1801 92 61.3333 92H30.6667C29.8199 92 29.1333 91.3134 29.1333 90.4667V59.8C29.1333 59.3933 29.2951 59.0034 29.5826 58.7159L34.1826 54.1159C34.4701 53.8284 34.86 53.6667 35.2667 53.6667H56.7333C57.1401 53.6667 57.5299 53.8284 57.8174 54.1159ZM56.0985 56.7333H51.2348L48.1681 59.8L50.6 62.2319L56.0985 56.7333ZM48.4319 64.4L46.4493 66.3826C46.1608 66.6695 45.999 67.0598 46 67.4667C45.9971 67.0638 45.8357 66.6782 45.5507 66.3933L43.5681 64.4L46 61.9681L48.4319 64.4ZM46 57.6319L46.8985 56.7333H45.1015L46 57.6319ZM40.7652 56.7333L43.8319 59.8L41.4 62.2319L35.9015 56.7333H40.7652ZM32.2 88.9333H40.0583L42.8459 68.0141L40.3159 65.4841L33.7333 58.9015L32.2 60.4348V88.9333ZM43.1526 88.9333L45.9862 67.6691C45.9954 67.6045 46 67.5395 46 67.4743C46.0004 67.5727 46.0105 67.6708 46.0307 67.7672L50.2627 88.9333H43.1526ZM53.3907 88.9333H59.8V60.4348L58.2667 58.9015L51.6841 65.4841L49.1985 67.9711L53.3907 88.9333ZM42.9333 19.9333H56.7333C57.5801 19.9333 58.2667 20.6199 58.2667 21.4667V38.3333C58.259 45.1049 52.7716 50.5923 46 50.6C39.2284 50.5923 33.741 45.1049 33.7333 38.3333V29.1333C33.7383 24.0544 37.8544 19.9383 42.9333 19.9333ZM46 47.5333C51.0811 47.5333 55.2 43.4144 55.2 38.3333V29.8387C53.5185 31.358 51.3329 32.1994 49.0667 32.2H36.8V38.3333C36.8 43.4144 40.9189 47.5333 46 47.5333ZM49.0667 29.1333H36.8C36.8 25.746 39.546 23 42.9333 23H55.2C55.2 26.3873 52.454 29.1333 49.0667 29.1333ZM86.9507 60.2493L91.5507 64.8493C91.8382 65.1368 92 65.5266 92 65.9333V90.4667C92 91.3134 91.3134 92 90.4667 92H69C68.1532 92 67.4667 91.3134 67.4667 90.4667V65.9333C67.4667 65.5266 67.6284 65.1368 67.9159 64.8493L72.5159 60.2493C72.8034 59.9618 73.1933 59.8 73.6 59.8H85.8667C86.2734 59.8 86.6632 59.9618 86.9507 60.2493ZM81.2667 88.9333H88.9333V66.5681L85.974 63.6088L82.3185 67.0511L81.2667 65.9333L80.2148 64.8155L82.2863 62.8667H77.3015L79.2841 64.8493L78.2 65.9333L77.1159 67.0174L73.6 63.5015L70.5333 66.5681V88.9333H78.2V65.9333H81.2667V88.9333ZM81.2667 33.7333H78.2506C74.0301 33.7418 70.6067 37.1534 70.5839 41.3739L70.5594 49.0513C70.5425 54.1238 74.6407 58.2496 79.7134 58.2667H79.7441C84.815 58.2607 88.9249 54.1529 88.9333 49.082V41.4C88.9284 37.168 85.4987 33.7383 81.2667 33.7333ZM73.6506 41.3847C73.6588 38.8698 75.6853 36.8276 78.2 36.8C78.2002 39.3208 76.1714 41.3722 73.6506 41.4V41.3847ZM79.7487 55.2C83.1258 55.1916 85.8607 52.4546 85.8667 49.0774V44.4667C83.4536 44.4667 81.1812 43.3305 79.7333 41.4C78.2953 43.3176 76.043 44.4523 73.646 44.4667L73.6307 49.0667V49.082C73.6307 52.4609 76.3698 55.2 79.7487 55.2ZM81.2667 36.8C83.8072 36.8 85.8667 38.8595 85.8667 41.4C83.3261 41.4 81.2667 39.3405 81.2667 36.8ZM19.4841 60.2493L24.0841 64.8493C24.3716 65.1368 24.5333 65.5266 24.5333 65.9333V90.4667C24.5333 91.3134 23.8468 92 23 92H1.53333C0.68655 92 0 91.3134 0 90.4667V65.9333C0 65.5266 0.161767 65.1368 0.449267 64.8493L5.04927 60.2493C5.33677 59.9618 5.72662 59.8 6.13333 59.8H18.4C18.8067 59.8 19.1966 59.9618 19.4841 60.2493ZM13.8 88.9333H21.4667V66.5681L18.5073 63.6088L14.8519 67.0511L13.8 65.9333L12.7481 64.8155L14.8197 62.8667H9.8348L11.8174 64.8493L10.7333 65.9333L9.64927 67.0174L6.13333 63.5015L3.06667 66.5681V88.9333H10.7333V65.9333H13.8V88.9333ZM13.8 33.7333H10.7839C6.56343 33.7418 3.14007 37.1534 3.11727 41.3739L3.09273 49.0513C3.07587 54.1238 7.17408 58.2496 12.2467 58.2667H12.2774C17.3483 58.2607 21.4582 54.1529 21.4667 49.082V41.4C21.4617 37.168 18.032 33.7383 13.8 33.7333ZM13.8 36.8C15.7423 36.8081 17.4704 38.0353 18.1179 39.8667H15.3333C13.391 39.8586 11.6629 38.6314 11.0155 36.8H13.8ZM7.66667 38.3195V38.0389C7.14514 38.5235 6.74302 39.1222 6.49213 39.7885C6.76449 39.7321 7.015 39.5991 7.21433 39.4051C7.50548 39.1192 7.66858 38.7276 7.66667 38.3195ZM18.4 49.082C18.3916 52.4574 15.6574 55.1916 12.282 55.2C8.90311 55.2 6.164 52.4609 6.164 49.082V49.0667L6.18393 42.9211C7.38434 42.9144 8.53377 42.4344 9.38247 41.5855C9.62493 41.34 9.83921 41.0686 10.0219 40.7759C11.4446 42.158 13.3498 42.9318 15.3333 42.9333H18.4V49.082Z" fill="white"/>
</svg>
