<?xml version="1.0" encoding="UTF-8" standalone="no"?>
<!-- Created with Inkscape (http://www.inkscape.org/) -->

<svg
   xmlns:dc="http://purl.org/dc/elements/1.1/"
   xmlns:cc="http://creativecommons.org/ns#"
   xmlns:rdf="http://www.w3.org/1999/02/22-rdf-syntax-ns#"
   xmlns:svg="http://www.w3.org/2000/svg"
   xmlns="http://www.w3.org/2000/svg"
   xmlns:sodipodi="http://sodipodi.sourceforge.net/DTD/sodipodi-0.dtd"
   xmlns:inkscape="http://www.inkscape.org/namespaces/inkscape"
   width="63.799999"
   height="76.5"
   viewBox="0 0 16.880416 20.240626"
   version="1.1"
   id="svg14128"
   inkscape:version="0.92.2 (5c3e80d, 2017-08-06)"
   sodipodi:docname="mapmarker.svg">
  <defs
     id="defs14122" />
  <sodipodi:namedview
     id="base"
     pagecolor="#ffffff"
     bordercolor="#666666"
     borderopacity="1.0"
     inkscape:pageopacity="0.0"
     inkscape:pageshadow="2"
     inkscape:zoom="2.8"
     inkscape:cx="138.90798"
     inkscape:cy="61.715729"
     inkscape:document-units="mm"
     inkscape:current-layer="layer1"
     showgrid="false"
     units="px"
     inkscape:window-width="1920"
     inkscape:window-height="1027"
     inkscape:window-x="-8"
     inkscape:window-y="-8"
     inkscape:window-maximized="1" />
  <metadata
     id="metadata14125">
    <rdf:RDF>
      <cc:Work
         rdf:about="">
        <dc:format>image/svg+xml</dc:format>
        <dc:type
           rdf:resource="http://purl.org/dc/dcmitype/StillImage" />
        <dc:title></dc:title>
      </cc:Work>
    </rdf:RDF>
  </metadata>
  <g
     inkscape:label="Layer 1"
     inkscape:groupmode="layer"
     id="layer1"
     transform="translate(0,-276.75935)">
    <g
       transform="matrix(0.26458333,0,0,0.26458333,-137.71562,212.91542)"
       id="g6494">
      <path
         d="m 584.3,272.6 c 0,17.5 -13.9,29.5 -31.9,45.2 -17.9,-15.7 -31.9,-27.7 -31.9,-45.2 0,-17.3 14.3,-31.3 31.9,-31.3 17.6,0 31.9,14 31.9,31.3 z m -6.4,0.6 c 0,-14.1 -11.4,-25.5 -25.5,-25.5 -14.1,0 -25.5,11.4 -25.5,25.5 0,14.1 11.4,25.5 25.5,25.5 14.1,0 25.5,-11.4 25.5,-25.5 z"
         id="path6490"
         inkscape:connector-curvature="0"
         style="fill:#f97900" />
      <path
         d="m 552.4,247.7 c 14.1,0 25.5,11.4 25.5,25.5 0,14.1 -11.4,25.5 -25.5,25.5 -14.1,0 -25.5,-11.4 -25.5,-25.5 0,-14.1 11.4,-25.5 25.5,-25.5 z"
         id="path6492"
         inkscape:connector-curvature="0"
         style="fill:#f9ad3b" />
    </g>
  </g>
</svg>
