<svg width="30" height="40" viewBox="0 0 30 40" fill="none" xmlns="http://www.w3.org/2000/svg">
<path fill-rule="evenodd" clip-rule="evenodd" d="M24.6326 27.4363L29.9052 38.5911C30.0817 38.9643 30.0073 39.4077 29.719 39.7029C29.5293 39.897 29.2733 40 29.0131 40C28.8776 40 28.741 39.972 28.612 39.9146L22.0067 36.9735L15.4015 39.9146C15.146 40.0283 14.8543 40.0283 14.5987 39.9146L7.99353 36.9735L1.38832 39.9146C1.01126 40.0824 0.569759 39.9979 0.281281 39.7028C-0.00727379 39.4077 -0.081717 38.9641 0.0947438 38.5911L5.36724 27.4363C5.46817 27.2227 5.64236 27.0524 5.85819 26.9564L8.49644 25.7821L3.95142 18.1636C3.94056 18.1453 3.93033 18.1267 3.92064 18.1079C3.0181 16.3457 2.54715 14.3607 2.55902 12.3674C2.5784 9.1054 3.86354 6.02392 6.17776 3.69033C8.49222 1.35658 11.5627 0.0465009 14.8239 0.00126657C18.1816 -0.0459209 21.3467 1.22681 23.7357 3.58322C26.1252 5.94017 27.4411 9.08658 27.4411 12.4427C27.4411 14.4378 26.9829 16.344 26.0792 18.108C26.0695 18.1269 26.0593 18.1454 26.0484 18.1637L21.5033 25.7823L24.1264 26.9502C24.345 27.0432 24.5273 27.2138 24.6326 27.4363ZM4.5329 12.3792C4.52283 14.0704 4.90316 15.6855 5.66322 17.1802L14.1526 31.4105C14.4117 31.8448 14.8315 31.8917 15.0001 31.8917C15.1686 31.8917 15.5884 31.8448 15.8476 31.4105L24.3369 17.1802C25.0871 15.7051 25.4675 14.1115 25.4675 12.4428C25.4675 9.619 24.3603 6.97181 22.3498 4.98876C20.3399 3.00619 17.6765 1.93705 14.8514 1.97502C9.19525 2.05338 4.56633 6.72064 4.5329 12.3792ZM22.4079 34.9915C22.1524 34.8778 21.8607 34.8778 21.6052 34.9915L14.9999 37.9326L8.39473 34.9915C8.13922 34.8778 7.84746 34.8778 7.59195 34.9915L3.01615 37.029L6.99515 28.6111L9.51497 27.4895L12.4574 32.4218C12.9967 33.3259 13.9472 33.8656 14.9998 33.8656C16.0524 33.8656 17.0029 33.3259 17.5422 32.4219L20.4846 27.4896L23.0047 28.6116L26.9834 37.0291L22.4079 34.9915ZM15.0003 7.93806C12.5168 7.93806 10.4963 9.95876 10.4963 12.4426C10.4963 14.9264 12.5168 16.9471 15.0003 16.9471C17.4838 16.9472 19.5043 14.9264 19.5043 12.4426C19.5043 9.95876 17.4838 7.93806 15.0003 7.93806ZM15.0003 14.9732C13.6051 14.9733 12.47 13.8381 12.47 12.4426C12.47 11.0472 13.6051 9.91197 15.0003 9.91197C16.3955 9.91197 17.5306 11.0472 17.5306 12.4426C17.5306 13.838 16.3955 14.9732 15.0003 14.9732Z" fill="white"/>
</svg>
