<?xml version="1.0" encoding="UTF-8" standalone="no"?>
<!-- Created with Inkscape (http://www.inkscape.org/) -->

<svg
   xmlns:dc="http://purl.org/dc/elements/1.1/"
   xmlns:cc="http://creativecommons.org/ns#"
   xmlns:rdf="http://www.w3.org/1999/02/22-rdf-syntax-ns#"
   xmlns:svg="http://www.w3.org/2000/svg"
   xmlns="http://www.w3.org/2000/svg"
   xmlns:sodipodi="http://sodipodi.sourceforge.net/DTD/sodipodi-0.dtd"
   xmlns:inkscape="http://www.inkscape.org/namespaces/inkscape"
   width="807.12402"
   height="445.02399"
   viewBox="0 0 213.55156 117.74593"
   version="1.1"
   id="svg8"
   inkscape:version="0.92.2 (5c3e80d, 2017-08-06)"
   sodipodi:docname="map-1.svg">
  <defs
     id="defs2" />
  <sodipodi:namedview
     id="base"
     pagecolor="#ffffff"
     bordercolor="#666666"
     borderopacity="1.0"
     inkscape:pageopacity="0.0"
     inkscape:pageshadow="2"
     inkscape:zoom="0.35"
     inkscape:cx="-602.85714"
     inkscape:cy="560"
     inkscape:document-units="px"
     inkscape:current-layer="layer1"
     showgrid="false"
     units="px"
     inkscape:window-width="1920"
     inkscape:window-height="1027"
     inkscape:window-x="-8"
     inkscape:window-y="-8"
     inkscape:window-maximized="1" />
  <metadata
     id="metadata5">
    <rdf:RDF>
      <cc:Work
         rdf:about="">
        <dc:format>image/svg+xml</dc:format>
        <dc:type
           rdf:resource="http://purl.org/dc/dcmitype/StillImage" />
        <dc:title></dc:title>
      </cc:Work>
    </rdf:RDF>
  </metadata>
  <g
     inkscape:label="Layer 1"
     inkscape:groupmode="layer"
     id="layer1"
     transform="translate(0,-179.25406)">
    <polygon
       transform="matrix(0.26458333,0,0,0.26458333,-14.667951,120.32126)"
       style="fill:none;stroke:#7892b1;stroke-width:4.1243;stroke-linecap:round;stroke-linejoin:round;stroke-miterlimit:10"
       points="813.7,524.8 813.2,514.1 822.7,509.8 823.2,471.9 823.4,471.7 823.4,471.1 834.5,458.1 821.6,447.2 809.8,432.2 809.7,431.6 808.6,430.2 808.6,423 808.7,422.9 808.7,422.5 815.9,420.1 816.9,419.7 820.9,416.4 823.4,413.3 827.5,402 816.8,390.8 816.2,389 812.5,380.7 812.3,377.5 811.2,374.4 811.2,367.3 820.4,354.5 816,348.8 808.7,340.9 806.9,333.8 805,328.9 805,326 805,325.9 805,324.8 805,309.4 805.5,308.9 805.5,308.2 812,302.2 815.8,298.2 829.1,286.1 830.7,284.6 830.8,284.6 831.3,284.1 831.3,284 822.7,271.2 824.8,257.7 817.3,252.9 800.1,251.8 795.3,247.5 782.4,247.5 770.1,276 747.5,288.3 733.6,286.7 721.8,293.2 710,295.8 697.1,312 686.9,309.3 693.3,298 691.2,283 678.3,274.9 669.2,274.9 662.2,266.8 632.7,265.3 626.8,254 626.8,247.5 635.3,241.1 627.3,232 620.5,224.8 612.3,230.9 601.5,232.5 589.7,238.9 583.8,250.2 567.8,251.8 562.9,266.3 547.9,275.5 537.1,289.9 522.1,288.3 520,266.8 509.8,264.2 487.2,280.8 470.1,295.8 470.1,310.3 459.3,318.4 443.8,318.4 435.1,311.4 423.9,308.7 423.4,313 414.2,313 409.9,295.3 385.8,292.1 369.7,269.5 355.2,269.5 353,274.9 345,284 334.8,287.8 334.8,287.9 336.4,287.8 336.4,301.8 327.8,307.1 309,321.1 294,350.1 274.7,366.7 256.4,382.2 254.8,398.9 241.4,410.2 233.4,425.2 222.6,424.1 211.4,434.9 179.7,430 174.9,423.6 166.3,423.6 162,432.2 160.9,442.9 153.9,447.2 149.6,457.4 140.5,462.2 138.4,471.4 136.8,478.3 127.1,479.9 127.1,492.3 136.2,503.6 137.3,512.2 109.9,532.6 101.3,537.9 86.3,548.6 73.9,554 57.5,567.8 60,571.2 71.8,572.8 88.4,589.4 176.5,630.7 206,654.4 260.2,655.5 265,651.2 287.6,650.6 303.1,665.1 303,665.7 405.1,664 405.4,665.7 405.7,665.7 421.2,659.7 478.1,659.2 653.3,646.5 658.3,642.7 651.4,633.1 653.5,625.5 671.4,620.6 671.4,611.6 679.7,606.8 692.8,593.7 697.7,578.4 704.6,573.6 712.9,573.6 725.4,570.2 742.6,573.6 749.6,577.8 752.3,569.5 762.7,566 775.2,564.6 784.8,561.8 795.9,568.1 804.2,572.9 813.2,566 822.9,570.2 832.5,569.5 840.8,572.9 853.3,570.2 856.1,569.1 855.4,561 854.9,540.6 851.7,537.4 855.4,526.1 860.5,525 854.6,522.4 857.6,524.5 854.6,522.4 851.1,520.8 850.4,521.4 845.4,526.9 844.9,527 844.7,527.2 837.2,528.8 829.1,536.3 827.7,536.3 826.5,537.6 820.4,531.5 814.1,526.1 814.1,525.2 "
       stroke-miterlimit="10"
       id="XMLID_557_" />
  </g>
</svg>
