<?xml version="1.0" encoding="UTF-8"?>
<svg width="30px" height="43px" viewBox="0 0 30 43" version="1.1" xmlns="http://www.w3.org/2000/svg" xmlns:xlink="http://www.w3.org/1999/xlink">
    <!-- Generator: Sketch 41.2 (35397) - http://www.bohemiancoding.com/sketch -->
    <title>design</title>
    <desc>Created with Sketch.</desc>
    <defs></defs>
    <g id="Page-1" stroke="none" stroke-width="1" fill="none" fill-rule="evenodd">
        <g id="gravity" transform="translate(-945.000000, -1399.000000)">
            <g id="2" transform="translate(0.000000, 600.000000)">
                <g id="3" transform="translate(502.000000, 525.000000)">
                    <g id="ДИЗАЙН-И-МАРКЕТИНГ" transform="translate(318.000000, 254.000000)">
                        <g id="design" transform="translate(125.000000, 20.000000)">
                            <path d="M15,0 C6.7525,0 0.0666666667,6.7156808 0.0666666667,15 C0.0666666667,23.2843192 6.7525,30 15,30 C23.2475,30 29.9333333,23.2843192 29.9333333,15 C29.9333333,6.7156808 23.2475,0 15,0 L15,0 Z M18.7618333,20.8146763 L14.9999167,18.8281808 L11.238,20.8146763 L11.9565,16.6071429 L8.91308333,13.6273158 L13.1189167,13.0135045 L14.9999167,9.18540737 L16.8809167,13.0135045 L21.08675,13.6273158 L18.0431667,16.6071429 L18.7618333,20.8146763 L18.7618333,20.8146763 Z" id="Shape" fill="#7C49CD"></path>
                            <path d="M15,18.8282248 C15,23.635695 15,28.0086916 15,30 C6.7525,30 0.0666666667,23.2843192 0.0666666667,15 C0.0666666667,6.7156808 6.7525,0 15,0 C15,0 15,4.02760263 15,9.18557692 L13.1189167,13.0135045 L8.91308333,13.6273158 L11.9565,16.6071429 L11.238,20.8146763 L14.9999167,18.8281808 Z" id="Shape-Copy-4" fill="#6A3EB4"></path>
                            <path d="M6.46666667,31.0741908 L6.46666667,42.8571429 L13.4,41.1160714 L13.4,33.142885 C10.9105833,32.9242467 8.56541667,32.2007813 6.46666667,31.0741908 L6.46666667,31.0741908 Z" id="Shape" fill="#6A3EB4"></path>
                            <path d="M16.6,33.1429688 L16.6,41.1160714 L23.5333333,42.8571429 L23.5333333,31.0741908 C21.4345833,32.2007813 19.0894167,32.9242467 16.6,33.1429688 L16.6,33.1429688 Z" id="Shape" fill="#7C49CD"></path>
                        </g>
                    </g>
                </g>
            </g>
        </g>
    </g>
</svg>