<?xml version="1.0" encoding="UTF-8"?>
<svg width="30px" height="44px" viewBox="0 0 30 44" version="1.1" xmlns="http://www.w3.org/2000/svg" xmlns:xlink="http://www.w3.org/1999/xlink">
    <!-- Generator: Sketch 41.2 (35397) - http://www.bohemiancoding.com/sketch -->
    <title>lamp</title>
    <desc>Created with Sketch.</desc>
    <defs></defs>
    <g id="Page-1" stroke="none" stroke-width="1" fill="none" fill-rule="evenodd">
        <g id="gravity" transform="translate(-641.000000, -1399.000000)">
            <g id="2" transform="translate(0.000000, 600.000000)">
                <g id="3" transform="translate(502.000000, 525.000000)">
                    <g id="РЕЗУЛЬТАТ" transform="translate(11.000000, 254.000000)">
                        <g id="lamp" transform="translate(128.000000, 20.000000)">
                            <path d="M15,0 C6.73192982,0 0.0292105263,6.52926025 0.0292105263,14.5833618 C0.0292105263,24.1186401 8.96333333,24.4675293 9.61447368,33.3333984 L13.3959649,33.3333984 L13.3959649,20.438855 L8.44307018,15.6140503 L10.7114912,13.4043335 L15,17.5819458 L19.2885088,13.4044189 L21.5569298,15.6141357 L16.6040351,20.438855 L16.6040351,33.333313 L20.3855263,33.333313 C21.0366667,24.4674438 29.9707895,24.1186401 29.9707895,14.5832764 C29.9707895,6.52926025 23.2680702,0 15,0 L15,0 Z" id="Shape" fill="#F2345D"></path>
                            <path d="M15,0 C6.73192982,0 0.0292105263,6.52926025 0.0292105263,14.5833618 C0.0292105263,24.1186401 8.96333333,24.4675293 9.61447368,33.3333984 L13.3959649,33.3333984 L13.3959649,20.438855 L8.44307018,15.6140503 L10.7114912,13.4043335 L15,17.5819458 L15,0 Z" id="Shape-Copy-2" fill="#D52C50"></path>
                            <path d="M9.65333333,38.5416992 C9.65333333,41.4180908 12.0471053,43.75 15,43.75 C17.9528947,43.75 20.3466667,41.4180908 20.3466667,38.5416992 L20.3466667,36.4583618 L14.9999999,36.4583618 C13.4054818,36.4583618 9.65333333,36.4583618 9.65333333,36.4583618 L9.65333333,38.5416992 Z" id="Shape" fill="#F2345D"></path>
                            <path d="M9.65333333,38.5416992 C9.65333333,41.4180908 12.0471053,43.75 15,43.75 C14.9999999,39.8040611 14.9999999,36.4583618 14.9999999,36.4583618 L9.65333333,36.4583618 L9.65333333,38.5416992 Z" id="Shape-Copy-3" fill="#D52C50"></path>
                        </g>
                    </g>
                </g>
            </g>
        </g>
    </g>
</svg>