<?xml version="1.0" encoding="UTF-8"?>
<svg width="30px" height="49px" viewBox="0 0 30 49" version="1.1" xmlns="http://www.w3.org/2000/svg" xmlns:xlink="http://www.w3.org/1999/xlink">
    <!-- Generator: Sketch 41.2 (35397) - http://www.bohemiancoding.com/sketch -->
    <title>phone</title>
    <desc>Created with Sketch.</desc>
    <defs></defs>
    <g id="Page-1" stroke="none" stroke-width="1" fill="none" fill-rule="evenodd">
        <g id="gravity" transform="translate(-1258.000000, -1399.000000)">
            <g id="2" transform="translate(0.000000, 600.000000)">
                <g id="3" transform="translate(502.000000, 525.000000)">
                    <g id="ГРАФИК-И-РЕСУРСЫ" transform="translate(631.000000, 254.000000)">
                        <g id="phone" transform="translate(125.000000, 20.000000)">
                            <path d="M26.1114407,0 L4.09576271,0 C1.98877119,0 0.287923729,1.57324415 0.287923729,3.50994983 L0.287923729,44.6776756 C0.287923729,46.6126254 1.98877119,48.1841137 4.09576271,48.1841137 L26.1114407,48.1841137 C28.2146186,48.1841137 29.9192797,46.6126254 29.9192797,44.6776756 L29.9192797,3.50994983 C29.9192797,1.57324415 28.2146186,0 26.1114407,0 L26.1114407,0 Z M9.67118644,2.13160535 L20.5398305,2.13160535 C20.8144068,2.13160535 21.0375,2.50911371 21.0375,2.97617057 C21.0375,3.44322742 20.8144068,3.82249164 20.5398305,3.82249164 L9.67118644,3.82249164 C9.39470339,3.82249164 9.17542373,3.44322742 9.17542373,2.97617057 C9.17542373,2.50911371 9.39470339,2.13160535 9.67118644,2.13160535 L9.67118644,2.13160535 Z M15.1055085,44.7198161 C13.7650424,44.7198161 12.6743644,43.7154682 12.6743644,42.4793478 C12.6743644,41.2432274 13.7650424,40.2423913 15.1055085,40.2423913 C16.442161,40.2423913 17.532839,41.2432274 17.532839,42.4793478 C17.532839,43.7154682 16.442161,44.7198161 15.1055085,44.7198161 L15.1055085,44.7198161 Z M27.0667373,37.048495 L3.14237288,37.048495 L3.14237288,5.92249164 L27.0667373,5.92249164 L27.0667373,37.048495 L27.0667373,37.048495 Z" id="Shape" fill="#19B28D"></path>
                            <path d="M15.1036017,37.048495 L15.1036017,40.242392 C13.7640082,40.2433406 12.6743644,41.2438136 12.6743644,42.4793478 C12.6743644,43.714882 13.7640082,44.7188635 15.1036017,44.7198154 L15.1036017,48.1841125 L4.09576271,48.1841137 C1.98877119,48.1841137 0.287923729,46.6126254 0.287923729,44.6776756 L0.287923729,3.50994983 C0.287923729,1.57324415 1.98877119,0 4.09576271,0 L15.1036017,0 L15.1036017,2.13160535 L9.67118644,2.13160535 C9.39470339,2.13160535 9.17542373,2.50911371 9.17542373,2.97617057 C9.17542373,3.44322742 9.39470339,3.82249164 9.67118644,3.82249164 L15.1036017,3.82249164 L15.1036017,5.92249164 L3.14237288,5.92249164 L3.14237288,37.048495 L15.1036017,37.048495 Z" id="Shape-Copy" fill="#1D9078"></path>
                        </g>
                    </g>
                </g>
            </g>
        </g>
    </g>
</svg>