<svg xmlns="http://www.w3.org/2000/svg" viewBox="0 0 51.23 49.02"><defs><style>.cls-1{fill:#fff;}</style></defs><title>Asset 8</title><g id="Layer_2" data-name="Layer 2"><g id="Слой_1" data-name="Слой 1"><path class="cls-1" d="M49.71,46H48.18V5.59A5.36,5.36,0,0,0,43.1,0h-14A5.36,5.36,0,0,0,24,5.59V13a5.89,5.89,0,0,0-1.27-.16h-14a4.86,4.86,0,0,0-5.08,4.58V46H1.53a1.53,1.53,0,0,0,0,3.06H49.71a1.53,1.53,0,0,0,0-3.06ZM7.76,17.42c0-.15.35-.51,1-.51h14c.66,0,1,.36,1,.51V46h-16ZM28.1,5.59c0-.9.53-1.52,1-1.52h14c.48,0,1,.62,1,1.52V46h-16Z"/><path class="cls-1" d="M33.63,5.79H31.12a1.47,1.47,0,0,0-1.47,1.47V9.78a1.47,1.47,0,0,0,1.47,1.47h2.51a1.47,1.47,0,0,0,1.48-1.47V7.26a1.47,1.47,0,0,0-1.48-1.47Z"/><path class="cls-1" d="M33.63,12.91H31.12a1.47,1.47,0,0,0-1.47,1.47v2.51a1.47,1.47,0,0,0,1.47,1.48h2.51a1.48,1.48,0,0,0,1.48-1.48V14.38a1.47,1.47,0,0,0-1.48-1.47Z"/><path class="cls-1" d="M33.63,20H31.12a1.47,1.47,0,0,0-1.47,1.47V24a1.47,1.47,0,0,0,1.47,1.48h2.51A1.48,1.48,0,0,0,35.11,24V21.5A1.47,1.47,0,0,0,33.63,20Z"/><path class="cls-1" d="M41.09,5.79H38.58A1.47,1.47,0,0,0,37.1,7.26V9.78a1.47,1.47,0,0,0,1.48,1.47h2.51a1.47,1.47,0,0,0,1.47-1.47V7.26a1.47,1.47,0,0,0-1.47-1.47Z"/><path class="cls-1" d="M41.09,12.91H38.58a1.47,1.47,0,0,0-1.48,1.47v2.51a1.48,1.48,0,0,0,1.48,1.48h2.51a1.47,1.47,0,0,0,1.47-1.48V14.38a1.47,1.47,0,0,0-1.47-1.47Z"/><path class="cls-1" d="M41.09,20H38.58A1.47,1.47,0,0,0,37.1,21.5V24a1.48,1.48,0,0,0,1.48,1.48h2.51A1.47,1.47,0,0,0,42.56,24V21.5A1.47,1.47,0,0,0,41.09,20Z"/><path class="cls-1" d="M33.63,27.15H31.12a1.47,1.47,0,0,0-1.47,1.47v2.51a1.47,1.47,0,0,0,1.47,1.48h2.51a1.48,1.48,0,0,0,1.48-1.48V28.62a1.47,1.47,0,0,0-1.48-1.47Z"/><path class="cls-1" d="M33.63,34.26H31.12a1.47,1.47,0,0,0-1.47,1.48v2.51a1.47,1.47,0,0,0,1.47,1.47h2.51a1.47,1.47,0,0,0,1.48-1.47V35.74a1.48,1.48,0,0,0-1.48-1.48Z"/><path class="cls-1" d="M41.09,27.15H38.58a1.47,1.47,0,0,0-1.48,1.47v2.51a1.48,1.48,0,0,0,1.48,1.48h2.51a1.47,1.47,0,0,0,1.47-1.48V28.62a1.47,1.47,0,0,0-1.47-1.47Z"/><path class="cls-1" d="M41.09,34.26H38.58a1.48,1.48,0,0,0-1.48,1.48v2.51a1.47,1.47,0,0,0,1.48,1.47h2.51a1.47,1.47,0,0,0,1.47-1.47V35.74a1.47,1.47,0,0,0-1.47-1.48Z"/><path class="cls-1" d="M13.29,20H10.78A1.47,1.47,0,0,0,9.3,21.5V24a1.48,1.48,0,0,0,1.48,1.48h2.51A1.48,1.48,0,0,0,14.77,24V21.5A1.47,1.47,0,0,0,13.29,20Z"/><path class="cls-1" d="M20.75,20H18.24a1.47,1.47,0,0,0-1.48,1.47V24a1.48,1.48,0,0,0,1.48,1.48h2.51A1.47,1.47,0,0,0,22.22,24V21.5A1.47,1.47,0,0,0,20.75,20Z"/><path class="cls-1" d="M13.29,27.15H10.78A1.47,1.47,0,0,0,9.3,28.62v2.51a1.48,1.48,0,0,0,1.48,1.48h2.51a1.48,1.48,0,0,0,1.48-1.48V28.62a1.47,1.47,0,0,0-1.48-1.47Z"/><path class="cls-1" d="M13.29,34.26H10.78A1.48,1.48,0,0,0,9.3,35.74v2.51a1.47,1.47,0,0,0,1.48,1.47h2.51a1.47,1.47,0,0,0,1.48-1.47V35.74a1.48,1.48,0,0,0-1.48-1.48Z"/><path class="cls-1" d="M20.75,27.15H18.24a1.47,1.47,0,0,0-1.48,1.47v2.51a1.48,1.48,0,0,0,1.48,1.48h2.51a1.47,1.47,0,0,0,1.47-1.48V28.62a1.47,1.47,0,0,0-1.47-1.47Z"/><path class="cls-1" d="M20.75,34.26H18.24a1.48,1.48,0,0,0-1.48,1.48v2.51a1.47,1.47,0,0,0,1.48,1.47h2.51a1.47,1.47,0,0,0,1.47-1.47V35.74a1.47,1.47,0,0,0-1.47-1.48Z"/></g></g></svg>