<?xml version="1.0" encoding="utf-8"?>
<!-- Generator: Adobe Illustrator 22.0.1, SVG Export Plug-In . SVG Version: 6.00 Build 0)  -->
<svg version="1.1" id="Layer_1" xmlns="http://www.w3.org/2000/svg" xmlns:xlink="http://www.w3.org/1999/xlink" x="0px" y="0px"
	 viewBox="0 0 38.7 38.7" style="enable-background:new 0 0 38.7 38.7;" xml:space="preserve">
<style type="text/css">
	.st0{fill:#FFFFFF;}
</style>
<g>
	<rect y="34.9" class="st0" width="38.7" height="3.9"/>
	<rect x="32.9" y="11.4" class="st0" width="3.9" height="19.6"/>
	<rect x="25.2" y="19.4" class="st0" width="3.9" height="11.6"/>
	<rect x="17.4" y="25.2" class="st0" width="3.9" height="5.8"/>
	<rect x="9.7" y="19.4" class="st0" width="3.9" height="11.6"/>
	<rect x="1.9" y="21.3" class="st0" width="3.9" height="9.7"/>
	<path class="st0" d="M3.9,17.4c2.1,0,3.9-1.7,3.9-3.9c0-0.4,0-0.6-0.2-1l1.2-1.2c0.4,0.2,0.6,0.2,1,0.2c0.4,0,0.6,0,1-0.2l5,5
		c0,0.4-0.2,0.6-0.2,1c0,2.1,1.7,3.9,3.9,3.9s3.9-1.7,3.9-3.9c0-0.4,0-0.6-0.2-1L32,7.6c0.4,0.2,0.6,0.2,1,0.2
		c2.1,0,3.9-1.7,3.9-3.9c0-2.1-1.7-3.9-3.9-3.9c-2.1,0-3.9,1.7-3.9,3.9c0,0.4,0,0.6,0.2,1l-8.9,8.9c-0.4-0.2-0.6-0.2-1-0.2
		c-0.4,0-0.6,0-1,0.2l-5-5c0.2-0.4,0.2-0.6,0.2-1c0-2.1-1.7-3.9-3.9-3.9c-2.1,0-3.9,1.7-3.9,3.9c0,0.4,0,0.6,0.2,1L4.8,9.9
		c-0.4-0.2-0.6-0.2-1-0.2C1.7,9.7,0,11.4,0,13.6C0,15.7,1.7,17.4,3.9,17.4L3.9,17.4z M3.9,17.4"/>
</g>
</svg>
