<svg xmlns="http://www.w3.org/2000/svg" viewBox="0 0 51.23 51.23"><defs><style>.cls-1{fill:#fff;}</style></defs><title>Asset 7</title><g id="Layer_2" data-name="Layer 2"><g id="Слой_1" data-name="Слой 1"><path class="cls-1" d="M25.61,0A25.53,25.53,0,0,0,9.77,5.62L7.3,3.85a1.51,1.51,0,0,0-1.62-.06A1.49,1.49,0,0,0,4.93,5.2L4.57,15.56a1.48,1.48,0,0,0,2,1.29c4.08-1.29,10.89-3.56,10.54-3.45a1.54,1.54,0,0,0,1-1.23,1.59,1.59,0,0,0-.66-1.44L15.14,9.2A19.2,19.2,0,0,1,31.38,7a4.42,4.42,0,0,1,.55-3.27,4.56,4.56,0,0,1,2.6-2A25.34,25.34,0,0,0,25.61,0Z"/><path class="cls-1" d="M16.85,44.64c-1.29-4.07-3.56-10.88-3.45-10.53a1.54,1.54,0,0,0-1.23-1,1.59,1.59,0,0,0-1.44.66L9.2,36.09A19.63,19.63,0,0,1,6.1,25.61,19,19,0,0,1,7,19.86,4.47,4.47,0,0,1,1.75,16.7,25.33,25.33,0,0,0,0,25.61,25.54,25.54,0,0,0,5.62,41.46L3.85,43.92A1.52,1.52,0,0,0,5.2,46.3l10.36.36a1.49,1.49,0,0,0,1.29-2Z"/><path class="cls-1" d="M46.66,35.67a1.49,1.49,0,0,0-2-1.29c-4.07,1.29-10.88,3.56-10.53,3.45a1.54,1.54,0,0,0-1,1.23,1.59,1.59,0,0,0,.66,1.44L36.09,42a19.62,19.62,0,0,1-10.48,3.09,19.37,19.37,0,0,1-5.76-.88,4.38,4.38,0,0,1-.56,3.27,4.45,4.45,0,0,1-2.59,2,25.11,25.11,0,0,0,8.91,1.76,25.54,25.54,0,0,0,15.85-5.62l2.46,1.77A1.52,1.52,0,0,0,46.3,46Z"/><path class="cls-1" d="M45.61,9.77,47.38,7.3a1.51,1.51,0,0,0,.06-1.62A1.49,1.49,0,0,0,46,4.93L35.67,4.57a1.48,1.48,0,0,0-1.29,2c1.29,4.08,3.56,10.89,3.45,10.54a1.54,1.54,0,0,0,1.23,1,1.59,1.59,0,0,0,1.44-.66L42,15.14a19.61,19.61,0,0,1,3.09,10.47,19.37,19.37,0,0,1-.88,5.76,4.44,4.44,0,0,1,.94-.1,4.61,4.61,0,0,1,4.4,3.25,25.17,25.17,0,0,0,1.65-8.91A25.53,25.53,0,0,0,45.61,9.77Z"/></g></g></svg>