<?xml version="1.0" encoding="utf-8"?>
<!-- Generator: Adobe Illustrator 22.0.1, SVG Export Plug-In . SVG Version: 6.00 Build 0)  -->
<svg version="1.1" id="Layer_1" xmlns="http://www.w3.org/2000/svg" xmlns:xlink="http://www.w3.org/1999/xlink" x="0px" y="0px"
	 viewBox="0 0 36.5 36.5" style="enable-background:new 0 0 36.5 36.5;" xml:space="preserve">
<style type="text/css">
	.st0{fill:#FFFFFF;}
</style>
<g>
	<path class="st0" d="M18.3,0C8.2,0,0,8.2,0,18.3s8.2,18.3,18.3,18.3c10.1,0,18.3-8.2,18.3-18.3S28.3,0,18.3,0z M12.3,4.4
		c-0.8,1.1-1.5,2.4-2,3.9C9.4,8,8.6,7.6,7.9,7.3C9.2,6.1,10.6,5.1,12.3,4.4z M6.4,8.8c1,0.6,2,1,3.2,1.4c-0.6,2.1-0.9,4.4-1,6.9H3.2
		C3.4,14.1,4.6,11.2,6.4,8.8z M3.2,19.3h5.4c0.1,2.3,0.4,4.5,0.9,6.4c-1.2,0.4-2.3,1-3.3,1.6C4.5,25,3.4,22.3,3.2,19.3z M7.5,28.9
		c0.8-0.4,1.6-0.8,2.5-1.2c0.6,1.7,1.3,3.2,2.2,4.4C10.5,31.4,8.9,30.3,7.5,28.9z M17.2,33.3c-0.3,0-0.6,0-0.9-0.1
		c-1.7-1-3.2-3.2-4.2-6.1c1.6-0.4,3.3-0.7,5.1-0.8V33.3z M17.2,24.3c-2,0.1-3.9,0.4-5.7,0.8c-0.4-1.8-0.7-3.7-0.8-5.8h6.5V24.3z
		 M17.2,17.2h-6.5c0.1-2.3,0.4-4.4,0.9-6.3c1.7,0.4,3.6,0.7,5.6,0.8V17.2z M17.2,9.6c-1.7-0.1-3.4-0.3-4.9-0.7c1-2.6,2.4-4.7,4-5.6
		c0.3,0,0.6-0.1,0.9-0.1V9.6z M28.8,7.4c-0.6,0.3-1.3,0.6-2,0.9c-0.5-1.3-1.1-2.5-1.8-3.6C26.3,5.4,27.6,6.3,28.8,7.4z M19.3,3.2
		c0.5,0,1,0.1,1.5,0.2c1.5,1,2.9,3,3.9,5.5c-1.7,0.4-3.5,0.7-5.4,0.7V3.2z M19.3,11.7c2.1-0.1,4.1-0.3,6-0.8
		c0.5,1.9,0.9,4.1,0.9,6.3h-7V11.7z M19.3,19.3h7c-0.1,2.1-0.4,4-0.8,5.8c-1.9-0.5-4-0.8-6.2-0.8V19.3z M20.8,33.2
		c-0.5,0.1-1,0.1-1.5,0.2v-7c1.9,0.1,3.8,0.3,5.6,0.8C23.9,29.9,22.4,32.1,20.8,33.2z M24.9,31.8c0.8-1.2,1.4-2.5,2-4.1
		c0.8,0.3,1.5,0.6,2.2,1C27.9,30,26.5,31,24.9,31.8z M30.5,27.1c-0.9-0.5-1.9-1-3-1.4c0.5-2,0.8-4.1,0.9-6.4h5
		C33.1,22.2,32.1,24.9,30.5,27.1z M28.4,17.2c-0.1-2.5-0.4-4.8-1-6.9c1-0.4,2-0.8,2.8-1.3c1.8,2.3,2.9,5.1,3.1,8.2H28.4z"/>
</g>
</svg>
