<svg xmlns="http://www.w3.org/2000/svg" viewBox="0 0 25.43 57.55"><defs><style>.cls-1{fill:#fff;}</style></defs><title>Asset 10</title><g id="Layer_2" data-name="Layer 2"><g id="Слой_1" data-name="Слой 1"><path class="cls-1" d="M24.67,51.34l-.81,3.29c-2.41.95-4.34,1.67-5.77,2.17a15.26,15.26,0,0,1-5,.75,10,10,0,0,1-6.81-2.13A6.93,6.93,0,0,1,3.84,50,19.79,19.79,0,0,1,4,47.37a30.36,30.36,0,0,1,.59-3l3-10.67c.27-1,.5-2,.68-2.91a12.26,12.26,0,0,0,.28-2.5,3.88,3.88,0,0,0-.85-2.85,4.78,4.78,0,0,0-3.22-.8,8.52,8.52,0,0,0-2.4.36c-.82.24-1.52.48-2.11.7L.81,22.4q3-1.21,5.67-2.07a17,17,0,0,1,5.12-.86q4.35,0,6.71,2.1A7,7,0,0,1,20.67,27c0,.46-.05,1.28-.16,2.45a15.91,15.91,0,0,1-.61,3.21l-3,10.63a29.55,29.55,0,0,0-.66,2.93A14.77,14.77,0,0,0,16,48.74a3.59,3.59,0,0,0,.94,2.89,5.37,5.37,0,0,0,3.29.77A9.24,9.24,0,0,0,22.66,52a13.13,13.13,0,0,0,2-.67Zm.76-44.62a6.22,6.22,0,0,1-2.1,4.73,7.14,7.14,0,0,1-5.06,2,7.21,7.21,0,0,1-5.08-2,6.21,6.21,0,0,1-2.12-4.73A6.28,6.28,0,0,1,13.19,2a7.22,7.22,0,0,1,5.08-2,7.15,7.15,0,0,1,5.06,2,6.29,6.29,0,0,1,2.1,4.75Z"/></g></g></svg>