<?xml version="1.0" encoding="utf-8"?>
<!-- Generator: Adobe Illustrator 22.0.1, SVG Export Plug-In . SVG Version: 6.00 Build 0)  -->
<svg version="1.1" id="Layer_1" xmlns="http://www.w3.org/2000/svg" xmlns:xlink="http://www.w3.org/1999/xlink" x="0px" y="0px"
	 viewBox="0 0 46.7 46.7" style="enable-background:new 0 0 46.7 46.7;" xml:space="preserve">
<style type="text/css">
	.st0{fill:#FFFFFF;}
</style>
<g>
	<path class="st0" d="M45.3,8.2h-4.1V4.1c0-0.8-0.6-1.4-1.4-1.4h-5.5c-0.8,0-1.4,0.6-1.4,1.4v5.5c0,0.8,0.6,1.4,1.4,1.4h4.1v2.7
		h-4.1c-0.8,0-1.4,0.6-1.4,1.4v4.1h-4.1c-0.8,0-1.4,0.6-1.4,1.4v4.1h-2.7v-4.1c0-0.8-0.6-1.4-1.4-1.4H4.1C1.8,19.1,0,21,0,23.2v19.3
		c0,2.3,1.8,4.1,4.1,4.1h27.5c2.3,0,4.1-1.8,4.1-4.1V21.9h4.1c0.8,0,1.4-0.6,1.4-1.4v-4.1h4.1c0.8,0,1.4-0.6,1.4-1.4V9.6
		C46.7,8.8,46.1,8.2,45.3,8.2L45.3,8.2z M19.2,38.1v1.6c0,0.8-0.6,1.4-1.4,1.4c-0.8,0-1.4-0.6-1.4-1.4v-1.6
		c-1.6-0.6-2.7-2.1-2.7-3.9c0-2.3,1.8-4.1,4.1-4.1c2.3,0,4.1,1.8,4.1,4.1C22,36.1,20.8,37.6,19.2,38.1L19.2,38.1z M22.1,24.6h-2.7
		v-2.7h2.7V24.6z M27.5,30.1h-2.7v-2.7h2.7V30.1z M33,24.6h-2.7v-2.7H33V24.6z M38.5,19.1h-2.7v-2.7h2.7V19.1z M38.5,8.2h-2.7V5.5
		h2.7V8.2z M43.9,13.7h-2.7v-2.7h2.7V13.7z M43.9,13.7"/>
	<path class="st0" d="M16.5,0C9,0,2.8,6.1,2.8,13.7v2.7H11v-2.7c0-3,2.5-5.5,5.5-5.5s5.5,2.5,5.5,5.5V15c0,0.8,0.6,1.4,1.4,1.4h5.5
		c0.8,0,1.4-0.6,1.4-1.4v-1.4C30.2,6.1,24,0,16.5,0L16.5,0z M16.5,0"/>
</g>
</svg>
