<svg xmlns="http://www.w3.org/2000/svg" viewBox="0 0 45.51 59.73"><defs><style>.cls-1{fill:#fff;}</style></defs><title>Asset 5</title><g id="Layer_2" data-name="Layer 2"><g id="Слой_1" data-name="Слой 1"><path class="cls-1" d="M39.82,19.91H37V14.22A14.09,14.09,0,0,0,22.75,0,14.09,14.09,0,0,0,8.53,14.22v5.69H5.69A5.71,5.71,0,0,0,0,25.6V54a5.71,5.71,0,0,0,5.69,5.69H39.82A5.71,5.71,0,0,0,45.51,54V25.6a5.71,5.71,0,0,0-5.69-5.69ZM22.75,5.4a8.87,8.87,0,0,1,8.82,8.82v5.69H13.94V14.22h0A8.86,8.86,0,0,1,22.75,5.4ZM39.82,54H5.69V25.6H39.82ZM22.75,45.51a5.69,5.69,0,1,0-5.68-5.69,5.71,5.71,0,0,0,5.68,5.69Z"/></g></g></svg>