<svg xmlns="http://www.w3.org/2000/svg" viewBox="0 0 39.77 66.29"><defs><style>.cls-1{fill:#fff;}</style></defs><title>Asset 4</title><g id="Layer_2" data-name="Layer 2"><g id="Слой_1" data-name="Слой 1"><path class="cls-1" d="M24.79,63.86l.31-19c0-1.36-.54-2.48-1.26-2.49s-1.28-1.13-1.26-2.49v-.27a19.85,19.85,0,1,0-4.91.07v.12c0,1.36-.62,2.46-1.34,2.45S15,43.29,15,44.66l-.31,19a2.46,2.46,0,0,0,2.43,2.51l5.16.09a2.48,2.48,0,0,0,2.52-2.43Zm-4.9-30.27a13.71,13.71,0,1,1,13.7-13.71,13.73,13.73,0,0,1-13.7,13.71Z"/></g></g></svg>