<svg xmlns="http://www.w3.org/2000/svg" viewBox="0 0 50.09 60.48"><defs><style>.cls-1{fill:#fff;}</style></defs><title>Asset 6</title><g id="Layer_2" data-name="Layer 2"><g id="Слой_1" data-name="Слой 1"><path class="cls-1" d="M38.14,12.76H21.38a2.36,2.36,0,1,0,0,4.72H38.14a2.36,2.36,0,1,0,0-4.72Z"/><path class="cls-1" d="M38.14,22.21H21.38a2.36,2.36,0,0,0,0,4.72H38.14a2.36,2.36,0,1,0,0-4.72Z"/><path class="cls-1" d="M28.59,31.66H21.38a2.37,2.37,0,0,0,0,4.73h7.21a2.37,2.37,0,0,0,0-4.73Z"/><path class="cls-1" d="M47.73,32.13a2.36,2.36,0,0,0,2.36-2.36V9.45A9.46,9.46,0,0,0,40.64,0H18.9A9.47,9.47,0,0,0,9.45,9.44,9.46,9.46,0,0,0,0,18.89V51a9.46,9.46,0,0,0,9.45,9.45H32.37A9.46,9.46,0,0,0,41.82,51V51a9.45,9.45,0,0,0,8.27-9.37,2.37,2.37,0,1,0-4.73,0,4.73,4.73,0,0,1-4.72,4.72H18.9a4.73,4.73,0,0,1-4.72-4.73V9.45A4.73,4.73,0,0,1,18.9,4.73H40.64a4.73,4.73,0,0,1,4.72,4.72V29.77a2.36,2.36,0,0,0,2.37,2.36ZM18.9,51H37.09a4.73,4.73,0,0,1-4.72,4.72H9.45A4.73,4.73,0,0,1,4.73,51V18.89a4.73,4.73,0,0,1,4.72-4.72V41.58A9.44,9.44,0,0,0,18.9,51Z"/></g></g></svg>