<?xml version="1.0" encoding="utf-8"?>
<!-- Generator: Adobe Illustrator 22.0.1, SVG Export Plug-In . SVG Version: 6.00 Build 0)  -->
<svg version="1.1" id="Layer_1" xmlns="http://www.w3.org/2000/svg" xmlns:xlink="http://www.w3.org/1999/xlink" x="0px" y="0px"
	 viewBox="0 0 52 52" style="enable-background:new 0 0 52 52;" xml:space="preserve">
<style type="text/css">
	.st0{fill:#FFFFFF;}
</style>
<g>
	<g>
		<path class="st0" d="M27.1,24.9C27.1,24.9,27.1,24.9,27.1,24.9l-8.7-8.7v-5.5c0-0.4-0.2-0.8-0.4-1.1L8.8,0.4
			C8.4,0,7.7-0.1,7.1,0.1C6.6,0.4,6.2,0.9,6.2,1.5v4.6H1.5C0.9,6.1,0.4,6.5,0.1,7C-0.1,7.6,0,8.3,0.4,8.7l9.2,9.2
			c0.3,0.3,0.7,0.4,1.1,0.4h5.5l8.7,8.7c0,0,0,0,0,0c0.6,0.6,1.5,0.6,2.1,0C27.7,26.5,27.7,25.5,27.1,24.9L27.1,24.9z M27.1,24.9"/>
	</g>
	<path class="st0" d="M26,0c-3.9,0-7.6,1-10.9,2.5l4.7,4.7c2-0.7,4.1-1,6.2-1c10.9,0,19.8,8.9,19.8,19.8c0,10.9-8.9,19.8-19.8,19.8
		C15.1,45.8,6.2,36.9,6.2,26c0-2.2,0.4-4.3,1-6.2l-4.7-4.7C1,18.4,0,22.1,0,26c0,14.3,11.7,26,26,26c14.3,0,26-11.7,26-26
		C52,11.7,40.3,0,26,0L26,0z M26,0"/>
	<path class="st0" d="M26,12.3c-1.6,0-3.1,0.3-4.6,0.8V15l3.5,3.5c0.3,0,0.7-0.1,1-0.1c4.2,0,7.6,3.4,7.6,7.6s-3.4,7.6-7.6,7.6
		s-7.6-3.4-7.6-7.6c0-0.4,0.1-0.7,0.1-1L15,21.4h-1.8c-0.5,1.4-0.8,3-0.8,4.6c0,7.6,6.1,13.7,13.7,13.7c7.6,0,13.7-6.1,13.7-13.7
		C39.7,18.4,33.6,12.3,26,12.3L26,12.3z M26,12.3"/>
</g>
</svg>
