<?xml version="1.0" encoding="utf-8"?>
<!-- Generator: Adobe Illustrator 22.0.1, SVG Export Plug-In . SVG Version: 6.00 Build 0)  -->
<svg version="1.1" id="Layer_1" xmlns="http://www.w3.org/2000/svg" xmlns:xlink="http://www.w3.org/1999/xlink" x="0px" y="0px"
	 viewBox="0 0 46.2 43.9" style="enable-background:new 0 0 46.2 43.9;" xml:space="preserve">
<style type="text/css">
	.st0{fill:#FFFFFF;}
</style>
<path class="st0" d="M40.2,3.3h4.6v36.2h-4.6V3.3z M31.2,4.6l-0.6,0.2c-0.8,0.3-1.7-0.1-2-0.8c-0.2-0.3-0.2-0.7,0-1
	c0.2-0.4,0.5-0.7,0.9-0.8L36.5,0l0.9,6.4c0,0.3,0,0.7-0.3,0.9c-0.3,0.3-0.7,0.6-1.2,0.6c-0.1,0-0.1,0-0.2,0c-0.8,0-1.5-0.5-1.6-1.2
	l-0.1-1c-8.2,11.4-27.2,23.6-28,24.2c-0.3,0.2-0.6,0.3-1,0.3c-0.5,0-0.9-0.2-1.2-0.5c-0.3-0.3-0.4-0.6-0.4-1c0-0.4,0.3-0.7,0.6-1
	C4.3,27.6,23.1,15.4,31.2,4.6L31.2,4.6z M36.6,11.3v28.2H32V11.3H36.6z M28.6,19.7v19.8H24V19.7H28.6z M20.3,28.4v11.1h-4.6V28.4
	H20.3z M11.6,32.8v6.8H7v-6.8H11.6z M46.2,43.9H0v-3.4h46.2V43.9z M46.2,43.9"/>
</svg>
