<?xml version="1.0" encoding="utf-8"?>
<!-- Generator: Adobe Illustrator 22.0.1, SVG Export Plug-In . SVG Version: 6.00 Build 0)  -->
<svg version="1.1" id="Layer_1" xmlns="http://www.w3.org/2000/svg" xmlns:xlink="http://www.w3.org/1999/xlink" x="0px" y="0px"
	 viewBox="0 0 46.9 53.4" style="enable-background:new 0 0 46.9 53.4;" xml:space="preserve">
<style type="text/css">
	.st0{fill:#FFFFFF;}
</style>
<g>
	<path class="st0" d="M37.1,15.3c-4.5-0.5-8.8-1.8-12.7-4l-0.9-0.5l-0.9,0.5c-3.9,2.2-8.2,3.5-12.7,4l-0.5,0v11.5
		c0,8.2,6,15.5,14.1,17c8-1.5,14.1-8.8,14.1-17V15.4L37.1,15.3z M25.1,34.2C25.1,34.2,25,34.2,25.1,34.2l0,1.8
		c0,0.9-0.7,1.6-1.6,1.6s-1.6-0.7-1.6-1.6v-1.9c-1-0.3-2-1-2.9-2c-0.6-0.7-0.5-1.6,0.2-2.2c0.7-0.6,1.7-0.5,2.2,0.2
		c0.8,1,1.8,1.4,2.6,1.1c0.6-0.2,1-0.8,1-1.5c0-0.9-0.7-1.6-1.6-1.6c-2.6,0-4.7-2.1-4.7-4.7c0-1.9,1.1-3.6,2.9-4.3
		c0.1,0,0.2,0,0.3-0.1v-1.9c0-0.9,0.7-1.6,1.6-1.6s1.6,0.7,1.6,1.6v1.9c0.8,0.3,1.6,0.7,2.3,1.4c0.6,0.6,0.6,1.6,0,2.2
		c-0.6,0.6-1.6,0.6-2.2,0c-0.8-0.7-1.6-1-2.3-0.7c-0.6,0.2-1,0.8-1,1.4c0,0.9,0.7,1.6,1.6,1.6c2.6,0,4.7,2.1,4.7,4.7
		C28.2,31.8,26.9,33.6,25.1,34.2L25.1,34.2z M25.1,34.2"/>
	<path class="st0" d="M45.4,6.4h-2.1c-6.5,0-12.8-2-18.2-5.6l-0.7-0.5c-0.5-0.3-1.2-0.3-1.7,0l-0.7,0.5C16.5,4.3,10.2,6.4,3.7,6.4
		H1.6C0.7,6.4,0,7.1,0,7.9v19C0,40,9.8,51.5,22.8,53.3l0.4,0.1c0.1,0,0.1,0,0.2,0c0.1,0,0.1,0,0.2,0l0.4-0.1
		c13-1.9,22.8-13.3,22.8-26.4v-19C46.9,7.1,46.2,6.4,45.4,6.4L45.4,6.4z M40.7,26.9c0,9.8-7.3,18.5-16.9,20.2c-0.1,0-0.2,0-0.3,0
		c-0.1,0-0.2,0-0.3,0C13.5,45.4,6.3,36.7,6.3,26.9V14c0-0.8,0.6-1.5,1.4-1.6l1.9-0.2c4.1-0.4,7.9-1.6,11.5-3.6l1.7-0.9
		c0.5-0.3,1.1-0.3,1.5,0l1.7,0.9c3.6,2,7.4,3.2,11.5,3.6l1.9,0.2c0.8,0.1,1.4,0.8,1.4,1.6V26.9z M40.7,26.9"/>
</g>
</svg>
