<?xml version="1.0" encoding="utf-8"?>
<!-- Generator: Adobe Illustrator 22.0.1, SVG Export Plug-In . SVG Version: 6.00 Build 0)  -->
<svg version="1.1" id="Layer_1" xmlns="http://www.w3.org/2000/svg" xmlns:xlink="http://www.w3.org/1999/xlink" x="0px" y="0px"
	 viewBox="0 0 42.4 50.4" style="enable-background:new 0 0 42.4 50.4;" xml:space="preserve">
<style type="text/css">
	.st0{fill:#FFFFFF;}
</style>
<path class="st0" d="M42.3,13c-0.1-1.3-0.1-2.6-0.1-3.9c0-1-0.8-1.8-1.8-1.8c-7.5,0-13.3-2.2-18-6.8c-0.7-0.7-1.8-0.7-2.5,0
	c-4.8,4.6-10.5,6.8-18,6.8c-1,0-1.8,0.8-1.8,1.8c0,1.3,0,2.5-0.1,3.9c-0.2,12.7-0.6,30,20.5,37.3l0.6,0.1l0.6-0.1
	C42.9,43,42.6,25.7,42.3,13L42.3,13z M19.8,30.5C19.4,30.8,19,31,18.5,31h-0.1c-0.5,0-1-0.2-1.3-0.6l-5.6-6.2l2.7-2.4l4.4,4.9
	l9.8-9.3l2.5,2.7L19.8,30.5z M19.8,30.5"/>
</svg>
