<?xml version="1.0" encoding="UTF-8" standalone="no"?>
<!-- Generator: Adobe Illustrator 22.0.1, SVG Export Plug-In . SVG Version: 6.00 Build 0)  -->

<svg
   xmlns:dc="http://purl.org/dc/elements/1.1/"
   xmlns:cc="http://creativecommons.org/ns#"
   xmlns:rdf="http://www.w3.org/1999/02/22-rdf-syntax-ns#"
   xmlns:svg="http://www.w3.org/2000/svg"
   xmlns="http://www.w3.org/2000/svg"
   xmlns:sodipodi="http://sodipodi.sourceforge.net/DTD/sodipodi-0.dtd"
   xmlns:inkscape="http://www.inkscape.org/namespaces/inkscape"
   version="1.1"
   id="Layer_1"
   x="0px"
   y="0px"
   viewBox="0 0 43.938 44.099998"
   xml:space="preserve"
   sodipodi:docname="Untitled-1.svg"
   width="43.938"
   height="44.099998"
   inkscape:version="0.92.3 (2405546, 2018-03-11)"><metadata
   id="metadata4566"><rdf:RDF><cc:Work
       rdf:about=""><dc:format>image/svg+xml</dc:format><dc:type
         rdf:resource="http://purl.org/dc/dcmitype/StillImage" /><dc:title></dc:title></cc:Work></rdf:RDF></metadata><defs
   id="defs4564" /><sodipodi:namedview
   pagecolor="#ffffff"
   bordercolor="#666666"
   borderopacity="1"
   objecttolerance="10"
   gridtolerance="10"
   guidetolerance="10"
   inkscape:pageopacity="0"
   inkscape:pageshadow="2"
   inkscape:window-width="1920"
   inkscape:window-height="1027"
   id="namedview4562"
   showgrid="false"
   inkscape:zoom="19.5"
   inkscape:cx="22"
   inkscape:cy="22"
   inkscape:window-x="-8"
   inkscape:window-y="-8"
   inkscape:window-maximized="1"
   inkscape:current-layer="Layer_1" />
<style
   type="text/css"
   id="style4543">
	.st0{fill:#FFFFFF;}
</style>
<g
   id="g4576"
   transform="matrix(1.0000114,0,0,1,0.60000626,-7.6293945e-7)"><g
     id="g4559">
	<path
   id="path4545"
   d="m 21.4,0 c 3,0 5.5,2.5 5.5,5.5 0,3 -2.5,5.5 -5.5,5.5 -3,0 -5.5,-2.5 -5.5,-5.5 0,-3 2.5,-5.5 5.5,-5.5 z"
   class="st0"
   inkscape:connector-curvature="0"
   style="fill:#ffffff" />
	<path
   id="path4547"
   d="m 25.7,13.8 h -1.5 c -0.4,0 -0.7,0.1 -1,0.4 L 21.4,16 19.6,14.2 c -0.3,-0.3 -0.6,-0.4 -1,-0.4 h -1.5 c -1.4,0 -2.6,1.1 -2.7,2.4 L 13.2,26 c 0,0.4 0.1,0.8 0.3,1.1 0.3,0.3 0.6,0.5 1,0.5 H 16 l 1.1,14 c 0.1,1.4 1.3,2.5 2.7,2.5 h 3 c 1.4,0 2.6,-1.1 2.7,-2.5 l 1.1,-14 h 1.5 c 0.4,0 0.8,-0.2 1,-0.5 0.3,-0.3 0.4,-0.7 0.3,-1.1 l -1.2,-9.7 c 0.1,-1.5 -1.1,-2.5 -2.5,-2.5 z"
   class="st0"
   inkscape:connector-curvature="0"
   style="fill:#ffffff" />
	<path
   id="path4549"
   d="m 35.2,0 c 3,0 5.5,2.5 5.5,5.5 0,3 -2.5,5.5 -5.5,5.5 -3,0 -5.5,-2.5 -5.5,-5.5 0,-3 2.4,-5.5 5.5,-5.5 z"
   class="st0"
   inkscape:connector-curvature="0"
   style="fill:#ffffff" />
	<g
   id="g4557">
		<path
   id="path4551"
   d="m 7.7,0 c -3,0 -5.5,2.5 -5.5,5.5 0,3 2.5,5.5 5.5,5.5 3,0 5.5,-2.5 5.5,-5.5 v 0 0 C 13.2,2.5 10.7,0 7.7,0 Z"
   class="st0"
   inkscape:connector-curvature="0"
   style="fill:#ffffff" />
		<path
   id="path4553"
   d="M 42.2,16.3 C 42.1,14.9 40.9,13.8 39.5,13.8 H 38 c -0.4,0 -0.7,0.1 -1,0.4 L 35.2,16 33.4,14.2 c -0.3,-0.3 -0.6,-0.4 -1,-0.4 h -1.5 c -0.2,0 -0.3,0.1 -0.5,0.1 0.4,0.6 0.6,1.3 0.7,2.1 l 1.2,9.7 c 0.2,1.2 -0.2,2.4 -1,3.3 -0.4,0.4 -0.9,0.7 -1.4,1 l 0.9,8.9 c 0.1,1.4 1.3,2.5 2.7,2.5 h 3 c 1.4,0 2.6,-1.1 2.7,-2.5 L 40.3,27.6 H 42 c 0.4,0 0.8,-0.2 1,-0.5 0.3,-0.3 0.4,-0.7 0.3,-1.1 z"
   class="st0"
   inkscape:connector-curvature="0"
   style="fill:#ffffff" />
		<path
   id="path4555"
   d="m 10.4,25.6 1.3,-9.8 c 0.1,-0.7 0.3,-1.4 0.7,-2 -0.2,0 -0.3,-0.1 -0.5,-0.1 h -1.5 c -0.4,0 -0.7,0.1 -1,0.4 L 7.7,16 5.9,14.2 C 5.6,13.9 5.3,13.8 4.9,13.8 H 3.4 C 2,13.8 0.8,14.9 0.7,16.2 L -0.6,26 c 0,0.4 0.1,0.8 0.3,1.1 0.3,0.3 0.6,0.5 1,0.5 h 1.5 l 1.1,11.3 c 0.1,1.4 1.3,2.5 2.7,2.5 h 3 c 1.4,0 2.6,-1.1 2.7,-2.5 L 12.6,30 c -0.5,-0.2 -1,-0.5 -1.4,-1 -0.5,-1 -0.9,-2.2 -0.8,-3.4 z"
   class="st0"
   inkscape:connector-curvature="0"
   style="fill:#ffffff" />
	</g>
</g></g>
</svg>