<svg xmlns="http://www.w3.org/2000/svg" viewBox="0 0 53.14 53.13"><defs><style>.cls-1{fill:#fff;}</style></defs><title>Asset 2</title><g id="Layer_2" data-name="Layer 2"><g id="Слой_1" data-name="Слой 1"><path class="cls-1" d="M50.86,39.89c-4.76-4.76-4.44-4.46-4.58-4.56L33.69,26l4.89-4.88a10.9,10.9,0,0,0,13.49-15,1.55,1.55,0,0,0-2.5-.43l-4,4a1.56,1.56,0,1,1-2.2-2.2l4-4a1.56,1.56,0,0,0-.43-2.51A10.9,10.9,0,0,0,32,14.55l-5.63,5.64c-1.15-.9.37.63-10.43-10.83L17,8.23a1.55,1.55,0,0,0-.3-2.43L8.4.8A5.54,5.54,0,0,0,.8,8.4l5,8.34a1.57,1.57,0,0,0,2.44.3L9.3,16c10.75,11.39,9.33,9.84,10.18,10.94a.46.46,0,0,1,.07.07l-5,5a10.9,10.9,0,0,0-13.49,15,1.56,1.56,0,0,0,2.51.43l4-4a1.56,1.56,0,1,1,2.2,2.2l-4,4a1.56,1.56,0,0,0,.43,2.51,10.9,10.9,0,0,0,15-13.49l4.26-4.27,9.93,12.07c.08.09-.17-.16,4.27,4.28a8.39,8.39,0,0,0,5.88,2.45,7.43,7.43,0,0,0,4.37-1.38,7.78,7.78,0,0,0,1-11.84ZM10.47,12.67a1.56,1.56,0,0,0-2.23,0l-.8.8-4-6.63A2.43,2.43,0,0,1,6.8,3.46l6.63,4-.79.79a1.55,1.55,0,0,0,0,2.17C25,23.56,23.06,21.58,24.12,22.4l-2.36,2.36c-.81-1,1.08,1-11.29-12.09Zm7.75,24.44a1.54,1.54,0,0,0-.3,1.77,7.78,7.78,0,0,1-7,11.14,8,8,0,0,1-1.09-.08l2.2-2.2a4.67,4.67,0,1,0-6.6-6.6l-2.2,2.2a7.78,7.78,0,0,1,11.06-8.13,1.54,1.54,0,0,0,1.77-.3L34.91,16a1.54,1.54,0,0,0,.3-1.77A7.79,7.79,0,0,1,43.34,3.19l-2.2,2.2a4.67,4.67,0,1,0,6.6,6.6l2.2-2.2a7.78,7.78,0,0,1-11.06,8.13,1.54,1.54,0,0,0-1.77.3Zm9.41-5,3.84-3.84,3.91,2.89-4.67,4.67c-3.18-3.86-3-3.63-3.08-3.72Zm20.42,17.1a4.9,4.9,0,0,1-6.23-.75l-4.11-4.12-5-6.09L37.91,33l6.43,4.74,4.32,4.32a4.67,4.67,0,0,1-.61,7.12Z"/><path class="cls-1" d="M46.43,44,40.21,37.8A1.56,1.56,0,0,0,38,40l6.22,6.22a1.56,1.56,0,1,0,2.2-2.2Z"/></g></g></svg>