<svg xmlns="http://www.w3.org/2000/svg" viewBox="0 0 54.79 54.79"><defs><style>.cls-1{fill:#fff;}</style></defs><title>Asset 12</title><g id="Layer_2" data-name="Layer 2"><g id="Слой_1" data-name="Слой 1"><path class="cls-1" d="M54.62,24.35A1.79,1.79,0,0,0,52.86,23a6,6,0,0,1-4.14-10.52,1.53,1.53,0,0,0,.16-2.07A26.84,26.84,0,0,0,44.54,6a1.52,1.52,0,0,0-2.08.17,6.32,6.32,0,0,1-6.83,1.53,6.07,6.07,0,0,1-3.7-5.95A1.53,1.53,0,0,0,30.58.18a27.58,27.58,0,0,0-6.16,0,1.53,1.53,0,0,0-1.36,1.56,6.1,6.1,0,0,1-3.75,5.85A6.33,6.33,0,0,1,12.53,6a1.53,1.53,0,0,0-2.07-.17A27.4,27.4,0,0,0,6,10.24a1.53,1.53,0,0,0,.16,2.08,6.08,6.08,0,0,1,1.54,6.84,6.34,6.34,0,0,1-6,3.7A1.51,1.51,0,0,0,.18,24.21a27.61,27.61,0,0,0,0,6.23A1.82,1.82,0,0,0,2,31.79a6,6,0,0,1,5.64,3.75,6.09,6.09,0,0,1-1.54,6.77,1.53,1.53,0,0,0-.16,2.07,27.18,27.18,0,0,0,4.33,4.38,1.52,1.52,0,0,0,2.09-.16,6.27,6.27,0,0,1,6.82-1.54A6.07,6.07,0,0,1,22.86,53a1.53,1.53,0,0,0,1.35,1.6,27.59,27.59,0,0,0,3.15.18,25.31,25.31,0,0,0,3-.17,1.53,1.53,0,0,0,1.36-1.56,6.09,6.09,0,0,1,3.74-5.85,6.33,6.33,0,0,1,6.79,1.55,1.54,1.54,0,0,0,2.07.17,28.23,28.23,0,0,0,4.43-4.38,1.54,1.54,0,0,0-.17-2.09,6,6,0,0,1,4.07-10.54H53a1.53,1.53,0,0,0,1.61-1.35,27.61,27.61,0,0,0,0-6.23ZM27.39,43.19A15.81,15.81,0,1,1,41,35.49L34,28.58a9.69,9.69,0,0,0-8.92-13.47,9.56,9.56,0,0,0-2.55.35,1.1,1.1,0,0,0-.76.76,1.08,1.08,0,0,0,.3,1.05l4.56,4.58a.69.69,0,0,1,.1.51v.07a20.48,20.48,0,0,1-.52,3.35l-.07.06-.08.08a20.54,20.54,0,0,1-3.39.53h0l-.06,0h-.05a.76.76,0,0,1-.53-.22c-1.18-1.19-4.46-4.45-4.46-4.45a1.14,1.14,0,0,0-.8-.35,1.08,1.08,0,0,0-1,.82A9.68,9.68,0,0,0,28.9,33.71l7,7a15.72,15.72,0,0,1-8.5,2.49Z"/></g></g></svg>