<?xml version="1.0" encoding="utf-8"?>
<!-- Generator: Adobe Illustrator 22.0.1, SVG Export Plug-In . SVG Version: 6.00 Build 0)  -->
<svg version="1.1" id="Layer_1" xmlns="http://www.w3.org/2000/svg" xmlns:xlink="http://www.w3.org/1999/xlink" x="0px" y="0px"
	 viewBox="0 0 44.6 51.7" style="enable-background:new 0 0 44.6 51.7;" xml:space="preserve">
<style type="text/css">
	.st0{fill:#FFFFFF;}
</style>
<g>
	<g>
		<path class="st0" d="M0.6,26.7c1.6-1.3,5.8-3.7,12.5-0.1c0.3,0.2,0.7,0.2,1,0c1.1-0.7,4.3-2.3,8.1-2.3c3.9,0,6.9,1.6,8.1,2.2
			c0.3,0.2,0.7,0.2,1,0c6.7-3.5,10.9-1.2,12.5,0.1c0.3,0.2,0.7,0,0.6-0.4C42.5,8.4,29,5.3,24,4.7v-3c0-1-0.8-1.8-1.8-1.8
			c-1,0-1.8,0.8-1.8,1.8v3C15.6,5.3,2,8.4,0,26.4C0,26.7,0.4,27,0.6,26.7L0.6,26.7z M0.6,26.7"/>
	</g>
	<path class="st0" d="M19,48c-0.8,0-1.4-0.6-1.4-1.4c0-1-0.8-1.9-1.9-1.9c-1,0-1.9,0.8-1.9,1.9c0,2.8,2.3,5.2,5.2,5.2
		c2.8,0,5.1-2.2,5.2-5V29.1c0-1-0.8-1.9-1.9-1.9c-1,0-1.9,0.8-1.9,1.9c0,0.1,0,0.1,0,0.2v17.2C20.4,47.4,19.8,48,19,48L19,48z
		 M19,48"/>
</g>
</svg>
