<?xml version="1.0" encoding="utf-8"?>
<!-- Generator: Adobe Illustrator 22.0.1, SVG Export Plug-In . SVG Version: 6.00 Build 0)  -->
<svg version="1.1" id="Layer_1" xmlns="http://www.w3.org/2000/svg" xmlns:xlink="http://www.w3.org/1999/xlink" x="0px" y="0px"
	 viewBox="0 0 41.2 37.6" style="enable-background:new 0 0 41.2 37.6;" xml:space="preserve">
<style type="text/css">
	.st0{fill:#F0F0F0;}
</style>
<g>
	<g>
		<path class="st0" d="M20.6,26.4c-1.2,0-2.1,1-2.1,2.1c0,1.2,1,2.1,2.1,2.1c1.1,0,2.1-1,2.1-2.1C22.7,27.4,21.7,26.4,20.6,26.4
			L20.6,26.4z M20.6,26.4"/>
		<path class="st0" d="M40.2,33.9c1.3-2.3,1.3-5,0-7.3L26.9,3.7C25.6,1.4,23.2,0,20.6,0s-5,1.4-6.3,3.7L1,26.6
			C-0.3,29-0.3,31.7,1,34c1.3,2.3,3.7,3.6,6.3,3.6h26.5C36.4,37.6,38.8,36.2,40.2,33.9L40.2,33.9z M37.3,32.3c-0.7,1.3-2,2-3.5,2
			H7.3c-1.4,0-2.7-0.7-3.5-2c-0.7-1.3-0.7-2.8,0-4l13.3-23c0.7-1.3,2-2,3.5-2c1.4,0,2.7,0.8,3.5,2l13.3,23C38,29.5,38,31,37.3,32.3
			L37.3,32.3z M37.3,32.3"/>
	</g>
	<path class="st0" d="M20.1,11.6c-1,0.3-1.6,1.2-1.6,2.3c0.1,0.7,0.1,1.3,0.1,2c0.1,2.5,0.3,5,0.4,7.6c0.1,0.9,0.7,1.5,1.6,1.5
		c0.9,0,1.5-0.7,1.6-1.5c0-0.5,0-1,0.1-1.5c0.1-1.6,0.2-3.3,0.3-4.9c0.1-1.1,0.1-2.1,0.2-3.2c0-0.4-0.1-0.7-0.2-1.1
		C22.1,11.8,21.1,11.4,20.1,11.6L20.1,11.6z M20.1,11.6"/>
</g>
</svg>
