<svg xmlns="http://www.w3.org/2000/svg" viewBox="0 0 56.17 53.97"><defs><style>.cls-1{fill:#fff;}</style></defs><title>Asset 11</title><g id="Layer_2" data-name="Layer 2"><g id="Слой_1" data-name="Слой 1"><path class="cls-1" d="M49.58,0h-43A6.59,6.59,0,0,0,0,6.58V43a8.79,8.79,0,0,0,8.78,8.78H25.12a2.2,2.2,0,0,0,0-4.39H8.78A4.4,4.4,0,0,1,4.39,43V13.27H51.78v9a2.2,2.2,0,0,0,4.39,0V6.58A6.59,6.59,0,0,0,49.58,0ZM4.39,8.89V6.58A2.19,2.19,0,0,1,6.58,4.39H34.49a6.69,6.69,0,0,0,0,4.5ZM40.7,8.78a2.2,2.2,0,1,1,2.19-2.2,2.21,2.21,0,0,1-2.19,2.2Zm8.77,0a2.2,2.2,0,1,1,2.2-2.2,2.2,2.2,0,0,1-2.2,2.2Z"/><path class="cls-1" d="M54.87,29.58,44.1,24.76a2.22,2.22,0,0,0-1.1-.18,2.19,2.19,0,0,0-1.09.18L31.14,29.58a2.18,2.18,0,0,0-1.3,2v8.35a14.71,14.71,0,0,0,3.72,9.61A12.36,12.36,0,0,0,42.85,54h.3a12.4,12.4,0,0,0,9.3-4.43,14.76,14.76,0,0,0,3.72-9.61V31.58a2.18,2.18,0,0,0-1.3-2ZM51.78,39.93c0,4.56-3.69,9.65-8.63,9.65h-.3c-4.93,0-8.62-5.09-8.62-9.65V33L43,29.08,51.78,33Z"/></g></g></svg>