<?xml version="1.0" encoding="utf-8"?>
<!-- Generator: Adobe Illustrator 22.0.1, SVG Export Plug-In . SVG Version: 6.00 Build 0)  -->
<svg version="1.1" id="Layer_1" xmlns="http://www.w3.org/2000/svg" xmlns:xlink="http://www.w3.org/1999/xlink" x="0px" y="0px"
	 viewBox="0 0 146.2 158.6" style="enable-background:new 0 0 146.2 158.6;" xml:space="preserve">
<style type="text/css">
	.st0{fill:#959392;}
	.st1{fill:#06906E;}
	.st2{fill:#85AFB5;}
	.st3{fill:#3174E8;}
</style>
<g>
	<g>
		<path class="st0" d="M33.7,98.8l6.5,11.2H27.2L33.7,98.8"/>
		<path class="st0" d="M48.2,97.9l-6.5,11.2l-6.5-11.2H48.2"/>
		<path class="st0" d="M41.8,84.8L48.2,96H35.3L41.8,84.8"/>
		<path class="st0" d="M56.3,111.9l-6.5,11.2l-6.5-11.2H56.3"/>
		<path class="st0" d="M49.8,98.8l6.5,11.2H43.4L49.8,98.8"/>
		<path class="st0" d="M64.4,97.9l-6.5,11.2l-6.5-11.2H64.4"/>
		<path class="st0" d="M57.9,84.8L64.4,96H51.5L57.9,84.8"/>
		<path class="st0" d="M66,98.8l6.5,11.2H59.6L66,98.8"/>
		<path class="st0" d="M80.6,97.9l-6.5,11.2l-6.5-11.2H80.6"/>
		<path class="st0" d="M82.2,98.8l6.5,11.2H75.7L82.2,98.8"/>
		<path class="st0" d="M96.7,97.9l-6.5,11.2l-6.5-11.2H96.7"/>
		<path class="st0" d="M90.3,84.8L96.7,96H83.8L90.3,84.8"/>
		<path class="st0" d="M114.5,98.8L121,110h-12.9L114.5,98.8"/>
		<path class="st0" d="M41.8,56.8L48.2,68H35.3L41.8,56.8"/>
		<path class="st0" d="M56.3,83.9l-6.5,11.2l-6.5-11.2H56.3"/>
		<path class="st0" d="M49.8,70.8L56.3,82H43.4L49.8,70.8"/>
		<path class="st0" d="M64.4,69.9l-6.5,11.2l-6.5-11.2H64.4"/>
		<path class="st0" d="M72.5,83.9L66,95.1l-6.5-11.2H72.5"/>
		<path class="st0" d="M66,70.8L72.5,82H59.6L66,70.8"/>
		<path class="st0" d="M80.6,69.9l-6.5,11.2l-6.5-11.2H80.6"/>
		<path class="st0" d="M90.3,56.8L96.7,68H83.8L90.3,56.8"/>
		<path class="st0" d="M104.8,83.9l-6.5,11.2l-6.5-11.2H104.8"/>
		<path class="st0" d="M41.8,56.8L48.2,68H35.3L41.8,56.8"/>
		<path class="st0" d="M90.3,56.8L96.7,68H83.8L90.3,56.8"/>
		<path class="st0" d="M56.3,55.9l-6.5,11.2l-6.5-11.2H56.3"/>
		<path class="st0" d="M104.8,55.9l-6.5,11.2l-6.5-11.2H104.8"/>
		<path class="st0" d="M41.8,56.8L48.2,68H35.3L41.8,56.8"/>
		<path class="st0" d="M90.3,56.8L96.7,68H83.8L90.3,56.8"/>
		<g>
			<path class="st1" d="M72.5,55.9L66,67.1l-6.5-11.2H72.5"/>
			<path class="st1" d="M56.3,111.9l-6.5,11.2l-6.5-11.2H56.3"/>
			<path class="st1" d="M64.4,97.9l-6.5,11.2l-6.5-11.2H64.4"/>
			<path class="st1" d="M72.5,83.9L66,95.1l-6.5-11.2H72.5"/>
			<path class="st1" d="M80.6,69.9l-6.5,11.2l-6.5-11.2H80.6"/>
			<path class="st1" d="M41.8,56.8L48.2,68H35.3L41.8,56.8"/>
			<path class="st1" d="M57.9,56.8L64.4,68H51.5L57.9,56.8"/>
			<path class="st1" d="M56.3,55.9l-6.5,11.2l-6.5-11.2H56.3"/>
		</g>
		<g>
			<path class="st2" d="M66,42.8L72.5,54H59.6L66,42.8"/>
			<path class="st2" d="M88.7,55.9l-6.5,11.2l-6.5-11.2H88.7"/>
			<path class="st2" d="M33.7,98.8l6.5,11.2H27.2L33.7,98.8"/>
			<path class="st2" d="M48.2,97.9l-6.5,11.2l-6.5-11.2H48.2"/>
			<path class="st2" d="M41.8,84.8L48.2,96H35.3L41.8,84.8"/>
			<path class="st2" d="M114.5,98.8L121,110h-12.9L114.5,98.8"/>
			<path class="st2" d="M56.3,83.9l-6.5,11.2l-6.5-11.2H56.3"/>
			<path class="st2" d="M49.8,70.8L56.3,82H43.4L49.8,70.8"/>
			<path class="st2" d="M64.4,69.9l-6.5,11.2l-6.5-11.2H64.4"/>
			<path class="st2" d="M90.3,56.8L96.7,68H83.8L90.3,56.8"/>
			<path class="st2" d="M80.6,41.9l-6.5,11.2l-6.5-11.2H80.6"/>
			<path class="st2" d="M74.1,28.8L80.6,40H67.6L74.1,28.8"/>
			<path class="st2" d="M82.2,42.8L88.7,54H75.7L82.2,42.8"/>
		</g>
		<g>
			<path class="st3" d="M49.8,98.8l6.5,11.2H43.4L49.8,98.8"/>
			<path class="st3" d="M57.9,84.8L64.4,96H51.5L57.9,84.8"/>
			<path class="st3" d="M66,98.8l6.5,11.2H59.6L66,98.8"/>
			<path class="st3" d="M80.6,97.9l-6.5,11.2l-6.5-11.2H80.6"/>
			<path class="st3" d="M82.2,98.8l6.5,11.2H75.7L82.2,98.8"/>
			<path class="st3" d="M96.7,97.9l-6.5,11.2l-6.5-11.2H96.7"/>
			<path class="st3" d="M90.3,84.8L96.7,96H83.8L90.3,84.8"/>
			<path class="st3" d="M66,70.8L72.5,82H59.6L66,70.8"/>
			<path class="st3" d="M74.1,56.8L80.6,68H67.6L74.1,56.8"/>
			<path class="st3" d="M104.8,83.9l-6.5,11.2l-6.5-11.2H104.8"/>
			<path class="st3" d="M104.8,55.9l-6.5,11.2l-6.5-11.2H104.8"/>
		</g>
	</g>
</g>
</svg>
