<?xml version="1.0" encoding="utf-8"?>
<!-- Generator: Adobe Illustrator 22.0.1, SVG Export Plug-In . SVG Version: 6.00 Build 0)  -->
<svg version="1.1" id="Layer_1" xmlns="http://www.w3.org/2000/svg" xmlns:xlink="http://www.w3.org/1999/xlink" x="0px" y="0px"
	 viewBox="0 0 146.2 158.6" style="enable-background:new 0 0 146.2 158.6;" xml:space="preserve">
<style type="text/css">
	.st0{fill:url(#SVGID_1_);}
	.st1{fill:url(#SVGID_2_);}
	.st2{fill:url(#SVGID_3_);}
	.st3{fill:url(#SVGID_4_);}
	.st4{fill:url(#SVGID_5_);}
	.st5{fill:url(#SVGID_6_);}
	.st6{fill:url(#SVGID_7_);}
	.st7{fill:url(#SVGID_8_);}
	.st8{fill:url(#SVGID_9_);}
	.st9{fill:url(#SVGID_10_);}
	.st10{fill:url(#SVGID_11_);}
	.st11{fill:url(#SVGID_12_);}
	.st12{fill:url(#SVGID_13_);}
	.st13{fill:url(#SVGID_14_);}
	.st14{fill:url(#SVGID_15_);}
	.st15{fill:url(#SVGID_16_);}
	.st16{fill:url(#SVGID_17_);}
	.st17{fill:url(#SVGID_18_);}
	.st18{fill:url(#SVGID_19_);}
	.st19{fill:url(#SVGID_20_);}
</style>
<g>
	<g>
		<linearGradient id="SVGID_1_" gradientUnits="userSpaceOnUse" x1="82.2617" y1="84.7451" x2="103.4687" y2="84.7451">
			<stop  offset="0" style="stop-color:#0680D3"/>
			<stop  offset="1" style="stop-color:#003993"/>
		</linearGradient>
		<path class="st0" d="M83.3,103.6c-0.9,0.4-1.3,1.5-0.9,2.4c0.3,0.7,1,1.1,1.7,1.1c0.2,0,0.5-0.1,0.7-0.2c2.7-1.2,5.3-2.8,7.5-4.7
			c2.3-1.9,4.3-4.1,5.9-6.6c3.4-5.1,5.2-11.1,5.2-17.3c0-2.7-0.3-5.3-1-7.8c-0.6-2.5-1.6-4.9-2.8-7.1c-0.5-0.9-1.6-1.2-2.5-0.7
			c-0.9,0.5-1.2,1.6-0.7,2.5c1.1,2,1.9,4.1,2.5,6.3c0.6,2.2,0.9,4.6,0.9,6.9c0,5.5-1.6,10.8-4.6,15.3c-1.5,2.2-3.2,4.2-5.2,5.9
			C88,101.1,85.8,102.5,83.3,103.6z"/>
		<linearGradient id="SVGID_2_" gradientUnits="userSpaceOnUse" x1="42.9857" y1="97.4181" x2="62.2134" y2="97.4181">
			<stop  offset="0" style="stop-color:#0680D3"/>
			<stop  offset="1" style="stop-color:#003993"/>
		</linearGradient>
		<path class="st1" d="M46.5,88.8c-0.4-0.9-1.4-1.4-2.4-1c-0.9,0.4-1.4,1.4-1,2.4c1.5,3.8,3.8,7.1,6.6,10.1c2.9,2.9,6.2,5.2,9.9,6.8
			c0.2,0.1,0.5,0.2,0.7,0.2c0.7,0,1.4-0.4,1.7-1.1c0.4-0.9,0-2-0.9-2.4c-3.3-1.4-6.2-3.5-8.8-6C49.8,95.1,47.9,92.1,46.5,88.8z"/>
		<linearGradient id="SVGID_3_" gradientUnits="userSpaceOnUse" x1="42.8846" y1="59.1571" x2="62.7565" y2="59.1571">
			<stop  offset="0" style="stop-color:#0680D3"/>
			<stop  offset="1" style="stop-color:#003993"/>
		</linearGradient>
		<path class="st2" d="M44,69c0.2,0.1,0.5,0.1,0.7,0.1c0.7,0,1.4-0.4,1.7-1.1c1.4-3.5,3.4-6.6,6.1-9.2c2.6-2.7,5.7-4.7,9.2-6.1
			c0.9-0.4,1.4-1.4,1-2.4c-0.4-0.9-1.4-1.4-2.4-1c-1.9,0.8-3.8,1.8-5.6,3c-1.7,1.2-3.3,2.5-4.8,4c-1.5,1.5-2.8,3.1-3.9,4.9
			c-1.2,1.8-2.1,3.6-2.9,5.6C42.6,67.6,43.1,68.7,44,69z"/>
		<linearGradient id="SVGID_4_" gradientUnits="userSpaceOnUse" x1="48.987" y1="39.6128" x2="62.2072" y2="39.6128">
			<stop  offset="0" style="stop-color:#0680D3"/>
			<stop  offset="1" style="stop-color:#003993"/>
		</linearGradient>
		<path class="st3" d="M50.8,43.5c0.3,0,0.6-0.1,0.9-0.2c2.9-1.7,6-3,9.2-3.9c1-0.3,1.5-1.3,1.2-2.3c-0.3-1-1.3-1.5-2.3-1.2
			c-3.5,1-6.8,2.4-10,4.3c-0.9,0.5-1.2,1.6-0.7,2.5C49.6,43.2,50.2,43.5,50.8,43.5z"/>
		<linearGradient id="SVGID_5_" gradientUnits="userSpaceOnUse" x1="97.9803" y1="56.7735" x2="114.8982" y2="56.7735">
			<stop  offset="0" style="stop-color:#0680D3"/>
			<stop  offset="1" style="stop-color:#003993"/>
		</linearGradient>
		<path class="st4" d="M98.6,47.6c3.1,2.6,5.7,5.7,7.8,9.1c2.2,3.5,3.8,7.2,4.9,11.1c0.2,0.8,1,1.4,1.8,1.4c0.2,0,0.3,0,0.5-0.1
			c1-0.3,1.6-1.3,1.3-2.2c-1.1-4.3-2.9-8.4-5.3-12.2c-2.3-3.7-5.2-7-8.5-9.9c-0.8-0.7-1.9-0.6-2.6,0.2
			C97.8,45.8,97.8,46.9,98.6,47.6z"/>
		<linearGradient id="SVGID_6_" gradientUnits="userSpaceOnUse" x1="82.2616" y1="104.5558" x2="114.632" y2="104.5558">
			<stop  offset="0" style="stop-color:#0680D3"/>
			<stop  offset="1" style="stop-color:#003993"/>
		</linearGradient>
		<path class="st5" d="M113.3,88.4c-1-0.3-2,0.3-2.3,1.2c-1,3.3-2.3,6.4-4.1,9.3c-1.7,2.9-3.8,5.6-6.2,7.9c-2.4,2.4-5,4.5-7.9,6.2
			c-2.9,1.7-6.1,3.1-9.3,4.1c-1,0.3-1.5,1.3-1.2,2.3c0.2,0.8,1,1.3,1.7,1.3c0.2,0,0.3,0,0.5-0.1c3.6-1,7-2.5,10.2-4.4
			c3.1-1.9,6-4.1,8.6-6.7c2.6-2.6,4.9-5.5,6.7-8.6c1.9-3.2,3.4-6.6,4.4-10.2C114.8,89.7,114.3,88.7,113.3,88.4z"/>
		<linearGradient id="SVGID_7_" gradientUnits="userSpaceOnUse" x1="48.8663" y1="116.9712" x2="62.5925" y2="116.9712">
			<stop  offset="0" style="stop-color:#0680D3"/>
			<stop  offset="1" style="stop-color:#003993"/>
		</linearGradient>
		<path class="st6" d="M61.3,117.4c-0.2,0-0.3-0.1-0.5-0.1c-3.2-0.9-6.3-2.3-9.2-4c-0.9-0.5-2-0.2-2.5,0.6c-0.5,0.9-0.2,2,0.6,2.5
			c3.1,1.8,6.5,3.3,10,4.3c0.2,0,0.3,0.1,0.5,0.1c0.2,0,0.3,0.1,0.5,0.1c0.8,0,1.5-0.5,1.8-1.3C62.8,118.6,62.2,117.6,61.3,117.4z"
			/>
		<linearGradient id="SVGID_8_" gradientUnits="userSpaceOnUse" x1="27.94" y1="78.3663" x2="40.3049" y2="78.3663">
			<stop  offset="0" style="stop-color:#0680D3"/>
			<stop  offset="1" style="stop-color:#003993"/>
		</linearGradient>
		<path class="st7" d="M33.8,91.5c-1.5-4.2-2.2-8.7-2.2-13.2c0-4.5,0.7-8.9,2.2-13.1c1.4-4.1,3.4-7.9,6-11.3
			c0.6-0.8,0.5-1.9-0.4-2.6c-0.8-0.6-1.9-0.5-2.6,0.4c-2.9,3.8-5.1,7.9-6.6,12.4c-1.6,4.6-2.4,9.4-2.4,14.3c0,4.9,0.8,9.8,2.4,14.4
			c1.5,4.5,3.8,8.7,6.7,12.4c0.4,0.5,0.9,0.7,1.4,0.7c0.4,0,0.8-0.1,1.1-0.4c0.8-0.6,1-1.8,0.3-2.6C37.3,99.5,35.2,95.6,33.8,91.5z"
			/>
		<linearGradient id="SVGID_9_" gradientUnits="userSpaceOnUse" x1="112.745" y1="78.5147" x2="116.0338" y2="78.5147">
			<stop  offset="0" style="stop-color:#0680D3"/>
			<stop  offset="1" style="stop-color:#003993"/>
		</linearGradient>
		<circle class="st8" cx="114.4" cy="78.5" r="1.6"/>
		<linearGradient id="SVGID_10_" gradientUnits="userSpaceOnUse" x1="79.3194" y1="37.0657" x2="82.6082" y2="37.0657">
			<stop  offset="0" style="stop-color:#0680D3"/>
			<stop  offset="1" style="stop-color:#003993"/>
		</linearGradient>
		<circle class="st9" cx="81" cy="37.1" r="1.6"/>
		<linearGradient id="SVGID_11_" gradientUnits="userSpaceOnUse" x1="79.3194" y1="50.2456" x2="82.6082" y2="50.2456">
			<stop  offset="0" style="stop-color:#0680D3"/>
			<stop  offset="1" style="stop-color:#003993"/>
		</linearGradient>
		<circle class="st10" cx="81" cy="50.2" r="1.6"/>
		<linearGradient id="SVGID_12_" gradientUnits="userSpaceOnUse" x1="42.4967" y1="46.6397" x2="45.7854" y2="46.6397">
			<stop  offset="0" style="stop-color:#0680D3"/>
			<stop  offset="1" style="stop-color:#003993"/>
		</linearGradient>
		<circle class="st11" cx="44.1" cy="46.6" r="1.6"/>
		<linearGradient id="SVGID_13_" gradientUnits="userSpaceOnUse" x1="41.0958" y1="78.4924" x2="44.3846" y2="78.4924">
			<stop  offset="0" style="stop-color:#0680D3"/>
			<stop  offset="1" style="stop-color:#003993"/>
		</linearGradient>
		<circle class="st12" cx="42.7" cy="78.5" r="1.6"/>
		<linearGradient id="SVGID_14_" gradientUnits="userSpaceOnUse" x1="42.4527" y1="109.8966" x2="45.7414" y2="109.8966">
			<stop  offset="0" style="stop-color:#0680D3"/>
			<stop  offset="1" style="stop-color:#003993"/>
		</linearGradient>
		<circle class="st13" cx="44.1" cy="109.9" r="1.6"/>
	</g>
	<g>
		<linearGradient id="SVGID_15_" gradientUnits="userSpaceOnUse" x1="53.8983" y1="84.0078" x2="101.0295" y2="56.7966">
			<stop  offset="0" style="stop-color:#06AAFD"/>
			<stop  offset="1" style="stop-color:#00FFD8"/>
		</linearGradient>
		<path class="st14" d="M89.3,85.5c1-2.3,1.5-4.7,1.5-7.3V39.5c0-1-0.8-1.8-1.8-1.8c-1,0-1.8,0.8-1.8,1.8v27.7
			c-0.5-0.7-1.2-1.4-1.8-2.1c-1.7-1.7-3.7-3.1-5.9-4c-2.3-1-4.7-1.5-7.3-1.5s-5,0.5-7.3,1.5c-2.2,0.9-4.2,2.3-5.9,4
			c-1.7,1.7-3.1,3.7-4,5.9c-1,2.3-1.5,4.7-1.5,7.3c0,2.5,0.5,5,1.5,7.3c0.9,2.2,2.3,4.2,4,5.9c1.7,1.7,3.7,3.1,5.9,4
			c2.3,1,4.7,1.5,7.3,1.5s5-0.5,7.3-1.5c2.2-0.9,4.2-2.3,5.9-4C87,89.8,88.4,87.8,89.3,85.5z M78,92.1c-1.8,0.8-3.8,1.2-5.8,1.2
			c-2,0-4-0.4-5.8-1.2c-1.8-0.8-3.4-1.8-4.8-3.2c-1.4-1.4-2.5-3-3.2-4.8c-0.8-1.8-1.2-3.8-1.2-5.8c0-2,0.4-4,1.2-5.8
			c0.8-1.8,1.8-3.4,3.2-4.8c1.4-1.4,3-2.5,4.8-3.2c1.8-0.8,3.8-1.2,5.8-1.2c2,0,4,0.4,5.8,1.2c1.8,0.8,3.4,1.8,4.8,3.2
			c1.4,1.4,2.5,3,3.2,4.8c0.8,1.8,1.2,3.8,1.2,5.8c0,2-0.4,4-1.2,5.8c-0.8,1.8-1.8,3.4-3.2,4.8C81.4,90.3,79.8,91.4,78,92.1z"/>
		<linearGradient id="SVGID_16_" gradientUnits="userSpaceOnUse" x1="69.1007" y1="53.9372" x2="75.224" y2="50.4019">
			<stop  offset="0" style="stop-color:#06AAFD"/>
			<stop  offset="1" style="stop-color:#00FFD8"/>
		</linearGradient>
		<path class="st15" d="M72.2,46.9c-1,0-1.8,0.8-1.8,1.8v6.8c0,1,0.8,1.8,1.8,1.8c1,0,1.8-0.8,1.8-1.8v-6.8
			C74,47.7,73.2,46.9,72.2,46.9z"/>
		<linearGradient id="SVGID_17_" gradientUnits="userSpaceOnUse" x1="70.1035" y1="38.0176" x2="74.1587" y2="35.6763">
			<stop  offset="0" style="stop-color:#06AAFD"/>
			<stop  offset="1" style="stop-color:#00FFD8"/>
		</linearGradient>
		<circle class="st16" cx="72.1" cy="36.8" r="2.3"/>
		<linearGradient id="SVGID_18_" gradientUnits="userSpaceOnUse" x1="69.0382" y1="106.8461" x2="75.1615" y2="103.3108">
			<stop  offset="0" style="stop-color:#06AAFD"/>
			<stop  offset="1" style="stop-color:#00FFD8"/>
		</linearGradient>
		<path class="st17" d="M72.1,110.3c1,0,1.8-0.8,1.8-1.8v-6.8c0-1-0.8-1.8-1.8-1.8s-1.8,0.8-1.8,1.8v6.8
			C70.3,109.5,71.1,110.3,72.1,110.3z"/>
		<linearGradient id="SVGID_19_" gradientUnits="userSpaceOnUse" x1="70.1035" y1="121.5717" x2="74.1587" y2="119.2305">
			<stop  offset="0" style="stop-color:#06AAFD"/>
			<stop  offset="1" style="stop-color:#00FFD8"/>
		</linearGradient>
		<circle class="st18" cx="72.1" cy="120.4" r="2.3"/>
		<linearGradient id="SVGID_20_" gradientUnits="userSpaceOnUse" x1="66.4924" y1="81.7659" x2="77.8322" y2="75.2189">
			<stop  offset="0" style="stop-color:#06AAFD"/>
			<stop  offset="1" style="stop-color:#00FFD8"/>
		</linearGradient>
		<path class="st19" d="M72.2,67.2c-1,0-1.8,0.8-1.8,1.8v1.4c0,0.1,0,0.2,0,0.3v15.5c0,0.1,0,0.2,0,0.3v1.4c0,1,0.8,1.8,1.8,1.8
			c1,0,1.8-0.8,1.8-1.8V69C74,68,73.2,67.2,72.2,67.2z"/>
	</g>
</g>
</svg>
