<?xml version="1.0" encoding="utf-8"?>
<!-- Generator: Adobe Illustrator 22.0.1, SVG Export Plug-In . SVG Version: 6.00 Build 0)  -->
<svg version="1.1" id="Layer_1" xmlns="http://www.w3.org/2000/svg" xmlns:xlink="http://www.w3.org/1999/xlink" x="0px" y="0px"
	 viewBox="0 0 146.2 158.6" style="enable-background:new 0 0 146.2 158.6;" xml:space="preserve">
<style type="text/css">
	.st0{fill:url(#SVGID_1_);}
	.st1{fill:url(#SVGID_2_);}
	.st2{fill:url(#SVGID_3_);}
	.st3{fill:url(#SVGID_4_);}
	.st4{fill:url(#SVGID_5_);}
	.st5{fill:url(#SVGID_6_);}
	.st6{fill:url(#SVGID_7_);}
	.st7{fill:url(#SVGID_8_);}
	.st8{fill:url(#SVGID_9_);}
	.st9{fill:url(#SVGID_10_);}
</style>
<g>
	<g>
		<linearGradient id="SVGID_1_" gradientUnits="userSpaceOnUse" x1="36.6155" y1="95.4315" x2="62.9071" y2="110.6109">
			<stop  offset="0" style="stop-color:#00E59E"/>
			<stop  offset="0.4872" style="stop-color:#06D2EB"/>
			<stop  offset="1" style="stop-color:#0377BB"/>
		</linearGradient>
		<path class="st0" d="M47.1,104.5c-0.8-0.5-1.4-1.4-1.4-2.4c0-1.5,1.2-2.7,2.7-2.7c1.5,0,2.7,1.2,2.7,2.7c0,1-0.6,1.9-1.4,2.4v7.7
			l9.2,5.2v-5.9c-0.8-0.5-1.4-1.4-1.4-2.4c0-1,0.6-1.9,1.4-2.4v-7.8L40.6,88.5V107l6.4,3.7V104.5z"/>
		<linearGradient id="SVGID_2_" gradientUnits="userSpaceOnUse" x1="71.8306" y1="110.5275" x2="86.2747" y2="118.8668">
			<stop  offset="0" style="stop-color:#06D2EB"/>
			<stop  offset="1" style="stop-color:#0000A9"/>
		</linearGradient>
		<path class="st1" d="M73.6,113.4c0.8,0.5,1.4,1.4,1.4,2.4c0,0.2,0,0.3,0,0.5l6.1,3.6l7-4.1l-14.4-8.3V113.4z"/>
		<linearGradient id="SVGID_3_" gradientUnits="userSpaceOnUse" x1="57.711" y1="107.5183" x2="79.1905" y2="119.9195">
			<stop  offset="0" style="stop-color:#06D2EB"/>
			<stop  offset="1" style="stop-color:#0000A9"/>
		</linearGradient>
		<path class="st2" d="M73.1,118.4c-0.3,0.1-0.6,0.2-0.9,0.2c-1.5,0-2.7-1.2-2.7-2.7c0-1,0.6-1.9,1.4-2.4v-7.5l-9.2-5.3v6.2
			c0.8,0.5,1.4,1.4,1.4,2.4c0,1-0.6,1.9-1.4,2.4v7.4l10.5,6l6.1-3.5L73.1,118.4z"/>
	</g>
	<g>
		<linearGradient id="SVGID_4_" gradientUnits="userSpaceOnUse" x1="69.6726" y1="78.3893" x2="98.5573" y2="95.0659">
			<stop  offset="0" style="stop-color:#05A2ED"/>
			<stop  offset="0.2477" style="stop-color:#0473D9"/>
			<stop  offset="0.603" style="stop-color:#0235BF"/>
			<stop  offset="0.8637" style="stop-color:#000FAF"/>
			<stop  offset="1" style="stop-color:#0000A9"/>
		</linearGradient>
		<path class="st3" d="M82.8,84.6v-7.7l-9.2-5.3v6.2c0.8,0.5,1.4,1.4,1.4,2.4c0,1-0.6,1.9-1.4,2.4v7.2l21.1,12.2v-7l-9.2-5.5
			c-0.4,0.2-0.8,0.3-1.3,0.3c-1.5,0-2.7-1.2-2.7-2.7C81.4,86,81.9,85.1,82.8,84.6z"/>
		<linearGradient id="SVGID_5_" gradientUnits="userSpaceOnUse" x1="45.882" y1="64.659" x2="74.7637" y2="81.3338">
			<stop  offset="0" style="stop-color:#00E59E"/>
			<stop  offset="0.383" style="stop-color:#06D2EB"/>
			<stop  offset="0.5315" style="stop-color:#05B8E7"/>
			<stop  offset="0.8478" style="stop-color:#0275DC"/>
			<stop  offset="1" style="stop-color:#0052D6"/>
		</linearGradient>
		<path class="st4" d="M69.5,80.1c0-1,0.6-1.9,1.4-2.4V70L49.8,57.9v6.2c0.8,0.5,1.4,1.4,1.4,2.4c0,0,0,0.1,0,0.1
			c0.1,0,0.1,0.1,0.2,0.1l9.5,5.7c0.1,0,0.1,0.1,0.2,0.1c0.4,0.2,0.6,0.7,0.6,1.1v9.2l9.2,5.3v-5.6C70,82,69.5,81.1,69.5,80.1z"/>
		<linearGradient id="SVGID_6_" gradientUnits="userSpaceOnUse" x1="81.5725" y1="85.25" x2="107.3737" y2="100.1464">
			<stop  offset="0" style="stop-color:#05A2ED"/>
			<stop  offset="0.2477" style="stop-color:#0473D9"/>
			<stop  offset="0.603" style="stop-color:#0235BF"/>
			<stop  offset="0.8637" style="stop-color:#000FAF"/>
			<stop  offset="1" style="stop-color:#0000A9"/>
		</linearGradient>
		<path class="st5" d="M85.5,84.6c0.8,0.5,1.4,1.4,1.4,2.4c0,0,0,0,0,0.1l9.9,5.8c0.5,0.3,0.7,0.8,0.7,1.3v9.2l6.1,3.5V88.9
			l-18-10.4V84.6z"/>
		<linearGradient id="SVGID_7_" gradientUnits="userSpaceOnUse" x1="36.718" y1="59.3779" x2="62.8668" y2="74.4749">
			<stop  offset="0" style="stop-color:#00E59E"/>
			<stop  offset="0.4872" style="stop-color:#06D2EB"/>
			<stop  offset="1" style="stop-color:#0377BB"/>
		</linearGradient>
		<path class="st6" d="M59,74.4l-9-5.3c-0.1,0-0.1-0.1-0.2-0.1c-0.4,0.2-0.8,0.3-1.3,0.3c-1.5,0-2.7-1.2-2.7-2.7
			c0-1,0.6-1.9,1.4-2.4v-7.8l-6.4-3.7v18.1L59,81.2V74.4z"/>
	</g>
	<g>
		<linearGradient id="SVGID_8_" gradientUnits="userSpaceOnUse" x1="64.5314" y1="39.1659" x2="86.7436" y2="51.9901">
			<stop  offset="0" style="stop-color:#00E59E"/>
			<stop  offset="0.4633" style="stop-color:#06D2EB"/>
			<stop  offset="0.5578" style="stop-color:#06CEEA"/>
			<stop  offset="0.6528" style="stop-color:#05C2E8"/>
			<stop  offset="0.7483" style="stop-color:#04AEE5"/>
			<stop  offset="0.8439" style="stop-color:#0391E0"/>
			<stop  offset="0.9389" style="stop-color:#016DDA"/>
			<stop  offset="1" style="stop-color:#0052D6"/>
		</linearGradient>
		<path class="st7" d="M70.8,42.1c0.4-0.3,0.9-0.4,1.4-0.4c1.5,0,2.7,1.2,2.7,2.7c0,1-0.6,1.9-1.4,2.4v6.8l9.2,5.3v-5.2
			c-0.8-0.5-1.4-1.4-1.4-2.4c0-1,0.6-1.9,1.4-2.4v-8.5l-10.6-6.1l-7.4,4.2L70.8,42.1z"/>
		<linearGradient id="SVGID_9_" gradientUnits="userSpaceOnUse" x1="81.4917" y1="48.9573" x2="107.437" y2="63.9369">
			<stop  offset="0" style="stop-color:#05A2ED"/>
			<stop  offset="0.2477" style="stop-color:#0473D9"/>
			<stop  offset="0.603" style="stop-color:#0235BF"/>
			<stop  offset="0.8637" style="stop-color:#000FAF"/>
			<stop  offset="1" style="stop-color:#0000A9"/>
		</linearGradient>
		<path class="st8" d="M97.4,60.7C97,61,96.5,61.1,96,61.1c-1.5,0-2.7-1.2-2.7-2.7c0-1.5,1.2-2.7,2.7-2.7c1.5,0,2.7,1.2,2.7,2.7
			l4.7,2.7v-8.7L85.5,42V49c0.8,0.5,1.4,1.4,1.4,2.4c0,1-0.6,1.9-1.4,2.4v6.8l18,10.4v-6.6L97.4,60.7z"/>
		<linearGradient id="SVGID_10_" gradientUnits="userSpaceOnUse" x1="57.7073" y1="41.0385" x2="72.3288" y2="49.4802">
			<stop  offset="0" style="stop-color:#00E59E"/>
			<stop  offset="0.4872" style="stop-color:#06D2EB"/>
			<stop  offset="1" style="stop-color:#0377BB"/>
		</linearGradient>
		<path class="st9" d="M70.9,46.8c-0.8-0.5-1.3-1.3-1.4-2.3l-7.4-4.4l-5.9,3.4L70.9,52V46.8z"/>
	</g>
</g>
</svg>
