<?xml version="1.0" encoding="utf-8"?>
<!-- Generator: Adobe Illustrator 22.0.1, SVG Export Plug-In . SVG Version: 6.00 Build 0)  -->
<svg version="1.1" id="Layer_1" xmlns="http://www.w3.org/2000/svg" xmlns:xlink="http://www.w3.org/1999/xlink" x="0px" y="0px"
	 viewBox="0 0 146.2 158.6" style="enable-background:new 0 0 146.2 158.6;" xml:space="preserve">
<style type="text/css">
	.st0{fill:url(#SVGID_1_);}
	.st1{fill:url(#SVGID_2_);}
</style>
<g>
	<linearGradient id="SVGID_1_" gradientUnits="userSpaceOnUse" x1="43.0034" y1="50.5085" x2="83.2716" y2="90.7768">
		<stop  offset="0" style="stop-color:#0051FD"/>
		<stop  offset="0.4506" style="stop-color:#0483F5"/>
		<stop  offset="0.8059" style="stop-color:#06A5F0"/>
		<stop  offset="1" style="stop-color:#07B1EE"/>
	</linearGradient>
	<path class="st0" d="M48.3,85.1c-4.1,0-7.4,3.3-7.4,7.4v11.4c0,4.1,3.3,7.4,7.4,7.4h11.4c4.1,0,7.4-3.3,7.4-7.4V92.5
		c0-4.1-3.3-7.4-7.4-7.4H48.3z M48.3,48.3c-4.1,0-7.4,3.3-7.4,7.4v11.4c0,4.1,3.3,7.4,7.4,7.4h11.4c4.1,0,7.4-3.3,7.4-7.4V55.8
		c0-4.1-3.3-7.4-7.4-7.4H48.3z M85,48.3c-4.1,0-7.4,3.3-7.4,7.4v11.4c0,4.1,3.3,7.4,7.4,7.4h11.4c4.1,0,7.4-3.3,7.4-7.4V55.8
		c0-4.1-3.3-7.4-7.4-7.4H85z"/>
	<linearGradient id="SVGID_2_" gradientUnits="userSpaceOnUse" x1="113.1793" y1="120.6829" x2="79.537" y2="87.0406">
		<stop  offset="0" style="stop-color:#00A15A"/>
		<stop  offset="1" style="stop-color:#5DE74B"/>
	</linearGradient>
	<path class="st1" d="M109.6,114c-1.6,0.3-2.8,1.5-3.1,3.1c-0.5,2.8,1.9,5.2,4.6,4.6c1.5-0.3,2.8-1.5,3.1-3.1
		c0.5-2.5-1.4-4.7-3.9-4.7C110.1,114,109.9,114,109.6,114 M84.3,85.1c-3.7,0-6.7,3-6.7,6.7v12.9c0,3.7,3,6.7,6.7,6.7h19.6V91.8
		c0-3.7-3-6.7-6.7-6.7H84.3z"/>
</g>
</svg>
