<?xml version="1.0" encoding="UTF-8" standalone="no"?>
<svg
   xmlns:dc="http://purl.org/dc/elements/1.1/"
   xmlns:cc="http://creativecommons.org/ns#"
   xmlns:rdf="http://www.w3.org/1999/02/22-rdf-syntax-ns#"
   xmlns:svg="http://www.w3.org/2000/svg"
   xmlns="http://www.w3.org/2000/svg"
   xmlns:sodipodi="http://sodipodi.sourceforge.net/DTD/sodipodi-0.dtd"
   xmlns:inkscape="http://www.inkscape.org/namespaces/inkscape"
   version="1.1"
   viewBox="0 0 463.009 463.009"
   enable-background="new 0 0 463.009 463.009"
   id="svg6"
   sodipodi:docname="phone.svg"
   inkscape:version="0.92.3 (2405546, 2018-03-11)">
  <metadata
     id="metadata12">
    <rdf:RDF>
      <cc:Work
         rdf:about="">
        <dc:format>image/svg+xml</dc:format>
        <dc:type
           rdf:resource="http://purl.org/dc/dcmitype/StillImage" />
      </cc:Work>
    </rdf:RDF>
  </metadata>
  <defs
     id="defs10" />
  <sodipodi:namedview
     pagecolor="#ffffff"
     bordercolor="#666666"
     borderopacity="1"
     objecttolerance="10"
     gridtolerance="10"
     guidetolerance="10"
     inkscape:pageopacity="0"
     inkscape:pageshadow="2"
     inkscape:window-width="1920"
     inkscape:window-height="1027"
     id="namedview8"
     showgrid="false"
     inkscape:zoom="0.50970931"
     inkscape:cx="72.248244"
     inkscape:cy="188.06631"
     inkscape:window-x="-8"
     inkscape:window-y="-8"
     inkscape:window-maximized="1"
     inkscape:current-layer="svg6" />
  <g
     id="g4"
     style="fill:#6c6c6c;fill-opacity:1">
    <path
       d="m 462.692,381.085 c -1.472,-11.126 -7.895,-20.719 -17.62,-26.318 L 330.846,289 c -13.99,-8.055 -31.738,-5.71 -43.157,5.708 l -22.499,22.499 c -5.987,5.988 -15.459,6.518 -22.028,1.231 -17.737,-14.272 -35.201,-29.979 -51.906,-46.685 -16.705,-16.705 -32.412,-34.168 -46.685,-51.906 -5.287,-6.57 -4.758,-16.041 1.231,-22.029 L 168.3,175.319 c 11.418,-11.417 13.766,-29.163 5.709,-43.156 L 108.242,17.937 C 102.642,8.211 93.05,1.789 81.924,0.317 70.797,-1.158 59.864,2.553 51.928,10.489 L 18.027,44.391 c -23.661,23.662 -24.041,66.944 -1.07,121.875 22.088,52.818 63.308,110.962 116.065,163.721 52.759,52.758 110.903,93.978 163.722,116.066 27.039,11.307 51.253,16.957 71.697,16.956 21.088,0 38.163,-6.013 50.178,-18.027 L 452.52,411.08 c 7.935,-7.936 11.643,-18.869 10.172,-29.995 z m -139.33,-79.086 114.226,65.767 c 5.649,3.252 9.379,8.824 10.233,15.286 0.718,5.423 -0.691,10.763 -3.885,15.066 l -151.805,-86.638 6.165,-6.165 c 6.631,-6.631 16.941,-7.994 25.066,-3.316 z M 79.956,15.188 c 6.463,0.855 12.034,4.585 15.286,10.234 l 65.767,114.226 c 4.68,8.127 3.316,18.435 -3.315,25.065 l -5.663,5.663 L 64.917,19.073 c 3.561,-2.637 7.82,-4.069 12.26,-4.069 0.921,0 1.85,0.061 2.779,0.184 z m 328.055,419.187 c -18.798,18.798 -57.244,18.01 -105.48,-2.162 C 251.471,410.861 195.04,370.789 143.63,319.38 92.22,267.97 52.148,211.538 30.796,160.479 10.623,112.242 9.836,73.796 28.634,54.997 l 36.283,-35.924 87.114,151.303 -16.836,16.836 c -11.415,11.416 -12.409,29.488 -2.311,42.04 14.609,18.156 30.68,36.024 47.764,53.108 17.086,17.085 34.954,33.156 53.109,47.765 12.55,10.098 30.622,9.105 42.04,-2.312 l 16.334,-16.333 151.805,86.638 z"
       id="path2"
       inkscape:connector-curvature="0"
       sodipodi:nodetypes="cccccccccccccccccccccccccccscccccccscccccccccccccccc"
       style="fill:#6c6c6c;fill-opacity:1" />
  </g>
</svg>
