<?xml version="1.0" encoding="UTF-8" standalone="no"?>
<!-- Generator: Adobe Illustrator 19.0.0, SVG Export Plug-In . SVG Version: 6.00 Build 0)  -->

<svg
   xmlns:dc="http://purl.org/dc/elements/1.1/"
   xmlns:cc="http://creativecommons.org/ns#"
   xmlns:rdf="http://www.w3.org/1999/02/22-rdf-syntax-ns#"
   xmlns:svg="http://www.w3.org/2000/svg"
   xmlns="http://www.w3.org/2000/svg"
   xmlns:xlink="http://www.w3.org/1999/xlink"
   xmlns:sodipodi="http://sodipodi.sourceforge.net/DTD/sodipodi-0.dtd"
   xmlns:inkscape="http://www.inkscape.org/namespaces/inkscape"
   version="1.1"
   id="Слой_1"
   x="0px"
   y="0px"
   viewBox="-247 358.9 84 73.800003"
   xml:space="preserve"
   sodipodi:docname="heart.svg"
   width="84"
   height="73.800003"
   inkscape:version="0.92.1 r15371"><metadata
     id="metadata9"><rdf:RDF><cc:Work
         rdf:about=""><dc:format>image/svg+xml</dc:format><dc:type
           rdf:resource="http://purl.org/dc/dcmitype/StillImage" /><dc:title></dc:title></cc:Work></rdf:RDF></metadata><defs
     id="defs7"><linearGradient
       inkscape:collect="always"
       id="linearGradient4498"><stop
         style="stop-color:#89d5be;stop-opacity:1;"
         offset="0"
         id="stop4494" /><stop
         style="stop-color:#a7e5d3;stop-opacity:1"
         offset="1"
         id="stop4496" /></linearGradient><linearGradient
       inkscape:collect="always"
       xlink:href="#linearGradient4498"
       id="linearGradient4500"
       x1="-247"
       y1="395.8"
       x2="-163"
       y2="395.8"
       gradientUnits="userSpaceOnUse" /></defs><sodipodi:namedview
     pagecolor="#ffffff"
     bordercolor="#666666"
     borderopacity="1"
     objecttolerance="10"
     gridtolerance="10"
     guidetolerance="10"
     inkscape:pageopacity="0"
     inkscape:pageshadow="2"
     inkscape:window-width="1920"
     inkscape:window-height="1028"
     id="namedview5"
     showgrid="false"
     inkscape:zoom="1.888"
     inkscape:cx="50"
     inkscape:cy="62.5"
     inkscape:window-x="1912"
     inkscape:window-y="-8"
     inkscape:window-maximized="1"
     inkscape:current-layer="Слой_1" /><path
     d="m -222.4,358.9 c -6.3,0 -12.6,2.4 -17.4,7.2 -9.6,9.6 -9.6,25.3 0,34.9 l 32.8,30.9 c 0.6,0.5 1.3,0.8 2.1,0.8 0.7,0 1.5,-0.3 2.1,-0.8 L -170,401 c 4.7,-4.8 7,-11.2 7,-17.5 0,-6.3 -2.4,-12.6 -7.2,-17.4 -4.3,-4.3 -9.8,-6.2 -15.4,-6.2 -6.9,0 -14,2.9 -19.3,8.1 0,0 -0.1,0.1 -0.2,0.1 -0.1,0 -0.1,0 -0.2,-0.1 -4.6,-4.6 -10.9,-9.1 -17.1,-9.1 z"
     id="path2"
     inkscape:connector-curvature="0"
     style="fill-opacity:1;fill:url(#linearGradient4500);fill-rule:nonzero" /></svg>