<?xml version="1.0" encoding="UTF-8" standalone="no"?>
<!-- Generator: Adobe Illustrator 19.0.0, SVG Export Plug-In . SVG Version: 6.00 Build 0)  -->

<svg
   xmlns:dc="http://purl.org/dc/elements/1.1/"
   xmlns:cc="http://creativecommons.org/ns#"
   xmlns:rdf="http://www.w3.org/1999/02/22-rdf-syntax-ns#"
   xmlns:svg="http://www.w3.org/2000/svg"
   xmlns="http://www.w3.org/2000/svg"
   xmlns:sodipodi="http://sodipodi.sourceforge.net/DTD/sodipodi-0.dtd"
   xmlns:inkscape="http://www.inkscape.org/namespaces/inkscape"
   version="1.1"
   id="Слой_1"
   x="0px"
   y="0px"
   viewBox="-247 358.9 65.400002 41.355999"
   xml:space="preserve"
   sodipodi:docname="play.svg"
   width="65.400002"
   height="41.355999"
   inkscape:version="0.92.1 r15371"><metadata
     id="metadata9"><rdf:RDF><cc:Work
         rdf:about=""><dc:format>image/svg+xml</dc:format><dc:type
           rdf:resource="http://purl.org/dc/dcmitype/StillImage" /><dc:title></dc:title></cc:Work></rdf:RDF></metadata><defs
     id="defs7" /><sodipodi:namedview
     pagecolor="#ffffff"
     bordercolor="#666666"
     borderopacity="1"
     objecttolerance="10"
     gridtolerance="10"
     guidetolerance="10"
     inkscape:pageopacity="0"
     inkscape:pageshadow="2"
     inkscape:window-width="1920"
     inkscape:window-height="1028"
     id="namedview5"
     showgrid="false"
     inkscape:zoom="3.776"
     inkscape:cx="24.072472"
     inkscape:cy="13.949479"
     inkscape:window-x="1912"
     inkscape:window-y="-8"
     inkscape:window-maximized="1"
     inkscape:current-layer="Слой_1" /><path
     d="m -214.3,375.55612 c 0,-0.1 0,-0.3 0,-0.4 0,-0.1 0,-0.2 0,-0.3 v -0.1 0 c -0.2,-2.5 -1.6,-4.8 -3.9,-5.9 l -18.5,-9.2 c -2.2,-1.1 -4.8,-1 -6.9,0.3 -2.1,1.3 -3.4,3.6 -3.4,6 v 8.4 10.3 8.4 c 0,2.5 1.3,4.8 3.4,6.1 1.1,0.7 2.4,1.1 3.7,1.1 1.1,0 2.2,-0.3 3.2,-0.8 l 18.5,-9.4 c 2.4,-1.2 3.9,-3.7 3.9,-6.4 0,-0.1 0,-0.2 0,-0.3 z m -27.8,-9.5 c 0,-1.1 0.7,-1.6 1,-1.8 0.2,-0.1 0.6,-0.3 1.1,-0.3 0.3,0 0.6,0.1 0.9,0.2 l 18.5,9.2 c 0.8,0.4 1.1,1.1 1.1,1.6 v 0.6 c -0.1,0.5 -0.3,1.1 -1.1,1.6 l -18.4,9.4 v 0 c -0.9,0.5 -1.8,0.1 -2.1,-0.1 -0.3,-0.2 -1,-0.7 -1,-1.8 v -10.3 c 0,0 0,-8.3 0,-8.3 z m 21.6,19.5 -18.5,9.4 c -0.9,0.5 -1.8,0.1 -2.1,-0.1 -0.3,-0.2 -1,-0.7 -1,-1.8 v -1.6 c 0.7,0.2 1.4,0.3 2.1,0.3 1.1,0 2.2,-0.3 3.2,-0.8 l 16.9,-8.7 c 0.3,0.5 0.4,1 0.4,1.2 0.2,0.6 0,1.5 -1,2.1 z"
     id="path2"
     style="fill:#a976d4;fill-opacity:1"
     inkscape:connector-curvature="0" /><path
     inkscape:connector-curvature="0"
     style="fill:#f58a07;fill-opacity:1"
     id="path819"
     d="m -181.6,375.55612 c 0,-0.1 0,-0.3 0,-0.4 0,-0.1 0,-0.2 0,-0.3 v -0.1 0 c -0.2,-2.5 -1.6,-4.8 -3.9,-5.9 l -18.5,-9.2 c -2.2,-1.1 -4.8,-1 -6.9,0.3 -2.1,1.3 -3.4,3.6 -3.4,6 v 8.4 10.3 8.4 c 0,2.5 1.3,4.8 3.4,6.1 1.1,0.7 2.4,1.1 3.7,1.1 1.1,0 2.2,-0.3 3.2,-0.8 l 18.5,-9.4 c 2.4,-1.2 3.9,-3.7 3.9,-6.4 0,-0.1 0,-0.2 0,-0.3 z m -27.8,-9.5 c 0,-1.1 0.7,-1.6 1,-1.8 0.2,-0.1 0.6,-0.3 1.1,-0.3 0.3,0 0.6,0.1 0.9,0.2 l 18.5,9.2 c 0.8,0.4 1.1,1.1 1.1,1.6 v 0.6 c -0.1,0.5 -0.3,1.1 -1.1,1.6 l -18.4,9.4 v 0 c -0.9,0.5 -1.8,0.1 -2.1,-0.1 -0.3,-0.2 -1,-0.7 -1,-1.8 v -10.3 c 0,0 0,-8.3 0,-8.3 z m 21.6,19.5 -18.5,9.4 c -0.9,0.5 -1.8,0.1 -2.1,-0.1 -0.3,-0.2 -1,-0.7 -1,-1.8 v -1.6 c 0.7,0.2 1.4,0.3 2.1,0.3 1.1,0 2.2,-0.3 3.2,-0.8 l 16.9,-8.7 c 0.3,0.5 0.4,1 0.4,1.2 0.2,0.6 0,1.5 -1,2.1 z" /></svg>