<?xml version="1.0" encoding="UTF-8" standalone="no"?>
<!-- Created with Inkscape (http://www.inkscape.org/) -->

<svg
   xmlns:dc="http://purl.org/dc/elements/1.1/"
   xmlns:cc="http://creativecommons.org/ns#"
   xmlns:rdf="http://www.w3.org/1999/02/22-rdf-syntax-ns#"
   xmlns:svg="http://www.w3.org/2000/svg"
   xmlns="http://www.w3.org/2000/svg"
   xmlns:sodipodi="http://sodipodi.sourceforge.net/DTD/sodipodi-0.dtd"
   xmlns:inkscape="http://www.inkscape.org/namespaces/inkscape"
   width="162"
   height="69"
   viewBox="0 0 42.862502 18.256249"
   version="1.1"
   id="svg8"
   inkscape:version="0.92.3 (2405546, 2018-03-11)"
   sodipodi:docname="logo.svg">
  <defs
     id="defs2">
    <clipPath
       clipPathUnits="userSpaceOnUse"
       id="clipPath22">
      <path
         d="M 1954.65,1194.98 C 3042.81,891.234 3933.29,445.516 3943.18,199.652 3953.06,-46.207 3008.61,-85.9297 1920.45,217.824 832.289,521.574 11.8086,1053.96 1.93359,1299.82 c -2.15234,53.57 32.10161,91.24 107.03941,117.36 l 15.371,-13.01 C 66.1602,1387.68 43.875,1347.25 45.5586,1305.33 54.2461,1089.14 854.734,690.215 1822.65,420.031 2227.82,306.938 3502.36,52.4766 3602.91,336.117 c 72.38,204.196 -808.85,601.938 -1776.76,872.113 -217.28,60.65 -426.48,109.61 -620.54,146.65 l 2.01,15.79 c 230.24,-42.95 480.95,-101.42 747.03,-175.69 z"
         id="path20"
         style="clip-rule:evenodd"
         inkscape:connector-curvature="0" />
    </clipPath>
    <linearGradient
       x1="-127.759"
       y1="0"
       x2="127.759"
       y2="0"
       gradientUnits="userSpaceOnUse"
       gradientTransform="matrix(-2.9404,9.55793,-9.55793,-2.9404,5486.8558,-1103.0822)"
       spreadMethod="pad"
       id="linearGradient28">
      <stop
         style="stop-opacity:1;stop-color:#e05e1f"
         offset="0"
         id="stop24" />
      <stop
         style="stop-opacity:1;stop-color:#ffffff"
         offset="1"
         id="stop26" />
    </linearGradient>
    <clipPath
       clipPathUnits="userSpaceOnUse"
       id="clipPath22-9">
      <path
         d="M 1954.65,1194.98 C 3042.81,891.234 3933.29,445.516 3943.18,199.652 3953.06,-46.207 3008.61,-85.9297 1920.45,217.824 832.289,521.574 11.8086,1053.96 1.93359,1299.82 c -2.15234,53.57 32.10161,91.24 107.03941,117.36 l 15.371,-13.01 C 66.1602,1387.68 43.875,1347.25 45.5586,1305.33 54.2461,1089.14 854.734,690.215 1822.65,420.031 2227.82,306.938 3502.36,52.4766 3602.91,336.117 c 72.38,204.196 -808.85,601.938 -1776.76,872.113 -217.28,60.65 -426.48,109.61 -620.54,146.65 l 2.01,15.79 c 230.24,-42.95 480.95,-101.42 747.03,-175.69 z"
         id="path20-1"
         style="clip-rule:evenodd" />
    </clipPath>
    <linearGradient
       x1="-127.759"
       y1="0"
       x2="127.759"
       y2="0"
       gradientUnits="userSpaceOnUse"
       gradientTransform="matrix(-9.7979128,31.848648,-31.848647,-9.7979128,3452.8265,604.26659)"
       spreadMethod="pad"
       id="linearGradient28-5">
      <stop
         style="stop-opacity:1;stop-color:#e05e1f"
         offset="0"
         id="stop24-9" />
      <stop
         style="stop-opacity:1;stop-color:#ffffff"
         offset="1"
         id="stop26-8" />
    </linearGradient>
  </defs>
  <sodipodi:namedview
     id="base"
     pagecolor="#ffffff"
     bordercolor="#666666"
     borderopacity="1.0"
     inkscape:pageopacity="0.0"
     inkscape:pageshadow="2"
     inkscape:zoom="1.979899"
     inkscape:cx="95.796174"
     inkscape:cy="3.6843959"
     inkscape:document-units="mm"
     inkscape:current-layer="layer1"
     showgrid="false"
     units="px"
     inkscape:window-width="1280"
     inkscape:window-height="962"
     inkscape:window-x="-8"
     inkscape:window-y="-8"
     inkscape:window-maximized="1" />
  <metadata
     id="metadata5">
    <rdf:RDF>
      <cc:Work
         rdf:about="">
        <dc:format>image/svg+xml</dc:format>
        <dc:type
           rdf:resource="http://purl.org/dc/dcmitype/StillImage" />
        <dc:title></dc:title>
      </cc:Work>
    </rdf:RDF>
  </metadata>
  <g
     inkscape:label="Layer 1"
     inkscape:groupmode="layer"
     id="layer1"
     transform="translate(0,-278.74376)">
    <g
       id="g10"
       transform="matrix(0.10587028,0,0,-0.10587028,0.4624521,296.80476)"
       style="stroke-width:3.33217001">
      <g
         id="g12"
         transform="scale(0.1)"
         style="stroke-width:3.33217001">
        <path
           d="m 1115.05,1568.86 c -223.468,120.4 -262.519,-128.74 -368.112,-163.13 -42.426,-13.84 -78.489,211.76 -216.274,90.22 -84.801,-104.39 -38.922,-2.88 -161.551,33.97 C 281.68,1556.2 265.785,1640.86 190.039,1663.9 42.1914,1708.88 -12.5625,1562.56 107.578,1491.05 264.641,1337.13 440.141,1258.64 449.031,1050.94 453.977,935.883 400.793,762.414 344.992,641.613 325.188,598.738 300.277,556.609 280.887,511.789 252.508,446.277 229.574,377.945 199.141,317.422 172.539,264.508 89.5508,167.203 98.1523,126.176 106.84,84.7188 250.512,-2.58594 287.277,68.2891 c 25.789,49.7309 68.848,120.7969 78.95,188.8399 3.937,26.625 50.054,62.922 70.074,92.934 34.933,52.406 74.195,168.515 157.215,196.57 19.175,6.469 65.355,41.211 119.711,1.055 83.718,-61.844 67.179,-115.422 135.992,-201.379 44.261,-55.27 16.078,-131.914 41.562,-147.317 22.446,-13.57 63.879,-40.265 102.617,-69.461 60.432,-45.5349 124.952,-88.5935 182.562,-31.6716 64.78,63.9846 20.45,140.4256 -66.31,211.4536 -13.48,21.601 -56.38,67.179 -69.19,91.363 -106.401,233.359 -150.226,405.211 -207.288,589.664 -37.567,121.37 62.297,281.97 184.578,372.42 116.66,86.3 165.59,177.85 97.3,206.1 z M 769.848,1226.13 c 19.386,11.25 45.519,32.27 66.754,60.16 11.234,14.71 20.48,44.25 34.117,59.8 14.082,16.1 32.043,19.64 48.062,34.64 25.621,23.98 50.688,67.13 74.824,88.2 15.405,13.44 23.075,21.28 39.605,27.14 19.99,7.06 53.88,13.06 52.01,20.87 -5.28,22.11 -75.42,-3.81 -90.45,-9.94 -16.95,-6.88 -34.891,18.26 -48.231,7.86 -7.098,-5.54 7.25,-28.64 1.473,-34.24 -34.242,-33.16 -66.574,-48.05 -98.391,-79.03 -14.801,-14.4 -36.656,-25.7 -49.074,-37.71 -24.16,-23.38 -40.395,-45.33 -56.625,-54.33 -10.301,-5.7 -25.684,-1.48 -44.742,-13.45 -10.676,-6.72 -27.828,-37.43 -32.938,-31.89 -5.554,6.08 -6.023,22.7 -2.101,44 1.058,5.79 11.121,2.84 11.152,13.83 0.027,13.6 -5.496,14.61 -5.301,18.96 1.082,21.89 -9.539,48.99 -18.707,63.8 -12.367,19.93 -25.066,30.86 -40.242,32.22 -5.273,0.47 -16.621,-4.43 -22.668,-6.75 -6.805,-2.63 -22.242,-0.19 -29.777,-4.73 -7.766,-4.71 -7.305,-14.13 -10.352,-23.67 -1.699,-5.37 -6.769,-7.85 -8.351,-12.36 -4.747,-13.64 -6.313,-31.22 -6.2,-46.4 0.055,-7.4 3.805,-15.9 1.438,-19.86 -4.051,-6.83 -10.774,-2.23 -19.254,1.26 -12.883,5.27 -26.699,12.24 -29.66,14.66 -28.856,23.69 -58.332,58.87 -95.016,84.48 -29.914,20.87 -62.957,44.85 -94.621,64.14 -26.23,15.97 -52.383,27.11 -67.16,45.19 -6.418,7.84 4.949,21.43 -1.746,27.93 -7.09,6.91 -17.309,-2.4 -26.629,-1.63 -18.692,1.58 -38.199,20.85 -61.867,31.06 -14.668,6.34 -42.4769,10.86 -45.5472,0.26 -1.9492,-6.76 39.4842,-15.26 83.7652,-54.83 33.27,-29.73 63.817,-71.13 96.165,-96.02 25.558,-19.66 51.578,-34.13 70.445,-54.05 28.461,-30.1 47.617,-67.4 70.832,-92.34 23.133,-24.86 44.676,-38.81 59.508,-63.15 13.507,-22.17 8.511,-45.66 18.355,-67.76 8.207,-18.47 22.578,-44.04 31.656,-73.1 6.645,-21.2 8.875,-46.01 11.641,-62.56 2.832,-16.84 0.227,-39.345 -4.496,-55.825 -2.82,-9.887 -9.805,-13.91 -12.602,-24.07 -1.511,-5.45 2.668,-13.719 1.008,-19.27 -2.043,-6.719 -7.808,-12.652 -9.18,-19.949 -1.285,-6.856 1.86,-15.102 -0.664,-21.649 -3.742,-9.836 -12.019,-6.714 -16.511,-16.871 -2.004,-4.59 -0.848,-11.258 -3.516,-16.699 -5.109,-10.387 -14.34,-20.305 -17.059,-30.746 -1.386,-5.305 2.606,-16.578 0.747,-21.809 -1.747,-4.867 -9.184,-2.168 -11.215,-7.047 -3.289,-7.914 0.593,-20.113 -2.067,-29.593 -4.453,-15.793 -15.164,-29.664 -20.144,-44.926 -3.129,-9.578 -5.801,-22.445 -10.094,-32.074 -2.402,-5.414 -7.125,-7.211 -8.391,-13.137 -0.8,-3.863 1.399,-10.277 0.34,-17.48 -3.211,-21.809 -17.293,-50.301 -26.359,-69.426 -7.188,-15.168 -13.719,-29.555 -24.524,-41.117 -9.539,-10.204 -20.265,-20.282 -28.898,-32.512 -26.145,-36.895 -39.754,-86.449 -52.516,-129.817 -7.664,-26.027 -22.32,-42.613 -24.179,-68.332 -1.098,-15.093 -25.825,-25.011 -28.828,-39.882 -3.286,-16.403 -8.7,-33.184 -17.946,-46.836 -29.504,-43.528 -56.379,-90.434 -4.113,-105.25 46.781,-13.254 35.789,16.254 48.996,50.558 4.941,12.774 16.766,27.332 22.707,43.942 3.574,9.957 2.094,21.449 6.297,30.5 3.516,7.574 10.789,14.57 12.441,23.957 1.575,8.824 -2.449,20.07 0.895,27.043 6.09,12.66 15.898,19.75 20.941,31.187 4.45,10.086 6.899,23.063 12.977,31.91 15.641,22.723 35.668,43.586 44.629,56.18 17.668,24.766 22.597,46.598 39.25,73.273 12.57,20.137 37.746,39.688 54.488,60.606 21.629,27.008 40.246,62.441 52.203,84.726 25.832,-4.589 53.137,-8.722 56.653,-6.214 7.816,5.55 38.5,90.207 54.722,91.218 9.434,0.59 21.094,-1.261 26.063,-10.781 13.207,-25.207 24.769,-72.719 32.691,-80.066 6.445,-6.012 45.317,1.125 57.539,2.23 4.863,-7.433 12.242,-11.797 16.891,-18.988 12.289,-19.031 21.453,-38.883 33.707,-57.066 14.324,-21.29 31.773,-40.915 46.883,-63.434 19.785,-29.488 20.238,-59.863 38.82,-84.547 5.629,-7.48 19.105,-14.238 27.992,-29.902 5.356,-9.395 8.004,-22.207 13.629,-33.098 7.082,-13.695 18.148,-26.09 21.594,-41.453 8.543,-37.926 -7.02,-57.973 5.726,-77.281 6.176,-9.34 49.933,-15.438 62.213,-28.809 9.77,-10.629 16.88,-27.887 29.01,-39.656 15.48,-15.035 36.97,-22.445 58.72,-10.305 24.93,13.926 21.13,56.129 -37.62,91.152 -8.28,4.922 -14.28,14.59 -23.9,19.918 -18.74,10.375 -22.42,32.461 -28.99,48.911 -3.03,7.57 -10.66,5.656 -13.67,12.429 -5.97,13.426 -5.39,31.293 -8.68,38.91 -5.848,13.543 -16.426,25.793 -20.008,40.11 -8.141,32.496 -20.418,61.297 -31.235,91.937 -10.758,30.469 -34.5,40.145 -44.586,70.899 -10.265,31.355 -20.363,65.539 -27.449,101.691 -1.324,6.68 0.25,15.004 -1.051,21.692 -3.176,16.011 -17.879,29.242 -21.476,44.753 -4.61,19.895 -9.133,42.493 -15.442,60.172 -4.672,13.133 -19.164,28.953 -24.609,42.848 -3.172,8.133 11.469,15.543 8.254,23.336 -22.344,54.383 -37.598,43.957 -50.668,63.598 -4.469,6.711 5.828,12.183 3.832,18.171 -1.973,5.981 -14.574,11.426 -17.113,16.848 -8.145,17.391 -4.235,96.252 4.011,149.472 5.051,32.65 11.145,54.57 11.825,88.93 0.203,9.97 -5.047,30.15 -5.047,32.15"
           style="fill:#231f20;fill-opacity:1;fill-rule:evenodd;stroke:none;stroke-width:3.33217001"
           id="path14"
           inkscape:connector-curvature="0" />
        <g
           id="g16"
           style="stroke-width:3.33217001">
          <g
             id="g18"
             clip-path="url(#clipPath22-9)"
             style="stroke-width:3.33217001">
            <path
               d="M 1954.65,1194.98 C 3042.81,891.234 3933.29,445.516 3943.18,199.652 3953.06,-46.207 3008.61,-85.9297 1920.45,217.824 832.289,521.574 11.8086,1053.96 1.93359,1299.82 c -2.15234,53.57 32.10161,91.24 107.03941,117.36 l 15.371,-13.01 C 66.1602,1387.68 43.875,1347.25 45.5586,1305.33 54.2461,1089.14 854.734,690.215 1822.65,420.031 2227.82,306.938 3502.36,52.4766 3602.91,336.117 c 72.38,204.196 -808.85,601.938 -1776.76,872.113 -217.28,60.65 -426.48,109.61 -620.54,146.65 l 2.01,15.79 c 230.24,-42.95 480.95,-101.42 747.03,-175.69"
               style="fill:url(#linearGradient28-5);fill-opacity:1;fill-rule:nonzero;stroke:none;stroke-width:3.33217001"
               id="path30"
               inkscape:connector-curvature="0" />
          </g>
        </g>
        <path
           d="m 3091.47,1266.06 h 813.61 l -27.45,-239.32 h -271.18 l -73.44,-638.22 h -271.15 l 73.36,638.22 h -271.18 z m -1869.11,0.24 h 271.22 l 224.39,-407.851 46.78,407.851 h 271.16 L 1935.3,388.52 H 1664.13 L 1439.3,793.082 1392.91,388.52 h -271.17 z m 1219.99,-239.56 -11.26,-103.646 501.09,-0.043 -21.96,-191.481 -501.06,0.024 -12.56,-103.727 h 542.41 L 2911.55,388.52 h -813.54 l 100.59,877.54 h 813.58 l -27.43,-239.32 h -542.4"
           style="fill:#ffffff;fill-opacity:1;fill-rule:evenodd;stroke:none;stroke-width:3.33217001"
           id="path32"
           inkscape:connector-curvature="0" />
        <g
           id="g34"
           transform="matrix(0,-1.00103,0.998975,0,0,0)"
           style="stroke-width:3.33217001">
          <path
             d="m -229.323,1652.88 152.1638,-44.45 v -50.41 l -98.3758,-26.69 98.3758,-26.82 v -50.41 l -152.1638,-44.04 v 49.91 l 100.685,23.26 -100.685,28.86 v 41.86 l 100.685,27.24 -100.685,22.94 z m 0,248.45 152.1638,-44.45 v -50.41 l -98.3758,-26.69 98.3758,-26.83 v -50.41 l -152.1638,-44.03 v 49.91 l 100.685,23.26 -100.685,28.86 v 41.85 l 100.685,27.25 -100.685,22.94 z m 0,248.45 152.1638,-44.45 v -50.41 l -98.3758,-26.69 98.3758,-26.83 v -50.41 l -152.1638,-44.03 v 49.91 l 100.685,23.26 -100.685,28.86 v 41.86 l 100.685,27.24 -100.685,22.94 z m 152.1638,69.37 v -47.96 H -130.39 v 47.96 z m 0,189.25 v -55.59 l -43.7518,-28.95 43.7518,-29.88 v -54.44 l -76.0818,56.01 -76.082,-55.04 v 55.59 l 42.92,28.49 -42.92,28.54 v 54.58 l 74.786,-55.09 z m 0,160.17 v -47.69 H -152.64 c -6.107,0 -12.257,-0.23 -18.36,-0.73 -6.057,-0.51 -10.599,-1.43 -13.459,-2.78 -3.427,-1.61 -5.885,-3.98 -7.403,-7.08 -1.487,-3.04 -2.22,-7.17 -2.22,-12.3 0,-3.89 0.745,-7.82 2.177,-11.79 1.428,-3.98 3.746,-8.24 6.888,-12.77 h 107.8578 v -47.41 H -229.323 v 47.41 h 16.787 c -6.564,7.77 -11.75,15.36 -15.445,22.71 -3.699,7.35 -5.553,15.49 -5.553,24.47 0,15.54 4.917,27.41 14.711,35.61 9.815,8.22 24.011,12.35 42.594,12.35 z m 4.0701,112.99 c 0,-28.72 -6.8446,-50.74 -20.5805,-66.05 -13.7364,-15.31 -33.3014,-22.98 -58.6934,-22.98 -24.838,0 -44.669,7.14 -59.478,21.41 -14.833,14.3 -22.247,34.22 -22.247,59.9 0,23.3 6.286,40.85 18.828,52.58 12.565,11.75 30.574,17.62 53.972,17.62 h 17.065 v -103.97 c 7.032,0.47 12.94,1.97 17.669,4.49 4.749,2.52 8.48,5.9 11.328,10.03 2.787,4.05 4.792,8.8 6.018,14.2 1.221,5.42 1.845,11.34 1.845,17.76 0,5.5 -0.624,10.96 -1.845,16.28 -1.226,5.31 -2.849,10.22 -4.812,14.62 -1.732,3.87 -3.574,7.49 -5.553,10.78 -1.994,3.32 -3.746,6.01 -5.268,8.09 v 4.99 h 39.171 c 1.5297,-3.88 2.9657,-7.44 4.2574,-10.63 1.2916,-3.19 2.5598,-7.66 3.9764,-13.23 1.3111,-5.15 2.4311,-10.46 3.192,-15.91 0.7609,-5.46 1.1551,-12.12 1.1551,-19.98 z m -99.7179,15.72 c -10.033,-0.27 -17.681,-2.58 -22.938,-6.98 -5.233,-4.38 -7.863,-11.1 -7.863,-20.12 0,-9.25 2.767,-16.44 8.277,-21.64 5.49,-5.2 13.045,-8.05 22.524,-8.61 z m 98.6096,129.41 c 0,-19.33 -3.992,-33.38 -11.933,-42.17 -7.9684,-8.83 -20.9516,-13.23 -38.9916,-13.23 h -71.134 v -18.18 h -33.067 v 18.18 h -58.854 v 47.4 h 58.854 v 45.7 h 33.067 v -45.7 h 53.882 c 5.362,0 9.99,0.05 13.97,0.14 3.977,0.09 7.52,0.89 10.685,2.18 3.168,1.29 5.693,3.51 7.539,6.7 1.85,3.19 2.774,7.87 2.774,14.02 0,2.54 -0.538,5.88 -1.619,9.99 -1.085,4.11 -2.084,6.98 -3.005,8.6 v 4.07 h 33.4855 c 1.3385,-5.13 2.4038,-10.64 3.1921,-16.42 0.7843,-5.78 1.155,-12.86 1.155,-21.28 z m -2.9618,107.81 v -47.97 H -130.39 v 47.97 z m 0,189.81 v -56.38 l -66.0458,-41.17 9.807,-7.3 h 56.2388 v -47.41 H -288.017 v 47.41 h 118.125 l -59.431,44.91 v 56 l 65.581,-53.23 z m 0,137.86 v -133.02 h -31.3078 l -85.198,72.62 v -69.38 h -35.658 v 128.3 h 30.757 l 85.1,-72.8 v 74.28 z"
             style="fill:none;stroke:#ffffff;stroke-width:144.28961182;stroke-linecap:round;stroke-linejoin:round;stroke-miterlimit:22.92560005;stroke-dasharray:none;stroke-opacity:1"
             id="path36"
             inkscape:connector-curvature="0" />
        </g>
        <path
           d="M 1651.18,229.559 1606.79,77.2383 h -50.37 l -26.66,98.4767 -26.8,-98.4767 h -50.35 l -43.99,152.3207 h 49.85 l 23.24,-100.789 28.83,100.789 h 41.82 l 27.21,-100.789 22.92,100.789 z m 248.2,0 -44.4,-152.3207 h -50.36 l -26.66,98.4767 -26.8,-98.4767 h -50.36 l -43.99,152.3207 h 49.85 l 23.25,-100.789 28.83,100.789 h 41.81 l 27.22,-100.789 22.91,100.789 z m 248.19,0 -44.4,-152.3207 h -50.36 l -26.66,98.4767 -26.8,-98.4767 h -50.36 L 1905,229.559 h 49.86 l 23.24,-100.789 28.83,100.789 h 41.82 l 27.21,-100.789 22.92,100.789 z m 69.31,-152.3207 h -47.92 v 53.2847 h 47.92 z m 189.05,0 h -55.54 l -28.92,43.7967 -29.84,-43.7967 h -54.39 l 55.96,76.1597 -54.99,76.161 h 55.54 l 28.46,-42.965 28.51,42.965 h 54.52 l -55.03,-74.864 z m 160,0 h -47.63 v 75.5587 c 0,6.113 -0.23,12.269 -0.74,18.379 -0.51,6.062 -1.43,10.609 -2.77,13.472 -1.61,3.43 -3.97,5.891 -7.07,7.411 -3.04,1.488 -7.17,2.222 -12.29,2.222 -3.88,0 -7.81,-0.746 -11.78,-2.179 -3.97,-1.43 -8.23,-3.75 -12.76,-6.895 V 77.2383 h -47.35 V 229.559 h 47.35 v -16.805 c 7.77,6.57 15.34,11.762 22.69,15.461 7.34,3.703 15.48,5.558 24.44,5.558 15.53,0 27.39,-4.921 35.58,-14.726 8.21,-9.824 12.33,-24.035 12.33,-42.637 z m 112.88,-4.0742 c -28.69,0 -50.69,6.8515 -65.98,20.6015 -15.29,13.7504 -22.96,33.3364 -22.96,58.7544 0,24.863 7.13,44.714 21.39,59.539 14.28,14.847 34.19,22.269 59.83,22.269 23.29,0 40.81,-6.293 52.54,-18.848 11.74,-12.578 17.6,-30.605 17.6,-54.027 v -17.082 h -103.87 c 0.47,-7.039 1.98,-12.953 4.49,-17.687 2.52,-4.754 5.89,-8.489 10.02,-11.34 4.04,-2.789 8.79,-4.797 14.19,-6.024 5.4,-1.222 11.32,-1.847 17.74,-1.847 5.49,0 10.95,0.625 16.26,1.847 5.31,1.227 10.21,2.852 14.6,4.817 3.87,1.734 7.48,3.578 10.77,5.558 3.32,1.996 6,3.75 8.09,5.274 h 4.98 V 85.7578 c -3.87,-1.5312 -7.44,-2.9687 -10.62,-4.2617 -3.19,-1.293 -7.65,-2.5625 -13.22,-3.9805 -5.14,-1.3125 -10.45,-2.4336 -15.89,-3.1953 -5.45,-0.7617 -12.11,-1.1562 -19.96,-1.1562 z m 15.71,99.8199 c -0.28,10.043 -2.58,17.7 -6.98,22.961 -4.37,5.239 -11.09,7.871 -20.1,7.871 -9.24,0 -16.42,-2.769 -21.62,-8.285 -5.19,-5.496 -8.04,-13.058 -8.59,-22.547 z M 2823.8,74.2734 c -19.32,0 -33.35,3.9961 -42.14,11.9454 -8.81,7.9765 -13.21,20.9722 -13.21,39.0312 v 71.207 h -18.16 v 33.102 h 18.16 v 58.914 h 47.35 v -58.914 h 45.65 V 196.457 H 2815.8 V 142.52 c 0,-5.368 0.05,-10 0.14,-13.985 0.09,-3.98 0.88,-7.527 2.17,-10.695 1.3,-3.172 3.52,-5.699 6.7,-7.547 3.19,-1.852 7.86,-2.777 14,-2.777 2.55,0 5.88,0.539 9.98,1.621 4.12,1.086 6.98,2.086 8.59,3.008 h 4.07 v -33.52 c -5.13,-1.3398 -10.63,-2.4062 -16.4,-3.1953 -5.78,-0.7852 -12.85,-1.1563 -21.25,-1.1563 z m 107.69,2.9649 h -47.92 v 53.2847 h 47.92 z m 189.62,0 h -56.33 l -41.12,66.1137 -7.3,-9.817 V 77.2383 H 2969 V 288.313 h 47.36 V 170.066 l 44.87,59.493 h 55.95 L 3064,163.91 Z m 137.71,0 h -132.87 v 31.3397 l 72.53,85.285 h -69.3 v 35.696 h 128.17 V 198.77 l -72.72,-85.188 h 74.19 V 77.2383"
           style="fill:#231f20;fill-opacity:1;fill-rule:nonzero;stroke:none;stroke-width:3.33217001"
           id="path38"
           inkscape:connector-curvature="0" />
        <path
           d="m 1243.02,1413.14 45.62,2.85 c 0.97,-7.4 3,-13.04 6.03,-16.94 4.91,-6.28 11.99,-9.39 21.17,-9.39 6.82,0 12.09,1.59 15.82,4.8 3.68,3.22 5.52,6.94 5.52,11.17 0,4 -1.73,7.62 -5.27,10.8 -3.54,3.17 -11.7,6.17 -24.56,8.99 -21.02,4.73 -36.01,10.98 -44.97,18.81 -9.03,7.84 -13.54,17.81 -13.54,29.95 0,7.98 2.3,15.53 6.93,22.61 4.62,7.08 11.56,12.64 20.84,16.72 9.28,4.05 22,6.07 38.14,6.07 19.83,0 34.96,-3.69 45.37,-11.05 10.4,-7.37 16.58,-19.11 18.56,-35.18 l -45.18,-2.64 c -1.2,6.97 -3.72,12.06 -7.59,15.24 -3.83,3.14 -9.14,4.73 -15.89,4.73 -5.6,0 -9.79,-1.15 -12.61,-3.54 -2.81,-2.34 -4.22,-5.23 -4.22,-8.63 0,-2.46 1.15,-4.66 3.47,-6.64 2.27,-2.06 7.62,-3.94 16.11,-5.71 20.94,-4.52 35.93,-9.1 45,-13.73 9.06,-4.62 15.68,-10.32 19.79,-17.19 4.12,-6.83 6.21,-14.48 6.21,-22.97 0,-9.93 -2.78,-19.11 -8.27,-27.48 -5.48,-8.42 -13.18,-14.78 -23.08,-19.11 -9.86,-4.34 -22.32,-6.5 -37.35,-6.5 -26.36,0 -44.64,5.05 -54.78,15.24 -10.19,10.15 -15.93,23.04 -17.27,38.72 z"
           style="fill:none;stroke:#ffffff;stroke-width:144.00639343;stroke-linecap:round;stroke-linejoin:round;stroke-miterlimit:22.92560005;stroke-dasharray:none;stroke-opacity:1"
           id="path40"
           inkscape:connector-curvature="0" />
        <path
           d="m 1392.22,1516.94 h 53.24 l 31.32,-52.37 31.31,52.37 h 52.92 l -60.32,-90.15 v -64.98 h -48.04 v 64.98 z"
           style="fill:none;stroke:#ffffff;stroke-width:144.00639343;stroke-linecap:round;stroke-linejoin:round;stroke-miterlimit:22.92560005;stroke-dasharray:none;stroke-opacity:1"
           id="path42"
           inkscape:connector-curvature="0" />
        <path
           d="m 1558.77,1413.14 45.62,2.85 c 0.97,-7.4 2.99,-13.04 6.03,-16.94 4.91,-6.28 11.99,-9.39 21.16,-9.39 6.83,0 12.1,1.59 15.82,4.8 3.69,3.22 5.53,6.94 5.53,11.17 0,4 -1.73,7.62 -5.27,10.8 -3.54,3.17 -11.71,6.17 -24.56,8.99 -21.03,4.73 -36.01,10.98 -44.97,18.81 -9.03,7.84 -13.54,17.81 -13.54,29.95 0,7.98 2.3,15.53 6.93,22.61 4.62,7.08 11.56,12.64 20.84,16.72 9.28,4.05 22,6.07 38.14,6.07 19.83,0 34.96,-3.69 45.36,-11.05 10.41,-7.37 16.59,-19.11 18.57,-35.18 l -45.18,-2.64 c -1.2,6.97 -3.73,12.06 -7.59,15.24 -3.83,3.14 -9.14,4.73 -15.89,4.73 -5.6,0 -9.79,-1.15 -12.61,-3.54 -2.81,-2.34 -4.22,-5.23 -4.22,-8.63 0,-2.46 1.15,-4.66 3.47,-6.64 2.27,-2.06 7.61,-3.94 16.11,-5.71 20.94,-4.52 35.93,-9.1 45,-13.73 9.06,-4.62 15.67,-10.32 19.79,-17.19 4.12,-6.83 6.21,-14.48 6.21,-22.97 0,-9.93 -2.78,-19.11 -8.27,-27.48 -5.49,-8.42 -13.18,-14.78 -23.08,-19.11 -9.86,-4.34 -22.32,-6.5 -37.35,-6.5 -26.36,0 -44.64,5.05 -54.78,15.24 -10.19,10.15 -15.93,23.04 -17.27,38.72 z"
           style="fill:none;stroke:#ffffff;stroke-width:144.00639343;stroke-linecap:round;stroke-linejoin:round;stroke-miterlimit:22.92560005;stroke-dasharray:none;stroke-opacity:1"
           id="path44"
           inkscape:connector-curvature="0" />
        <path
           d="m 1712.74,1516.94 h 145.7 v -38.32 h -48.9 v -116.81 h -47.93 v 116.81 h -48.87 z"
           style="fill:none;stroke:#ffffff;stroke-width:144.00639343;stroke-linecap:round;stroke-linejoin:round;stroke-miterlimit:22.92560005;stroke-dasharray:none;stroke-opacity:1"
           id="path46"
           inkscape:connector-curvature="0" />
        <path
           d="m 1880.04,1516.94 h 128.44 v -33.12 h -80.4 v -24.67 h 74.58 v -31.64 h -74.58 v -30.55 h 82.74 v -35.15 h -130.78 z"
           style="fill:none;stroke:#ffffff;stroke-width:144.00639343;stroke-linecap:round;stroke-linejoin:round;stroke-miterlimit:22.92560005;stroke-dasharray:none;stroke-opacity:1"
           id="path48"
           inkscape:connector-curvature="0" />
        <path
           d="m 2036.11,1516.94 h 63.06 l 24.35,-94.37 24.23,94.37 h 62.85 v -155.13 h -39.15 v 118.29 l -30.38,-118.29 h -35.43 l -30.27,118.29 v -118.29 h -39.26 z"
           style="fill:none;stroke:#ffffff;stroke-width:144.00639343;stroke-linecap:round;stroke-linejoin:round;stroke-miterlimit:22.92560005;stroke-dasharray:none;stroke-opacity:1"
           id="path50"
           inkscape:connector-curvature="0" />
        <path
           d="m 2315.34,1516.94 h 48.04 v -155.13 h -48.04 z"
           style="fill:none;stroke:#ffffff;stroke-width:144.00639343;stroke-linecap:round;stroke-linejoin:round;stroke-miterlimit:22.92560005;stroke-dasharray:none;stroke-opacity:1"
           id="path52"
           inkscape:connector-curvature="0" />
        <path
           d="m 2398.09,1516.94 h 44.79 l 58.4,-85.81 v 85.81 h 45.18 v -155.13 h -45.18 l -58.12,85.17 v -85.17 h -45.07 z"
           style="fill:none;stroke:#ffffff;stroke-width:144.00639343;stroke-linecap:round;stroke-linejoin:round;stroke-miterlimit:22.92560005;stroke-dasharray:none;stroke-opacity:1"
           id="path54"
           inkscape:connector-curvature="0" />
        <path
           d="m 2567.41,1516.94 h 145.7 v -38.32 h -48.9 v -116.81 h -47.93 v 116.81 h -48.87 z"
           style="fill:none;stroke:#ffffff;stroke-width:144.00639343;stroke-linecap:round;stroke-linejoin:round;stroke-miterlimit:22.92560005;stroke-dasharray:none;stroke-opacity:1"
           id="path56"
           inkscape:connector-curvature="0" />
        <path
           d="m 2734.71,1516.94 h 128.44 v -33.12 h -80.4 v -24.67 h 74.59 v -31.64 h -74.59 v -30.55 h 82.75 v -35.15 h -130.79 z"
           style="fill:none;stroke:#ffffff;stroke-width:144.00639343;stroke-linecap:round;stroke-linejoin:round;stroke-miterlimit:22.92560005;stroke-dasharray:none;stroke-opacity:1"
           id="path58"
           inkscape:connector-curvature="0" />
        <path
           d="m 2969.3,1418.01 v 32.26 h 74.04 v -66.14 c -14.15,-9.64 -26.69,-16.25 -37.59,-19.72 -10.91,-3.5 -23.84,-5.23 -38.8,-5.23 -18.42,0 -33.4,3.14 -45,9.42 -11.63,6.25 -20.62,15.61 -26.98,28.03 -6.39,12.42 -9.61,26.66 -9.61,42.73 0,16.94 3.5,31.68 10.48,44.21 7,12.5 17.23,21.99 30.7,28.5 10.51,5.02 24.66,7.51 42.44,7.51 17.12,0 29.94,-1.56 38.46,-4.66 8.49,-3.11 15.53,-7.91 21.17,-14.45 5.6,-6.5 9.82,-14.77 12.64,-24.81 l -46.23,-8.24 c -1.91,5.85 -5.17,10.33 -9.72,13.44 -4.51,3.1 -10.33,4.66 -17.37,4.66 -10.51,0 -18.89,-3.65 -25.14,-10.95 -6.25,-7.33 -9.39,-18.85 -9.39,-34.67 0,-16.79 3.18,-28.78 9.5,-35.97 6.28,-7.19 15.1,-10.8 26.4,-10.8 5.35,0 10.47,0.79 15.32,2.34 4.87,1.56 10.47,4.19 16.72,7.92 v 14.62 z"
           style="fill:none;stroke:#ffffff;stroke-width:144.00639343;stroke-linecap:round;stroke-linejoin:round;stroke-miterlimit:22.92560005;stroke-dasharray:none;stroke-opacity:1"
           id="path60"
           inkscape:connector-curvature="0" />
        <path
           d="m 3072.46,1361.81 v 155.13 h 79.89 c 14.81,0 26.15,-1.26 33.95,-3.83 7.84,-2.52 14.16,-7.22 18.97,-14.12 4.8,-6.86 7.18,-15.24 7.18,-25.1 0,-8.63 -1.84,-16.03 -5.49,-22.29 -3.68,-6.24 -8.74,-11.3 -15.13,-15.2 -4.12,-2.46 -9.72,-4.52 -16.83,-6.1 5.7,-1.92 9.86,-3.84 12.5,-5.75 1.73,-1.26 4.29,-3.97 7.65,-8.12 3.36,-4.2 5.6,-7.38 6.72,-9.65 l 23.19,-44.97 h -54.18 l -25.61,47.43 c -3.25,6.1 -6.14,10.11 -8.7,11.96 -3.43,2.38 -7.37,3.57 -11.74,3.57 h -4.23 v -62.96 z m 48.14,92.28 h 20.23 c 2.17,0 6.39,0.69 12.68,2.1 3.18,0.65 5.78,2.27 7.8,4.88 1.99,2.6 2.99,5.6 2.99,8.99 0,5.02 -1.58,8.85 -4.76,11.52 -3.18,2.71 -9.14,4.05 -17.88,4.05 h -21.06 z"
           style="fill:none;stroke:#ffffff;stroke-width:144.00639343;stroke-linecap:round;stroke-linejoin:round;stroke-miterlimit:22.92560005;stroke-dasharray:none;stroke-opacity:1"
           id="path62"
           inkscape:connector-curvature="0" />
        <path
           d="m 3335.83,1387.42 h -54.61 l -7.51,-25.61 h -48.98 l 58.3,155.13 h 52.26 l 58.33,-155.13 h -50.17 z m -10.04,33.56 -17.15,55.76 -17.05,-55.76 z"
           style="fill:none;stroke:#ffffff;stroke-width:144.00639343;stroke-linecap:round;stroke-linejoin:round;stroke-miterlimit:22.92560005;stroke-dasharray:none;stroke-opacity:1"
           id="path64"
           inkscape:connector-curvature="0" />
        <path
           d="m 3383.15,1516.94 h 145.7 v -38.32 h -48.9 v -116.81 h -47.93 v 116.81 h -48.87 z"
           style="fill:none;stroke:#ffffff;stroke-width:144.00639343;stroke-linecap:round;stroke-linejoin:round;stroke-miterlimit:22.92560005;stroke-dasharray:none;stroke-opacity:1"
           id="path66"
           inkscape:connector-curvature="0" />
        <path
           d="m 3537.09,1439.29 c 0,25.32 7.07,45.04 21.16,59.12 14.13,14.13 33.77,21.17 58.95,21.17 25.82,0 45.72,-6.94 59.7,-20.81 13.94,-13.83 20.95,-33.26 20.95,-58.22 0,-18.13 -3.07,-33.01 -9.17,-44.6 -6.11,-11.6 -14.92,-20.63 -26.45,-27.09 -11.55,-6.47 -25.89,-9.68 -43.12,-9.68 -17.48,0 -31.97,2.78 -43.45,8.34 -11.45,5.6 -20.73,14.41 -27.88,26.48 -7.12,12.06 -10.69,27.16 -10.69,45.29 z m 47.96,-0.22 c 0,-15.68 2.89,-26.91 8.71,-33.77 5.81,-6.83 13.76,-10.26 23.76,-10.26 10.3,0 18.28,3.36 23.91,10.05 5.64,6.71 8.49,18.74 8.49,36.08 0,14.62 -2.96,25.28 -8.85,32.03 -5.89,6.72 -13.87,10.08 -23.98,10.08 -9.64,0 -17.41,-3.4 -23.26,-10.26 -5.85,-6.82 -8.78,-18.16 -8.78,-33.95 z"
           style="fill:none;stroke:#ffffff;stroke-width:144.00639343;stroke-linecap:round;stroke-linejoin:round;stroke-miterlimit:22.92560005;stroke-dasharray:none;stroke-opacity:1"
           id="path68"
           inkscape:connector-curvature="0" />
        <path
           d="m 3724.29,1361.81 v 155.13 h 79.89 c 14.81,0 26.15,-1.26 33.95,-3.83 7.84,-2.52 14.16,-7.22 18.97,-14.12 4.8,-6.86 7.19,-15.24 7.19,-25.1 0,-8.63 -1.84,-16.03 -5.49,-22.29 -3.69,-6.24 -8.75,-11.3 -15.14,-15.2 -4.12,-2.46 -9.71,-4.52 -16.83,-6.1 5.71,-1.92 9.86,-3.84 12.5,-5.75 1.73,-1.26 4.3,-3.97 7.65,-8.12 3.36,-4.2 5.6,-7.38 6.72,-9.65 l 23.19,-44.97 h -54.18 l -25.6,47.43 c -3.25,6.1 -6.15,10.11 -8.71,11.96 -3.43,2.38 -7.37,3.57 -11.74,3.57 h -4.22 v -62.96 z m 48.15,92.28 h 20.22 c 2.17,0 6.39,0.69 12.68,2.1 3.18,0.65 5.78,2.27 7.8,4.88 1.99,2.6 3,5.6 3,8.99 0,5.02 -1.59,8.85 -4.77,11.52 -3.18,2.71 -9.14,4.05 -17.88,4.05 h -21.05 z"
           style="fill:none;stroke:#ffffff;stroke-width:144.00639343;stroke-linecap:round;stroke-linejoin:round;stroke-miterlimit:22.92560005;stroke-dasharray:none;stroke-opacity:1"
           id="path70"
           inkscape:connector-curvature="0" />
        <path
           d="m 1243.02,1413.14 45.62,2.85 c 0.97,-7.4 3,-13.04 6.03,-16.94 4.91,-6.28 11.99,-9.39 21.17,-9.39 6.82,0 12.09,1.59 15.82,4.8 3.68,3.22 5.52,6.94 5.52,11.17 0,4 -1.73,7.62 -5.27,10.8 -3.54,3.17 -11.7,6.17 -24.56,8.99 -21.02,4.73 -36.01,10.98 -44.97,18.81 -9.03,7.84 -13.54,17.81 -13.54,29.95 0,7.98 2.3,15.53 6.93,22.61 4.62,7.08 11.56,12.64 20.84,16.72 9.28,4.05 22,6.07 38.14,6.07 19.83,0 34.96,-3.69 45.37,-11.05 10.4,-7.37 16.58,-19.11 18.56,-35.18 l -45.18,-2.64 c -1.2,6.97 -3.72,12.06 -7.59,15.24 -3.83,3.14 -9.14,4.73 -15.89,4.73 -5.6,0 -9.79,-1.15 -12.61,-3.54 -2.81,-2.34 -4.22,-5.23 -4.22,-8.63 0,-2.46 1.15,-4.66 3.47,-6.64 2.27,-2.06 7.62,-3.94 16.11,-5.71 20.94,-4.52 35.93,-9.1 45,-13.73 9.06,-4.62 15.68,-10.32 19.79,-17.19 4.12,-6.83 6.21,-14.48 6.21,-22.97 0,-9.93 -2.78,-19.11 -8.27,-27.48 -5.48,-8.42 -13.18,-14.78 -23.08,-19.11 -9.86,-4.34 -22.32,-6.5 -37.35,-6.5 -26.36,0 -44.64,5.05 -54.78,15.24 -10.19,10.15 -15.93,23.04 -17.27,38.72"
           style="fill:#231f20;fill-opacity:1;fill-rule:nonzero;stroke:none;stroke-width:3.33217001"
           id="path72"
           inkscape:connector-curvature="0" />
        <path
           d="m 1392.22,1516.94 h 53.24 l 31.32,-52.37 31.31,52.37 h 52.92 l -60.32,-90.15 v -64.98 h -48.04 v 64.98 l -60.43,90.15"
           style="fill:#231f20;fill-opacity:1;fill-rule:nonzero;stroke:none;stroke-width:3.33217001"
           id="path74"
           inkscape:connector-curvature="0" />
        <path
           d="m 1558.77,1413.14 45.62,2.85 c 0.97,-7.4 2.99,-13.04 6.03,-16.94 4.91,-6.28 11.99,-9.39 21.16,-9.39 6.83,0 12.1,1.59 15.82,4.8 3.69,3.22 5.53,6.94 5.53,11.17 0,4 -1.73,7.62 -5.27,10.8 -3.54,3.17 -11.71,6.17 -24.56,8.99 -21.03,4.73 -36.01,10.98 -44.97,18.81 -9.03,7.84 -13.54,17.81 -13.54,29.95 0,7.98 2.3,15.53 6.93,22.61 4.62,7.08 11.56,12.64 20.84,16.72 9.28,4.05 22,6.07 38.14,6.07 19.83,0 34.96,-3.69 45.36,-11.05 10.41,-7.37 16.59,-19.11 18.57,-35.18 l -45.18,-2.64 c -1.2,6.97 -3.73,12.06 -7.59,15.24 -3.83,3.14 -9.14,4.73 -15.89,4.73 -5.6,0 -9.79,-1.15 -12.61,-3.54 -2.81,-2.34 -4.22,-5.23 -4.22,-8.63 0,-2.46 1.15,-4.66 3.47,-6.64 2.27,-2.06 7.61,-3.94 16.11,-5.71 20.94,-4.52 35.93,-9.1 45,-13.73 9.06,-4.62 15.67,-10.32 19.79,-17.19 4.12,-6.83 6.21,-14.48 6.21,-22.97 0,-9.93 -2.78,-19.11 -8.27,-27.48 -5.49,-8.42 -13.18,-14.78 -23.08,-19.11 -9.86,-4.34 -22.32,-6.5 -37.35,-6.5 -26.36,0 -44.64,5.05 -54.78,15.24 -10.19,10.15 -15.93,23.04 -17.27,38.72"
           style="fill:#231f20;fill-opacity:1;fill-rule:nonzero;stroke:none;stroke-width:3.33217001"
           id="path76"
           inkscape:connector-curvature="0" />
        <path
           d="m 1712.74,1516.94 h 145.7 v -38.32 h -48.9 v -116.81 h -47.93 v 116.81 h -48.87 v 38.32"
           style="fill:#231f20;fill-opacity:1;fill-rule:nonzero;stroke:none;stroke-width:3.33217001"
           id="path78"
           inkscape:connector-curvature="0" />
        <path
           d="m 1880.04,1516.94 h 128.44 v -33.12 h -80.4 v -24.67 h 74.58 v -31.64 h -74.58 v -30.55 h 82.74 v -35.15 h -130.78 v 155.13"
           style="fill:#231f20;fill-opacity:1;fill-rule:nonzero;stroke:none;stroke-width:3.33217001"
           id="path80"
           inkscape:connector-curvature="0" />
        <path
           d="m 2036.11,1516.94 h 63.06 l 24.35,-94.37 24.23,94.37 h 62.85 v -155.13 h -39.15 v 118.29 l -30.38,-118.29 h -35.43 l -30.27,118.29 v -118.29 h -39.26 v 155.13"
           style="fill:#231f20;fill-opacity:1;fill-rule:nonzero;stroke:none;stroke-width:3.33217001"
           id="path82"
           inkscape:connector-curvature="0" />
        <path
           d="m 2315.34,1516.94 h 48.04 v -155.13 h -48.04 v 155.13"
           style="fill:#231f20;fill-opacity:1;fill-rule:nonzero;stroke:none;stroke-width:3.33217001"
           id="path84"
           inkscape:connector-curvature="0" />
        <path
           d="m 2398.09,1516.94 h 44.79 l 58.4,-85.81 v 85.81 h 45.18 v -155.13 h -45.18 l -58.12,85.17 v -85.17 h -45.07 v 155.13"
           style="fill:#231f20;fill-opacity:1;fill-rule:nonzero;stroke:none;stroke-width:3.33217001"
           id="path86"
           inkscape:connector-curvature="0" />
        <path
           d="m 2567.41,1516.94 h 145.7 v -38.32 h -48.9 v -116.81 h -47.93 v 116.81 h -48.87 v 38.32"
           style="fill:#231f20;fill-opacity:1;fill-rule:nonzero;stroke:none;stroke-width:3.33217001"
           id="path88"
           inkscape:connector-curvature="0" />
        <path
           d="m 2734.71,1516.94 h 128.44 v -33.12 h -80.4 v -24.67 h 74.59 v -31.64 h -74.59 v -30.55 h 82.75 v -35.15 h -130.79 v 155.13"
           style="fill:#231f20;fill-opacity:1;fill-rule:nonzero;stroke:none;stroke-width:3.33217001"
           id="path90"
           inkscape:connector-curvature="0" />
        <path
           d="m 2969.3,1418.01 v 32.26 h 74.04 v -66.14 c -14.15,-9.64 -26.69,-16.25 -37.59,-19.72 -10.91,-3.5 -23.84,-5.23 -38.8,-5.23 -18.42,0 -33.4,3.14 -45,9.42 -11.63,6.25 -20.62,15.61 -26.98,28.03 -6.39,12.42 -9.61,26.66 -9.61,42.73 0,16.94 3.5,31.68 10.48,44.21 7,12.5 17.23,21.99 30.7,28.5 10.51,5.02 24.66,7.51 42.44,7.51 17.12,0 29.94,-1.56 38.46,-4.66 8.49,-3.11 15.53,-7.91 21.17,-14.45 5.6,-6.5 9.82,-14.77 12.64,-24.81 l -46.23,-8.24 c -1.91,5.85 -5.17,10.33 -9.72,13.44 -4.51,3.1 -10.33,4.66 -17.37,4.66 -10.51,0 -18.89,-3.65 -25.14,-10.95 -6.25,-7.33 -9.39,-18.85 -9.39,-34.67 0,-16.79 3.18,-28.78 9.5,-35.97 6.28,-7.19 15.1,-10.8 26.4,-10.8 5.35,0 10.47,0.79 15.32,2.34 4.87,1.56 10.47,4.19 16.72,7.92 v 14.62 h -32.04"
           style="fill:#231f20;fill-opacity:1;fill-rule:nonzero;stroke:none;stroke-width:3.33217001"
           id="path92"
           inkscape:connector-curvature="0" />
        <path
           d="m 3072.46,1361.81 v 155.13 h 79.89 c 14.81,0 26.15,-1.26 33.95,-3.83 7.84,-2.52 14.16,-7.22 18.97,-14.12 4.8,-6.86 7.18,-15.24 7.18,-25.1 0,-8.63 -1.84,-16.03 -5.49,-22.29 -3.68,-6.24 -8.74,-11.3 -15.13,-15.2 -4.12,-2.46 -9.72,-4.52 -16.83,-6.1 5.7,-1.92 9.86,-3.84 12.5,-5.75 1.73,-1.26 4.29,-3.97 7.65,-8.12 3.36,-4.2 5.6,-7.38 6.72,-9.65 l 23.19,-44.97 h -54.18 l -25.61,47.43 c -3.25,6.1 -6.14,10.11 -8.7,11.96 -3.43,2.38 -7.37,3.57 -11.74,3.57 h -4.23 v -62.96 z m 48.14,92.28 h 20.23 c 2.17,0 6.39,0.69 12.68,2.1 3.18,0.65 5.78,2.27 7.8,4.88 1.99,2.6 2.99,5.6 2.99,8.99 0,5.02 -1.58,8.85 -4.76,11.52 -3.18,2.71 -9.14,4.05 -17.88,4.05 h -21.06 v -31.54"
           style="fill:#231f20;fill-opacity:1;fill-rule:nonzero;stroke:none;stroke-width:3.33217001"
           id="path94"
           inkscape:connector-curvature="0" />
        <path
           d="m 3335.83,1387.42 h -54.61 l -7.51,-25.61 h -48.98 l 58.3,155.13 h 52.26 l 58.33,-155.13 h -50.17 z m -10.04,33.56 -17.15,55.76 -17.05,-55.76 z"
           style="fill:#231f20;fill-opacity:1;fill-rule:nonzero;stroke:none;stroke-width:3.33217001"
           id="path96"
           inkscape:connector-curvature="0" />
        <path
           d="m 3383.15,1516.94 h 145.7 v -38.32 h -48.9 v -116.81 h -47.93 v 116.81 h -48.87 v 38.32"
           style="fill:#231f20;fill-opacity:1;fill-rule:nonzero;stroke:none;stroke-width:3.33217001"
           id="path98"
           inkscape:connector-curvature="0" />
        <path
           d="m 3537.09,1439.29 c 0,25.32 7.07,45.04 21.16,59.12 14.13,14.13 33.77,21.17 58.95,21.17 25.82,0 45.72,-6.94 59.7,-20.81 13.94,-13.83 20.95,-33.26 20.95,-58.22 0,-18.13 -3.07,-33.01 -9.17,-44.6 -6.11,-11.6 -14.92,-20.63 -26.45,-27.09 -11.55,-6.47 -25.89,-9.68 -43.12,-9.68 -17.48,0 -31.97,2.78 -43.45,8.34 -11.45,5.6 -20.73,14.41 -27.88,26.48 -7.12,12.06 -10.69,27.16 -10.69,45.29 z m 47.96,-0.22 c 0,-15.68 2.89,-26.91 8.71,-33.77 5.81,-6.83 13.76,-10.26 23.76,-10.26 10.3,0 18.28,3.36 23.91,10.05 5.64,6.71 8.49,18.74 8.49,36.08 0,14.62 -2.96,25.28 -8.85,32.03 -5.89,6.72 -13.87,10.08 -23.98,10.08 -9.64,0 -17.41,-3.4 -23.26,-10.26 -5.85,-6.82 -8.78,-18.16 -8.78,-33.95"
           style="fill:#231f20;fill-opacity:1;fill-rule:nonzero;stroke:none;stroke-width:3.33217001"
           id="path100"
           inkscape:connector-curvature="0" />
        <path
           d="m 3724.29,1361.81 v 155.13 h 79.89 c 14.81,0 26.15,-1.26 33.95,-3.83 7.84,-2.52 14.16,-7.22 18.97,-14.12 4.8,-6.86 7.19,-15.24 7.19,-25.1 0,-8.63 -1.84,-16.03 -5.49,-22.29 -3.69,-6.24 -8.75,-11.3 -15.14,-15.2 -4.12,-2.46 -9.71,-4.52 -16.83,-6.1 5.71,-1.92 9.86,-3.84 12.5,-5.75 1.73,-1.26 4.3,-3.97 7.65,-8.12 3.36,-4.2 5.6,-7.38 6.72,-9.65 l 23.19,-44.97 h -54.18 l -25.6,47.43 c -3.25,6.1 -6.15,10.11 -8.71,11.96 -3.43,2.38 -7.37,3.57 -11.74,3.57 h -4.22 v -62.96 z m 48.15,92.28 h 20.22 c 2.17,0 6.39,0.69 12.68,2.1 3.18,0.65 5.78,2.27 7.8,4.88 1.99,2.6 3,5.6 3,8.99 0,5.02 -1.59,8.85 -4.77,11.52 -3.18,2.71 -9.14,4.05 -17.88,4.05 h -21.05 v -31.54"
           style="fill:#231f20;fill-opacity:1;fill-rule:nonzero;stroke:none;stroke-width:3.33217001"
           id="path102"
           inkscape:connector-curvature="0" />
        <path
           d="m 3091.47,1266.06 h 813.61 l -27.45,-239.32 h -271.18 l -73.44,-638.22 h -271.15 l 73.36,638.22 h -271.18 z m -1869.11,0.24 h 271.22 l 224.39,-407.851 46.78,407.851 h 271.16 L 1935.3,388.52 H 1664.13 L 1439.3,793.082 1392.91,388.52 h -271.17 z m -58.4,-819.476 0.02,0.035 v 0.079 l 88.82,775.582 c 0.61,5.36 4.07,8.6 8.43,8.61 l -0.01,0.03 200.62,-0.12 c 4.82,0.01 9.77,-3.85 12.49,-9.21 l 265.47,-487.65 55.98,488.24 c 0.61,5.37 4.07,8.6 8.43,8.62 l -0.01,0.03 169.6,0.05 c 6.15,0.01 12.5,-6.24 14.16,-13.96 0.42,-1.93 0.51,-3.77 0.31,-5.44 v -0.04 l -0.05,-0.45 -88.41,-774.593 c -0.63,-5.727 -4.46,-9.067 -9.22,-8.668 h -196.46 c -4.64,-0.008 -9.37,3.535 -12.15,8.586 v 0 l -267.66,485.383 -55.41,-485.875 c -0.64,-5.727 -4.47,-9.075 -9.23,-8.668 l -171.25,0.121 c -6.15,-0.008 -12.5,6.242 -14.17,13.961 -0.42,1.898 -0.48,3.687 -0.3,5.347 z m 110.73,756.376 -85.63,-747.747 147.89,-0.098 57.97,508.227 0.01,-0.008 c 0.37,3.309 1.86,6.11 4.38,7.594 5.04,2.973 12.31,-0.383 16.21,-7.504 l 279.99,-507.742 h 182.35 l 85.28,747.238 -145.47,-0.05 -58.47,-509.985 c -0.19,-3.723 -1.75,-6.879 -4.54,-8.477 -5.06,-2.918 -12.32,0.497 -16.18,7.641 L 1460.4,1203.09 Z m 1167.66,-176.46 -11.26,-103.646 501.09,-0.043 -21.96,-191.481 -501.06,0.024 -12.56,-103.727 h 542.41 L 2911.55,388.52 h -813.54 l 100.59,877.54 h 813.58 l -27.43,-239.32 z m -204.95,204.28 h 718.38 c 6.17,0.02 12.54,-6.23 14.22,-13.95 0.48,-2.23 0.55,-4.35 0.21,-6.23 l -15.92,-136.41 c -0.66,-5.71 -4.51,-9.04 -9.28,-8.61 h -534.55 l -19.29,-174.789 h 481.19 c 6.16,0.02 12.53,-6.226 14.21,-13.945 0.48,-2.234 0.55,-4.356 0.22,-6.234 l -10.8,-92.813 c -0.66,-5.715 -4.51,-9.047 -9.27,-8.617 h -489.87 l -21.86,-182.426 h 527.06 c 6.17,0.016 12.54,-6.226 14.22,-13.945 0.48,-2.227 0.56,-4.356 0.22,-6.227 l -15.15,-130.699 c -0.66,-5.715 -4.51,-9.043 -9.28,-8.617 h -717.87 c -6.17,-0.016 -12.53,6.226 -14.22,13.945 -0.41,1.914 -0.49,3.735 -0.29,5.402 l -0.02,0.004 89.2,775.541 c 0.62,5.41 4.12,8.65 8.54,8.62 z m 707.69,-27.97 h -694.26 l -85.98,-747.573 h 694.53 l 12,103.55 h -526.33 c -1.67,-0.152 -3.54,0.2 -5.42,1.09 -6.34,3.004 -10.77,11.211 -9.91,18.332 l 25.21,210.395 0.01,-0.008 c 0.62,5.004 3.8,8.547 8.41,8.555 h 490.68 l 7.64,65.675 h -480.33 c -1.62,-0.148 -3.41,0.188 -5.23,1.028 -6.34,2.918 -10.85,11.094 -10.06,18.246 l 22.38,202.75 h 0.02 c 0.57,5.08 3.76,8.68 8.42,8.7 h 535.46 z m 187.46,28.04 h 719.76 c 6.16,0.02 12.53,-6.22 14.21,-13.94 0.52,-2.35 0.55,-4.58 0.16,-6.53 l -15.48,-136.13 c -0.6,-5.38 -4.03,-8.64 -8.41,-8.66 v -0.01 h -274.34 l -71.71,-629.718 c -0.6,-5.375 -4.03,-8.637 -8.41,-8.653 v -0.015 h -167.85 c -6.17,-0.016 -12.53,6.226 -14.21,13.945 -0.42,1.914 -0.49,3.73 -0.31,5.394 l -0.01,0.012 71.3,619.035 h -254.46 c -6.16,-0.02 -12.53,6.22 -14.22,13.94 -0.41,1.92 -0.49,3.74 -0.29,5.4 l -0.02,0.01 15.75,137.31 c 0.62,5.4 4.13,8.65 8.54,8.61 z m 709.15,-27.96 h -695.72 l -12.54,-109.34 h 254.36 c 1.47,0.02 3.04,-0.31 4.66,-1.06 6.34,-2.97 10.81,-11.16 9.99,-18.3 l -71.31,-619.028 h 143.68 l 71.66,629.288 c 0.45,5.29 3.68,9.08 8.46,9.1 h 274.33 l 12.43,109.34"
           style="fill:#000000;fill-opacity:1;fill-rule:evenodd;stroke:none;stroke-width:3.33217001"
           id="path104"
           inkscape:connector-curvature="0" />
      </g>
    </g>
  </g>
</svg>
