<?xml version="1.0" encoding="UTF-8" standalone="no"?>
<!-- Created with Inkscape (http://www.inkscape.org/) -->

<svg
   xmlns:dc="http://purl.org/dc/elements/1.1/"
   xmlns:cc="http://creativecommons.org/ns#"
   xmlns:rdf="http://www.w3.org/1999/02/22-rdf-syntax-ns#"
   xmlns:svg="http://www.w3.org/2000/svg"
   xmlns="http://www.w3.org/2000/svg"
   xmlns:sodipodi="http://sodipodi.sourceforge.net/DTD/sodipodi-0.dtd"
   xmlns:inkscape="http://www.inkscape.org/namespaces/inkscape"
   width="16.5mm"
   height="16.5mm"
   viewBox="0 0 16.5 16.5"
   version="1.1"
   id="svg8"
   sodipodi:docname="1.svg"
   inkscape:version="0.92.3 (2405546, 2018-03-11)">
  <defs
     id="defs2" />
  <sodipodi:namedview
     id="base"
     pagecolor="#ffffff"
     bordercolor="#666666"
     borderopacity="1.0"
     inkscape:pageopacity="0.0"
     inkscape:pageshadow="2"
     inkscape:zoom="1.4"
     inkscape:cx="107.73613"
     inkscape:cy="25.298186"
     inkscape:document-units="mm"
     inkscape:current-layer="layer1"
     showgrid="false"
     height="29mm"
     inkscape:window-width="1366"
     inkscape:window-height="705"
     inkscape:window-x="-8"
     inkscape:window-y="-8"
     inkscape:window-maximized="1" />
  <metadata
     id="metadata5">
    <rdf:RDF>
      <cc:Work
         rdf:about="">
        <dc:format>image/svg+xml</dc:format>
        <dc:type
           rdf:resource="http://purl.org/dc/dcmitype/StillImage" />
        <dc:title></dc:title>
      </cc:Work>
    </rdf:RDF>
  </metadata>
  <g
     inkscape:label="Layer 1"
     inkscape:groupmode="layer"
     id="layer1"
     transform="translate(0,-280.5)">
    <g
       id="g5136"
       transform="matrix(0.26458333,0,0,0.26458333,0.37798631,282.97711)"
       style="fill:#f95110;fill-opacity:1">
      <path
         id="path5134"
         d="m 55.931931,17.419734 c 0,0 -1.223946,-1.295953 -1.223946,-1.295953 0,0 -4.295998,-11.5800302 -4.295998,-11.5800302 -0.732078,-1.955801 -2.603988,-3.2517537 -4.692077,-3.2637723 0,0 -30.684014,0 -30.684014,0 -2.087974,0 -3.959999,1.3079713 -4.691963,3.2637723 0,0 -4.2360305,11.4361012 -4.2360305,11.4361012 0,0 -1.7639923,1.631886 -1.7639923,1.631886 -1.5359115,1.307971 -2.4239731,3.228009 -2.4239731,5.244196 0,0 0,16.872009 0,16.872009 0.012016,2.759872 2.2559738,4.991806 5.0160599,4.991806 0,0 3.167954,0 3.167954,0 2.759971,0 5.004043,-2.231934 5.015945,-4.991806 0,0 0,-2.447976 0,-2.447976 0,0 29.760017,0 29.760017,0 0,0 0,2.447976 0,2.447976 0.01202,2.759872 2.255974,4.991806 5.01606,4.991806 0,0 3.167954,0 3.167954,0 2.759971,0 5.004043,-2.231934 5.01606,-4.991806 0,0 0,-17.316109 0,-17.316109 -0.01202,-1.883983 -0.78003,-3.683836 -2.148056,-4.9921 z M 12.599907,5.3598404 c 0.384064,-1.020112 1.35601,-1.6799604 2.435989,-1.6799604 0,0 30.69603,0 30.69603,0 1.079979,0 2.05204,0.6718669 2.435989,1.6799604 0,0 3.744049,10.0800556 3.744049,10.0800556 0,0 -2.79602,0 -2.79602,0 -0.659981,-4.499926 -4.847946,-7.6080427 -9.347992,-6.9361758 -3.588066,0.5282304 -6.408005,3.3481948 -6.936035,6.9361758 0,0 -23.9759447,0 -23.9759447,0 0,0 3.7439347,-10.0800556 3.7439347,-10.0800556 z M 46.667938,15.439896 c 0,0 -11.412048,0 -11.412048,0 0.660095,-3.155899 3.756065,-5.172086 6.912002,-4.511944 2.256089,0.479863 4.020081,2.243953 4.500046,4.511944 z M 12.719955,39.727943 c -0.01202,1.439882 -1.175994,2.591905 -2.616004,2.591905 0,0 -3.167954,0 -3.167954,0 -1.4400101,0 -2.6041031,-1.152023 -2.6160049,-2.591905 0,0 0,-3.144173 0,-3.144173 0.7199478,0.468137 1.6679763,0.696197 2.6160049,0.696197 0,0 5.783958,0 5.783958,0 0,0 0,2.447976 0,2.447976 z m 42.959977,0 c -0.01202,1.439882 -1.175995,2.591905 -2.616005,2.591905 0,0 -3.167954,0 -3.167954,0 -1.44001,0 -2.603988,-1.164042 -2.616005,-2.591905 0,0 0,-2.447976 0,-2.447976 0,0 5.783959,0 5.783959,0 0.948028,0 1.896057,-0.22806 2.616005,-0.696197 0,0 0,3.144173 0,3.144173 0,0 0,0 0,0 z m -2.616005,-4.848171 c 0,0 -46.12793,0 -46.12793,0 -1.4281082,0.01202 -2.6041031,-1.127986 -2.6160049,-2.567868 0,0 0,-9.45597 0,-9.45597 0,-1.319989 0.5879974,-2.58018 1.595993,-3.432032 0.011902,-0.01202 0.035934,-0.03605 0.047951,-0.04807 0,0 1.6320419,-1.536031 1.6320419,-1.536031 0,0 45.443916,0 45.443916,0 0,0 1.152077,1.236153 1.152077,1.236153 0.01202,0.02404 0.04795,0.03576 0.05997,0.0598 0.899963,0.852145 1.415977,2.040224 1.415977,3.276084 0,0 0,9.90007 0,9.90007 0,0 0.01202,0 0.01202,0 -0.01202,1.427864 -1.188012,2.579887 -2.616005,2.567868 z M 17.759933,22.639893 c 0,0 -8.9999766,0 -8.9999766,0 -0.6599808,0 -1.2000275,0.539956 -1.2000275,1.200098 0,0 0,6.239978 0,6.239978 0,0.659849 0.5400467,1.199804 1.2000275,1.199804 0,0 8.9999766,0 8.9999766,0 0.659981,0 1.200028,-0.539955 1.200028,-1.199804 0,0 0,-6.239978 0,-6.239978 0,-0.660142 -0.540047,-1.200098 -1.200028,-1.200098 z m -1.200027,6.239979 c 0,0 -6.5999222,0 -6.5999222,0 0,0 0,-3.840077 0,-3.840077 0,0 6.5999222,0 6.5999222,0 0,0 0,3.840077 0,3.840077 z m 34.680061,-6.239979 c 0,0 -8.999977,0 -8.999977,0 -0.660095,0 -1.200027,0.539956 -1.200027,1.200098 0,0 0,6.239978 0,6.239978 0,0.659849 0.539932,1.199804 1.200027,1.199804 0,0 8.999977,0 8.999977,0 0.659981,0 1.200028,-0.539955 1.200028,-1.199804 0,0 0,-6.239978 0,-6.239978 0,-0.660142 -0.540047,-1.200098 -1.200028,-1.200098 z m -1.200027,6.239979 c 0,0 -6.600037,0 -6.600037,0 0,0 0,-3.840077 0,-3.840077 0,0 6.600037,0 6.600037,0 0,0 0,3.840077 0,3.840077 z M 35.795937,27.679775 c 0,0 -11.59195,0 -11.59195,0 -0.660095,0 -1.200027,0.539955 -1.200027,1.200097 0,0.659848 0.539932,1.200097 1.200027,1.200097 0,0 11.59195,0 11.59195,0 0.65998,0 1.200027,-0.540249 1.200027,-1.200097 0,-0.660142 -0.540047,-1.200097 -1.200027,-1.200097 z m 0,-3.719892 c 0,0 -11.59195,0 -11.59195,0 -0.660095,0 -1.200027,0.539956 -1.200027,1.200098 0,0.659848 0.539932,1.199804 1.200027,1.199804 0,0 11.59195,0 11.59195,0 0.65998,0 1.200027,-0.539956 1.200027,-1.199804 0,-0.660142 -0.540047,-1.200098 -1.200027,-1.200098 z"
         inkscape:connector-curvature="0"
         style="fill:#f95110;fill-rule:evenodd;stroke:none;paint-order:stroke fill markers;fill-opacity:1" />
    </g>
  </g>
</svg>
