<?xml version="1.0" encoding="UTF-8" standalone="no"?>
<!-- Created with Inkscape (http://www.inkscape.org/) -->

<svg
   xmlns:dc="http://purl.org/dc/elements/1.1/"
   xmlns:cc="http://creativecommons.org/ns#"
   xmlns:rdf="http://www.w3.org/1999/02/22-rdf-syntax-ns#"
   xmlns:svg="http://www.w3.org/2000/svg"
   xmlns="http://www.w3.org/2000/svg"
   xmlns:sodipodi="http://sodipodi.sourceforge.net/DTD/sodipodi-0.dtd"
   xmlns:inkscape="http://www.inkscape.org/namespaces/inkscape"
   width="16.5mm"
   height="16.5mm"
   viewBox="0 0 16.5 16.5"
   version="1.1"
   id="svg8"
   sodipodi:docname="2.svg"
   inkscape:version="0.92.3 (2405546, 2018-03-11)">
  <defs
     id="defs2" />
  <sodipodi:namedview
     id="base"
     pagecolor="#ffffff"
     bordercolor="#666666"
     borderopacity="1.0"
     inkscape:pageopacity="0.0"
     inkscape:pageshadow="2"
     inkscape:zoom="1.4"
     inkscape:cx="107.73613"
     inkscape:cy="25.298186"
     inkscape:document-units="mm"
     inkscape:current-layer="layer1"
     showgrid="false"
     height="29mm"
     inkscape:window-width="1366"
     inkscape:window-height="705"
     inkscape:window-x="-8"
     inkscape:window-y="-8"
     inkscape:window-maximized="1" />
  <metadata
     id="metadata5">
    <rdf:RDF>
      <cc:Work
         rdf:about="">
        <dc:format>image/svg+xml</dc:format>
        <dc:type
           rdf:resource="http://purl.org/dc/dcmitype/StillImage" />
        <dc:title></dc:title>
      </cc:Work>
    </rdf:RDF>
  </metadata>
  <g
     inkscape:label="Layer 1"
     inkscape:groupmode="layer"
     id="layer1"
     transform="translate(0,-280.5)">
    <g
       id="g5122"
       transform="matrix(0.26458333,0,0,0.26458333,1.2780916,281.73318)"
       style="fill:#ff6600">
      <path
         id="path5120"
         d="m 49.340492,34.311532 c -0.7164,0 -1.297073,0.580408 -1.297073,1.297125 0,0 0,11.516713 0,11.516713 -0.0025,2.148391 -1.742935,3.889324 -3.891335,3.891376 0,0 -36.3949581,0 -36.3949581,0 -2.1483994,-0.0021 -3.8888169,-1.742985 -3.8913346,-3.891376 0,0 0,-33.801471 0,-33.801471 0.00252,-2.147805 1.7429352,-3.8887374 3.8913346,-3.8913756 0,0 11.5166471,0 11.5166471,0 0.716515,0 1.297188,-0.5804086 1.297188,-1.2968321 0,-0.7161304 -0.580673,-1.2971252 -1.297188,-1.2971252 0,0 -11.5166471,0 -11.5166471,0 -3.5801697,0.00381 -6.4814759,2.9052673 -6.4854813,6.4853329 0,0 0,33.802057 0,33.802057 0.00401,3.580359 2.9053116,6.481522 6.4854813,6.485626 0,0 36.3949581,0 36.3949581,0 3.58017,-0.0041 6.481476,-2.905267 6.485482,-6.485626 0,0 0,-11.517299 0,-11.517299 0,-0.716717 -0.580674,-1.297125 -1.297074,-1.297125 z M 50.12384,3.5009236 c -2.279548,-2.2797159 -5.975303,-2.2797159 -8.254852,0 0,0 -23.140869,23.1413004 -23.140869,23.1413004 -0.158615,0.158586 -0.273056,0.35528 -0.332909,0.571028 0,0 -3.043098,10.986431 -3.043098,10.986431 -0.125084,0.450549 0.0021,0.932757 0.332451,1.263708 0.330848,0.330363 0.813217,0.457584 1.263656,0.333002 0,0 10.986214,-3.043628 10.986214,-3.043628 0.215836,-0.0598 0.412445,-0.174415 0.57106,-0.333002 0,0 23.140412,-23.141886 23.140412,-23.141886 2.276001,-2.281182 2.276001,-5.9738115 0,-8.2549931 0,0 -1.522065,-1.5219603 -1.522065,-1.5219603 z M 21.554352,27.485282 c 0,0 18.939056,-18.9397871 18.939056,-18.9397871 0,0 6.107941,6.1080671 6.107941,6.1080671 0,0 -18.939514,18.939787 -18.939514,18.939787 0,0 -6.107483,-6.108067 -6.107483,-6.108067 z m -1.220055,2.448269 c 0,0 4.879761,4.880415 4.879761,4.880415 0,0 -6.749954,1.870206 -6.749954,1.870206 0,0 1.870193,-6.750621 1.870193,-6.750621 z M 49.811646,11.443727 c 0,0 -1.37558,1.375686 -1.37558,1.375686 0,0 -6.108513,-6.1086541 -6.108513,-6.1086541 0,0 1.376152,-1.3756855 1.376152,-1.3756855 1.266174,-1.2660529 3.319244,-1.2660529 4.585419,0 0,0 1.522522,1.5222533 1.522522,1.5222533 1.264228,1.2675186 1.264228,3.3191753 0,4.5864003 z"
         inkscape:connector-curvature="0"
         style="fill:#ff6600;fill-rule:evenodd;stroke:none;paint-order:stroke fill markers" />
    </g>
  </g>
</svg>
