<?xml version="1.0" encoding="UTF-8" standalone="no"?>
<!-- Created with Inkscape (http://www.inkscape.org/) -->

<svg
   xmlns:dc="http://purl.org/dc/elements/1.1/"
   xmlns:cc="http://creativecommons.org/ns#"
   xmlns:rdf="http://www.w3.org/1999/02/22-rdf-syntax-ns#"
   xmlns:svg="http://www.w3.org/2000/svg"
   xmlns="http://www.w3.org/2000/svg"
   xmlns:sodipodi="http://sodipodi.sourceforge.net/DTD/sodipodi-0.dtd"
   xmlns:inkscape="http://www.inkscape.org/namespaces/inkscape"
   width="16.5mm"
   height="16.5mm"
   viewBox="0 0 16.5 16.5"
   version="1.1"
   id="svg8"
   sodipodi:docname="3.svg"
   inkscape:version="0.92.3 (2405546, 2018-03-11)">
  <defs
     id="defs2" />
  <sodipodi:namedview
     id="base"
     pagecolor="#ffffff"
     bordercolor="#666666"
     borderopacity="1.0"
     inkscape:pageopacity="0.0"
     inkscape:pageshadow="2"
     inkscape:zoom="1.4"
     inkscape:cx="107.73613"
     inkscape:cy="25.298186"
     inkscape:document-units="mm"
     inkscape:current-layer="layer1"
     showgrid="false"
     height="29mm"
     inkscape:window-width="1366"
     inkscape:window-height="705"
     inkscape:window-x="-8"
     inkscape:window-y="-8"
     inkscape:window-maximized="1" />
  <metadata
     id="metadata5">
    <rdf:RDF>
      <cc:Work
         rdf:about="">
        <dc:format>image/svg+xml</dc:format>
        <dc:type
           rdf:resource="http://purl.org/dc/dcmitype/StillImage" />
        <dc:title></dc:title>
      </cc:Work>
    </rdf:RDF>
  </metadata>
  <g
     inkscape:label="Layer 1"
     inkscape:groupmode="layer"
     id="layer1"
     transform="translate(0,-280.5)">
    <g
       id="g5108"
       transform="matrix(0.26458333,0,0,0.26458333,2.0410824,281.99554)"
       style="fill:#f95110;fill-opacity:1">
      <path
         id="path5106"
         d="m 39.29995,1.2811511 c 0,0 -32.5999836,0 -32.5999836,0 -2.7602005,0.00293 -4.9969482,2.2398494 -5.0000381,5.0000146 0,0 0,38.0000533 0,38.0000533 0.00309,2.760165 2.2398376,4.99679 5.0000381,5.000014 0,0 32.5999836,0 32.5999836,0 2.7602,-0.0032 4.996833,-2.239849 5.000038,-5.000014 0,0 0,-38.0000533 0,-38.0000533 C 44.296783,3.5210005 42.06015,1.2840824 39.29995,1.2811511 Z m 2.999954,43.0000679 c -0.0019,1.656216 -1.343765,2.997898 -2.999954,2.99995 0,0 -32.5999836,0 -32.5999836,0 -1.6563034,-0.0021 -2.9981231,-1.343734 -3.0000686,-2.99995 0,0 0,-38.0000533 0,-38.0000533 0.00195,-1.6562164 1.3437652,-2.9981913 3.0000686,-2.9999502 0,0 32.5999836,0 32.5999836,0 1.656189,0.00176 2.998008,1.3437338 2.999954,2.9999502 0,0 0,38.0000533 0,38.0000533 z M 8.1999435,15.831232 c 0,0 29.0500255,0 29.0500255,0 0.552292,0 0.999985,-0.447911 0.999985,-1.000179 0,0 0,-6.599949 0,-6.599949 0,-0.5522675 -0.447693,-0.9998857 -0.999985,-0.9998857 0,0 -29.0500255,0 -29.0500255,0 -0.5522918,0 -0.9999847,0.4476182 -0.9999847,0.9998857 0,0 0,6.599949 0,6.599949 0,0.552268 0.4476929,1.000179 0.9999847,1.000179 z M 9.1999283,9.2309897 c 0,0 27.0500567,0 27.0500567,0 0,0 0,4.6001773 0,4.6001773 0,0 -27.0500567,0 -27.0500567,0 0,0 0,-4.6001773 0,-4.6001773 z m 5.4000087,9.5500663 c 0,0 -6.3999935,0 -6.3999935,0 -0.5522918,0 -0.9999847,0.447618 -0.9999847,1.000179 0,0 0,4.949888 0,4.949888 0,0.552268 0.4476929,0.999886 0.9999847,0.999886 0,0 6.3999935,0 6.3999935,0 0.552292,0 0.999985,-0.447618 0.999985,-0.999886 0,0 0,-4.949888 0,-4.949888 0,-0.552561 -0.447693,-1.000179 -0.999985,-1.000179 z m -0.999984,4.950181 c 0,0 -4.4000247,0 -4.4000247,0 0,0 0,-2.950117 0,-2.950117 0,0 4.4000247,0 4.4000247,0 0,0 0,2.950117 0,2.950117 z m 0.999984,3.849751 c 0,0 -6.3999935,0 -6.3999935,0 -0.5522918,0 -0.9999847,0.447911 -0.9999847,1.000179 0,0 0,4.949888 0,4.949888 0,0.552268 0.4476929,1.000179 0.9999847,1.000179 0,0 6.3999935,0 6.3999935,0 0.552292,0 0.999985,-0.447911 0.999985,-1.000179 0,0 0,-4.949888 0,-4.949888 0,-0.552268 -0.447693,-1.000179 -0.999985,-1.000179 z m -0.999984,4.950181 c 0,0 -4.4000247,0 -4.4000247,0 0,0 0,-2.950117 0,-2.950117 0,0 4.4000247,0 4.4000247,0 0,0 0,2.950117 0,2.950117 z m 0.999984,3.850044 c 0,0 -6.3999935,0 -6.3999935,0 -0.5522918,0 -0.9999847,0.447618 -0.9999847,0.999886 0,0 0,4.949888 0,4.949888 0,0.552561 0.4476929,1.000179 0.9999847,1.000179 0,0 6.3999935,0 6.3999935,0 0.552292,0 0.999985,-0.447618 0.999985,-1.000179 0,0 0,-4.949888 0,-4.949888 0,-0.552268 -0.447693,-0.999886 -0.999985,-0.999886 z m -0.999984,4.949888 c 0,0 -4.4000247,0 -4.4000247,0 0,0 0,-2.950117 0,-2.950117 0,0 4.4000247,0 4.4000247,0 0,0 0,2.950117 0,2.950117 z M 26.299919,18.781056 c 0,0 -6.599922,0 -6.599922,0 -0.552406,0 -1.000099,0.447618 -1.000099,1.000179 0,0 0,4.949888 0,4.949888 0,0.552268 0.447693,0.999886 1.000099,0.999886 0,0 6.599922,0 6.599922,0 0.552406,0 0.999985,-0.447618 0.999985,-0.999886 0,0 0,-4.949888 0,-4.949888 0,-0.552561 -0.447579,-1.000179 -0.999985,-1.000179 z m -0.999985,4.950181 c 0,0 -4.599952,0 -4.599952,0 0,0 0,-2.950117 0,-2.950117 0,0 4.599952,0 4.599952,0 0,0 0,2.950117 0,2.950117 z m 0.999985,3.849751 c 0,0 -6.599922,0 -6.599922,0 -0.552406,0 -1.000099,0.447911 -1.000099,1.000179 0,0 0,4.949888 0,4.949888 0,0.552268 0.447693,1.000179 1.000099,1.000179 0,0 6.599922,0 6.599922,0 0.552406,0 0.999985,-0.447911 0.999985,-1.000179 0,0 0,-4.949888 0,-4.949888 0,-0.552268 -0.447579,-1.000179 -0.999985,-1.000179 z m -0.999985,4.950181 c 0,0 -4.599952,0 -4.599952,0 0,0 0,-2.950117 0,-2.950117 0,0 4.599952,0 4.599952,0 0,0 0,2.950117 0,2.950117 z m 0.999985,3.850044 c 0,0 -6.599922,0 -6.599922,0 -0.552406,0 -1.000099,0.447618 -1.000099,0.999886 0,0 0,4.949888 0,4.949888 0,0.552561 0.447693,1.000179 1.000099,1.000179 0,0 6.599922,0 6.599922,0 0.552406,0 0.999985,-0.447618 0.999985,-1.000179 0,0 0,-4.949888 0,-4.949888 0,-0.552268 -0.447579,-0.999886 -0.999985,-0.999886 z m -0.999985,4.949888 c 0,0 -4.599952,0 -4.599952,0 0,0 0,-2.950117 0,-2.950117 0,0 4.599952,0 4.599952,0 0,0 0,2.950117 0,2.950117 z M 37.799973,18.781056 c 0,0 -6.399994,0 -6.399994,0 -0.552407,0 -0.999985,0.447618 -0.999985,1.000179 0,0 0,4.949888 0,4.949888 0,0.552268 0.447578,0.999886 0.999985,0.999886 0,0 6.399994,0 6.399994,0 0.552291,0 0.999984,-0.447618 0.999984,-0.999886 0,0 0,-4.949888 0,-4.949888 0,-0.552561 -0.447693,-1.000179 -0.999984,-1.000179 z m -0.999985,4.950181 c 0,0 -4.400025,0 -4.400025,0 0,0 0,-2.950117 0,-2.950117 0,0 4.400025,0 4.400025,0 0,0 0,2.950117 0,2.950117 z m 0.999985,3.849751 c 0,0 -6.399994,0 -6.399994,0 -0.552407,0 -0.999985,0.447911 -0.999985,1.000179 0,0 0,13.74982 0,13.74982 0,0.552561 0.447578,1.000179 0.999985,1.000179 0,0 6.399994,0 6.399994,0 0.552291,0 0.999984,-0.447618 0.999984,-1.000179 0,0 0,-13.74982 0,-13.74982 0,-0.552268 -0.447693,-1.000179 -0.999984,-1.000179 z m -0.999985,13.750113 c 0,0 -4.400025,0 -4.400025,0 0,0 0,-11.750049 0,-11.750049 0,0 4.400025,0 4.400025,0 0,0 0,11.750049 0,11.750049 z"
         inkscape:connector-curvature="0"
         style="fill:#f95110;fill-rule:evenodd;stroke:none;paint-order:stroke fill markers;fill-opacity:1" />
    </g>
  </g>
</svg>
