<?xml version="1.0" encoding="UTF-8" standalone="no"?>
<!-- Created with Inkscape (http://www.inkscape.org/) -->

<svg
   xmlns:dc="http://purl.org/dc/elements/1.1/"
   xmlns:cc="http://creativecommons.org/ns#"
   xmlns:rdf="http://www.w3.org/1999/02/22-rdf-syntax-ns#"
   xmlns:svg="http://www.w3.org/2000/svg"
   xmlns="http://www.w3.org/2000/svg"
   xmlns:sodipodi="http://sodipodi.sourceforge.net/DTD/sodipodi-0.dtd"
   xmlns:inkscape="http://www.inkscape.org/namespaces/inkscape"
   width="16.5mm"
   height="16.5mm"
   viewBox="0 0 16.5 16.5"
   version="1.1"
   id="svg8"
   sodipodi:docname="4.svg"
   inkscape:version="0.92.3 (2405546, 2018-03-11)">
  <defs
     id="defs2" />
  <sodipodi:namedview
     id="base"
     pagecolor="#ffffff"
     bordercolor="#666666"
     borderopacity="1.0"
     inkscape:pageopacity="0.0"
     inkscape:pageshadow="2"
     inkscape:zoom="1.4"
     inkscape:cx="107.73613"
     inkscape:cy="25.298186"
     inkscape:document-units="mm"
     inkscape:current-layer="layer1"
     showgrid="false"
     height="29mm"
     inkscape:window-width="1366"
     inkscape:window-height="705"
     inkscape:window-x="-8"
     inkscape:window-y="-8"
     inkscape:window-maximized="1" />
  <metadata
     id="metadata5">
    <rdf:RDF>
      <cc:Work
         rdf:about="">
        <dc:format>image/svg+xml</dc:format>
        <dc:type
           rdf:resource="http://purl.org/dc/dcmitype/StillImage" />
        <dc:title></dc:title>
      </cc:Work>
    </rdf:RDF>
  </metadata>
  <g
     inkscape:label="Layer 1"
     inkscape:groupmode="layer"
     id="layer1"
     transform="translate(0,-280.5)">
    <g
       id="g5094"
       transform="matrix(0.26458333,0,0,0.26458333,0.37798637,281.39094)"
       style="fill:#f95110;fill-opacity:1">
      <path
         id="path5092"
         d="m 53.602943,40.807611 c -0.214576,-0.581581 -0.859565,-0.879114 -1.440925,-0.664539 0,0 -11.667938,4.307042 -11.667938,4.307042 -0.58136,0.214576 -0.878678,0.86006 -0.664215,1.441642 0.167312,0.453187 0.596237,0.734011 1.052742,0.734011 0.12886,0 0.260124,-0.02257 0.388298,-0.06977 0,0 11.667938,-4.306749 11.667938,-4.306749 0.581245,-0.214575 0.878677,-0.86006 0.6641,-1.441641 z m -14.875946,5.49131 c -0.214347,-0.581874 -0.85968,-0.879114 -1.44104,-0.664539 0,0 -0.494041,0.182331 -0.494041,0.182331 -0.581246,0.214575 -0.878677,0.859767 -0.664215,1.441348 0.167198,0.453481 0.596237,0.734305 1.052742,0.734305 0.12886,0 0.260124,-0.02257 0.388298,-0.06977 0,0 0.494041,-0.18233 0.494041,-0.18233 0.581246,-0.214575 0.878678,-0.859767 0.664215,-1.441348 z M 53.602943,36.234109 c -0.214576,-0.581581 -0.859565,-0.878821 -1.440925,-0.664539 0,0 -9.220848,3.403598 -9.220848,3.403598 -0.581246,0.214575 -0.878678,0.86006 -0.664101,1.441641 0.167313,0.453481 0.596123,0.734012 1.052628,0.734012 0.128975,0 0.260238,-0.02228 0.388298,-0.06947 0,0 9.220848,-3.403598 9.220848,-3.403598 0.581245,-0.214576 0.878677,-0.86006 0.6641,-1.441641 z m 0,-4.526015 c -0.214576,-0.581581 -0.859565,-0.87882 -1.440925,-0.664538 0,0 -9.220848,3.403891 -9.220848,3.403891 -0.581246,0.214575 -0.878678,0.859767 -0.664101,1.441348 0.167313,0.453481 0.596123,0.734305 1.052628,0.734305 0.128975,0 0.260238,-0.02257 0.388298,-0.06977 0,0 9.220848,-3.403598 9.220848,-3.403598 0.581245,-0.214575 0.878677,-0.86006 0.6641,-1.441641 z m 3.823471,-20.536203 c 0,0 -27.03804,-9.9803896 -27.03804,-9.9803896 -0.25074,-0.092338 -0.526199,-0.092338 -0.77671,0 0,0 -27.0381548,9.9803896 -27.0381548,9.9803896 0,0 -2.289e-4,8.79e-4 -2.289e-4,8.79e-4 -0.088463,0.03283 -0.1736068,0.07621 -0.2529144,0.131325 -0.3009796,0.209885 -0.480423,0.554026 -0.480423,0.921032 0,0 0,32.110958 0,32.110958 0,0.470189 0.2927399,0.890253 0.7334519,1.053236 0,0 27.0381542,9.980389 27.0381542,9.980389 0.126,0.04661 0.257492,0.06918 0.388298,0.06918 0.132065,0 0.263558,-0.02374 0.38807,-0.06977 0,0 4.57e-4,5.86e-4 4.57e-4,5.86e-4 0,0 27.03804,-9.980389 27.03804,-9.980389 0.440827,-0.162983 0.733567,-0.583047 0.733567,-1.053236 0,0 0,-32.110958 0,-32.110958 0,-0.47019 -0.29274,-0.890253 -0.733567,-1.053236 z M 28.878098,52.70628 c 0,0 -24.7944264,-9.152281 -24.7944264,-9.152281 0,0 0,-29.718385 0,-29.718385 0,0 5.0485611,1.863463 5.0485611,1.863463 0,0 0,13.598856 0,13.598856 0,0.47019 0.2927398,0.890253 0.7335663,1.053236 0,0 12.116547,4.472664 12.116547,4.472664 0.126113,0.04661 0.257492,0.06918 0.388298,0.06918 0.226364,0 0.450782,-0.06859 0.64167,-0.201384 0.300979,-0.209885 0.480308,-0.553733 0.480308,-0.920739 0,0 0,-12.771041 0,-12.771041 0,0 5.385247,1.988046 5.385247,1.988046 0,0 0,29.718385 0,29.718385 0,0 2.29e-4,0 2.29e-4,0 z m -7.62909,-32.534539 c 0,0 0,11.988369 0,11.988369 0,0 -9.872818,-3.644556 -9.872818,-3.644556 0,0 0,-11.988368 0,-11.988368 0,0 9.872818,3.644555 9.872818,3.644555 z m -7.75383,-5.263837 c 0,0 8.875694,-3.276377 8.875694,-3.276377 0,0 8.875695,3.276377 8.875695,3.276377 0,0 -8.875695,3.276377 -8.875695,3.276377 0,0 -8.875694,-3.276377 -8.875694,-3.276377 z m 16.504784,6.101326 c 0,0 -4.400139,-1.624265 -4.400139,-1.624265 0,0 9.276237,-3.424117 9.276237,-3.424117 0.440712,-0.162984 0.733452,-0.583047 0.733452,-1.053237 0,-0.469896 -0.29274,-0.890253 -0.733452,-1.052943 0,0 -12.116775,-4.4726636 -12.116775,-4.4726636 -0.250626,-0.092338 -0.52597,-0.092338 -0.776825,0 0,0 -11.740379,4.3340106 -11.740379,4.3340106 0,0 -4.0391925,-1.490888 -4.0391925,-1.490888 0,0 23.7970735,-8.7841027 23.7970735,-8.7841027 0,0 23.797073,8.7841027 23.797073,8.7841027 0,0 -23.797073,8.784103 -23.797073,8.784103 z m 25.916176,22.544769 c 0,0 -24.794197,9.152281 -24.794197,9.152281 0,0 0,-29.718385 0,-29.718385 0,0 24.794197,-9.152281 24.794197,-9.152281 0,0 0,29.718385 0,29.718385 z"
         inkscape:connector-curvature="0"
         style="fill:#f95110;fill-rule:evenodd;stroke:none;paint-order:stroke fill markers;fill-opacity:1" />
    </g>
  </g>
</svg>
