<?xml version="1.0" encoding="UTF-8" standalone="no"?>
<!-- Created with Inkscape (http://www.inkscape.org/) -->

<svg
   xmlns:dc="http://purl.org/dc/elements/1.1/"
   xmlns:cc="http://creativecommons.org/ns#"
   xmlns:rdf="http://www.w3.org/1999/02/22-rdf-syntax-ns#"
   xmlns:svg="http://www.w3.org/2000/svg"
   xmlns="http://www.w3.org/2000/svg"
   xmlns:sodipodi="http://sodipodi.sourceforge.net/DTD/sodipodi-0.dtd"
   xmlns:inkscape="http://www.inkscape.org/namespaces/inkscape"
   width="16.5mm"
   height="16.5mm"
   viewBox="0 0 16.5 16.5"
   version="1.1"
   id="svg8"
   sodipodi:docname="5.svg"
   inkscape:version="0.92.3 (2405546, 2018-03-11)">
  <defs
     id="defs2" />
  <sodipodi:namedview
     id="base"
     pagecolor="#ffffff"
     bordercolor="#666666"
     borderopacity="1.0"
     inkscape:pageopacity="0.0"
     inkscape:pageshadow="2"
     inkscape:zoom="1.4"
     inkscape:cx="107.73613"
     inkscape:cy="25.298186"
     inkscape:document-units="mm"
     inkscape:current-layer="layer1"
     showgrid="false"
     height="29mm"
     inkscape:window-width="1366"
     inkscape:window-height="705"
     inkscape:window-x="-8"
     inkscape:window-y="-8"
     inkscape:window-maximized="1" />
  <metadata
     id="metadata5">
    <rdf:RDF>
      <cc:Work
         rdf:about="">
        <dc:format>image/svg+xml</dc:format>
        <dc:type
           rdf:resource="http://purl.org/dc/dcmitype/StillImage" />
        <dc:title></dc:title>
      </cc:Work>
    </rdf:RDF>
  </metadata>
  <g
     inkscape:label="Layer 1"
     inkscape:groupmode="layer"
     id="layer1"
     transform="translate(0,-280.5)">
    <g
       id="g5080"
       transform="matrix(0.26458333,0,0,0.26458333,0.37798544,280.82028)"
       style="fill:#f95110;fill-opacity:1">
      <path
         id="path5078"
         d="m 58.799995,37.157542 c 0,0 0,-13.440269 0,-13.440269 0,0 -5.76004,0 -5.76004,0 -0.487633,-1.673219 -1.158371,-3.287223 -1.99974,-4.813288 0,0 4.076042,-4.076344 4.076042,-4.076344 0,0 -9.503746,-9.5040437 -9.503746,-9.5040437 0,0 -4.076042,4.0763443 -4.076042,4.0763443 -1.527215,-0.8424719 -3.141976,-1.5146319 -4.816361,-2.0027027 0,0 0,-5.7598223 0,-5.7598223 0,0 -13.440285,0 -13.440285,0 0,0 0,5.7598223 0,5.7598223 -1.673126,0.4877777 -3.287086,1.158472 -4.81327,1.9997713 0,0 -4.076386,-4.0769305 -4.076386,-4.0769305 0,0 -9.5040891,9.5040443 -9.5040891,9.5040443 0,0 4.0763855,4.075757 4.0763855,4.075757 -0.8430863,1.527823 -1.5145111,3.143001 -2.0024872,4.817392 0,0 -5.7600403,0 -5.7600403,0 0,0 0,13.440269 0,13.440269 0,0 5.7600403,0 5.7600403,0 0.4876327,1.672925 1.158371,3.28693 1.9996262,4.813287 0,0 -4.0770722,4.075758 -4.0770722,4.075758 0,0 9.5042038,9.504337 9.5042038,9.504337 0,0 4.075584,-4.076051 4.075584,-4.076051 1.527901,0.842472 3.143006,1.513752 4.817505,2.00241 0,0 0,5.760115 0,5.760115 0,0 13.440285,0 13.440285,0 0,0 0,-5.760115 0,-5.760115 1.673012,-0.487485 3.287087,-1.158473 4.813156,-1.999479 0,0 4.076042,4.075758 4.076042,4.075758 0,0 9.504204,-9.50375 9.504204,-9.50375 0,0 -4.076042,-4.076345 -4.076042,-4.076345 0.842285,-1.52665 1.513824,-3.142121 2.002487,-4.815925 0,0 5.76004,0 5.76004,0 z m -7.418747,-1.200977 c -0.516128,1.996547 -1.311264,3.909257 -2.362518,5.683021 0,0 -0.384178,0.641674 -0.384178,0.641674 0,0 3.766251,3.765913 3.766251,3.765913 0,0 -6.791153,6.79254 -6.791153,6.79254 0,0 -3.765908,-3.765914 -3.765908,-3.765914 0,0 -0.641555,0.383714 -0.641555,0.383714 -1.773377,1.052357 -3.686486,1.847928 -5.683022,2.362674 0,0 -0.719032,0.184968 -0.719032,0.184968 0,0 0,5.312204 0,5.312204 0,0 -9.600449,0 -9.600449,0 0,0 0,-5.312204 0,-5.312204 0,0 -0.718918,-0.186434 -0.718918,-0.186434 -1.996536,-0.515919 -3.909759,-1.310903 -5.683021,-2.362673 0,0 -0.641556,-0.384008 -0.641556,-0.384008 0,0 -3.766022,3.767673 -3.766022,3.767673 0,0 -6.792526,-6.793126 -6.792526,-6.793126 0,0 3.766022,-3.765913 3.766022,-3.765913 0,0 -0.38395,-0.641088 -0.38395,-0.641088 -1.051826,-1.773764 -1.847076,-3.687353 -2.3625179,-5.683021 0,0 -0.1849365,-0.719648 -0.1849365,-0.719648 0,0 -5.3124618,0 -5.3124618,0 0,0 0,-9.599899 0,-9.599899 0,0 5.3124618,0 5.3124618,0 0,0 0.1863098,-0.718769 0.1863098,-0.718769 0.5157852,-1.996546 1.3110352,-3.909843 2.3625186,-5.68302 0,0 0.384292,-0.641674 0.384292,-0.641674 0,0 -3.767738,-3.765914 -3.767738,-3.765914 0,0 6.792526,-6.792539 6.792526,-6.792539 0,0 3.766022,3.765914 3.766022,3.765914 0,0 0.641556,-0.384008 0.641556,-0.384008 1.773262,-1.052064 3.686485,-1.847634 5.683021,-2.3623802 0,0 0.718918,-0.1849686 0.718918,-0.1849686 0,0 0,-5.3124973 0,-5.3124973 0,0 9.600449,0 9.600449,0 0,0 0,5.3124973 0,5.3124973 0,0 0.719032,0.1864343 0.719032,0.1864343 1.996536,0.5156256 3.909645,1.3109025 5.683022,2.3623805 0,0 0.641555,0.3843 0.641555,0.3843 0,0 3.765908,-3.767672 3.765908,-3.767672 0,0 6.792526,6.792539 6.792526,6.792539 0,0 -3.765907,3.765914 -3.765907,3.765914 0,0 0.383949,0.641674 0.383949,0.641674 1.05217,1.773177 1.847763,3.686474 2.362404,5.68302 0,0 0.186424,0.718769 0.186424,0.718769 0,0 5.310974,0 5.310974,0 0,0 0,9.600485 0,9.600485 0,0 -5.312462,0 -5.312462,0 0,0 -0.18631,0.719062 -0.18631,0.719062 z M 29.999908,14.117373 c -9.008445,-0.0047 -16.315269,7.294681 -16.319847,16.302739 -0.0032,6.414981 3.753319,12.235775 9.599762,14.874875 0,0 0,0.02228 0,0.02228 0,0 0.594178,0.244768 0.594178,0.244768 0,0 0.0059,0 0.0059,0 0,0 1.319733,0.534679 1.319733,0.534679 0,0 0,-0.06537 0,-0.06537 1.55468,0.482208 3.172875,0.726976 4.800224,0.725804 0.324212,0 0.643387,-0.01055 0.96016,-0.02873 0,0 0,0.04104 0,0.04104 0,0 1.075744,-0.135136 1.075744,-0.135136 0,0 0.844117,-0.102011 0.844117,-0.102011 0,0 0,-0.04309 0,-0.04309 C 41.749214,44.904238 47.654022,36.429686 46.06913,27.560867 44.677986,19.778116 37.906288,14.112683 29.999908,14.117373 Z m -4.800224,29.897198 c 0,0 0,-9.49525 0,-9.49525 0,0 -0.320206,-0.288152 -0.320206,-0.288152 -3.159141,-2.825535 -3.429222,-7.677223 -0.603332,-10.836052 1.456489,-1.628662 3.538856,-2.559075 5.723762,-2.557609 0.28164,0 0.563279,0.01495 0.843773,0.04485 0,0 -4.464111,4.467094 -4.464111,4.467094 0,0 0.852928,5.939514 0.852928,5.939514 0,0 5.939255,0.852146 5.939255,0.852146 0,0 4.463425,-4.46387 4.463425,-4.46387 0.02952,0.278772 0.04463,0.559303 0.04463,0.840127 -0.01717,3.5786 -2.487603,6.677337 -5.971985,7.492547 0,0 -0.747757,0.169139 -0.747757,0.169139 0,0 0,8.628448 0,8.628448 -1.953621,0.125462 -3.91285,-0.144223 -5.760384,-0.792932 z m 7.680245,0.537611 c 0,0 0,-6.872566 0,-6.872566 3.985977,-1.279537 6.697311,-4.976563 6.719741,-9.162247 0.0042,-1.04327 -0.165939,-2.080091 -0.502739,-3.067372 0,0 -0.499877,-1.453366 -0.499877,-1.453366 0,0 -6.10096,6.10367 -6.10096,6.10367 0,0 -3.565636,-0.510642 -3.565636,-0.510642 0,0 -0.513267,-3.56834 -0.513267,-3.56834 0,0 6.103477,-6.10455 6.103477,-6.10455 0,0 -1.453743,-0.49921 -1.453743,-0.49921 -0.987511,-0.33564 -2.024231,-0.50478 -3.067017,-0.500089 -5.299415,-0.0026 -9.597244,4.291505 -9.599762,9.590518 -0.0014,2.58018 1.036492,5.0519 2.879677,6.857909 0,0 0,7.807961 0,7.807961 -7.028732,-3.713443 -9.717178,-12.420451 -6.004715,-19.44955 3.712578,-7.0291 12.420731,-9.717154 19.449578,-6.004591 7.028732,3.71227 9.717521,12.420158 6.0046,19.449257 -2.013016,3.81047 -5.62706,6.518751 -9.849357,7.380569 0,0 0,0.0026 0,0.0026 z"
         inkscape:connector-curvature="0"
         style="fill:#f95110;fill-rule:evenodd;stroke:none;paint-order:stroke fill markers;fill-opacity:1" />
    </g>
  </g>
</svg>
