<?xml version="1.0" encoding="UTF-8" standalone="no"?>
<!-- Created with Inkscape (http://www.inkscape.org/) -->

<svg
   xmlns:dc="http://purl.org/dc/elements/1.1/"
   xmlns:cc="http://creativecommons.org/ns#"
   xmlns:rdf="http://www.w3.org/1999/02/22-rdf-syntax-ns#"
   xmlns:svg="http://www.w3.org/2000/svg"
   xmlns="http://www.w3.org/2000/svg"
   xmlns:sodipodi="http://sodipodi.sourceforge.net/DTD/sodipodi-0.dtd"
   xmlns:inkscape="http://www.inkscape.org/namespaces/inkscape"
   width="16.5mm"
   height="16.5mm"
   viewBox="0 0 16.5 16.5"
   version="1.1"
   id="svg8"
   sodipodi:docname="6.svg"
   inkscape:version="0.92.3 (2405546, 2018-03-11)">
  <defs
     id="defs2" />
  <sodipodi:namedview
     id="base"
     pagecolor="#ffffff"
     bordercolor="#666666"
     borderopacity="1.0"
     inkscape:pageopacity="0.0"
     inkscape:pageshadow="2"
     inkscape:zoom="1.4"
     inkscape:cx="107.73613"
     inkscape:cy="25.298186"
     inkscape:document-units="mm"
     inkscape:current-layer="layer1"
     showgrid="false"
     height="29mm"
     inkscape:window-width="1366"
     inkscape:window-height="705"
     inkscape:window-x="-8"
     inkscape:window-y="-8"
     inkscape:window-maximized="1" />
  <metadata
     id="metadata5">
    <rdf:RDF>
      <cc:Work
         rdf:about="">
        <dc:format>image/svg+xml</dc:format>
        <dc:type
           rdf:resource="http://purl.org/dc/dcmitype/StillImage" />
        <dc:title></dc:title>
      </cc:Work>
    </rdf:RDF>
  </metadata>
  <g
     inkscape:label="Layer 1"
     inkscape:groupmode="layer"
     id="layer1"
     transform="translate(0,-280.5)">
    <g
       id="g5066"
       transform="matrix(0.26458333,0,0,0.26458333,1.7262406,281.66697)"
       style="fill:#f95110;fill-opacity:1">
      <path
         id="path5064"
         d="m 47.764709,10.203784 c 0,0 -5.110588,0 -5.110588,0 0,0 0,-4.2580884 0,-4.2580884 0.0024,-2.3494821 -1.900749,-4.2560364 -4.250335,-4.2583814 -0.0027,0 -0.006,0 -0.0086,0 0,0 -32.3674396,0 -32.3674396,0 -2.3511887,0.00264 -4.2562867,1.9077267 -4.2590332,4.2583814 0,0 0,45.1384924 0,45.1384924 0,0.940672 0.7626342,1.703118 1.703453,1.703118 0,0 24.7018428,0 24.7018428,0 0.225678,-2.93e-4 0.442086,-0.08999 0.60196,-0.249459 0,0 6.814155,-6.813351 6.814155,-6.813351 0.0713,-0.07241 0.12909,-0.157121 0.170403,-0.249459 0.01202,-0.02638 0.01865,-0.05188 0.02804,-0.07915 0.02461,-0.07153 0.03937,-0.146274 0.0444,-0.221317 0,-0.01788 0.01018,-0.0343 0.01018,-0.05218 0,0 0,-9.368615 0,-9.368615 0,0 9.376602,0 9.376602,0 0.06363,0 0.128289,0 0.193062,-0.0041 2.270851,-0.10846 4.055901,-1.981011 4.055443,-4.253985 0,0 0,-19.588496 0,-19.588496 0,-0.940672 -0.762634,-1.703411 -1.703568,-1.703411 z M 3.4721832,5.9456956 c 0,-1.4111549 1.1440659,-2.5549702 2.5555802,-2.5549702 0,0 28.9603046,0 28.9603046,0 -0.02575,0.033124 -0.0436,0.071818 -0.06741,0.1055288 -0.04841,0.06918 -0.09121,0.1412914 -0.135269,0.2136959 -0.09052,0.1451021 -0.172806,0.2951876 -0.245247,0.4499632 -0.03868,0.085009 -0.07416,0.164156 -0.107689,0.248579 -0.06317,0.1670873 -0.116158,0.3373992 -0.158272,0.5109355 -0.01957,0.079733 -0.04452,0.1565344 -0.05962,0.2386124 -0.0507,0.259425 -0.0769,0.522954 -0.07839,0.7876554 0,0 0,38.3251404 0,38.3251404 0,0 -4.258689,0 -4.258689,0 -1.4114,0 -2.555466,1.143815 -2.555466,2.554677 0,0 0,4.258675 0,4.258675 0,0 -23.8498308,0 -23.8498308,0 0,0 0,-45.1384924 0,-45.1384924 z M 29.025581,49.879693 c 0,0 0,-3.05418 0,-3.05418 0,-0.47019 0.381317,-0.851266 0.851899,-0.851266 0,0 3.054199,0 3.054199,0 0,0 -3.906098,3.905446 -3.906098,3.905446 z m 6.814041,-15.829031 c 0,0 0,-28.1049664 0,-28.1049664 0,-1.4111549 1.14441,-2.5549702 2.555581,-2.5549702 1.411056,0 2.555465,1.1438153 2.555465,2.5549702 0,0 0,25.5499954 0,25.5499954 -0.0019,0.921619 0.297089,1.818907 0.851555,2.554971 0,0 -5.962601,0 -5.962601,0 z m 11.925087,-2.554971 c 0.0039,1.365426 -1.068305,2.491653 -2.43267,2.554971 -0.113754,0.0015 -0.227623,-0.0053 -0.340691,-0.01964 -0.06123,-0.005 -0.122452,-0.0085 -0.182075,-0.01876 -0.479622,-0.08999 -0.921822,-0.318932 -1.271897,-0.658383 -0.561561,-0.534386 -0.880508,-1.27514 -0.883255,-2.050777 0,0 0,-19.395906 0,-19.395906 0,0 5.110588,0 5.110588,0 0,0 0,19.588496 0,19.588495 z M 6.8793182,9.3525181 c 0,0 23.8497158,0 23.8497158,0 0,0 0,1.7031179 0,1.7031179 0,0 -23.8497158,0 -23.8497158,0 0,0 0,-1.7031179 0,-1.7031179 z m 0,6.8130589 c 0,0 23.8497158,0 23.8497158,0 0,0 0,1.703411 0,1.703411 0,0 -23.8497158,0 -23.8497158,0 0,0 0,-1.703411 0,-1.703411 z m 0,6.813351 c 0,0 23.8497158,0 23.8497158,0 0,0 0,1.703412 0,1.703412 0,0 -23.8497158,0 -23.8497158,0 0,0 0,-1.703412 0,-1.703412 z m 0,6.813645 c 0,0 23.8497158,0 23.8497158,0 0,0 0,1.703118 0,1.703118 0,0 -23.8497158,0 -23.8497158,0 0,0 0,-1.703118 0,-1.703118 z m 0,6.813059 c 0,0 23.8497158,0 23.8497158,0 0,0 0,1.703411 0,1.703411 0,0 -23.8497158,0 -23.8497158,0 0,0 0,-1.703411 0,-1.703411 z"
         inkscape:connector-curvature="0"
         style="fill:#f95110;fill-rule:evenodd;stroke:none;paint-order:stroke fill markers;fill-opacity:1" />
    </g>
  </g>
</svg>
