<?xml version="1.0" encoding="UTF-8" standalone="no"?>
<!-- Created with Inkscape (http://www.inkscape.org/) -->

<svg
   xmlns:dc="http://purl.org/dc/elements/1.1/"
   xmlns:cc="http://creativecommons.org/ns#"
   xmlns:rdf="http://www.w3.org/1999/02/22-rdf-syntax-ns#"
   xmlns:svg="http://www.w3.org/2000/svg"
   xmlns="http://www.w3.org/2000/svg"
   xmlns:sodipodi="http://sodipodi.sourceforge.net/DTD/sodipodi-0.dtd"
   xmlns:inkscape="http://www.inkscape.org/namespaces/inkscape"
   width="16.5mm"
   height="16.5mm"
   viewBox="0 0 16.5 16.5"
   version="1.1"
   id="svg8"
   sodipodi:docname="7.svg"
   inkscape:version="0.92.3 (2405546, 2018-03-11)">
  <defs
     id="defs2" />
  <sodipodi:namedview
     id="base"
     pagecolor="#ffffff"
     bordercolor="#666666"
     borderopacity="1.0"
     inkscape:pageopacity="0.0"
     inkscape:pageshadow="2"
     inkscape:zoom="1.4"
     inkscape:cx="107.73613"
     inkscape:cy="25.298186"
     inkscape:document-units="mm"
     inkscape:current-layer="layer1"
     showgrid="false"
     height="29mm"
     inkscape:window-width="1366"
     inkscape:window-height="705"
     inkscape:window-x="-8"
     inkscape:window-y="-8"
     inkscape:window-maximized="1" />
  <metadata
     id="metadata5">
    <rdf:RDF>
      <cc:Work
         rdf:about="">
        <dc:format>image/svg+xml</dc:format>
        <dc:type
           rdf:resource="http://purl.org/dc/dcmitype/StillImage" />
        <dc:title></dc:title>
      </cc:Work>
    </rdf:RDF>
  </metadata>
  <g
     inkscape:label="Layer 1"
     inkscape:groupmode="layer"
     id="layer1"
     transform="translate(0,-280.5)">
    <g
       id="g5052"
       transform="matrix(0.26458333,0,0,0.26458333,1.7009131,281.72983)"
       style="fill:#f95110;fill-opacity:1">
      <path
         id="path5050"
         d="M 35.999985,40.99975 C 35.447922,40.99975 35,41.447954 35,41.999929 c 0,0.551974 0.447922,0.999885 0.999985,0.999885 0.551948,0 0.999984,-0.447911 0.999984,-0.999885 0,-0.551975 -0.448036,-1.000179 -0.999984,-1.000179 z m 2.462196,-3.233579 c 0,0 -4.753075,-1.584105 -4.753075,-1.584105 0,0 -1.706314,-3.412686 -1.706314,-3.412686 1.537285,-1.564464 2.604561,-3.634588 2.964478,-5.794119 0,0 0.212746,-1.275433 0.212746,-1.275433 0,0 1.819953,0 1.819953,0 1.65413,0 2.999955,-1.345786 2.999955,-2.99995 0,0 0,-6.300071 0,-6.300071 0,-8.2708224 -6.729012,-15.0000443 -15,-15.0000443 -8.29216,0 -15.0000003,6.7098749 -15.0000003,15.0000443 0,0 0,6.300071 0,6.300071 0,1.303574 0.8361053,2.415145 1.9999693,2.82788 0,0 0,1.171956 0,1.171956 0,1.654457 1.345825,3.000243 3.000069,3.000243 0,0 0.878219,0 0.878219,0 0.433503,0.941552 0.994606,1.813923 1.677361,2.597182 0.141563,0.162983 0.289307,0.32069 0.440598,0.474293 0,0 -1.705399,3.410634 -1.705399,3.410634 0,0 -4.753075,1.584105 -4.753075,1.584105 -5.526466,1.842943 -9.5377347,7.660807 -9.5377347,13.833657 0,0.552267 0.4476929,0.999886 0.9999848,0.999886 0,0 44.0000149,0 44.0000149,0 0.552178,0 0.999985,-0.447619 0.999985,-0.999886 0,-6.17285 -4.01104,-11.990714 -9.537735,-13.833657 z M 37.999954,22.699878 c 0,0.551388 -0.448608,0.999886 -0.999985,0.999886 0,0 -1.526184,0 -1.526184,0 0.254174,-1.968992 0.423546,-4.064326 0.491639,-6.128001 0.0021,-0.05804 0.0037,-0.114616 0.0054,-0.171777 0,0 2.029152,0 2.029152,0 0,0 0,5.299892 0,5.299892 z m -24.999962,0.999886 c -0.55149,0 -1.000099,-0.448498 -1.000099,-0.999886 0,0 0,-5.299892 0,-5.299892 0,0 2.029839,0 2.029839,0 0.0033,0.104063 0.0069,0.209005 0.01076,0.314534 0,0.0035 2.29e-4,0.007 3.44e-4,0.01055 0,2.93e-4 0,5.86e-4 0,8.79e-4 0.07004,2.007393 0.237236,4.048204 0.485572,5.973812 0,0 -1.526413,0 -1.526413,0 0,0 0,0 0,0 z m 1.99997,4.000129 c -0.551376,0 -0.999985,-0.448498 -0.999985,-1.000179 0,0 0,-0.999886 0,-0.999886 0,0 0.81974,0 0.81974,0 0,0 0.212861,1.27602 0.212861,1.27602 0.04051,0.242423 0.09041,0.483967 0.148201,0.724045 0,0 -0.180817,0 -0.180817,0 z M 14.001694,15.399921 c 0,0 -1.963806,0 -1.963806,0 0.506515,-6.7022533 6.099701,-12.0000938 12.962036,-12.0000938 6.831779,0 12.449569,5.2972542 12.961921,12.0000938 0,0 -1.963462,0 -1.963462,0 C 35.926399,9.8772455 31.428986,5.3998917 25.895081,5.3998917 c 0,0 -1.790085,0 -1.790085,0 -5.533905,0 -10.031433,4.4773538 -10.103302,10.0000293 z M 24.104996,7.3999562 c 0,0 1.78997,0 1.78997,0 4.48082,0 8.107567,3.6650748 8.104935,8.1409628 0,0.314535 -0.0024,0.588617 -0.0078,0.838075 0,0.0029 -1.15e-4,0.0064 -1.15e-4,0.0097 0,0 -1.250724,-0.178813 -1.250724,-0.178813 -3.39798,-0.48514 -6.606446,-2.089178 -9.034195,-4.51722 -0.187683,-0.187314 -0.441971,-0.292843 -0.707131,-0.292843 -2.685585,0 -5.256386,1.223548 -6.955833,3.290741 0.418854,-4.071654 3.861122,-7.2905768 8.060875,-7.2905768 z M 17.25399,27.699893 c -0.500679,-1.665304 -1.073456,-6.565359 -1.200027,-9.705428 0,0 1.345825,-1.794577 1.345825,-1.794577 1.236191,-1.647422 3.159256,-2.671345 5.205002,-2.788599 2.69165,2.561419 6.173858,4.253105 9.853706,4.778404 0,0 1.472168,0.210471 1.472168,0.210471 -0.09842,2.088592 -0.299492,4.184219 -0.587654,6.111879 -1.14e-4,5.86e-4 -1.14e-4,0.0012 -2.29e-4,0.0021 -0.09167,0.619689 -0.163879,1.018354 -0.348244,2.132269 -0.529632,3.176418 -2.899818,6.048854 -6.028747,6.831233 -1.287689,0.32157 -2.644272,0.32157 -3.931275,0 -1.953621,-0.488364 -3.745079,-1.840012 -4.901161,-3.777639 0,0 2.038536,0 2.038536,0 0.412903,1.163749 1.524353,1.999771 2.828064,1.999771 0,0 1.99997,0 1.99997,0 1.657562,0 3.000068,-1.342268 3.000068,-2.99995 0,-1.654164 -1.345825,-2.99995 -3.000068,-2.99995 0,0 -1.99997,0 -1.99997,0 -1.332664,0 -2.427864,0.86094 -2.829666,2.000065 0,0 -2.916298,0 -2.916298,0 z m 5.66185,7.801512 c 0.685959,0.144516 1.385193,0.218386 2.084084,0.218386 0.547142,0 1.094284,-0.04573 1.63536,-0.13455 0,0 -1.767082,1.86874 -1.767082,1.86874 0,0 -1.952362,-1.952576 -1.952362,-1.952576 z m 0.577583,3.406236 c 0,0 -3.17173,3.354351 -3.17173,3.354351 -0.873298,-1.671459 -1.623573,-3.410926 -2.238922,-5.191725 0,0 1.191101,-2.382314 1.191101,-2.382314 0,0 4.219551,4.219688 4.219551,4.219688 z m 7.063065,-4.558259 c 0,0 1.360474,2.720885 1.360474,2.720885 -0.616379,1.78373 -1.366883,3.523783 -2.239266,5.193191 0,0 -3.394775,-3.394804 -3.394775,-3.394804 0,0 4.273567,-4.519272 4.273567,-4.519272 z m -8.556519,-5.649604 c 0,-0.551974 0.447808,-0.999885 0.999985,-0.999885 0,0 1.99997,0 1.99997,0 0.551376,0 0.999984,0.448497 0.999984,0.999885 0,0.552268 -0.447921,1.000179 -0.999984,1.000179 0,0 -1.99997,0 -1.99997,0 -0.551376,0 -0.999985,-0.448791 -0.999985,-1.000179 z M 4.0399551,50.599942 C 4.436264,45.64595 7.7331924,41.143093 12.170181,39.663638 c 0,0 4.209366,-1.402948 4.209366,-1.402948 0.771217,2.132562 1.72657,4.205324 2.84626,6.174023 0.0019,0.0035 0.0038,0.0067 0.0056,0.01026 0,0 1.14e-4,0 1.14e-4,0 0.818138,1.439003 1.73893,2.845175 2.737198,4.180114 0,0 1.23024,1.974855 1.23024,1.974855 0,0 -19.1590119,0 -19.1590119,0 z M 24.999924,49.708517 c 0,0 -1.356125,-2.177412 -1.356125,-2.177412 -0.01522,-0.02433 -0.03147,-0.04807 -0.04864,-0.07094 -0.809783,-1.080205 -1.565208,-2.209949 -2.253227,-3.366369 0,0 3.566323,-3.771484 3.566323,-3.771484 0,0 3.757782,3.757999 3.757782,3.757999 -0.692597,1.164628 -1.450539,2.299063 -2.261124,3.379561 -0.04898,0.06537 0.02049,-0.03752 -1.404991,2.248644 z m 1.801071,0.891425 c 0,0 1.230011,-1.974855 1.230011,-1.974855 1.002731,-1.339923 1.93016,-2.757527 2.756424,-4.213238 0.005,-0.0088 0.0097,-0.01788 0.01476,-0.02668 5.72e-4,-8.79e-4 0.0011,-0.0021 0.0017,-0.0032 1.1055,-1.949938 2.050896,-4.004526 2.816391,-6.121259 0,0 4.209366,1.402948 4.209366,1.402948 4.437103,1.479455 7.734032,5.982312 8.130226,10.936304 0,0 -19.158897,0 -19.158897,0 0,0 0,0 0,0 z m 16.153564,-4.04703 c -0.668335,-1.337578 -1.647262,-2.52595 -2.830925,-3.436723 -0.437736,-0.336813 -1.065559,-0.255028 -1.402244,0.182917 -0.3368,0.437651 -0.254975,1.065548 0.182762,1.402361 0.945396,0.727269 1.727142,1.676443 2.261124,2.745215 0.247306,0.495106 0.848236,0.694145 1.341476,0.447911 0.494041,-0.24682 0.694542,-0.847455 0.447807,-1.341681 z"
         inkscape:connector-curvature="0"
         style="fill:#f95110;fill-rule:evenodd;stroke:none;paint-order:stroke fill markers;fill-opacity:1" />
    </g>
  </g>
</svg>
