<?xml version="1.0" encoding="UTF-8" standalone="no"?>
<!-- Generator: Adobe Illustrator 19.0.0, SVG Export Plug-In . SVG Version: 6.00 Build 0)  -->

<svg
   xmlns:dc="http://purl.org/dc/elements/1.1/"
   xmlns:cc="http://creativecommons.org/ns#"
   xmlns:rdf="http://www.w3.org/1999/02/22-rdf-syntax-ns#"
   xmlns:svg="http://www.w3.org/2000/svg"
   xmlns="http://www.w3.org/2000/svg"
   xmlns:sodipodi="http://sodipodi.sourceforge.net/DTD/sodipodi-0.dtd"
   xmlns:inkscape="http://www.inkscape.org/namespaces/inkscape"
   version="1.1"
   id="Слой_1"
   x="0px"
   y="0px"
   viewBox="-247 358.9 74.699997 57.200001"
   xml:space="preserve"
   sodipodi:docname="english.svg"
   width="74.699997"
   height="57.200001"
   inkscape:version="0.92.1 r15371"><metadata
     id="metadata13"><rdf:RDF><cc:Work
         rdf:about=""><dc:format>image/svg+xml</dc:format><dc:type
           rdf:resource="http://purl.org/dc/dcmitype/StillImage" /><dc:title></dc:title></cc:Work></rdf:RDF></metadata><defs
     id="defs11" /><sodipodi:namedview
     pagecolor="#ffffff"
     bordercolor="#666666"
     borderopacity="1"
     objecttolerance="10"
     gridtolerance="10"
     guidetolerance="10"
     inkscape:pageopacity="0"
     inkscape:pageshadow="2"
     inkscape:window-width="1920"
     inkscape:window-height="1028"
     id="namedview9"
     showgrid="false"
     inkscape:zoom="5.3400704"
     inkscape:cx="69.557981"
     inkscape:cy="48.702589"
     inkscape:window-x="1912"
     inkscape:window-y="-8"
     inkscape:window-maximized="1"
     inkscape:current-layer="Слой_1" /><g
     id="g6"
     style="fill:#ffffff"
     transform="translate(-12.600002,-33.8)"><g
       id="g4"
       style="fill:#ffffff"><path
         d="m -181.5,416 18.6,-14.2 V 416 c 0,0 -18.6,0 -18.6,0 z m 0,10.6 h 18.6 v 14.2 z m -10.3,-30.9 h 19.8 l -19.8,15 z m -30.3,0 h 19.8 v 15 z m 9.4,20.3 h -18.6 v -14.2 z m 0,10.6 -18.6,14.2 v -14.2 c 0,0 18.6,0 18.6,0 z m 10.3,20.3 h -19.8 l 19.8,-15 z m 30.4,0 h -19.8 v -15 z m 5,0 -25.3,-19.3 c -0.4,-0.3 -1.1,-0.4 -1.6,-0.1 -0.5,0.3 -0.9,0.7 -0.9,1.4 v 18 h -2.3 -2.1 v -18 c 0,-0.6 -0.3,-1.1 -0.9,-1.4 -0.6,-0.3 -1.1,-0.1 -1.6,0.1 l -25.5,19.3 h -4.2 v -2.4 l 24,-18.2 c 0.6,-0.4 0.7,-1.1 0.6,-1.7 -0.1,-0.6 -0.9,-1 -1.4,-1 h -23.2 v -2.3 -2.3 h 23 c 0.7,0 1.3,-0.4 1.4,-1 0.1,-0.6 0,-1.3 -0.6,-1.7 l -23.9,-18.2 v -2.4 h 4.2 l 25.5,19.3 c 0.3,0.1 0.6,0.3 0.9,0.3 0.3,0 0.4,0 0.7,-0.1 0.6,-0.3 0.9,-0.7 0.9,-1.4 v -18 h 2.1 2.1 v 18 c 0,0.6 0.3,1.1 0.9,1.4 0.1,0.1 0.4,0.1 0.7,0.1 0.3,0 0.7,-0.1 0.9,-0.3 l 25.5,-19.3 h 4.2 v 2.4 l -24,18.2 c -0.6,0.4 -0.7,1.1 -0.6,1.7 0.1,0.6 0.7,1 1.4,1 h 23 v 2.3 2.1 H -186 c -0.7,0 -1.3,0.4 -1.4,1 -0.1,0.6 0,1.3 0.6,1.7 l 24,18.3 v 2.4 h -4.2 z m 5.7,-54.2 h -6.2 -25.8 -3.9 -3.7 -25.8 -6.3 c -0.9,0 -1.4,0.7 -1.4,1.4 v 4.7 18.7 3.7 3.7 18.7 4.7 c 0,0.9 0.7,1.6 1.6,1.6 h 6.2 25.8 3.7 3.7 25.8 6.3 c 0.9,0 1.6,-0.7 1.6,-1.6 v -4.7 -18.6 -3.7 -3.7 -18.7 -4.7 c -0.2,-0.8 -0.7,-1.5 -1.6,-1.5"
         id="path2"
         style="fill:#ffffff"
         inkscape:connector-curvature="0" /></g></g></svg>