<?xml version="1.0" encoding="UTF-8" standalone="no"?>
<!-- Generator: Adobe Illustrator 19.0.0, SVG Export Plug-In . SVG Version: 6.00 Build 0)  -->

<svg
   xmlns:dc="http://purl.org/dc/elements/1.1/"
   xmlns:cc="http://creativecommons.org/ns#"
   xmlns:rdf="http://www.w3.org/1999/02/22-rdf-syntax-ns#"
   xmlns:svg="http://www.w3.org/2000/svg"
   xmlns="http://www.w3.org/2000/svg"
   xmlns:sodipodi="http://sodipodi.sourceforge.net/DTD/sodipodi-0.dtd"
   xmlns:inkscape="http://www.inkscape.org/namespaces/inkscape"
   version="1.1"
   id="Слой_1"
   x="0px"
   y="0px"
   viewBox="-247 358.9 92 92"
   xml:space="preserve"
   sodipodi:docname="math.svg"
   width="92"
   height="92"
   inkscape:version="0.92.1 r15371"><metadata
     id="metadata24"><rdf:RDF><cc:Work
         rdf:about=""><dc:format>image/svg+xml</dc:format><dc:type
           rdf:resource="http://purl.org/dc/dcmitype/StillImage" /><dc:title></dc:title></cc:Work></rdf:RDF></metadata><defs
     id="defs22" /><sodipodi:namedview
     pagecolor="#ffffff"
     bordercolor="#666666"
     borderopacity="1"
     objecttolerance="10"
     gridtolerance="10"
     guidetolerance="10"
     inkscape:pageopacity="0"
     inkscape:pageshadow="2"
     inkscape:window-width="1920"
     inkscape:window-height="1028"
     id="namedview20"
     showgrid="false"
     inkscape:zoom="5.3400704"
     inkscape:cx="73.887644"
     inkscape:cy="65.85515"
     inkscape:window-x="1912"
     inkscape:window-y="-8"
     inkscape:window-maximized="1"
     inkscape:current-layer="Слой_1" /><g
     transform="translate(-4,-968.9)"
     id="g17"
     style="fill:#ffffff"><path
       d="m -241.2,1327.8 c -1,0.1 -1.8,1 -1.8,2 v 80 c 0,1 1,2 2,2 h 39.6 c 5.4,5 12.5,8 20.4,8 16.5,0 30,-13.4 30,-30 0,-7.8 -3,-15 -8,-20.3 v -39.7 c 0,-1 -1,-2 -2,-2 -26.7,0 -53.5,0 -80.2,0 z m 2.2,4 h 35.9 v 36 H -239 Z m 40,0 h 36.1 v 34 c -5,-3.8 -11.3,-6 -18,-6 -6.8,0 -13,2.2 -18,6 v -34 z m 13.7,10.9 -2.8,2.8 4.2,4.2 -4.2,4.2 2.8,2.8 4.2,-4.2 4.2,4.2 2.8,-2.8 -4.2,-4.2 4.2,-4.2 -2.8,-2.8 -4.2,4.2 z m -43.7,5.1 v 4 h 16 v -4 z m 48,16 c 14.4,0 26,11.6 26,26 0,14.4 -11.6,26 -26,26 -14.4,0 -26,-11.6 -26,-26 0,-14.4 11.6,-26 26,-26 z m -58,8 h 34 c -3.8,5 -6,11.3 -6,18 0,6.7 2.2,13 6,18 h -34 z m 16,10 v 6 h -6 v 4 h 6 v 6 h 4 v -6 h 6 v -4 h -6 v -6 z m 34,2 v 4 h 16 v -4 z m 0,8 v 4 h 16 v -4 z"
       id="path15"
       style="fill:#ffffff"
       inkscape:connector-curvature="0" /></g></svg>