<?xml version="1.0" encoding="UTF-8" standalone="no"?>
<!-- Generator: Adobe Illustrator 19.0.0, SVG Export Plug-In . SVG Version: 6.00 Build 0)  -->

<svg
   xmlns:dc="http://purl.org/dc/elements/1.1/"
   xmlns:cc="http://creativecommons.org/ns#"
   xmlns:rdf="http://www.w3.org/1999/02/22-rdf-syntax-ns#"
   xmlns:svg="http://www.w3.org/2000/svg"
   xmlns="http://www.w3.org/2000/svg"
   xmlns:sodipodi="http://sodipodi.sourceforge.net/DTD/sodipodi-0.dtd"
   xmlns:inkscape="http://www.inkscape.org/namespaces/inkscape"
   version="1.1"
   id="Слой_1"
   x="0px"
   y="0px"
   viewBox="-247 358.9 86.008003 64.900002"
   xml:space="preserve"
   sodipodi:docname="message.svg"
   width="86.008003"
   height="64.900002"
   inkscape:version="0.92.1 r15371"><metadata
     id="metadata43"><rdf:RDF><cc:Work
         rdf:about=""><dc:format>image/svg+xml</dc:format><dc:type
           rdf:resource="http://purl.org/dc/dcmitype/StillImage" /><dc:title></dc:title></cc:Work></rdf:RDF></metadata><defs
     id="defs41" /><sodipodi:namedview
     pagecolor="#ffffff"
     bordercolor="#666666"
     borderopacity="1"
     objecttolerance="10"
     gridtolerance="10"
     guidetolerance="10"
     inkscape:pageopacity="0"
     inkscape:pageshadow="2"
     inkscape:window-width="1920"
     inkscape:window-height="1028"
     id="namedview39"
     showgrid="false"
     inkscape:zoom="4.8705515"
     inkscape:cx="18.293216"
     inkscape:cy="52.246891"
     inkscape:window-x="1912"
     inkscape:window-y="-8"
     inkscape:window-maximized="1"
     inkscape:current-layer="Слой_1" /><g
     transform="translate(-6.9917788,-982.4)"
     id="g36"
     style="fill:#ffffff"><path
       d="m -188.5,1341.3 c -0.1,0 -0.1,0 -0.2,0 -0.4,0 -0.9,0.2 -1.2,0.6 L -238,1390 c -0.3,0.3 -0.5,0.7 -0.6,1.2 l -1.4,12.8 c -0.1,1.1 0.7,2.1 1.8,2.2 0.1,0 0.3,0 0.4,0 l 12.7,-1.4 c 0.4,0 0.9,-0.2 1.2,-0.6 l 48.1,-48.1 c 0.8,-0.8 0.8,-2 0,-2.8 0,0 0,0 0,0 l -11.3,-11.3 c -0.4,-0.5 -0.9,-0.7 -1.4,-0.7 z m 0,4.9 8.4,8.4 -2.8,2.8 -8.4,-8.4 z m -5.7,5.7 8.4,8.4 -40.5,40.6 -9.5,1 1,-9.5 z m -17.8,50.3 c -1.1,0 -2,0.9 -2,2 0,1.1 0.9,2 2,2 h 56 c 1.1,0 2,-0.9 2,-2 0,-1.1 -0.9,-2 -2,-2 z"
       id="path34"
       inkscape:connector-curvature="0"
       style="fill:#ffffff" /></g></svg>