<?xml version="1.0" encoding="UTF-8" standalone="no"?>
<!-- Generator: Adobe Illustrator 19.0.0, SVG Export Plug-In . SVG Version: 6.00 Build 0)  -->

<svg
   xmlns:dc="http://purl.org/dc/elements/1.1/"
   xmlns:cc="http://creativecommons.org/ns#"
   xmlns:rdf="http://www.w3.org/1999/02/22-rdf-syntax-ns#"
   xmlns:svg="http://www.w3.org/2000/svg"
   xmlns="http://www.w3.org/2000/svg"
   xmlns:sodipodi="http://sodipodi.sourceforge.net/DTD/sodipodi-0.dtd"
   xmlns:inkscape="http://www.inkscape.org/namespaces/inkscape"
   version="1.1"
   id="Слой_1"
   x="0px"
   y="0px"
   viewBox="-247 358.9 44.700001 56"
   xml:space="preserve"
   sodipodi:docname="read.svg"
   width="44.700001"
   height="56"
   inkscape:version="0.92.1 r15371"><metadata
     id="metadata58"><rdf:RDF><cc:Work
         rdf:about=""><dc:format>image/svg+xml</dc:format><dc:type
           rdf:resource="http://purl.org/dc/dcmitype/StillImage" /><dc:title>education_umgewandelt</dc:title></cc:Work></rdf:RDF></metadata><defs
     id="defs56" /><sodipodi:namedview
     pagecolor="#ffffff"
     bordercolor="#666666"
     borderopacity="1"
     objecttolerance="10"
     gridtolerance="10"
     guidetolerance="10"
     inkscape:pageopacity="0"
     inkscape:pageshadow="2"
     inkscape:window-width="1920"
     inkscape:window-height="1028"
     id="namedview54"
     showgrid="false"
     inkscape:zoom="3.776"
     inkscape:cx="58.001569"
     inkscape:cy="56.260777"
     inkscape:window-x="1912"
     inkscape:window-y="-8"
     inkscape:window-maximized="1"
     inkscape:current-layer="Слой_1" /><title
     id="title45">education_umgewandelt</title><g
     id="g51"
     style="fill:#ffffff"
     transform="translate(-27.6,-34.4)"><path
       d="m -174.7,404.6 c 0,-0.8 -0.7,-1.5 -1.5,-1.5 h -0.1 -36.7 v 0 c -1.9,0 -3.4,-1.5 -3.4,-3.4 0,-1.9 1.5,-3.4 3.4,-3.4 h 36 c 0.8,0 1.5,-0.7 1.5,-1.5 0,-0.8 -0.7,-1.5 -1.5,-1.5 v 0 h -36 c -3.5,0 -6.4,2.9 -6.4,6.4 v 0 43 c 0,0 0,0.1 0,0.1 0,0 0,0.1 0,0.1 0,3.5 2.9,6.4 6.4,6.4 0,0 0,0 0,0 v 0 h 36.6 0.1 c 0.8,0 1.5,-0.7 1.5,-1.5 z m -38.2,41.8 v 0 c -1.9,0 -3.4,-1.5 -3.4,-3.4 v 0 c 0,0 0,-0.1 0,-0.1 0,0 0,-0.1 0,-0.1 v -37.6 c 1,0.6 2.2,1 3.4,1 v 0 h 35.3 v 40.2 z"
       id="path47"
       style="fill:#ffffff"
       inkscape:connector-curvature="0" /><path
       d="m -212.3,398.3 c -0.8,0 -1.5,0.7 -1.5,1.5 0,0.8 0.7,1.5 1.5,1.5 h 33.1 c 0.8,0 1.5,-0.7 1.5,-1.5 0,-0.8 -0.7,-1.5 -1.5,-1.5 z"
       id="path49"
       style="fill:#ffffff"
       inkscape:connector-curvature="0" /></g></svg>