<?xml version="1.0" encoding="UTF-8" standalone="no"?>
<!-- Generator: Adobe Illustrator 22.0.1, SVG Export Plug-In . SVG Version: 6.00 Build 0)  -->

<svg
   xmlns:dc="http://purl.org/dc/elements/1.1/"
   xmlns:cc="http://creativecommons.org/ns#"
   xmlns:rdf="http://www.w3.org/1999/02/22-rdf-syntax-ns#"
   xmlns:svg="http://www.w3.org/2000/svg"
   xmlns="http://www.w3.org/2000/svg"
   xmlns:sodipodi="http://sodipodi.sourceforge.net/DTD/sodipodi-0.dtd"
   xmlns:inkscape="http://www.inkscape.org/namespaces/inkscape"
   version="1.1"
   id="Layer_1"
   x="0px"
   y="0px"
   viewBox="0 0 1920 565"
   xml:space="preserve"
   sodipodi:docname="achivmets-bg.svg"
   width="1920"
   height="565"
   inkscape:version="0.92.3 (2405546, 2018-03-11)"><metadata
   id="metadata1410"><rdf:RDF><cc:Work
       rdf:about=""><dc:format>image/svg+xml</dc:format><dc:type
         rdf:resource="http://purl.org/dc/dcmitype/StillImage" /><dc:title /></cc:Work></rdf:RDF></metadata><defs
   id="defs1408" /><sodipodi:namedview
   pagecolor="#ffffff"
   bordercolor="#666666"
   borderopacity="1"
   objecttolerance="10"
   gridtolerance="10"
   guidetolerance="10"
   inkscape:pageopacity="0"
   inkscape:pageshadow="2"
   inkscape:window-width="3840"
   inkscape:window-height="2080"
   id="namedview1406"
   showgrid="false"
   inkscape:zoom="1.1112738"
   inkscape:cx="1448.0976"
   inkscape:cy="288.35637"
   inkscape:window-x="-11"
   inkscape:window-y="-11"
   inkscape:window-maximized="1"
   inkscape:current-layer="Layer_1" />
<style
   type="text/css"
   id="style711">
	.st0{opacity:0.4;}
	.st1{opacity:0.4;fill:#FFFFFF;}
	.st2{fill:#FFFFFF;}
	.st3{opacity:0.5;fill:#FFFFFF;}
</style>




<path
   class="st2"
   d="M 923.15192,365.0457 H 567.37045 c -22.49883,0 -43.69772,8.79954 -59.69689,24.69871 L 361.08119,536.43677 c -14.99922,14.99922 -34.89818,23.29879 -56.09707,23.29879 H 0.09999479 v 4.99974 H 304.88412 c 22.49883,0 43.69772,-8.79954 59.69689,-24.69871 L 511.17338,393.44422 c 14.99922,-14.99922 34.89818,-23.29879 56.09707,-23.29879 h 355.78147 c 10.79944,0 19.59898,8.79955 19.59898,19.59898 v 16.59914 h 4.99974 v -16.59914 c 0.1,-13.59929 -10.99942,-24.69871 -24.49872,-24.69871 z"
   id="path1397"
   inkscape:connector-curvature="0"
   style="fill:#ffffff;stroke-width:0.99994791" /><path
   class="st2"
   d="m 1667.4132,244.55198 -90.2953,95.09504 c -14.8993,15.69919 -35.8982,24.69872 -57.597,24.69872 h -516.1732 c -13.59925,0 -24.59868,11.09942 -24.59868,24.59872 v 25.29868 h 4.99974 v -25.29868 c 0,-10.79944 8.79954,-19.59898 19.59894,-19.59898 h 516.1732 c 22.9988,0 45.2976,-9.5995 61.1968,-26.29863 l 90.2953,-95.09505 c 14.8992,-15.69918 35.8981,-24.69871 57.597,-24.69871 H 1920 v -4.99974 h -191.39 c -22.9988,0 -45.2977,9.5995 -61.1968,26.29863 z"
   id="path1399"
   inkscape:connector-curvature="0"
   style="fill:#ffffff;stroke-width:0.99994791" /><path
   class="st2"
   d="m 942.7509,0.2647 v 23.0988 c 0,10.79943 -8.79954,19.59898 -19.59898,19.59898 H 0.09999479 v 4.99974 H 923.15192 c 13.59929,0 24.59872,-11.09943 24.59872,-24.59872 V 0.2647 Z"
   id="path1401"
   inkscape:connector-curvature="0"
   style="fill:#ffffff;stroke-width:0.99994791" /><path
   class="st2"
   d="m 1671.213,158.45646 -90.7953,-90.79527 c -15.8992,-15.89917 -37.0981,-24.69871 -59.6969,-24.69871 h -517.3731 c -10.7994,0 -19.59894,-8.79955 -19.59894,-19.59898 V 0.46469 h -4.99974 V 23.3635 c 0,13.59929 11.09943,24.59872 24.59868,24.59872 h 517.3731 c 21.1989,0 41.0979,8.29956 56.0971,23.29878 l 90.7952,90.79527 c 15.8992,15.89917 37.0981,24.69872 59.6969,24.69872 H 1920 v -4.99974 h -192.59 c -21.1989,0 -41.1978,-8.29957 -56.197,-23.29879 z"
   id="path1403"
   inkscape:connector-curvature="0"
   style="fill:#ffffff;stroke-width:0.99994791" />
</svg>