<?xml version="1.0" encoding="utf-8"?>
<!-- Generator: Adobe Illustrator 22.0.1, SVG Export Plug-In . SVG Version: 6.00 Build 0)  -->
<svg version="1.1" id="Layer_1" xmlns="http://www.w3.org/2000/svg" xmlns:xlink="http://www.w3.org/1999/xlink" x="0px" y="0px"
	 viewBox="0 0 1920 1954" style="enable-background:new 0 0 1920 1954;" xml:space="preserve">
<style type="text/css">
	.st0{fill:#183342;}
	.st1{fill:#FFFFFF;}
	.st2{fill:none;stroke:url(#SVGID_1_);stroke-linecap:round;stroke-miterlimit:10;}
	.st3{fill:none;stroke:url(#SVGID_2_);stroke-linecap:round;stroke-miterlimit:10;}
	.st4{fill:none;stroke:url(#SVGID_3_);stroke-linecap:round;stroke-miterlimit:10;}
	.st5{fill:none;stroke:url(#SVGID_4_);stroke-linecap:round;stroke-miterlimit:10;}
	.st6{fill:none;stroke:url(#SVGID_5_);stroke-linecap:round;stroke-miterlimit:10;}
	.st7{fill:none;stroke:url(#SVGID_6_);stroke-linecap:round;stroke-miterlimit:10;}
	.st8{fill:none;stroke:url(#SVGID_7_);stroke-linecap:round;stroke-miterlimit:10;}
	.st9{fill:none;stroke:url(#SVGID_8_);stroke-linecap:round;stroke-miterlimit:10;}
	.st10{fill:none;stroke:url(#SVGID_9_);stroke-linecap:round;stroke-miterlimit:10;}
	.st11{fill:none;stroke:url(#SVGID_10_);stroke-linecap:round;stroke-miterlimit:10;}
	.st12{fill:none;stroke:url(#SVGID_11_);stroke-linecap:round;stroke-miterlimit:10;}
	.st13{fill:none;stroke:url(#SVGID_12_);stroke-linecap:round;stroke-miterlimit:10;}
	.st14{fill:none;stroke:url(#SVGID_13_);stroke-linecap:round;stroke-miterlimit:10;}
	.st15{opacity:0.51;fill:#E9EBEB;}
	.st16{fill:none;}
	.st17{opacity:0.7;fill:#FFFFFF;}
	.st18{fill:#E9EBEB;}
	.st19{opacity:0.51;fill:#E1E5E6;}
	.st20{fill:#EEF2F3;}
	.st21{opacity:0.7;fill:#EEF2F3;}
	.st22{opacity:0.7;fill:#E9EBEB;}
	.st23{fill:#83899A;}
	.st24{opacity:0.7;}
	.st25{opacity:0.4;}
	.st26{opacity:0.4;fill:#FFFFFF;}
	.st27{opacity:0.5;fill:#FFFFFF;}
</style>
<g>
	<path class="st0" d="M745.2,1172l-161.9,161.9c-27.7,27.7-65.3,35.2-104.5,35.2l-477,0.1v50l477-0.1c39.2,0,76.8,7.7,104.5,35.4
		l161.9,161.9c27.7,27.7,65.3,43.3,104.5,43.3h271.7v-531H849.7C810.5,1128.7,772.9,1144.3,745.2,1172z"/>
	<g>
		<path class="st1" d="M1436.6,2.1h-268.4c-21.1,0-41.3,8.4-56.2,23.3L988.8,148.6c-14.9,14.9-23.3,35.1-23.3,56.2v266.8
			c0,21.1,8.4,41.3,23.3,56.2L1112,650.9c14.9,14.9,35.1,23.3,56.2,23.3h367.3c25.9,0,50.7,10.3,69,28.6l55.4,55.4
			c18.3,18.3,28.6,43.1,28.6,69v148.8c0,25.9-10.3,50.7-28.6,69l-55.4,55.4c-18.3,18.3-43.1,28.6-69,28.6h-395.9H867.8
			c-39.2,0-76.8,15.6-104.5,43.3l-161.9,161.9c-27.7,27.7-65.3,43.3-104.5,43.3l-495.1,0v34.1l495.1,0c39.2,0,76.8,15.6,104.5,43.3
			l161.9,161.9c27.7,27.7,65.3,43.3,104.5,43.3h271.7h201.1c27.8,0,54.5,11.1,74.2,30.7l232.7,232.7c19.7,19.7,46.4,30.7,74.2,30.7
			h199.8v-294.2v-531l0.6-454.6V2.1h-430.8H1436.6z"/>
	</g>
	<g>
		
			<linearGradient id="SVGID_1_" gradientUnits="userSpaceOnUse" x1="1051.6171" y1="109.6747" x2="1366.8669" y2="109.6747" gradientTransform="matrix(1.0641 -6.410057e-02 -6.410057e-02 1.0641 -138.0767 138.0767)">
			<stop  offset="0" style="stop-color:#C4C4C4"/>
			<stop  offset="0.4073" style="stop-color:#D0E3E3"/>
			<stop  offset="0.762" style="stop-color:#D7F8F8"/>
			<stop  offset="1" style="stop-color:#DAFFFF"/>
		</linearGradient>
		<line class="st2" x1="964.4" y1="354.5" x2="1318.9" y2="0"/>
		
			<linearGradient id="SVGID_2_" gradientUnits="userSpaceOnUse" x1="1043.3408" y1="179.985" x2="1474.1044" y2="179.985" gradientTransform="matrix(1.0487 -4.866187e-02 -4.866187e-02 1.0487 -110.4419 110.4419)">
			<stop  offset="0" style="stop-color:#C4C4C4"/>
			<stop  offset="0.4073" style="stop-color:#D0E3E3"/>
			<stop  offset="0.762" style="stop-color:#D7F8F8"/>
			<stop  offset="1" style="stop-color:#DAFFFF"/>
		</linearGradient>
		<line class="st3" x1="965" y1="473.7" x2="1436.6" y2="2.1"/>
		
			<linearGradient id="SVGID_3_" gradientUnits="userSpaceOnUse" x1="742.475" y1="299.8709" x2="1057.7249" y2="299.8709" gradientTransform="matrix(0.8726 0.1274 0.1274 0.8726 259.2315 -259.2315)">
			<stop  offset="0" style="stop-color:#C4C4C4"/>
			<stop  offset="0.4073" style="stop-color:#D0E3E3"/>
			<stop  offset="0.762" style="stop-color:#D7F8F8"/>
			<stop  offset="1" style="stop-color:#DAFFFF"/>
		</linearGradient>
		<line class="st4" x1="965.8" y1="234.2" x2="1200" y2="0"/>
		
			<linearGradient id="SVGID_4_" gradientUnits="userSpaceOnUse" x1="870.3793" y1="309.6149" x2="1627.3877" y2="309.6149" gradientTransform="matrix(0.8615 0.1385 0.1385 0.8615 164.2971 -164.2971)">
			<stop  offset="0" style="stop-color:#C4C4C4"/>
			<stop  offset="0.4073" style="stop-color:#D0E3E3"/>
			<stop  offset="0.762" style="stop-color:#D7F8F8"/>
			<stop  offset="1" style="stop-color:#DAFFFF"/>
		</linearGradient>
		<line class="st5" x1="1009.8" y1="548.7" x2="1556.4" y2="2.1"/>
		
			<linearGradient id="SVGID_5_" gradientUnits="userSpaceOnUse" x1="1028.8633" y1="300.7823" x2="1726.1504" y2="300.7823" gradientTransform="matrix(0.9355 6.450475e-02 6.450475e-02 0.9355 64.8678 -64.8678)">
			<stop  offset="0" style="stop-color:#C4C4C4"/>
			<stop  offset="0.4073" style="stop-color:#D0E3E3"/>
			<stop  offset="0.762" style="stop-color:#D7F8F8"/>
			<stop  offset="1" style="stop-color:#DAFFFF"/>
		</linearGradient>
		<line class="st6" x1="1069.7" y1="608.6" x2="1676.2" y2="2.1"/>
		
			<linearGradient id="SVGID_6_" gradientUnits="userSpaceOnUse" x1="1167.5675" y1="315.484" x2="1800.2469" y2="315.484" gradientTransform="matrix(1.0167 -1.703070e-02 -1.703070e-02 1.0173 -39.2771 39.9676)">
			<stop  offset="0" style="stop-color:#C4C4C4"/>
			<stop  offset="0.4073" style="stop-color:#D0E3E3"/>
			<stop  offset="0.762" style="stop-color:#D7F8F8"/>
			<stop  offset="1" style="stop-color:#DAFFFF"/>
		</linearGradient>
		<line class="st7" x1="1137.5" y1="668" x2="1790.7" y2="3.3"/>
		
			<linearGradient id="SVGID_7_" gradientUnits="userSpaceOnUse" x1="1323.3063" y1="322.4957" x2="1867.4438" y2="322.4957" gradientTransform="matrix(1.1186 -0.1186 -0.1186 1.1186 -166.6402 166.6402)">
			<stop  offset="0" style="stop-color:#C4C4C4"/>
			<stop  offset="0.4073" style="stop-color:#D0E3E3"/>
			<stop  offset="0.762" style="stop-color:#D7F8F8"/>
			<stop  offset="1" style="stop-color:#DAFFFF"/>
		</linearGradient>
		<line class="st8" x1="1243.7" y1="674.1" x2="1915.7" y2="2.1"/>
		
			<linearGradient id="SVGID_8_" gradientUnits="userSpaceOnUse" x1="1464.5729" y1="360.8579" x2="1889.0343" y2="360.8579" gradientTransform="matrix(1.1596 -0.1596 -0.1596 1.1596 -243.9978 243.9978)">
			<stop  offset="0" style="stop-color:#C4C4C4"/>
			<stop  offset="0.4073" style="stop-color:#D0E3E3"/>
			<stop  offset="0.762" style="stop-color:#D7F8F8"/>
			<stop  offset="1" style="stop-color:#DAFFFF"/>
		</linearGradient>
		<line class="st9" x1="1363.5" y1="674.2" x2="1922.1" y2="115.5"/>
		
			<linearGradient id="SVGID_9_" gradientUnits="userSpaceOnUse" x1="1612.6909" y1="394.2236" x2="1913.7666" y2="394.2236" gradientTransform="matrix(1.2283 -0.2283 -0.2283 1.2283 -373.8913 373.8913)">
			<stop  offset="0" style="stop-color:#C4C4C4"/>
			<stop  offset="0.4073" style="stop-color:#D0E3E3"/>
			<stop  offset="0.762" style="stop-color:#D7F8F8"/>
			<stop  offset="1" style="stop-color:#DAFFFF"/>
		</linearGradient>
		<line class="st10" x1="1483.3" y1="674.2" x2="1920.4" y2="237.1"/>
		
			<linearGradient id="SVGID_10_" gradientUnits="userSpaceOnUse" x1="1766.3014" y1="422.7447" x2="1959.4379" y2="422.7447" gradientTransform="matrix(1.3565 -0.3565 -0.3565 1.3565 -618.7869 618.7869)">
			<stop  offset="0" style="stop-color:#C4C4C4"/>
			<stop  offset="0.4073" style="stop-color:#D0E3E3"/>
			<stop  offset="0.762" style="stop-color:#D7F8F8"/>
			<stop  offset="1" style="stop-color:#DAFFFF"/>
		</linearGradient>
		<line class="st11" x1="1593" y1="692.6" x2="1922.1" y2="363.5"/>
		
			<linearGradient id="SVGID_11_" gradientUnits="userSpaceOnUse" x1="1873.1932" y1="470.7631" x2="1994.4298" y2="470.7631" gradientTransform="matrix(1.5776 -0.6515 -0.5448 1.6175 -1000.056 1128.2106)">
			<stop  offset="0" style="stop-color:#C4C4C4"/>
			<stop  offset="0.4073" style="stop-color:#D0E3E3"/>
			<stop  offset="0.762" style="stop-color:#D7F8F8"/>
			<stop  offset="1" style="stop-color:#DAFFFF"/>
		</linearGradient>
		<line class="st12" x1="1666.6" y1="766.3" x2="1921.8" y2="493.5"/>
		
			<linearGradient id="SVGID_12_" gradientUnits="userSpaceOnUse" x1="1428.3865" y1="996.2725" x2="1729.4623" y2="996.2725" gradientTransform="matrix(0.889 0.111 0.111 0.889 289.4265 -289.4265)">
			<stop  offset="0" style="stop-color:#C4C4C4"/>
			<stop  offset="0.4073" style="stop-color:#D0E3E3"/>
			<stop  offset="0.762" style="stop-color:#D7F8F8"/>
			<stop  offset="1" style="stop-color:#DAFFFF"/>
		</linearGradient>
		<line class="st13" x1="1686.9" y1="888.3" x2="1920.4" y2="654.8"/>
		
			<linearGradient id="SVGID_13_" gradientUnits="userSpaceOnUse" x1="1853.2468" y1="753.5438" x2="2046.3833" y2="753.5438" gradientTransform="matrix(1.3565 -0.3565 -0.3565 1.3565 -618.7869 618.7869)">
			<stop  offset="0" style="stop-color:#C4C4C4"/>
			<stop  offset="0.4073" style="stop-color:#D0E3E3"/>
			<stop  offset="0.762" style="stop-color:#D7F8F8"/>
			<stop  offset="1" style="stop-color:#DAFFFF"/>
		</linearGradient>
		<line class="st14" x1="1593" y1="1110.4" x2="1922.1" y2="781.2"/>
	</g>
</g>
<path class="st15" d="M1071.5,1155.7l-40.3-23.3c-2.9-1.7-6-2.8-9.1-3.6c-0.2-0.1-0.5-0.1-0.7-0.2h-13.3c-0.1,0-0.1,0-0.2,0
	c-3.3,0.7-6.6,1.9-9.6,3.7l-4.5,2.6l-35.7,20.6c-10.2,5.9-16.5,16.8-16.5,28.5v46.5c0,10.2,4.8,19.8,12.7,26
	c1.8,0.7,3.6,1.5,5.3,2.4l34.2,19.7l6.1,3.5c1.3,0.8,2.6,1.6,3.8,2.5c1.4,0.5,2.9,0.9,4.3,1.2c4.7,1,9.5,0.9,14.2-0.1
	c3.2-0.7,6.2-1.9,9.1-3.6l40.3-23.3c10.2-5.9,16.5-16.8,16.5-28.5v-46.5C1088,1172.5,1081.7,1161.6,1071.5,1155.7z"/>
<path class="st16" d="M1450.3,1128.7h13.3C1459.2,1127.8,1454.7,1127.8,1450.3,1128.7z"/>
<path class="st16" d="M1302.9,1128.7h13.3C1311.8,1127.8,1307.3,1127.8,1302.9,1128.7z"/>
<path class="st16" d="M1155.5,1128.7h13.3C1164.5,1127.8,1159.9,1127.8,1155.5,1128.7z"/>
<path class="st16" d="M1008.2,1128.7h13.3C1017.1,1127.8,1012.5,1127.8,1008.2,1128.7z"/>
<path class="st16" d="M1621.3,1897l-12-12C1612.2,1889.9,1616.3,1894,1621.3,1897z"/>
<path class="st16" d="M1378.9,1666.9c-3.9-1.5-7.9-2.8-12-3.9C1370.6,1665.1,1374.7,1666.4,1378.9,1666.9z"/>
<path class="st1" d="M1663.5,1257c8.4-3.6,17.9-3.6,26.3,0c-8.2-6.2-13.1-15.9-13.1-26.3C1676.6,1241.1,1671.7,1250.9,1663.5,1257z"
	/>
<path class="st1" d="M1294.6,1385.1c9.4-4.8,20.6-4.8,30,0c-9.3-6.1-15-16.4-15-27.6C1309.6,1368.6,1303.9,1379,1294.6,1385.1z"/>
<path class="st1" d="M886.4,1386l7.2,4.2v0L886.4,1386c-10.2-5.9-16.5-16.8-16.5-28.5V1311c0-11.8,6.3-22.6,16.5-28.5l7.2-4.2v-1.4
	l-9.7,5.6c-8.5,4.9-18.6,5.7-27.6,2.4c8,6.2,12.7,15.8,12.7,26v46.5c0,11.8-6.3,22.6-16.5,28.5l-28.8,16.6v0.6l29.7-17.2
	C863.6,1380.1,876.2,1380.1,886.4,1386z"/>
<path class="st1" d="M1008,1379.4v3.1c4.6-1.2,9.5-1.4,14.2-0.6v-5c-3.2-4.4-5.4-9.6-6.1-15.1
	C1015.2,1368.4,1012.3,1374.5,1008,1379.4z"/>
<path class="st17" d="M1660.2,1408.8l-40.3-23.3c-10.2-5.9-16.5-16.8-16.5-28.5v0.5c0,11.2-5.7,21.6-15,27.6
	c9.9-5.1,21.8-4.8,31.5,0.8l40.3,23.3c10.2,5.9,16.5,16.8,16.5,28.5v-0.3c0-11.8,6.3-22.6,16.5-28.5
	C1682.9,1414.7,1670.4,1414.7,1660.2,1408.8z"/>
<path class="st1" d="M1515.2,1511.9c9.9-5.1,21.7-4.8,31.4,0.8c-10.2-5.9-16.5-16.8-16.5-28.5v0.1
	C1530.2,1495.5,1524.5,1505.8,1515.2,1511.9z"/>
<path class="st1" d="M1105.4,1409.2c-3.9,2.2-8.1,3.6-12.4,4.2v10.5c2.8-6,7.4-11.2,13.4-14.6l0.8-0.5v-0.6L1105.4,1409.2z"/>
<polygon class="st1" points="1107.2,1408.2 1107.2,1408.8 1121.4,1400.6 1121.4,1400.1 "/>
<path class="st17" d="M1603.4,1564.5c0-11.8,6.3-22.6,16.5-28.5c-10.2,5.9-22.8,5.9-32.9,0
	C1597.1,1541.8,1603.4,1552.7,1603.4,1564.5z"/>
<polygon class="st1" points="1107.2,1154.7 1121.4,1146.5 1121.4,1128.7 1107.2,1128.7 "/>
<path class="st1" d="M1089.9,1484.3v-46.5c0-4.9,1.1-9.6,3.1-13.9v-10.5c-5.8,0.7-11.7-0.1-17.2-2.5c8.5,6.2,13.7,16.1,13.7,26.7
	v46.5c0,11.8-6.3,22.6-16.5,28.5l-40.3,23.3c-3.4,1.9-7,3.2-10.7,3.9v7.1c2.8-4.1,6.5-7.7,10.9-10.3l40.3-23.3
	c6-3.5,12.9-4.9,19.7-4.2v-11C1091,1493.9,1089.9,1489.2,1089.9,1484.3z"/>
<path class="st1" d="M926.7,1409.2c10.2,5.9,16.5,16.8,16.5,28.5v-0.1c0-11.2,5.7-21.6,15-27.6
	C948.2,1415.1,936.4,1414.8,926.7,1409.2l-4.7-2.7v0L926.7,1409.2z"/>
<polygon class="st1" points="921.9,1406.5 921.9,1406.5 907.8,1398.3 907.8,1398.3 "/>
<path class="st1" d="M1145.7,1132.4c3.1-1.8,6.4-3,9.8-3.7h-16.1h-18.1v17.8L1145.7,1132.4z"/>
<polygon class="st1" points="893.6,1531.9 893.6,1533 907.8,1524.8 907.8,1523.7 "/>
<polygon class="st1" points="907.8,1523.7 907.8,1524.8 921.9,1516.6 921.9,1515.5 "/>
<path class="st1" d="M1106.4,1512.8c-6-3.4-10.6-8.6-13.4-14.6v11c4.6,0.4,9.2,1.8,13.3,4.2l0.9,0.5v-0.6L1106.4,1512.8z"/>
<path class="st1" d="M959.6,1512.7c-10.2-5.9-16.5-16.8-16.5-28.5v0.1c0,11.8-6.3,22.6-16.5,28.5l-4.7,2.7v1.1l5.6-3.2
	c10.2-5.9,22.8-5.9,32.9,0l33.3,19.2v-0.2L959.6,1512.7z"/>
<path class="st1" d="M1008,1542.3v-3c-2.8-0.7-5.5-1.8-8.1-3.3l-6.1-3.5v0.2l7,4C1003.5,1538.2,1005.9,1540.1,1008,1542.3z"/>
<path class="st1" d="M1530.2,1230.7c0,11.4-5.9,21.9-15.5,27.9c9.7-5.2,21.3-5.2,31,0C1536.1,1252.6,1530.2,1242.1,1530.2,1230.7z"
	/>
<path class="st1" d="M1016,1306.6c0.7-5.5,2.9-10.7,6.1-15.1v-5.4c-4.7,1.1-9.5,1.1-14.2,0.1v2.8
	C1012.3,1293.9,1015.2,1300,1016,1306.6z"/>
<path class="st1" d="M1008,1289v-2.8c-1.5-0.3-2.9-0.7-4.3-1.2C1005.2,1286.2,1006.7,1287.5,1008,1289z"/>
<path class="st1" d="M1587.9,1283c9.6,6,15.5,16.5,15.5,27.9v-0.5c0-10.4,4.9-20.1,13.1-26.3
	C1607.4,1288.2,1596.8,1287.8,1587.9,1283z"/>
<polygon class="st1" points="1107.2,1513.9 1121.4,1522.1 1121.4,1521.4 1107.2,1513.3 "/>
<path class="st1" d="M1309.6,1311c0-11.4,5.9-21.9,15.5-27.9c-9.7,5.2-21.3,5.2-31,0C1303.7,1289,1309.6,1299.6,1309.6,1311z"/>
<polygon class="st1" points="907.8,1398.3 893.6,1390.1 893.6,1390.1 907.8,1398.3 "/>
<path class="st1" d="M887.3,1536.6l6.3-3.6v-1.1l-7.2,4.2c-9.2,5.3-20.3,5.8-29.9,1.5c8,5.2,13.4,13.7,14.6,23.1
	C872.5,1550.7,878.4,1541.8,887.3,1536.6z"/>
<path class="st17" d="M1218.9,1155.7c10.2,5.9,16.5,16.8,16.5,28.5v46.5c0,11.8-6.3,22.6-16.5,28.5l-40.3,23.3
	c-9.9,5.7-21.9,5.9-32,0.5c9.6,6,15.5,16.5,15.5,27.9v46.5c0,11.8-6.3,22.6-16.5,28.5l-24.4,14.1v0.6l25.3-14.6
	c10.2-5.9,22.8-5.9,32.9,0l40.3,23.3c10.2,5.9,16.5,16.8,16.5,28.5v-0.1c0-11.2,5.7-21.6,15-27.6c-9.9,5.1-21.8,4.8-31.5-0.8
	l-40.3-23.3c-10.2-5.9-16.5-16.8-16.5-28.5V1311c0-11.8,6.3-22.6,16.5-28.5l40.3-23.3c9.9-5.7,21.9-5.9,32-0.5
	c-9.6-6-15.5-16.5-15.5-27.9v-46.5c0-11.8,6.3-22.6,16.5-28.5l40.3-23.3c3.1-1.8,6.4-3,9.8-3.7h-134.1c3.4,0.7,6.7,1.9,9.8,3.7
	L1218.9,1155.7z"/>
<path class="st1" d="M1008,1539.3v3c4.8,5,8,11.4,8.9,18.4c0.7-5,2.5-9.7,5.2-13.8v-7.1C1017.4,1540.7,1012.6,1540.5,1008,1539.3z"
	/>
<path class="st18" d="M1033.1,1640.2c-4.5-2.6-8.2-6.1-10.9-10.3c-2.7-4.1-4.5-8.8-5.2-13.8c-1,7-4.1,13.4-8.9,18.4
	c-2.1,2.2-4.5,4.1-7.2,5.7l-7,4l-26.8,15.5h26.8h14.2h14.2h44.7L1033.1,1640.2z"/>
<path class="st1" d="M1093,1246.5v8.5c4,0.5,7.8,1.7,11.4,3.6C1099.6,1255.6,1095.7,1251.4,1093,1246.5z"/>
<polygon class="st1" points="907.8,1270.1 907.8,1268.7 893.6,1276.9 893.6,1278.3 "/>
<path class="st18" d="M907.8,1652l-14.2-8.2l-6.3-3.6c-8.9-5.1-14.8-14.1-16.2-24.1c-1.4,10-7.3,18.9-16.2,24.1l-25.1,14.5
	c12.3,3.3,25,5,38,5h25.8h14.2H921L907.8,1652z"/>
<path class="st1" d="M1022.1,1128.7h-0.7c0.2,0,0.5,0.1,0.7,0.2V1128.7z"/>
<path class="st19" d="M1733.4,1535.6l-40.3-23.3c-10.2-5.9-16.5-16.8-16.5-28.5v0.3c0,11.8-6.3,22.6-16.5,28.5
	c10.2-5.9,22.8-5.9,32.9,0l40.3,23.3c10.2,5.9,16.5,16.8,16.5,28.5v46.5c0,11.8-6.3,22.6-16.5,28.5l-40.3,23.3
	c-10.2,5.9-22.8,5.9-32.9,0l-40.3-23.3c-10.2-5.9-16.5-16.8-16.5-28.5c0,11.8-6.3,22.6-16.5,28.5l-40.3,23.3
	c-10.2,5.9-22.8,5.9-32.9,0l-40.3-23.3c-10.2-5.9-16.5-16.8-16.5-28.5v-46.5c0-11.2,5.7-21.5,15-27.6c-9.9,5.1-21.7,4.8-31.4-0.8
	l-40.3-23.3c-10.2-5.9-16.5-16.8-16.5-28.5v-46.5c0-11.8,6.3-22.6,16.5-28.5l40.3-23.3c10.2-5.9,22.8-5.9,32.9,0l40.3,23.3
	c10.2,5.9,16.5,16.8,16.5,28.5v-0.1c0-11.2,5.7-21.6,15-27.6c-9.9,5.1-21.8,4.8-31.5-0.8l-40.3-23.3c-10.2-5.9-16.5-16.8-16.5-28.5
	V1311c0-11.4,5.9-21.9,15.5-27.9c-10,5.3-22.1,5.2-32-0.5l-40.3-23.3c-10.2-5.9-16.5-16.8-16.5-28.5v-46.5
	c0-11.8,6.3-22.6,16.5-28.5l40.3-23.3c3.1-1.8,6.4-3,9.8-3.7h-134.1c3.4,0.7,6.7,1.9,9.8,3.7l40.3,23.3
	c10.2,5.9,16.5,16.8,16.5,28.5v46.5c0,11.4-5.9,21.9-15.5,27.9c10-5.3,22.1-5.2,32,0.5l40.3,23.3c10.2,5.9,16.5,16.8,16.5,28.5v46.5
	c0,11.8-6.3,22.6-16.5,28.5l-40.3,23.3c-9.7,5.6-21.5,5.9-31.5,0.8c9.3,6.1,15,16.4,15,27.6v46.5c0,11.8-6.3,22.6-16.5,28.5
	c10.2-5.9,22.8-5.9,32.9,0l40.3,23.3c10.2,5.9,16.5,16.8,16.5,28.5v46.5c0,11.8-6.3,22.6-16.5,28.5l-40.3,23.3
	c-6.3,3.6-13.5,5-20.4,4.2c13.3,5.2,25.6,13.2,35.9,23.5l194.6,194.6c-2.9-4.9-4.4-10.6-4.4-16.5V1822c0-11.8,6.3-22.6,16.5-28.5
	l40.3-23.3c10.2-5.9,22.8-5.9,32.9,0l40.3,23.3c10.2,5.9,16.5,16.8,16.5,28.5v46.5c0,11.8-6.3,22.6-16.5,28.5l-40.3,23.3
	c-10.2,5.9-22.8,5.9-32.9,0l-40.3-23.3c0,0,0,0,0,0l26.2,26.2c19.7,19.7,46.4,30.7,74.2,30.7h65.1v-174.1l-20.5,11.9
	c-10.2,5.9-22.8,5.9-32.9,0l-40.3-23.3c-10.2-5.9-16.5-16.8-16.5-28.5c0,11.8-6.3,22.6-16.5,28.5l-40.3,23.3
	c-10.2,5.9-22.8,5.9-32.9,0l-40.3-23.3c-10.2-5.9-16.5-16.8-16.5-28.5v-46.5c0-11.8,6.3-22.6,16.5-28.5l40.3-23.3
	c10.2-5.9,22.8-5.9,32.9,0l40.3,23.3c10.2,5.9,16.5,16.8,16.5,28.5c0-11.8,6.3-22.6,16.5-28.5l40.3-23.3c10.2-5.9,22.8-5.9,32.9,0
	l20.5,11.9v-129.7l-20.5,11.9C1756.1,1541.5,1743.6,1541.5,1733.4,1535.6z"/>
<path class="st1" d="M1326.1,1639.5c-10.2-5.9-16.5-16.8-16.5-28.5v-46.5c0-11.8,6.3-22.6,16.5-28.5c-10.2,5.9-22.8,5.9-32.9,0
	l-40.3-23.3c-10.2-5.9-16.5-16.8-16.5-28.5v0.1c0,11.8-6.3,22.6-16.5,28.5l-40.3,23.3c-10.2,5.9-22.8,5.9-32.9,0l-25.3-14.6v0.6
	l25.2,14.6c8.9,5.1,14.8,14.1,16.2,24.1c1.4-10,7.3-18.9,16.2-24.1l40.3-23.3c10.2-5.9,22.8-5.9,32.9,0l40.3,23.3
	c10.2,5.9,16.5,16.8,16.5,28.5v46.5c0,11.8-6.3,22.6-16.5,28.5l-33.7,19.5h81.9c8.9,0,17.8,1.1,26.3,3.3c-0.2-0.1-0.4-0.2-0.5-0.3
	L1326.1,1639.5z"/>
<path class="st1" d="M1029.5,1384.2c-2.8-2-5.3-4.5-7.3-7.2v5C1024.6,1382.4,1027.1,1383.2,1029.5,1384.2z"/>
<path class="st17" d="M1766.3,1282.5c-9.1,5.3-20.1,5.8-29.6,1.7c8.2,6.2,13.1,15.9,13.1,26.3v46.5c0,11.8-6.3,22.6-16.5,28.5
	c10.2-5.9,22.8-5.9,32.9,0l20.5,11.9v-126.7L1766.3,1282.5z"/>
<polygon class="st1" points="907.8,1270.1 921.9,1261.9 921.9,1260.5 907.8,1268.7 "/>
<polygon class="st1" points="1112.8,1659.7 1121.4,1659.7 1121.4,1654.8 "/>
<path class="st1" d="M1162.8,1616.1c-1.4,10-7.3,18.9-16.2,24.1l-25.2,14.6v4.9h18.1h73.2l-33.7-19.5
	C1170,1635.1,1164.1,1626.1,1162.8,1616.1z"/>
<path class="st1" d="M1105.4,1155.7l1.7-1v-26H1093v39.7C1095.9,1163.2,1100.1,1158.8,1105.4,1155.7z"/>
<path class="st1" d="M1001.4,1385.1c2.1-1.1,4.3-1.9,6.6-2.5v-3.1C1006.1,1381.5,1003.8,1383.5,1001.4,1385.1z"/>
<path class="st1" d="M998.3,1132.4c3-1.8,6.3-3,9.6-3.7v0h-14.2v6.3L998.3,1132.4z"/>
<path class="st1" d="M1008.2,1128.7h-0.2v0C1008,1128.7,1008.1,1128.7,1008.2,1128.7z"/>
<polygon class="st20" points="921.9,1154.4 921.9,1128.7 907.8,1128.7 907.8,1146.2 "/>
<polygon class="st20" points="907.8,1146.2 907.8,1128.7 893.6,1128.7 893.6,1138 "/>
<path class="st21" d="M924.2,1155.7c10.2,5.9,16.5,16.8,16.5,28.5v46.5c0,11.8-6.3,22.6-16.5,28.5l-2.2,1.3v1.4l4.7-2.7
	c8.5-4.9,18.6-5.7,27.6-2.4c-8-6.2-12.7-15.8-12.7-26v-46.5c0-11.8,6.3-22.6,16.5-28.5l35.7-20.6v-6.3h-71.9v25.7L924.2,1155.7z"/>
<path class="st17" d="M1031.3,1132.4l40.3,23.3c10.2,5.9,16.5,16.8,16.5,28.5v46.5c0,11.8-6.3,22.6-16.5,28.5l-40.3,23.3
	c-2.9,1.7-6,2.8-9.1,3.6v5.4c2.7-3.6,6.1-6.7,10.1-9.1l40.3-23.3c6.3-3.6,13.5-5,20.5-4.2v-8.5c-2.6-4.8-4-10.2-4-15.8v-46.5
	c0-5.6,1.4-11,4-15.8v-39.7h-70.9v0.2C1025.3,1129.6,1028.4,1130.8,1031.3,1132.4z"/>
<path class="st18" d="M722.5,1311c0-11.8,6.3-22.6,16.5-28.5l40.3-23.3c8.5-4.9,18.6-5.7,27.6-2.4c-8-6.2-12.7-15.8-12.7-26v-46.5
	c0-11.8,6.3-22.6,16.5-28.5l13.1-7.5v-12.7c-22.6,7.1-43.4,19.5-60.4,36.5l-91,91l33.7,19.5C716.2,1288.3,722.5,1299.2,722.5,1311z"
	/>
<path class="st18" d="M850.9,1132.4c2.8-1.6,5.8-2.8,8.9-3.5c-12.3,0.7-24.4,2.9-36.1,6.5v12.7L850.9,1132.4z"/>
<path class="st1" d="M741.4,1536.6l40.3-23.3c9.2-5.3,20.3-5.8,29.9-1.5c-9.3-6.1-14.9-16.4-14.9-27.6v-46.5
	c0-11.8,6.3-22.6,16.5-28.5l10.6-6.1v-0.6l-11.5,6.6c-10.2,5.9-22.8,5.9-32.9,0L739,1386c-10.2-5.9-16.5-16.8-16.5-28.5
	c0,11.8-6.3,22.6-16.5,28.5l-40.3,23.3c-10.2,5.9-22.8,5.9-32.9,0l-40.3-23.3c-10.2-5.9-16.5-16.8-16.5-28.5v-3.3
	c-23.5,14.9-50.9,23-79.1,23l-496.9,0v34.1l496.9,0c39.2,0,76.8,15.6,104.5,43.3L725,1578.1v-12.9
	C725,1553.4,731.2,1542.5,741.4,1536.6z M706,1536.1l-40.3-23.3c-10.2-5.9-16.5-16.8-16.5-28.5v-46.5c0-11.8,6.3-22.6,16.5-28.5
	L706,1386c10.2-5.9,22.8-5.9,32.9,0l40.3,23.3c10.2,5.9,16.5,16.8,16.5,28.5v46.5c0,11.8-6.3,22.6-16.5,28.5l-40.3,23.3
	C728.8,1541.9,716.2,1541.9,706,1536.1z"/>
<path class="st20" d="M893.6,1138v-9.3h-19.5c3.4,0.7,6.7,1.9,9.8,3.7L893.6,1138z"/>
<path class="st21" d="M1015.8,1311c0-1.5,0.1-3,0.3-4.4c-0.9-6.6-3.7-12.7-8.1-17.5c-1.3-1.5-2.8-2.8-4.3-4.1
	c-1.8-0.7-3.6-1.5-5.3-2.4l-4.5-2.6l-35.7-20.6c-1.3-0.8-2.6-1.6-3.8-2.5c-9-3.3-19.2-2.5-27.6,2.4l-4.7,2.7l-14.2,8.2l-14.2,8.2
	l-7.2,4.2c-10.2,5.9-16.5,16.8-16.5,28.5v46.5c0,11.8,6.3,22.6,16.5,28.5l7.2,4.2l14.2,8.2l14.2,8.2l4.7,2.7
	c9.7,5.6,21.5,5.9,31.5,0.8c0.5-0.3,1-0.6,1.5-0.9l34.2-19.7l6.1-3.5c0.5-0.3,1-0.5,1.5-0.8c2.5-1.6,4.7-3.5,6.6-5.7
	c4.3-4.9,7.2-11,8.1-17.5c-0.2-1.4-0.3-2.9-0.3-4.4V1311z"/>
<path class="st17" d="M926.7,1409.2l-4.7-2.7l-14.2-8.2l-14.2-8.2l-7.2-4.2c-10.2-5.9-22.8-5.9-32.9,0l-29.7,17.2l-10.6,6.1
	c-10.2,5.9-16.5,16.8-16.5,28.5v46.5c0,11.2,5.7,21.5,14.9,27.6c1,0.5,2,1,3,1.5l9.1,5.2l31.2,18c0.5,0.3,1,0.6,1.5,1
	c9.6,4.3,20.7,3.8,29.9-1.5l7.2-4.2l14.2-8.2l14.2-8.2l4.7-2.7c10.2-5.9,16.5-16.8,16.5-28.5v-0.1v-46.4
	C943.1,1426,936.8,1415.1,926.7,1409.2z"/>
<path class="st22" d="M779.3,1512.8c10.2-5.9,16.5-16.8,16.5-28.5v-46.5c0-11.8-6.3-22.6-16.5-28.5L739,1386
	c-10.2-5.9-22.8-5.9-32.9,0l-40.3,23.3c-10.2,5.9-16.5,16.8-16.5,28.5v46.5c0,11.8,6.3,22.6,16.5,28.5l40.3,23.3
	c10.2,5.9,22.8,5.9,32.9,0L779.3,1512.8z"/>
<path class="st21" d="M592.5,1386l40.3,23.3c10.2,5.9,22.8,5.9,32.9,0L706,1386c10.2-5.9,16.5-16.8,16.5-28.5V1311
	c0-11.8-6.3-22.6-16.5-28.5l-33.7-19.5l-70.9,70.9c-7.7,7.7-16.2,14.5-25.3,20.3v3.3C576.1,1369.2,582.4,1380.1,592.5,1386z"/>
<path class="st1" d="M999.9,1386c0.5-0.3,1-0.6,1.5-0.9c-0.5,0.3-1,0.5-1.5,0.8l-6.1,3.5v0.1L999.9,1386z"/>
<path class="st1" d="M993.8,1389.5v-0.1l-34.2,19.7c-0.5,0.3-1,0.6-1.5,0.9c0.5-0.3,1-0.5,1.5-0.8L993.8,1389.5z"/>
<path class="st21" d="M1219.9,1409.2l-40.3-23.3c-10.2-5.9-22.8-5.9-32.9,0l-25.3,14.6l-14.2,8.2l-0.8,0.5
	c-6,3.4-10.6,8.6-13.4,14.6c-2,4.3-3.1,9-3.1,13.9v46.5c0,4.9,1.1,9.6,3.1,13.9c2.8,6,7.4,11.2,13.4,14.6l0.8,0.5l14.2,8.2
	l25.3,14.6c10.2,5.9,22.8,5.9,32.9,0l40.3-23.3c10.2-5.9,16.5-16.8,16.5-28.5v-0.1v-46.4C1236.4,1426,1230.1,1415.1,1219.9,1409.2z"
	/>
<path class="st1" d="M1146.7,1283c-0.3-0.2-0.7-0.3-1-0.5l-24.4-14.1l-14.2-8.2l-1.7-1c-0.3-0.2-0.7-0.4-1-0.6
	c-3.6-1.9-7.5-3.1-11.4-3.6c-7-0.9-14.2,0.5-20.5,4.2l-40.3,23.3c-4,2.3-7.4,5.4-10.1,9.1c-3.2,4.4-5.4,9.6-6.1,15.1
	c0.2,1.4,0.3,2.9,0.3,4.4v46.5c0,1.5-0.1,3-0.3,4.4c0.7,5.5,2.9,10.7,6.1,15.1c2,2.8,4.5,5.2,7.3,7.2c1.1,0.5,2.3,1,3.4,1.7
	l40.3,23.3c1,0.6,1.9,1.2,2.8,1.8c5.4,2.4,11.4,3.2,17.2,2.5c4.3-0.5,8.5-1.9,12.4-4.2l1.7-1l14.2-8.2l24.4-14.1
	c10.2-5.9,16.5-16.8,16.5-28.5V1311C1162.2,1299.6,1156.3,1289,1146.7,1283z"/>
<path class="st1" d="M1015.8,1357.5c0,1.5,0.1,3,0.3,4.4c0.2-1.4,0.3-2.9,0.3-4.4V1311c0-1.5-0.1-3-0.3-4.4
	c-0.2,1.4-0.3,2.9-0.3,4.4V1357.5z"/>
<path class="st1" d="M1032.8,1385.9c-1.1-0.6-2.2-1.2-3.4-1.7c0.9,0.6,1.8,1.3,2.8,1.8l40.3,23.3c1.1,0.6,2.2,1.2,3.4,1.7
	c-0.9-0.6-1.8-1.3-2.8-1.8L1032.8,1385.9z"/>
<path class="st17" d="M1326.1,1386c-0.5-0.3-1-0.6-1.5-0.9c-9.4-4.8-20.6-4.8-30,0c-0.5,0.3-1,0.6-1.5,0.9l-40.3,23.3
	c-0.5,0.3-1,0.5-1.5,0.8c-9.3,6.1-15,16.4-15,27.6v0.1v46.4c0,11.8,6.3,22.6,16.5,28.5l40.3,23.3c10.2,5.9,22.8,5.9,32.9,0
	l40.3-23.3c10.2-5.9,16.5-16.8,16.5-28.5v-46.5c0-11.2-5.7-21.6-15-27.6c-0.5-0.3-1-0.5-1.5-0.8L1326.1,1386z"/>
<path class="st1" d="M1252.8,1409.1c-0.5,0.3-1,0.6-1.5,0.9c0.5-0.3,1-0.5,1.5-0.8l40.3-23.3c0.5-0.3,1-0.6,1.5-0.9
	c-0.5,0.3-1,0.5-1.5,0.8L1252.8,1409.1z"/>
<path class="st17" d="M1586.9,1385.9c0.5-0.3,1-0.5,1.5-0.8c9.3-6.1,15-16.4,15-27.6v-0.5v-46c0-11.4-5.9-21.9-15.5-27.9
	c-0.3-0.2-0.7-0.3-1-0.5l-40.3-23.3c-0.3-0.2-0.7-0.4-1-0.6c-9.7-5.2-21.3-5.2-31,0c-0.3,0.2-0.7,0.4-1,0.6l-40.3,23.3
	c-0.3,0.2-0.7,0.4-1,0.5c-9.6,6-15.5,16.5-15.5,27.9v46.5c0,11.8,6.3,22.6,16.5,28.5l40.3,23.3c9.7,5.6,21.5,5.9,31.5,0.8
	c0.5-0.3,1-0.6,1.5-0.9L1586.9,1385.9z"/>
<path class="st21" d="M1513.7,1259.2c0.3-0.2,0.7-0.4,1-0.5c9.6-6,15.5-16.5,15.5-27.9v-46.5c0-11.8-6.3-22.6-16.5-28.5l-40.3-23.3
	c-3.1-1.8-6.4-3-9.8-3.7h-13.3c-3.4,0.7-6.7,1.9-9.8,3.7l-40.3,23.3c-10.2,5.9-16.5,16.8-16.5,28.5v46.5c0,11.8,6.3,22.6,16.5,28.5
	l40.3,23.3c9.9,5.7,21.9,5.9,32,0.5c0.3-0.2,0.7-0.4,1-0.6L1513.7,1259.2z"/>
<path class="st1" d="M1513.7,1259.3c0.3-0.2,0.7-0.4,1-0.6C1514.4,1258.8,1514,1259,1513.7,1259.3l-40.3,23.2
	c-0.3,0.2-0.7,0.4-1,0.6c0.3-0.2,0.7-0.3,1-0.5L1513.7,1259.3z"/>
<path class="st17" d="M1293.1,1132.4l-40.3,23.3c-10.2,5.9-16.5,16.8-16.5,28.5v46.5c0,11.4,5.9,21.9,15.5,27.9
	c0.3,0.2,0.7,0.3,1,0.5l40.3,23.3c0.3,0.2,0.7,0.4,1,0.6c9.7,5.2,21.3,5.2,31,0c0.3-0.2,0.7-0.4,1-0.6l40.3-23.3
	c0.3-0.2,0.7-0.4,1-0.5c9.6-6,15.5-16.5,15.5-27.9v-46.5c0-11.8-6.3-22.6-16.5-28.5l-40.3-23.3c-3.1-1.8-6.4-3-9.8-3.7h-13.3
	C1299.5,1129.4,1296.2,1130.6,1293.1,1132.4z"/>
<path class="st1" d="M1293.1,1282.5c0.3,0.2,0.7,0.4,1,0.5C1293.8,1282.8,1293.5,1282.6,1293.1,1282.5l-40.3-23.3
	c-0.3-0.2-0.7-0.4-1-0.5c0.3,0.2,0.7,0.4,1,0.6L1293.1,1282.5z"/>
<path class="st21" d="M1218.9,1155.7l-40.3-23.3c-3.1-1.8-6.4-3-9.8-3.7h-13.3c-3.4,0.7-6.7,1.9-9.8,3.7l-24.4,14.1l-14.2,8.2
	l-1.7,1c-5.3,3.1-9.6,7.5-12.4,12.8c-2.6,4.8-4,10.2-4,15.8v46.5c0,5.6,1.4,11,4,15.8c2.7,4.9,6.6,9.1,11.4,12.1
	c0.3,0.2,0.7,0.3,1,0.5l1.7,1l14.2,8.2l24.4,14.1c0.3,0.2,0.7,0.4,1,0.6c10,5.3,22.1,5.2,32-0.5l40.3-23.3
	c10.2-5.9,16.5-16.8,16.5-28.5v-46.5C1235.4,1172.5,1229.1,1161.6,1218.9,1155.7z"/>
<path class="st1" d="M1145.7,1282.5c0.3,0.2,0.7,0.4,1,0.5C1146.4,1282.8,1146.1,1282.6,1145.7,1282.5l-24.4-14.2v0.1L1145.7,1282.5
	z"/>
<polygon class="st1" points="1107.2,1260.3 1121.4,1268.4 1121.4,1268.4 1107.2,1260.2 "/>
<path class="st1" d="M1105.4,1259.2c-0.3-0.2-0.7-0.4-1-0.5C1104.8,1258.8,1105.1,1259.1,1105.4,1259.2l1.7,1.1v-0.1L1105.4,1259.2z
	"/>
<path class="st1" d="M1003.6,1285c-1.2-0.9-2.4-1.8-3.8-2.5l-6.1-3.5v1l4.5,2.6C1000,1283.5,1001.8,1284.3,1003.6,1285z"/>
<path class="st1" d="M993.8,1279.9v-1l-34.2-19.7c-1.7-1-3.5-1.8-5.3-2.4c1.2,0.9,2.4,1.8,3.8,2.5L993.8,1279.9z"/>
<path class="st17" d="M924.2,1155.7l-2.2-1.3l-14.2-8.2l-14.2-8.2l-9.7-5.6c-3.1-1.8-6.4-3-9.8-3.7c-4.7-1-9.6-0.9-14.3,0.2
	c-3.1,0.7-6.1,1.9-8.9,3.5l-27.2,15.7l-13.1,7.5c-10.2,5.9-16.5,16.8-16.5,28.5v46.5c0,10.2,4.8,19.8,12.7,26
	c1.8,0.7,3.6,1.5,5.3,2.4l11.5,6.6l28.8,16.6c1.3,0.8,2.6,1.6,3.8,2.5c9,3.3,19.2,2.5,27.6-2.4l9.7-5.6l14.2-8.2l14.2-8.2l2.2-1.3
	c10.2-5.9,16.5-16.8,16.5-28.5v-46.5C940.6,1172.5,934.3,1161.6,924.2,1155.7z"/>
<path class="st1" d="M850.9,1282.5c1.7,1,3.5,1.8,5.3,2.4c-1.2-0.9-2.4-1.8-3.8-2.5l-28.8-16.6v1L850.9,1282.5z"/>
<path class="st1" d="M823.7,1266.8v-1l-11.5-6.6c-1.7-1-3.5-1.8-5.3-2.4c1.2,0.9,2.4,1.8,3.8,2.5L823.7,1266.8z"/>
<path class="st21" d="M1308.9,1611.7v-46.5c0-11.8-6.3-22.6-16.5-28.5l-40.3-23.3c-10.2-5.9-22.8-5.9-32.9,0l-40.3,23.3
	c-8.9,5.1-14.8,14.1-16.2,24.1c0.2,1.5,0.3,3,0.3,4.5v46.5c0,1.5-0.1,3-0.3,4.5c1.4,10,7.3,18.9,16.2,24.1l33.7,19.5h46l33.7-19.5
	C1302.6,1634.3,1308.9,1623.4,1308.9,1611.7z"/>
<path class="st1" d="M1162.4,1611.7c0,1.5,0.1,3,0.3,4.5c0.2-1.5,0.3-3,0.3-4.5v-46.5c0-1.5-0.1-3-0.3-4.5c-0.2,1.5-0.3,3-0.3,4.5
	V1611.7z"/>
<path class="st21" d="M1016.6,1565.2c0-1.5,0.1-3,0.3-4.5c-1-7-4.1-13.4-8.9-18.4c-2.1-2.2-4.5-4.1-7.2-5.7l-7-4l-33.3-19.2
	c-10.2-5.9-22.8-5.9-32.9,0l-5.6,3.2l-14.2,8.2l-14.2,8.2l-6.3,3.6c-8.9,5.1-14.8,14.1-16.2,24.1c0.2,1.5,0.3,3,0.3,4.5v46.5
	c0,1.5-0.1,3-0.3,4.5c1.4,10,7.3,18.9,16.2,24.1l6.3,3.6l14.2,8.2l13.2,7.6h0.9H967l26.8-15.5l7-4c2.7-1.6,5.1-3.5,7.2-5.7
	c4.8-5,8-11.4,8.9-18.4c-0.2-1.5-0.3-3-0.3-4.5V1565.2z"/>
<path class="st19" d="M1162.4,1565.2c0-1.5,0.1-3,0.3-4.5c-1.4-10-7.3-18.9-16.2-24.1l-25.2-14.6l-14.2-8.2l-0.9-0.5
	c-4.1-2.4-8.7-3.8-13.3-4.2c-6.7-0.7-13.6,0.8-19.7,4.2l-40.3,23.3c-4.5,2.6-8.2,6.1-10.9,10.3c-2.7,4.1-4.5,8.8-5.2,13.8
	c-0.2,1.5-0.3,3-0.3,4.5v46.5c0,1.5,0.1,3,0.3,4.5c0.7,5,2.5,9.7,5.2,13.8c2.8,4.1,6.5,7.7,10.9,10.3l33.7,19.5h26.2h14.2h5.7
	l8.5-4.9l25.2-14.6c8.9-5.1,14.8-14.1,16.2-24.1c-0.2-1.5-0.3-3-0.3-4.5V1565.2z"/>
<path class="st19" d="M870.8,1565.2c0-1.5,0.1-3,0.3-4.5c-1.3-9.4-6.6-17.9-14.6-23.1c-1-0.5-2-1-3-1.5l-29.7-17.2l-10.6-6.1
	c-0.5-0.3-1-0.6-1.5-1c-9.6-4.3-20.7-3.8-29.9,1.5l-40.3,23.3c-10.2,5.9-16.5,16.8-16.5,28.5v12.9l38.3,38.3
	c17,17,37.8,29.5,60.4,36.5c2,0.6,4,1.2,6.1,1.8l25.1-14.5c8.9-5.1,14.8-14.1,16.2-24.1c-0.2-1.5-0.3-3-0.3-4.5V1565.2z"/>
<path class="st1" d="M814.7,1513.4c-1-0.6-2-1.1-3-1.5c0.5,0.3,1,0.7,1.5,1l10.6,6.1v-0.3L814.7,1513.4z"/>
<path class="st1" d="M823.7,1518.6v0.3l29.7,17.2c1,0.6,2,1.1,3,1.5c-0.5-0.3-1-0.7-1.5-1L823.7,1518.6z"/>
<path class="st17" d="M871.4,1565.2c0-1.5-0.1-3-0.3-4.5c-0.2,1.5-0.3,3-0.3,4.5v46.5c0,1.5,0.1,3,0.3,4.5c0.2-1.5,0.3-3,0.3-4.5
	V1565.2z"/>
<path class="st19" d="M1326.1,1282.5c-0.3,0.2-0.7,0.4-1,0.5c-9.6,6-15.5,16.5-15.5,27.9v46.5c0,11.2,5.7,21.6,15,27.6
	c0.5,0.3,1,0.5,1.5,0.8l40.3,23.3c0.5,0.3,1,0.6,1.5,0.9c9.9,5.1,21.8,4.8,31.5-0.8l40.3-23.3c10.2-5.9,16.5-16.8,16.5-28.5V1311
	c0-11.8-6.3-22.6-16.5-28.5l-40.3-23.3c-9.9-5.7-21.9-5.9-32-0.5c-0.3,0.2-0.7,0.4-1,0.6L1326.1,1282.5z"/>
<path class="st1" d="M1326.1,1385.9c-0.5-0.3-1-0.5-1.5-0.8c0.5,0.3,1,0.6,1.5,0.9l40.3,23.3c0.5,0.3,1,0.5,1.5,0.8
	c-0.5-0.3-1-0.6-1.5-0.9L1326.1,1385.9z"/>
<path class="st1" d="M1326.1,1282.4c-0.3,0.2-0.7,0.4-1,0.6C1325.4,1282.9,1325.7,1282.7,1326.1,1282.4l40.3-23.2
	c0.3-0.2,0.7-0.4,1-0.6c-0.3,0.2-0.7,0.3-1,0.5L1326.1,1282.4z"/>
<path class="st1" d="M1586.9,1535.9l-40.3-23.3c-9.7-5.6-21.5-5.9-31.4-0.8c-0.5,0.3-1,0.6-1.5,0.9l-40.3,23.3
	c-0.5,0.3-1,0.5-1.5,0.8c-9.3,6.1-15,16.4-15,27.6v46.5c0,11.8,6.3,22.6,16.5,28.5l40.3,23.3c10.2,5.9,22.8,5.9,32.9,0l40.3-23.3
	c10.2-5.9,16.5-16.8,16.5-28.5v-46.5C1603.4,1552.7,1597.1,1541.8,1586.9,1535.9z"/>
<path class="st19" d="M1603.4,1564.5v46.5c0,11.8,6.3,22.6,16.5,28.5l40.3,23.3c10.2,5.9,22.8,5.9,32.9,0l40.3-23.3
	c10.2-5.9,16.5-16.8,16.5-28.5v-46.5c0-11.8-6.3-22.6-16.5-28.5l-40.3-23.3c-10.2-5.9-22.8-5.9-32.9,0l-40.3,23.3
	C1609.7,1541.8,1603.4,1552.7,1603.4,1564.5z"/>
<path class="st21" d="M1660.2,1664.8l-40.3-23.3c-10.2-5.9-22.8-5.9-32.9,0l-40.3,23.3c-10.2,5.9-16.5,16.8-16.5,28.5v46.5
	c0,11.8,6.3,22.6,16.5,28.5l40.3,23.3c10.2,5.9,22.8,5.9,32.9,0l40.3-23.3c10.2-5.9,16.5-16.8,16.5-28.5v-46.5
	C1676.6,1681.6,1670.4,1670.7,1660.2,1664.8z"/>
<path class="st17" d="M1733.4,1641.6l-40.3,23.3c-10.2,5.9-16.5,16.8-16.5,28.5v46.5c0,11.8,6.3,22.6,16.5,28.5l40.3,23.3
	c10.2,5.9,22.8,5.9,32.9,0l20.5-11.9v-120.1v-6.2l-20.5-11.9C1756.1,1635.7,1743.6,1635.7,1733.4,1641.6z"/>
<path class="st17" d="M1661.7,1920.2c10.2,5.9,22.8,5.9,32.9,0l40.3-23.3c10.2-5.9,16.5-16.8,16.5-28.5V1822
	c0-11.8-6.3-22.6-16.5-28.5l-40.3-23.3c-10.2-5.9-22.8-5.9-32.9,0l-40.3,23.3c-10.2,5.9-16.5,16.8-16.5,28.5v46.5
	c0,5.9,1.6,11.6,4.4,16.5l12,12c0,0,0,0,0,0L1661.7,1920.2z"/>
<path class="st21" d="M1399.3,1662.8l40.3-23.3c10.2-5.9,16.5-16.8,16.5-28.5v-46.5c0-11.8-6.3-22.6-16.5-28.5l-40.3-23.3
	c-10.2-5.9-22.8-5.9-32.9,0l-40.3,23.3c-10.2,5.9-16.5,16.8-16.5,28.5v46.5c0,11.8,6.3,22.6,16.5,28.5l40.3,23.3
	c0.2,0.1,0.4,0.2,0.5,0.3c4.1,1.1,8.1,2.4,12,3.9C1385.8,1667.8,1393,1666.4,1399.3,1662.8z"/>
<path class="st21" d="M1660.2,1409.1l-40.3-23.3c-9.7-5.6-21.5-5.9-31.5-0.8c-0.5,0.3-1,0.6-1.5,0.9l-40.3,23.3
	c-0.5,0.3-1,0.5-1.5,0.8c-9.3,6.1-15,16.4-15,27.6v0.1v46.4c0,11.8,6.3,22.6,16.5,28.5l40.3,23.3c10.2,5.9,22.8,5.9,32.9,0
	l40.3-23.3c10.2-5.9,16.5-16.8,16.5-28.5v-0.3v-46.2C1676.6,1425.9,1670.4,1415,1660.2,1409.1z"/>
<path class="st1" d="M1586.9,1386c0.5-0.3,1-0.6,1.5-0.9c-0.5,0.3-1,0.5-1.5,0.8l-40.3,23.3c-0.5,0.3-1,0.6-1.5,0.9
	c0.5-0.3,1-0.5,1.5-0.8L1586.9,1386z"/>
<path class="st17" d="M1733.4,1385.5l-40.3,23.3c-10.2,5.9-16.5,16.8-16.5,28.5v0.3v46.2c0,11.8,6.3,22.6,16.5,28.5l40.3,23.3
	c10.2,5.9,22.8,5.9,32.9,0l20.5-11.9v-126.4l-20.5-11.9C1756.1,1379.6,1743.6,1379.6,1733.4,1385.5z"/>
<path class="st21" d="M1693.1,1259.3c-1.2-0.7-2.3-1.4-3.3-2.2c-8.4-3.6-17.9-3.6-26.3,0c-1.1,0.8-2.2,1.5-3.3,2.2l-40.3,23.3
	c-1.1,0.6-2.2,1.2-3.3,1.7c-8.2,6.2-13.1,15.9-13.1,26.3v0.5v46c0,11.8,6.3,22.6,16.5,28.5l40.3,23.3c10.2,5.9,22.8,5.9,32.9,0
	l40.3-23.3c10.2-5.9,16.5-16.8,16.5-28.5v-46.5c0-10.4-4.9-20.1-13.1-26.3c-1.1-0.5-2.3-1-3.3-1.7L1693.1,1259.3z"/>
<path class="st19" d="M1751.4,1564.5v46.5c0,11.8,6.3,22.6,16.5,28.5l40.3,23.3c10.2,5.9,22.8,5.9,32.9,0l40.3-23.3
	c10.2-5.9,16.5-16.8,16.5-28.5v-46.5c0-11.8-6.3-22.6-16.5-28.5l-40.3-23.3c-10.2-5.9-22.8-5.9-32.9,0l-40.3,23.3
	C1757.6,1541.8,1751.4,1552.7,1751.4,1564.5z"/>
<path class="st17" d="M1809.6,1920.2c10.2,5.9,22.8,5.9,32.9,0l40.3-23.3c10.2-5.9,16.5-16.8,16.5-28.5V1822
	c0-11.8-6.3-22.6-16.5-28.5l-40.3-23.3c-10.2-5.9-22.8-5.9-32.9,0l-40.3,23.3c-10.2,5.9-16.5,16.8-16.5,28.5v46.5
	c0,5.9,1.6,11.6,4.4,16.5l12,12c0,0,0,0,0,0L1809.6,1920.2z"/>
<path class="st21" d="M1841,1259.3c-1.2-0.7-2.3-1.4-3.3-2.2c-8.4-3.6-17.9-3.6-26.3,0c-1.1,0.8-2.2,1.5-3.3,2.2l-40.3,23.3
	c-1.1,0.6-2.2,1.2-3.3,1.7c-8.2,6.2-13.1,15.9-13.1,26.3v0.5v46c0,11.8,6.3,22.6,16.5,28.5l40.3,23.3c10.2,5.9,22.8,5.9,32.9,0
	l40.3-23.3c10.2-5.9,16.5-16.8,16.5-28.5v-46.5c0-10.4-4.9-20.1-13.1-26.3c-1.1-0.5-2.3-1-3.3-1.7L1841,1259.3z"/>
<path class="st21" d="M1733.4,1132.4l-40.3,23.3c-10.2,5.9-16.5,16.8-16.5,28.5v46.5c0,10.4,4.9,20.1,13.1,26.3
	c1.1,0.5,2.3,1,3.3,1.7l40.3,23.3c1.2,0.7,2.3,1.4,3.3,2.2c9.5,4.1,20.5,3.6,29.6-1.7l20.5-11.9v-126.4l-20.5-11.9
	C1756.1,1126.6,1743.6,1126.6,1733.4,1132.4z"/>
<path class="st1" d="M1693.1,1258.7c-1.1-0.6-2.2-1.2-3.3-1.7c1.1,0.8,2.2,1.5,3.3,2.2l40.3,23.3c1.1,0.6,2.2,1.2,3.3,1.7
	c-1.1-0.8-2.2-1.5-3.3-2.2L1693.1,1258.7z"/>
<path class="st15" d="M1545.7,1258.6c0.3,0.2,0.7,0.3,1,0.5l40.3,23.3c0.3,0.2,0.7,0.4,1,0.6c8.9,4.7,19.4,5.1,28.6,1.1
	c1.1-0.8,2.2-1.5,3.3-2.2l40.3-23.3c1.1-0.6,2.2-1.2,3.3-1.7c8.2-6.2,13.1-15.9,13.1-26.3v-46.5c0-11.8-6.3-22.6-16.5-28.5
	l-40.3-23.3c-10.2-5.9-22.8-5.9-32.9,0l-40.3,23.3c-10.2,5.9-16.5,16.8-16.5,28.5v46.5C1530.2,1242.1,1536.1,1252.6,1545.7,1258.6z"
	/>
<path class="st21" d="M1807.8,1664.8l-40.3-23.3c-10.2-5.9-22.8-5.9-32.9,0l-40.3,23.3c-10.2,5.9-16.5,16.8-16.5,28.5v46.5
	c0,11.8,6.3,22.6,16.5,28.5l40.3,23.3c10.2,5.9,22.8,5.9,32.9,0l40.3-23.3c10.2-5.9,16.5-16.8,16.5-28.5v-46.5
	C1824.3,1681.6,1818,1670.7,1807.8,1664.8z"/>
<path class="st21" d="M1807.8,1409.1l-40.3-23.3c-9.7-5.6-21.5-5.9-31.5-0.8c-0.5,0.3-1,0.6-1.5,0.9l-40.3,23.3
	c-0.5,0.3-1,0.5-1.5,0.8c-9.3,6.1-15,16.4-15,27.6v0.1v46.4c0,11.8,6.3,22.6,16.5,28.5l40.3,23.3c10.2,5.9,22.8,5.9,32.9,0
	l40.3-23.3c10.2-5.9,16.5-16.8,16.5-28.5v-0.3v-46.2C1824.3,1425.9,1818,1415,1807.8,1409.1z"/>
<path class="st22" d="M1693.4,1258.6c0.3,0.2,0.7,0.3,1,0.5l40.3,23.3c0.3,0.2,0.7,0.4,1,0.6c8.9,4.7,19.4,5.1,28.6,1.1
	c1.1-0.8,2.2-1.5,3.3-2.2l40.3-23.3c1.1-0.6,2.2-1.2,3.3-1.7c8.2-6.2,13.1-15.9,13.1-26.3v-46.5c0-11.8-6.3-22.6-16.5-28.5
	l-40.3-23.3c-10.2-5.9-22.8-5.9-32.9,0l-40.3,23.3c-10.2,5.9-16.5,16.8-16.5,28.5v46.5C1677.9,1242.1,1683.8,1252.6,1693.4,1258.6z"
	/>
<path class="st1" d="M1546.7,1259.2c-0.3-0.2-0.7-0.4-1-0.5C1546,1258.8,1546.3,1259.1,1546.7,1259.2l40.3,23.3
	c0.3,0.2,0.7,0.4,1,0.5c-0.3-0.2-0.7-0.4-1-0.6L1546.7,1259.2z"/>
<path class="st1" d="M1619.9,1282c-1.2,0.7-2.3,1.4-3.3,2.2c1.1-0.5,2.3-1,3.3-1.7l40.3-23.3c1.2-0.7,2.3-1.4,3.3-2.2
	c-1.1,0.5-2.3,1-3.3,1.7L1619.9,1282z"/>
<path class="st23" d="M1513.7,1512.8c0.5-0.3,1-0.6,1.5-0.9c-0.5,0.3-1,0.5-1.5,0.8l-40.3,23.3c-0.5,0.3-1,0.6-1.5,0.9
	c0.5-0.3,1-0.5,1.5-0.8L1513.7,1512.8z"/>
<g>
	<path class="st16" d="M1105.5,1540.6"/>
</g>
<g class="st24">
	<path class="st21" d="M1882.8,1641.6l-40.3,23.3c-10.2,5.9-16.5,16.8-16.5,28.5v46.5c0,11.8,6.3,22.6,16.5,28.5l40.3,23.3
		c10.2,5.9,22.8,5.9,32.9,0l6.1-3.5v-143.1l-6.1-3.5C1905.6,1635.7,1893,1635.7,1882.8,1641.6z"/>
	<path class="st21" d="M1884.3,1385.1c-0.5,0.3-1,0.6-1.5,0.9l-40.3,23.3c-0.5,0.3-1,0.5-1.5,0.8c-9.3,6.1-15,16.4-15,27.6v0.1v46.4
		c0,11.8,6.3,22.6,16.5,28.5l40.3,23.3c10.2,5.9,22.8,5.9,32.9,0l6.1-3.5v-143.1l-6.1-3.5C1906.1,1380.3,1894.2,1380,1884.3,1385.1z
		"/>
	<path class="st21" d="M1915.8,1132.4c-10.2-5.9-22.8-5.9-32.9,0l-40.3,23.3c-10.2,5.9-16.5,16.8-16.5,28.5v46.5
		c0,11.4,5.9,21.9,15.5,27.9c0.3,0.2,0.7,0.3,1,0.5l40.3,23.3c0.3,0.2,0.7,0.4,1,0.6c8.9,4.7,19.4,5.1,28.6,1.1
		c1.1-0.8,2.2-1.5,3.3-2.2l6.1-3.5v-142.5L1915.8,1132.4z"/>
</g>
<path class="st1" d="M1686.9,893.6h-68.7l0-71.5c0-13.2-5.2-25.7-14.5-35.1l-53.3-53.3c-9.4-9.4-21.8-14.5-35.1-14.5H952.1v-45.1
	h-10v45.1H1.3v10h1514c10.6,0,20.5,4.1,28,11.6l53.3,53.3c7.5,7.5,11.6,17.4,11.6,28l0,153c0,10.6-4.1,20.5-11.6,28l-53.4,53.4
	c-7.5,7.5-17.4,11.6-28,11.6H637.6h0c-9.1,0-17.7,3.6-24.2,10v0l-216.6,216.4c-11.5,11.5-26.7,17.8-43,17.8H0v10h353.9
	c18.9,0,36.7-7.4,50.1-20.7l213.6-213.5c6.4-6.4,15.1-10,24.2-10h302v50.6h10v-50.6h561.6c13.2,0,25.7-5.2,35.1-14.5l53.4-53.4
	c9.4-9.4,14.5-21.8,14.5-35.1l0-71.5h68.7V893.6z"/>
<g class="st25">
	<path class="st26" d="M80.2,954.7c-0.7-0.5-1.3-1-2-1.4c-0.5-0.3-1-0.7-1.5-1c0,0,0,0,0,0c-0.8-0.3-1.7-0.6-2.5-0.9
		c-0.3-0.1-0.5-0.2-0.8-0.3c-0.6-0.2-1.2-0.4-1.8-0.5c-0.3-0.1-0.6-0.2-0.9-0.2c-0.8-0.2-1.5-0.4-2.3-0.5c-0.1,0-0.2,0-0.3-0.1
		c-0.9-0.2-1.7-0.3-2.6-0.4c-0.3,0-0.6-0.1-0.9-0.1c-0.6-0.1-1.2-0.1-1.8-0.2c-0.3,0-0.6-0.1-0.9-0.1c-0.8-0.1-1.5-0.1-2.3-0.1
		c-0.1,0-0.3,0-0.4,0c-0.9,0-1.7,0-2.6,0c-0.3,0-0.6,0-0.9,0c-0.6,0-1.2,0.1-1.8,0.1c-0.3,0-0.6,0.1-0.9,0.1
		c-0.7,0.1-1.5,0.2-2.2,0.3c-0.2,0-0.3,0-0.5,0.1c-0.8,0.1-1.7,0.3-2.5,0.5c-0.3,0.1-0.6,0.1-0.9,0.2c-0.6,0.1-1.2,0.3-1.7,0.4
		c-0.3,0.1-0.6,0.2-0.9,0.3c-0.7,0.2-1.4,0.4-2.1,0.7c-0.2,0.1-0.3,0.1-0.5,0.2c0,0,0,0,0,0c0.6,3.1,0.9,6.2,0.9,9.4v36.2l32.2,18.6
		c0.8,0.5,1.7,1,2.5,1.5c0.3,0.2,0.5,0.4,0.8,0.5c0.5,0.4,1,0.7,1.6,1.1c0.3,0.2,0.6,0.5,0.9,0.7c0.4,0.3,0.9,0.7,1.3,1
		c0.3,0.3,0.6,0.5,1,0.8c0.1,0.1,0.2,0.2,0.3,0.2c1.2-1,2.3-2.1,3.4-3.3c6.4-7.1,10.7-15.9,12.3-25.5
		C98.6,978.1,91.7,964.1,80.2,954.7z"/>
	<polygon class="st1" points="161.6,1105.1 161.6,1105.1 151.5,1111 161.6,1105.1 	"/>
	<polygon class="st1" points="0,847.8 1.2,847.1 0,846.4 	"/>
	<path class="st1" d="M1.2,847.1L1.2,847.1l50.6,29.2c44.8,25.8,99.9,25.8,144.7,0l0.7-0.4l-151-87.2C32,780.4,16,776.4,0,776.6
		v69.8L1.2,847.1z"/>
	<polygon class="st1" points="0,846.4 1.2,847.1 0,846.4 	"/>
	<polygon class="st1" points="0,846.4 1.2,847.1 0,846.4 	"/>
	<path class="st27" d="M223.9,931.1c-44.8,25.8-72.3,73.6-72.3,125.3l0,54.5l10.1-5.8c39-22.5,63-64.1,63-109.1v-65.4L223.9,931.1z"
		/>
	<path class="st1" d="M161.6,1105.1L161.6,1105.1L161.6,1105.1l-10.1,5.8l0,0.1l-50.6,29.2c-44.8,25.8-72.3,73.6-72.3,125.3v0.8
		l151-87.2c27.8-16.1,45-45.8,45-77.9V1070v-74C224.6,1041,200.6,1082.6,161.6,1105.1z"/>
	<path class="st1" d="M1.8,916.4c5.6-0.1,11.1,0.8,16.5,2.6c-2.5-0.9-5.1-1.6-7.7-2.2c-3.5-0.7-7-1-10.6-0.9v0.5
		C0.6,916.4,1.2,916.4,1.8,916.4z"/>
	<path class="st1" d="M18.3,919c0.1,0,0.2,0.1,0.3,0.1C18.5,919.1,18.4,919,18.3,919z"/>
	<path class="st1" d="M80.2,954.7L80.2,954.7c0.1,0.1,0.2,0.2,0.3,0.3c0.7,0.5,1.4,1.1,2.1,1.7c0.3,0.2,0.6,0.5,0.8,0.8
		c0.5,0.4,1,0.9,1.4,1.3c0.3,0.3,0.6,0.6,0.9,0.9c0.4,0.4,0.8,0.9,1.2,1.3c0.3,0.3,0.6,0.6,0.8,1c0.4,0.5,0.8,0.9,1.1,1.4
		c0.3,0.3,0.5,0.7,0.8,1c0.1,0.2,0.3,0.3,0.4,0.5c-3.3-4.7-7.5-8.8-12.3-12.2c-0.2-0.1-0.3-0.1-0.5-0.2
		C78.3,953.2,79.3,954,80.2,954.7z"/>
	<path class="st1" d="M10.9,916.5c-3.6-0.9-7.2-1.2-10.9-1.1v0.2C3.6,915.5,7.3,915.8,10.9,916.5z"/>
	<path class="st1" d="M92.6,968.6c0.2,0.3,0.4,0.6,0.5,0.9C93,969.2,92.8,968.9,92.6,968.6z"/>
	<path class="st1" d="M94.6,972.2c0,0.1,0.1,0.1,0.1,0.2C94.6,972.3,94.6,972.3,94.6,972.2z"/>
	<path class="st1" d="M98.6,983.8c0.1,0.4,0.2,0.8,0.3,1.2C98.8,984.6,98.7,984.2,98.6,983.8z"/>
	<path class="st1" d="M95.8,975c0.1,0.3,0.3,0.6,0.4,1C96.1,975.6,96,975.3,95.8,975z"/>
	<path class="st1" d="M90.8,965.9c0.2,0.3,0.5,0.7,0.7,1C91.3,966.6,91.1,966.3,90.8,965.9z"/>
	<path class="st1" d="M96.9,977.8c0.1,0.4,0.3,0.8,0.4,1.1C97.2,978.6,97,978.2,96.9,977.8z"/>
	<path class="st1" d="M99.2,986.9c0.1,0.4,0.1,0.8,0.2,1.2C99.3,987.7,99.2,987.3,99.2,986.9z"/>
	<path class="st1" d="M97.8,980.8c0.1,0.4,0.2,0.8,0.3,1.2C98.1,981.6,97.9,981.2,97.8,980.8z"/>
	<path class="st1" d="M99.5,1054.4L99.5,1054.4c0,0.1,0,0.3,0,0.4c0.1-1.5,0.2-2.9,0.2-4.4v0c0,1.5-0.1,3-0.2,4.4
		C99.5,1054.6,99.5,1054.5,99.5,1054.4z"/>
	<path class="st1" d="M84.9,958.8c0.3,0.3,0.6,0.6,0.9,0.9C85.5,959.4,85.2,959.1,84.9,958.8z"/>
	<path class="st1" d="M84.9,958.8c0.3,0.3,0.6,0.6,0.9,0.9C85.5,959.4,85.2,959.1,84.9,958.8z"/>
	<path class="st1" d="M87,961c0.3,0.3,0.6,0.6,0.8,1C87.6,961.7,87.3,961.4,87,961z"/>
	<path class="st1" d="M87,961c0.3,0.3,0.6,0.6,0.8,1C87.6,961.7,87.3,961.4,87,961z"/>
	<path class="st1" d="M80.2,954.7c0.1,0.1,0.2,0.2,0.3,0.3C80.5,954.9,80.4,954.8,80.2,954.7z"/>
	<path class="st1" d="M80.2,954.7c0.1,0.1,0.2,0.2,0.3,0.3C80.5,954.9,80.4,954.8,80.2,954.7z"/>
	<polygon class="st1" points="15.7,965.7 0,974.8 0,974.8 	"/>
	<polygon class="st1" points="15.7,965.7 0,974.8 0,974.8 	"/>
	<path class="st1" d="M82.6,956.7c0.3,0.2,0.6,0.5,0.8,0.8C83.2,957.2,82.9,957,82.6,956.7z"/>
	<path class="st1" d="M82.6,956.7c0.3,0.2,0.6,0.5,0.8,0.8C83.2,957.2,82.9,957,82.6,956.7z"/>
	<path class="st1" d="M89,963.4c0.3,0.3,0.5,0.7,0.8,1C89.5,964.1,89.2,963.7,89,963.4z"/>
	<path class="st1" d="M89,963.4c0.3,0.3,0.5,0.7,0.8,1C89.5,964.1,89.2,963.7,89,963.4z"/>
	<path class="st1" d="M38.4,953c0.3-0.1,0.5-0.2,0.8-0.4C39,952.8,38.7,952.9,38.4,953z"/>
	<path class="st1" d="M38.4,953c0.3-0.1,0.5-0.2,0.8-0.4C39,952.8,38.7,952.9,38.4,953z"/>
	<path class="st1" d="M35.9,954.2c0.3-0.1,0.5-0.2,0.8-0.4C36.4,954,36.1,954.1,35.9,954.2z"/>
	<path class="st1" d="M35.9,954.2c0.3-0.1,0.5-0.2,0.8-0.4C36.4,954,36.1,954.1,35.9,954.2z"/>
	<path class="st1" d="M1.8,916.4c-0.6,0-1.2,0-1.8,0v0C0.6,916.4,1.2,916.4,1.8,916.4z"/>
	<path class="st1" d="M1.8,916.4c-0.6,0-1.2,0-1.8,0v0C0.6,916.4,1.2,916.4,1.8,916.4z"/>
	<path class="st1" d="M21.3,920.2c0.2,0.1,0.5,0.2,0.7,0.3c0.4,0.2,0.7,0.3,1,0.5c0.1,0,0.2,0.1,0.3,0.1c0.9,0.4,1.7,0.9,2.6,1.4
		l48.5,28c1.2,0.7,2.3,1.4,3.4,2.2c0.6,0.2,1.1,0.5,1.7,0.7c-1.2-0.8-2.4-1.7-3.7-2.4l-48.5-28c-2.8-1.6-5.7-2.9-8.7-3.9
		C19.6,919.5,20.5,919.9,21.3,920.2C21.4,920.3,21.3,920.2,21.3,920.2z"/>
	<path class="st1" d="M18.3,919C18.3,919,18.3,919,18.3,919C18.3,919,18.3,919,18.3,919z"/>
	<path class="st1" d="M25.9,922.6c-0.9-0.5-1.7-0.9-2.6-1.4c0.6,0.3,1.3,0.7,1.9,1l48.5,28c1.2,0.7,2.4,1.5,3.6,2.3h0
		c0.2,0.1,0.3,0.1,0.5,0.2c-1.1-0.8-2.2-1.5-3.4-2.2L25.9,922.6z"/>
	<path class="st1" d="M25.9,922.6c-0.9-0.5-1.7-0.9-2.6-1.4c0.6,0.3,1.3,0.7,1.9,1l48.5,28c1.2,0.7,2.4,1.5,3.6,2.3h0
		c0.2,0.1,0.3,0.1,0.5,0.2c-1.1-0.8-2.2-1.5-3.4-2.2L25.9,922.6z"/>
	<path class="st1" d="M1.8,916.4c7.1,0.1,14.2,1.7,20.8,4.8l0,0c-0.4-0.3-0.8-0.6-1.2-0.9c-0.9-0.4-1.8-0.8-2.8-1.2
		c-0.1,0-0.2-0.1-0.3-0.1c0,0,0,0,0,0C12.9,917.2,7.4,916.3,1.8,916.4z"/>
	<path class="st1" d="M1.8,916.4c7.1,0.1,14.2,1.7,20.8,4.8l0,0c-0.4-0.3-0.8-0.6-1.2-0.9c-0.9-0.4-1.8-0.8-2.8-1.2
		c-0.1,0-0.2-0.1-0.3-0.1c0,0,0,0,0,0C12.9,917.2,7.4,916.3,1.8,916.4z"/>
	<path class="st1" d="M22,920.6c0.4,0.2,0.7,0.3,1,0.5C22.7,920.9,22.4,920.7,22,920.6z"/>
	<path class="st1" d="M22,920.6c0.4,0.2,0.7,0.3,1,0.5C22.7,920.9,22.4,920.7,22,920.6z"/>
	<path class="st1" d="M0,974.8l15.7-9.1l17.7-10.2c0.8-0.5,1.6-0.9,2.4-1.3c0.3-0.1,0.5-0.2,0.8-0.4c0.6-0.3,1.2-0.6,1.8-0.8
		c0.3-0.1,0.5-0.2,0.8-0.4c0.8-0.3,1.6-0.7,2.4-0.9c-2.3-12.2-9.1-23.1-19.1-30.5c-6.6-3.1-13.7-4.7-20.8-4.8c-0.6,0-1.2,0-1.8,0.1
		V974.8z"/>
	<path class="st1" d="M0,974.8l15.7-9.1l17.7-10.2c0.8-0.5,1.6-0.9,2.4-1.3c0.3-0.1,0.5-0.2,0.8-0.4c0.6-0.3,1.2-0.6,1.8-0.8
		c0.3-0.1,0.5-0.2,0.8-0.4c0.8-0.3,1.6-0.7,2.4-0.9c-2.3-12.2-9.1-23.1-19.1-30.5c-6.6-3.1-13.7-4.7-20.8-4.8c-0.6,0-1.2,0-1.8,0.1
		V974.8z"/>
	<path class="st1" d="M0,974.8l15.7-9.1l17.7-10.2c0.8-0.5,1.6-0.9,2.4-1.3c0.3-0.1,0.5-0.2,0.8-0.4c0.6-0.3,1.2-0.6,1.8-0.8
		c0.3-0.1,0.5-0.2,0.8-0.4c0.8-0.3,1.6-0.7,2.4-0.9c-2.3-12.2-9.1-23.1-19.1-30.5c-6.6-3.1-13.7-4.7-20.8-4.8c-0.6,0-1.2,0-1.8,0.1
		V974.8z"/>
	<path class="st1" d="M99.5,1054.4c-0.1-0.8-0.2-1.6-0.3-2.4c-0.1-0.9-0.3-1.8-0.5-2.7c0,0,0,0,0,0v0.2c0,17.8-9.5,34.3-25,43.3
		l-48.5,28c-7.6,4.4-16,6.6-24.5,6.7c8.8,0.1,17.6-2.1,25.5-6.7l48.5-28C88.8,1084.6,97.9,1070.3,99.5,1054.4z"/>
	<path class="st1" d="M99.6,991.2c0.1,1,0.1,2.1,0.1,3.1v-0.8c0-1.5-0.1-3-0.2-4.4c0,0.1,0,0.2,0,0.3c0,0.3,0,0.5,0.1,0.8
		C99.6,990.5,99.6,990.8,99.6,991.2z"/>
	<path class="st1" d="M98.7,1049.3C98.7,1049.3,98.7,1049.3,98.7,1049.3C98.7,1049.3,98.7,1049.3,98.7,1049.3L98.7,1049.3z"/>
	<path class="st1" d="M98.7,1049.3C98.7,1049.3,98.7,1049.3,98.7,1049.3C98.7,1049.3,98.7,1049.3,98.7,1049.3L98.7,1049.3z"/>
	<path class="st1" d="M99.5,990.2c0,0.3,0.1,0.7,0.1,1C99.6,990.8,99.6,990.5,99.5,990.2z"/>
	<path class="st1" d="M99.5,990.2c0,0.3,0.1,0.7,0.1,1C99.6,990.8,99.6,990.5,99.5,990.2z"/>
	<path class="st1" d="M99.2,1052c0.1,0.8,0.2,1.6,0.3,2.4l0,0C99.4,1053.6,99.3,1052.8,99.2,1052z"/>
	<path class="st1" d="M99.2,1052c0.1,0.8,0.2,1.6,0.3,2.4l0,0C99.4,1053.6,99.3,1052.8,99.2,1052z"/>
	<path class="st1" d="M16.6,983.6c1.6,0.7,3.2,1.5,4.7,2.3l0.4,0.2c1.7,1,3.2,2,4.7,3.2c9.8,7.7,15.7,19.5,15.7,32.2v0.5
		c0,0.3,0,0.5,0,0.8c0.2-1.9,0.3-3.9,0.3-5.8v-19.7l-16.3-9.4C23.2,986.1,20,984.7,16.6,983.6z"/>
	<path class="st1" d="M21.8,1057.5l-0.4,0.2c-2.1,1.2-4.3,2.2-6.6,3c1.6-0.4,3.2-1,4.7-1.6c1.1-0.7,2.2-1.5,3.3-2.3
		C22.5,1057,22.2,1057.3,21.8,1057.5z"/>
	<path class="st1" d="M0,1062.6v0.2c3.7,0.1,7.3-0.2,10.9-1.1C7.3,1062.4,3.6,1062.6,0,1062.6z"/>
	<path class="st1" d="M0,980.5v0.5c3.7-0.1,7.3,0.2,10.9,1.1c1.9,0.4,3.9,0.9,5.8,1.5C11.3,981.4,5.7,980.4,0,980.5z"/>
	<path class="st1" d="M0,980.5c5.7-0.1,11.3,0.9,16.6,3.1c3.3,1.1,6.5,2.5,9.6,4.3l16.3,9.4v0v-36.2c0-3.2-0.3-6.3-0.9-9.4
		c-0.8,0.3-1.6,0.6-2.4,0.9c-0.3,0.1-0.5,0.2-0.8,0.4c-0.6,0.3-1.2,0.5-1.8,0.8c-0.3,0.1-0.5,0.2-0.8,0.4c-0.8,0.4-1.6,0.8-2.4,1.3
		l-17.7,10.2L0,974.8V980.5z"/>
	<path class="st1" d="M0,980.5c5.7-0.1,11.3,0.9,16.6,3.1c3.3,1.1,6.5,2.5,9.6,4.3l16.3,9.4v0v-36.2c0-3.2-0.3-6.3-0.9-9.4
		c-0.8,0.3-1.6,0.6-2.4,0.9c-0.3,0.1-0.5,0.2-0.8,0.4c-0.6,0.3-1.2,0.5-1.8,0.8c-0.3,0.1-0.5,0.2-0.8,0.4c-0.8,0.4-1.6,0.8-2.4,1.3
		l-17.7,10.2L0,974.8V980.5z"/>
	<path class="st1" d="M35.9,954.2c-0.8,0.4-1.6,0.8-2.4,1.3l-17.7,10.2l17.7-10.2C34.3,955,35.1,954.6,35.9,954.2z"/>
	<path class="st1" d="M35.9,954.2c-0.8,0.4-1.6,0.8-2.4,1.3l-17.7,10.2l17.7-10.2C34.3,955,35.1,954.6,35.9,954.2z"/>
	<path class="st1" d="M35.9,954.2c-0.8,0.4-1.6,0.8-2.4,1.3l-17.7,10.2l17.7-10.2C34.3,955,35.1,954.6,35.9,954.2z"/>
	<path class="st1" d="M41.7,951.7c-0.8,0.3-1.6,0.6-2.4,0.9C40,952.3,40.8,952,41.7,951.7L41.7,951.7z"/>
	<path class="st1" d="M41.7,951.7c-0.8,0.3-1.6,0.6-2.4,0.9C40,952.3,40.8,952,41.7,951.7L41.7,951.7z"/>
	<path class="st1" d="M41.7,951.7c-0.8,0.3-1.6,0.6-2.4,0.9C40,952.3,40.8,952,41.7,951.7L41.7,951.7z"/>
	<path class="st1" d="M36.7,953.8c0.6-0.3,1.2-0.6,1.8-0.8C37.8,953.3,37.2,953.5,36.7,953.8z"/>
	<path class="st1" d="M36.7,953.8c0.6-0.3,1.2-0.6,1.8-0.8C37.8,953.3,37.2,953.5,36.7,953.8z"/>
	<path class="st1" d="M36.7,953.8c0.6-0.3,1.2-0.6,1.8-0.8C37.8,953.3,37.2,953.5,36.7,953.8z"/>
	<path class="st1" d="M14.8,1060.7c-1.3,0.4-2.6,0.7-3.9,0.9c-3.6,0.9-7.2,1.2-10.9,1.1v7.7l17.6-10.2c0.3-0.2,0.6-0.4,0.9-0.5
		c-2.6,1-5.2,1.7-7.9,2.2C12,1061.7,13.4,1061.2,14.8,1060.7z"/>
	<path class="st1" d="M14.8,1060.7c-1.4,0.5-2.8,0.9-4.2,1.3c2.7-0.5,5.3-1.3,7.9-2.2c0.4-0.2,0.7-0.4,1.1-0.7
		C18,1059.7,16.4,1060.3,14.8,1060.7z"/>
	<path class="st1" d="M14.8,1060.7c-1.4,0.5-2.8,0.9-4.2,1.3c2.7-0.5,5.3-1.3,7.9-2.2c0.4-0.2,0.7-0.4,1.1-0.7
		C18,1059.7,16.4,1060.3,14.8,1060.7z"/>
	<path class="st1" d="M93.1,969.5c0.5,0.9,1,1.8,1.4,2.7C94.1,971.3,93.6,970.4,93.1,969.5z"/>
	<path class="st1" d="M97.3,979c0.2,0.6,0.4,1.2,0.5,1.8C97.7,980.2,97.5,979.6,97.3,979z"/>
	<path class="st1" d="M96.2,975.9c0.2,0.6,0.5,1.3,0.7,1.9C96.7,977.2,96.4,976.6,96.2,975.9z"/>
	<path class="st1" d="M98.2,982c0.2,0.6,0.3,1.2,0.4,1.8C98.5,983.2,98.3,982.6,98.2,982z"/>
	<path class="st1" d="M94.6,972.4c0.4,0.8,0.8,1.7,1.2,2.6C95.5,974.1,95.1,973.2,94.6,972.4z"/>
	<path class="st1" d="M91.5,966.9c0.4,0.6,0.7,1.1,1.1,1.7C92.2,968.1,91.9,967.5,91.5,966.9z"/>
	<path class="st1" d="M98.8,985c0.1,0.6,0.2,1.3,0.3,1.9C99.1,986.3,99,985.6,98.8,985z"/>
	<path class="st1" d="M90.8,965.9c-0.2-0.3-0.5-0.7-0.7-1c0.2,0.2,0.3,0.5,0.5,0.7C90.7,965.7,90.8,965.8,90.8,965.9z"/>
	<path class="st1" d="M99.5,989.4c0-0.4-0.1-0.9-0.1-1.3C99.4,988.5,99.4,989,99.5,989.4C99.5,989.4,99.5,989.4,99.5,989.4z"/>
	<path class="st1" d="M87.8,962c0.4,0.5,0.8,0.9,1.1,1.4C88.6,962.9,88.2,962.5,87.8,962z"/>
	<path class="st1" d="M87.8,962c0.4,0.5,0.8,0.9,1.1,1.4C88.6,962.9,88.2,962.5,87.8,962z"/>
	<path class="st1" d="M85.8,959.7c0.4,0.4,0.8,0.9,1.2,1.3C86.6,960.6,86.2,960.1,85.8,959.7z"/>
	<path class="st1" d="M85.8,959.7c0.4,0.4,0.8,0.9,1.2,1.3C86.6,960.6,86.2,960.1,85.8,959.7z"/>
	<path class="st1" d="M83.5,957.5c0.5,0.4,1,0.9,1.4,1.3C84.4,958.4,83.9,957.9,83.5,957.5z"/>
	<path class="st1" d="M83.5,957.5c0.5,0.4,1,0.9,1.4,1.3C84.4,958.4,83.9,957.9,83.5,957.5z"/>
	<polygon class="st1" points="80.2,954.7 80.2,954.7 80.2,954.7 	"/>
	<polygon class="st1" points="80.2,954.7 80.2,954.7 80.2,954.7 	"/>
	<path class="st1" d="M80.6,955c0.7,0.5,1.4,1.1,2.1,1.7C82,956.1,81.3,955.6,80.6,955z"/>
	<path class="st1" d="M80.6,955c0.7,0.5,1.4,1.1,2.1,1.7C82,956.1,81.3,955.6,80.6,955z"/>
	<path class="st1" d="M90.6,965.6c-0.2-0.2-0.3-0.5-0.5-0.7c-0.1-0.2-0.2-0.3-0.4-0.5C90.1,964.8,90.4,965.2,90.6,965.6z"/>
	<path class="st1" d="M90.6,965.6c-0.2-0.2-0.3-0.5-0.5-0.7c-0.1-0.2-0.2-0.3-0.4-0.5C90.1,964.8,90.4,965.2,90.6,965.6z"/>
	<path class="st1" d="M99.5,1054.7c0.1-1.5,0.2-2.9,0.2-4.4v-0.8c0,1.6-0.1,3.3-0.3,4.9C99.5,1054.5,99.5,1054.6,99.5,1054.7z"/>
	<path class="st1" d="M99.5,1054.7c0.1-1.5,0.2-2.9,0.2-4.4v-0.8c0,1.6-0.1,3.3-0.3,4.9C99.5,1054.5,99.5,1054.6,99.5,1054.7z"/>
	<path class="st1" d="M99.2,989.4c-0.1,1.2-0.3,2.5-0.5,3.7c0,0.1,0,0.2,0,0.4v1c0.3-1.7,0.6-3.3,0.8-5.1c0-0.5-0.1-0.9-0.1-1.4
		c-0.1-0.4-0.1-0.8-0.2-1.2c-0.1-0.6-0.2-1.3-0.3-1.9c-0.1-0.4-0.2-0.8-0.3-1.2c-0.1-0.6-0.3-1.2-0.4-1.8c-0.1-0.4-0.2-0.8-0.3-1.2
		c-0.2-0.6-0.4-1.2-0.5-1.8c-0.1-0.4-0.2-0.8-0.4-1.1c-0.2-0.6-0.5-1.3-0.7-1.9c-0.1-0.3-0.2-0.6-0.4-1c-0.4-0.9-0.8-1.7-1.2-2.6
		c0-0.1-0.1-0.1-0.1-0.2c-0.4-0.9-0.9-1.8-1.4-2.7c-0.2-0.3-0.4-0.6-0.5-0.9c-0.3-0.6-0.7-1.1-1.1-1.7c-0.2-0.3-0.5-0.7-0.7-1
		c-0.1-0.1-0.1-0.2-0.2-0.3C95.4,972.6,98.4,980.8,99.2,989.4z"/>
	<path class="st1" d="M99.2,989.4c-0.1,1.2-0.3,2.5-0.5,3.7c0,0.1,0,0.2,0,0.4v1c0.3-1.7,0.6-3.3,0.8-5.1c0-0.5-0.1-0.9-0.1-1.4
		c-0.1-0.4-0.1-0.8-0.2-1.2c-0.1-0.6-0.2-1.3-0.3-1.9c-0.1-0.4-0.2-0.8-0.3-1.2c-0.1-0.6-0.3-1.2-0.4-1.8c-0.1-0.4-0.2-0.8-0.3-1.2
		c-0.2-0.6-0.4-1.2-0.5-1.8c-0.1-0.4-0.2-0.8-0.4-1.1c-0.2-0.6-0.5-1.3-0.7-1.9c-0.1-0.3-0.2-0.6-0.4-1c-0.4-0.9-0.8-1.7-1.2-2.6
		c0-0.1-0.1-0.1-0.1-0.2c-0.4-0.9-0.9-1.8-1.4-2.7c-0.2-0.3-0.4-0.6-0.5-0.9c-0.3-0.6-0.7-1.1-1.1-1.7c-0.2-0.3-0.5-0.7-0.7-1
		c-0.1-0.1-0.1-0.2-0.2-0.3C95.4,972.6,98.4,980.8,99.2,989.4z"/>
	<path class="st1" d="M98.7,993.1c0.2-1.2,0.4-2.5,0.5-3.7c-0.8-8.6-3.8-16.8-8.5-23.8c-0.3-0.4-0.6-0.8-0.9-1.2
		c-0.3-0.3-0.5-0.7-0.8-1c-0.4-0.5-0.7-0.9-1.1-1.4c-0.3-0.3-0.6-0.7-0.8-1c-0.4-0.5-0.8-0.9-1.2-1.3c-0.3-0.3-0.6-0.6-0.9-0.9
		c-0.5-0.5-0.9-0.9-1.4-1.3c-0.3-0.3-0.5-0.5-0.8-0.8c-0.7-0.6-1.4-1.1-2.1-1.7c-0.1-0.1-0.2-0.2-0.3-0.3h0
		C91.7,964.1,98.6,978.1,98.7,993.1z"/>
	<path class="st1" d="M98.7,993.1c0.2-1.2,0.4-2.5,0.5-3.7c-0.8-8.6-3.8-16.8-8.5-23.8c-0.3-0.4-0.6-0.8-0.9-1.2
		c-0.3-0.3-0.5-0.7-0.8-1c-0.4-0.5-0.7-0.9-1.1-1.4c-0.3-0.3-0.6-0.7-0.8-1c-0.4-0.5-0.8-0.9-1.2-1.3c-0.3-0.3-0.6-0.6-0.9-0.9
		c-0.5-0.5-0.9-0.9-1.4-1.3c-0.3-0.3-0.5-0.5-0.8-0.8c-0.7-0.6-1.4-1.1-2.1-1.7c-0.1-0.1-0.2-0.2-0.3-0.3h0
		C91.7,964.1,98.6,978.1,98.7,993.1z"/>
	<path class="st1" d="M98.7,993.1c0.2-1.2,0.4-2.5,0.5-3.7c-0.8-8.6-3.8-16.8-8.5-23.8c-0.3-0.4-0.6-0.8-0.9-1.2
		c-0.3-0.3-0.5-0.7-0.8-1c-0.4-0.5-0.7-0.9-1.1-1.4c-0.3-0.3-0.6-0.7-0.8-1c-0.4-0.5-0.8-0.9-1.2-1.3c-0.3-0.3-0.6-0.6-0.9-0.9
		c-0.5-0.5-0.9-0.9-1.4-1.3c-0.3-0.3-0.5-0.5-0.8-0.8c-0.7-0.6-1.4-1.1-2.1-1.7c-0.1-0.1-0.2-0.2-0.3-0.3h0
		C91.7,964.1,98.6,978.1,98.7,993.1z"/>
	<path class="st1" d="M99.2,1052c-0.1-0.9-0.3-1.8-0.5-2.7C98.9,1050.2,99,1051.1,99.2,1052z"/>
	<path class="st1" d="M99.2,1052c-0.1-0.9-0.3-1.8-0.5-2.7C98.9,1050.2,99,1051.1,99.2,1052z"/>
	<path class="st1" d="M99.5,990.2c0-0.3,0-0.5-0.1-0.8c0,0,0,0,0,0C99.5,989.7,99.5,989.9,99.5,990.2z"/>
	<path class="st1" d="M99.5,990.2c0-0.3,0-0.5-0.1-0.8c0,0,0,0,0,0C99.5,989.7,99.5,989.9,99.5,990.2z"/>
	<path class="st1" d="M99.7,994.3L99.7,994.3c0-1.1,0-2.1-0.1-3.1C99.7,992.2,99.7,993.3,99.7,994.3z"/>
	<path class="st1" d="M99.7,994.3L99.7,994.3c0-1.1,0-2.1-0.1-3.1C99.7,992.2,99.7,993.3,99.7,994.3z"/>
	<path class="st1" d="M99.5,990.2c0-0.2,0-0.5-0.1-0.7c-0.2,1.7-0.4,3.4-0.8,5.1v54.8c0,0,0,0,0,0c0.2,0.9,0.3,1.8,0.5,2.7
		c0.1,0.8,0.2,1.6,0.3,2.4c0.2-1.6,0.3-3.2,0.3-4.9v-55.1c0-1.1,0-2.1-0.1-3.1C99.6,990.8,99.6,990.5,99.5,990.2z"/>
	<path class="st1" d="M99.5,990.2c0-0.2,0-0.5-0.1-0.7c-0.2,1.7-0.4,3.4-0.8,5.1v54.8c0,0,0,0,0,0c0.2,0.9,0.3,1.8,0.5,2.7
		c0.1,0.8,0.2,1.6,0.3,2.4c0.2-1.6,0.3-3.2,0.3-4.9v-55.1c0-1.1,0-2.1-0.1-3.1C99.6,990.8,99.6,990.5,99.5,990.2z"/>
	<path class="st1" d="M99.5,990.2c0-0.2,0-0.5-0.1-0.7c-0.2,1.7-0.4,3.4-0.8,5.1v54.8c0,0,0,0,0,0c0.2,0.9,0.3,1.8,0.5,2.7
		c0.1,0.8,0.2,1.6,0.3,2.4c0.2-1.6,0.3-3.2,0.3-4.9v-55.1c0-1.1,0-2.1-0.1-3.1C99.6,990.8,99.6,990.5,99.5,990.2z"/>
	<path class="st1" d="M0,1127.4c0.3,0,0.5,0,0.8,0C0.5,1127.4,0.3,1127.4,0,1127.4L0,1127.4z"/>
	<path class="st1" d="M30.3,1049.9c-2.2,2.5-4.7,4.9-7.4,6.9c11.8-7.3,19.1-20.1,19.4-33.9c-0.4,3.6-1.2,7-2.3,10.4
		C38,1039.5,34.7,1045.2,30.3,1049.9z"/>
	<path class="st26" d="M81.8,1020.8c-0.4-0.4-0.9-0.7-1.3-1c-0.3-0.2-0.6-0.5-0.9-0.7c-0.5-0.4-1-0.7-1.6-1.1
		c-0.3-0.2-0.5-0.4-0.8-0.5c-0.8-0.5-1.6-1-2.5-1.5l-32.2-18.6v19.7c0,2-0.1,3.9-0.3,5.8c-0.3,13.9-7.6,26.6-19.4,33.9
		c-1.1,0.8-2.2,1.6-3.3,2.3c2.3-0.9,4.5-2,6.7-3.2l48.5-28c3-1.7,5.7-3.8,8.3-6c-0.1-0.1-0.2-0.2-0.3-0.2
		C82.4,1021.4,82.1,1021.1,81.8,1020.8z"/>
	<path class="st1" d="M80.5,1019.8c0.4,0.3,0.9,0.7,1.3,1C81.4,1020.5,80.9,1020.1,80.5,1019.8z"/>
	<path class="st1" d="M80.5,1019.8c0.4,0.3,0.9,0.7,1.3,1C81.4,1020.5,80.9,1020.1,80.5,1019.8z"/>
	<path class="st1" d="M80.5,1019.8c0.4,0.3,0.9,0.7,1.3,1C81.4,1020.5,80.9,1020.1,80.5,1019.8z"/>
	<path class="st1" d="M74.8,1015.9c0.8,0.5,1.7,1,2.5,1.5C76.4,1016.9,75.6,1016.4,74.8,1015.9l-32.2-18.6v0L74.8,1015.9z"/>
	<path class="st1" d="M74.8,1015.9c0.8,0.5,1.7,1,2.5,1.5C76.4,1016.9,75.6,1016.4,74.8,1015.9l-32.2-18.6v0L74.8,1015.9z"/>
	<path class="st1" d="M74.8,1015.9c0.8,0.5,1.7,1,2.5,1.5C76.4,1016.9,75.6,1016.4,74.8,1015.9l-32.2-18.6v0L74.8,1015.9z"/>
	<path class="st1" d="M78,1018c0.5,0.4,1,0.7,1.6,1.1C79,1018.7,78.5,1018.3,78,1018z"/>
	<path class="st1" d="M78,1018c0.5,0.4,1,0.7,1.6,1.1C79,1018.7,78.5,1018.3,78,1018z"/>
	<path class="st1" d="M78,1018c0.5,0.4,1,0.7,1.6,1.1C79,1018.7,78.5,1018.3,78,1018z"/>
	<path class="st1" d="M83,1021.9C83,1021.9,83,1021.9,83,1021.9c-0.1-0.1-0.2-0.2-0.3-0.2C82.8,1021.7,82.9,1021.8,83,1021.9z"/>
	<path class="st1" d="M83,1021.9C83,1021.9,83,1021.9,83,1021.9c-0.1-0.1-0.2-0.2-0.3-0.2C82.8,1021.7,82.9,1021.8,83,1021.9z"/>
	<path class="st1" d="M83,1021.9C83,1021.9,83,1021.9,83,1021.9c-0.1-0.1-0.2-0.2-0.3-0.2C82.8,1021.7,82.9,1021.8,83,1021.9z"/>
	<path class="st1" d="M73.7,1092.7c15.5-8.9,25-25.4,25-43.3v-0.2c0,0,0,0,0,0c-0.1-0.7-0.3-1.5-0.5-2.2c0-0.2-0.1-0.3-0.1-0.5
		c-0.2-0.7-0.4-1.3-0.6-2c-0.1-0.2-0.1-0.4-0.2-0.7c-0.2-0.6-0.4-1.3-0.6-1.9c-0.1-0.2-0.2-0.5-0.3-0.7c-0.2-0.6-0.5-1.2-0.7-1.8
		c-0.1-0.2-0.2-0.5-0.3-0.7c-0.3-0.6-0.5-1.2-0.8-1.8c-0.1-0.2-0.2-0.5-0.3-0.7c-0.3-0.6-0.6-1.2-0.9-1.8c-0.1-0.1-0.2-0.3-0.2-0.4
		c-0.7-1.3-1.5-2.5-2.4-3.7c-0.1-0.1-0.2-0.2-0.2-0.3c-0.3-0.4-0.6-0.8-1-1.3c-0.3-0.3-0.5-0.7-0.8-1c-0.3-0.4-0.6-0.7-0.9-1.1
		c-0.3-0.4-0.6-0.7-0.9-1.1c-0.3-0.3-0.6-0.7-0.9-1c-0.3-0.4-0.7-0.7-1-1.1c-0.3-0.3-0.6-0.6-0.9-0.9c-0.3-0.3-0.6-0.5-0.9-0.8
		c-2.6,2.4-5.5,4.5-8.6,6.3l-48.5,28c-2.4,1.4-4.9,2.6-7.5,3.5c-0.3,0.2-0.6,0.4-0.9,0.5L0,1070.5v56.9c0.3,0,0.5,0,0.8,0
		c8.5-0.1,16.9-2.3,24.5-6.7L73.7,1092.7z"/>
	<path class="st1" d="M73.7,1092.7c15.5-8.9,25-25.4,25-43.3v-0.2c0,0,0,0,0,0c-0.1-0.7-0.3-1.5-0.5-2.2c0-0.2-0.1-0.3-0.1-0.5
		c-0.2-0.7-0.4-1.3-0.6-2c-0.1-0.2-0.1-0.4-0.2-0.7c-0.2-0.6-0.4-1.3-0.6-1.9c-0.1-0.2-0.2-0.5-0.3-0.7c-0.2-0.6-0.5-1.2-0.7-1.8
		c-0.1-0.2-0.2-0.5-0.3-0.7c-0.3-0.6-0.5-1.2-0.8-1.8c-0.1-0.2-0.2-0.5-0.3-0.7c-0.3-0.6-0.6-1.2-0.9-1.8c-0.1-0.1-0.2-0.3-0.2-0.4
		c-0.7-1.3-1.5-2.5-2.4-3.7c-0.1-0.1-0.2-0.2-0.2-0.3c-0.3-0.4-0.6-0.8-1-1.3c-0.3-0.3-0.5-0.7-0.8-1c-0.3-0.4-0.6-0.7-0.9-1.1
		c-0.3-0.4-0.6-0.7-0.9-1.1c-0.3-0.3-0.6-0.7-0.9-1c-0.3-0.4-0.7-0.7-1-1.1c-0.3-0.3-0.6-0.6-0.9-0.9c-0.3-0.3-0.6-0.5-0.9-0.8
		c-2.6,2.4-5.5,4.5-8.6,6.3l-48.5,28c-2.4,1.4-4.9,2.6-7.5,3.5c-0.3,0.2-0.6,0.4-0.9,0.5L0,1070.5v56.9c0.3,0,0.5,0,0.8,0
		c8.5-0.1,16.9-2.3,24.5-6.7L73.7,1092.7z"/>
	<path class="st1" d="M74.8,1027.9l-48.5,28c-2.2,1.3-4.4,2.3-6.7,3.2c-0.3,0.2-0.7,0.4-1.1,0.7c2.6-1,5-2.1,7.5-3.5l48.5-28
		c3.1-1.8,6-3.9,8.6-6.3c0,0,0,0,0,0C80.5,1024.2,77.7,1026.2,74.8,1027.9z"/>
	<path class="st1" d="M74.8,1027.9l-48.5,28c-2.2,1.3-4.4,2.3-6.7,3.2c-0.3,0.2-0.7,0.4-1.1,0.7c2.6-1,5-2.1,7.5-3.5l48.5-28
		c3.1-1.8,6-3.9,8.6-6.3c0,0,0,0,0,0C80.5,1024.2,77.7,1026.2,74.8,1027.9z"/>
	<path class="st1" d="M74.8,1027.9l-48.5,28c-2.2,1.3-4.4,2.3-6.7,3.2c-0.3,0.2-0.7,0.4-1.1,0.7c2.6-1,5-2.1,7.5-3.5l48.5-28
		c3.1-1.8,6-3.9,8.6-6.3c0,0,0,0,0,0C80.5,1024.2,77.7,1026.2,74.8,1027.9z"/>
	<polygon class="st1" points="98.7,1049.3 98.7,1049.3 98.7,1049.3 	"/>
	<polygon class="st1" points="98.7,1049.3 98.7,1049.3 98.7,1049.3 	"/>
	<polygon class="st1" points="98.7,1049.3 98.7,1049.3 98.7,1049.3 	"/>
	<path class="st1" d="M97.5,1044.6c-0.1-0.2-0.1-0.4-0.2-0.7C97.4,1044.1,97.4,1044.4,97.5,1044.6z"/>
	<path class="st1" d="M97.5,1044.6c-0.1-0.2-0.1-0.4-0.2-0.7C97.4,1044.1,97.4,1044.4,97.5,1044.6z"/>
	<path class="st1" d="M97.5,1044.6c-0.1-0.2-0.1-0.4-0.2-0.7C97.4,1044.1,97.4,1044.4,97.5,1044.6z"/>
	<path class="st1" d="M98.2,1047.1c0-0.2-0.1-0.3-0.1-0.5C98.1,1046.8,98.2,1046.9,98.2,1047.1z"/>
	<path class="st1" d="M98.2,1047.1c0-0.2-0.1-0.3-0.1-0.5C98.1,1046.8,98.2,1046.9,98.2,1047.1z"/>
	<path class="st1" d="M98.2,1047.1c0-0.2-0.1-0.3-0.1-0.5C98.1,1046.8,98.2,1046.9,98.2,1047.1z"/>
	<path class="st1" d="M84.9,1023.6c0.4,0.3,0.7,0.7,1,1.1C85.5,1024.3,85.2,1024,84.9,1023.6z"/>
	<path class="st1" d="M84.9,1023.6c0.4,0.3,0.7,0.7,1,1.1C85.5,1024.3,85.2,1024,84.9,1023.6z"/>
	<path class="st1" d="M84.9,1023.6c0.4,0.3,0.7,0.7,1,1.1C85.5,1024.3,85.2,1024,84.9,1023.6z"/>
	<path class="st1" d="M87.7,1026.7c-0.3-0.4-0.6-0.7-0.9-1.1C87.1,1026,87.4,1026.4,87.7,1026.7z"/>
	<path class="st1" d="M87.7,1026.7c-0.3-0.4-0.6-0.7-0.9-1.1C87.1,1026,87.4,1026.4,87.7,1026.7z"/>
	<path class="st1" d="M87.7,1026.7c-0.3-0.4-0.6-0.7-0.9-1.1C87.1,1026,87.4,1026.4,87.7,1026.7z"/>
	<path class="st1" d="M83,1021.9c0.3,0.3,0.6,0.5,0.9,0.8C83.6,1022.4,83.3,1022.2,83,1021.9C83.1,1021.9,83.1,1021.9,83,1021.9z"/>
	<path class="st1" d="M83,1021.9c0.3,0.3,0.6,0.5,0.9,0.8C83.6,1022.4,83.3,1022.2,83,1021.9C83.1,1021.9,83.1,1021.9,83,1021.9z"/>
	<path class="st1" d="M83,1021.9c0.3,0.3,0.6,0.5,0.9,0.8C83.6,1022.4,83.3,1022.2,83,1021.9C83.1,1021.9,83.1,1021.9,83,1021.9z"/>
	<path class="st1" d="M93.2,1034.6c-0.1-0.1-0.2-0.3-0.2-0.4C93.1,1034.3,93.2,1034.4,93.2,1034.6z"/>
	<path class="st1" d="M93.2,1034.6c-0.1-0.1-0.2-0.3-0.2-0.4C93.1,1034.3,93.2,1034.4,93.2,1034.6z"/>
	<path class="st1" d="M93.2,1034.6c-0.1-0.1-0.2-0.3-0.2-0.4C93.1,1034.3,93.2,1034.4,93.2,1034.6z"/>
	<path class="st1" d="M94.5,1037c-0.1-0.2-0.2-0.5-0.3-0.7C94.3,1036.6,94.4,1036.8,94.5,1037z"/>
	<path class="st1" d="M94.5,1037c-0.1-0.2-0.2-0.5-0.3-0.7C94.3,1036.6,94.4,1036.8,94.5,1037z"/>
	<path class="st1" d="M94.5,1037c-0.1-0.2-0.2-0.5-0.3-0.7C94.3,1036.6,94.4,1036.8,94.5,1037z"/>
	<path class="st1" d="M89.4,1028.8c-0.3-0.3-0.5-0.7-0.8-1C88.9,1028.2,89.2,1028.5,89.4,1028.8z"/>
	<path class="st1" d="M89.4,1028.8c-0.3-0.3-0.5-0.7-0.8-1C88.9,1028.2,89.2,1028.5,89.4,1028.8z"/>
	<path class="st1" d="M89.4,1028.8c-0.3-0.3-0.5-0.7-0.8-1C88.9,1028.2,89.2,1028.5,89.4,1028.8z"/>
	<path class="st1" d="M90.6,1030.4c-0.1-0.1-0.2-0.2-0.2-0.3C90.5,1030.2,90.5,1030.3,90.6,1030.4z"/>
	<path class="st1" d="M90.6,1030.4c-0.1-0.1-0.2-0.2-0.2-0.3C90.5,1030.2,90.5,1030.3,90.6,1030.4z"/>
	<path class="st1" d="M90.6,1030.4c-0.1-0.1-0.2-0.2-0.2-0.3C90.5,1030.2,90.5,1030.3,90.6,1030.4z"/>
	<path class="st1" d="M95.7,1039.5c-0.1-0.2-0.2-0.5-0.3-0.7C95.4,1039,95.5,1039.2,95.7,1039.5z"/>
	<path class="st1" d="M95.7,1039.5c-0.1-0.2-0.2-0.5-0.3-0.7C95.4,1039,95.5,1039.2,95.7,1039.5z"/>
	<path class="st1" d="M95.7,1039.5c-0.1-0.2-0.2-0.5-0.3-0.7C95.4,1039,95.5,1039.2,95.7,1039.5z"/>
	<path class="st1" d="M96.7,1042c-0.1-0.2-0.2-0.5-0.3-0.7C96.5,1041.5,96.6,1041.8,96.7,1042z"/>
	<path class="st1" d="M96.7,1042c-0.1-0.2-0.2-0.5-0.3-0.7C96.5,1041.5,96.6,1041.8,96.7,1042z"/>
	<path class="st1" d="M96.7,1042c-0.1-0.2-0.2-0.5-0.3-0.7C96.5,1041.5,96.6,1041.8,96.7,1042z"/>
	<path class="st1" d="M83,1021.9C83,1021.9,83,1021.9,83,1021.9C83,1021.9,83,1021.9,83,1021.9C83.1,1021.9,83.1,1021.9,83,1021.9
		C83,1021.9,83,1021.9,83,1021.9z"/>
	<path class="st1" d="M83,1021.9C83,1021.9,83,1021.9,83,1021.9C83,1021.9,83,1021.9,83,1021.9C83.1,1021.9,83.1,1021.9,83,1021.9
		C83,1021.9,83,1021.9,83,1021.9z"/>
	<path class="st1" d="M83,1021.9C83,1021.9,83,1021.9,83,1021.9C83,1021.9,83,1021.9,83,1021.9C83.1,1021.9,83.1,1021.9,83,1021.9
		C83,1021.9,83,1021.9,83,1021.9z"/>
	<path class="st1" d="M83,1021.9C83,1021.9,83,1021.9,83,1021.9C83,1021.9,83,1021.9,83,1021.9C83.1,1021.9,83.1,1021.9,83,1021.9
		C83,1021.9,83,1021.9,83,1021.9z"/>
	<path class="st1" d="M76.7,952.3C76.7,952.3,76.7,952.3,76.7,952.3C76.7,952.3,76.7,952.3,76.7,952.3c0.5,0.3,1,0.7,1.5,1
		c0.7,0.5,1.4,0.9,2,1.4c-0.9-0.8-1.9-1.5-2.9-2.2c0,0,0,0,0,0C77.1,952.5,76.9,952.4,76.7,952.3z"/>
	<path class="st1" d="M76.7,952.3C76.7,952.3,76.7,952.3,76.7,952.3C76.7,952.3,76.7,952.3,76.7,952.3c0.5,0.3,1,0.7,1.5,1
		c0.7,0.5,1.4,0.9,2,1.4c-0.9-0.8-1.9-1.5-2.9-2.2c0,0,0,0,0,0C77.1,952.5,76.9,952.4,76.7,952.3z"/>
	<path class="st1" d="M76.7,952.3c0.5,0.3,1,0.7,1.5,1C77.7,952.9,77.2,952.6,76.7,952.3z"/>
	<path class="st1" d="M76.7,952.3c0.5,0.3,1,0.7,1.5,1C77.7,952.9,77.2,952.6,76.7,952.3z"/>
	<path class="st1" d="M76.7,952.3c0.5,0.3,1,0.7,1.5,1C77.7,952.9,77.2,952.6,76.7,952.3z"/>
	<polygon class="st1" points="76.7,952.3 76.7,952.3 76.7,952.3 	"/>
	<polygon class="st1" points="76.7,952.3 76.7,952.3 76.7,952.3 	"/>
	<polygon class="st1" points="76.7,952.3 76.7,952.3 76.7,952.3 	"/>
	<polygon class="st1" points="77.3,952.5 77.3,952.5 77.3,952.5 	"/>
	<polygon class="st1" points="77.3,952.5 77.3,952.5 77.3,952.5 	"/>
	<polygon class="st1" points="77.3,952.5 77.3,952.5 77.3,952.5 	"/>
	<path class="st1" d="M76.7,952.3c0.2,0.1,0.4,0.2,0.6,0.3C77.1,952.5,76.9,952.4,76.7,952.3z"/>
	<path class="st1" d="M76.7,952.3c0.2,0.1,0.4,0.2,0.6,0.3C77.1,952.5,76.9,952.4,76.7,952.3z"/>
	<path class="st1" d="M76.7,952.3c0.2,0.1,0.4,0.2,0.6,0.3C77.1,952.5,76.9,952.4,76.7,952.3z"/>
	<path class="st1" d="M23.1,921.1c0.1,0,0.2,0.1,0.3,0.1C23.3,921.2,23.2,921.1,23.1,921.1z"/>
	<path class="st1" d="M23.1,921.1c0.1,0,0.2,0.1,0.3,0.1C23.3,921.2,23.2,921.1,23.1,921.1z"/>
	<path class="st1" d="M23.1,921.1c0.1,0,0.2,0.1,0.3,0.1C23.3,921.2,23.2,921.1,23.1,921.1z"/>
	<path class="st1" d="M21.3,920.2C21.3,920.2,21.4,920.3,21.3,920.2c0.3,0.2,0.5,0.2,0.7,0.3C21.8,920.4,21.5,920.3,21.3,920.2z"/>
	<path class="st1" d="M21.3,920.2C21.3,920.2,21.4,920.3,21.3,920.2c0.3,0.2,0.5,0.2,0.7,0.3C21.8,920.4,21.5,920.3,21.3,920.2z"/>
	<path class="st1" d="M21.3,920.2C21.3,920.2,21.4,920.3,21.3,920.2c0.3,0.2,0.5,0.2,0.7,0.3C21.8,920.4,21.5,920.3,21.3,920.2z"/>
	<path class="st1" d="M24,921.9c0.8,0.4,1.5,0.8,2.2,1.2l48.5,28c0.7,0.4,1.3,0.8,1.9,1.2c0,0,0,0,0,0c0.2,0.1,0.4,0.2,0.6,0.3
		c0,0,0,0,0,0c-1.2-0.8-2.3-1.6-3.6-2.3l-48.5-28c-0.6-0.4-1.3-0.7-1.9-1c-0.1,0-0.2-0.1-0.3-0.1c-0.3-0.2-0.7-0.3-1-0.5
		c-0.2-0.1-0.4-0.2-0.6-0.3c0.4,0.3,0.8,0.6,1.2,0.9c0,0,0,0,0,0C23.1,921.4,23.5,921.6,24,921.9z"/>
	<path class="st1" d="M24,921.9c0.8,0.4,1.5,0.8,2.2,1.2l48.5,28c0.7,0.4,1.3,0.8,1.9,1.2c0,0,0,0,0,0c0.2,0.1,0.4,0.2,0.6,0.3
		c0,0,0,0,0,0c-1.2-0.8-2.3-1.6-3.6-2.3l-48.5-28c-0.6-0.4-1.3-0.7-1.9-1c-0.1,0-0.2-0.1-0.3-0.1c-0.3-0.2-0.7-0.3-1-0.5
		c-0.2-0.1-0.4-0.2-0.6-0.3c0.4,0.3,0.8,0.6,1.2,0.9c0,0,0,0,0,0C23.1,921.4,23.5,921.6,24,921.9z"/>
	<path class="st1" d="M24,921.9c0.8,0.4,1.5,0.8,2.2,1.2l48.5,28c0.7,0.4,1.3,0.8,1.9,1.2c0,0,0,0,0,0c0.2,0.1,0.4,0.2,0.6,0.3
		c0,0,0,0,0,0c-1.2-0.8-2.3-1.6-3.6-2.3l-48.5-28c-0.6-0.4-1.3-0.7-1.9-1c-0.1,0-0.2-0.1-0.3-0.1c-0.3-0.2-0.7-0.3-1-0.5
		c-0.2-0.1-0.4-0.2-0.6-0.3c0.4,0.3,0.8,0.6,1.2,0.9c0,0,0,0,0,0C23.1,921.4,23.5,921.6,24,921.9z"/>
	<path class="st1" d="M24,921.9c0.8,0.4,1.5,0.8,2.2,1.2l48.5,28c0.7,0.4,1.3,0.8,1.9,1.2c0,0,0,0,0,0c0.2,0.1,0.4,0.2,0.6,0.3
		c0,0,0,0,0,0c-1.2-0.8-2.3-1.6-3.6-2.3l-48.5-28c-0.6-0.4-1.3-0.7-1.9-1c-0.1,0-0.2-0.1-0.3-0.1c-0.3-0.2-0.7-0.3-1-0.5
		c-0.2-0.1-0.4-0.2-0.6-0.3c0.4,0.3,0.8,0.6,1.2,0.9c0,0,0,0,0,0C23.1,921.4,23.5,921.6,24,921.9z"/>
	<path class="st1" d="M24,921.9c-0.5-0.2-1-0.5-1.4-0.7C23.1,921.4,23.5,921.6,24,921.9z"/>
	<path class="st1" d="M24,921.9c-0.5-0.2-1-0.5-1.4-0.7C23.1,921.4,23.5,921.6,24,921.9z"/>
	<path class="st1" d="M24,921.9c-0.5-0.2-1-0.5-1.4-0.7C23.1,921.4,23.5,921.6,24,921.9z"/>
	<path class="st1" d="M24,921.9c-0.5-0.2-1-0.5-1.4-0.7C23.1,921.4,23.5,921.6,24,921.9z"/>
	<path class="st1" d="M24,921.9c-0.5-0.2-1-0.5-1.4-0.7C23.1,921.4,23.5,921.6,24,921.9z"/>
	<path class="st1" d="M79.6,1019.1c0.3,0.2,0.6,0.5,0.9,0.7C80.2,1019.5,79.9,1019.3,79.6,1019.1z"/>
	<path class="st1" d="M79.6,1019.1c0.3,0.2,0.6,0.5,0.9,0.7C80.2,1019.5,79.9,1019.3,79.6,1019.1z"/>
	<path class="st1" d="M81.8,1020.8c0.3,0.3,0.6,0.5,1,0.8C82.4,1021.4,82.1,1021.1,81.8,1020.8z"/>
	<path class="st1" d="M81.8,1020.8c0.3,0.3,0.6,0.5,1,0.8C82.4,1021.4,82.1,1021.1,81.8,1020.8z"/>
	<path class="st1" d="M77.2,1017.4c0.3,0.2,0.5,0.4,0.8,0.5C77.7,1017.8,77.5,1017.6,77.2,1017.4z"/>
	<path class="st1" d="M77.2,1017.4c0.3,0.2,0.5,0.4,0.8,0.5C77.7,1017.8,77.5,1017.6,77.2,1017.4z"/>
	<polygon class="st1" points="76.7,952.3 76.7,952.3 76.7,952.3 	"/>
	<polygon class="st1" points="76.7,952.3 76.7,952.3 76.7,952.3 	"/>
	<path class="st1" d="M80.2,954.7C80.2,954.7,80.2,954.7,80.2,954.7c-0.7-0.5-1.3-1-2-1.4C78.9,953.8,79.6,954.2,80.2,954.7z"/>
	<path class="st1" d="M80.2,954.7C80.2,954.7,80.2,954.7,80.2,954.7c-0.7-0.5-1.3-1-2-1.4C78.9,953.8,79.6,954.2,80.2,954.7z"/>
	<path class="st1" d="M98.7,994.5v-1c0-0.1,0-0.2,0-0.4c-1.6,9.5-5.9,18.4-12.3,25.5C92.6,1011.9,96.9,1003.5,98.7,994.5z"/>
	<path class="st1" d="M98.7,994.5v-1c0-0.1,0-0.2,0-0.4c-1.6,9.5-5.9,18.4-12.3,25.5C92.6,1011.9,96.9,1003.5,98.7,994.5z"/>
	<polygon class="st1" points="76.7,952.3 76.7,952.3 76.7,952.3 76.7,952.3 	"/>
	<polygon class="st1" points="76.7,952.3 76.7,952.3 76.7,952.3 76.7,952.3 	"/>
	<polygon class="st1" points="76.7,952.3 76.7,952.3 76.7,952.3 76.7,952.3 	"/>
	<path class="st1" d="M47.8,950c0.8-0.2,1.7-0.3,2.5-0.5C49.5,949.6,48.6,949.8,47.8,950z"/>
	<path class="st1" d="M47.8,950c0.8-0.2,1.7-0.3,2.5-0.5C49.5,949.6,48.6,949.8,47.8,950z"/>
	<path class="st1" d="M47.8,950c0.8-0.2,1.7-0.3,2.5-0.5C49.5,949.6,48.6,949.8,47.8,950z"/>
	<path class="st1" d="M47.8,950c0.8-0.2,1.7-0.3,2.5-0.5C49.5,949.6,48.6,949.8,47.8,950z"/>
	<path class="st1" d="M59.6,948.8c0.8,0,1.5,0.1,2.3,0.1C61.1,948.9,60.3,948.9,59.6,948.8z"/>
	<path class="st1" d="M59.6,948.8c0.8,0,1.5,0.1,2.3,0.1C61.1,948.9,60.3,948.9,59.6,948.8z"/>
	<path class="st1" d="M59.6,948.8c0.8,0,1.5,0.1,2.3,0.1C61.1,948.9,60.3,948.9,59.6,948.8z"/>
	<path class="st1" d="M59.6,948.8c0.8,0,1.5,0.1,2.3,0.1C61.1,948.9,60.3,948.9,59.6,948.8z"/>
	<path class="st1" d="M50.8,949.4c0.7-0.1,1.5-0.2,2.2-0.3C52.2,949.2,51.5,949.3,50.8,949.4z"/>
	<path class="st1" d="M50.8,949.4c0.7-0.1,1.5-0.2,2.2-0.3C52.2,949.2,51.5,949.3,50.8,949.4z"/>
	<path class="st1" d="M50.8,949.4c0.7-0.1,1.5-0.2,2.2-0.3C52.2,949.2,51.5,949.3,50.8,949.4z"/>
	<path class="st1" d="M50.8,949.4c0.7-0.1,1.5-0.2,2.2-0.3C52.2,949.2,51.5,949.3,50.8,949.4z"/>
	<path class="st1" d="M56.6,948.9c0.9,0,1.7,0,2.6,0C58.3,948.8,57.5,948.8,56.6,948.9z"/>
	<path class="st1" d="M56.6,948.9c0.9,0,1.7,0,2.6,0C58.3,948.8,57.5,948.8,56.6,948.9z"/>
	<path class="st1" d="M56.6,948.9c0.9,0,1.7,0,2.6,0C58.3,948.8,57.5,948.8,56.6,948.9z"/>
	<path class="st1" d="M56.6,948.9c0.9,0,1.7,0,2.6,0C58.3,948.8,57.5,948.8,56.6,948.9z"/>
	<path class="st1" d="M65.5,949.3c0.9,0.1,1.7,0.3,2.6,0.4C67.2,949.6,66.3,949.4,65.5,949.3z"/>
	<path class="st1" d="M65.5,949.3c0.9,0.1,1.7,0.3,2.6,0.4C67.2,949.6,66.3,949.4,65.5,949.3z"/>
	<path class="st1" d="M65.5,949.3c0.9,0.1,1.7,0.3,2.6,0.4C67.2,949.6,66.3,949.4,65.5,949.3z"/>
	<path class="st1" d="M65.5,949.3c0.9,0.1,1.7,0.3,2.6,0.4C67.2,949.6,66.3,949.4,65.5,949.3z"/>
	<path class="st1" d="M42.1,951.6c0.7-0.2,1.4-0.5,2.1-0.7C43.5,951.1,42.8,951.3,42.1,951.6z"/>
	<path class="st1" d="M42.1,951.6c0.7-0.2,1.4-0.5,2.1-0.7C43.5,951.1,42.8,951.3,42.1,951.6z"/>
	<path class="st1" d="M42.1,951.6c0.7-0.2,1.4-0.5,2.1-0.7C43.5,951.1,42.8,951.3,42.1,951.6z"/>
	<path class="st1" d="M42.1,951.6c0.7-0.2,1.4-0.5,2.1-0.7C43.5,951.1,42.8,951.3,42.1,951.6z"/>
	<path class="st1" d="M68.4,949.8c0.8,0.2,1.5,0.3,2.3,0.5C69.9,950.2,69.1,950,68.4,949.8z"/>
	<path class="st1" d="M68.4,949.8c0.8,0.2,1.5,0.3,2.3,0.5C69.9,950.2,69.1,950,68.4,949.8z"/>
	<path class="st1" d="M68.4,949.8c0.8,0.2,1.5,0.3,2.3,0.5C69.9,950.2,69.1,950,68.4,949.8z"/>
	<path class="st1" d="M68.4,949.8c0.8,0.2,1.5,0.3,2.3,0.5C69.9,950.2,69.1,950,68.4,949.8z"/>
	<path class="st1" d="M71.5,950.6c0.6,0.2,1.2,0.3,1.8,0.5C72.7,950.9,72.1,950.7,71.5,950.6z"/>
	<path class="st1" d="M71.5,950.6c0.6,0.2,1.2,0.3,1.8,0.5C72.7,950.9,72.1,950.7,71.5,950.6z"/>
	<path class="st1" d="M71.5,950.6c0.6,0.2,1.2,0.3,1.8,0.5C72.7,950.9,72.1,950.7,71.5,950.6z"/>
	<path class="st1" d="M71.5,950.6c0.6,0.2,1.2,0.3,1.8,0.5C72.7,950.9,72.1,950.7,71.5,950.6z"/>
	<path class="st1" d="M62.8,949c0.6,0.1,1.2,0.1,1.8,0.2C64,949.1,63.4,949.1,62.8,949z"/>
	<path class="st1" d="M62.8,949c0.6,0.1,1.2,0.1,1.8,0.2C64,949.1,63.4,949.1,62.8,949z"/>
	<path class="st1" d="M62.8,949c0.6,0.1,1.2,0.1,1.8,0.2C64,949.1,63.4,949.1,62.8,949z"/>
	<path class="st1" d="M62.8,949c0.6,0.1,1.2,0.1,1.8,0.2C64,949.1,63.4,949.1,62.8,949z"/>
	<path class="st1" d="M45.2,950.6c0.6-0.2,1.2-0.3,1.7-0.4C46.3,950.3,45.7,950.5,45.2,950.6z"/>
	<path class="st1" d="M45.2,950.6c0.6-0.2,1.2-0.3,1.7-0.4C46.3,950.3,45.7,950.5,45.2,950.6z"/>
	<path class="st1" d="M45.2,950.6c0.6-0.2,1.2-0.3,1.7-0.4C46.3,950.3,45.7,950.5,45.2,950.6z"/>
	<path class="st1" d="M45.2,950.6c0.6-0.2,1.2-0.3,1.7-0.4C46.3,950.3,45.7,950.5,45.2,950.6z"/>
	<path class="st1" d="M53.9,949c0.6-0.1,1.2-0.1,1.8-0.1C55.1,948.9,54.5,949,53.9,949z"/>
	<path class="st1" d="M53.9,949c0.6-0.1,1.2-0.1,1.8-0.1C55.1,948.9,54.5,949,53.9,949z"/>
	<path class="st1" d="M53.9,949c0.6-0.1,1.2-0.1,1.8-0.1C55.1,948.9,54.5,949,53.9,949z"/>
	<path class="st1" d="M53.9,949c0.6-0.1,1.2-0.1,1.8-0.1C55.1,948.9,54.5,949,53.9,949z"/>
	<polygon class="st1" points="41.7,951.7 41.7,951.7 41.7,951.7 	"/>
	<polygon class="st1" points="41.7,951.7 41.7,951.7 41.7,951.7 	"/>
	<polygon class="st1" points="41.7,951.7 41.7,951.7 41.7,951.7 	"/>
	<polygon class="st1" points="41.7,951.7 41.7,951.7 41.7,951.7 	"/>
	<path class="st1" d="M76.7,952.3c-0.8-0.3-1.7-0.6-2.5-0.9C75,951.7,75.9,951.9,76.7,952.3C76.7,952.3,76.7,952.3,76.7,952.3z"/>
	<path class="st1" d="M76.7,952.3c-0.8-0.3-1.7-0.6-2.5-0.9C75,951.7,75.9,951.9,76.7,952.3C76.7,952.3,76.7,952.3,76.7,952.3z"/>
	<path class="st1" d="M76.7,952.3c-0.8-0.3-1.7-0.6-2.5-0.9C75,951.7,75.9,951.9,76.7,952.3C76.7,952.3,76.7,952.3,76.7,952.3z"/>
	<path class="st1" d="M76.7,952.3c-0.8-0.3-1.7-0.6-2.5-0.9C75,951.7,75.9,951.9,76.7,952.3C76.7,952.3,76.7,952.3,76.7,952.3z"/>
	<path class="st1" d="M90.4,1030.1c-0.3-0.4-0.6-0.8-1-1.3C89.7,1029.2,90.1,1029.7,90.4,1030.1z"/>
	<path class="st1" d="M90.4,1030.1c-0.3-0.4-0.6-0.8-1-1.3C89.7,1029.2,90.1,1029.7,90.4,1030.1z"/>
	<path class="st1" d="M88.7,1027.8c-0.3-0.4-0.6-0.7-0.9-1.1C88.1,1027.1,88.4,1027.5,88.7,1027.8z"/>
	<path class="st1" d="M88.7,1027.8c-0.3-0.4-0.6-0.7-0.9-1.1C88.1,1027.1,88.4,1027.5,88.7,1027.8z"/>
	<path class="st1" d="M86.8,1025.7c-0.3-0.3-0.6-0.7-0.9-1C86.2,1025,86.5,1025.3,86.8,1025.7z"/>
	<path class="st1" d="M86.8,1025.7c-0.3-0.3-0.6-0.7-0.9-1C86.2,1025,86.5,1025.3,86.8,1025.7z"/>
	<path class="st1" d="M93,1034.2c-0.7-1.3-1.5-2.5-2.4-3.7C91.5,1031.6,92.3,1032.9,93,1034.2z"/>
	<path class="st1" d="M93,1034.2c-0.7-1.3-1.5-2.5-2.4-3.7C91.5,1031.6,92.3,1032.9,93,1034.2z"/>
	<path class="st1" d="M98.1,1046.6c-0.2-0.7-0.4-1.3-0.6-2C97.7,1045.2,97.9,1045.9,98.1,1046.6z"/>
	<path class="st1" d="M98.1,1046.6c-0.2-0.7-0.4-1.3-0.6-2C97.7,1045.2,97.9,1045.9,98.1,1046.6z"/>
	<path class="st1" d="M97.3,1043.9c-0.2-0.6-0.4-1.3-0.6-1.9C96.9,1042.7,97.1,1043.3,97.3,1043.9z"/>
	<path class="st1" d="M97.3,1043.9c-0.2-0.6-0.4-1.3-0.6-1.9C96.9,1042.7,97.1,1043.3,97.3,1043.9z"/>
	<path class="st1" d="M94.2,1036.3c-0.3-0.6-0.6-1.2-0.9-1.8C93.6,1035.1,93.9,1035.7,94.2,1036.3z"/>
	<path class="st1" d="M94.2,1036.3c-0.3-0.6-0.6-1.2-0.9-1.8C93.6,1035.1,93.9,1035.7,94.2,1036.3z"/>
	<path class="st1" d="M96.4,1041.3c-0.2-0.6-0.5-1.2-0.7-1.8C95.9,1040.1,96.1,1040.7,96.4,1041.3z"/>
	<path class="st1" d="M96.4,1041.3c-0.2-0.6-0.5-1.2-0.7-1.8C95.9,1040.1,96.1,1040.7,96.4,1041.3z"/>
	<path class="st1" d="M98.7,1049.3c-0.1-0.7-0.3-1.5-0.5-2.2C98.4,1047.8,98.6,1048.6,98.7,1049.3z"/>
	<path class="st1" d="M98.7,1049.3c-0.1-0.7-0.3-1.5-0.5-2.2C98.4,1047.8,98.6,1048.6,98.7,1049.3z"/>
	<path class="st1" d="M95.3,1038.8c-0.3-0.6-0.5-1.2-0.8-1.8C94.8,1037.6,95.1,1038.2,95.3,1038.8z"/>
	<path class="st1" d="M95.3,1038.8c-0.3-0.6-0.5-1.2-0.8-1.8C94.8,1037.6,95.1,1038.2,95.3,1038.8z"/>
	<path class="st1" d="M83.9,1022.7c0.3,0.3,0.6,0.6,0.9,0.9C84.5,1023.3,84.2,1023,83.9,1022.7z"/>
	<path class="st1" d="M83.9,1022.7c0.3,0.3,0.6,0.6,0.9,0.9C84.5,1023.3,84.2,1023,83.9,1022.7z"/>
	<path class="st1" d="M98.7,994.5c-1.8,9-6.1,17.4-12.3,24.1c-1.1,1.2-2.2,2.3-3.3,3.3c0.3,0.3,0.6,0.5,0.8,0.8
		c0.3,0.3,0.6,0.6,0.9,0.9c0.4,0.3,0.7,0.7,1,1.1c0.3,0.3,0.6,0.7,0.9,1c0.3,0.3,0.6,0.7,0.9,1.1c0.3,0.4,0.6,0.7,0.9,1.1
		c0.3,0.3,0.5,0.7,0.8,1c0.3,0.4,0.6,0.8,1,1.3c0.1,0.1,0.2,0.2,0.2,0.3c0.8,1.2,1.6,2.5,2.4,3.7c0.1,0.1,0.2,0.3,0.2,0.4
		c0.3,0.6,0.6,1.2,0.9,1.8c0.1,0.2,0.2,0.4,0.3,0.7c0.3,0.6,0.6,1.2,0.8,1.8c0.1,0.2,0.2,0.5,0.3,0.7c0.3,0.6,0.5,1.2,0.7,1.8
		c0.1,0.2,0.2,0.5,0.3,0.7c0.2,0.6,0.4,1.3,0.6,1.9c0.1,0.2,0.1,0.4,0.2,0.7c0.2,0.7,0.4,1.3,0.6,2c0,0.2,0.1,0.3,0.1,0.5
		c0.2,0.7,0.4,1.5,0.5,2.2l0,0V994.5z"/>
	<path class="st1" d="M98.7,994.5c-1.8,9-6.1,17.4-12.3,24.1c-1.1,1.2-2.2,2.3-3.3,3.3c0.3,0.3,0.6,0.5,0.8,0.8
		c0.3,0.3,0.6,0.6,0.9,0.9c0.4,0.3,0.7,0.7,1,1.1c0.3,0.3,0.6,0.7,0.9,1c0.3,0.3,0.6,0.7,0.9,1.1c0.3,0.4,0.6,0.7,0.9,1.1
		c0.3,0.3,0.5,0.7,0.8,1c0.3,0.4,0.6,0.8,1,1.3c0.1,0.1,0.2,0.2,0.2,0.3c0.8,1.2,1.6,2.5,2.4,3.7c0.1,0.1,0.2,0.3,0.2,0.4
		c0.3,0.6,0.6,1.2,0.9,1.8c0.1,0.2,0.2,0.4,0.3,0.7c0.3,0.6,0.6,1.2,0.8,1.8c0.1,0.2,0.2,0.5,0.3,0.7c0.3,0.6,0.5,1.2,0.7,1.8
		c0.1,0.2,0.2,0.5,0.3,0.7c0.2,0.6,0.4,1.3,0.6,1.9c0.1,0.2,0.1,0.4,0.2,0.7c0.2,0.7,0.4,1.3,0.6,2c0,0.2,0.1,0.3,0.1,0.5
		c0.2,0.7,0.4,1.5,0.5,2.2l0,0V994.5z"/>
	<path class="st1" d="M98.7,994.5c-1.8,9-6.1,17.4-12.3,24.1c-1.1,1.2-2.2,2.3-3.3,3.3c0.3,0.3,0.6,0.5,0.8,0.8
		c0.3,0.3,0.6,0.6,0.9,0.9c0.4,0.3,0.7,0.7,1,1.1c0.3,0.3,0.6,0.7,0.9,1c0.3,0.3,0.6,0.7,0.9,1.1c0.3,0.4,0.6,0.7,0.9,1.1
		c0.3,0.3,0.5,0.7,0.8,1c0.3,0.4,0.6,0.8,1,1.3c0.1,0.1,0.2,0.2,0.2,0.3c0.8,1.2,1.6,2.5,2.4,3.7c0.1,0.1,0.2,0.3,0.2,0.4
		c0.3,0.6,0.6,1.2,0.9,1.8c0.1,0.2,0.2,0.4,0.3,0.7c0.3,0.6,0.6,1.2,0.8,1.8c0.1,0.2,0.2,0.5,0.3,0.7c0.3,0.6,0.5,1.2,0.7,1.8
		c0.1,0.2,0.2,0.5,0.3,0.7c0.2,0.6,0.4,1.3,0.6,1.9c0.1,0.2,0.1,0.4,0.2,0.7c0.2,0.7,0.4,1.3,0.6,2c0,0.2,0.1,0.3,0.1,0.5
		c0.2,0.7,0.4,1.5,0.5,2.2l0,0V994.5z"/>
	<path class="st1" d="M83,1021.9C83,1021.9,83,1021.9,83,1021.9c1.2-1,2.3-2.1,3.4-3.3C85.3,1019.8,84.2,1020.8,83,1021.9z"/>
	<path class="st1" d="M83,1021.9C83,1021.9,83,1021.9,83,1021.9c1.2-1,2.3-2.1,3.4-3.3C85.3,1019.8,84.2,1020.8,83,1021.9z"/>
	<path class="st1" d="M83,1021.9C83,1021.9,83,1021.9,83,1021.9c1.2-1,2.3-2.1,3.4-3.3C85.3,1019.8,84.2,1020.8,83,1021.9z"/>
	<path class="st1" d="M83,1021.9C83,1021.9,83,1021.9,83,1021.9c1.2-1,2.3-2.1,3.4-3.3C85.3,1019.8,84.2,1020.8,83,1021.9z"/>
	<path class="st1" d="M70.7,950.4c0.3,0.1,0.6,0.2,0.9,0.2C71.2,950.5,71,950.4,70.7,950.4z"/>
	<path class="st1" d="M70.7,950.4c0.3,0.1,0.6,0.2,0.9,0.2C71.2,950.5,71,950.4,70.7,950.4z"/>
	<path class="st1" d="M70.7,950.4c0.3,0.1,0.6,0.2,0.9,0.2C71.2,950.5,71,950.4,70.7,950.4z"/>
	<path class="st1" d="M41.7,951.7c0.2-0.1,0.3-0.1,0.5-0.2C42,951.6,41.8,951.7,41.7,951.7z"/>
	<path class="st1" d="M41.7,951.7c0.2-0.1,0.3-0.1,0.5-0.2C42,951.6,41.8,951.7,41.7,951.7z"/>
	<path class="st1" d="M41.7,951.7c0.2-0.1,0.3-0.1,0.5-0.2C42,951.6,41.8,951.7,41.7,951.7z"/>
	<path class="st1" d="M73.4,951.1c0.3,0.1,0.6,0.2,0.8,0.3C73.9,951.3,73.6,951.2,73.4,951.1z"/>
	<path class="st1" d="M73.4,951.1c0.3,0.1,0.6,0.2,0.8,0.3C73.9,951.3,73.6,951.2,73.4,951.1z"/>
	<path class="st1" d="M73.4,951.1c0.3,0.1,0.6,0.2,0.8,0.3C73.9,951.3,73.6,951.2,73.4,951.1z"/>
	<path class="st1" d="M68.1,949.8c0.1,0,0.2,0,0.3,0.1C68.3,949.8,68.2,949.8,68.1,949.8z"/>
	<path class="st1" d="M68.1,949.8c0.1,0,0.2,0,0.3,0.1C68.3,949.8,68.2,949.8,68.1,949.8z"/>
	<path class="st1" d="M68.1,949.8c0.1,0,0.2,0,0.3,0.1C68.3,949.8,68.2,949.8,68.1,949.8z"/>
	<path class="st1" d="M55.7,948.9c0.3,0,0.6,0,0.9,0C56.3,948.9,56,948.9,55.7,948.9z"/>
	<path class="st1" d="M55.7,948.9c0.3,0,0.6,0,0.9,0C56.3,948.9,56,948.9,55.7,948.9z"/>
	<path class="st1" d="M55.7,948.9c0.3,0,0.6,0,0.9,0C56.3,948.9,56,948.9,55.7,948.9z"/>
	<path class="st1" d="M46.9,950.2c0.3-0.1,0.6-0.1,0.9-0.2C47.5,950,47.2,950.1,46.9,950.2z"/>
	<path class="st1" d="M46.9,950.2c0.3-0.1,0.6-0.1,0.9-0.2C47.5,950,47.2,950.1,46.9,950.2z"/>
	<path class="st1" d="M46.9,950.2c0.3-0.1,0.6-0.1,0.9-0.2C47.5,950,47.2,950.1,46.9,950.2z"/>
	<path class="st1" d="M44.2,950.9c0.3-0.1,0.6-0.2,0.9-0.3C44.8,950.7,44.5,950.8,44.2,950.9z"/>
	<path class="st1" d="M44.2,950.9c0.3-0.1,0.6-0.2,0.9-0.3C44.8,950.7,44.5,950.8,44.2,950.9z"/>
	<path class="st1" d="M44.2,950.9c0.3-0.1,0.6-0.2,0.9-0.3C44.8,950.7,44.5,950.8,44.2,950.9z"/>
	<path class="st1" d="M61.9,948.9c0.3,0,0.6,0,0.9,0.1C62.5,949,62.2,949,61.9,948.9z"/>
	<path class="st1" d="M61.9,948.9c0.3,0,0.6,0,0.9,0.1C62.5,949,62.2,949,61.9,948.9z"/>
	<path class="st1" d="M61.9,948.9c0.3,0,0.6,0,0.9,0.1C62.5,949,62.2,949,61.9,948.9z"/>
	<path class="st1" d="M59.2,948.8c0.1,0,0.3,0,0.4,0C59.5,948.8,59.3,948.8,59.2,948.8z"/>
	<path class="st1" d="M59.2,948.8c0.1,0,0.3,0,0.4,0C59.5,948.8,59.3,948.8,59.2,948.8z"/>
	<path class="st1" d="M59.2,948.8c0.1,0,0.3,0,0.4,0C59.5,948.8,59.3,948.8,59.2,948.8z"/>
	<path class="st1" d="M50.3,949.5c0.2,0,0.3,0,0.5-0.1C50.6,949.4,50.5,949.5,50.3,949.5z"/>
	<path class="st1" d="M50.3,949.5c0.2,0,0.3,0,0.5-0.1C50.6,949.4,50.5,949.5,50.3,949.5z"/>
	<path class="st1" d="M50.3,949.5c0.2,0,0.3,0,0.5-0.1C50.6,949.4,50.5,949.5,50.3,949.5z"/>
	<path class="st1" d="M64.6,949.2c0.3,0,0.6,0.1,0.9,0.1C65.2,949.3,64.9,949.3,64.6,949.2z"/>
	<path class="st1" d="M64.6,949.2c0.3,0,0.6,0.1,0.9,0.1C65.2,949.3,64.9,949.3,64.6,949.2z"/>
	<path class="st1" d="M64.6,949.2c0.3,0,0.6,0.1,0.9,0.1C65.2,949.3,64.9,949.3,64.6,949.2z"/>
	<path class="st1" d="M53,949.1c0.3,0,0.6-0.1,0.9-0.1C53.6,949.1,53.3,949.1,53,949.1z"/>
	<path class="st1" d="M53,949.1c0.3,0,0.6-0.1,0.9-0.1C53.6,949.1,53.3,949.1,53,949.1z"/>
	<path class="st1" d="M53,949.1c0.3,0,0.6-0.1,0.9-0.1C53.6,949.1,53.3,949.1,53,949.1z"/>
	<polygon class="st1" points="22.6,921.2 22.6,921.2 22.6,921.2 	"/>
	<polygon class="st1" points="22.6,921.2 22.6,921.2 22.6,921.2 	"/>
	<polygon class="st1" points="22.6,921.2 22.6,921.2 22.6,921.2 	"/>
	<path class="st1" d="M74.8,951.1l-48.5-28c-0.7-0.4-1.5-0.8-2.2-1.2c0.8,0.4,1.5,0.8,2.2,1.2L74.8,951.1c0.7,0.4,1.3,0.8,1.9,1.2
		c0,0,0,0,0,0C76,951.9,75.4,951.5,74.8,951.1z"/>
	<path class="st1" d="M74.8,951.1l-48.5-28c-0.7-0.4-1.5-0.8-2.2-1.2c0.8,0.4,1.5,0.8,2.2,1.2L74.8,951.1c0.7,0.4,1.3,0.8,1.9,1.2
		c0,0,0,0,0,0C76,951.9,75.4,951.5,74.8,951.1z"/>
	<path class="st1" d="M74.8,951.1l-48.5-28c-0.7-0.4-1.5-0.8-2.2-1.2c0.8,0.4,1.5,0.8,2.2,1.2L74.8,951.1c0.7,0.4,1.3,0.8,1.9,1.2
		c0,0,0,0,0,0C76,951.9,75.4,951.5,74.8,951.1z"/>
	<path class="st26" d="M41.7,951.7L41.7,951.7c0.2-0.1,0.3-0.1,0.5-0.2c0.7-0.2,1.4-0.5,2.1-0.7c0.3-0.1,0.6-0.2,0.9-0.3
		c0.6-0.2,1.2-0.3,1.7-0.4c0.3-0.1,0.6-0.1,0.9-0.2c0.8-0.2,1.7-0.3,2.5-0.5c0.2,0,0.3,0,0.5-0.1c0.7-0.1,1.5-0.2,2.2-0.3
		c0.3,0,0.6-0.1,0.9-0.1c0.6-0.1,1.2-0.1,1.8-0.1c0.3,0,0.6,0,0.9,0c0.9,0,1.7,0,2.6,0c0.1,0,0.3,0,0.4,0c0.8,0,1.5,0.1,2.3,0.1
		c0.3,0,0.6,0,0.9,0.1c0.6,0.1,1.2,0.1,1.8,0.2c0.3,0,0.6,0.1,0.9,0.1c0.9,0.1,1.7,0.3,2.6,0.4c0.1,0,0.2,0,0.3,0.1
		c0.8,0.2,1.5,0.3,2.3,0.5c0.3,0.1,0.6,0.2,0.9,0.2c0.6,0.2,1.2,0.3,1.8,0.5c0.3,0.1,0.5,0.2,0.8,0.3c0.8,0.3,1.7,0.6,2.5,0.9
		c-0.6-0.4-1.3-0.8-1.9-1.2l-48.5-28c-0.7-0.4-1.5-0.8-2.2-1.2c-0.5-0.2-1-0.5-1.4-0.7c0,0,0,0,0,0
		C32.5,928.7,39.3,939.6,41.7,951.7z"/>
</g>
</svg>
