<?xml version="1.0" encoding="utf-8"?>
<!-- Generator: Adobe Illustrator 22.0.1, SVG Export Plug-In . SVG Version: 6.00 Build 0)  -->
<svg version="1.1" id="Layer_1" xmlns="http://www.w3.org/2000/svg" xmlns:xlink="http://www.w3.org/1999/xlink" x="0px" y="0px"
	 viewBox="0 0 1920 186" style="enable-background:new 0 0 1920 186;" xml:space="preserve">
<style type="text/css">
	.st0{fill:#EBEBEB;}
</style>
<path class="st0" d="M1131.6,0c-12.1,0.7-23.5,5.8-32.1,14.4l-81.3,81.2c-9.3,9.3-21.9,14.5-35,14.5h-44.1
	c-13.1,0-25.7-5.2-35-14.5l-81.2-81.2c-8.8-8.8-20.6-13.9-33-14.5H0v30h335.4c28.8,0,56.4,11.4,76.7,31.8l92.4,92.4
	c20.3,20.3,47.9,31.8,76.7,31.8h759.6c28.8,0,56.3-11.4,76.7-31.8l92.6-92.5c20.3-20.3,47.9-31.8,76.7-31.8h333.7V0H1131.6z"/>
</svg>
