<?xml version="1.0" encoding="utf-8"?>
<!-- Generator: Adobe Illustrator 22.0.1, SVG Export Plug-In . SVG Version: 6.00 Build 0)  -->
<svg version="1.1" id="Layer_1" xmlns="http://www.w3.org/2000/svg" xmlns:xlink="http://www.w3.org/1999/xlink" x="0px" y="0px"
	 viewBox="0 0 143 44" style="enable-background:new 0 0 143 44;" xml:space="preserve">
<style type="text/css">
	.st0{fill:url(#SVGID_1_);}
	.st1{fill:url(#SVGID_2_);}
	.st2{fill:url(#SVGID_3_);}
	.st3{fill:url(#SVGID_4_);}
	.st4{fill:url(#SVGID_5_);}
	.st5{fill:url(#SVGID_6_);}
	.st6{fill:url(#SVGID_7_);}
	.st7{fill:none;}
	.st8{fill:url(#SVGID_8_);}
	.st9{fill:url(#SVGID_9_);}
	.st10{fill:url(#SVGID_10_);}
	.st11{fill:url(#SVGID_11_);}
	.st12{fill:url(#SVGID_12_);}
	.st13{fill:url(#SVGID_13_);}
	.st14{fill:url(#SVGID_14_);}
	.st15{fill:url(#SVGID_15_);}
	.st16{fill:url(#SVGID_16_);}
	.st17{fill:url(#SVGID_17_);}
	.st18{fill:url(#SVGID_18_);}
	.st19{fill:url(#SVGID_19_);}
	.st20{fill-rule:evenodd;clip-rule:evenodd;fill:#201600;}
</style>
<g>
	<g>
		<g>
			<linearGradient id="SVGID_1_" gradientUnits="userSpaceOnUse" x1="8.6889" y1="12.2188" x2="14.0416" y2="2.9477">
				<stop  offset="0" style="stop-color:#3FB0EC"/>
				<stop  offset="0" style="stop-color:#43A5E2"/>
				<stop  offset="1" style="stop-color:#173941"/>
			</linearGradient>
			<path class="st0" d="M7.8,5.9L2.7,8.8l0.1,0c4,2.3,8.9,2.3,13,0L20,6.4l-0.9-0.5C15.6,3.8,11.3,3.8,7.8,5.9z"/>
			<linearGradient id="SVGID_2_" gradientUnits="userSpaceOnUse" x1="14.4678" y1="-0.8001" x2="30.8835" y2="15.6156">
				<stop  offset="0" style="stop-color:#3FB0EC"/>
				<stop  offset="0.4729" style="stop-color:#43A5E2"/>
				<stop  offset="1" style="stop-color:#173941"/>
			</linearGradient>
			<path class="st1" d="M24,1.1c-2.5-1.4-5.6-1.4-8.1,0l-2.4,1.4l0,0L7.8,5.9c3.5-2,7.8-2,11.3,0l0,0l0,0L20,6.4l0,0L24.5,9
				c4,2.3,8.9,2.3,13,0l0.1,0L24,1.1z"/>
		</g>
		<g>
			
				<linearGradient id="SVGID_3_" gradientUnits="userSpaceOnUse" x1="124.4212" y1="40.8594" x2="129.7757" y2="31.5851" gradientTransform="matrix(-0.5 0.866 -0.866 -0.5 131.635 -70.0186)">
				<stop  offset="0" style="stop-color:#3FB0EC"/>
				<stop  offset="0" style="stop-color:#43A5E2"/>
				<stop  offset="1" style="stop-color:#173941"/>
			</linearGradient>
			<path class="st2" d="M40,19.7v-5.9l-0.1,0c-4,2.3-6.5,6.6-6.5,11.2V30l0.9-0.5C37.8,27.5,40,23.8,40,19.7z"/>
			
				<linearGradient id="SVGID_4_" gradientUnits="userSpaceOnUse" x1="130.2033" y1="27.8369" x2="146.6199" y2="44.2535" gradientTransform="matrix(-0.5 0.866 -0.866 -0.5 131.635 -70.0186)">
				<stop  offset="0" style="stop-color:#3FB0EC"/>
				<stop  offset="0.4729" style="stop-color:#43A5E2"/>
				<stop  offset="1" style="stop-color:#173941"/>
			</linearGradient>
			<path class="st3" d="M36,36.1c2.5-1.4,4-4.1,4-7l0-2.8l0,0l0-6.6c0,4-2.1,7.8-5.6,9.8l0,0l0,0L33.4,30v0l-4.5,2.6
				c-4,2.3-6.5,6.6-6.5,11.2l0,0.1L36,36.1z"/>
		</g>
		<g>
			
				<linearGradient id="SVGID_5_" gradientUnits="userSpaceOnUse" x1="87.8029" y1="-79.1849" x2="93.1552" y2="-88.4553" gradientTransform="matrix(-0.5 -0.866 0.866 -0.5 129.7295 73.3189)">
				<stop  offset="0" style="stop-color:#3FB0EC"/>
				<stop  offset="0" style="stop-color:#43A5E2"/>
				<stop  offset="1" style="stop-color:#173941"/>
			</linearGradient>
			<path class="st4" d="M12.2,40.8l5.1,2.9l0-0.1c0-4.6-2.5-8.9-6.5-11.2L6.5,30v1C6.5,35.1,8.7,38.8,12.2,40.8z"/>
			
				<linearGradient id="SVGID_6_" gradientUnits="userSpaceOnUse" x1="93.5816" y1="-92.2046" x2="110.0028" y2="-75.7834" gradientTransform="matrix(-0.5 -0.866 0.866 -0.5 129.7295 73.3189)">
				<stop  offset="0" style="stop-color:#3FB0EC"/>
				<stop  offset="0.4729" style="stop-color:#43A5E2"/>
				<stop  offset="1" style="stop-color:#173941"/>
			</linearGradient>
			<path class="st5" d="M0,29.1c0,2.9,1.5,5.5,4,7l2.4,1.4l0,0l5.7,3.3c-3.5-2-5.6-5.7-5.6-9.8l0,0l0,0l0-1l0,0v-5.2
				c0-4.6-2.5-8.9-6.5-11.2l-0.1,0L0,29.1z"/>
		</g>
	</g>
	<g>
		<linearGradient id="SVGID_7_" gradientUnits="userSpaceOnUse" x1="8.0931" y1="7.2572" x2="25.1" y2="24.2641">
			<stop  offset="0" style="stop-color:#3FB0EC"/>
			<stop  offset="0.4729" style="stop-color:#43A5E2"/>
			<stop  offset="1" style="stop-color:#173941"/>
		</linearGradient>
		<path class="st6" d="M26.5,15.7l-4.3-2.5c-0.4-0.3-0.9-0.4-1.4-0.5c-0.6-0.1-1.2-0.1-1.7,0c-0.5,0.1-0.9,0.3-1.4,0.5l-4.3,2.5
			c-1.3,0.7-2.1,2-2.2,3.5c0.1,1.4,0.9,2.7,2.2,3.5l4.3,2.5c0.4,0.3,0.9,0.4,1.4,0.5c-0.3-0.1-0.7-0.2-1-0.4l0,0
			c-1.1-0.7-1.8-1.9-1.8-3.2v0c0-1.1,0.5-2.2,1.4-2.9c0.1-0.1,0.3-0.2,0.4-0.3l0,0c1.1-0.7,2.5-0.7,3.7,0l0,0
			c0.1,0.1,0.3,0.2,0.4,0.3c0.9,0.7,1.4,1.7,1.4,2.9v0c0,1.3-0.7,2.5-1.8,3.2l0,0c-0.3,0.2-0.6,0.3-1,0.4c0.5-0.1,0.9-0.3,1.4-0.5
			l4.3-2.5c1.3-0.7,2.1-2,2.2-3.5C28.6,17.7,27.8,16.4,26.5,15.7z"/>
		<path class="st7" d="M19.1,25.6c0.6,0.1,1.2,0.1,1.7,0C20.3,25.7,19.7,25.7,19.1,25.6z"/>
		<path class="st7" d="M20.9,12.6c-0.6-0.1-1.2-0.1-1.7,0C19.7,12.5,20.3,12.5,20.9,12.6z"/>
		
			<linearGradient id="SVGID_8_" gradientUnits="userSpaceOnUse" x1="-612.0042" y1="-61.9341" x2="-598.8314" y2="-48.7613" gradientTransform="matrix(-1 0 0 -1 -585.055 -33.6422)">
			<stop  offset="0" style="stop-color:#3FB0EC"/>
			<stop  offset="0.4729" style="stop-color:#43A5E2"/>
			<stop  offset="1" style="stop-color:#173941"/>
		</linearGradient>
		<path class="st8" d="M13.4,21.5l4.3-2.5c0.4-0.3,0.9-0.4,1.4-0.5c0.6-0.1,1.2-0.1,1.7,0c0.5,0.1,0.9,0.3,1.4,0.5l4.3,2.5
			c1.3,0.7,2.1,2,2.2,3.5c0-0.1,0-0.3,0-0.4v-5c0-1.6-0.9-3.1-2.2-3.9l-4.3-2.5c-1.4-0.8-3.1-0.8-4.5,0l-4.3,2.5
			c-1.4,0.8-2.2,2.3-2.2,3.9v5c0,0.1,0,0.3,0,0.4C11.3,23.5,12.1,22.2,13.4,21.5z"/>
		
			<linearGradient id="SVGID_9_" gradientUnits="userSpaceOnUse" x1="-407.8491" y1="-304.9865" x2="-394.6772" y2="-291.8145" gradientTransform="matrix(-0.5 0.866 -0.866 -0.5 -439.104 219.8746)">
			<stop  offset="0" style="stop-color:#3FB0EC"/>
			<stop  offset="0.4729" style="stop-color:#43A5E2"/>
			<stop  offset="1" style="stop-color:#173941"/>
		</linearGradient>
		<path class="st9" d="M16.3,27.5v-5c0-0.5,0.1-1,0.2-1.4c0.2-0.6,0.5-1.1,0.9-1.5c0.3-0.4,0.7-0.7,1.1-0.9l4.3-2.5
			c1.3-0.7,2.8-0.8,4.1-0.2c-0.1-0.1-0.2-0.1-0.3-0.2l-4.3-2.5c-1.4-0.8-3.1-0.8-4.5,0l-4.3,2.5c-1.4,0.8-2.2,2.3-2.2,3.9l0,5
			c0,1.6,0.9,3.1,2.2,3.9l4.3,2.5c0.1,0.1,0.2,0.1,0.4,0.2C17,30.3,16.3,29,16.3,27.5z"/>
		<linearGradient id="SVGID_10_" gradientUnits="userSpaceOnUse" x1="13.0383" y1="15.783" x2="26.2111" y2="28.9558">
			<stop  offset="0" style="stop-color:#3FB0EC"/>
			<stop  offset="0.4729" style="stop-color:#43A5E2"/>
			<stop  offset="1" style="stop-color:#173941"/>
		</linearGradient>
		<path class="st10" d="M26.6,22.6l-4.3,2.5c-0.4,0.3-0.9,0.4-1.4,0.5c-0.6,0.1-1.2,0.1-1.7,0c-0.5-0.1-0.9-0.3-1.4-0.5l-4.3-2.5
			c-1.3-0.7-2.1-2-2.2-3.5c0,0.1,0,0.3,0,0.4v5c0,1.6,0.9,3.1,2.2,3.9l4.3,2.5c1.4,0.8,3.1,0.8,4.5,0l4.3-2.5
			c1.4-0.8,2.2-2.3,2.2-3.9v-5c0-0.1,0-0.3,0-0.4C28.7,20.5,27.8,21.8,26.6,22.6z"/>
		<g>
			<path class="st7" d="M18.5,18.6c-0.4,0.3-0.8,0.6-1.1,0.9C17,20,16.7,20.5,16.5,21c-0.2,0.5-0.2,0.9-0.2,1.4v5
				c0,0.3,0,0.6,0.1,0.8c0.3-0.1,0.5-0.2,0.7-0.3l4.3-2.5c0.4-0.3,0.8-0.6,1.1-0.9c0.4-0.4,0.7-0.9,0.9-1.5c0.2-0.5,0.2-0.9,0.2-1.4
				v-1.8v-3.2c0-0.3,0-0.6-0.1-0.8c-0.3,0.1-0.5,0.2-0.7,0.3L18.5,18.6z"/>
			
				<linearGradient id="SVGID_11_" gradientUnits="userSpaceOnUse" x1="-616.4008" y1="-57.5378" x2="-603.226" y2="-44.3629" gradientTransform="matrix(-1 0 0 -1 -585.055 -33.6422)">
				<stop  offset="0" style="stop-color:#3FB0EC"/>
				<stop  offset="0.4729" style="stop-color:#43A5E2"/>
				<stop  offset="1" style="stop-color:#173941"/>
			</linearGradient>
			<path class="st11" d="M27.1,16c1,0.8,1.7,2.1,1.7,3.5v5c0,0.2,0.1,0.3,0.1,0.5c0-0.1,0-0.3,0-0.4v-5C28.8,18.2,28.2,16.9,27.1,16
				z"/>
			
				<linearGradient id="SVGID_12_" gradientUnits="userSpaceOnUse" x1="-165.165" y1="277.7069" x2="-151.9934" y2="290.8786" gradientTransform="matrix(0.5 -0.866 0.866 0.5 -145.951 -253.5168)">
				<stop  offset="0" style="stop-color:#3FB0EC"/>
				<stop  offset="0.4729" style="stop-color:#43A5E2"/>
				<stop  offset="1" style="stop-color:#173941"/>
			</linearGradient>
			<path class="st12" d="M26.6,21.5l-2.9-1.7v1.8c0,0.5-0.1,1-0.2,1.4c-0.2,0.6-0.5,1.1-0.9,1.5c-0.3,0.4-0.7,0.7-1.1,0.9L17.1,28
				c-0.2,0.1-0.5,0.2-0.7,0.3c0.2,1.1,0.9,2.1,1.8,2.8C18.1,31.1,18,31,17.8,31l-4.3-2.5c-0.1-0.1-0.2-0.1-0.3-0.2
				c-0.1,0-0.1-0.1-0.2-0.1c0.1,0.1,0.2,0.1,0.3,0.2l4.3,2.5c1.4,0.8,3.1,0.8,4.5,0l4.3-2.5c1.4-0.8,2.2-2.3,2.2-3.9v0
				C28.5,23.2,27.7,22.1,26.6,21.5z"/>
			
				<linearGradient id="SVGID_13_" gradientUnits="userSpaceOnUse" x1="-403.0766" y1="-309.756" x2="-389.9061" y2="-296.5854" gradientTransform="matrix(-0.5 0.866 -0.866 -0.5 -439.104 219.8746)">
				<stop  offset="0" style="stop-color:#3FB0EC"/>
				<stop  offset="0.4729" style="stop-color:#43A5E2"/>
				<stop  offset="1" style="stop-color:#173941"/>
			</linearGradient>
			<path class="st13" d="M17.8,31c0.1,0.1,0.2,0.1,0.4,0.2c-1-0.7-1.6-1.7-1.8-2.8c-1,0.4-2.2,0.3-3.2-0.1c0.1,0.1,0.2,0.1,0.3,0.2
				L17.8,31z"/>
			
				<linearGradient id="SVGID_14_" gradientUnits="userSpaceOnUse" x1="-166.7502" y1="279.2923" x2="-153.5797" y2="292.4629" gradientTransform="matrix(0.5 -0.866 0.866 0.5 -145.951 -253.5168)">
				<stop  offset="0" style="stop-color:#3FB0EC"/>
				<stop  offset="0.4729" style="stop-color:#43A5E2"/>
				<stop  offset="1" style="stop-color:#173941"/>
			</linearGradient>
			<path class="st14" d="M17.8,31c0.1,0.1,0.2,0.1,0.4,0.2c-1-0.7-1.6-1.7-1.8-2.8c-1,0.4-2.2,0.3-3.2-0.1c0.1,0.1,0.2,0.1,0.3,0.2
				L17.8,31z"/>
			
				<linearGradient id="SVGID_15_" gradientUnits="userSpaceOnUse" x1="-159.385" y1="271.9303" x2="-146.2146" y2="285.1006" gradientTransform="matrix(0.5 -0.866 0.866 0.5 -145.951 -253.5168)">
				<stop  offset="0" style="stop-color:#3FB0EC"/>
				<stop  offset="0.4729" style="stop-color:#43A5E2"/>
				<stop  offset="1" style="stop-color:#173941"/>
			</linearGradient>
			<path class="st15" d="M27.1,16c-0.1-0.1-0.2-0.1-0.3-0.2c0,0,0,0-0.1,0C26.9,15.9,27,15.9,27.1,16z"/>
			
				<linearGradient id="SVGID_16_" gradientUnits="userSpaceOnUse" x1="-411.9666" y1="-300.8688" x2="-398.7961" y2="-287.6982" gradientTransform="matrix(-0.5 0.866 -0.866 -0.5 -439.104 219.8746)">
				<stop  offset="0" style="stop-color:#3FB0EC"/>
				<stop  offset="0.4729" style="stop-color:#43A5E2"/>
				<stop  offset="1" style="stop-color:#173941"/>
			</linearGradient>
			<path class="st16" d="M22.1,13.1C22,13,21.9,13,21.8,12.9c0,0,0.1,0.1,0.1,0.1C22,13.1,22.1,13.1,22.1,13.1l4.4,2.6
				c0.1,0,0.1,0.1,0.2,0.1c0,0,0,0,0.1,0c-0.1-0.1-0.2-0.1-0.3-0.2L22.1,13.1z"/>
			
				<linearGradient id="SVGID_17_" gradientUnits="userSpaceOnUse" x1="-157.8602" y1="270.4051" x2="-144.6897" y2="283.5757" gradientTransform="matrix(0.5 -0.866 0.866 0.5 -145.951 -253.5168)">
				<stop  offset="0" style="stop-color:#3FB0EC"/>
				<stop  offset="0.4729" style="stop-color:#43A5E2"/>
				<stop  offset="1" style="stop-color:#173941"/>
			</linearGradient>
			<path class="st17" d="M22.1,13.1C22,13,21.9,13,21.8,12.9c0,0,0.1,0.1,0.1,0.1C22,13.1,22.1,13.1,22.1,13.1l4.4,2.6
				c0.1,0,0.1,0.1,0.2,0.1c0,0,0,0,0.1,0c-0.1-0.1-0.2-0.1-0.3-0.2L22.1,13.1z"/>
			
				<linearGradient id="SVGID_18_" gradientUnits="userSpaceOnUse" x1="-616.4069" y1="-57.5315" x2="-603.233" y2="-44.3575" gradientTransform="matrix(-1 0 0 -1 -585.055 -33.6422)">
				<stop  offset="0" style="stop-color:#3FB0EC"/>
				<stop  offset="0.4729" style="stop-color:#43A5E2"/>
				<stop  offset="1" style="stop-color:#173941"/>
			</linearGradient>
			<path class="st18" d="M27.1,16c-0.1-0.1-0.2-0.2-0.3-0.2c-1-0.4-2.1-0.4-3.1,0c0.1,0.3,0.1,0.6,0.1,0.8v3.2l2.9,1.7
				c1.1,0.6,1.9,1.7,2.1,3v-5C28.7,18.1,28.1,16.9,27.1,16z"/>
			
				<linearGradient id="SVGID_19_" gradientUnits="userSpaceOnUse" x1="-411.9408" y1="-300.8946" x2="-398.7702" y2="-287.7241" gradientTransform="matrix(-0.5 0.866 -0.866 -0.5 -439.104 219.8746)">
				<stop  offset="0" style="stop-color:#3FB0EC"/>
				<stop  offset="0.4729" style="stop-color:#43A5E2"/>
				<stop  offset="1" style="stop-color:#173941"/>
			</linearGradient>
			<path class="st19" d="M22.2,13.2c-0.1-0.1-0.2-0.1-0.3-0.2c0.9,0.7,1.5,1.6,1.7,2.7c1-0.4,2.1-0.3,3.1,0c-0.1,0-0.1-0.1-0.2-0.1
				L22.2,13.2z"/>
		</g>
	</g>
</g>
<g>
	<path class="st20" d="M65.1,10.8h4.4v16.7h-4.4V10.8z M88.7,16.6h-4.3v-3.5c0-0.4-0.1-0.6-0.2-0.7c-0.1-0.1-0.3-0.1-0.7-0.1h-4.3
		c-0.3,0-0.6,0-0.7,0.1c-0.1,0.1-0.2,0.3-0.2,0.7V25c0,0.4,0.1,0.6,0.2,0.7c0.1,0.1,0.3,0.2,0.7,0.2h4.3c0.3,0,0.6-0.1,0.7-0.2
		c0.1-0.1,0.2-0.3,0.2-0.7v-3.4h4.3v3.7c0,1.4-0.7,2.1-2.1,2.1H76.1c-1.4,0-2.1-0.7-2.1-2.1V12.9c0-1.4,0.7-2.1,2.1-2.1h10.5
		c1.4,0,2.1,0.7,2.1,2.1V16.6z M106.7,12.9v12.4c0,1.4-0.7,2.1-2.1,2.1H94.2c-1.4,0-2.1-0.7-2.1-2.1V12.9c0-1.4,0.7-2.1,2.1-2.1
		h10.4C106,10.8,106.7,11.5,106.7,12.9 M102.4,25V13.2c0-0.4-0.1-0.6-0.2-0.7c-0.1-0.1-0.3-0.1-0.7-0.1h-4.3c-0.3,0-0.6,0-0.7,0.1
		c-0.1,0.1-0.2,0.3-0.2,0.7V25c0,0.4,0.1,0.6,0.2,0.7c0.1,0.1,0.3,0.2,0.7,0.2h4.3c0.3,0,0.6-0.1,0.7-0.2
		C102.4,25.6,102.4,25.4,102.4,25 M115.3,12.3v7.5h5.5c0.4,0,0.6-0.1,0.7-0.2c0.1-0.1,0.1-0.3,0.1-0.7v-5.9c0-0.4,0-0.6-0.1-0.7
		c-0.1-0.1-0.3-0.1-0.7-0.1H115.3z M115.3,21.4v6h-4.3V10.8h12.9c1.4,0,2.1,0.7,2.1,2.1v6.5c0,1.4-0.7,2.1-2.1,2.1h-1.3l3.8,6h-4.5
		l-3.6-6H115.3z M134.3,25.8h8.7v1.6h-13.1V10.8h12.8v1.6h-8.3v5.8h7.2v1.6h-7.2V25.8z"/>
	<path class="st20" d="M65.3,37.3h0.5v-4.7h-0.5V37.3z M65.3,31.4h0.5v-0.5h-0.5V31.4z M70.3,37.3h0.5v-2.7c0-1,0.5-1.7,1.5-1.7
		c1.4,0,1.5,1,1.5,2.2v2.2h0.5v-2.5c0-1.3-0.4-2.3-1.9-2.3c-0.5,0-1,0.1-1.4,0.5l-0.3,0.3v-0.6h-0.5V37.3z M81,37.3l0-0.5
		c-0.8,0-1.4-0.3-1.4-1.2V33h1.2v-0.4h-1.2v-1.4h-0.5v1.4h-0.6V33h0.6v2.6C79.1,36.9,79.8,37.3,81,37.3L81,37.3z M89.4,36.4L89,36.1
		c-0.4,0.5-1,0.8-1.7,0.8c-1,0-1.8-0.7-2-1.7l0-0.2h4.4c0,0,0,0,0-0.1c0-1.4-1.1-2.5-2.5-2.5c-1.4,0-2.5,1.1-2.5,2.4
		c0,1.4,1.1,2.4,2.5,2.4C88.2,37.4,88.9,37.1,89.4,36.4 M85.3,34.5c0.2-0.9,1-1.5,1.9-1.5c0.9,0,1.7,0.6,1.9,1.5l0.1,0.2h-3.9
		L85.3,34.5z M98.7,32.6h-0.5v1l-0.3-0.3c-0.4-0.5-1-0.7-1.7-0.7c-1.4,0-2.5,1.1-2.5,2.4c0,1.4,1.1,2.4,2.5,2.4
		c0.6,0,1.2-0.3,1.7-0.7l0.3-0.4l0,0.5c0,1.2-0.9,1.9-2,1.9c-0.7,0-1.3-0.2-1.8-0.6l-0.3,0.4c0.6,0.5,1.3,0.7,2,0.7
		c1.6,0,2.5-0.9,2.5-2.5V32.6z M96.2,37c-1.1,0-2-0.9-2-2c0-1.1,0.9-2,2-2c1.1,0,2,0.9,2,2C98.2,36.1,97.3,37,96.2,37 M103.2,37.3
		h0.5v-2.4c0-1.1,0.3-1.8,1.4-1.8l0-0.6c-0.4,0-0.8,0.2-1.1,0.5l-0.3,0.4v-0.8h-0.5V37.3z M113.3,37.3h0.5v-4.7h-0.5v1l-0.3-0.3
		c-0.4-0.5-1-0.7-1.7-0.7c-1.4,0-2.5,1.1-2.5,2.4c0,1.4,1.1,2.4,2.5,2.4c0.6,0,1.2-0.3,1.7-0.7l0.3-0.4V37.3z M111.3,37
		c-1.1,0-2-0.9-2-2c0-1.1,0.9-2,2-2c1.1,0,2,0.9,2,2C113.3,36.1,112.4,37,111.3,37 M120.5,37.3l0-0.5c-0.8,0-1.4-0.3-1.4-1.2V33h1.2
		v-0.4h-1.2v-1.4h-0.5v1.4H118V33h0.6v2.6C118.7,36.9,119.3,37.3,120.5,37.3L120.5,37.3z M124.8,37.3h0.5v-4.7h-0.5V37.3z
		 M124.8,31.4h0.5v-0.5h-0.5V31.4z M132,37.4c1.4,0,2.5-1.1,2.5-2.4c0-1.4-1.1-2.4-2.5-2.4c-1.4,0-2.5,1.1-2.5,2.4
		C129.6,36.3,130.7,37.4,132,37.4 M132,37c-1.1,0-2-0.9-2-2c0-1.1,0.9-2,2-2c1.1,0,2,0.9,2,2C134,36.1,133.1,37,132,37 M138.8,37.3
		h0.5v-2.7c0-1,0.5-1.7,1.5-1.7c1.4,0,1.5,1,1.5,2.2v2.2h0.5v-2.5c0-1.3-0.4-2.3-1.9-2.3c-0.5,0-1,0.1-1.4,0.5l-0.3,0.3v-0.6h-0.5
		V37.3z"/>
</g>
</svg>
