<?xml version="1.0" encoding="utf-8"?>
<!-- Generator: Adobe Illustrator 22.0.1, SVG Export Plug-In . SVG Version: 6.00 Build 0)  -->
<svg version="1.1" id="Layer_1" xmlns="http://www.w3.org/2000/svg" xmlns:xlink="http://www.w3.org/1999/xlink" x="0px" y="0px"
	 viewBox="0 0 45.4 49.8" style="enable-background:new 0 0 45.4 49.8;" xml:space="preserve">
<style type="text/css">
	.st0{fill:url(#SVGID_1_);}
	.st1{fill:url(#SVGID_2_);}
	.st2{fill:url(#SVGID_3_);}
	.st3{fill:url(#SVGID_4_);}
	.st4{fill:url(#SVGID_5_);}
	.st5{fill:url(#SVGID_6_);}
	.st6{fill:url(#SVGID_7_);}
	.st7{fill:none;}
	.st8{fill:url(#SVGID_8_);}
	.st9{fill:url(#SVGID_9_);}
	.st10{fill:url(#SVGID_10_);}
	.st11{fill:url(#SVGID_11_);}
	.st12{fill:url(#SVGID_12_);}
	.st13{fill:url(#SVGID_13_);}
	.st14{fill:url(#SVGID_14_);}
	.st15{fill:url(#SVGID_15_);}
	.st16{fill:url(#SVGID_16_);}
	.st17{fill:url(#SVGID_17_);}
	.st18{fill:url(#SVGID_18_);}
	.st19{fill:url(#SVGID_19_);}
</style>
<g>
	<g>
		<linearGradient id="SVGID_1_" gradientUnits="userSpaceOnUse" x1="9.8658" y1="13.7928" x2="15.9429" y2="3.2669">
			<stop  offset="0" style="stop-color:#3FB0EC"/>
			<stop  offset="0" style="stop-color:#43A5E2"/>
			<stop  offset="1" style="stop-color:#173941"/>
		</linearGradient>
		<path class="st0" d="M8.9,6.6L3.1,9.9l0.1,0c4.6,2.6,10.2,2.6,14.7,0l4.8-2.8l-1-0.6C17.7,4.3,12.8,4.3,8.9,6.6z"/>
		<linearGradient id="SVGID_2_" gradientUnits="userSpaceOnUse" x1="16.4274" y1="-0.9886" x2="35.0657" y2="17.6497">
			<stop  offset="0" style="stop-color:#3FB0EC"/>
			<stop  offset="0.4729" style="stop-color:#43A5E2"/>
			<stop  offset="1" style="stop-color:#173941"/>
		</linearGradient>
		<path class="st1" d="M27.3,1.2c-2.8-1.6-6.3-1.6-9.1,0l-2.7,1.6l0,0L8.9,6.6c4-2.3,8.8-2.3,12.8,0l0,0l0,0l1,0.6l0,0l5.1,3
			c4.6,2.6,10.2,2.6,14.7,0l0.1,0L27.3,1.2z"/>
	</g>
	<g>
		
			<linearGradient id="SVGID_3_" gradientUnits="userSpaceOnUse" x1="49.4746" y1="-1.3331" x2="55.5518" y2="-11.8589" gradientTransform="matrix(-0.5 0.866 -0.866 -0.5 62.2331 -23.9494)">
			<stop  offset="0" style="stop-color:#3FB0EC"/>
			<stop  offset="0" style="stop-color:#43A5E2"/>
			<stop  offset="1" style="stop-color:#173941"/>
		</linearGradient>
		<path class="st2" d="M45.4,22.3v-6.6l-0.1,0c-4.6,2.6-7.4,7.5-7.4,12.7l0,5.5l1-0.6C43,31.1,45.4,26.9,45.4,22.3z"/>
		
			<linearGradient id="SVGID_4_" gradientUnits="userSpaceOnUse" x1="56.0363" y1="-16.1144" x2="74.6745" y2="2.5239" gradientTransform="matrix(-0.5 0.866 -0.866 -0.5 62.2331 -23.9494)">
			<stop  offset="0" style="stop-color:#3FB0EC"/>
			<stop  offset="0.4729" style="stop-color:#43A5E2"/>
			<stop  offset="1" style="stop-color:#173941"/>
		</linearGradient>
		<path class="st3" d="M40.8,40.9c2.8-1.6,4.6-4.7,4.6-7.9v-3.2l0,0v-7.5c0,4.6-2.4,8.8-6.4,11.1l0,0l0,0L38,34v0l-5.1,3
			c-4.6,2.6-7.4,7.5-7.4,12.7l0,0.1L40.8,40.9z"/>
	</g>
	<g>
		
			<linearGradient id="SVGID_5_" gradientUnits="userSpaceOnUse" x1="12.9873" y1="-33.5435" x2="19.0644" y2="-44.0693" gradientTransform="matrix(-0.5 -0.866 0.866 -0.5 55.1315 36.2497)">
			<stop  offset="0" style="stop-color:#3FB0EC"/>
			<stop  offset="0" style="stop-color:#43A5E2"/>
			<stop  offset="1" style="stop-color:#173941"/>
		</linearGradient>
		<path class="st4" d="M13.8,46.2l5.8,3.3l0-0.1c0-5.3-2.8-10.1-7.4-12.7L7.4,34v1.2C7.4,39.7,9.9,44,13.8,46.2z"/>
		
			<linearGradient id="SVGID_6_" gradientUnits="userSpaceOnUse" x1="19.5489" y1="-48.3248" x2="38.1872" y2="-29.6865" gradientTransform="matrix(-0.5 -0.866 0.866 -0.5 55.1315 36.2497)">
			<stop  offset="0" style="stop-color:#3FB0EC"/>
			<stop  offset="0.4729" style="stop-color:#43A5E2"/>
			<stop  offset="1" style="stop-color:#173941"/>
		</linearGradient>
		<path class="st5" d="M0,33c0,3.3,1.7,6.3,4.6,7.9l2.7,1.6l0,0l6.5,3.8c-4-2.3-6.4-6.5-6.4-11.1l0,0l0,0l0-1.2l0,0l0-5.9
			c0-5.3-2.8-10.1-7.4-12.7l-0.1,0L0,33z"/>
	</g>
</g>
<g>
	<linearGradient id="SVGID_7_" gradientUnits="userSpaceOnUse" x1="9.1902" y1="8.1565" x2="28.4987" y2="27.465">
		<stop  offset="0" style="stop-color:#3FB0EC"/>
		<stop  offset="0.4729" style="stop-color:#43A5E2"/>
		<stop  offset="1" style="stop-color:#173941"/>
	</linearGradient>
	<path class="st6" d="M30.1,17.7l-4.9-2.8c-0.5-0.3-1-0.5-1.6-0.6c-0.6-0.1-1.3-0.1-2,0c-0.5,0.1-1.1,0.3-1.6,0.6l-4.9,2.8
		c-1.4,0.8-2.4,2.3-2.5,3.9c0.1,1.6,1.1,3.1,2.5,3.9l4.9,2.8c0.5,0.3,1,0.5,1.6,0.6c-0.4-0.1-0.8-0.2-1.1-0.4l0,0
		c-1.3-0.7-2.1-2.1-2.1-3.6v0c0-1.3,0.6-2.5,1.6-3.3c0.2-0.1,0.3-0.2,0.5-0.3l0,0c1.3-0.7,2.9-0.7,4.2,0l0,0
		c0.2,0.1,0.3,0.2,0.5,0.3c1,0.8,1.6,2,1.6,3.3v0c0,1.5-0.8,2.9-2.1,3.6l0,0c-0.3,0.2-0.7,0.3-1.1,0.4c0.5-0.1,1.1-0.3,1.6-0.6
		l4.9-2.8c1.4-0.8,2.4-2.3,2.5-3.9C32.5,20,31.6,18.5,30.1,17.7z"/>
	<path class="st7" d="M21.7,29c0.6,0.2,1.3,0.2,2,0C23,29.1,22.4,29.1,21.7,29z"/>
	<path class="st7" d="M23.7,14.2c-0.6-0.2-1.3-0.2-2,0C22.4,14.1,23,14.1,23.7,14.2z"/>
	
		<linearGradient id="SVGID_8_" gradientUnits="userSpaceOnUse" x1="-711.653" y1="-59.6795" x2="-696.6979" y2="-44.7244" gradientTransform="matrix(-1 0 0 -1 -681.055 -27.6422)">
		<stop  offset="0" style="stop-color:#3FB0EC"/>
		<stop  offset="0.4729" style="stop-color:#43A5E2"/>
		<stop  offset="1" style="stop-color:#173941"/>
	</linearGradient>
	<path class="st8" d="M15.2,24.3l4.9-2.8c0.5-0.3,1-0.5,1.6-0.6c0.6-0.2,1.3-0.2,2,0c0.5,0.1,1.1,0.3,1.6,0.6l4.9,2.8
		c1.4,0.8,2.4,2.3,2.5,3.9c0-0.1,0-0.3,0-0.4v-5.7c0-1.8-1-3.5-2.5-4.4l-4.9-2.8c-1.6-0.9-3.5-0.9-5.1,0l-4.9,2.8
		c-1.6,0.9-2.5,2.6-2.5,4.4v5.7c0,0.2,0,0.3,0,0.4C12.9,26.6,13.8,25.2,15.2,24.3z"/>
	
		<linearGradient id="SVGID_9_" gradientUnits="userSpaceOnUse" x1="-482.2339" y1="-346.7047" x2="-467.2788" y2="-331.7496" gradientTransform="matrix(-0.5 0.866 -0.866 -0.5 -508.5059 265.9438)">
		<stop  offset="0" style="stop-color:#3FB0EC"/>
		<stop  offset="0.4729" style="stop-color:#43A5E2"/>
		<stop  offset="1" style="stop-color:#173941"/>
	</linearGradient>
	<path class="st9" d="M18.5,31.1l0-5.7c0-0.6,0.1-1.1,0.3-1.6c0.2-0.6,0.5-1.2,1-1.7c0.4-0.4,0.8-0.8,1.3-1.1l4.9-2.8
		c1.4-0.8,3.2-0.9,4.7-0.2c-0.1-0.1-0.2-0.2-0.4-0.2l-4.9-2.8c-1.6-0.9-3.5-0.9-5.1,0l-4.9,2.8c-1.6,0.9-2.5,2.6-2.5,4.4l0,5.7
		c0,1.8,1,3.5,2.5,4.4l4.9,2.8c0.1,0.1,0.3,0.1,0.4,0.2C19.3,34.3,18.5,32.8,18.5,31.1z"/>
	<linearGradient id="SVGID_10_" gradientUnits="userSpaceOnUse" x1="14.8049" y1="17.8351" x2="29.76" y2="32.7902">
		<stop  offset="0" style="stop-color:#3FB0EC"/>
		<stop  offset="0.4729" style="stop-color:#43A5E2"/>
		<stop  offset="1" style="stop-color:#173941"/>
	</linearGradient>
	<path class="st10" d="M30.2,25.5l-4.9,2.8c-0.5,0.3-1,0.5-1.6,0.6c-0.6,0.2-1.3,0.2-2,0c-0.5-0.1-1.1-0.3-1.6-0.6l-4.9-2.8
		c-1.4-0.8-2.4-2.3-2.5-3.9c0,0.1,0,0.3,0,0.4v5.7c0,1.8,1,3.5,2.5,4.4l4.9,2.8c1.6,0.9,3.5,0.9,5.1,0l4.9-2.8
		c1.6-0.9,2.5-2.6,2.5-4.4V22c0-0.2,0-0.3,0-0.4C32.5,23.2,31.6,24.7,30.2,25.5z"/>
	<g>
		<path class="st7" d="M21,21c-0.5,0.3-0.9,0.6-1.3,1.1c-0.5,0.5-0.8,1.1-1,1.7c-0.2,0.5-0.3,1.1-0.3,1.6v5.7c0,0.3,0,0.6,0.1,1
			c0.3-0.1,0.6-0.2,0.8-0.4l4.9-2.8c0.5-0.3,0.9-0.6,1.3-1.1c0.5-0.5,0.8-1.1,1-1.7c0.2-0.5,0.3-1.1,0.3-1.6v-2v-3.7
			c0-0.3,0-0.6-0.1-1c-0.3,0.1-0.6,0.2-0.8,0.4L21,21z"/>
		
			<linearGradient id="SVGID_11_" gradientUnits="userSpaceOnUse" x1="-716.6448" y1="-54.6876" x2="-701.6898" y2="-39.7325" gradientTransform="matrix(-1 0 0 -1 -681.055 -27.6422)">
			<stop  offset="0" style="stop-color:#3FB0EC"/>
			<stop  offset="0.4729" style="stop-color:#43A5E2"/>
			<stop  offset="1" style="stop-color:#173941"/>
		</linearGradient>
		<path class="st11" d="M30.7,18.1c1.2,1,1.9,2.4,1.9,3.9v5.7c0,0.2,0.1,0.4,0.1,0.6c0-0.1,0-0.3,0-0.4v-5.7
			C32.7,20.5,32,19.1,30.7,18.1z"/>
		
			<linearGradient id="SVGID_12_" gradientUnits="userSpaceOnUse" x1="-189.0087" y1="324.0577" x2="-174.0536" y2="339.0128" gradientTransform="matrix(0.5 -0.866 0.866 0.5 -172.5491 -293.586)">
			<stop  offset="0" style="stop-color:#3FB0EC"/>
			<stop  offset="0.4729" style="stop-color:#43A5E2"/>
			<stop  offset="1" style="stop-color:#173941"/>
		</linearGradient>
		<path class="st12" d="M30.2,24.3l-3.3-1.9v2c0,0.6-0.1,1.1-0.3,1.6c-0.2,0.6-0.5,1.2-1,1.7c-0.4,0.4-0.8,0.8-1.3,1.1l-4.9,2.8
			c-0.3,0.2-0.5,0.3-0.8,0.4c0.2,1.3,1,2.4,2.1,3.2c-0.1-0.1-0.3-0.1-0.4-0.2l-4.9-2.8c-0.1-0.1-0.2-0.2-0.4-0.2
			c-0.1,0-0.1-0.1-0.2-0.1c0.1,0.1,0.2,0.2,0.4,0.2l4.9,2.8c1.6,0.9,3.5,0.9,5.1,0l4.9-2.8c1.6-0.9,2.5-2.6,2.5-4.4v0
			C32.3,26.3,31.4,25.1,30.2,24.3z"/>
		
			<linearGradient id="SVGID_13_" gradientUnits="userSpaceOnUse" x1="-476.8187" y1="-352.1199" x2="-461.8636" y2="-337.1648" gradientTransform="matrix(-0.5 0.866 -0.866 -0.5 -508.5059 265.9438)">
			<stop  offset="0" style="stop-color:#3FB0EC"/>
			<stop  offset="0.4729" style="stop-color:#43A5E2"/>
			<stop  offset="1" style="stop-color:#173941"/>
		</linearGradient>
		<path class="st13" d="M20.3,35.1c0.1,0.1,0.3,0.1,0.4,0.2c-1.1-0.8-1.8-1.9-2.1-3.2c-1.2,0.4-2.5,0.4-3.6-0.1
			c0.1,0.1,0.2,0.2,0.4,0.2L20.3,35.1z"/>
		
			<linearGradient id="SVGID_14_" gradientUnits="userSpaceOnUse" x1="-190.8077" y1="325.8567" x2="-175.8526" y2="340.8118" gradientTransform="matrix(0.5 -0.866 0.866 0.5 -172.5491 -293.586)">
			<stop  offset="0" style="stop-color:#3FB0EC"/>
			<stop  offset="0.4729" style="stop-color:#43A5E2"/>
			<stop  offset="1" style="stop-color:#173941"/>
		</linearGradient>
		<path class="st14" d="M20.3,35.1c0.1,0.1,0.3,0.1,0.4,0.2c-1.1-0.8-1.8-1.9-2.1-3.2c-1.2,0.4-2.5,0.4-3.6-0.1
			c0.1,0.1,0.2,0.2,0.4,0.2L20.3,35.1z"/>
		
			<linearGradient id="SVGID_15_" gradientUnits="userSpaceOnUse" x1="-182.4503" y1="317.4993" x2="-167.4952" y2="332.4544" gradientTransform="matrix(0.5 -0.866 0.866 0.5 -172.5491 -293.586)">
			<stop  offset="0" style="stop-color:#3FB0EC"/>
			<stop  offset="0.4729" style="stop-color:#43A5E2"/>
			<stop  offset="1" style="stop-color:#173941"/>
		</linearGradient>
		<path class="st15" d="M30.7,18.1c-0.1-0.1-0.2-0.2-0.3-0.2c0,0,0,0-0.1,0C30.5,17.9,30.6,18,30.7,18.1z"/>
		
			<linearGradient id="SVGID_16_" gradientUnits="userSpaceOnUse" x1="-486.9073" y1="-342.0313" x2="-471.9522" y2="-327.0763" gradientTransform="matrix(-0.5 0.866 -0.866 -0.5 -508.5059 265.9438)">
			<stop  offset="0" style="stop-color:#3FB0EC"/>
			<stop  offset="0.4729" style="stop-color:#43A5E2"/>
			<stop  offset="1" style="stop-color:#173941"/>
		</linearGradient>
		<path class="st16" d="M25.1,14.8c-0.1-0.1-0.3-0.1-0.4-0.2c0,0,0.1,0.1,0.1,0.1c0.1,0.1,0.3,0.1,0.4,0.2l4.9,2.8
			c0.1,0,0.1,0.1,0.2,0.1c0,0,0,0,0.1,0c-0.1-0.1-0.2-0.2-0.4-0.2L25.1,14.8z"/>
		
			<linearGradient id="SVGID_17_" gradientUnits="userSpaceOnUse" x1="-180.7192" y1="315.7682" x2="-165.7641" y2="330.7232" gradientTransform="matrix(0.5 -0.866 0.866 0.5 -172.5491 -293.586)">
			<stop  offset="0" style="stop-color:#3FB0EC"/>
			<stop  offset="0.4729" style="stop-color:#43A5E2"/>
			<stop  offset="1" style="stop-color:#173941"/>
		</linearGradient>
		<path class="st17" d="M25.1,14.8c-0.1-0.1-0.3-0.1-0.4-0.2c0,0,0.1,0.1,0.1,0.1c0.1,0.1,0.3,0.1,0.4,0.2l4.9,2.8
			c0.1,0,0.1,0.1,0.2,0.1c0,0,0,0,0.1,0c-0.1-0.1-0.2-0.2-0.4-0.2L25.1,14.8z"/>
		
			<linearGradient id="SVGID_18_" gradientUnits="userSpaceOnUse" x1="-716.6514" y1="-54.681" x2="-701.6964" y2="-39.7259" gradientTransform="matrix(-1 0 0 -1 -681.055 -27.6422)">
			<stop  offset="0" style="stop-color:#3FB0EC"/>
			<stop  offset="0.4729" style="stop-color:#43A5E2"/>
			<stop  offset="1" style="stop-color:#173941"/>
		</linearGradient>
		<path class="st18" d="M30.7,18.1c-0.1-0.1-0.2-0.2-0.4-0.3c-1.1-0.4-2.4-0.5-3.6-0.1c0.1,0.3,0.1,0.6,0.1,1v3.7l3.3,1.9
			c1.3,0.7,2.2,2,2.4,3.4V22C32.6,20.5,31.9,19.1,30.7,18.1z"/>
		
			<linearGradient id="SVGID_19_" gradientUnits="userSpaceOnUse" x1="-486.8779" y1="-342.0607" x2="-471.9228" y2="-327.1056" gradientTransform="matrix(-0.5 0.866 -0.866 -0.5 -508.5059 265.9438)">
			<stop  offset="0" style="stop-color:#3FB0EC"/>
			<stop  offset="0.4729" style="stop-color:#43A5E2"/>
			<stop  offset="1" style="stop-color:#173941"/>
		</linearGradient>
		<path class="st19" d="M25.2,14.9c-0.1-0.1-0.2-0.1-0.4-0.2c1,0.8,1.7,1.9,1.9,3.1c1.2-0.4,2.4-0.4,3.6,0.1c-0.1,0-0.1-0.1-0.2-0.1
			L25.2,14.9z"/>
	</g>
</g>
</svg>
