<?xml version="1.0" encoding="UTF-8" standalone="no"?>
<!-- Generator: Adobe Illustrator 22.0.1, SVG Export Plug-In . SVG Version: 6.00 Build 0)  -->

<svg
   xmlns:dc="http://purl.org/dc/elements/1.1/"
   xmlns:cc="http://creativecommons.org/ns#"
   xmlns:rdf="http://www.w3.org/1999/02/22-rdf-syntax-ns#"
   xmlns:svg="http://www.w3.org/2000/svg"
   xmlns="http://www.w3.org/2000/svg"
   xmlns:sodipodi="http://sodipodi.sourceforge.net/DTD/sodipodi-0.dtd"
   xmlns:inkscape="http://www.inkscape.org/namespaces/inkscape"
   version="1.1"
   id="Layer_1"
   x="0px"
   y="0px"
   viewBox="0 0 1920 894"
   xml:space="preserve"
   sodipodi:docname="achivmets-bg.svg"
   width="1920"
   height="894"
   inkscape:version="0.92.3 (2405546, 2018-03-11)"><metadata
   id="metadata442"><rdf:RDF><cc:Work
       rdf:about=""><dc:format>image/svg+xml</dc:format><dc:type
         rdf:resource="http://purl.org/dc/dcmitype/StillImage" /><dc:title></dc:title></cc:Work></rdf:RDF></metadata><defs
   id="defs440" /><sodipodi:namedview
   pagecolor="#ffffff"
   bordercolor="#666666"
   borderopacity="1"
   objecttolerance="10"
   gridtolerance="10"
   guidetolerance="10"
   inkscape:pageopacity="0"
   inkscape:pageshadow="2"
   inkscape:window-width="1920"
   inkscape:window-height="1027"
   id="namedview438"
   showgrid="false"
   inkscape:zoom="0.32501132"
   inkscape:cx="1636.8899"
   inkscape:cy="481.04037"
   inkscape:window-x="-8"
   inkscape:window-y="-8"
   inkscape:window-maximized="1"
   inkscape:current-layer="Layer_1" />
<style
   type="text/css"
   id="style227">
	.st0{fill:#183342;}
	.st1{fill:#FFFFFF;}
	.st2{opacity:3.000000e-02;fill:#83979C;}
	.st3{fill:none;}
	.st4{opacity:0.7;fill:#FFFFFF;}
	.st5{opacity:0.27;fill:#EDF1F2;}
	.st6{opacity:0.7;fill:#EDF1F2;}
	.st7{opacity:0.7;fill:#E8EAEA;}
	.st8{opacity:0.15;fill:#83979C;}
	.st9{opacity:0.39;fill:#EDF1F2;}
	.st10{opacity:0.31;fill:#EDF1F2;}
	.st11{fill:#828899;}
</style>
<g
   id="g435"
   transform="translate(0,1)">
	<path
   class="st0"
   d="M 508.1,187.2 371.5,323.9 c -23.4,23.4 -55.1,29.7 -88.2,29.7 L 0,353.7 v 42.2 h 283.3 c 33.1,0 64.8,6.5 88.2,29.8 l 136.6,136.6 c 23.4,23.4 55.1,36.5 88.2,36.5 H 825.6 V 150.7 H 596.3 c -33.1,0 -64.8,13.1 -88.2,36.5 z"
   id="path229"
   inkscape:connector-curvature="0"
   style="fill:#183342" />
	<path
   class="st1"
   d="m 1763.7,-1 c -25.1,0 -49.1,10 -66.9,27.7 l -40.1,40.1 -55.3,55.3 c -18.3,18.3 -43.1,28.5 -68.9,28.5 H 894.8 623.3 c -39.2,0 -76.7,15.6 -104.4,43.2 l -136,136 C 368.1,344.6 348,353 327,353 H 0 v 43.3 h 327 c 21,0 41.1,8.3 55.9,23.2 l 136,136 c 27.7,27.7 65.2,43.2 104.4,43.2 h 271.5 443 c 27.8,0 54.5,11 74.2,30.7 L 1644.6,862 c 19.7,19.7 46.3,30.7 74.2,30.7 h 201.1 v -294 -448 L 1920,-1 Z"
   id="path231"
   inkscape:connector-curvature="0"
   style="fill:#ffffff" />
	<path
   class="st2"
   d="m 913.8,183.5 -29.7,-17.2 c -2.1,-1.2 -4.4,-2.1 -6.7,-2.6 -0.2,0 -0.3,-0.1 -0.5,-0.1 H 867 c 0,0 -0.1,0 -0.1,0 -2.5,0.5 -4.9,1.4 -7.1,2.7 l -3.3,1.9 -26.4,15.2 c -7.5,4.3 -12.2,12.4 -12.2,21.1 v 34.3 c 0,7.6 3.5,14.6 9.4,19.2 1.3,0.5 2.7,1.1 3.9,1.8 l 25.2,14.6 4.5,2.6 c 1,0.6 1.9,1.2 2.8,1.9 1.1,0.4 2.1,0.7 3.2,0.9 3.5,0.7 7,0.7 10.5,-0.1 2.3,-0.5 4.6,-1.4 6.7,-2.6 l 29.7,-17.2 c 7.5,-4.3 12.2,-12.4 12.2,-21.1 v -34.3 c 0,-8.6 -4.6,-16.7 -12.2,-21 z"
   id="path233"
   inkscape:connector-curvature="0" />
	<path
   class="st3"
   d="m 1232.1,157.1 h 10.9 c -3.6,-0.7 -7.3,-0.7 -10.9,0 z"
   id="path235"
   inkscape:connector-curvature="0"
   style="fill:none" />
	<path
   class="st3"
   d="m 1111.3,157.1 h 10.9 c -3.6,-0.7 -7.3,-0.7 -10.9,0 z"
   id="path237"
   inkscape:connector-curvature="0"
   style="fill:none" />
	<path
   class="st3"
   d="m 990.5,157.1 h 10.9 c -3.6,-0.7 -7.3,-0.7 -10.9,0 z"
   id="path239"
   inkscape:connector-curvature="0"
   style="fill:none" />
	<path
   class="st3"
   d="m 869.7,157.1 h 10.9 c -3.6,-0.7 -7.3,-0.7 -10.9,0 z"
   id="path241"
   inkscape:connector-curvature="0"
   style="fill:none" />
	<path
   class="st3"
   d="m 1173.5,598.2 c -3.2,-1.3 -6.5,-2.3 -9.8,-3.2 3.1,1.8 6.4,2.8 9.8,3.2 z"
   id="path243"
   inkscape:connector-curvature="0"
   style="fill:none" />
	<path
   class="st1"
   d="m 1104.5,367.2 c 7.7,-3.9 16.8,-3.9 24.6,0 -7.6,-5 -12.3,-13.5 -12.3,-22.6 -0.1,9.2 -4.7,17.7 -12.3,22.6 z"
   id="path245"
   inkscape:connector-curvature="0"
   style="fill:#ffffff" />
	<path
   class="st1"
   d="m 769.9,368 5.9,3.4 v 0 l -5.9,-3.4 c -8.4,-4.8 -13.5,-13.7 -13.5,-23.4 v -38.1 c 0,-9.6 5.1,-18.6 13.5,-23.4 l 5.9,-3.4 v -1.1 l -7.9,4.6 c -7,4 -15.2,4.7 -22.7,2 6.5,5.1 10.4,12.9 10.4,21.3 v 38.1 c 0,9.6 -5.1,18.6 -13.5,23.4 l -23.6,13.6 v 0.5 L 742.8,368 c 8.5,-4.8 18.7,-4.8 27.1,0 z"
   id="path247"
   inkscape:connector-curvature="0"
   style="fill:#ffffff" />
	<path
   class="st1"
   d="m 869.6,362.6 v 2.6 c 3.8,-1 7.8,-1.1 11.6,-0.5 v -4.1 c -2.6,-3.6 -4.4,-7.8 -5,-12.4 -0.8,5.4 -3.1,10.4 -6.6,14.4 z"
   id="path249"
   inkscape:connector-curvature="0"
   style="fill:#ffffff" />
	<path
   class="st1"
   d="m 1285.3,471.2 c 8.1,-4.1 17.8,-3.9 25.8,0.7 -8.4,-4.8 -13.5,-13.7 -13.5,-23.4 v 0.1 c -0.1,9.1 -4.7,17.6 -12.3,22.6 z"
   id="path251"
   inkscape:connector-curvature="0"
   style="fill:#ffffff" />
	<path
   class="st1"
   d="m 949.4,387 c -3.2,1.8 -6.7,3 -10.2,3.4 v 8.6 c 2.3,-5 6.1,-9.2 11,-12 l 0.6,-0.4 v -0.5 z"
   id="path253"
   inkscape:connector-curvature="0"
   style="fill:#ffffff" />
	<polygon
   class="st1"
   points="962.5,380 962.5,379.5 950.9,386.2 950.9,386.7 "
   id="polygon255"
   style="fill:#ffffff" />
	<path
   class="st4"
   d="m 1357.5,514.3 c 0,-9.6 5.1,-18.6 13.5,-23.4 -8.4,4.8 -18.6,4.8 -27,0 8.4,4.8 13.5,13.7 13.5,23.4 z"
   id="path257"
   inkscape:connector-curvature="0"
   style="opacity:0.7;fill:#ffffff" />
	<path
   class="st1"
   d="m 936.7,448.5 v -38.1 c 0,-4 0.9,-7.9 2.5,-11.4 v -8.6 c -4.7,0.6 -9.6,-0.1 -14.1,-2 7,5 11.2,13.2 11.2,21.9 v 38.1 c 0,9.6 -5.1,18.6 -13.5,23.4 l -33,19.1 c -2.8,1.6 -5.7,2.6 -8.7,3.2 v 5.8 c 2.3,-3.4 5.3,-6.3 9,-8.4 l 33,-19.1 c 5,-2.9 10.6,-4 16.1,-3.5 v -9 c -1.6,-3.5 -2.5,-7.4 -2.5,-11.4 z"
   id="path259"
   inkscape:connector-curvature="0"
   style="fill:#ffffff" />
	<path
   class="st1"
   d="m 802.9,387 c 8.4,4.8 13.5,13.7 13.5,23.4 v -0.1 c 0,-9.2 4.7,-17.7 12.3,-22.6 -8.1,4.1 -17.8,3.9 -25.8,-0.7 l -3.9,-2.2 v 0 z"
   id="path261"
   inkscape:connector-curvature="0"
   style="fill:#ffffff" />
	<polygon
   class="st1"
   points="787.4,378.1 787.4,378.1 799,384.8 "
   id="polygon263"
   style="fill:#ffffff" />
	<path
   class="st1"
   d="m 982.4,160.2 c 2.5,-1.5 5.3,-2.5 8.1,-3.1 h -13.2 -14.8 v 14.6 z"
   id="path265"
   inkscape:connector-curvature="0"
   style="fill:#ffffff" />
	<polygon
   class="st1"
   points="787.4,481.8 787.4,480.9 775.8,487.6 775.8,488.5 "
   id="polygon267"
   style="fill:#ffffff" />
	<polygon
   class="st1"
   points="799,475.1 799,474.2 787.4,480.9 787.4,481.8 "
   id="polygon269"
   style="fill:#ffffff" />
	<path
   class="st1"
   d="m 950.2,471.9 c -4.9,-2.8 -8.7,-7.1 -11,-12 v 9 c 3.8,0.4 7.5,1.5 10.9,3.5 l 0.7,0.4 v -0.5 z"
   id="path271"
   inkscape:connector-curvature="0"
   style="fill:#ffffff" />
	<path
   class="st1"
   d="m 829.9,471.8 c -8.4,-4.8 -13.5,-13.7 -13.5,-23.4 v 0.1 c 0,9.6 -5.1,18.6 -13.5,23.4 l -3.9,2.2 v 0.9 l 4.6,-2.7 c 8.4,-4.8 18.6,-4.8 27,0 l 27.3,15.8 V 488 Z"
   id="path273"
   inkscape:connector-curvature="0"
   style="fill:#ffffff" />
	<path
   class="st1"
   d="m 869.6,496.1 v -2.5 c -2.3,-0.6 -4.5,-1.5 -6.6,-2.7 l -5,-2.9 v 0.2 l 5.7,3.3 c 2.1,1.2 4.1,2.8 5.9,4.6 z"
   id="path275"
   inkscape:connector-curvature="0"
   style="fill:#ffffff" />
	<path
   class="st1"
   d="m 1297.5,240.7 c 0,9.3 -4.8,18 -12.7,22.9 7.9,-4.2 17.4,-4.2 25.4,0 -7.8,-4.9 -12.7,-13.5 -12.7,-22.9 z"
   id="path277"
   inkscape:connector-curvature="0"
   style="fill:#ffffff" />
	<path
   class="st1"
   d="m 876.2,302.9 c 0.6,-4.5 2.4,-8.7 5,-12.4 v -4.4 c -3.8,0.9 -7.8,0.9 -11.6,0.1 v 2.3 c 3.5,4 5.8,9 6.6,14.4 z"
   id="path279"
   inkscape:connector-curvature="0"
   style="fill:#ffffff" />
	<path
   class="st1"
   d="m 869.6,288.5 v -2.3 c -1.2,-0.3 -2.4,-0.6 -3.6,-1 1.3,1 2.5,2.1 3.6,3.3 z"
   id="path281"
   inkscape:connector-curvature="0"
   style="fill:#ffffff" />
	<path
   class="st1"
   d="m 1344.9,283.6 c 7.9,4.9 12.7,13.6 12.7,22.9 v -0.4 c 0,-8.5 4,-16.5 10.8,-21.6 -7.6,3.3 -16.2,3 -23.5,-0.9 z"
   id="path283"
   inkscape:connector-curvature="0"
   style="fill:#ffffff" />
	<polygon
   class="st1"
   points="962.5,479 950.9,472.3 950.9,472.8 962.5,479.5 "
   id="polygon285"
   style="fill:#ffffff" />
	<path
   class="st1"
   d="m 1116.7,306.5 c 0,-9.3 4.8,-18 12.7,-22.9 -7.9,4.2 -17.4,4.2 -25.4,0 7.9,4.9 12.7,13.6 12.7,22.9 z"
   id="path287"
   inkscape:connector-curvature="0"
   style="fill:#ffffff" />
	<polygon
   class="st1"
   points="775.8,371.4 787.4,378.1 775.8,371.4 "
   id="polygon289"
   style="fill:#ffffff" />
	<path
   class="st1"
   d="m 770.6,491.5 5.2,-3 v -0.9 l -5.9,3.4 c -7.5,4.4 -16.7,4.8 -24.5,1.2 6.6,4.3 10.9,11.2 12,19 1.1,-8.2 5.9,-15.5 13.2,-19.7 z"
   id="path291"
   inkscape:connector-curvature="0"
   style="fill:#ffffff" />
	<path
   class="st1"
   d="m 869.6,493.6 v 2.5 c 4,4.1 6.6,9.4 7.3,15.1 0.6,-4.1 2,-7.9 4.3,-11.3 v -5.8 c -3.9,0.6 -7.8,0.5 -11.6,-0.5 z"
   id="path293"
   inkscape:connector-curvature="0"
   style="fill:#ffffff" />
	<path
   class="st1"
   d="m 939.2,253.7 v 7 c 3.2,0.4 6.4,1.4 9.4,3 -4,-2.6 -7.2,-6 -9.4,-10 z"
   id="path295"
   inkscape:connector-curvature="0"
   style="fill:#ffffff" />
	<polygon
   class="st1"
   points="775.8,278.6 775.8,279.7 787.4,273 787.4,271.9 "
   id="polygon297"
   style="fill:#ffffff" />
	<path
   class="st1"
   d="m 881.2,157.1 h -0.6 c 0.2,0 0.4,0.1 0.6,0.1 z"
   id="path299"
   inkscape:connector-curvature="0"
   style="fill:#ffffff" />
	<path
   class="st1"
   d="m 887.2,366.5 c -2.3,-1.7 -4.3,-3.7 -6,-5.9 v 4.1 c 2,0.4 4,1 6,1.8 z"
   id="path301"
   inkscape:connector-curvature="0"
   style="fill:#ffffff" />
	<polygon
   class="st1"
   points="799,265.2 787.4,271.9 787.4,273 799,266.3 "
   id="polygon303"
   style="fill:#ffffff" />
	<polygon
   class="st1"
   points="962.5,588.3 955.5,592.3 962.5,592.3 "
   id="polygon305"
   style="fill:#ffffff" />
	<path
   class="st1"
   d="m 864.1,367.2 c 1.7,-0.9 3.6,-1.6 5.4,-2.1 v -2.6 c -1.5,1.8 -3.3,3.4 -5.4,4.7 z"
   id="path307"
   inkscape:connector-curvature="0"
   style="fill:#ffffff" />
	<path
   class="st1"
   d="m 861.6,160.2 c 2.5,-1.4 5.2,-2.4 7.9,-3 v 0 h -11.6 v 5.2 z"
   id="path309"
   inkscape:connector-curvature="0"
   style="fill:#ffffff" />
	<path
   class="st1"
   d="m 869.7,157.1 h -0.1 v 0 c 0,0.1 0.1,0 0.1,0 z"
   id="path311"
   inkscape:connector-curvature="0"
   style="fill:#ffffff" />
	<path
   class="st5"
   d="m 867.3,308.2 c 0,-1.1 0.1,-2.2 0.2,-3.3 -0.7,-4.9 -2.8,-9.4 -6,-13.1 -1,-1.1 -2.1,-2.1 -3.2,-3 -1.4,-0.5 -2.7,-1.1 -4,-1.8 l -3.4,-1.9 -26.6,-15.4 c -1,-0.6 -1.9,-1.2 -2.8,-1.9 -6.7,-2.4 -14.3,-1.8 -20.6,1.8 l -3.5,2 -10.6,6.1 -10.6,6.1 -5.4,3.1 c -7.6,4.4 -12.3,12.5 -12.3,21.3 v 34.7 c 0,8.8 4.7,16.9 12.3,21.3 l 5.4,3.1 10.6,6.1 10.6,6.1 3.5,2 c 7.2,4.2 16.1,4.4 23.4,0.6 0.4,-0.2 0.7,-0.5 1.1,-0.7 l 25.5,-14.7 4.5,-2.6 c 0.4,-0.2 0.7,-0.4 1.1,-0.6 1.8,-1.2 3.5,-2.6 4.9,-4.2 3.2,-3.6 5.4,-8.2 6,-13.1 -0.1,-1.1 -0.2,-2.2 -0.2,-3.3 v -34.7 z"
   id="path313"
   inkscape:connector-curvature="0"
   style="opacity:0.27000002;fill:#edf1f2" />
	<path
   class="st6"
   d="m 624.6,308.9 c 0,-1.1 0.1,-2.1 0.2,-3.2 -0.6,-4.7 -2.7,-9.1 -5.8,-12.6 -0.9,-1.1 -2,-2 -3.1,-2.9 -1.3,-0.5 -2.6,-1 -3.8,-1.8 l -3.2,-1.9 -25.6,-14.8 c -0.9,-0.5 -1.8,-1.2 -2.7,-1.8 -6.5,-2.3 -13.7,-1.8 -19.8,1.8 l -3.4,2 -10.2,5.9 -10.2,5.9 -5.2,3 c -7.3,4.2 -11.8,12 -11.8,20.5 v 33.4 c 0,8.4 4.5,16.2 11.8,20.5 l 5.2,3 10.2,5.9 10.2,5.9 3.4,2 c 7,4 15.5,4.2 22.6,0.6 0.4,-0.2 0.7,-0.5 1.1,-0.7 l 24.5,-14.2 4.4,-2.5 c 0.4,-0.2 0.7,-0.4 1.1,-0.6 1.8,-1.2 3.4,-2.5 4.7,-4.1 3.1,-3.5 5.2,-7.9 5.8,-12.6 -0.1,-1 -0.2,-2.1 -0.2,-3.2 v -33.5 z"
   id="path315"
   inkscape:connector-curvature="0"
   style="opacity:0.7;fill:#edf1f2" />
	<path
   class="st7"
   d="m 799.8,389.9 -3.6,-2.1 -10.8,-6.3 -10.8,-6.3 -5.5,-3.2 c -7.8,-4.5 -17.4,-4.5 -25.2,0 l -22.7,13.1 -8.1,4.7 c -7.8,4.5 -12.6,12.8 -12.6,21.8 v 35.6 c 0,8.5 4.3,16.5 11.4,21.1 0.8,0.4 1.6,0.7 2.3,1.2 l 6.9,4 23.9,13.8 c 0.4,0.2 0.8,0.5 1.2,0.7 7.3,3.3 15.8,2.9 22.9,-1.2 l 5.5,-3.2 10.8,-6.3 10.8,-6.3 3.6,-2.1 c 7.8,-4.5 12.6,-12.8 12.6,-21.8 V 447 411.5 c 0,-8.8 -4.8,-17.1 -12.6,-21.6 z"
   id="path317"
   inkscape:connector-curvature="0"
   style="opacity:0.7;fill:#e8eaea" />
	<path
   class="st8"
   d="m 678.9,471.9 c 8.4,-4.8 13.5,-13.7 13.5,-23.4 v -38.1 c 0,-9.6 -5.1,-18.6 -13.5,-23.4 l -33,-19.1 c -8.4,-4.8 -18.6,-4.8 -27,0 l -33,19.1 c -8.4,4.8 -13.5,13.7 -13.5,23.4 v 38.1 c 0,9.6 5.1,18.6 13.5,23.4 l 33,19.1 c 8.4,4.8 18.6,4.8 27,0 z"
   id="path319"
   inkscape:connector-curvature="0"
   style="opacity:0.15;fill:#83979c" />
	<path
   class="st8"
   d="m 678.9,264.1 c 8.4,-4.8 13.5,-13.7 13.5,-23.4 v -38.1 c 0,-9.6 -5.1,-18.6 -13.5,-23.4 l -33,-19.1 c -8.4,-4.8 -18.6,-4.8 -27,0 l -33,19.1 c -8.4,4.8 -13.5,13.7 -13.5,23.4 v 38.1 c 0,9.6 5.1,18.6 13.5,23.4 l 33,19.1 c 8.4,4.8 18.6,4.8 27,0 z"
   id="path321"
   inkscape:connector-curvature="0"
   style="opacity:0.15;fill:#83979c" />
	<path
   class="st1"
   d="m 862.9,368 c 0.4,-0.2 0.8,-0.5 1.2,-0.8 -0.4,0.2 -0.8,0.4 -1.2,0.7 l -5,2.9 v 0.1 z"
   id="path323"
   inkscape:connector-curvature="0"
   style="fill:#ffffff" />
	<path
   class="st1"
   d="m 857.9,370.9 v -0.1 l -28,16.2 c -0.4,0.2 -0.8,0.5 -1.2,0.8 0.4,-0.2 0.8,-0.4 1.2,-0.7 z"
   id="path325"
   inkscape:connector-curvature="0"
   style="fill:#ffffff" />
	<path
   class="st9"
   d="m 1033.6,392.9 -28.4,-16.4 c -7.2,-4.2 -16.1,-4.2 -23.3,0 l -17.9,10.3 -10,5.8 -0.6,0.3 c -4.2,2.4 -7.5,6.1 -9.5,10.3 -1.4,3 -2.2,6.4 -2.2,9.8 v 32.8 c 0,3.4 0.8,6.8 2.2,9.8 2,4.3 5.2,7.9 9.5,10.3 l 0.6,0.3 10,5.8 17.9,10.3 c 7.2,4.2 16.1,4.2 23.3,0 l 28.4,-16.4 c 7.2,-4.2 11.6,-11.8 11.6,-20.1 V 445.7 413 c 0,-8.2 -4.4,-15.9 -11.6,-20.1 z"
   id="path327"
   inkscape:connector-curvature="0"
   style="opacity:0.38999999;fill:#edf1f2" />
	<path
   class="st6"
   d="m 983.3,283.6 c -0.3,-0.1 -0.5,-0.3 -0.8,-0.4 l -20,-11.5 -11.6,-6.7 -1.4,-0.8 c -0.3,-0.2 -0.5,-0.3 -0.8,-0.5 -3,-1.6 -6.1,-2.6 -9.4,-3 -5.7,-0.7 -11.6,0.4 -16.8,3.4 l -33,19.1 c -3.3,1.9 -6.1,4.5 -8.3,7.4 -2.6,3.6 -4.4,7.8 -5,12.4 0.2,1.2 0.2,2.4 0.2,3.6 v 38.1 c 0,1.2 -0.1,2.4 -0.2,3.6 0.6,4.5 2.4,8.7 5,12.4 1.7,2.3 3.7,4.3 6,5.9 0.9,0.4 1.9,0.9 2.8,1.4 l 33,19.1 c 0.8,0.5 1.5,1 2.3,1.5 4.5,1.9 9.3,2.6 14.1,2 3.5,-0.4 7,-1.6 10.2,-3.4 l 1.4,-0.8 11.6,-6.7 20,-11.5 c 8.4,-4.8 13.5,-13.7 13.5,-23.4 v -38.1 c -0.2,-9.5 -5,-18.2 -12.8,-23.1 z"
   id="path329"
   inkscape:connector-curvature="0"
   style="opacity:0.7;fill:#edf1f2" />
	<path
   class="st1"
   d="m 875.9,344.6 c 0,1.2 0.1,2.4 0.2,3.6 0.2,-1.2 0.2,-2.4 0.2,-3.6 v -38.1 c 0,-1.2 -0.1,-2.4 -0.2,-3.6 -0.2,1.2 -0.2,2.4 -0.2,3.6 z"
   id="path331"
   inkscape:connector-curvature="0"
   style="fill:#ffffff" />
	<path
   class="st1"
   d="m 889.9,367.9 c -0.9,-0.5 -1.8,-1 -2.8,-1.4 0.7,0.5 1.5,1 2.3,1.5 l 33,19.1 c 0.9,0.5 1.8,1 2.7,1.4 -0.7,-0.5 -1.5,-1 -2.3,-1.5 z"
   id="path333"
   inkscape:connector-curvature="0"
   style="fill:#ffffff" />
	<path
   class="st1"
   d="m 1070.2,386.9 c -0.4,0.2 -0.8,0.5 -1.2,0.8 0.4,-0.2 0.8,-0.4 1.2,-0.7 l 33,-19.1 c 0.4,-0.2 0.8,-0.5 1.2,-0.8 -0.4,0.2 -0.8,0.4 -1.2,0.7 z"
   id="path335"
   inkscape:connector-curvature="0"
   style="fill:#ffffff" />
	<path
   class="st6"
   d="m 1340.6,364.7 c 0.4,-0.2 0.8,-0.4 1.1,-0.6 7.1,-4.6 11.4,-12.5 11.4,-20.9 v -0.4 -34.9 c 0,-8.6 -4.5,-16.6 -11.7,-21.2 -0.3,-0.1 -0.5,-0.3 -0.8,-0.4 l -30.5,-17.6 c -0.3,-0.1 -0.5,-0.3 -0.8,-0.5 -7.3,-3.9 -16.1,-3.9 -23.5,0 -0.3,0.2 -0.5,0.3 -0.8,0.5 l -30.5,17.6 c -0.2,0.1 -0.5,0.3 -0.8,0.4 -7.3,4.6 -11.7,12.5 -11.7,21.2 v 35.3 c 0,8.9 4.8,17.2 12.5,21.6 l 30.5,17.6 c 7.4,4.3 16.3,4.4 23.9,0.6 0.4,-0.2 0.7,-0.5 1.1,-0.7 z"
   id="path337"
   inkscape:connector-curvature="0"
   style="opacity:0.7;fill:#edf1f2" />
	<path
   class="st6"
   d="m 1277.9,258.5 c 0.2,-0.1 0.5,-0.3 0.7,-0.4 6.8,-4.3 11,-11.8 11,-19.8 v -33 c 0,-8.4 -4.5,-16.1 -11.7,-20.3 l -28.6,-16.5 c -2.2,-1.3 -4.6,-2.2 -7,-2.7 h -9.4 c -2.4,0.5 -4.8,1.4 -7,2.7 l -28.6,16.5 c -7.2,4.2 -11.7,11.9 -11.7,20.3 v 33 c 0,8.4 4.5,16.1 11.7,20.3 l 28.6,16.5 c 7,4 15.6,4.2 22.7,0.4 0.2,-0.1 0.5,-0.3 0.7,-0.4 z"
   id="path339"
   inkscape:connector-curvature="0"
   style="opacity:0.7;fill:#edf1f2" />
	<path
   class="st1"
   d="m 1284,264.1 c 0.3,-0.2 0.5,-0.3 0.8,-0.5 -0.2,0.2 -0.5,0.3 -0.8,0.5 l -33,19 c -0.3,0.2 -0.5,0.3 -0.8,0.5 0.3,-0.1 0.5,-0.3 0.8,-0.4 z"
   id="path341"
   inkscape:connector-curvature="0"
   style="fill:#ffffff" />
	<path
   class="st4"
   d="m 1103.2,160.2 -33,19.1 c -8.4,4.8 -13.5,13.7 -13.5,23.4 v 38.1 c 0,9.3 4.8,18 12.7,22.9 0.3,0.1 0.5,0.3 0.8,0.4 l 33,19.1 c 0.3,0.2 0.5,0.3 0.8,0.5 7.9,4.2 17.4,4.2 25.4,0 0.3,-0.2 0.5,-0.3 0.8,-0.5 l 33,-19.1 c 0.3,-0.2 0.5,-0.3 0.8,-0.4 7.9,-4.9 12.7,-13.6 12.7,-22.9 v -38.1 c 0,-9.6 -5.1,-18.6 -13.5,-23.4 l -33,-19.1 c -2.5,-1.5 -5.3,-2.5 -8.1,-3.1 h -10.9 c -2.7,0.6 -5.4,1.6 -8,3.1 z"
   id="path343"
   inkscape:connector-curvature="0"
   style="opacity:0.7;fill:#ffffff" />
	<path
   class="st1"
   d="m 1103.2,283.2 c 0.3,0.2 0.5,0.3 0.8,0.4 -0.2,-0.2 -0.5,-0.3 -0.8,-0.4 l -33,-19.1 c -0.3,-0.2 -0.5,-0.3 -0.8,-0.4 0.3,0.2 0.5,0.3 0.8,0.5 z"
   id="path345"
   inkscape:connector-curvature="0"
   style="fill:#ffffff" />
	<path
   class="st6"
   d="m 1033.1,184.9 -28.6,-16.5 c -2.2,-1.3 -4.6,-2.2 -7,-2.6 H 988 c -2.4,0.5 -4.8,1.4 -7,2.6 l -17.3,10 -10.1,5.8 -1.2,0.7 c -3.8,2.2 -6.8,5.4 -8.8,9.1 -1.8,3.4 -2.9,7.2 -2.9,11.2 v 33 c 0,4 1,7.8 2.9,11.2 1.9,3.5 4.7,6.5 8.1,8.6 0.2,0.1 0.5,0.2 0.7,0.4 l 1.2,0.7 10.1,5.8 17.3,10 c 0.2,0.1 0.5,0.3 0.7,0.4 7.1,3.8 15.7,3.7 22.7,-0.4 l 28.6,-16.5 c 7.2,-4.2 11.7,-11.9 11.7,-20.3 v -33 c 0.1,-8.3 -4.4,-16 -11.6,-20.2 z"
   id="path347"
   inkscape:connector-curvature="0"
   style="opacity:0.7;fill:#edf1f2" />
	<path
   class="st1"
   d="m 982.4,283.2 c 0.3,0.2 0.5,0.3 0.8,0.4 -0.2,-0.2 -0.5,-0.3 -0.8,-0.4 l -20,-11.6 v 0.1 z"
   id="path349"
   inkscape:connector-curvature="0"
   style="fill:#ffffff" />
	<polygon
   class="st1"
   points="962.5,271.6 950.9,264.9 950.9,265 962.5,271.7 "
   id="polygon351"
   style="fill:#ffffff" />
	<path
   class="st1"
   d="m 949.4,264.1 c -0.3,-0.2 -0.5,-0.3 -0.8,-0.4 0.3,0.1 0.6,0.3 0.8,0.4 l 1.4,0.9 v -0.1 z"
   id="path353"
   inkscape:connector-curvature="0"
   style="fill:#ffffff" />
	<path
   class="st1"
   d="m 866,285.2 c -1,-0.8 -2,-1.5 -3.1,-2.1 l -5,-2.9 v 0.8 l 3.7,2.1 c 1.4,0.9 2.9,1.6 4.4,2.1 z"
   id="path355"
   inkscape:connector-curvature="0"
   style="fill:#ffffff" />
	<path
   class="st1"
   d="m 857.9,281 v -0.8 l -28,-16.2 c -1.4,-0.8 -2.9,-1.5 -4.3,-2 1,0.8 2,1.5 3.1,2.1 z"
   id="path357"
   inkscape:connector-curvature="0"
   style="fill:#ffffff" />
	<path
   class="st6"
   d="m 795.9,183.8 -1.6,-0.9 -10.4,-6 -10.4,-6 -7.1,-4.1 c -2.3,-1.3 -4.7,-2.2 -7.2,-2.7 -3.4,-0.7 -7,-0.7 -10.4,0.2 -2.2,0.5 -4.4,1.4 -6.5,2.6 l -19.9,11.5 -9.6,5.5 c -7.5,4.3 -12.1,12.3 -12.1,20.9 v 34.1 c 0,7.5 3.5,14.5 9.3,19 1.3,0.5 2.6,1.1 3.9,1.8 l 8.4,4.9 21.1,12.2 c 1,0.6 1.9,1.2 2.8,1.9 6.6,2.4 14,1.8 20.2,-1.8 l 7.1,-4.1 10.4,-6 10.4,-6 1.6,-0.9 C 803.4,255.6 808,247.6 808,239 v -34.1 c 0,-8.9 -4.6,-16.8 -12.1,-21.1 z"
   id="path359"
   inkscape:connector-curvature="0"
   style="opacity:0.7;fill:#edf1f2" />
	<path
   class="st1"
   d="m 740.9,283.2 c 1.4,0.8 2.9,1.5 4.3,2 -1,-0.8 -2,-1.5 -3.1,-2.1 l -23.6,-13.6 v 0.8 z"
   id="path361"
   inkscape:connector-curvature="0"
   style="fill:#ffffff" />
	<path
   class="st1"
   d="m 718.5,270.3 v -0.8 l -9.4,-5.4 c -1.4,-0.8 -2.9,-1.5 -4.3,-2 1,0.8 2,1.5 3.1,2.1 z"
   id="path363"
   inkscape:connector-curvature="0"
   style="fill:#ffffff" />
	<path
   class="st1"
   d="m 996.2,552.9 c 0,1.2 0.1,2.5 0.3,3.7 0.2,-1.2 0.3,-2.4 0.3,-3.7 v -38.1 c 0,-1.2 -0.1,-2.5 -0.3,-3.7 -0.2,1.2 -0.3,2.4 -0.3,3.7 z"
   id="path365"
   inkscape:connector-curvature="0"
   style="fill:#ffffff" />
	<path
   class="st8"
   d="m 993,514.8 c 0,-1.2 0.1,-2.5 0.3,-3.7 -1.1,-8.2 -6,-15.5 -13.3,-19.7 l -20.7,-11.9 -11.6,-6.7 -0.7,-0.4 c -3.4,-2 -7.1,-3.1 -10.9,-3.5 -5.5,-0.5 -11.1,0.6 -16.1,3.5 l -33,19.1 c -3.7,2.1 -6.7,5 -9,8.4 -2.2,3.4 -3.7,7.2 -4.3,11.3 -0.2,1.2 -0.3,2.4 -0.3,3.7 V 553 c 0,1.2 0.1,2.5 0.3,3.7 0.6,4.1 2,7.9 4.3,11.3 2.3,3.4 5.3,6.3 9,8.4 l 27.6,16 h 21.4 11.6 4.6 l 7,-4 20.7,-11.9 c 7.3,-4.2 12.1,-11.5 13.3,-19.7 -0.2,-1.2 -0.3,-2.4 -0.3,-3.7 v -38.3 z"
   id="path367"
   inkscape:connector-curvature="0"
   style="opacity:0.15;fill:#83979c" />
	<path
   class="st1"
   d="m 711.1,472.4 c -0.8,-0.5 -1.6,-0.9 -2.5,-1.2 0.4,0.3 0.8,0.5 1.3,0.8 l 8.7,5 v -0.2 z"
   id="path369"
   inkscape:connector-curvature="0"
   style="fill:#ffffff" />
	<path
   class="st1"
   d="m 718.5,476.7 v 0.2 l 24.3,14.1 c 0.8,0.5 1.6,0.9 2.5,1.2 -0.4,-0.3 -0.8,-0.5 -1.3,-0.8 z"
   id="path371"
   inkscape:connector-curvature="0"
   style="fill:#ffffff" />
	<path
   class="st8"
   d="m 1130.2,283.2 c -0.3,0.2 -0.5,0.3 -0.8,0.4 -7.9,4.9 -12.7,13.6 -12.7,22.9 v 38.1 c 0,9.2 4.7,17.7 12.3,22.6 0.4,0.2 0.8,0.4 1.2,0.7 l 33,19.1 c 0.4,0.2 0.8,0.5 1.2,0.8 8.1,4.2 17.8,3.9 25.8,-0.7 l 33,-19.1 c 8.4,-4.8 13.5,-13.7 13.5,-23.4 v -38.1 c 0,-9.6 -5.1,-18.6 -13.5,-23.4 l -33,-19.1 c -8.1,-4.7 -18,-4.8 -26.2,-0.4 -0.3,0.2 -0.5,0.3 -0.8,0.5 z"
   id="path373"
   inkscape:connector-curvature="0"
   style="opacity:0.15;fill:#83979c" />
	<path
   class="st1"
   d="m 1130.2,367.9 c -0.4,-0.2 -0.8,-0.4 -1.2,-0.7 0.4,0.3 0.8,0.5 1.2,0.8 l 33,19.1 c 0.4,0.2 0.8,0.4 1.2,0.7 -0.4,-0.3 -0.8,-0.5 -1.2,-0.8 z"
   id="path375"
   inkscape:connector-curvature="0"
   style="fill:#ffffff" />
	<path
   class="st1"
   d="m 1130.2,283.1 c -0.3,0.2 -0.5,0.3 -0.8,0.5 0.3,-0.1 0.6,-0.3 0.8,-0.5 l 33,-19 c 0.3,-0.2 0.5,-0.3 0.8,-0.5 -0.3,0.1 -0.5,0.3 -0.8,0.4 z"
   id="path377"
   inkscape:connector-curvature="0"
   style="fill:#ffffff" />
	<path
   class="st1"
   d="m 1344,490.9 -33,-19.1 c -7.9,-4.6 -17.6,-4.8 -25.8,-0.7 -0.4,0.3 -0.8,0.5 -1.2,0.8 l -33,19.1 c -0.4,0.2 -0.8,0.4 -1.2,0.7 -7.6,5 -12.3,13.5 -12.3,22.6 v 38.1 c 0,9.6 5.1,18.6 13.5,23.4 l 33,19.1 c 8.4,4.8 18.6,4.8 27,0 l 33,-19.1 c 8.4,-4.8 13.5,-13.7 13.5,-23.4 v -38.1 c 0,-9.7 -5.1,-18.6 -13.5,-23.4 z"
   id="path379"
   inkscape:connector-curvature="0"
   style="fill:#ffffff" />
	<path
   class="st8"
   d="m 1357.5,514.3 v 38.1 c 0,9.6 5.1,18.6 13.5,23.4 l 33,19.1 c 8.4,4.8 18.6,4.8 27,0 l 33,-19.1 c 8.4,-4.8 13.5,-13.7 13.5,-23.4 v -38.1 c 0,-9.6 -5.1,-18.6 -13.5,-23.4 l -33,-19.1 c -8.4,-4.8 -18.6,-4.8 -27,0 l -33,19.1 c -8.3,4.8 -13.5,13.7 -13.5,23.4 z"
   id="path381"
   inkscape:connector-curvature="0"
   style="opacity:0.15;fill:#83979c" />
	<path
   class="st9"
   d="m 1190.2,594.8 33,-19.1 c 8.4,-4.8 13.5,-13.7 13.5,-23.4 v -38.1 c 0,-9.6 -5.1,-18.6 -13.5,-23.4 l -33,-19.1 c -8.4,-4.8 -18.6,-4.8 -27,0 l -33,19.1 c -8.4,4.8 -13.5,13.7 -13.5,23.4 v 38.1 c 0,9.6 5.1,18.6 13.5,23.4 l 33,19.1 c 0.1,0.1 0.3,0.2 0.4,0.2 3.3,0.9 6.6,1.9 9.8,3.2 5.8,0.7 11.7,-0.4 16.8,-3.4 z"
   id="path383"
   inkscape:connector-curvature="0"
   style="opacity:0.38999999;fill:#edf1f2" />
	<path
   class="st6"
   d="M 1395.7,394.6 1368.6,379 c -6.5,-3.8 -14.5,-3.9 -21.2,-0.5 -0.3,0.2 -0.7,0.4 -1,0.6 l -27.1,15.6 c -0.3,0.2 -0.7,0.4 -1,0.5 -6.3,4.1 -10.1,11 -10.1,18.6 v 0.1 31.1 c 0,7.9 4.2,15.2 11.1,19.2 l 27.1,15.6 c 6.9,4 15.3,4 22.2,0 l 27.1,-15.6 c 6.9,-4 11.1,-11.3 11.1,-19.2 v -0.2 -31.1 c 0,-7.9 -4.2,-15.2 -11.1,-19.1 z"
   id="path385"
   inkscape:connector-curvature="0"
   style="opacity:0.7;fill:#edf1f2" />
	<path
   class="st1"
   d="m 1344,368 c 0.4,-0.2 0.8,-0.5 1.2,-0.8 -0.4,0.2 -0.8,0.4 -1.2,0.7 l -33,19.1 c -0.4,0.2 -0.8,0.5 -1.2,0.8 0.4,-0.2 0.8,-0.4 1.2,-0.7 z"
   id="path387"
   inkscape:connector-curvature="0"
   style="fill:#ffffff" />
	<path
   class="st10"
   d="m 1431.1,264.1 c -1,-0.6 -1.9,-1.2 -2.7,-1.8 -6.9,-3 -14.7,-3 -21.5,0 -0.9,0.7 -1.8,1.3 -2.7,1.8 l -33,19.1 c -0.9,0.5 -1.8,1 -2.7,1.4 -6.7,5.1 -10.8,13 -10.8,21.6 v 0.4 37.7 c 0,9.6 5.1,18.6 13.5,23.4 l 33,19.1 c 8.4,4.8 18.6,4.8 27,0 l 33,-19.1 c 8.4,-4.8 13.5,-13.7 13.5,-23.4 v -38.1 c 0,-8.5 -4,-16.5 -10.8,-21.6 -0.9,-0.4 -1.8,-0.9 -2.7,-1.4 z"
   id="path389"
   inkscape:connector-curvature="0"
   style="opacity:0.31000001;fill:#edf1f2" />
	<path
   class="st8"
   d="m 1485.6,516.4 v 33.8 c 0,8.6 4.6,16.5 12,20.7 l 29.3,16.9 c 7.4,4.3 16.5,4.3 24,0 L 1580,571 c 7.4,-4.3 12,-12.2 12,-20.7 v -33.8 c 0,-8.6 -4.6,-16.5 -12,-20.7 l -29.3,-16.9 c -7.4,-4.3 -16.5,-4.3 -24,0 l -29.3,16.9 c -7.3,4.1 -11.8,12.1 -11.8,20.6 z"
   id="path391"
   inkscape:connector-curvature="0"
   style="opacity:0.15;fill:#83979c" />
	<path
   class="st8"
   d="m 1002.7,516.4 v 33.8 c 0,8.6 4.6,16.5 12,20.7 l 29.3,16.9 c 7.4,4.3 16.5,4.3 24,0 l 29.3,-16.9 c 7.4,-4.3 12,-12.2 12,-20.7 v -33.8 c 0,-8.6 -4.6,-16.5 -12,-20.7 L 1068,478.8 c -7.4,-4.3 -16.5,-4.3 -24,0 l -29.3,16.9 c -7.4,4.2 -12,12.2 -12,20.7 z"
   id="path393"
   inkscape:connector-curvature="0"
   style="opacity:0.15;fill:#83979c" />
	<path
   class="st8"
   d="m 643.6,516.4 v 33.8 c 0,8.6 4.6,16.5 12,20.7 l 29.3,16.9 c 7.4,4.3 16.5,4.3 24,0 l 29.3,-16.9 c 7.4,-4.3 12,-12.2 12,-20.7 v -33.8 c 0,-8.6 -4.6,-16.5 -12,-20.7 l -29.3,-16.9 c -7.4,-4.3 -16.5,-4.3 -24,0 l -29.3,16.9 c -7.4,4.2 -12,12.2 -12,20.7 z"
   id="path395"
   inkscape:connector-curvature="0"
   style="opacity:0.15;fill:#83979c" />
	<path
   class="st8"
   d="m 463,407.5 v 33.8 c 0,8.6 4.6,16.5 12,20.7 l 29.3,16.9 c 7.4,4.3 16.5,4.3 24,0 L 557.6,462 c 7.4,-4.3 12,-12.2 12,-20.7 v -33.8 c 0,-8.6 -4.6,-16.5 -12,-20.7 l -29.3,-16.9 c -7.4,-4.3 -16.5,-4.3 -24,0 L 475,386.8 c -7.4,4.3 -12,12.2 -12,20.7 z"
   id="path397"
   inkscape:connector-curvature="0"
   style="opacity:0.15;fill:#83979c" />
	<path
   class="st8"
   d="m 1550.8,271 c -0.8,-0.5 -1.7,-1 -2.4,-1.6 -6.1,-2.6 -13,-2.6 -19.1,0 -0.8,0.6 -1.6,1.1 -2.4,1.6 l -29.3,16.9 c -0.8,0.5 -1.6,0.9 -2.4,1.2 -6,4.5 -9.5,11.6 -9.5,19.1 v 0.3 33.5 c 0,8.6 4.6,16.5 12,20.7 l 29.3,16.9 c 7.4,4.3 16.5,4.3 24,0 l 29.3,-16.9 c 7.4,-4.3 12,-12.2 12,-20.7 v -33.8 c 0,-7.6 -3.6,-14.6 -9.5,-19.1 -0.8,-0.4 -1.6,-0.8 -2.4,-1.2 z"
   id="path399"
   inkscape:connector-curvature="0"
   style="opacity:0.15;fill:#83979c" />
	<path
   class="st1"
   d="m 1431.1,263.7 c -0.9,-0.5 -1.8,-1 -2.7,-1.4 0.9,0.7 1.8,1.3 2.7,1.8 l 33,19.1 c 0.9,0.5 1.8,1 2.7,1.4 -0.9,-0.7 -1.8,-1.3 -2.7,-1.8 z"
   id="path401"
   inkscape:connector-curvature="0"
   style="fill:#ffffff" />
	<path
   class="st8"
   d="m 1318.3,256.1 c 0.2,0.1 0.5,0.3 0.7,0.4 l 29.6,17.1 c 0.2,0.1 0.5,0.3 0.7,0.5 6.5,3.5 14.3,3.8 21,0.8 0.8,-0.6 1.6,-1.1 2.5,-1.6 l 29.6,-17.1 c 0.8,-0.5 1.6,-0.9 2.5,-1.2 6,-4.5 9.7,-11.7 9.7,-19.3 v -34.2 c 0,-8.7 -4.6,-16.7 -12.1,-21 l -29.6,-17.1 c -7.5,-4.3 -16.7,-4.3 -24.2,0 l -29.6,17.1 c -7.5,4.3 -12.1,12.3 -12.1,21 v 34.2 c 0,8.2 4.3,16 11.3,20.4 z"
   id="path403"
   inkscape:connector-curvature="0"
   style="opacity:0.15;fill:#83979c" />
	<path
   class="st8"
   d="m 1600.4,514.3 v 38.1 c 0,9.6 5.1,18.6 13.5,23.4 l 33,19.1 c 8.4,4.8 18.6,4.8 27,0 l 33,-19.1 c 8.4,-4.8 13.5,-13.7 13.5,-23.4 v -38.1 c 0,-9.6 -5.1,-18.6 -13.5,-23.4 l -33,-19.1 c -8.4,-4.8 -18.6,-4.8 -27,0 l -33,19.1 c -8.4,4.8 -13.5,13.7 -13.5,23.4 z"
   id="path405"
   inkscape:connector-curvature="0"
   style="opacity:0.15;fill:#83979c" />
	<path
   class="st6"
   d="M 1638.5,394.6 1611.4,379 c -6.5,-3.8 -14.5,-3.9 -21.2,-0.5 -0.3,0.2 -0.7,0.4 -1,0.6 l -27.1,15.6 c -0.3,0.2 -0.7,0.4 -1,0.5 -6.3,4.1 -10.1,11 -10.1,18.6 v 0.1 31.1 c 0,7.9 4.2,15.2 11.1,19.2 l 27.1,15.6 c 6.9,4 15.3,4 22.2,0 l 27.1,-15.6 c 6.9,-4 11.1,-11.3 11.1,-19.2 v -0.2 -31.1 c 0,-7.9 -4.2,-15.2 -11.1,-19.1 z"
   id="path407"
   inkscape:connector-curvature="0"
   style="opacity:0.7;fill:#edf1f2" />
	<path
   class="st6"
   d="M 1758.5,183.6 1731.4,168 c -6.5,-3.8 -14.5,-3.9 -21.2,-0.5 -0.3,0.2 -0.7,0.4 -1,0.6 l -27.1,15.6 c -0.3,0.2 -0.7,0.4 -1,0.5 -6.3,4.1 -10.1,11 -10.1,18.6 v 0.1 31.2 c 0,7.9 4.2,15.2 11.1,19.2 l 27.1,15.6 c 6.9,4 15.3,4 22.2,0 l 27.1,-15.6 c 6.9,-4 11.1,-11.3 11.1,-19.2 v -0.2 -31.1 c 0,-7.9 -4.2,-15.2 -11.1,-19.2 z"
   id="path409"
   inkscape:connector-curvature="0"
   style="opacity:0.7;fill:#edf1f2" />
	<path
   class="st6"
   d="m 1816.4,87.8 -27.1,-15.6 c -6.5,-3.8 -14.5,-3.9 -21.2,-0.5 -0.3,0.2 -0.7,0.4 -1,0.6 L 1740,87.9 c -0.3,0.2 -0.7,0.4 -1,0.5 -6.3,4.1 -10.1,11 -10.1,18.6 v 0.1 31.2 c 0,7.9 4.2,15.2 11.1,19.2 l 27.1,15.6 c 6.9,4 15.3,4 22.2,0 l 27.1,-15.6 c 6.9,-4 11.1,-11.3 11.1,-19.2 V 138.1 107 c 0,-7.9 -4.2,-15.2 -11.1,-19.2 z"
   id="path411"
   inkscape:connector-curvature="0"
   style="opacity:0.7;fill:#edf1f2" />
	<path
   class="st10"
   d="m 1673.9,264.1 c -1,-0.6 -1.9,-1.2 -2.7,-1.8 -6.9,-3 -14.7,-3 -21.5,0 -0.9,0.7 -1.8,1.3 -2.7,1.8 l -33,19.1 c -0.9,0.5 -1.8,1 -2.7,1.4 -6.7,5.1 -10.8,13 -10.8,21.6 v 0.4 37.7 c 0,9.6 5.1,18.6 13.5,23.4 l 33,19.1 c 8.4,4.8 18.6,4.8 27,0 l 33,-19.1 c 8.4,-4.8 13.5,-13.7 13.5,-23.4 v -38.1 c 0,-8.5 -4,-16.5 -10.8,-21.6 -0.9,-0.4 -1.8,-0.9 -2.7,-1.4 z"
   id="path413"
   inkscape:connector-curvature="0"
   style="opacity:0.31000001;fill:#edf1f2" />
	<path
   class="st6"
   d="m 1704.5,714.3 -27.1,-15.6 c -6.5,-3.8 -14.5,-3.9 -21.2,-0.5 -0.3,0.2 -0.7,0.4 -1,0.6 l -27.1,15.6 c -0.3,0.2 -0.7,0.4 -1,0.5 -6.3,4.1 -10.1,11 -10.1,18.6 v 0.1 31.2 c 0,7.9 4.2,15.2 11.1,19.2 l 27.1,15.6 c 6.9,4 15.3,4 22.2,0 l 27.1,-15.6 c 6.9,-4 11.1,-11.3 11.1,-19.2 v -0.2 -31.1 c 0,-7.9 -4.3,-15.2 -11.1,-19.2 z"
   id="path415"
   inkscape:connector-curvature="0"
   style="opacity:0.7;fill:#edf1f2" />
	<path
   class="st6"
   d="m 1824.5,714.3 -27.1,-15.6 c -6.5,-3.8 -14.5,-3.9 -21.2,-0.5 -0.3,0.2 -0.7,0.4 -1,0.6 l -27.1,15.6 c -0.3,0.2 -0.7,0.4 -1,0.5 -6.3,4.1 -10.1,11 -10.1,18.6 v 0.1 31.2 c 0,7.9 4.2,15.2 11.1,19.2 l 27.1,15.6 c 6.9,4 15.3,4 22.2,0 l 27.1,-15.6 c 6.9,-4 11.1,-11.3 11.1,-19.2 v -0.2 -31.1 c 0,-7.9 -4.2,-15.2 -11.1,-19.2 z"
   id="path417"
   inkscape:connector-curvature="0"
   style="opacity:0.7;fill:#edf1f2" />
	<path
   class="st10"
   d="m 1739.8,583.9 c -1,-0.6 -1.9,-1.2 -2.7,-1.8 -6.9,-3 -14.7,-3 -21.5,0 -0.9,0.7 -1.8,1.3 -2.7,1.8 l -33,19.1 c -0.9,0.5 -1.8,1 -2.7,1.4 -6.7,5.1 -10.8,13 -10.8,21.6 v 0.4 37.6 c 0,9.6 5.1,18.6 13.5,23.4 l 33,19.1 c 8.4,4.8 18.6,4.8 27,0 l 33,-19.1 c 8.4,-4.8 13.5,-13.7 13.5,-23.4 v -38.1 c 0,-8.5 -4,-16.5 -10.8,-21.6 -0.9,-0.4 -1.8,-0.9 -2.7,-1.4 z"
   id="path419"
   inkscape:connector-curvature="0"
   style="opacity:0.31000001;fill:#edf1f2" />
	<path
   class="st8"
   d="m 1728.4,516.4 v 33.8 c 0,8.6 4.6,16.5 12,20.7 l 29.3,16.9 c 7.4,4.3 16.5,4.3 24,0 l 29.3,-16.9 c 7.4,-4.3 12,-12.2 12,-20.7 v -33.8 c 0,-8.6 -4.6,-16.5 -12,-20.7 l -29.3,-16.9 c -7.4,-4.3 -16.5,-4.3 -24,0 l -29.3,16.9 c -7.5,4.2 -12,12.2 -12,20.7 z"
   id="path421"
   inkscape:connector-curvature="0"
   style="opacity:0.15;fill:#83979c" />
	<path
   class="st8"
   d="m 1793.6,271 c -0.8,-0.5 -1.7,-1 -2.4,-1.6 -6.1,-2.6 -13,-2.6 -19.1,0 -0.8,0.6 -1.6,1.1 -2.4,1.6 l -29.3,16.9 c -0.8,0.5 -1.6,0.9 -2.4,1.2 -6,4.5 -9.5,11.6 -9.5,19.1 v 0.3 33.5 c 0,8.6 4.6,16.5 12,20.7 l 29.3,16.9 c 7.4,4.3 16.5,4.3 24,0 l 29.3,-16.9 c 7.4,-4.3 12,-12.2 12,-20.7 v -33.8 c 0,-7.6 -3.6,-14.6 -9.5,-19.1 -0.8,-0.4 -1.6,-0.8 -2.4,-1.2 z"
   id="path423"
   inkscape:connector-curvature="0"
   style="opacity:0.15;fill:#83979c" />
	<path
   class="st8"
   d="m 1561.1,256.1 c 0.2,0.1 0.5,0.3 0.7,0.4 l 29.6,17.1 c 0.2,0.1 0.5,0.3 0.7,0.5 6.5,3.5 14.3,3.8 21,0.8 0.8,-0.6 1.6,-1.1 2.5,-1.6 l 29.6,-17.1 c 0.8,-0.5 1.6,-0.9 2.5,-1.2 6,-4.5 9.7,-11.7 9.7,-19.3 v -34.2 c 0,-8.7 -4.6,-16.7 -12.1,-21 l -29.6,-17.1 c -7.5,-4.3 -16.7,-4.3 -24.2,0 l -29.6,17.1 c -7.5,4.3 -12.1,12.3 -12.1,21 v 34.2 c 0,8.2 4.3,16 11.3,20.4 z"
   id="path425"
   inkscape:connector-curvature="0"
   style="opacity:0.15;fill:#83979c" />
	<path
   class="st1"
   d="m 1371.1,282.7 c -1,0.6 -1.9,1.2 -2.7,1.8 0.9,-0.4 1.8,-0.9 2.7,-1.4 l 33,-19.1 c 1,-0.6 1.9,-1.2 2.7,-1.8 -0.9,0.4 -1.8,0.9 -2.7,1.4 z"
   id="path427"
   inkscape:connector-curvature="0"
   style="fill:#ffffff" />
	<path
   class="st11"
   d="m 1284,471.9 c 0.4,-0.2 0.8,-0.5 1.2,-0.8 -0.4,0.2 -0.8,0.4 -1.2,0.7 l -33,19.1 c -0.4,0.2 -0.8,0.5 -1.2,0.8 0.4,-0.2 0.8,-0.4 1.2,-0.7 z"
   id="path429"
   inkscape:connector-curvature="0"
   style="fill:#828899" />
	<g
   id="g433">
		<path
   class="st3"
   d="M 949.5,494.7"
   id="path431"
   inkscape:connector-curvature="0"
   style="fill:none" />
	</g>
</g>
</svg>