<?xml version="1.0" encoding="utf-8"?>
<!-- Generator: Adobe Illustrator 22.0.1, SVG Export Plug-In . SVG Version: 6.00 Build 0)  -->
<svg version="1.1" id="Layer_1" xmlns="http://www.w3.org/2000/svg" xmlns:xlink="http://www.w3.org/1999/xlink" x="0px" y="0px"
	 viewBox="0 0 172.5 187.2" style="enable-background:new 0 0 172.5 187.2;" xml:space="preserve">
<style type="text/css">
	.st0{fill:#A5B3B8;}
	.st1{fill:#FFFFFF;}
</style>
<g>
	
		<image style="overflow:visible;opacity:0.6;" width="258" height="273" xlink:href="4F739777.png"  transform="matrix(1 0 0 1 -42.5197 -42.5197)">
	</image>
	<g>
		<path class="st0" d="M157.5,35.6c-2.1-0.8-4.2-1.7-6.2-2.9l-32.1-18.5l-15.4-8.9c-1.6-0.9-3-1.9-4.4-3C88.8-1.5,76.8-0.6,66.8,5.2
			L19.4,32.6C7.4,39.5,0,52.3,0,66.2V121c0,13.9,7.4,26.7,19.4,33.6L66.8,182c12,6.9,26.8,6.9,38.8,0l13.6-7.8l33.9-19.6
			c12-6.9,19.4-19.7,19.4-33.6V66.2C172.5,54.1,166.9,42.9,157.5,35.6z"/>
	</g>
</g>
<path class="st1" d="M146.6,44.4c-1.8-0.7-3.6-1.5-5.3-2.4l-27.2-15.7l-13-7.5c-1.3-0.8-2.6-1.6-3.8-2.5c-9-3.3-19.1-2.4-27.6,2.4
	L29.6,41.9c-10.2,5.9-16.4,16.7-16.4,28.5v46.4c0,11.8,6.3,22.6,16.4,28.5l40.2,23.2c10.2,5.9,22.7,5.9,32.9,0l11.5-6.6l28.7-16.6
	c10.2-5.9,16.4-16.7,16.4-28.5V70.4C159.3,60.1,154.6,50.6,146.6,44.4z"/>
</svg>
