<?xml version="1.0" encoding="UTF-8" standalone="no"?>
<!-- Generator: Adobe Illustrator 22.0.1, SVG Export Plug-In . SVG Version: 6.00 Build 0)  -->

<svg
   xmlns:dc="http://purl.org/dc/elements/1.1/"
   xmlns:cc="http://creativecommons.org/ns#"
   xmlns:rdf="http://www.w3.org/1999/02/22-rdf-syntax-ns#"
   xmlns:svg="http://www.w3.org/2000/svg"
   xmlns="http://www.w3.org/2000/svg"
   xmlns:sodipodi="http://sodipodi.sourceforge.net/DTD/sodipodi-0.dtd"
   xmlns:inkscape="http://www.inkscape.org/namespaces/inkscape"
   version="1.1"
   id="Layer_1"
   x="0px"
   y="0px"
   viewBox="0 0 1048.069 218"
   xml:space="preserve"
   sodipodi:docname="partners-bg.svg"
   width="1048.069"
   height="218"
   inkscape:version="0.92.3 (2405546, 2018-03-11)"><metadata
   id="metadata23"><rdf:RDF><cc:Work
       rdf:about=""><dc:format>image/svg+xml</dc:format><dc:type
         rdf:resource="http://purl.org/dc/dcmitype/StillImage" /><dc:title></dc:title></cc:Work></rdf:RDF></metadata><defs
   id="defs21">
	
	
	
	
	
	
</defs><sodipodi:namedview
   pagecolor="#ffffff"
   bordercolor="#666666"
   borderopacity="1"
   objecttolerance="10"
   gridtolerance="10"
   guidetolerance="10"
   inkscape:pageopacity="0"
   inkscape:pageshadow="2"
   inkscape:window-width="1920"
   inkscape:window-height="1027"
   id="namedview19"
   showgrid="false"
   inkscape:zoom="0.77379185"
   inkscape:cx="691.87314"
   inkscape:cy="181.37837"
   inkscape:window-x="-8"
   inkscape:window-y="-8"
   inkscape:window-maximized="1"
   inkscape:current-layer="Layer_1" />
<style
   type="text/css"
   id="style2">
	.st0{opacity:8.000000e-02;}
	.st1{fill:none;stroke:#FFFFFF;stroke-width:10;stroke-miterlimit:10;}
</style>
<g
   id="g270"
   transform="translate(-6.7914181e-6,-261.2688)"><path
     class="st1"
     d="m 34.600186,469.1688 173.300004,-173.3 c 10.9,-10.9 3.2,-29.6 -12.2,-29.6 H 22.300186 c -9.5,0 -17.2999996,7.7 -17.2999996,17.3 v 173.3 c 0,15.5 18.6999996,23.2 29.5999996,12.3 z"
     id="path6"
     inkscape:connector-curvature="0"
     style="fill:none;stroke:#ffffff;stroke-width:10;stroke-miterlimit:10" /><path
     class="st1"
     d="m 330.80019,271.3688 -173.3,173.3 c -10.9,10.9 -3.2,29.6 12.2,29.6 h 173.3 c 9.6,0 17.3,-7.8 17.3,-17.3 v -173.4 c 0.1,-15.4 -18.6,-23.1 -29.5,-12.2 z"
     id="path8"
     inkscape:connector-curvature="0"
     style="fill:none;stroke:#ffffff;stroke-width:10;stroke-miterlimit:10" /><path
     class="st1"
     d="m 449.60019,469.1688 173.4,-173.3 c 10.9,-10.9 3.2,-29.6 -12.2,-29.6 h -173.4 c -9.6,0 -17.3,7.8 -17.3,17.3 v 173.3 c 0,15.5 18.6,23.2 29.5,12.3 z"
     id="path10"
     inkscape:connector-curvature="0"
     style="fill:none;stroke:#ffffff;stroke-width:10;stroke-miterlimit:10" /><path
     class="st1"
     d="m 745.80019,271.3688 -173.3,173.3 c -10.9,10.9 -3.2,29.6 12.2,29.6 h 173.3 c 9.6,0 17.3,-7.8 17.3,-17.3 v -173.4 c 0.1,-15.4 -18.6,-23.1 -29.5,-12.2 z"
     id="path12"
     inkscape:connector-curvature="0"
     style="fill:none;stroke:#ffffff;stroke-width:10;stroke-miterlimit:10" /><path
     class="st1"
     d="m 1038.0002,444.6688 -173.30001,-173.3 c -10.9,-10.9 -29.6,-3.2 -29.6,12.2 v 173.4 c 0,9.6 7.8,17.3 17.3,17.3 h 173.30001 c 15.5,0 23.2,-18.7 12.3,-29.6 z"
     id="path14"
     inkscape:connector-curvature="0"
     style="fill:none;stroke:#ffffff;stroke-width:10;stroke-miterlimit:10" /></g>
</svg>