<?xml version="1.0" encoding="UTF-8" standalone="no"?>
<!-- Generator: Adobe Illustrator 22.0.1, SVG Export Plug-In . SVG Version: 6.00 Build 0)  -->

<svg
   xmlns:dc="http://purl.org/dc/elements/1.1/"
   xmlns:cc="http://creativecommons.org/ns#"
   xmlns:rdf="http://www.w3.org/1999/02/22-rdf-syntax-ns#"
   xmlns:svg="http://www.w3.org/2000/svg"
   xmlns="http://www.w3.org/2000/svg"
   xmlns:sodipodi="http://sodipodi.sourceforge.net/DTD/sodipodi-0.dtd"
   xmlns:inkscape="http://www.inkscape.org/namespaces/inkscape"
   version="1.1"
   id="Layer_1"
   x="0px"
   y="0px"
   viewBox="0 0 944.70001 617.20001"
   xml:space="preserve"
   sodipodi:docname="slider-bg2.svg"
   width="944.70001"
   height="617.20001"
   inkscape:version="0.92.3 (2405546, 2018-03-11)"><metadata
   id="metadata859"><rdf:RDF><cc:Work
       rdf:about=""><dc:format>image/svg+xml</dc:format><dc:type
         rdf:resource="http://purl.org/dc/dcmitype/StillImage" /><dc:title></dc:title></cc:Work></rdf:RDF></metadata><defs
   id="defs857">
	
	

		
		
	
		
		
	</defs><sodipodi:namedview
   pagecolor="#ffffff"
   bordercolor="#666666"
   borderopacity="1"
   objecttolerance="10"
   gridtolerance="10"
   guidetolerance="10"
   inkscape:pageopacity="0"
   inkscape:pageshadow="2"
   inkscape:window-width="1920"
   inkscape:window-height="1027"
   id="namedview855"
   showgrid="false"
   inkscape:zoom="0.69532167"
   inkscape:cx="433.17888"
   inkscape:cy="345.91412"
   inkscape:window-x="-8"
   inkscape:window-y="-8"
   inkscape:window-maximized="1"
   inkscape:current-layer="Layer_1" />
<style
   type="text/css"
   id="style838">
	.st0{fill:#FFFFFF;}
</style>
<g
   id="g877"
   transform="translate(6.1035156e-6,-5.3999939)"><path
     sodipodi:nodetypes="cscssssccssscsscc"
     style="fill:#ffffff"
     inkscape:connector-curvature="0"
     id="path840"
     d="m 0,297.1 h 238.4 c 22,0 42.6,-8.6 58.2,-24.1 L 441.1,128.5 c 14.6,-14.6 34,-22.6 54.6,-22.6 H 916 c 15.8,0 28.7,-12.9 28.7,-28.7 V 26.6 h -5.1 v 50.6 c 0,13.1 -10.6,23.7 -23.7,23.7 H 495.7 c -22,0 -42.6,8.6 -58.2,24.1 L 293.1,269.4 C 278.5,284 259.1,292 238.5,292 H 0 Z"
     class="st0" /><path
     sodipodi:nodetypes="cssssssccsssssscc"
     style="fill:#ffffff"
     inkscape:connector-curvature="0"
     id="path842"
     d="m 944.6,606.3 v -51.5 c 0,-15.8 -12.9,-28.7 -28.7,-28.7 H 495.7 c -20.6,0 -40,-8 -54.6,-22.6 L 296.6,359 C 281.1,343.5 260.4,334.9 238.4,334.9 H 0 v 5 h 238.4 c 20.6,0 40,8 54.6,22.6 L 437.5,507 c 15.5,15.5 36.2,24.1 58.2,24.1 H 916 c 13.1,0 23.7,10.6 23.7,23.7 v 51.5 z"
     class="st0" /><path
     sodipodi:nodetypes="cssssssccsssssscc"
     style="fill:#ffffff"
     inkscape:connector-curvature="0"
     id="path846"
     d="m 0,295.6 h 185.3 c 23.5,0 45.7,-9.2 62.3,-25.8 L 402.7,114.7 C 418.4,99 439.3,90.4 461.5,90.4 h 451.2 c 16.9,0 30.6,-13.7 30.6,-30.6 V 5.4 h -5.1 v 54.4 c 0,14.1 -11.5,25.6 -25.6,25.6 H 461.5 c -23.5,0 -45.7,9.2 -62.3,25.8 L 244.1,266.3 c -15.7,15.7 -36.6,24.3 -58.8,24.3 H 0 Z"
     class="st0" /><path
     sodipodi:nodetypes="cssssssccsssssscc"
     style="fill:#ffffff"
     inkscape:connector-curvature="0"
     id="path848"
     d="m 943.2,622.6 v -50.1 c 0,-16.9 -13.7,-30.6 -30.6,-30.6 H 461.5 c -22.2,0 -43.1,-8.6 -58.8,-24.3 L 247.6,362.5 C 231,345.9 208.8,336.7 185.3,336.7 H 0 v 5 h 185.3 c 22.2,0 43.1,8.6 58.8,24.3 l 155.1,155.1 c 16.6,16.6 38.8,25.8 62.3,25.8 h 451.2 c 14.1,0 25.6,11.5 25.6,25.6 v 50.1 z"
     class="st0" /></g>
</svg>