<?xml version="1.0" encoding="utf-8"?>
<!-- Generator: Adobe Illustrator 22.0.1, SVG Export Plug-In . SVG Version: 6.00 Build 0)  -->
<svg version="1.1" id="Layer_1" xmlns="http://www.w3.org/2000/svg" xmlns:xlink="http://www.w3.org/1999/xlink" x="0px" y="0px"
	 viewBox="0 0 1920 570" style="enable-background:new 0 0 1920 570;" xml:space="preserve">
<style type="text/css">
	.st0{fill:none;}
	.st1{fill:#FFFFFF;}
</style>
<g>
	<path class="st0" d="M397.2,88.8l-66.1,66.1c-9.5,9.5-14.7,22.1-14.7,35.5l0,189.4c0,13.4,5.2,26,14.7,35.5l66,66
		c8.8,8.8,20.2,13.9,32.4,14.6h1061.8c13.4,0,26-5.2,35.5-14.7l66.1-66.1c9.5-9.5,14.7-22.1,14.7-35.5l0-189.4
		c0-13.4-5.2-26-14.7-35.5l-66-66c-8.8-8.8-20.2-13.9-32.4-14.6H432.7C419.3,74.1,406.6,79.3,397.2,88.8z"/>
	<g>
		
			<image style="overflow:visible;opacity:0.6;" width="559" height="32" xlink:href="9F8B78E4.png"  transform="matrix(1 0 0 1 951.0331 48.0331)">
		</image>
		<g>
			<path class="st1" d="M1494.8,64.1c-1.1-0.1-2.3-0.1-3.4-0.1H966.1v0.1H1494.8z"/>
		</g>
	</g>
	<g>
		
			<image style="overflow:visible;opacity:0.6;" width="41" height="94" xlink:href="9F8B78E5.png"  transform="matrix(1 0 0 1 943.0331 491.0331)">
		</image>
		<g>
			<polygon class="st1" points="958.1,506 958,506 958,569.8 968,569.8 968,563 958.1,563 			"/>
		</g>
	</g>
	<g>
		
			<image style="overflow:visible;opacity:0.6;" width="41" height="94" xlink:href="9F8B78EB.png"  transform="matrix(1 0 0 1 941.0331 -14.9669)">
		</image>
		<g>
			<polygon class="st1" points="966,64 966.1,64 966.1,0.2 956.1,0.2 956.1,7 966,7 			"/>
		</g>
	</g>
	<g>
		
			<image style="overflow:visible;opacity:0.6;" width="560" height="32" xlink:href="9F8B78ED.png"  transform="matrix(1 0 0 1 414.0331 490.0331)">
		</image>
		<g>
			<path class="st1" d="M429.3,505.9c1.1,0.1,2.3,0.1,3.4,0.1H958v-0.1H429.3z"/>
		</g>
	</g>
	<g>
		
			<image style="overflow:visible;opacity:0.6;" width="1949" height="588" xlink:href="9F8B78EF.png"  transform="matrix(1 0 0 1 -14.9669 -8.9669)">
		</image>
		<g>
			<path class="st1" d="M1918.7,279.9h-301l0-89.8c0-16-6.3-31.3-17.6-42.6l-66-66c-2.8-2.8-5.9-5.4-9.2-7.5c-8.9-6-19.2-9.4-30-10
				H966.1V64H966V7h-9.9v57.1H432.7c-11.9,0-23.4,3.5-33.1,9.9c-3.4,2.2-6.6,4.8-9.5,7.7L324,147.8c-11.3,11.3-17.6,26.6-17.6,42.6
				l0,89.7H0v10h306.4l0,89.8c0,16,6.3,31.3,17.6,42.6l66,66c2.8,2.8,5.9,5.4,9.2,7.5c8.9,6,19.2,9.4,30,10H958v0.1h0.1v57h9.9
				v-57.1h523.4c11.9,0,23.4-3.5,33.1-9.9c3.4-2.2,6.6-4.8,9.5-7.7l66.1-66.1c11.3-11.3,17.6-26.6,17.6-42.6l0-89.7h301V279.9z
				 M1593,415.2l-66.1,66.1c-9.5,9.5-22.1,14.7-35.5,14.7H429.6c-12.3-0.7-23.7-5.8-32.4-14.6l-66-66c-9.5-9.5-14.7-22.1-14.7-35.5
				l0-189.4c0-13.4,5.2-26,14.7-35.5l66.1-66.1c9.5-9.5,22.1-14.7,35.5-14.7h1061.8c12.3,0.7,23.7,5.8,32.4,14.6l66,66
				c9.5,9.5,14.7,22.1,14.7,35.5l0,189.4C1607.7,393.1,1602.5,405.7,1593,415.2z"/>
		</g>
	</g>
</g>
</svg>
